<?xml version="1.0" encoding="utf-8"?>
<COLLADA xmlns="http://www.collada.org/2005/11/COLLADASchema" version="1.4.1" xmlns:xsi="http://www.w3.org/2001/XMLSchema-instance">
  <asset>
    <contributor>
      <author>Blender User</author>
      <authoring_tool>Blender 4.2.23 LTS commit date:2026-07-20, commit time:13:44, hash:d0cbe84903e8</authoring_tool>
    </contributor>
    <created>2026-09-06T17:27:46</created>
    <modified>2026-09-06T17:27:46</modified>
    <unit name="meter" meter="1"/>
    <up_axis>Z_UP</up_axis>
  </asset>
  <library_effects>
    <effect id="paintable-0-effect">
      <profile_COMMON>
        <technique sid="common">
          <lambert>
            <emission>
              <color sid="emission">0 0 0 1</color>
            </emission>
            <diffuse>
              <color sid="diffuse">1 0.4969335 0 1</color>
            </diffuse>
            <index_of_refraction>
              <float sid="ior">1.45</float>
            </index_of_refraction>
          </lambert>
        </technique>
      </profile_COMMON>
    </effect>
    <effect id="paintable-1-effect">
      <profile_COMMON>
        <technique sid="common">
          <lambert>
            <emission>
              <color sid="emission">0 0 0 1</color>
            </emission>
            <diffuse>
              <color sid="diffuse">0.6104922 0.4910214 0 1</color>
            </diffuse>
            <index_of_refraction>
              <float sid="ior">1.5</float>
            </index_of_refraction>
          </lambert>
        </technique>
      </profile_COMMON>
    </effect>
    <effect id="lightgrey-effect">
      <profile_COMMON>
        <technique sid="common">
          <lambert>
            <emission>
              <color sid="emission">0 0 0 1</color>
            </emission>
            <diffuse>
              <color sid="diffuse">0.7835327 0.7835385 0.7835382 1</color>
            </diffuse>
            <index_of_refraction>
              <float sid="ior">1.5</float>
            </index_of_refraction>
          </lambert>
        </technique>
      </profile_COMMON>
    </effect>
    <effect id="darkgrey-effect">
      <profile_COMMON>
        <technique sid="common">
          <lambert>
            <emission>
              <color sid="emission">0 0 0 1</color>
            </emission>
            <diffuse>
              <color sid="diffuse">0.3371614 0.3371639 0.3371637 1</color>
            </diffuse>
            <index_of_refraction>
              <float sid="ior">1.5</float>
            </index_of_refraction>
          </lambert>
        </technique>
      </profile_COMMON>
    </effect>
    <effect id="Material-effect">
      <profile_COMMON>
        <technique sid="common">
          <lambert>
            <emission>
              <color sid="emission">0 0 0 1</color>
            </emission>
            <diffuse>
              <color sid="diffuse">1 0.4969335 0 1</color>
            </diffuse>
            <index_of_refraction>
              <float sid="ior">1.45</float>
            </index_of_refraction>
          </lambert>
        </technique>
      </profile_COMMON>
    </effect>
    <effect id="Material_001-effect">
      <profile_COMMON>
        <technique sid="common">
          <lambert>
            <emission>
              <color sid="emission">0 0 0 1</color>
            </emission>
            <diffuse>
              <color sid="diffuse">1 0.4969335 0 1</color>
            </diffuse>
            <index_of_refraction>
              <float sid="ior">1.45</float>
            </index_of_refraction>
          </lambert>
        </technique>
      </profile_COMMON>
    </effect>
  </library_effects>
  <library_images/>
  <library_materials>
    <material id="paintable-0-material" name="paintable-0">
      <instance_effect url="#paintable-0-effect"/>
    </material>
    <material id="paintable-1-material" name="paintable-1">
      <instance_effect url="#paintable-1-effect"/>
    </material>
    <material id="lightgrey-material" name="lightgrey">
      <instance_effect url="#lightgrey-effect"/>
    </material>
    <material id="darkgrey-material" name="darkgrey">
      <instance_effect url="#darkgrey-effect"/>
    </material>
    <material id="Material-material" name="Material">
      <instance_effect url="#Material-effect"/>
    </material>
    <material id="Material_001-material" name="Material.001">
      <instance_effect url="#Material_001-effect"/>
    </material>
  </library_materials>
  <library_geometries>
    <geometry id="Cube-mesh" name="Cube">
      <mesh>
        <source id="Cube-mesh-positions">
          <float_array id="Cube-mesh-positions-array" count="312">-0.04142135 0.1 -0.125 -0.04142135 0.1 -0.07500004 -0.02178215 0.4499999 -0.08675098 -0.02520239 0.4499999 -0.09614795 0.04142135 -0.1 -0.125 0.04142135 -0.1 -0.07500004 -0.04142135 -0.1 -0.125 -0.04142135 -0.1 -0.07500004 -0.1 -0.04142135 -0.125 -0.1 -0.04142135 -0.07500004 -0.1 0.04142135 -0.125 -0.1 0.04142135 -0.07500004 0.45 -0.02178221 -0.113249 0.45 -0.02520239 -0.103852 0.45 0.02520239 -0.09614795 0.45 0.02178221 -0.08675098 0.1 0.02178221 -0.08675098 0.1 -0.02520239 -0.103852 0.1 -0.02178221 -0.113249 0.1 0.02520239 -0.09614795 0.02520239 0.4499999 -0.103852 0.1 -0.04142135 -0.07500004 0.1 -0.04142135 -0.125 0.02178215 0.4499999 -0.113249 0.3336004 0.3027957 -0.113249 0.3360188 0.3003772 -0.103852 0.3003772 0.3360188 -0.09614795 0.3027957 0.3336004 -0.08675098 0.05530834 0.08611303 -0.08675098 0.08853149 0.05288988 -0.103852 0.08611303 0.05530834 -0.113249 0.05288988 0.08853149 -0.09614795 0.04142135 0.1 -0.07500004 0.1 0.04142135 -0.07500004 0.1 0.04142135 -0.125 0.04142135 0.1 -0.125 -0.02178221 0.1 -0.08675098 0.02520239 0.1 -0.103852 0.02178215 0.1 -0.113249 -0.02520239 0.1 -0.09614795 -0.04142135 0.1 -0.07500004 0.04142135 0.1 -0.07500004 0.04142135 0.1 -0.125 -0.04142135 0.1 -0.125 -0.3336004 0.3027957 -0.08675098 -0.3360188 0.3003772 -0.09614795 -0.3003772 0.3360188 -0.103852 -0.3027957 0.3336004 -0.113249 -0.08611303 0.05530834 -0.08675098 -0.05288988 0.08853149 -0.103852 -0.05530834 0.08611303 -0.113249 -0.08853149 0.05288988 -0.09614795 -0.1 0.04142135 -0.07500004 -0.04142135 0.1 -0.07500004 -0.04142135 0.1 -0.125 -0.1 0.04142135 -0.125 -0.4499999 -0.02178221 -0.08675098 -0.4499999 -0.02520239 -0.09614795 -0.4499999 0.02520239 -0.103852 -0.4499999 0.02178221 -0.113249 -0.1 -0.02178221 -0.08675098 -0.1 0.02520239 -0.103852 -0.1 0.02178215 -0.113249 -0.1 -0.02520239 -0.09614795 -0.1 -0.04142135 -0.07500004 -0.1 0.04142135 -0.07500004 -0.1 0.04142135 -0.125 -0.1 -0.04142135 -0.125 -0.3027957 -0.3336004 -0.08675098 -0.3003772 -0.3360188 -0.09614795 -0.3360188 -0.3003772 -0.103852 -0.3336004 -0.3027957 -0.113249 -0.05530834 -0.08611303 -0.08675098 -0.08853149 -0.05288988 -0.103852 -0.08611303 -0.05530834 -0.113249 -0.05288988 -0.08853149 -0.09614795 -0.04142135 -0.1 -0.07500004 -0.1 -0.04142135 -0.07500004 -0.1 -0.04142135 -0.125 -0.04142135 -0.1 -0.125 0.02178221 -0.4499999 -0.08675098 0.02520239 -0.4499999 -0.09614795 -0.02520239 -0.4499999 -0.103852 -0.02178221 -0.4499999 -0.113249 0.02178221 -0.1 -0.08675098 -0.02520239 -0.1 -0.103852 -0.02178215 -0.1 -0.113249 0.02520239 -0.1 -0.09614795 0.04142135 -0.1 -0.07500004 -0.04142135 -0.1 -0.07500004 -0.04142135 -0.1 -0.125 0.04142135 -0.1 -0.125 0.3336004 -0.3027957 -0.08675098 0.3360188 -0.3003772 -0.09614795 0.3003772 -0.3360188 -0.103852 0.3027957 -0.3336004 -0.113249 0.08611303 -0.05530834 -0.08675098 0.05288988 -0.08853149 -0.103852 0.05530834 -0.08611303 -0.113249 0.08853149 -0.05288988 -0.09614795 0.1 -0.04142135 -0.07500004 0.04142135 -0.1 -0.07500004 0.04142135 -0.1 -0.125 0.1 -0.04142135 -0.125</float_array>
          <technique_common>
            <accessor source="#Cube-mesh-positions-array" count="104" stride="3">
              <param name="X" type="float"/>
              <param name="Y" type="float"/>
              <param name="Z" type="float"/>
            </accessor>
          </technique_common>
        </source>
        <source id="Cube-mesh-normals">
          <float_array id="Cube-mesh-normals-array" count="468">0.6644629 -0.6644628 -0.3420208 0.7071068 0.7071068 0 0.7071068 0.7071068 0 1 0 0 -0.2418447 0.2418447 -0.9396926 0.2418448 -0.2418448 0.9396926 0 0 1 1 0 0 0.7071068 0.7071068 0 0.7071068 0.7071068 0 0 0 -1 0 -0.3420202 0.9396926 0 0.3420201 -0.9396927 1 0 -2.14373e-7 1 4.59375e-7 0 0 -0.9396926 -0.3420203 0 0.9396927 0.34202 1 0 0 -0.6644631 0.6644632 0.3420197 0.7071068 0.7071068 0 0.9396925 0 -0.3420206 0 1 0 0 1 0 -0.3420202 0 -0.9396925 0.3420203 0 0.9396925 0 1 0 1.5794e-6 1 2.59664e-6 -0.939693 0 0.342019 0 1 0 0.6644627 0.6644627 -0.3420213 -0.707107 0.7071067 0 -0.7071068 0.7071067 0 -0.2418447 -0.2418447 -0.9396927 0.2418448 0.2418447 0.9396926 -0.7071068 0.7071068 0 -0.7071052 0.7071084 3.49246e-6 -0.6644633 -0.6644632 0.3420194 -0.7071068 0.7071068 0 0 0.939692 -0.342022 -1 -9.18749e-7 0 -1 -1.56051e-7 -4.28745e-7 0 -0.34202 -0.9396927 0 0.3420202 0.9396926 -1 0 0 -1 1.5794e-6 2.59664e-6 0 -0.9396929 0.3420194 -1 0 0 -0.6644626 0.6644626 -0.3420218 -0.7071063 -0.7071073 0 -0.7071067 -0.7071068 -2.85163e-7 0.2418447 -0.2418447 -0.9396927 -0.2418447 0.2418448 0.9396926 -0.7071068 -0.7071068 0 -0.7071084 -0.7071052 3.49246e-6 0.6644632 -0.6644632 0.3420196 -0.7071068 -0.7071068 0 -0.939692 0 -0.342022 4.59375e-7 -1 0 0 -1 -2.14373e-7 0.34202 0 -0.9396927 -0.3420202 0 0.9396926 0 -1 0 -1.5794e-6 -1 2.59664e-6 0.9396928 0 0.3420197 0 -1 0 -0.6644626 -0.6644626 -0.3420218 0.7071073 -0.7071063 0 0.7071068 -0.7071067 -2.85163e-7 0.2418447 0.2418447 -0.9396927 -0.2418448 -0.2418447 0.9396926 0.7071068 -0.7071068 0 0.7071052 -0.7071084 3.49246e-6 0.6644632 0.6644632 0.3420196 0.7071068 -0.7071068 0 0.6644626 -0.6644626 -0.3420218 0.7071068 0.7071068 0 0.7071068 0.7071068 0 1 0 0 -0.2418447 0.2418447 -0.9396926 0.2418448 -0.2418448 0.9396926 0 0 1 0 0 1 0 0 1 0 0 1 0 0 1 1 0 0 0.7071068 0.7071068 0 0.7071068 0.7071068 0 0 0 -1 0 0 -1 0 0 -1 0 0 -1 0 0 -1 0 -0.3420202 0.9396926 0 0.3420201 -0.9396927 1 0 -1.50308e-7 1 3.11529e-7 0 0 -0.9396926 -0.3420203 0 0.9396927 0.34202 1 0 4.8373e-7 -0.6644626 0.6644626 0.3420215 0.7071068 0.7071068 0 0.9396915 0 -0.3420233 0 1 0 0 1 0 -0.3420202 0 -0.9396926 0.3420203 0 0.9396926 0 1 0 -1.5794e-6 1 -2.59664e-6 -0.9396916 0 0.342023 0 1 0 0.6644626 0.6644626 -0.3420217 -0.7071067 0.7071069 2.26627e-7 -0.7071068 0.7071068 -4.1855e-7 -0.2418448 -0.2418448 -0.9396926 0.2418448 0.2418448 0.9396926 -0.7071064 0.7071072 3.72315e-7 -0.7071084 0.7071052 -3.66708e-6 -0.6644626 -0.6644627 0.3420215 -0.7071068 0.7071068 0 0 0.9396925 -0.3420206 -1 0 7.64469e-7 -1 0 -7.84344e-7 0 -0.3420202 -0.9396926 0 0.3420202 0.9396926 -1 7.01101e-7 5.37693e-7 -1 -1.5794e-6 -2.59664e-6 0 -0.9396925 0.3420204 -1 0 4.8373e-7 -0.6644626 0.6644626 -0.3420217 -0.7071065 -0.7071071 1.61876e-7 -0.7071067 -0.7071069 -2.39171e-7 0.2418448 -0.2418448 -0.9396926 -0.2418448 0.2418448 0.9396926 -0.7071068 -0.7071068 0 -0.7071052 -0.7071084 -3.66708e-6 0.6644627 -0.6644626 0.3420215 -0.7071067 -0.7071068 6.57725e-7 -0.9396925 0 -0.3420206 3.11529e-7 -1 0 0 -1 -1.50308e-7 0.3420202 0 -0.9396926 -0.3420202 0 0.9396926 0 -1 0 1.5794e-6 -1 -2.59664e-6 0.9396925 0 0.3420204 0 -1 4.8373e-7 -0.6644626 -0.6644626 -0.3420217 0.7071071 -0.7071065 1.61876e-7 0.7071069 -0.7071067 -2.39171e-7 0.2418448 0.2418448 -0.9396926 -0.2418448 -0.2418448 0.9396926 0.7071068 -0.7071068 0 0.7071084 -0.7071052 -3.66708e-6 0.6644626 0.6644627 0.3420215 0.7071068 -0.7071067 6.57725e-7</float_array>
          <technique_common>
            <accessor source="#Cube-mesh-normals-array" count="156" stride="3">
              <param name="X" type="float"/>
              <param name="Y" type="float"/>
              <param name="Z" type="float"/>
            </accessor>
          </technique_common>
        </source>
        <source id="Cube-mesh-map-0">
          <float_array id="Cube-mesh-map-0-array" count="936">0.375 0.5 0.625 0.6944444 0.375 0.6944444 0.75 1 0.7255275 0.7885208 0.75 0.5 0.6546332 0.6175105 0.75 0.5 0.7255275 0.7885208 0.625 0.75 0.375 1 0.375 0.75 0.625 0.5 0.4305556 0.25 0.625 0.25 0.375 0 0.5694444 0.25 0.375 0.25 0.00999999 0.25 0.25 0.00999999 0.49 0.25 0.625 0.5 0.6494725 0.7114799 0.625 1 0.625 0.5 0.6494725 0.7114799 0.625 1 0.625 0.75 0.375 1 0.375 0.75 0.9197056 0.08029437 0.5802944 0.08029437 0.5802944 0.4197056 0.375 0 0.5694444 0.25 0.375 0.25 0.625 0.5 0.4305556 0.25 0.625 0.25 0.6546332 0.6175105 0.75 0.5 0.7255275 0.7885208 0.75 1 0.7255275 0.7885208 0.75 0.5 0.375 0.5 0.625 0.6944444 0.375 0.6944444 0.375 0.75 0.125 0.5555556 0.375 0.5555556 0.7203669 0.8824901 0.625 1 0.6494725 0.7114799 0.375 0.75 0.125 0.5555556 0.375 0.5555556 0.7203669 0.8824901 0.625 1 0.6494725 0.7114799 0.375 0.5 0.625 0.6944444 0.375 0.6944444 0.75 1 0.7255275 0.7885208 0.75 0.5 0.6546332 0.6175105 0.75 0.5 0.7255275 0.7885208 0.625 0.5 0.4305556 0.25 0.625 0.25 0.375 0 0.5694444 0.25 0.375 0.25 0.625 0.5 0.6494725 0.7114799 0.625 1 0.625 0.75 0.375 1 0.375 0.75 0.375 0.75 0.125 0.5555556 0.375 0.5555556 0.7203669 0.8824901 0.625 1 0.6494725 0.7114799 0.375 0.5 0.625 0.6944444 0.375 0.6944444 0.75 1 0.7255275 0.7885208 0.75 0.5 0.6546332 0.6175105 0.75 0.5 0.7255275 0.7885208 0.625 0.5 0.4305556 0.25 0.625 0.25 0.375 0 0.5694444 0.25 0.375 0.25 0.625 0.5 0.6494725 0.7114799 0.625 1 0.625 0.75 0.375 1 0.375 0.75 0.375 0.75 0.125 0.5555556 0.375 0.5555556 0.7203669 0.8824901 0.625 1 0.6494725 0.7114799 0.375 0.5 0.625 0.6944444 0.375 0.6944444 0.75 1 0.7255275 0.7885208 0.75 0.5 0.6546332 0.6175105 0.75 0.5 0.7255275 0.7885208 0.625 0.5 0.4305556 0.25 0.625 0.25 0.375 0 0.5694444 0.25 0.375 0.25 0.625 0.5 0.6494725 0.7114799 0.625 1 0.625 0.75 0.375 1 0.375 0.75 0.375 0.75 0.125 0.5555556 0.375 0.5555556 0.7203669 0.8824901 0.625 1 0.6494725 0.7114799 0.375 0.5 0.625 0.6944444 0.375 0.6944444 0.75 1 0.7255275 0.7885208 0.75 0.5 0.6546332 0.6175105 0.75 0.5 0.7255275 0.7885208 0.625 0.5 0.4305556 0.25 0.625 0.25 0.375 0 0.5694444 0.25 0.375 0.25 0.625 0.5 0.6494725 0.7114799 0.625 1 0.625 0.75 0.375 1 0.375 0.75 0.375 0.75 0.125 0.5555556 0.375 0.5555556 0.7203669 0.8824901 0.625 1 0.6494725 0.7114799 0.375 0.5 0.625 0.6944444 0.375 0.6944444 0.75 1 0.7255275 0.7885208 0.75 0.5 0.6546332 0.6175105 0.75 0.5 0.7255275 0.7885208 0.625 0.5 0.4305556 0.25 0.625 0.25 0.375 0 0.5694444 0.25 0.375 0.25 0.625 0.5 0.6494725 0.7114799 0.625 1 0.625 0.75 0.375 1 0.375 0.75 0.375 0.75 0.125 0.5555556 0.375 0.5555556 0.7203669 0.8824901 0.625 1 0.6494725 0.7114799 0.375 0.5 0.625 0.6944444 0.375 0.6944444 0.75 1 0.7255275 0.7885208 0.75 0.5 0.6546332 0.6175105 0.75 0.5 0.7255275 0.7885208 0.625 0.5 0.4305556 0.25 0.625 0.25 0.375 0 0.5694444 0.25 0.375 0.25 0.625 0.5 0.6494725 0.7114799 0.625 1 0.625 0.75 0.375 1 0.375 0.75 0.375 0.75 0.125 0.5555556 0.375 0.5555556 0.7203669 0.8824901 0.625 1 0.6494725 0.7114799 0.375 0.5 0.625 0.5 0.625 0.6944444 0.75 1 0.7203669 0.8824901 0.7255275 0.7885208 0.6546332 0.6175105 0.625 0.5 0.75 0.5 0.625 0.75 0.625 1 0.375 1 0.625 0.5 0.4305556 0.5 0.4305556 0.25 0.375 0 0.5694444 0 0.5694444 0.25 0.49 0.25 0.4197056 0.4197056 0.25 0.49 0.25 0.49 0.08029437 0.4197056 0.00999999 0.25 0.00999999 0.25 0.08029437 0.08029437 0.25 0.00999999 0.25 0.00999999 0.4197056 0.08029437 0.49 0.25 0.49 0.25 0.25 0.49 0.00999999 0.25 0.625 0.5 0.6546332 0.6175105 0.6494725 0.7114799 0.625 0.5 0.6546332 0.6175105 0.6494725 0.7114799 0.625 0.75 0.625 1 0.375 1 0.5802944 0.4197056 0.75 0.49 0.9197056 0.4197056 0.9197056 0.4197056 0.99 0.25 0.9197056 0.08029437 0.9197056 0.08029437 0.75 0.00999999 0.5802944 0.08029437 0.5802944 0.08029437 0.51 0.25 0.5802944 0.4197056 0.5802944 0.4197056 0.9197056 0.4197056 0.9197056 0.08029437 0.375 0 0.5694444 0 0.5694444 0.25 0.625 0.5 0.4305556 0.5 0.4305556 0.25 0.6546332 0.6175105 0.625 0.5 0.75 0.5 0.75 1 0.7203669 0.8824901 0.7255275 0.7885208 0.375 0.5 0.625 0.5 0.625 0.6944444 0.375 0.75 0.125 0.75 0.125 0.5555556 0.7203669 0.8824901 0.75 1 0.625 1 0.375 0.75 0.125 0.75 0.125 0.5555556 0.7203669 0.8824901 0.75 1 0.625 1 0.375 0.5 0.625 0.5 0.625 0.6944444 0.75 1 0.7203669 0.8824901 0.7255275 0.7885208 0.6546332 0.6175105 0.625 0.5 0.75 0.5 0.625 0.5 0.4305556 0.5 0.4305556 0.25 0.375 0 0.5694444 0 0.5694444 0.25 0.625 0.5 0.6546332 0.6175105 0.6494725 0.7114799 0.625 0.75 0.625 1 0.375 1 0.375 0.75 0.125 0.75 0.125 0.5555556 0.7203669 0.8824901 0.75 1 0.625 1 0.375 0.5 0.625 0.5 0.625 0.6944444 0.75 1 0.7203669 0.8824901 0.7255275 0.7885208 0.6546332 0.6175105 0.625 0.5 0.75 0.5 0.625 0.5 0.4305556 0.5 0.4305556 0.25 0.375 0 0.5694444 0 0.5694444 0.25 0.625 0.5 0.6546332 0.6175105 0.6494725 0.7114799 0.625 0.75 0.625 1 0.375 1 0.375 0.75 0.125 0.75 0.125 0.5555556 0.7203669 0.8824901 0.75 1 0.625 1 0.375 0.5 0.625 0.5 0.625 0.6944444 0.75 1 0.7203669 0.8824901 0.7255275 0.7885208 0.6546332 0.6175105 0.625 0.5 0.75 0.5 0.625 0.5 0.4305556 0.5 0.4305556 0.25 0.375 0 0.5694444 0 0.5694444 0.25 0.625 0.5 0.6546332 0.6175105 0.6494725 0.7114799 0.625 0.75 0.625 1 0.375 1 0.375 0.75 0.125 0.75 0.125 0.5555556 0.7203669 0.8824901 0.75 1 0.625 1 0.375 0.5 0.625 0.5 0.625 0.6944444 0.75 1 0.7203669 0.8824901 0.7255275 0.7885208 0.6546332 0.6175105 0.625 0.5 0.75 0.5 0.625 0.5 0.4305556 0.5 0.4305556 0.25 0.375 0 0.5694444 0 0.5694444 0.25 0.625 0.5 0.6546332 0.6175105 0.6494725 0.7114799 0.625 0.75 0.625 1 0.375 1 0.375 0.75 0.125 0.75 0.125 0.5555556 0.7203669 0.8824901 0.75 1 0.625 1 0.375 0.5 0.625 0.5 0.625 0.6944444 0.75 1 0.7203669 0.8824901 0.7255275 0.7885208 0.6546332 0.6175105 0.625 0.5 0.75 0.5 0.625 0.5 0.4305556 0.5 0.4305556 0.25 0.375 0 0.5694444 0 0.5694444 0.25 0.625 0.5 0.6546332 0.6175105 0.6494725 0.7114799 0.625 0.75 0.625 1 0.375 1 0.375 0.75 0.125 0.75 0.125 0.5555556 0.7203669 0.8824901 0.75 1 0.625 1 0.375 0.5 0.625 0.5 0.625 0.6944444 0.75 1 0.7203669 0.8824901 0.7255275 0.7885208 0.6546332 0.6175105 0.625 0.5 0.75 0.5 0.625 0.5 0.4305556 0.5 0.4305556 0.25 0.375 0 0.5694444 0 0.5694444 0.25 0.625 0.5 0.6546332 0.6175105 0.6494725 0.7114799 0.625 0.75 0.625 1 0.375 1 0.375 0.75 0.125 0.75 0.125 0.5555556 0.7203669 0.8824901 0.75 1 0.625 1</float_array>
          <technique_common>
            <accessor source="#Cube-mesh-map-0-array" count="468" stride="2">
              <param name="S" type="float"/>
              <param name="T" type="float"/>
            </accessor>
          </technique_common>
        </source>
        <vertices id="Cube-mesh-vertices">
          <input semantic="POSITION" source="#Cube-mesh-positions"/>
        </vertices>
        <triangles material="paintable-0-material" count="156">
          <input semantic="VERTEX" source="#Cube-mesh-vertices" offset="0"/>
          <input semantic="NORMAL" source="#Cube-mesh-normals" offset="1"/>
          <input semantic="TEXCOORD" source="#Cube-mesh-map-0" offset="2" set="0"/>
          <p>24 0 0 29 0 1 30 0 2 32 1 3 31 1 4 35 1 5 30 2 6 35 2 7 31 2 8 15 3 9 12 3 10 14 3 11 24 4 12 31 4 13 26 4 14 27 5 15 29 5 16 25 5 17 9 6 18 5 6 19 33 6 20 22 7 21 17 7 22 21 7 23 34 8 24 29 8 25 33 8 26 27 9 27 24 9 28 26 9 29 22 10 30 6 10 31 10 10 32 15 11 33 17 11 34 13 11 35 12 12 36 19 12 37 14 12 38 18 13 39 34 13 40 19 13 41 33 14 42 19 14 43 34 14 44 12 15 45 17 15 46 18 15 47 15 16 48 19 16 49 16 16 50 16 17 51 21 17 52 17 17 53 27 18 54 31 18 55 28 18 56 28 19 57 33 19 58 29 19 59 23 20 60 37 20 61 38 20 62 40 21 63 39 21 64 43 21 65 38 22 66 43 22 67 39 22 68 23 23 69 39 23 70 3 23 71 2 24 72 37 24 73 20 24 74 42 25 75 37 25 76 41 25 77 2 26 78 23 26 79 3 26 80 2 27 81 39 27 82 36 27 83 36 28 84 41 28 85 37 28 86 47 29 87 49 29 88 50 29 89 52 30 90 51 30 91 55 30 92 50 31 93 55 31 94 51 31 95 47 32 96 51 32 97 45 32 98 44 33 99 49 33 100 46 33 101 54 34 102 49 34 103 53 34 104 44 35 105 47 35 106 45 35 107 44 36 108 51 36 109 48 36 110 48 37 111 53 37 112 49 37 113 59 38 114 61 38 115 62 38 116 64 39 117 63 39 118 67 39 119 62 40 120 67 40 121 63 40 122 59 41 123 63 41 124 57 41 125 56 42 126 61 42 127 58 42 128 66 43 129 61 43 130 65 43 131 56 44 132 59 44 133 57 44 134 56 45 135 63 45 136 60 45 137 60 46 138 65 46 139 61 46 140 71 47 141 73 47 142 74 47 143 76 48 144 75 48 145 79 48 146 74 49 147 79 49 148 75 49 149 71 50 150 75 50 151 69 50 152 68 51 153 73 51 154 70 51 155 78 52 156 73 52 157 77 52 158 68 53 159 71 53 160 69 53 161 68 54 162 75 54 163 72 54 164 72 55 165 77 55 166 73 55 167 83 56 168 85 56 169 86 56 170 88 57 171 87 57 172 91 57 173 86 58 174 91 58 175 87 58 176 83 59 177 87 59 178 81 59 179 80 60 180 85 60 181 82 60 182 90 61 183 85 61 184 89 61 185 80 62 186 83 62 187 81 62 188 80 63 189 87 63 190 84 63 191 84 64 192 89 64 193 85 64 194 95 65 195 97 65 196 98 65 197 100 66 198 99 66 199 103 66 200 98 67 201 103 67 202 99 67 203 95 68 204 99 68 205 93 68 206 92 69 207 97 69 208 94 69 209 102 70 210 97 70 211 101 70 212 92 71 213 95 71 214 93 71 215 92 72 216 99 72 217 96 72 218 96 73 219 101 73 220 97 73 221 24 74 222 25 74 223 29 74 224 32 75 225 28 75 226 31 75 227 30 76 228 34 76 229 35 76 230 15 77 231 13 77 232 12 77 233 24 78 234 30 78 235 31 78 236 27 79 237 28 79 238 29 79 239 33 80 240 32 80 241 1 80 242 1 81 243 11 81 244 9 81 245 9 82 246 7 82 247 5 82 248 5 83 249 21 83 250 33 83 251 33 84 252 1 84 253 9 84 254 22 85 255 18 85 256 17 85 257 34 86 258 30 86 259 29 86 260 27 87 261 25 87 262 24 87 263 10 88 264 0 88 265 35 88 266 35 89 267 34 89 268 22 89 269 22 90 270 4 90 271 6 90 272 6 91 273 8 91 274 10 91 275 10 92 276 35 92 277 22 92 278 15 93 279 16 93 280 17 93 281 12 94 282 18 94 283 19 94 284 18 95 285 22 95 286 34 95 287 33 96 288 16 96 289 19 96 290 12 97 291 13 97 292 17 97 293 15 98 294 14 98 295 19 98 296 16 99 297 33 99 298 21 99 299 27 100 300 26 100 301 31 100 302 28 101 303 32 101 304 33 101 305 23 102 306 20 102 307 37 102 308 40 103 309 36 103 310 39 103 311 38 104 312 42 104 313 43 104 314 23 105 315 38 105 316 39 105 317 2 106 318 36 106 319 37 106 320 42 107 321 38 107 322 37 107 323 2 108 324 20 108 325 23 108 326 2 109 327 3 109 328 39 109 329 36 110 330 40 110 331 41 110 332 47 111 333 46 111 334 49 111 335 52 112 336 48 112 337 51 112 338 50 113 339 54 113 340 55 113 341 47 114 342 50 114 343 51 114 344 44 115 345 48 115 346 49 115 347 54 116 348 50 116 349 49 116 350 44 117 351 46 117 352 47 117 353 44 118 354 45 118 355 51 118 356 48 119 357 52 119 358 53 119 359 59 120 360 58 120 361 61 120 362 64 121 363 60 121 364 63 121 365 62 122 366 66 122 367 67 122 368 59 123 369 62 123 370 63 123 371 56 124 372 60 124 373 61 124 374 66 125 375 62 125 376 61 125 377 56 126 378 58 126 379 59 126 380 56 127 381 57 127 382 63 127 383 60 128 384 64 128 385 65 128 386 71 129 387 70 129 388 73 129 389 76 130 390 72 130 391 75 130 392 74 131 393 78 131 394 79 131 395 71 132 396 74 132 397 75 132 398 68 133 399 72 133 400 73 133 401 78 134 402 74 134 403 73 134 404 68 135 405 70 135 406 71 135 407 68 136 408 69 136 409 75 136 410 72 137 411 76 137 412 77 137 413 83 138 414 82 138 415 85 138 416 88 139 417 84 139 418 87 139 419 86 140 420 90 140 421 91 140 422 83 141 423 86 141 424 87 141 425 80 142 426 84 142 427 85 142 428 90 143 429 86 143 430 85 143 431 80 144 432 82 144 433 83 144 434 80 145 435 81 145 436 87 145 437 84 146 438 88 146 439 89 146 440 95 147 441 94 147 442 97 147 443 100 148 444 96 148 445 99 148 446 98 149 447 102 149 448 103 149 449 95 150 450 98 150 451 99 150 452 92 151 453 96 151 454 97 151 455 102 152 456 98 152 457 97 152 458 92 153 459 94 153 460 95 153 461 92 154 462 93 154 463 99 154 464 96 155 465 100 155 466 101 155 467</p>
        </triangles>
      </mesh>
    </geometry>
  </library_geometries>
  <library_visual_scenes>
    <visual_scene id="Scene" name="Scene">
      <node id="Cube" name="Cube" type="NODE">
        <matrix sid="transform">1 0 0 0 0 1 0 0 0 0 1 0 0 0 0 1</matrix>
        <instance_geometry url="#Cube-mesh" name="Cube">
          <bind_material>
            <technique_common>
              <instance_material symbol="paintable-0-material" target="#paintable-0-material">
                <bind_vertex_input semantic="UVMap" input_semantic="TEXCOORD" input_set="0"/>
              </instance_material>
              <instance_material symbol="paintable-1-material" target="#paintable-1-material">
                <bind_vertex_input semantic="UVMap" input_semantic="TEXCOORD" input_set="0"/>
              </instance_material>
              <instance_material symbol="lightgrey-material" target="#lightgrey-material">
                <bind_vertex_input semantic="UVMap" input_semantic="TEXCOORD" input_set="0"/>
              </instance_material>
              <instance_material symbol="darkgrey-material" target="#darkgrey-material">
                <bind_vertex_input semantic="UVMap" input_semantic="TEXCOORD" input_set="0"/>
              </instance_material>
              <instance_material symbol="Material-material" target="#Material-material">
                <bind_vertex_input semantic="UVMap" input_semantic="TEXCOORD" input_set="0"/>
              </instance_material>
              <instance_material symbol="Material_001-material" target="#Material_001-material">
                <bind_vertex_input semantic="UVMap" input_semantic="TEXCOORD" input_set="0"/>
              </instance_material>
            </technique_common>
          </bind_material>
        </instance_geometry>
      </node>
    </visual_scene>
  </library_visual_scenes>
  <scene>
    <instance_visual_scene url="#Scene"/>
  </scene>
</COLLADA>