<?xml version="1.0" encoding="utf-8"?>
<COLLADA xmlns="http://www.collada.org/2005/11/COLLADASchema" version="1.4.1" xmlns:xsi="http://www.w3.org/2001/XMLSchema-instance">
  <asset>
    <contributor>
      <author>Blender User</author>
      <authoring_tool>Blender 4.2.23 LTS commit date:2026-07-20, commit time:13:44, hash:d0cbe84903e8</authoring_tool>
    </contributor>
    <created>2026-07-23T20:32:42</created>
    <modified>2026-07-23T20:32:42</modified>
    <unit name="meter" meter="1"/>
    <up_axis>Z_UP</up_axis>
  </asset>
  <library_effects>
    <effect id="paintable-0-effect">
      <profile_COMMON>
        <technique sid="common">
          <lambert>
            <emission>
              <color sid="emission">0 0 0 1</color>
            </emission>
            <diffuse>
              <color sid="diffuse">1 0.4969335 0 1</color>
            </diffuse>
            <index_of_refraction>
              <float sid="ior">1.45</float>
            </index_of_refraction>
          </lambert>
        </technique>
      </profile_COMMON>
    </effect>
    <effect id="paintable-1-effect">
      <profile_COMMON>
        <technique sid="common">
          <lambert>
            <emission>
              <color sid="emission">0 0 0 1</color>
            </emission>
            <diffuse>
              <color sid="diffuse">0.6104922 0.4910214 0 1</color>
            </diffuse>
            <index_of_refraction>
              <float sid="ior">1.5</float>
            </index_of_refraction>
          </lambert>
        </technique>
      </profile_COMMON>
    </effect>
    <effect id="lightgrey-effect">
      <profile_COMMON>
        <technique sid="common">
          <lambert>
            <emission>
              <color sid="emission">0 0 0 1</color>
            </emission>
            <diffuse>
              <color sid="diffuse">0.7835327 0.7835385 0.7835382 1</color>
            </diffuse>
            <index_of_refraction>
              <float sid="ior">1.5</float>
            </index_of_refraction>
          </lambert>
        </technique>
      </profile_COMMON>
    </effect>
    <effect id="darkgrey-effect">
      <profile_COMMON>
        <technique sid="common">
          <lambert>
            <emission>
              <color sid="emission">0 0 0 1</color>
            </emission>
            <diffuse>
              <color sid="diffuse">0.3371614 0.3371639 0.3371637 1</color>
            </diffuse>
            <index_of_refraction>
              <float sid="ior">1.5</float>
            </index_of_refraction>
          </lambert>
        </technique>
      </profile_COMMON>
    </effect>
    <effect id="Material-effect">
      <profile_COMMON>
        <technique sid="common">
          <lambert>
            <emission>
              <color sid="emission">0 0 0 1</color>
            </emission>
            <diffuse>
              <color sid="diffuse">1 0.4969335 0 1</color>
            </diffuse>
            <index_of_refraction>
              <float sid="ior">1.45</float>
            </index_of_refraction>
          </lambert>
        </technique>
      </profile_COMMON>
    </effect>
    <effect id="Material_001-effect">
      <profile_COMMON>
        <technique sid="common">
          <lambert>
            <emission>
              <color sid="emission">0 0 0 1</color>
            </emission>
            <diffuse>
              <color sid="diffuse">1 0.4969335 0 1</color>
            </diffuse>
            <index_of_refraction>
              <float sid="ior">1.45</float>
            </index_of_refraction>
          </lambert>
        </technique>
      </profile_COMMON>
    </effect>
  </library_effects>
  <library_images/>
  <library_materials>
    <material id="paintable-0-material" name="paintable-0">
      <instance_effect url="#paintable-0-effect"/>
    </material>
    <material id="paintable-1-material" name="paintable-1">
      <instance_effect url="#paintable-1-effect"/>
    </material>
    <material id="lightgrey-material" name="lightgrey">
      <instance_effect url="#lightgrey-effect"/>
    </material>
    <material id="darkgrey-material" name="darkgrey">
      <instance_effect url="#darkgrey-effect"/>
    </material>
    <material id="Material-material" name="Material">
      <instance_effect url="#Material-effect"/>
    </material>
    <material id="Material_001-material" name="Material.001">
      <instance_effect url="#Material_001-effect"/>
    </material>
  </library_materials>
  <library_geometries>
    <geometry id="Cube-mesh" name="Cube">
      <mesh>
        <source id="Cube-mesh-positions">
          <float_array id="Cube-mesh-positions-array" count="240">-0.031066 0.07500004 -0.125 -0.031066 0.07500004 -0.07499998 0.031066 0.07500004 -0.125 0.031066 0.07500004 -0.07499998 -0.01049029 0.07500004 -0.08816981 0.01549041 0.07500004 -0.1031698 0.01049041 0.07500004 -0.1118301 -0.01549029 0.07500004 -0.09683007 -0.01549035 0.235 -0.09683007 0.01049035 0.235 -0.1118301 0.01549035 0.2350001 -0.1031698 -0.01049035 0.235 -0.08816981 0.07500004 0.031066 -0.07499998 0.07500004 0.031066 -0.125 -0.07500004 -0.031066 -0.125 -0.07500004 -0.031066 -0.07499998 -0.07499998 0.031066 -0.125 -0.07499998 0.031066 -0.07499998 -0.07500004 -0.01549029 -0.09683007 -0.07500004 0.01049041 -0.1118301 -0.07500004 0.01549041 -0.1031699 -0.07500004 -0.01049029 -0.08816987 0.01049029 -0.07500004 -0.08816981 -0.01549041 -0.07500004 -0.1031698 -0.01049041 -0.07500004 -0.1118301 0.01549029 -0.07500004 -0.09683007 0.031066 -0.07500004 -0.125 0.031066 -0.07500004 -0.07499998 -0.031066 -0.07499998 -0.125 -0.031066 -0.07499998 -0.07499998 0.235 0.01049035 -0.08816981 0.235 -0.01549035 -0.1031698 0.235 -0.01049041 -0.1118301 0.235 0.01549035 -0.09683007 0.07500004 0.01549029 -0.09683007 0.07500004 -0.01049041 -0.1118301 0.07500004 -0.01549041 -0.1031698 0.07500004 0.01049029 -0.08816981 0.07499998 -0.031066 -0.07499998 0.07499998 -0.031066 -0.125 -0.235 -0.01549029 -0.09683007 -0.235 0.01049041 -0.1118301 -0.235 0.01549041 -0.1031699 -0.235 -0.01049029 -0.08816987 -0.04207968 -0.06398636 -0.09683007 -0.06045085 -0.04561513 -0.1118301 -0.06398642 -0.04207962 -0.1031699 -0.04561519 -0.06045079 -0.08816987 -0.1552168 -0.1771234 -0.09683007 -0.1735879 -0.1587522 -0.1118301 -0.1771235 -0.1552167 -0.1031699 -0.1587523 -0.1735879 -0.08816987 0.01549035 -0.235 -0.09683007 -0.01049041 -0.235 -0.1118301 -0.01549041 -0.235 -0.1031698 0.01049029 -0.235 -0.08816981 0.06398636 -0.04207968 -0.09683007 0.04561513 -0.06045085 -0.1118301 0.04207962 -0.06398642 -0.1031698 0.06045079 -0.04561519 -0.08816981 0.1771234 -0.1552168 -0.09683007 0.1587522 -0.1735879 -0.1118301 0.1552167 -0.1771235 -0.1031698 0.1735879 -0.1587523 -0.08816981 0.04207968 0.0639863 -0.09683007 0.06045085 0.04561513 -0.1118301 0.06398642 0.04207962 -0.1031698 0.04561519 0.06045079 -0.08816981 0.1552168 0.1771234 -0.09683007 0.1735879 0.1587522 -0.1118301 0.1771235 0.1552167 -0.1031698 0.1587523 0.1735879 -0.08816981 -0.0639863 0.04207968 -0.09683007 -0.04561513 0.06045085 -0.1118301 -0.04207962 0.06398642 -0.1031698 -0.06045079 0.04561519 -0.08816981 -0.1771234 0.1552167 -0.09683007 -0.1587522 0.1735879 -0.1118301 -0.1552167 0.1771235 -0.1031698 -0.1735879 0.1587523 -0.08816981</float_array>
          <technique_common>
            <accessor source="#Cube-mesh-positions-array" count="80" stride="3">
              <param name="X" type="float"/>
              <param name="Y" type="float"/>
              <param name="Z" type="float"/>
            </accessor>
          </technique_common>
        </source>
        <source id="Cube-mesh-normals">
          <float_array id="Cube-mesh-normals-array" count="468">0.7071066 0.707107 4.22008e-7 0.7071073 0.7071063 0 0.7071067 0.7071068 0 1 -1.19915e-7 -3.78382e-7 1 0 0 0 1 0 0.7071061 0.7071074 -9.98791e-7 1 0 0 -0.7071069 0.7071066 4.82296e-7 -0.7071073 0.7071062 -1.05842e-6 -0.707107 0.7071066 5.6908e-7 1 -1.19915e-7 1.87348e-7 4.78349e-7 1 0 -4.02081e-7 1 -6.28179e-7 -0.7071067 0.7071069 0 0 1 0 0 1 3.2068e-7 0 1 0 1 0 5.21166e-7 0 1 0 -0.7071077 0.7071058 -1.05842e-6 -0.707107 0.7071067 -2.13404e-7 0 1 0 -0.7071071 0.7071065 3.61721e-7 -0.7071063 0.7071073 0 1 1.37681e-7 -7.8083e-7 1 -9.56699e-7 0 1 0 0 0.7071071 0.7071064 0 0.7071062 0.7071073 -1.05842e-6 0.7071067 0.7071068 2.13405e-7 0.7071066 0.707107 4.82296e-7 -1 0 0 -0.7071067 -0.707107 3.01435e-7 -0.7071062 -0.7071073 -7.75184e-7 -0.7071066 -0.707107 4.97944e-7 -1 9.56699e-7 0 -1 -1.37681e-7 -7.8083e-7 -0.7071062 -0.7071074 0 -1 0 0 -1 0 5.21166e-7 -1 1.19915e-7 1.87347e-7 -1 0 0 -0.7071065 -0.7071071 2.83239e-7 -0.7071066 -0.707107 0 -1 1.19915e-7 -3.78383e-7 -0.7071066 -0.7071069 -3.61722e-7 -0.7071071 -0.7071065 0 0 -1 0 0.707107 -0.7071067 4.82296e-7 0.7071074 -0.7071062 -1.05842e-6 0.707107 -0.7071065 7.82484e-7 -9.56699e-7 -1 0 1.37681e-7 -1 -7.8083e-7 0.7071073 -0.7071063 0 0 -1 0 0 -1 5.21166e-7 -1.19915e-7 -1 1.87347e-7 0 -1 0 0.7071074 -0.7071062 -1.19259e-7 0.707107 -0.7071065 -2.13405e-7 -1.19915e-7 -1 -3.78383e-7 0.707107 -0.7071065 -1.80861e-7 0.7071063 -0.7071073 0 -3.59746e-7 3.59746e-7 1 0 -1.69586e-7 1 0 0 1 0 0 1 0 1.9016e-7 1 0 2.10734e-7 1 0 0 -1 0 -1.69586e-7 -1 -5.29331e-7 -3.59746e-7 -1 0 0 -1 1.69586e-7 0 -1 0 -1.4475e-7 -1 0 0.5 0.8660254 0 -0.4999999 -0.8660255 0 -0.8660253 0.5000001 0 0.8660256 -0.4999995 -1 0 0 -0.3535534 0.3535534 0.8660253 0.3535534 -0.3535534 -0.8660254 0.6123722 -0.6123723 0.5000003 -0.6123727 0.6123726 -0.4999995 -0.7071065 -0.707107 1.94026e-7 -0.5000001 0 0.8660253 0.4999999 0 -0.8660255 0.8660253 1.20982e-7 0.5000001 -0.866026 0 -0.4999991 0 -1 0 -0.3535535 -0.3535535 0.8660255 0.3535532 0.3535532 -0.8660255 0.612372 0.6123721 0.5000011 -0.6123726 -0.6123726 -0.4999995 0.707107 -0.7071065 1.94026e-7 0 -0.5000001 0.8660253 0 0.4999999 -0.8660255 -1.20982e-7 0.8660253 0.5000001 1.20508e-7 -0.8660259 -0.4999991 1 1.49012e-6 -2.58096e-6 0.3535532 -0.3535532 0.8660255 -0.3535529 0.353553 -0.8660258 -0.612373 0.6123727 0.499999 0.6123726 -0.6123726 -0.4999995 0.7071066 0.707107 1.94025e-7 0.5000002 0 0.8660253 -0.4999999 0 -0.8660255 -0.8660253 -1.20982e-7 0.5000001 0.8660259 1.81899e-7 -0.4999991 -2.23518e-6 1 -3.87144e-6 0.3535533 0.3535534 0.8660254 -0.3535528 -0.3535527 -0.8660259 -0.6123724 -0.6123728 0.4999994 0.6123726 0.6123726 -0.4999995 -0.707107 0.7071066 1.94025e-7 0 0.5 0.8660254 0 -0.4999999 -0.8660255 0 -0.8660253 0.5000001 0 0.8660256 -0.4999995 -1 0 0 -0.3535536 0.3535536 0.8660252 0.3535533 -0.3535533 -0.8660255 0.612372 -0.6123721 0.5000011 -0.6123726 0.6123726 -0.4999994 -0.7071066 -0.707107 1.69773e-7 -0.5000001 0 0.8660253 0.4999997 0 -0.8660256 0.8660247 0 0.5000013 -0.8660258 0 -0.4999993 1.17522e-6 -1 -1.04213e-6 -0.3535535 -0.3535535 0.8660255 0.3535534 0.3535534 -0.8660254 0.6123725 0.6123725 0.4999998 -0.6123726 -0.6123726 -0.4999997 0.707107 -0.7071066 1.69773e-7 0 -0.5000001 0.8660253 0 0.4999999 -0.8660255 -1.20982e-7 0.8660253 0.5000001 1.20982e-7 -0.8660259 -0.499999 1 8.60319e-7 4.96706e-7 0.3535532 -0.3535532 0.8660256 -0.3535535 0.3535534 -0.8660253 -0.6123721 0.612372 0.5000011 0.6123724 -0.6123724 -0.5000001 0.7071065 0.7071071 1.69773e-7 0.5000001 0 0.8660253 -0.5000001 0 -0.8660253 -0.8660259 -2.01637e-7 0.499999 0.8660261 2.01637e-7 -0.4999988 -1.29048e-6 1 7.45057e-7 0.353553 0.353553 0.8660257 -0.3535534 -0.3535535 -0.8660253 -0.6123718 -0.6123721 0.5000011 0.6123723 0.6123722 -0.5000004 -0.707107 0.7071067 1.94026e-7</float_array>
          <technique_common>
            <accessor source="#Cube-mesh-normals-array" count="156" stride="3">
              <param name="X" type="float"/>
              <param name="Y" type="float"/>
              <param name="Z" type="float"/>
            </accessor>
          </technique_common>
        </source>
        <source id="Cube-mesh-map-0">
          <float_array id="Cube-mesh-map-0-array" count="936">0.8436642 0.7816988 0.7913948 0.6316988 0.875 0.5 0.75 1 0.75 0.5 0.7813357 0.7183012 0.7913948 0.6316988 0.75 0.5 0.875 0.5 0.6663949 0.6316988 0.625 0.5 0.75 0.5 0.7186642 0.7816988 0.6663949 0.6316988 0.75 0.5 0.7186642 0.7816988 0.6663949 0.6316988 0.75 0.5 0.875 1 0.8336049 0.8683012 0.8436642 0.7816988 0.75 1 0.7086049 0.8683013 0.7186642 0.7816988 0.7813357 0.7183012 0.8336049 0.8683012 0.75 1 0.75 0.5 0.7913948 0.6316988 0.7813357 0.7183012 0.8336049 0.8683012 0.875 1 0.75 1 0.7086049 0.8683013 0.75 1 0.625 1 0.625 1 0.625 0.5 0.6563357 0.7183012 0.625 0.5 0.6663949 0.6316988 0.6563357 0.7183012 0.875 0.5 0.875 1 0.8436642 0.7816988 0.75 0.5 0.75 1 0.7186642 0.7816988 0.6563357 0.7183012 0.7086049 0.8683013 0.625 1 0.7086049 0.8683013 0.75 1 0.625 1 0.6563357 0.7183012 0.7086049 0.8683013 0.625 1 0.75 1 0.7086049 0.8683013 0.7186642 0.7816988 0.875 1 0.8336049 0.8683012 0.8436642 0.7816988 0.7913948 0.6316988 0.75 0.5 0.875 0.5 0.6663949 0.6316988 0.625 0.5 0.75 0.5 0.8436642 0.7816988 0.7913948 0.6316988 0.875 0.5 0.75 1 0.75 0.5 0.7813357 0.7183012 0.625 0.5 0.6663949 0.6316988 0.6563357 0.7183012 0.625 1 0.625 0.5 0.6563357 0.7183012 0.75 0.5 0.75 1 0.7186642 0.7816988 0.875 0.5 0.875 1 0.8436642 0.7816988 0.75 0.5 0.7913948 0.6316988 0.7813357 0.7183012 0.8336049 0.8683012 0.875 1 0.75 1 0.7813357 0.7183012 0.8336049 0.8683012 0.75 1 0.7186642 0.7816988 0.6663949 0.6316988 0.75 0.5 0.7813357 0.7183012 0.8336049 0.8683012 0.75 1 0.75 0.5 0.7913948 0.6316988 0.7813357 0.7183012 0.8336049 0.8683012 0.875 1 0.75 1 0.625 1 0.625 0.5 0.6563357 0.7183012 0.625 0.5 0.6663949 0.6316988 0.6563357 0.7183012 0.875 0.5 0.875 1 0.8436642 0.7816988 0.75 0.5 0.75 1 0.7186642 0.7816988 0.6563357 0.7183012 0.7086049 0.8683013 0.625 1 0.7086049 0.8683013 0.75 1 0.625 1 0.75 1 0.7086049 0.8683013 0.7186642 0.7816988 0.875 1 0.8336049 0.8683012 0.8436642 0.7816988 0.7913948 0.6316988 0.75 0.5 0.875 0.5 0.6663949 0.6316988 0.625 0.5 0.75 0.5 0.8436642 0.7816988 0.7913948 0.6316988 0.875 0.5 0.75 1 0.75 0.5 0.7813357 0.7183012 0.7186642 0.7816988 0.6663949 0.6316988 0.75 0.5 0.7813357 0.7183012 0.8336049 0.8683012 0.75 1 0.75 0.5 0.7913948 0.6316988 0.7813357 0.7183012 0.8336049 0.8683012 0.875 1 0.75 1 0.625 1 0.625 0.5 0.6563357 0.7183012 0.625 0.5 0.6663949 0.6316988 0.6563357 0.7183012 0.875 0.5 0.875 1 0.8436642 0.7816988 0.75 0.5 0.75 1 0.7186642 0.7816988 0.6563357 0.7183012 0.7086049 0.8683013 0.625 1 0.7086049 0.8683013 0.75 1 0.625 1 0.75 1 0.7086049 0.8683013 0.7186642 0.7816988 0.875 1 0.8336049 0.8683012 0.8436642 0.7816988 0.7913948 0.6316988 0.75 0.5 0.875 0.5 0.6663949 0.6316988 0.625 0.5 0.75 0.5 0.8436642 0.7816988 0.7913948 0.6316988 0.875 0.5 0.75 1 0.75 0.5 0.7813357 0.7183012 0.75 1 0.625 1 0.75 1 0.75 1 0.875 1 0.75 1 0.75 1 0.625 1 0.75 1 0.625 1 0.75 1 0.75 1 0.75 1 0.625 1 0.75 1 0.625 1 0.75 1 0.75 1 0.875 0.5 0.875 0.5 0.875 0.5 0.875 0.5 0.75 0.5 0.875 0.5 0.875 0.5 0.75 0.5 0.875 0.5 0.875 0.5 0.75 0.5 0.875 0.5 0.875 0.5 0.75 0.5 0.875 0.5 0.875 0.5 0.875 0.5 0.875 0.5 0.6563357 0.7183012 0.7086049 0.8683013 0.7086049 0.8683013 0.7186642 0.7816988 0.6663949 0.6316988 0.6663949 0.6316988 0.7086049 0.8683013 0.7186642 0.7816988 0.7186642 0.7816988 0.6663949 0.6316988 0.6563357 0.7183012 0.6563357 0.7183012 0.7086049 0.8683013 0.6663949 0.6316988 0.7186642 0.7816988 0.6563357 0.7183012 0.7086049 0.8683013 0.7086049 0.8683013 0.6663949 0.6316988 0.7186642 0.7816988 0.6663949 0.6316988 0.7086049 0.8683013 0.7186642 0.7816988 0.7186642 0.7816988 0.6563357 0.7183012 0.6663949 0.6316988 0.6563357 0.7183012 0.7086049 0.8683013 0.6663949 0.6316988 0.7186642 0.7816988 0.6563357 0.7183012 0.7086049 0.8683013 0.7086049 0.8683013 0.7186642 0.7816988 0.6663949 0.6316988 0.6663949 0.6316988 0.7086049 0.8683013 0.7186642 0.7816988 0.7186642 0.7816988 0.6563357 0.7183012 0.6663949 0.6316988 0.6563357 0.7183012 0.7086049 0.8683013 0.6663949 0.6316988 0.7186642 0.7816988 0.6563357 0.7183012 0.7086049 0.8683013 0.7086049 0.8683013 0.6663949 0.6316988 0.7186642 0.7816988 0.6663949 0.6316988 0.7186642 0.7816988 0.7086049 0.8683013 0.7186642 0.7816988 0.6563357 0.7183012 0.6663949 0.6316988 0.6563357 0.7183012 0.7086049 0.8683013 0.6663949 0.6316988 0.7186642 0.7816988 0.6563357 0.7183012 0.7086049 0.8683013 0.7086049 0.8683013 0.7186642 0.7816988 0.6663949 0.6316988 0.6663949 0.6316988 0.7086049 0.8683013 0.7186642 0.7816988 0.7186642 0.7816988 0.6563357 0.7183012 0.6663949 0.6316988 0.6563357 0.7183012 0.7186642 0.7816988 0.6563357 0.7183012 0.6663949 0.6316988 0.6563357 0.7183012 0.7086049 0.8683013 0.7086049 0.8683013 0.6663949 0.6316988 0.7186642 0.7816988 0.6663949 0.6316988 0.7086049 0.8683013 0.7186642 0.7816988 0.7186642 0.7816988 0.6563357 0.7183012 0.6663949 0.6316988 0.6563357 0.7183012 0.7086049 0.8683013 0.6663949 0.6316988 0.7186642 0.7816988 0.6563357 0.7183012 0.7086049 0.8683013 0.7086049 0.8683013 0.7186642 0.7816988 0.6663949 0.6316988 0.6663949 0.6316988 0.7086049 0.8683013 0.7186642 0.7816988 0.7186642 0.7816988 0.6563357 0.7183012 0.6663949 0.6316988 0.6563357 0.7183012 0.7186642 0.7816988 0.6563357 0.7183012 0.6663949 0.6316988 0.6563357 0.7183012 0.7086049 0.8683013 0.7086049 0.8683013 0.6663949 0.6316988 0.7186642 0.7816988 0.6663949 0.6316988 0.7086049 0.8683013 0.7186642 0.7816988 0.7186642 0.7816988 0.6563357 0.7183012 0.6663949 0.6316988 0.6563357 0.7183012 0.7086049 0.8683013 0.6663949 0.6316988 0.7186642 0.7816988 0.6563357 0.7183012 0.6563357 0.7183012 0.7086049 0.8683013 0.7186642 0.7816988 0.7186642 0.7816988 0.6663949 0.6316988 0.7086049 0.8683013 0.7086049 0.8683013 0.7186642 0.7816988 0.6663949 0.6316988 0.6663949 0.6316988 0.6563357 0.7183012 0.7086049 0.8683013 0.6563357 0.7183012 0.6663949 0.6316988 0.6563357 0.7183012 0.6563357 0.7183012 0.7086049 0.8683013 0.6663949 0.6316988 0.7186642 0.7816988 0.7186642 0.7816988 0.7086049 0.8683013 0.7086049 0.8683013 0.7186642 0.7816988 0.6563357 0.7183012 0.6663949 0.6316988 0.6663949 0.6316988 0.7086049 0.8683013 0.6563357 0.7183012 0.6663949 0.6316988 0.6563357 0.7183012 0.6563357 0.7183012 0.7086049 0.8683013 0.7186642 0.7816988 0.7186642 0.7816988 0.6663949 0.6316988 0.7086049 0.8683013 0.7086049 0.8683013 0.7186642 0.7816988 0.6563357 0.7183012 0.6663949 0.6316988 0.6663949 0.6316988 0.7086049 0.8683013 0.6563357 0.7183012 0.6663949 0.6316988 0.6563357 0.7183012 0.6563357 0.7183012 0.7086049 0.8683013 0.6663949 0.6316988 0.7186642 0.7816988 0.7186642 0.7816988 0.7186642 0.7816988 0.7086049 0.8683013 0.7086049 0.8683013 0.6563357 0.7183012 0.6663949 0.6316988 0.6663949 0.6316988 0.7086049 0.8683013 0.6563357 0.7183012 0.6663949 0.6316988 0.6563357 0.7183012 0.6563357 0.7183012 0.7086049 0.8683013 0.7186642 0.7816988 0.7186642 0.7816988 0.6663949 0.6316988 0.7086049 0.8683013 0.7086049 0.8683013 0.7186642 0.7816988 0.6563357 0.7183012 0.6663949 0.6316988 0.6663949 0.6316988 0.7186642 0.7816988 0.7086049 0.8683013 0.6563357 0.7183012 0.6563357 0.7183012 0.6563357 0.7183012 0.7086049 0.8683013 0.6663949 0.6316988 0.7186642 0.7816988 0.7186642 0.7816988 0.7086049 0.8683013 0.7086049 0.8683013 0.7186642 0.7816988 0.6563357 0.7183012 0.6663949 0.6316988 0.6663949 0.6316988 0.7086049 0.8683013 0.6563357 0.7183012 0.6663949 0.6316988 0.6563357 0.7183012 0.6563357 0.7183012 0.7086049 0.8683013 0.7186642 0.7816988 0.7186642 0.7816988 0.6663949 0.6316988 0.7086049 0.8683013 0.7086049 0.8683013 0.7186642 0.7816988 0.6563357 0.7183012 0.6663949 0.6316988 0.6663949 0.6316988 0.7186642 0.7816988 0.7086049 0.8683013 0.6563357 0.7183012 0.6563357 0.7183012 0.6563357 0.7183012 0.7086049 0.8683013 0.6663949 0.6316988 0.7186642 0.7816988 0.7186642 0.7816988 0.7086049 0.8683013 0.7086049 0.8683013 0.7186642 0.7816988 0.6563357 0.7183012 0.6663949 0.6316988 0.6663949 0.6316988 0.7086049 0.8683013 0.6563357 0.7183012 0.6663949 0.6316988</float_array>
          <technique_common>
            <accessor source="#Cube-mesh-map-0-array" count="468" stride="2">
              <param name="S" type="float"/>
              <param name="T" type="float"/>
            </accessor>
          </technique_common>
        </source>
        <vertices id="Cube-mesh-vertices">
          <input semantic="POSITION" source="#Cube-mesh-positions"/>
        </vertices>
        <triangles material="paintable-0-material" count="156">
          <input semantic="VERTEX" source="#Cube-mesh-vertices" offset="0"/>
          <input semantic="NORMAL" source="#Cube-mesh-normals" offset="1"/>
          <input semantic="TEXCOORD" source="#Cube-mesh-map-0" offset="2" set="0"/>
          <p>64 0 0 65 0 1 2 0 2 12 1 3 13 1 4 66 1 5 65 2 6 13 2 7 2 2 8 35 3 9 39 3 10 13 3 11 34 4 12 35 4 13 13 4 14 7 5 15 6 5 16 0 5 17 3 6 18 67 6 19 64 6 20 12 7 21 37 7 22 34 7 23 74 8 24 75 8 25 1 8 26 0 9 27 73 9 28 74 9 29 75 10 30 17 10 31 1 10 32 37 11 33 12 11 34 38 11 35 3 12 36 2 12 37 5 12 38 2 13 39 6 13 40 5 13 41 16 14 42 17 14 43 72 14 44 0 15 45 1 15 46 7 15 47 5 16 48 4 16 49 3 16 50 4 17 51 1 17 52 3 17 53 36 18 54 37 18 55 38 18 56 1 19 57 4 19 58 7 19 59 17 20 60 75 20 61 72 20 62 73 21 63 0 21 64 16 21 65 6 22 66 2 22 67 0 22 68 72 23 69 73 23 70 16 23 71 1 24 72 0 24 73 74 24 74 39 25 75 35 25 76 36 25 77 38 26 78 39 26 79 36 26 80 13 27 81 12 27 82 34 27 83 2 28 84 3 28 85 64 28 86 13 29 87 65 29 88 66 29 89 67 30 90 3 30 91 12 30 92 66 31 93 67 31 94 12 31 95 18 32 96 19 32 97 14 32 98 46 33 99 47 33 100 15 33 101 14 34 102 45 34 103 46 34 104 47 35 105 29 35 106 15 35 107 17 36 108 16 36 109 20 36 110 16 37 111 19 37 112 20 37 113 28 38 114 29 38 115 44 38 116 14 39 117 15 39 118 18 39 119 20 40 120 21 40 121 17 40 122 21 41 123 15 41 124 17 41 125 15 42 126 21 42 127 18 42 128 29 43 129 47 43 130 44 43 131 45 44 132 14 44 133 28 44 134 19 45 135 16 45 136 14 45 137 44 46 138 45 46 139 28 46 140 15 47 141 14 47 142 46 47 143 25 48 144 24 48 145 26 48 146 58 49 147 59 49 148 27 49 149 26 50 150 57 50 151 58 50 152 59 51 153 38 51 154 27 51 155 29 52 156 28 52 157 23 52 158 28 53 159 24 53 160 23 53 161 39 54 162 38 54 163 56 54 164 26 55 165 27 55 166 25 55 167 23 56 168 22 56 169 29 56 170 22 57 171 27 57 172 29 57 173 27 58 174 22 58 175 25 58 176 38 59 177 59 59 178 56 59 179 57 60 180 26 60 181 39 60 182 24 61 183 28 61 184 26 61 185 56 62 186 57 62 187 39 62 188 27 63 189 26 63 190 58 63 191 27 64 192 38 64 193 12 64 194 12 65 195 3 65 196 1 65 197 1 66 198 17 66 199 12 66 200 17 67 201 15 67 202 12 67 203 15 68 204 29 68 205 12 68 206 29 69 207 27 69 208 12 69 209 39 70 210 28 70 211 16 70 212 16 71 213 0 71 214 2 71 215 2 72 216 13 72 217 39 72 218 39 73 219 26 73 220 28 73 221 28 74 222 14 74 223 16 74 224 16 75 225 2 75 226 39 75 227 20 76 228 43 76 229 21 76 230 18 77 231 41 77 232 19 77 233 21 78 234 40 78 235 18 78 236 19 79 237 42 79 238 20 79 239 43 80 240 41 80 241 40 80 242 46 81 243 51 81 244 47 81 245 45 82 246 48 82 247 49 82 248 47 83 249 48 83 250 44 83 251 46 84 252 49 84 253 50 84 254 51 85 255 49 85 256 48 85 257 23 86 258 55 86 259 22 86 260 25 87 261 53 87 262 24 87 263 22 88 264 52 88 265 25 88 266 23 89 267 53 89 268 54 89 269 55 90 270 53 90 271 52 90 272 58 91 273 63 91 274 59 91 275 57 92 276 60 92 277 61 92 278 56 93 279 63 93 280 60 93 281 58 94 282 61 94 283 62 94 284 63 95 285 61 95 286 60 95 287 36 96 288 30 96 289 37 96 290 34 97 291 32 97 292 35 97 293 37 98 294 33 98 295 34 98 296 36 99 297 32 99 298 31 99 299 33 100 300 31 100 301 32 100 302 66 101 303 71 101 304 67 101 305 65 102 306 68 102 307 69 102 308 67 103 309 68 103 310 64 103 311 66 104 312 69 104 313 70 104 314 71 105 315 69 105 316 68 105 317 5 106 318 11 106 319 4 106 320 7 107 321 9 107 322 6 107 323 4 108 324 8 108 325 7 108 326 5 109 327 9 109 328 10 109 329 8 110 330 10 110 331 9 110 332 74 111 333 79 111 334 75 111 335 73 112 336 76 112 337 77 112 338 75 113 339 76 113 340 72 113 341 74 114 342 77 114 343 78 114 344 79 115 345 77 115 346 76 115 347 20 116 348 42 116 349 43 116 350 18 117 351 40 117 352 41 117 353 21 118 354 43 118 355 40 118 356 19 119 357 41 119 358 42 119 359 43 120 360 42 120 361 41 120 362 46 121 363 50 121 364 51 121 365 45 122 366 44 122 367 48 122 368 47 123 369 51 123 370 48 123 371 46 124 372 45 124 373 49 124 374 51 125 375 50 125 376 49 125 377 23 126 378 54 126 379 55 126 380 25 127 381 52 127 382 53 127 383 22 128 384 55 128 385 52 128 386 23 129 387 24 129 388 53 129 389 55 130 390 54 130 391 53 130 392 58 131 393 62 131 394 63 131 395 57 132 396 56 132 397 60 132 398 56 133 399 59 133 400 63 133 401 58 134 402 57 134 403 61 134 404 63 135 405 62 135 406 61 135 407 36 136 408 31 136 409 30 136 410 34 137 411 33 137 412 32 137 413 37 138 414 30 138 415 33 138 416 36 139 417 35 139 418 32 139 419 33 140 420 30 140 421 31 140 422 66 141 423 70 141 424 71 141 425 65 142 426 64 142 427 68 142 428 67 143 429 71 143 430 68 143 431 66 144 432 65 144 433 69 144 434 71 145 435 70 145 436 69 145 437 5 146 438 10 146 439 11 146 440 7 147 441 8 147 442 9 147 443 4 148 444 11 148 445 8 148 446 5 149 447 6 149 448 9 149 449 8 150 450 11 150 451 10 150 452 74 151 453 78 151 454 79 151 455 73 152 456 72 152 457 76 152 458 75 153 459 79 153 460 76 153 461 74 154 462 73 154 463 77 154 464 79 155 465 78 155 466 77 155 467</p>
        </triangles>
      </mesh>
    </geometry>
  </library_geometries>
  <library_visual_scenes>
    <visual_scene id="Scene" name="Scene">
      <node id="Cube" name="Cube" type="NODE">
        <matrix sid="transform">1 0 0 0 0 1 0 0 0 0 1 0 0 0 0 1</matrix>
        <instance_geometry url="#Cube-mesh" name="Cube">
          <bind_material>
            <technique_common>
              <instance_material symbol="paintable-0-material" target="#paintable-0-material">
                <bind_vertex_input semantic="UVMap" input_semantic="TEXCOORD" input_set="0"/>
              </instance_material>
              <instance_material symbol="paintable-1-material" target="#paintable-1-material">
                <bind_vertex_input semantic="UVMap" input_semantic="TEXCOORD" input_set="0"/>
              </instance_material>
              <instance_material symbol="lightgrey-material" target="#lightgrey-material">
                <bind_vertex_input semantic="UVMap" input_semantic="TEXCOORD" input_set="0"/>
              </instance_material>
              <instance_material symbol="darkgrey-material" target="#darkgrey-material">
                <bind_vertex_input semantic="UVMap" input_semantic="TEXCOORD" input_set="0"/>
              </instance_material>
              <instance_material symbol="Material-material" target="#Material-material">
                <bind_vertex_input semantic="UVMap" input_semantic="TEXCOORD" input_set="0"/>
              </instance_material>
              <instance_material symbol="Material_001-material" target="#Material_001-material">
                <bind_vertex_input semantic="UVMap" input_semantic="TEXCOORD" input_set="0"/>
              </instance_material>
            </technique_common>
          </bind_material>
        </instance_geometry>
      </node>
    </visual_scene>
  </library_visual_scenes>
  <scene>
    <instance_visual_scene url="#Scene"/>
  </scene>
</COLLADA>