<?xml version="1.0" encoding="utf-8"?>
<COLLADA xmlns="http://www.collada.org/2005/11/COLLADASchema" version="1.4.1" xmlns:xsi="http://www.w3.org/2001/XMLSchema-instance">
  <asset>
    <contributor>
      <author>Blender User</author>
      <authoring_tool>Blender 4.2.23 LTS commit date:2026-07-20, commit time:13:44, hash:d0cbe84903e8</authoring_tool>
    </contributor>
    <created>2026-08-14T11:55:27</created>
    <modified>2026-08-14T11:55:27</modified>
    <unit name="meter" meter="1"/>
    <up_axis>Z_UP</up_axis>
  </asset>
  <library_effects>
    <effect id="paintable-0-effect">
      <profile_COMMON>
        <technique sid="common">
          <lambert>
            <emission>
              <color sid="emission">0 0 0 1</color>
            </emission>
            <diffuse>
              <color sid="diffuse">1 0.4969335 0 1</color>
            </diffuse>
            <index_of_refraction>
              <float sid="ior">1.45</float>
            </index_of_refraction>
          </lambert>
        </technique>
      </profile_COMMON>
    </effect>
    <effect id="paintable-1-effect">
      <profile_COMMON>
        <technique sid="common">
          <lambert>
            <emission>
              <color sid="emission">0 0 0 1</color>
            </emission>
            <diffuse>
              <color sid="diffuse">0.6104922 0.4910214 0 1</color>
            </diffuse>
            <index_of_refraction>
              <float sid="ior">1.5</float>
            </index_of_refraction>
          </lambert>
        </technique>
      </profile_COMMON>
    </effect>
    <effect id="lightgray-effect">
      <profile_COMMON>
        <technique sid="common">
          <lambert>
            <emission>
              <color sid="emission">0 0 0 1</color>
            </emission>
            <diffuse>
              <color sid="diffuse">0.7835327 0.7835385 0.7835382 1</color>
            </diffuse>
            <index_of_refraction>
              <float sid="ior">1.5</float>
            </index_of_refraction>
          </lambert>
        </technique>
      </profile_COMMON>
    </effect>
    <effect id="Material-effect">
      <profile_COMMON>
        <technique sid="common">
          <lambert>
            <emission>
              <color sid="emission">0 0 0 1</color>
            </emission>
            <diffuse>
              <color sid="diffuse">1 0.4969335 0 1</color>
            </diffuse>
            <index_of_refraction>
              <float sid="ior">1.45</float>
            </index_of_refraction>
          </lambert>
        </technique>
      </profile_COMMON>
    </effect>
  </library_effects>
  <library_images/>
  <library_materials>
    <material id="paintable-0-material" name="paintable-0">
      <instance_effect url="#paintable-0-effect"/>
    </material>
    <material id="paintable-1-material" name="paintable-1">
      <instance_effect url="#paintable-1-effect"/>
    </material>
    <material id="lightgray-material" name="lightgray">
      <instance_effect url="#lightgray-effect"/>
    </material>
    <material id="Material-material" name="Material">
      <instance_effect url="#Material-effect"/>
    </material>
  </library_materials>
  <library_geometries>
    <geometry id="Cube-mesh" name="Cube">
      <mesh>
        <source id="Cube-mesh-positions">
          <float_array id="Cube-mesh-positions-array" count="408">-0.02588844 0.06249988 0.125 -0.06249982 0.0258885 0.125 -0.06249946 -0.02588808 0.125 0.02588814 0.06249952 0.125 0.06249952 0.02588814 0.125 0.06249988 -0.02588844 0.125 -0.125 0.05177664 0.125 -0.05177664 0.125 0.125 0.05177664 0.125 0.125 0.125 0.05177664 0.125 0.125 -0.05177664 0.125 -0.125 -0.05177664 0.125 0.125 -0.05177664 -0.105 0.125 0.05177664 -0.105 0.05177664 0.125 -0.105 -0.05177664 0.125 -0.105 -0.125 0.05177664 -0.105 -0.125 -0.05177664 -0.105 -0.125 -0.05177664 -0.125 0.125 -0.05177664 -0.125 0.125 0.05177664 -0.125 0.05177664 0.125 -0.125 -0.05177664 0.125 -0.125 -0.125 0.05177664 -0.125 -0.125 -0.05177664 0.105 0.06249988 -0.02588844 -0.125 0.06249952 0.02588814 -0.125 -0.125 0.05177664 0.105 0.02588814 0.06249952 -0.125 -0.05177664 0.125 0.105 -0.06249946 -0.02588808 -0.125 0.05177664 0.125 0.105 -0.06249982 0.0258885 -0.125 0.125 0.05177664 0.105 -0.02588844 0.06249988 -0.125 0.125 -0.05177664 0.105 -0.115 0.04763454 -0.105 -0.115 0.04763454 0.105 -0.04763454 0.115 -0.105 -0.04763454 0.115 0.105 0.04763454 0.115 -0.105 0.04763454 0.115 0.105 0.115 0.04763454 -0.105 0.115 0.04763454 0.105 0.115 -0.04763454 -0.105 0.115 -0.04763454 0.105 -0.115 -0.04763454 -0.105 -0.115 -0.04763454 0.105 -0.115 0.04763454 0 -0.04763454 0.115 0 0.04763454 0.115 0 0.115 0.04763454 0 0.115 -0.04763454 0 -0.115 -0.04763454 0 0.004999995 0.06249964 0.125 -0.004999995 0.06249976 0.125 0.004999995 0.125 0.125 -0.004999995 0.125 0.125 0.004999995 0.125 -0.105 -0.004999995 0.125 -0.105 0.004999995 0.125 -0.125 -0.004999995 0.125 -0.125 0.004999995 0.125 0.105 -0.004999995 0.125 0.105 0.004999995 0.06249964 -0.125 -0.004999995 0.06249976 -0.125 -0.004999995 0.115 -0.105 0.004999995 0.115 -0.105 0.004999995 0.115 0.105 -0.004999995 0.115 0.105 -0.004999995 0.115 0 0.004999995 0.115 0 0.12 -0.04970562 0.105 -0.12 -0.04970562 0.105 -0.12 0.04970562 0.105 0.12 0.04970562 0.105 0.04970562 0.12 0.105 -0.04970562 0.12 0.105 -0.05177664 -0.125 0.125 0.0517767 -0.125 0.125 -0.04970562 0.12 -0.105 0.04970562 0.12 -0.105 0.12 0.04970562 -0.105 -0.12 0.04970562 -0.105 -0.12 -0.04970562 -0.105 0.12 -0.04970562 -0.105 -0.02588814 -0.06249952 0.125 0.02588844 -0.06249988 0.125 -0.004999995 0.12 -0.105 0.004999995 0.12 -0.105 0.004999935 0.12 0.105 -0.004999995 0.12 0.105 -0.004999995 0.12 0 0.004999995 0.12 0 -0.05177664 -0.125 -0.105 0.0517767 -0.125 -0.105 -0.05177664 -0.125 -0.125 0.0517767 -0.125 -0.125 -0.02588814 -0.06249952 -0.125 0.0517767 -0.125 0.105 -0.05177664 -0.125 0.105 0.02588844 -0.06249988 -0.125 0.04763454 -0.115 -0.105 0.04763454 -0.115 0.105 -0.04763454 -0.115 -0.105 -0.04763454 -0.115 0.105 0.04763454 -0.115 0 -0.04763454 -0.115 0 -0.004999935 -0.06249964 0.125 0.004999995 -0.06249976 0.125 -0.004999935 -0.125 0.125 0.004999995 -0.125 0.125 -0.004999935 -0.125 -0.105 0.004999995 -0.125 -0.105 -0.004999935 -0.125 -0.125 0.004999995 -0.125 -0.125 -0.004999935 -0.125 0.105 0.004999995 -0.125 0.105 -0.004999935 -0.06249964 -0.125 0.004999995 -0.06249976 -0.125 0.004999995 -0.115 -0.105 -0.004999935 -0.115 -0.105 -0.004999935 -0.115 0.105 0.004999995 -0.115 0.105 0.004999995 -0.115 0 -0.004999935 -0.115 0 -0.04970562 -0.12 0.105 0.04970562 -0.12 0.105 0.04970562 -0.12 -0.105 -0.04970562 -0.12 -0.105 0.004999995 -0.12 -0.105 -0.004999935 -0.12 -0.105 -0.004999935 -0.12 0.105 0.004999995 -0.12 0.105 0.004999995 -0.12 0 -0.004999935 -0.12 0</float_array>
          <technique_common>
            <accessor source="#Cube-mesh-positions-array" count="136" stride="3">
              <param name="X" type="float"/>
              <param name="Y" type="float"/>
              <param name="Z" type="float"/>
            </accessor>
          </technique_common>
        </source>
        <source id="Cube-mesh-normals">
          <float_array id="Cube-mesh-normals-array" count="756">0 0 1 0 0 1 0 0 1 0 0 1 0 0 1 0 0 1 0 0 1 0 0 -1 0 0 1 -1 0 0 -0.7071068 0.7071068 0 0 1 0 0.7071068 0.7071068 0 1 0 0 0.7071069 -0.7071067 0 0 -1 0 -0.7071067 -0.7071068 0 1.74754e-7 -1 0 0 0 -1 0 0 -1 0 0 -1 0 0 -1 0 0 -1 0 0 -1 -0.7071067 -0.7071068 0 0 0 1 0.7071069 -0.7071067 0 1 0 0 0.7071068 0.7071068 0 0 1 0 -0.7071068 0.7071068 0 -1 0 0 -0.7071067 0.7071069 0 0 1 0 0.7071069 0.7071067 0 1 1.56411e-7 0 0 0 -1 0.7071068 -0.7071068 0 0 0 -1 0 -1 0 0 0 -1 0 0 -1 -0.7071068 -0.7071067 0 -1 -1.56411e-7 0 0 0 -1 0 0 -1 0 0 -1 0 0 -1 0 0 -1 -1 -1.56411e-7 0 0.7071069 0.7071067 0 0 -1 0 0 0 1 0 0 1 0 0 1 0 0 1 0 0 1 0 0 1 -0.7071067 0.7071069 0 -1.74754e-7 1 0 1 1.56411e-7 0 0.7071068 -0.7071068 0 0 0 -1 -0.7071068 -0.7071067 0 0 1 0 0 0 1 0 0 1 1 9.31322e-7 0 0 0 -1 1.74754e-7 -1 0 -1.74754e-7 1 0 -1 -7.45058e-7 0 0 1 0 0 1 0 0 0 -1 0 0 -1 0 1 0 0 1 0 0 0 1 0 0 1 0 0 -1 0 0 -1 0 0 -1 0 0 -1 0 0 -1 0 0 -1 0 0 -1 0 0 -1 0 -1 0 0 0 -1 0 0 1 0 0 1 0 0 1 0 0 1 0 0 1 0 0 1 0 0 1 0 0 1 0 0 1 0 0 1 -7.45058e-7 1 0 -7.45058e-7 1 0 1 7.45058e-7 0 1 7.45058e-7 0 -1 -7.45058e-7 0 0 0 -1 0 0 1 0 -1 0 0 -1 0 0 0 -1 0 0 -1 0 -1 0 0 -1 0 0 0 1 0 0 1 0 0 -1 0 0 -1 0 0 -1 0 0 1 0 0 1 0 0 1 7.45058e-7 -1 0 7.45058e-7 -1 0 -1 -9.31322e-7 0 -1 -9.31322e-7 0 1 9.31322e-7 0 0 0 1 0 0 1 0 0 1 0 0 1 0 0 1 0 0 1 0 0 1 0 0 -1 0 0 1 -1 0 0 -0.7071068 0.7071068 0 0 1 0 0.7071068 0.7071068 0 1 0 0 0.7071069 -0.7071067 0 0 -1 0 -0.7071067 -0.7071068 0 1.74754e-7 -1 0 0 0 -1 0 0 -1 0 0 -1 0 0 -1 0 0 -1 0 0 -1 -0.7071067 -0.7071068 0 0 0 1 0.7071069 -0.7071067 0 1 0 0 0.7071068 0.7071068 0 0 1 0 -0.7071068 0.7071068 0 -1 0 0 -0.7071067 0.7071069 0 -1.74754e-7 1 0 0.7071069 0.7071067 0 1 1.56411e-7 0 0 0 -1 0.7071068 -0.7071068 0 0 0 -1 1.74754e-7 -1 0 0 0 -1 0 0 -1 -0.7071068 -0.7071067 0 -1 -1.56411e-7 0 0 0 -1 0 0 -1 0 0 -1 0 0 -1 0 0 -1 -1 -1.56411e-7 0 0.7071069 0.7071067 0 0 -1 0 0 0 1 0 0 1 0 0 1 0 0 1 0 0 1 0 0 1 -0.7071067 0.7071069 0 -1.74754e-7 1 0 1 1.56411e-7 0 0.7071068 -0.7071068 0 0 0 -1 -0.7071068 -0.7071067 0 0 1 0 0 0 1 0 0 1 1 9.31322e-7 0 0 0 -1 0 -1 0 0 1 0 -1 -7.45058e-7 0 0 1 0 0 1 0 0 0 -1 0 0 -1 0 1 0 0 1 0 0 0 1 0 0 1 0 0 -1 0 0 -1 0 0 -1 0 0 -1 0 0 -1 0 0 -1 0 0 -1 0 0 -1 0 -1 0 0 0 -1 0 0 1 0 0 1 0 0 1 0 0 1 0 0 1 0 0 1 0 0 1 0 0 1 0 0 1 0 0 1 -7.45058e-7 1 0 -7.45058e-7 1 0 1 7.45058e-7 0 1 7.45058e-7 0 -1 -7.45058e-7 0 0 0 -1 0 0 1 0 -1 0 0 -1 0 0 0 -1 0 0 -1 0 -1 0 0 -1 0 0 0 1 0 0 1 0 0 -1 0 0 -1 0 0 -1 0 0 1 0 0 1 0 0 1 7.45058e-7 -1 0 7.45058e-7 -1 0 -1 -9.31322e-7 0 -1 -9.31322e-7 0 1 9.31322e-7 0</float_array>
          <technique_common>
            <accessor source="#Cube-mesh-normals-array" count="252" stride="3">
              <param name="X" type="float"/>
              <param name="Y" type="float"/>
              <param name="Z" type="float"/>
            </accessor>
          </technique_common>
        </source>
        <source id="Cube-mesh-map-0">
          <float_array id="Cube-mesh-map-0-array" count="1512">0 0 0.125 1 0.25 1 0 0 0 1 0.125 1 0 0 0.875 1 0 1 0 0 0.7916666 1 0 0 0 0 0.75 1 0 0 0 0 0.625 1 0 0 0 0 0.5 1 0 0 0.8333333 1 0.7916666 0.9999999 0.7916666 0.9999999 0.5 1 0.375 1 0.5 0.9999999 0.125 1 0 1 0 1 0 1 0.875 1 0.875 1 0.875 1 0.8333333 1 0.8333333 1 0.75 1 0.625 1 0.625 1 0.625 1 0.5 1 0.5 1 0.5 1 0.375 1 0.375 1 0.7916666 0.5217391 0.75 0.75 0.75 0.5217391 0.25 1 0.125 1 0.125 1 0.875 0.5217391 0.8333333 0.75 0.8333333 0.5217391 0.5 1 0 0 0 0 0.625 1 0 0 0 0 0.75 1 0 0 0 0 0.7916666 1 0 0 0 0 0 0 0.875 1 0 0 0 0 0 1 0 0 0.125 1 0.25 1 0.125 1 0.7916666 1 0.75 1 0.75 0.9999999 0.375 1 0.5 1 0.375 1 0.5 1 0.625 1 0.5 1 0.625 1 0.75 1 0.625 1 0.8333333 1 0.875 1 0.8333333 1 0.875 1 0 1 0.875 1 0 1 0.125 1 0 1 1 1 0.875 0.75 1 0.75 0.7916666 1 0.75 0.75 0.7916666 0.75 0.75 1 0.625 0.75 0.75 0.75 0.625 1 0.5 0.75 0.625 0.75 0.375 1 0.5 1 0.5 0.9999999 0.5 1 0.375 0.75 0.5 0.75 0.7916668 1 0.75 1 0.7916666 1 0.7916666 1 0.75 0.75 0.7916666 0.75 0.125 1 0 1 0.125 1 0.25 1 0.125 1 0.25 1 0.25 1 0.125 0.75 0.25 0.75 0.125 1 0 0.75 0.125 0.75 0 0 0.125 1 0 0 0.625 1 0.5 1 0.625 1 0.625 1 0.75 1 0.75 0.9999999 0.7916668 1 0.75 1 0.7916666 1 0.875 1 0 1 0 1 0.125 0.75 0 0.5 0.125 0.5217391 0.75 0.75 0.625 0.5 0.75 0.5217391 0.8333333 1 0.875 1 0.8333333 1 0.125 1 0 1 0 1 0.25 1 0.125 1 0.125 1 0.625 1 0.5 1 0.5 0.9999999 0.75 1 0.625 1 0.75 0.9999999 0.7916666 1 0.75 1 0.75 0.9999999 0 1 0.875 1 0 1 1 0.5217391 0.875 0.75 0.875 0.5217391 0.875 0.5217391 0.8333333 0.75 0.8333333 0.5217391 0.625 0.5217391 0.5 0.75 0.5 0.5217391 0.5 0.5217391 0.375 0.75 0.375 0.5217391 0.7916666 1 0 0 0 0 0.25 0.5217391 0.125 0.75 0.125 0.5217391 0.7916666 0.5217391 0.75 0.75 0.75 0.5217391 0.7916666 0.9999999 0.8333333 1 0.7916666 0.9999999 0.875 1 0.8333333 1 0.875 1 0.8333333 0.75 0.8333332 0.9999999 0.8333333 0.75 0.8333331 0.9999998 0.875 1 0.875 1 0.875 0.75 0.8333332 0.9999999 0.8333333 0.75 0.875 1 0.8333333 0.75 0.875 0.75 0.8333333 0.75 0.8333332 0.9999999 0.8333333 0.75 0.75 1 0.7916666 1 0.75 1 0.7916666 1 0.8333333 1 0.7916666 1 0 0 0.8333333 1 0 0 0 0 0.7916666 1 0 0 0.7916666 1 0.75 1 0.75 1 0.8333333 1 0.7916666 1 0.7916666 1 0 0 0.8333333 1 0.875 1 0 0 0.7916666 1 0.8333333 1 0.8333333 1 0.7916668 1 0.8333331 0.9999998 0.8333333 1 0.875 1 0.875 1 0 1 0.875 1 0 1 0.7916666 1 0.75 0.9999999 0.7916668 1 0.75 1 0.625 1 0.75 0.9999999 0.625 1 0.5 0.9999999 0.625 1 0.125 1 0.25 1 0.25 1 0.125 1 0 1 0.125 1 0.875 1 0.8333333 1 0.8333333 1 0.5 1 0.375 1 0.5 0.9999999 0.8333333 1 0.7916666 1 0.7916666 1 0.875 1 0.8333333 1 0.875 1 0 1 0.875 1 0.875 1 0.7916666 1 0.75 0.9999999 0.75 1 0.75 1 0.625 1 0.625 1 0.625 1 0.5 0.9999999 0.5 1 0.25 1 0.125 1 0.25 1 0.125 1 0 1 0 1 0 0 0.7916666 1 0 0 0.5 1 0.375 1 0.375 1 0.8333333 0.5217391 0.7916666 0.75 0.7916666 0.5217391 0.8333332 0.9999999 0.7916666 0.75 0.8333333 0.75 0.7916666 0.5217391 0.7916666 0.75 0.7916666 0.75 0.7916666 0.75 0.7916666 1 0.7916666 1 0.8333333 0.75 0.8333333 0.5217391 0.8333333 0.5217391 0.8333331 0.9999998 0.875 1 0.875 1 0.875 1 0.8333333 1 0.875 1 0.75 1 0.7916666 1 0.75 1 0.7916666 1 0.8333333 1 0.7916666 1 0 0 0.8333333 1 0 0 0 0 0.7916666 1 0 0 0.7916666 1 0.75 1 0.75 1 0.8333333 1 0.7916666 1 0.7916666 1 0 0 0.8333333 1 0.875 1 0 0 0.7916666 1 0.8333333 1 0.8333333 1 0.7916668 1 0.8333331 0.9999998 0.8333333 1 0.875 1 0.875 1 0.7916666 1 0.75 0.9999999 0.7916668 1 0.8333333 1 0.7916666 1 0.7916666 1 0.875 1 0.8333333 1 0.875 1 0.7916666 1 0.75 0.9999999 0.75 1 0.8333333 0.5217391 0.7916666 0.75 0.7916666 0.5217391 0.8333332 0.9999999 0.7916666 0.75 0.8333333 0.75 0.7916666 0.5217391 0.7916666 0.75 0.7916666 0.75 0.7916666 0.75 0.7916666 1 0.7916666 1 0.8333333 0.75 0.8333333 0.5217391 0.8333333 0.5217391 0 0 0 0 0.125 1 0 0 0 0 0 1 0 0 0 0 0.875 1 0 0 0.75 1 0.7916666 1 0 0 0.625 1 0.75 1 0 0 0.5 1 0.625 1 0 0 0.375 1 0.5 1 0.8333333 1 0.8333333 1 0.7916666 0.9999999 0.5 1 0.375 1 0.375 1 0.125 1 0.125 1 0 1 0 1 0 1 0.875 1 0.875 1 0.875 1 0.8333333 1 0.75 1 0.75 1 0.625 1 0.625 1 0.625 1 0.5 1 0.5 1 0.5 1 0.375 1 0.7916666 0.5217391 0.7916666 0.75 0.75 0.75 0.25 1 0.25 1 0.125 1 0.875 0.5217391 0.875 0.75 0.8333333 0.75 0.5 1 0.375 1 0 0 0.625 1 0.5 1 0 0 0.75 1 0.625 1 0 0 0.7916666 1 0.75 1 0 0 0 0 0 1 0.875 1 0 0 0.125 1 0 1 0.125 1 0.25 1 0.25 1 0.7916666 1 0.7916666 0.9999999 0.75 1 0.375 1 0.5 1 0.5 1 0.5 1 0.625 1 0.625 1 0.625 1 0.75 1 0.75 1 0.8333333 1 0.875 1 0.875 1 0.875 1 0 1 0 1 0 1 0.125 1 0.125 1 1 1 0.875 1 0.875 0.75 0.7916666 1 0.75 1 0.75 0.75 0.75 1 0.625 1 0.625 0.75 0.625 1 0.5 1 0.5 0.75 0.375 1 0.375 1 0.5 1 0.5 1 0.375 1 0.375 0.75 0.7916668 1 0.75 0.9999999 0.75 1 0.7916666 1 0.75 1 0.75 0.75 0.125 1 0 1 0 1 0.25 1 0.125 1 0.125 1 0.25 1 0.125 1 0.125 0.75 0.125 1 0 1 0 0.75 0 0 0.25 1 0.125 1 0.625 1 0.5 0.9999999 0.5 1 0.625 1 0.625 1 0.75 1 0.7916668 1 0.75 0.9999999 0.75 1 0.875 1 0.875 1 0 1 0.125 0.75 0 0.75 0 0.5 0.75 0.75 0.625 0.75 0.625 0.5 0.8333333 1 0.875 1 0.875 1 0.125 1 0.125 1 0 1 0.25 1 0.25 1 0.125 1 0.625 1 0.625 1 0.5 1 0.75 1 0.625 1 0.625 1 0.7916666 1 0.7916666 0.9999999 0.75 1 0 1 0.875 1 0.875 1 1 0.5217391 1 0.75 0.875 0.75 0.875 0.5217391 0.875 0.75 0.8333333 0.75 0.625 0.5217391 0.625 0.75 0.5 0.75 0.5 0.5217391 0.5 0.75 0.375 0.75 0.7916666 1 0.75 1 0 0 0.25 0.5217391 0.25 0.75 0.125 0.75 0.7916666 0.5217391 0.7916666 0.75 0.75 0.75 0.7916666 0.9999999 0.8333333 1 0.8333333 1 0.875 1 0.8333333 1 0.8333333 1 0.8333333 0.75 0.8333332 0.9999999 0.8333332 0.9999999 0.8333331 0.9999998 0.8333332 0.9999999 0.875 1 0.875 0.75 0.875 1 0.8333332 0.9999999 0.875 1 0.8333332 0.9999999 0.8333333 0.75 0.8333333 0.75 0.8333332 0.9999999 0.8333332 0.9999999 0.75 1 0.7916666 1 0.7916666 1 0.7916666 1 0.8333333 1 0.8333333 1 0 0 0.875 1 0.8333333 1 0 0 0.8333333 1 0.7916666 1 0.7916666 1 0.7916666 1 0.75 1 0.8333333 1 0.8333333 1 0.7916666 1 0 0 0 0 0.8333333 1 0 0 0 0 0.7916666 1 0.8333333 1 0.7916666 1 0.7916668 1 0.8333333 1 0.8333331 0.9999998 0.875 1 0 1 0.875 1 0.875 1 0.7916666 1 0.75 1 0.75 0.9999999 0.75 1 0.625 1 0.625 1 0.625 1 0.5 1 0.5 0.9999999 0.125 1 0.125 1 0.25 1 0.125 1 0 1 0 1 0.875 1 0.875 1 0.8333333 1 0.5 1 0.375 1 0.375 1 0.8333333 1 0.8333333 1 0.7916666 1 0.875 1 0.8333333 1 0.8333333 1 0 1 0 1 0.875 1 0.7916666 1 0.7916666 1 0.75 0.9999999 0.75 1 0.75 0.9999999 0.625 1 0.625 1 0.625 1 0.5 0.9999999 0.25 1 0.125 1 0.125 1 0.125 1 0.125 1 0 1 0 0 0.75 1 0.7916666 1 0.5 1 0.5 0.9999999 0.375 1 0.8333333 0.5217391 0.8333333 0.75 0.7916666 0.75 0.8333332 0.9999999 0.7916666 1 0.7916666 0.75 0.7916666 0.5217391 0.7916666 0.5217391 0.7916666 0.75 0.7916666 0.75 0.7916666 0.75 0.7916666 1 0.8333333 0.75 0.8333333 0.75 0.8333333 0.5217391 0.8333331 0.9999998 0.8333332 0.9999999 0.875 1 0.875 1 0.8333333 1 0.8333333 1 0.75 1 0.7916666 1 0.7916666 1 0.7916666 1 0.8333333 1 0.8333333 1 0 0 0.875 1 0.8333333 1 0 0 0.8333333 1 0.7916666 1 0.7916666 1 0.7916666 1 0.75 1 0.8333333 1 0.8333333 1 0.7916666 1 0 0 0 0 0.8333333 1 0 0 0 0 0.7916666 1 0.8333333 1 0.7916666 1 0.7916668 1 0.8333333 1 0.8333331 0.9999998 0.875 1 0.7916666 1 0.75 1 0.75 0.9999999 0.8333333 1 0.8333333 1 0.7916666 1 0.875 1 0.8333333 1 0.8333333 1 0.7916666 1 0.7916666 1 0.75 0.9999999 0.8333333 0.5217391 0.8333333 0.75 0.7916666 0.75 0.8333332 0.9999999 0.7916666 1 0.7916666 0.75 0.7916666 0.5217391 0.7916666 0.5217391 0.7916666 0.75 0.7916666 0.75 0.7916666 0.75 0.7916666 1 0.8333333 0.75 0.8333333 0.75 0.8333333 0.5217391</float_array>
          <technique_common>
            <accessor source="#Cube-mesh-map-0-array" count="756" stride="2">
              <param name="S" type="float"/>
              <param name="T" type="float"/>
            </accessor>
          </technique_common>
        </source>
        <vertices id="Cube-mesh-vertices">
          <input semantic="POSITION" source="#Cube-mesh-positions"/>
        </vertices>
        <triangles material="paintable-0-material" count="252">
          <input semantic="VERTEX" source="#Cube-mesh-vertices" offset="0"/>
          <input semantic="NORMAL" source="#Cube-mesh-normals" offset="1"/>
          <input semantic="TEXCOORD" source="#Cube-mesh-map-0" offset="2" set="0"/>
          <p>86 0 0 11 0 1 78 0 2 2 1 3 6 1 4 11 1 5 1 2 6 7 2 7 6 2 8 3 3 9 56 3 10 54 3 11 4 4 12 8 4 13 3 4 14 5 5 15 9 5 16 4 5 17 87 6 18 10 6 19 5 6 20 120 7 21 131 7 22 121 7 23 44 8 24 128 8 25 85 8 26 18 9 27 16 9 28 23 9 29 23 10 30 15 10 31 22 10 32 22 11 33 59 11 34 61 11 35 21 12 36 13 12 37 20 12 38 20 13 39 12 13 40 19 13 41 19 14 42 95 14 43 97 14 44 121 15 45 107 15 46 104 15 47 96 16 48 17 16 49 18 16 50 102 17 51 124 17 52 120 17 53 19 18 54 101 18 55 25 18 56 20 19 57 25 19 58 26 19 59 21 20 60 26 20 61 28 20 62 60 21 63 28 21 64 64 21 65 32 22 66 22 22 67 34 22 68 30 23 69 23 23 70 32 23 71 24 24 72 78 24 73 11 24 74 131 25 75 104 25 76 129 25 77 99 26 78 10 26 79 79 26 80 35 27 81 9 27 82 10 27 83 33 28 84 8 28 85 9 28 86 63 29 87 7 29 88 57 29 89 29 30 90 6 30 91 7 30 92 27 31 93 11 31 94 6 31 95 37 32 96 49 32 97 48 32 98 68 33 99 50 33 100 71 33 101 41 34 102 51 34 103 50 34 104 43 35 105 52 35 106 51 35 107 127 36 108 45 36 109 72 36 110 45 37 111 106 37 112 52 37 113 132 38 114 105 38 115 122 38 116 122 39 117 107 39 118 125 39 119 73 40 120 37 40 121 47 40 122 126 41 123 47 41 124 105 41 125 105 42 126 53 42 127 107 42 128 47 43 129 48 43 130 53 43 131 98 44 132 18 44 133 30 44 134 75 45 135 45 45 136 43 45 137 75 46 138 41 46 139 76 46 140 90 47 141 41 47 142 68 47 143 77 48 144 37 48 145 74 48 146 53 49 147 36 49 148 46 49 149 50 50 150 42 50 151 40 50 152 117 51 153 79 51 154 111 51 155 84 52 156 36 52 157 83 52 158 129 53 159 46 53 160 84 53 161 82 54 162 44 54 163 85 54 164 40 55 165 82 55 166 81 55 167 89 56 168 40 56 169 81 56 170 36 57 171 80 57 172 83 57 173 36 58 174 49 58 175 38 58 176 38 59 177 70 59 178 66 59 179 42 60 180 52 60 181 44 60 182 44 61 183 106 61 184 102 61 185 114 62 186 98 62 187 118 62 188 104 63 189 53 63 190 46 63 191 67 64 192 50 64 193 40 64 194 89 65 195 66 65 196 67 65 197 38 66 198 88 66 199 80 66 200 124 67 201 133 67 202 134 67 203 91 68 204 39 68 205 77 68 206 106 69 207 123 69 208 124 69 209 39 70 210 70 70 211 49 70 212 70 71 213 91 71 214 92 71 215 31 72 216 56 72 217 8 72 218 62 73 219 57 73 220 56 73 221 34 74 222 61 74 223 65 74 224 65 75 225 60 75 226 64 75 227 60 76 228 14 76 229 21 76 230 61 77 231 58 77 232 60 77 233 0 78 234 57 78 235 7 78 236 55 79 237 56 79 238 57 79 239 63 80 240 90 80 241 91 80 242 63 81 243 77 81 244 29 81 245 27 82 246 77 82 247 74 82 248 62 83 249 76 83 250 90 83 251 31 84 252 75 84 253 76 84 254 33 85 255 72 85 256 75 85 257 24 86 258 126 86 259 100 86 260 24 87 261 74 87 262 73 87 263 97 88 264 113 88 265 115 88 266 35 89 267 127 89 268 72 89 269 59 90 270 89 90 271 58 90 272 80 91 273 59 91 274 15 91 275 16 92 276 80 92 277 15 92 278 58 93 279 81 93 280 14 93 281 14 94 282 82 94 283 13 94 284 13 95 285 85 95 286 12 95 287 129 96 288 17 96 289 94 96 290 17 97 291 83 97 292 16 97 293 86 98 294 110 98 295 108 98 296 12 99 297 128 99 298 95 99 299 88 100 300 93 100 301 89 100 302 91 101 303 93 101 304 92 101 305 67 102 306 93 102 307 71 102 308 71 103 309 90 103 310 68 103 311 70 104 312 88 104 313 66 104 314 133 105 315 103 105 316 127 105 317 102 106 318 130 106 319 128 106 320 100 107 321 110 107 322 78 107 323 116 108 324 111 108 325 110 108 326 101 109 327 115 109 328 119 109 329 119 110 330 114 110 331 118 110 332 114 111 333 94 111 334 96 111 335 115 112 336 112 112 337 114 112 338 87 113 339 111 113 340 79 113 341 109 114 342 110 114 343 111 114 344 117 115 345 132 115 346 133 115 347 117 116 348 127 116 349 99 116 350 116 117 351 126 117 352 132 117 353 113 118 354 131 118 355 112 118 356 128 119 357 113 119 358 95 119 359 112 120 360 129 120 361 94 120 362 130 121 363 135 121 364 131 121 365 133 122 366 135 122 367 134 122 368 121 123 369 135 123 370 125 123 371 125 124 372 132 124 373 122 124 374 124 125 375 130 125 376 120 125 377 86 126 378 2 126 379 11 126 380 2 127 381 1 127 382 6 127 383 1 128 384 0 128 385 7 128 386 3 129 387 8 129 388 56 129 389 4 130 390 9 130 391 8 130 392 5 131 393 10 131 394 9 131 395 87 132 396 79 132 397 10 132 398 120 133 399 130 133 400 131 133 401 44 134 402 102 134 403 128 134 404 18 135 405 17 135 406 16 135 407 23 136 408 16 136 409 15 136 410 22 137 411 15 137 412 59 137 413 21 138 414 14 138 415 13 138 416 20 139 417 13 139 418 12 139 419 19 140 420 12 140 421 95 140 422 121 141 423 125 141 424 107 141 425 96 142 426 94 142 427 17 142 428 102 143 429 106 143 430 124 143 431 19 144 432 97 144 433 101 144 434 20 145 435 19 145 436 25 145 437 21 146 438 20 146 439 26 146 440 60 147 441 21 147 442 28 147 443 32 148 444 23 148 445 22 148 446 30 149 447 18 149 448 23 149 449 24 150 450 100 150 451 78 150 452 131 151 453 121 151 454 104 151 455 99 152 456 35 152 457 10 152 458 35 153 459 33 153 460 9 153 461 33 154 462 31 154 463 8 154 464 63 155 465 29 155 466 7 155 467 29 156 468 27 156 469 6 156 470 27 157 471 24 157 472 11 157 473 37 158 474 39 158 475 49 158 476 68 159 477 41 159 478 50 159 479 41 160 480 43 160 481 51 160 482 43 161 483 45 161 484 52 161 485 127 162 486 103 162 487 45 162 488 45 163 489 103 163 490 106 163 491 132 164 492 126 164 493 105 164 494 122 165 495 105 165 496 107 165 497 73 166 498 74 166 499 37 166 500 126 167 501 73 167 502 47 167 503 105 168 504 47 168 505 53 168 506 47 169 507 37 169 508 48 169 509 98 170 510 96 170 511 18 170 512 75 171 513 72 171 514 45 171 515 75 172 516 43 172 517 41 172 518 90 173 519 76 173 520 41 173 521 77 174 522 39 174 523 37 174 524 53 175 525 48 175 526 36 175 527 50 176 528 51 176 529 42 176 530 117 177 531 99 177 532 79 177 533 84 178 534 46 178 535 36 178 536 129 179 537 104 179 538 46 179 539 82 180 540 42 180 541 44 180 542 40 181 543 42 181 544 82 181 545 89 182 546 67 182 547 40 182 548 36 183 549 38 183 550 80 183 551 36 184 552 48 184 553 49 184 554 38 185 555 49 185 556 70 185 557 42 186 558 51 186 559 52 186 560 44 187 561 52 187 562 106 187 563 114 188 564 96 188 565 98 188 566 104 189 567 107 189 568 53 189 569 67 190 570 71 190 571 50 190 572 89 191 573 88 191 574 66 191 575 38 192 576 66 192 577 88 192 578 124 193 579 123 193 580 133 193 581 91 194 582 69 194 583 39 194 584 106 195 585 103 195 586 123 195 587 39 196 588 69 196 589 70 196 590 70 197 591 69 197 592 91 197 593 31 198 594 62 198 595 56 198 596 62 199 597 63 199 598 57 199 599 34 200 600 22 200 601 61 200 602 65 201 603 61 201 604 60 201 605 60 202 606 58 202 607 14 202 608 61 203 609 59 203 610 58 203 611 0 204 612 55 204 613 57 204 614 55 205 615 54 205 616 56 205 617 63 206 618 62 206 619 90 206 620 63 207 621 91 207 622 77 207 623 27 208 624 29 208 625 77 208 626 62 209 627 31 209 628 76 209 629 31 210 630 33 210 631 75 210 632 33 211 633 35 211 634 72 211 635 24 212 636 73 212 637 126 212 638 24 213 639 27 213 640 74 213 641 97 214 642 95 214 643 113 214 644 35 215 645 99 215 646 127 215 647 59 216 648 88 216 649 89 216 650 80 217 651 88 217 652 59 217 653 16 218 654 83 218 655 80 218 656 58 219 657 89 219 658 81 219 659 14 220 660 81 220 661 82 220 662 13 221 663 82 221 664 85 221 665 129 222 666 84 222 667 17 222 668 17 223 669 84 223 670 83 223 671 86 224 672 78 224 673 110 224 674 12 225 675 85 225 676 128 225 677 88 226 678 92 226 679 93 226 680 91 227 681 90 227 682 93 227 683 67 228 684 89 228 685 93 228 686 71 229 687 93 229 688 90 229 689 70 230 690 92 230 691 88 230 692 133 231 693 123 231 694 103 231 695 102 232 696 120 232 697 130 232 698 100 233 699 116 233 700 110 233 701 116 234 702 117 234 703 111 234 704 101 235 705 97 235 706 115 235 707 119 236 708 115 236 709 114 236 710 114 237 711 112 237 712 94 237 713 115 238 714 113 238 715 112 238 716 87 239 717 109 239 718 111 239 719 109 240 720 108 240 721 110 240 722 117 241 723 116 241 724 132 241 725 117 242 726 133 242 727 127 242 728 116 243 729 100 243 730 126 243 731 113 244 732 130 244 733 131 244 734 128 245 735 130 245 736 113 245 737 112 246 738 131 246 739 129 246 740 130 247 741 134 247 742 135 247 743 133 248 744 132 248 745 135 248 746 121 249 747 131 249 748 135 249 749 125 250 750 135 250 751 132 250 752 124 251 753 134 251 754 130 251 755</p>
        </triangles>
      </mesh>
    </geometry>
  </library_geometries>
  <library_visual_scenes>
    <visual_scene id="Scene" name="Scene">
      <node id="Cube" name="Cube" type="NODE">
        <matrix sid="transform">1 0 0 0 0 1 0 0 0 0 1 0 0 0 0 1</matrix>
        <instance_geometry url="#Cube-mesh" name="Cube">
          <bind_material>
            <technique_common>
              <instance_material symbol="paintable-0-material" target="#paintable-0-material">
                <bind_vertex_input semantic="UVMap" input_semantic="TEXCOORD" input_set="0"/>
              </instance_material>
              <instance_material symbol="paintable-1-material" target="#paintable-1-material">
                <bind_vertex_input semantic="UVMap" input_semantic="TEXCOORD" input_set="0"/>
              </instance_material>
              <instance_material symbol="lightgray-material" target="#lightgray-material">
                <bind_vertex_input semantic="UVMap" input_semantic="TEXCOORD" input_set="0"/>
              </instance_material>
              <instance_material symbol="Material-material" target="#Material-material">
                <bind_vertex_input semantic="UVMap" input_semantic="TEXCOORD" input_set="0"/>
              </instance_material>
            </technique_common>
          </bind_material>
        </instance_geometry>
      </node>
    </visual_scene>
  </library_visual_scenes>
  <scene>
    <instance_visual_scene url="#Scene"/>
  </scene>
</COLLADA>