<?xml version="1.0" encoding="utf-8"?>
<COLLADA xmlns="http://www.collada.org/2005/11/COLLADASchema" version="1.4.1" xmlns:xsi="http://www.w3.org/2001/XMLSchema-instance">
  <asset>
    <contributor>
      <author>Blender User</author>
      <authoring_tool>Blender 4.2.23 LTS commit date:2026-07-20, commit time:13:44, hash:d0cbe84903e8</authoring_tool>
    </contributor>
    <created>2026-08-06T20:48:35</created>
    <modified>2026-08-06T20:48:35</modified>
    <unit name="meter" meter="1"/>
    <up_axis>Z_UP</up_axis>
  </asset>
  <library_effects>
    <effect id="paintable-0-effect">
      <profile_COMMON>
        <technique sid="common">
          <lambert>
            <emission>
              <color sid="emission">0 0 0 1</color>
            </emission>
            <diffuse>
              <color sid="diffuse">1 0.4969335 0 1</color>
            </diffuse>
            <index_of_refraction>
              <float sid="ior">1.45</float>
            </index_of_refraction>
          </lambert>
        </technique>
      </profile_COMMON>
    </effect>
    <effect id="paintable-1-effect">
      <profile_COMMON>
        <technique sid="common">
          <lambert>
            <emission>
              <color sid="emission">0 0 0 1</color>
            </emission>
            <diffuse>
              <color sid="diffuse">0.6104922 0.4910214 0 1</color>
            </diffuse>
            <index_of_refraction>
              <float sid="ior">1.5</float>
            </index_of_refraction>
          </lambert>
        </technique>
      </profile_COMMON>
    </effect>
    <effect id="lightgrey-effect">
      <profile_COMMON>
        <technique sid="common">
          <lambert>
            <emission>
              <color sid="emission">0 0 0 1</color>
            </emission>
            <diffuse>
              <color sid="diffuse">0.7835327 0.7835385 0.7835382 1</color>
            </diffuse>
            <index_of_refraction>
              <float sid="ior">1.5</float>
            </index_of_refraction>
          </lambert>
        </technique>
      </profile_COMMON>
    </effect>
    <effect id="darkgrey-effect">
      <profile_COMMON>
        <technique sid="common">
          <lambert>
            <emission>
              <color sid="emission">0 0 0 1</color>
            </emission>
            <diffuse>
              <color sid="diffuse">0.3371614 0.3371639 0.3371637 1</color>
            </diffuse>
            <index_of_refraction>
              <float sid="ior">1.5</float>
            </index_of_refraction>
          </lambert>
        </technique>
      </profile_COMMON>
    </effect>
    <effect id="Material-effect">
      <profile_COMMON>
        <technique sid="common">
          <lambert>
            <emission>
              <color sid="emission">0 0 0 1</color>
            </emission>
            <diffuse>
              <color sid="diffuse">1 0.4969335 0 1</color>
            </diffuse>
            <index_of_refraction>
              <float sid="ior">1.45</float>
            </index_of_refraction>
          </lambert>
        </technique>
      </profile_COMMON>
    </effect>
  </library_effects>
  <library_images/>
  <library_materials>
    <material id="paintable-0-material" name="paintable-0">
      <instance_effect url="#paintable-0-effect"/>
    </material>
    <material id="paintable-1-material" name="paintable-1">
      <instance_effect url="#paintable-1-effect"/>
    </material>
    <material id="lightgrey-material" name="lightgrey">
      <instance_effect url="#lightgrey-effect"/>
    </material>
    <material id="darkgrey-material" name="darkgrey">
      <instance_effect url="#darkgrey-effect"/>
    </material>
    <material id="Material-material" name="Material">
      <instance_effect url="#Material-effect"/>
    </material>
  </library_materials>
  <library_geometries>
    <geometry id="Cube-mesh" name="Cube">
      <mesh>
        <source id="Cube-mesh-positions">
          <float_array id="Cube-mesh-positions-array" count="408">-0.07499998 -0.08499997 -0.125 0.07499998 -0.08499997 -0.125 0.06249946 -0.125 0.02588814 0.02588808 -0.125 0.0625 -0.02588814 -0.125 -0.0625 0.02588808 -0.125 -0.0625 0.06249946 -0.125 -0.02588814 -0.06249952 -0.125 -0.02588814 -0.06249952 -0.125 0.02588814 -0.02588814 -0.125 0.0625 0.08499997 0.07499998 -0.125 0.07499998 0.08499997 -0.125 -0.07499998 0.08499997 -0.125 -0.08499997 0.07499998 -0.125 0.08499997 -0.07499998 -0.125 -0.08499997 -0.07499998 -0.125 0.08499997 0.07499998 -0.115 0.07499998 0.08499997 -0.115 -0.07499998 0.08499997 -0.115 -0.08499997 0.07499998 -0.115 0.08499997 -0.07499998 -0.115 0.07499998 -0.08499997 -0.115 -0.08499997 -0.07499998 -0.115 -0.07499998 -0.08499997 -0.115 0.07499998 0.07499998 -0.115 0.07499998 -0.07499998 -0.115 -0.07499998 0.07499998 -0.115 -0.07499998 -0.07499998 -0.115 0.03914213 0.02499997 -0.115 0.04499995 0.03085786 -0.115 0.04499995 0.03914213 -0.115 0.03914213 0.04499995 -0.115 0.03085786 0.04499995 -0.115 0.02499997 0.03914213 -0.115 0.02499997 0.03085786 -0.115 0.03085786 0.02499997 -0.115 -0.03085786 0.02499997 -0.115 -0.02499997 0.03085786 -0.115 -0.02499997 0.03914213 -0.115 -0.03085786 0.04499995 -0.115 -0.03914213 0.04499995 -0.115 -0.04499995 0.03914213 -0.115 -0.04499995 0.03085786 -0.115 -0.03914213 0.02499997 -0.115 0.03914213 -0.04499995 -0.115 0.04499995 -0.03914213 -0.115 0.04499995 -0.03085786 -0.115 0.03914213 -0.02499997 -0.115 0.03085786 -0.02499997 -0.115 0.02499997 -0.03085786 -0.115 0.02499997 -0.03914213 -0.115 0.03085786 -0.04499995 -0.115 -0.03085786 -0.04500001 -0.115 -0.02499997 -0.03914213 -0.115 -0.02499997 -0.03085786 -0.115 -0.03085786 -0.02499997 -0.115 -0.03914213 -0.02499997 -0.115 -0.04499995 -0.03085786 -0.115 -0.04499995 -0.03914213 -0.115 -0.03914213 -0.04500001 -0.115 0.03914213 -0.02499997 -0.125 0.04499995 -0.03085786 -0.125 0.04499995 -0.03914213 -0.125 0.03914213 -0.04499995 -0.125 0.03085786 -0.04499995 -0.125 0.02499997 -0.03914213 -0.125 0.02499997 -0.03085786 -0.125 0.03085786 -0.02499997 -0.125 0.07499998 -0.07499998 -0.125 -0.07499998 -0.07499998 -0.125 -0.03914213 -0.04500001 -0.125 -0.03085786 -0.04500001 -0.125 -0.02499997 -0.03914213 -0.125 -0.02499997 -0.03085786 -0.125 -0.04499995 -0.03914213 -0.125 -0.04499995 -0.03085786 -0.125 -0.03914213 -0.02499997 -0.125 -0.03085786 -0.02499997 -0.125 0.02499997 0.03085786 -0.125 0.02499997 0.03914213 -0.125 0.03085786 0.04499995 -0.125 0.03914213 0.04499995 -0.125 0.04499995 0.03914213 -0.125 0.04499995 0.03085786 -0.125 0.03914213 0.02499997 -0.125 0.03085786 0.02499997 -0.125 -0.02499997 0.03085786 -0.125 -0.03085786 0.02499997 -0.125 -0.03914213 0.02499997 -0.125 -0.04500001 0.03085786 -0.125 -0.04500001 0.03914213 -0.125 -0.03914213 0.04499995 -0.125 -0.03085786 0.04499995 -0.125 -0.02499997 0.03914213 -0.125 -0.07499998 0.07499998 -0.125 0.07499998 0.07499998 -0.125 0.07499998 0.07499998 0.031066 0.031066 0.07499998 0.07499998 0.031066 -0.125 0.07499998 0.07499998 -0.125 0.031066 0.07499998 -0.125 -0.031066 0.031066 -0.125 -0.07499998 -0.031066 -0.125 -0.07499998 -0.07499998 -0.125 -0.031066 -0.07499998 -0.125 0.031066 -0.031066 -0.125 0.07499998 0.07499998 0.07499998 -0.031066 0.031066 0.07499998 -0.07499998 -0.031066 0.07499998 -0.07499998 -0.07499998 0.07499998 -0.031066 -0.07499998 0.07499998 0.031066 -0.031066 0.07499998 0.07499998 -0.031066 -0.07499998 0.07499998 -0.07499998 -0.07499998 0.031066 0.031066 -0.07499998 0.07499998 -0.07499998 -0.07499998 -0.031066 -0.031066 -0.07499998 -0.07499998 0.031066 -0.07499998 -0.07499998 0.07499998 -0.07499998 -0.031066 0.07499998 -0.07499998 0.031066 -0.06249946 0.125 0.02588814 -0.02588808 0.125 0.0625 0.02588814 0.125 -0.0625 -0.02588808 0.125 -0.0625 -0.06249946 0.125 -0.02588814 0.06249952 0.125 -0.02588814 0.06249952 0.125 0.02588814 0.02588814 0.125 0.0625 -0.031066 0.125 0.07499998 -0.07499998 0.125 0.031066 -0.07499998 0.125 -0.031066 -0.031066 0.125 -0.07499998 0.031066 0.125 -0.07499998 0.07499998 0.125 -0.031066 0.07499998 0.125 0.031066 0.031066 0.125 0.07499998</float_array>
          <technique_common>
            <accessor source="#Cube-mesh-positions-array" count="136" stride="3">
              <param name="X" type="float"/>
              <param name="Y" type="float"/>
              <param name="Z" type="float"/>
            </accessor>
          </technique_common>
        </source>
        <source id="Cube-mesh-normals">
          <float_array id="Cube-mesh-normals-array" count="768">-0.7071078 -0.7071057 0 -0.7071057 0.7071078 0 -1 -1.98682e-7 0 1 1.98682e-7 0 0.7071057 -0.7071078 0 0.7071078 0.7071057 0 1.98682e-7 -1 0 -1.98682e-7 1 0 0 0 -1 0 0 -1 0 0 -1 0 0 -1 0 0 -1 0 0 -1 0 0 -1 0 0 -1 0 0 1 0 0 1 0 0 1 0 0 1 0 0 1 0 0 1 0 0 1 0 0 1 0 0 -1 -1 0 0 0.7071064 0.7071073 -3.95229e-7 0.7071064 -0.7071071 -1.31709e-7 -0.7071062 0.7071074 7.90457e-7 0 1 0 1 0 -1.86265e-7 0 -1 0 0 0 -1 -1 -4.49683e-7 0 0.7071062 0.7071074 -7.90457e-7 0.7071067 -0.7071068 -7.90254e-7 -0.7071073 -0.7071064 2.63418e-7 -0.7071069 0.7071067 2.63486e-7 0 1 0 1 0 -1.11759e-6 0 -1 0 0 0 -1 -1 0 0 0.7071064 0.7071071 -1.31743e-7 0.7071071 -0.7071064 1.31709e-7 -0.7071073 -0.7071063 0 -0.7071068 0.7071068 0 0 1 0 1 0 1.86265e-7 4.49682e-7 -1 0 0 0 -1 -1 -4.49682e-7 0 0.7071073 -0.7071064 2.63418e-7 -0.7071068 -0.7071068 2.63418e-7 -0.7071073 0.7071064 2.63486e-7 0 1 0 1 0 3.72529e-7 4.49682e-7 -1 0 -0.7071059 -0.7071077 7.90253e-7 0.7071068 0.7071068 -7.90456e-7 0 0 -1 0 0 -1 0 0 -1 0 0 -1 0 0 -1 0 0 -1 0 0 -1 0 0 -1 0 0 -1 0 0 -1 0 0 -1 0 0 -1 0 0 -1 0 0 -1 0 0 -1 0 0 -1 0 0 -1 0 0 -1 0 0 -1 0 0 -1 0 0 -1 0 0 -1 0 0 -1 0 0 -1 0 0 -1 0 0 -1 0 0 -1 0 0 -1 0 0 -1 0 0 -1 0 0 -1 0 0 -1 0 0 -1 0 0 -1 0 0 -1 0 0 -1 0 0 -1 0 0 -1 0 0 -1 0 0 -1 0 0 -1 0 0 -1 1 -1.49012e-7 -3.59746e-7 0.7071069 0 0.7071067 1 0 1.19915e-7 0.707107 -1.84392e-7 -0.7071065 1 0 1.19915e-7 -1.19915e-7 0 -1 0.7071067 0 -0.7071068 -1 0 -1.19915e-7 -0.7071068 0 -0.7071068 0 0 -1 -0.7071067 0 0.707107 -1 -1.49012e-7 -1.19915e-7 -0.7071069 0 -0.7071066 -1.19915e-7 0 1 -0.7071068 0 0.7071067 -1 0 -1.19915e-7 0 -1 0 1.19915e-7 0 1 -0.7071066 0 0.7071069 0 -1 7.45058e-7 0.7071066 -1.31709e-7 0.707107 -2.39831e-7 0 1 0 -1 0 0.707107 0 0.7071067 0 -1 0 1 1.98682e-7 -2.66301e-7 0 1 0 -1.98682e-7 1 -5.26836e-7 -3.55069e-7 1 -3.55069e-7 -1 0 1.77534e-7 0 -1 0 0 -1 0 0 -1 0 0 -1 0 0 -1 0 0 -1 0 0 1 0 0 1 0 0 1 0 0 1 0 0 1 0 0 1 0 0 1 0 0 1 0 3.55069e-7 -1 3.55069e-7 -0.7071078 -0.7071057 0 -0.7071057 0.7071078 0 -1 -1.98682e-7 0 1 1.98682e-7 0 0.7071057 -0.7071078 0 0.7071078 0.7071057 0 1.98682e-7 -1 0 -1.98682e-7 1 0 0 0 -1 0 0 -1 0 0 -1 0 0 -1 0 0 1 0 0 1 0 0 1 0 0 1 0 0 -1 0 0 -1 0 0 -1 0 0 -1 0 0 -1 -1 0 0 0.7071068 0.7071068 1.31709e-7 0.7071064 -0.7071071 -1.31709e-7 -0.7071069 0.7071067 0 0 1 0 1 4.49682e-7 -5.58794e-7 0 -1 0 0 0 -1 0 0 -1 0 0 -1 0 0 -1 0 0 -1 -1 -4.49683e-7 0 0.7071071 0.7071064 2.63418e-7 0.7071077 -0.7071059 2.63418e-7 -0.7071074 -0.7071061 0 -0.7071071 0.7071065 0 0 1 0 1 0 -1.11759e-6 0 -1 0 0 0 -1 0 0 -1 0 0 -1 0 0 -1 0 0 -1 -1 0 0 0.7071064 0.7071071 -1.31709e-7 0.7071067 -0.7071069 -3.95127e-7 -0.707107 -0.7071065 -2.63418e-7 -0.7071065 0.707107 -2.63418e-7 0 1 0 1 4.49682e-7 -1.86265e-7 4.49682e-7 -1 0 0 0 -1 0 0 -1 0 0 -1 0 0 -1 0 0 -1 -1 -4.49682e-7 0 0.7071064 -0.7071073 -7.90253e-7 -0.707107 -0.7071065 0 -0.7071074 0.7071061 0 0 1 0 1 0 3.72529e-7 4.49683e-7 -1 0 -0.7071065 -0.707107 0 0.7071077 0.7071059 2.63418e-7 1 4.47035e-7 1.19915e-7 0.7071069 0 0.7071067 1 0 1.19915e-7 0.7071067 3.42443e-7 -0.7071069 1 0 1.19915e-7 1.19915e-7 -2.98023e-7 -1 0.7071067 0 -0.7071069 -1 0 -1.19915e-7 -0.7071069 -2.8976e-7 -0.7071067 1.19915e-7 1.49012e-7 -1 -0.7071067 0 0.707107 -1 -1.49012e-7 -1.19915e-7 -0.7071069 0 -0.7071066 -2.39831e-7 0 1 -0.7071067 -2.37076e-7 0.7071069 -1 0 -1.19915e-7 0 -1 0 -1.19915e-7 2.98023e-7 1 -0.7071066 0 0.7071069 1.98682e-7 -1 2.18223e-7 0.7071069 4.4781e-7 0.7071067 -1.19915e-7 -1.49012e-7 1 0 -1 0 0.7071068 0 0.7071067 1 0 0 0 1 0 -1 -1.98682e-7 -1.77534e-7 0 -1 0 0 -1 0 0 -1 0 0 -1 0 0 -1 0 0 -1 0 0 1 0 0 1 0 0 1 0 0 1 0 0 1 0 0 1 0 0 1 0 0 1 0</float_array>
          <technique_common>
            <accessor source="#Cube-mesh-normals-array" count="256" stride="3">
              <param name="X" type="float"/>
              <param name="Y" type="float"/>
              <param name="Z" type="float"/>
            </accessor>
          </technique_common>
        </source>
        <source id="Cube-mesh-map-0">
          <float_array id="Cube-mesh-map-0-array" count="1536">0 0 0 0 0 0 0 0 0 0 0 0 0 0 0 0 0 0 0 0 0 0 0 0 0 0 0 0 0 0 0 0 0 0 0 0 0 0 0 0 0 0 0 0 0 0 0 0 0 0 0 0 0 0 0 0 0 0 0 0 0 0 0 0 0 0 0 0 0 0 0 0 0 0 0 0 0 0 0 0 0 0 0 0 0 0 0 0 0 0 0 0 0 0 0 0 0 0 0 0 0 0 0 0 0 0 0 0 0 0 0 0 0 0 0 0 0 0 0 0 0 0 0 0 0 0 0 0 0 0 0 0 0 0 0 0 0 0 0 0 0 0 0 0 0 0 0 0 0 0 0 0 0 0 0 0 0 0 0 0 0 0 0 0 0 0 0 0 0 0 0 0 0 0 0 0 0 0 0 0 0 0 0 0 0 0 0 0 0 0 0 0 0 0 0 0 0 0 0 0 0 0 0 0 0 0 0 0 0 0 0 0 0 0 0 0 0 0 0 0 0 0 0 0 0 0 0 0 0 0 0 0 0 0 0 0 0 0 0 0 0 0 0 0 0 0 0 0 0 0 0 0 0 0 0 0 0 0 0 0 0 0 0 0 0 0 0 0 0 0 0 0 0 0 0 0 0 0 0 0 0 0 0 0 0 0 0 0 0 0 0 0 0 0 0 0 0 0 0 0 0 0 0 0 0 0 0 0 0 0 0 0 0 0 0 0 0 0 0 0 0 0 0 0 0 0 0 0 0 0 0 0 0 0 0 0 0 0 0 0 0 0 0 0 0 0 0 0 0 0 0 0 0 0 0 0 0 0 0 0 0 0 0 0 0 0 0 0 0 0 0 0 0 0 0 0 0 0 0 0 0 0 0 0 0 0 0 0 0 0 0 0 0 0 0 0 0 0 0 0 0 0 0 0 0 0 0 0 0 0 0 0 0 0 0 0 0 0 0 0 0 0 0 0 0 0 0 0 0 0 0 0 0 0 0 0 0 0 0 0 0 0 0 0 0 0 0 0 0 0 0 0 0 0 0 0 0 0 0 0 0 0 0 0 0 0 0 0 0 0 0 0 0 0 0 0 0 0 0 0 0 0 0 0 0 0 0 0 0 0 0 0 0 0 0 0 0 0 0 0 0 0 0 0 0 0 0 0 0 0 0 0 0 0 0 0 0 0 0 0 0 0 0 0 0 0 0 0 0 0 0 0 0 0 0 0 0 0 0 0 0 0 0 0 0 0 0 0 0 0 0 0 0 0 0 0 0 0 0 0 0 0 0 0 0 0 0 0 0 0 0 0 0 0 0 0 0 0 0 0 0 0 0 0 0 0 0 0 0 0 0 0 0 0 0 0 0 0 0 0 0 0 0 0 0 0 0 0 0 0 0 0 0.875 0.75 0.75 0.5 0.875 0.5 1 1 0.8750001 0.8750001 1 0.875 0.8750001 0.8750001 0.75 0.75 0.875 0.75 0.75 0.5 0.625 0.75 0.625 0.5 0.875 1 0.7500001 0.8750001 0.8750001 0.8750001 0.625 0.5 0.5 0.75 0.5 0.5 0.75 1 0.625 0.875 0.7500001 0.8750001 0.375 0.875 0.25 0.7500001 0.375 0.75 0.5 0.75 0.375 0.5 0.5 0.5 0.625 1 0.5 0.8749999 0.625 0.875 0.25 0.875 0.125 0.75 0.25 0.7500001 0.375 0.75 0.25 0.5 0.375 0.5 0.5 0.8749999 0.375 1 0.375 0.875 0.125 0.875 0 0.75 0.125 0.75 0.25 0.7500001 0.125 0.5 0.25 0.5 0.375 0.875 0.25 1 0.25 0.875 0 0 0.125 1 0 0 0.125 0.75 0 0.5 0.125 0.5 0.25 0.875 0.125 1 0.125 0.875 0 0 0.625 0.875 0.5 0.8749999 1 0.5 0.875 0.75 0.875 0.5 0.125 1 0 0.875 0.125 0.875 0 0 0.125 1 0.25 1 1 0.875 0.875 0.75 1 0.75 0.625 0.875 0 0 0.7500001 0.8750001 0.75 0.75 0 0 0 0 0.75 0.75 0 0 0.625 0.75 0.5 0.75 0 0 0 0 0.375 0.75 0.5 0.75 0 0 0 0 0.375 0.875 0.375 0.75 0 0 0 1 0 0 0 0 0.875 1 0 0 0 0 0.625 1 0.75 1 0 0 0.5 1 0.625 1 0 0 0.5 1 0 0 0 0 0.25 1 0.375 1 0 0 0.125 1 0 0 0 0 0.125 1 0.25 1 0 0 0 1 0 0 0 0 0.875 1 0 0 0 0 0.625 1 0.75 1 0 0 0.5 1 0.625 1 0 0 0.5 1 0 0 0 0 0.375 1 0 0 0.5 0.8749999 0.375 0.875 0 0 0 0 0 0 0 0 0 0 0 0 0 0 0 0 0 0 0 0 0 0 0 0 0 0 0 0 0 0 0 0 0 0 0 0 0 0 0 0 0 0 0 0 0 0 0 0 0 0 0 0 0 0 0 0 0 0 0 0 0 0 0 0 0 0 0 0 0 0 0 0 0 0 0 0 0 0 0 0 0 0 0 0 0 0 0 0 0 0 0 0 0 0 0 0 0 0 0 0 0 0 0 0 0 0 0 0 0 0 0 0 0 0 0 0 0 0 0 0 0 0 0 0 0 0 0 0 0 0 0 0 0 0 0 0 0 0 0 0 0 0 0 0 0 0 0 0 0 0 0 0 0 0 0 0 0 0 0 0 0 0 0 0 0 0 0 0 0 0 0 0 0 0 0 0 0 0 0 0 0 0 0 0 0 0 0 0 0 0 0 0 0 0 0 0 0 0 0 0 0 0 0 0 0 0 0 0 0 0 0 0 0 0 0 0 0 0 0 0 0 0 0 0 0 0 0 0 0 0 0 0 0 0 0 0 0 0 0 0 0 0 0 0 0 0 0 0 0 0 0 0 0 0 0 0 0 0 0 0 0 0 0 0 0 0 0 0 0 0 0 0 0 0 0 0 0 0 0 0 0 0 0 0 0 0 0 0 0 0 0 0 0 0 0 0 0 0 0 0 0 0 0 0 0 0 0 0 0 0 0 0 0 0 0 0 0 0 0 0 0 0 0 0 0 0 0 0 0 0 0 0 0 0 0 0 0 0 0 0 0 0 0 0 0 0 0 0 0 0 0 0 0 0 0 0 0 0 0 0 0 0 0 0 0 0 0 0 0 0 0 0 0 0 0 0 0 0 0 0 0 0 0 0 0 0 0 0 0 0 0 0 0 0 0 0 0 0 0 0 0 0 0 0 0 0 0 0 0 0 0.875 0.75 0.75 0.75 0.75 0.5 1 1 0.875 1 0.8750001 0.8750001 0.8750001 0.8750001 0.7500001 0.8750001 0.75 0.75 0.75 0.5 0.75 0.75 0.625 0.75 0.875 1 0.75 1 0.7500001 0.8750001 0.625 0.5 0.625 0.75 0.5 0.75 0.75 1 0.625 1 0.625 0.875 0.375 0.875 0.25 0.875 0.25 0.7500001 0.5 0.75 0.375 0.75 0.375 0.5 0.625 1 0.5 1 0.5 0.8749999 0.25 0.875 0.125 0.875 0.125 0.75 0.375 0.75 0.25 0.7500001 0.25 0.5 0.5 0.8749999 0.5 1 0.375 1 0.125 0.875 0 0.875 0 0.75 0.25 0.7500001 0.125 0.75 0.125 0.5 0.375 0.875 0.375 1 0.25 1 0 0 0 1 0.125 1 0.125 0.75 0 0.75 0 0.5 0.25 0.875 0.25 1 0.125 1 0 0 0 0 0.625 0.875 1 0.5 1 0.75 0.875 0.75 0.125 1 0 1 0 0.875 0 0 0 0 0.125 1 1 0.875 0.8750001 0.8750001 0.875 0.75 0.75 0.75 0.7500001 0.8750001 0 0 0.5 0.75 0.625 0.75 0 0 0 0 0 0 0.375 0.875 0 0 0.875 1 0 1 0 0 0.75 1 0.875 1 0 0 0 0 0.625 1 0 0 0 0 0.5 1 0 0 0.375 1 0.5 1 0 0 0 0 0.25 1 0 0 0 1 0.125 1 0 0 0 0 0.125 1 0 0 0.875 1 0 1 0 0 0.75 1 0.875 1 0 0 0 0 0.625 1 0 0 0 0 0.5 1 0 0 0.375 1 0.5 1 0 0 0.25 1 0.375 1</float_array>
          <technique_common>
            <accessor source="#Cube-mesh-map-0-array" count="768" stride="2">
              <param name="S" type="float"/>
              <param name="T" type="float"/>
            </accessor>
          </technique_common>
        </source>
        <vertices id="Cube-mesh-vertices">
          <input semantic="POSITION" source="#Cube-mesh-positions"/>
        </vertices>
        <triangles material="paintable-0-material" count="168">
          <input semantic="VERTEX" source="#Cube-mesh-vertices" offset="0"/>
          <input semantic="NORMAL" source="#Cube-mesh-normals" offset="1"/>
          <input semantic="TEXCOORD" source="#Cube-mesh-map-0" offset="2" set="0"/>
          <p>0 0 0 22 0 1 15 0 2 13 1 3 18 1 4 12 1 5 15 2 6 19 2 7 13 2 8 16 3 9 14 3 10 10 3 11 20 4 12 1 4 13 14 4 14 11 5 15 16 5 16 10 5 17 21 6 18 0 6 19 1 6 20 12 7 21 17 7 22 11 7 23 15 8 24 69 8 25 0 8 26 95 9 27 14 9 28 68 9 29 14 10 30 1 10 31 68 10 32 11 11 33 10 11 34 95 11 35 12 12 36 94 12 37 13 12 38 68 13 39 0 13 40 69 13 41 11 14 42 94 14 43 12 14 44 15 15 45 94 15 46 69 15 47 18 16 48 19 16 49 26 16 50 22 17 51 26 17 52 19 17 53 23 18 54 27 18 55 22 18 56 18 19 57 24 19 58 17 19 59 16 20 60 25 20 61 20 20 62 21 21 63 20 21 64 25 21 65 21 22 66 27 22 67 23 22 68 17 23 69 24 23 70 16 23 71 72 60 180 65 60 181 64 60 182 83 61 183 95 61 184 61 61 185 80 62 186 93 62 187 92 62 188 92 63 189 91 63 190 94 63 191 95 64 192 82 64 193 81 64 194 80 65 195 79 65 196 93 65 197 95 66 198 81 66 199 80 66 200 92 67 201 94 67 202 80 67 203 94 68 204 95 68 205 80 68 206 74 69 207 70 69 208 69 69 209 94 70 210 91 70 211 90 70 212 94 71 213 90 71 214 89 71 215 74 72 216 69 72 217 75 72 218 69 73 219 94 73 220 75 73 221 75 74 222 94 74 223 89 74 224 76 75 225 75 75 226 89 75 227 76 76 228 89 76 229 88 76 230 66 77 231 73 77 232 77 77 233 77 78 234 76 78 235 88 78 236 77 79 237 88 79 238 87 79 239 67 80 240 66 80 241 77 80 242 67 81 243 77 81 244 87 81 245 86 82 246 93 82 247 79 82 248 67 83 249 87 83 250 86 83 251 60 84 252 67 84 253 85 84 254 67 85 255 86 85 256 85 85 257 86 86 258 79 86 259 78 86 260 86 87 261 78 87 262 85 87 263 60 88 264 85 88 265 84 88 266 68 89 267 62 89 268 61 89 269 61 90 270 60 90 271 84 90 272 83 91 273 82 91 274 95 91 275 61 92 276 84 92 277 83 92 278 95 93 279 68 93 280 61 93 281 68 94 282 69 94 283 71 94 284 69 95 285 70 95 286 71 95 287 63 96 288 62 96 289 68 96 290 64 97 291 63 97 292 68 97 293 68 98 294 71 98 295 64 98 296 71 99 297 72 99 298 64 99 299 72 100 300 73 100 301 66 100 302 72 101 303 66 101 304 65 101 305 96 102 306 133 102 307 134 102 308 98 103 309 119 103 310 114 103 311 119 104 312 106 104 313 96 104 314 133 105 315 107 105 316 132 105 317 99 106 318 118 106 319 119 106 320 132 107 321 108 107 322 131 107 323 100 108 324 117 108 325 118 108 326 115 109 327 110 109 328 109 109 329 108 110 330 130 110 331 131 110 332 101 111 333 116 111 334 117 111 335 113 112 336 111 112 337 110 112 338 109 113 339 129 113 340 130 113 341 116 114 342 103 114 343 115 114 344 112 115 345 97 115 346 111 115 347 110 116 348 128 116 349 129 116 350 115 117 351 104 117 352 113 117 353 3 118 354 105 118 355 9 118 356 111 119 357 135 119 358 128 119 359 113 120 360 105 120 361 112 120 362 27 121 363 117 121 364 116 121 365 135 122 366 96 122 367 134 122 368 105 123 369 114 123 370 112 123 371 8 124 372 105 124 373 104 124 374 114 125 375 96 125 376 97 125 377 117 126 378 25 126 379 118 126 380 106 127 381 25 127 382 24 127 383 106 128 384 24 128 385 107 128 386 108 129 387 24 129 388 26 129 389 109 130 390 108 130 391 26 130 392 26 131 393 115 131 394 109 131 395 2 132 396 98 132 397 3 132 398 6 133 399 99 133 400 2 133 401 6 134 402 101 134 403 100 134 404 5 135 405 102 135 406 101 135 407 7 136 408 102 136 409 4 136 410 7 137 411 104 137 412 103 137 413 121 138 414 135 138 415 127 138 416 126 139 417 135 139 418 134 139 419 120 140 420 128 140 421 121 140 422 124 141 423 129 141 424 120 141 425 124 142 426 131 142 427 130 142 428 123 143 429 132 143 430 131 143 431 125 144 432 132 144 433 122 144 434 126 145 435 133 145 436 125 145 437 116 146 438 115 146 439 27 146 440 0 147 441 23 147 442 22 147 443 13 148 444 19 148 445 18 148 446 15 149 447 22 149 448 19 149 449 16 150 450 20 150 451 14 150 452 20 151 453 21 151 454 1 151 455 11 152 456 17 152 457 16 152 458 21 153 459 23 153 460 0 153 461 12 154 462 18 154 463 17 154 464 95 155 465 10 155 466 14 155 467 68 156 468 1 156 469 0 156 470 11 157 471 95 157 472 94 157 473 15 158 474 13 158 475 94 158 476 22 159 477 27 159 478 26 159 479 18 160 480 26 160 481 24 160 482 16 161 483 24 161 484 25 161 485 21 162 486 25 162 487 27 162 488 96 215 645 106 215 646 133 215 647 98 216 648 99 216 649 119 216 650 119 217 651 118 217 652 106 217 653 133 218 654 106 218 655 107 218 656 99 219 657 100 219 658 118 219 659 132 220 660 107 220 661 108 220 662 100 221 663 101 221 664 117 221 665 115 222 666 113 222 667 110 222 668 108 223 669 109 223 670 130 223 671 101 224 672 102 224 673 116 224 674 113 225 675 112 225 676 111 225 677 109 226 678 110 226 679 129 226 680 116 227 681 102 227 682 103 227 683 112 228 684 114 228 685 97 228 686 110 229 687 111 229 688 128 229 689 115 230 690 103 230 691 104 230 692 3 231 693 98 231 694 105 231 695 111 232 696 97 232 697 135 232 698 113 233 699 104 233 700 105 233 701 27 234 702 25 234 703 117 234 704 135 235 705 97 235 706 96 235 707 105 236 708 98 236 709 114 236 710 8 237 711 9 237 712 105 237 713 114 238 714 119 238 715 96 238 716 106 239 717 118 239 718 25 239 719 108 240 720 107 240 721 24 240 722 26 241 723 27 241 724 115 241 725 2 242 726 99 242 727 98 242 728 6 243 729 100 243 730 99 243 731 6 244 732 5 244 733 101 244 734 5 245 735 4 245 736 102 245 737 7 246 738 103 246 739 102 246 740 7 247 741 8 247 742 104 247 743 121 248 744 128 248 745 135 248 746 126 249 747 127 249 748 135 249 749 120 250 750 129 250 751 128 250 752 124 251 753 130 251 754 129 251 755 124 252 756 123 252 757 131 252 758 123 253 759 122 253 760 132 253 761 125 254 762 133 254 763 132 254 764 126 255 765 134 255 766 133 255 767</p>
        </triangles>
        <triangles material="darkgrey-material" count="88">
          <input semantic="VERTEX" source="#Cube-mesh-vertices" offset="0"/>
          <input semantic="NORMAL" source="#Cube-mesh-normals" offset="1"/>
          <input semantic="TEXCOORD" source="#Cube-mesh-map-0" offset="2" set="0"/>
          <p>28 24 72 34 24 73 32 24 74 29 25 75 82 25 76 83 25 77 34 26 78 85 26 79 78 26 80 80 27 81 33 27 82 79 27 83 28 28 84 83 28 85 84 28 86 35 29 87 84 29 88 85 29 89 33 30 90 78 30 91 79 30 92 81 31 93 32 31 94 80 31 95 40 32 96 39 32 97 38 32 98 37 33 99 93 33 100 86 33 101 42 34 102 88 34 103 89 34 104 91 35 105 41 35 106 90 35 107 93 36 108 39 36 109 92 36 110 36 37 111 86 37 112 87 37 113 43 38 114 87 38 115 88 38 116 41 39 117 89 39 118 90 39 119 39 40 120 91 40 121 92 40 122 50 41 123 48 41 124 46 41 125 45 42 126 61 42 127 62 42 128 50 43 129 64 43 130 65 43 131 67 44 132 49 44 133 66 44 134 46 45 135 60 45 136 61 45 137 63 46 138 45 46 139 62 46 140 64 47 141 44 47 142 63 47 143 49 48 144 65 48 145 66 48 146 60 49 147 48 49 148 67 49 149 58 50 150 56 50 151 54 50 152 53 51 153 73 51 154 72 51 155 76 52 156 57 52 157 75 52 158 73 53 159 55 53 160 77 53 161 52 54 162 72 54 163 71 54 164 59 55 165 71 55 166 70 55 167 57 56 168 74 56 169 75 56 170 77 57 171 56 57 172 76 57 173 82 58 174 31 58 175 81 58 176 70 59 177 58 59 178 59 59 179 30 163 489 29 163 490 28 163 491 28 164 492 35 164 493 34 164 494 34 165 495 33 165 496 32 165 497 32 166 498 31 166 499 30 166 500 30 167 501 28 167 502 32 167 503 29 168 504 30 168 505 82 168 506 34 169 507 35 169 508 85 169 509 80 170 510 32 170 511 33 170 512 28 171 513 29 171 514 83 171 515 35 172 516 28 172 517 84 172 518 33 173 519 34 173 520 78 173 521 81 174 522 31 174 523 32 174 524 38 175 525 37 175 526 36 175 527 36 176 528 43 176 529 38 176 530 43 177 531 42 177 532 38 177 533 42 178 534 41 178 535 38 178 536 41 179 537 40 179 538 38 179 539 37 180 540 38 180 541 93 180 542 42 181 543 43 181 544 88 181 545 91 182 546 40 182 547 41 182 548 93 183 549 38 183 550 39 183 551 36 184 552 37 184 553 86 184 554 43 185 555 36 185 556 87 185 557 41 186 558 42 186 559 89 186 560 39 187 561 40 187 562 91 187 563 46 188 564 45 188 565 44 188 566 44 189 567 51 189 568 46 189 569 51 190 570 50 190 571 46 190 572 50 191 573 49 191 574 48 191 575 48 192 576 47 192 577 46 192 578 45 193 579 46 193 580 61 193 581 50 194 582 51 194 583 64 194 584 67 195 585 48 195 586 49 195 587 46 196 588 47 196 589 60 196 590 63 197 591 44 197 592 45 197 593 64 198 594 51 198 595 44 198 596 49 199 597 50 199 598 65 199 599 60 200 600 47 200 601 48 200 602 54 201 603 53 201 604 58 201 605 53 202 606 52 202 607 58 202 608 52 203 609 59 203 610 58 203 611 58 204 612 57 204 613 56 204 614 56 205 615 55 205 616 54 205 617 53 206 618 54 206 619 73 206 620 76 207 621 56 207 622 57 207 623 73 208 624 54 208 625 55 208 626 52 209 627 53 209 628 72 209 629 59 210 630 52 210 631 71 210 632 57 211 633 58 211 634 74 211 635 77 212 636 55 212 637 56 212 638 82 213 639 30 213 640 31 213 641 70 214 642 74 214 643 58 214 644</p>
        </triangles>
      </mesh>
    </geometry>
  </library_geometries>
  <library_visual_scenes>
    <visual_scene id="Scene" name="Scene">
      <node id="Cube" name="Cube" type="NODE">
        <matrix sid="transform">1 0 0 0 0 1 0 0 0 0 1 0 0 0 0 1</matrix>
        <instance_geometry url="#Cube-mesh" name="Cube">
          <bind_material>
            <technique_common>
              <instance_material symbol="paintable-0-material" target="#paintable-0-material">
                <bind_vertex_input semantic="UVMap" input_semantic="TEXCOORD" input_set="0"/>
              </instance_material>
              <instance_material symbol="paintable-1-material" target="#paintable-1-material">
                <bind_vertex_input semantic="UVMap" input_semantic="TEXCOORD" input_set="0"/>
              </instance_material>
              <instance_material symbol="lightgrey-material" target="#lightgrey-material">
                <bind_vertex_input semantic="UVMap" input_semantic="TEXCOORD" input_set="0"/>
              </instance_material>
              <instance_material symbol="darkgrey-material" target="#darkgrey-material">
                <bind_vertex_input semantic="UVMap" input_semantic="TEXCOORD" input_set="0"/>
              </instance_material>
              <instance_material symbol="Material-material" target="#Material-material">
                <bind_vertex_input semantic="UVMap" input_semantic="TEXCOORD" input_set="0"/>
              </instance_material>
            </technique_common>
          </bind_material>
        </instance_geometry>
      </node>
    </visual_scene>
  </library_visual_scenes>
  <scene>
    <instance_visual_scene url="#Scene"/>
  </scene>
</COLLADA>