<?xml version="1.0" encoding="utf-8"?>
<COLLADA xmlns="http://www.collada.org/2005/11/COLLADASchema" version="1.4.1" xmlns:xsi="http://www.w3.org/2001/XMLSchema-instance">
  <asset>
    <contributor>
      <author>Blender User</author>
      <authoring_tool>Blender 4.2.22 LTS commit date:2026-06-22, commit time:11:10, hash:88937221abfc</authoring_tool>
    </contributor>
    <created>2026-07-20T16:55:07</created>
    <modified>2026-07-20T16:55:07</modified>
    <unit name="meter" meter="1"/>
    <up_axis>Z_UP</up_axis>
  </asset>
  <library_effects>
    <effect id="paintable-0-effect">
      <profile_COMMON>
        <technique sid="common">
          <lambert>
            <emission>
              <color sid="emission">0 0 0 1</color>
            </emission>
            <diffuse>
              <color sid="diffuse">1 0.4969335 0 1</color>
            </diffuse>
            <index_of_refraction>
              <float sid="ior">1.45</float>
            </index_of_refraction>
          </lambert>
        </technique>
      </profile_COMMON>
    </effect>
    <effect id="paintable-1-effect">
      <profile_COMMON>
        <technique sid="common">
          <lambert>
            <emission>
              <color sid="emission">0 0 0 1</color>
            </emission>
            <diffuse>
              <color sid="diffuse">0.6104922 0.4910214 0 1</color>
            </diffuse>
            <index_of_refraction>
              <float sid="ior">1.5</float>
            </index_of_refraction>
          </lambert>
        </technique>
      </profile_COMMON>
    </effect>
    <effect id="lightgrey-effect">
      <profile_COMMON>
        <technique sid="common">
          <lambert>
            <emission>
              <color sid="emission">0 0 0 1</color>
            </emission>
            <diffuse>
              <color sid="diffuse">0.7835327 0.7835385 0.7835382 1</color>
            </diffuse>
            <index_of_refraction>
              <float sid="ior">1.5</float>
            </index_of_refraction>
          </lambert>
        </technique>
      </profile_COMMON>
    </effect>
    <effect id="darkgrey-effect">
      <profile_COMMON>
        <technique sid="common">
          <lambert>
            <emission>
              <color sid="emission">0 0 0 1</color>
            </emission>
            <diffuse>
              <color sid="diffuse">0.3371614 0.3371639 0.3371637 1</color>
            </diffuse>
            <index_of_refraction>
              <float sid="ior">1.5</float>
            </index_of_refraction>
          </lambert>
        </technique>
      </profile_COMMON>
    </effect>
    <effect id="Material-effect">
      <profile_COMMON>
        <technique sid="common">
          <lambert>
            <emission>
              <color sid="emission">0 0 0 1</color>
            </emission>
            <diffuse>
              <color sid="diffuse">1 0.4969335 0 1</color>
            </diffuse>
            <index_of_refraction>
              <float sid="ior">1.45</float>
            </index_of_refraction>
          </lambert>
        </technique>
      </profile_COMMON>
    </effect>
  </library_effects>
  <library_images/>
  <library_materials>
    <material id="paintable-0-material" name="paintable-0">
      <instance_effect url="#paintable-0-effect"/>
    </material>
    <material id="paintable-1-material" name="paintable-1">
      <instance_effect url="#paintable-1-effect"/>
    </material>
    <material id="lightgrey-material" name="lightgrey">
      <instance_effect url="#lightgrey-effect"/>
    </material>
    <material id="darkgrey-material" name="darkgrey">
      <instance_effect url="#darkgrey-effect"/>
    </material>
    <material id="Material-material" name="Material">
      <instance_effect url="#Material-effect"/>
    </material>
  </library_materials>
  <library_geometries>
    <geometry id="Cube-mesh" name="Cube">
      <mesh>
        <source id="Cube-mesh-positions">
          <float_array id="Cube-mesh-positions-array" count="516">0.07499998 0.08499997 -0.125 -0.07499998 0.08499997 -0.125 -0.06249946 0.125 0.02588814 -0.02588808 0.125 0.0625 0.02588814 0.125 -0.0625 -0.02588808 0.125 -0.0625 -0.06249946 0.125 -0.02588814 0.06249952 0.125 -0.02588814 0.06249952 0.125 0.02588814 0.02588814 0.125 0.0625 -0.06249946 0.1 0.02588814 -0.02588808 0.1 0.0625 0.02588814 0.1 -0.0625 -0.02588808 0.1 -0.0625 -0.06249946 0.1 -0.02588814 0.06249952 0.1 -0.02588814 0.06249952 0.1 0.02588814 0.02588814 0.1 0.0625 -0.02174615 0.09999996 0.05249994 0.02174615 0.09999996 0.05249994 0.05249994 0.09999996 0.02174621 0.05249994 0.1 -0.02174615 0.02174615 0.1 -0.05249994 -0.02174615 0.1 -0.05249994 -0.05249994 0.1 -0.02174615 -0.05249994 0.09999996 0.02174615 -0.08499997 -0.07499998 -0.125 -0.07499998 -0.08499997 -0.125 0.07499998 -0.08499997 -0.125 0.08499997 -0.07499998 -0.125 -0.08499997 0.07499998 -0.125 0.08499997 0.07499998 -0.125 -0.08499997 -0.07499998 -0.115 -0.07499998 -0.08499997 -0.115 0.07499998 -0.08499997 -0.115 0.08499997 -0.07499998 -0.115 -0.08499997 0.07499998 -0.115 -0.07499998 0.08499997 -0.115 0.08499997 0.07499998 -0.115 0.07499998 0.08499997 -0.115 -0.07499998 -0.07499998 -0.115 -0.07499998 0.07499998 -0.115 0.07499998 -0.07499998 -0.115 0.07499998 0.07499998 -0.115 -0.02174615 0.06174594 0.05249994 0.02174615 0.06174594 0.05249994 0.05249994 0.06174594 0.02174621 0.05249994 0.061746 -0.02174615 -0.05249994 0.061746 -0.02174615 -0.05249994 0.06174594 0.02174615 0.02174615 0.061746 -0.05249994 -0.02174615 0.061746 -0.05249994 -0.05249994 0.02174615 -0.07499998 -0.07499998 0.07499998 -0.07499998 -0.07499998 -0.07499998 -0.07499998 0.07499998 -0.07499998 -0.07499998 0.02174615 -0.05249994 -0.07499998 -0.02174615 -0.05249994 -0.07499998 -0.05249994 -0.02174615 -0.07499998 -0.02174615 0.05249994 -0.07499998 0.05249994 -0.02174615 -0.07499998 0.05249994 0.02174615 -0.07499998 0.02174615 0.05249994 -0.07499998 0.07499998 0.07499998 -0.07499998 -0.02174615 0.004622936 0.03719389 0.02174615 0.004622936 0.03719389 0.05249994 0.01999986 0.01056033 0.05249994 0.04174607 -0.02710515 -0.05249994 0.04174607 -0.02710515 -0.05249994 0.01999986 0.01056033 0.02174615 0.057123 -0.05373871 -0.02174615 0.057123 -0.05373871 -0.02174615 -0.03719389 -0.004622995 0.02174615 -0.03719389 -0.004622995 0.05249994 -0.01056033 -0.01999986 0.05249994 0.02710515 -0.04174607 -0.05249994 0.02710515 -0.04174607 -0.05249994 -0.01056033 -0.01999986 0.02174615 0.05373871 -0.05712294 -0.02174615 0.05373871 -0.05712294 -0.02174615 -0.05249994 -0.061746 0.02174615 -0.05249994 -0.061746 0.05249994 -0.02174615 -0.061746 0.05249994 0.02174621 -0.061746 -0.05249994 0.02174621 -0.061746 -0.05249994 -0.02174615 -0.061746 0.02174615 0.05249994 -0.061746 -0.02174615 0.05249994 -0.061746 -0.03914213 -0.02499997 -0.115 -0.04499995 -0.03085786 -0.115 -0.04499995 -0.03914213 -0.115 -0.03914213 -0.04499995 -0.115 -0.03085786 -0.04499995 -0.115 -0.02499997 -0.03914213 -0.115 -0.02499997 -0.03085786 -0.115 -0.03085786 -0.02499997 -0.115 0.03085786 -0.02499997 -0.115 0.02499997 -0.03085786 -0.115 0.02499997 -0.03914213 -0.115 0.03085786 -0.04499995 -0.115 0.03914213 -0.04499995 -0.115 0.04499995 -0.03914213 -0.115 0.04499995 -0.03085786 -0.115 0.03914213 -0.02499997 -0.115 -0.03914213 0.04499995 -0.115 -0.04499995 0.03914213 -0.115 -0.04499995 0.03085786 -0.115 -0.03914213 0.02499997 -0.115 -0.03085786 0.02499997 -0.115 -0.02499997 0.03085786 -0.115 -0.02499997 0.03914213 -0.115 -0.03085786 0.04499995 -0.115 0.03085786 0.04499995 -0.115 0.02499997 0.03914213 -0.115 0.02499997 0.03085786 -0.115 0.03085786 0.02499997 -0.115 0.03914213 0.02499997 -0.115 0.04499995 0.03085786 -0.115 0.04499995 0.03914213 -0.115 0.03914213 0.04499995 -0.115 -0.03914213 0.02499997 -0.125 -0.04499995 0.03085786 -0.125 -0.04499995 0.03914213 -0.125 -0.03914213 0.04499995 -0.125 -0.03085786 0.04499995 -0.125 -0.02499997 0.03914213 -0.125 -0.02499997 0.03085786 -0.125 -0.03085786 0.02499997 -0.125 -0.07499998 0.07499998 -0.125 0.07499998 0.07499998 -0.125 0.03914213 0.04499995 -0.125 0.03085786 0.04499995 -0.125 0.02499997 0.03914213 -0.125 0.02499997 0.03085786 -0.125 0.04499995 0.03914213 -0.125 0.04499995 0.03085786 -0.125 0.03914213 0.02499997 -0.125 0.03085786 0.02499997 -0.125 -0.02499997 -0.03085786 -0.125 -0.02499997 -0.03914213 -0.125 -0.03085786 -0.04499995 -0.125 -0.03914213 -0.04499995 -0.125 -0.04499995 -0.03914213 -0.125 -0.04499995 -0.03085786 -0.125 -0.03914213 -0.02499997 -0.125 -0.03085786 -0.02499997 -0.125 0.02499997 -0.03085786 -0.125 0.03085786 -0.02499997 -0.125 0.03914213 -0.02499997 -0.125 0.04499995 -0.03085786 -0.125 0.04499995 -0.03914213 -0.125 0.03914213 -0.04499995 -0.125 0.03085786 -0.04499995 -0.125 0.02499997 -0.03914213 -0.125 0.07499998 -0.07499998 -0.125 -0.07499998 -0.07499998 -0.125 -0.02174615 0.07174599 0.05249994 -0.02174615 0.08999997 0.05249994 -0.05249994 0.08999997 0.02174615 -0.05249994 0.07174599 0.02174615 0.05249994 0.07174599 -0.02174615 0.05249994 0.08999997 -0.02174615 0.05249994 0.08999997 0.02174621 0.05249994 0.07174599 0.02174621 0.02174615 0.07174599 0.05249994 0.02174615 0.08999997 0.05249994 -0.05249994 0.07174599 -0.02174615 -0.05249994 0.08999997 -0.02174615 0.02174615 0.08999997 -0.05249994 0.02174615 0.07174599 -0.05249994 -0.02174615 0.07174599 -0.05249994 -0.02174615 0.08999997 -0.05249994</float_array>
          <technique_common>
            <accessor source="#Cube-mesh-positions-array" count="172" stride="3">
              <param name="X" type="float"/>
              <param name="Y" type="float"/>
              <param name="Z" type="float"/>
            </accessor>
          </technique_common>
        </source>
        <source id="Cube-mesh-normals">
          <float_array id="Cube-mesh-normals-array" count="1002">-0.7071114 0 0.7071022 -0.7071114 0 -0.7071022 0 0 -1 1 0 0 0 0 1 -1 0 0 0.7071114 0 -0.7071021 0.7071115 0 0.7071021 -5.2685e-7 -1 5.26843e-7 0 -1 0 0 -1 0 0 -1 0 0 -1 0 5.26859e-7 -1 5.26859e-7 0 -1 7.45058e-7 -7.45096e-7 -1 0 0.7071068 0.7071068 0 0.7071068 -0.7071068 0 1 0 0 -1 0 0 -0.7071068 0.7071068 0 -0.7071068 -0.7071068 0 0 1 0 0 -1 0 0 0 -1 0 0 -1 0 0 -1 0 0 -1 0 0 -1 0 0 -1 0 0 -1 0 0 -1 -1 0 0 0 0 -1 0.7071069 0 -0.7071067 1 0 0 0.7071067 0 0.7071069 0 0 1 -0.7071069 0 0.7071067 -1 0 0 -0.7071068 0 -0.7071068 0 0 1 0 0 1 0 0 1 0 0 1 0 0 1 0 0 1 0 0 1 1 0 0 0 1 0 0 -1 0 0 0 1 0 0 1 0 0 1 0 0 1 0 0 1 0 0 1 0 0 1 0 0 1 0 0 1 0 0 1 0 0 1 0 0 1 0 0 1 -0.7071068 -0.7071068 5.04882e-7 -0.7071067 0.707107 -2.01953e-7 0.7071068 -0.7071069 1.98746e-7 0.7071069 0.7071066 -7.94983e-7 0 1 -2.81069e-7 -1 0 0 0 -1 2.8107e-7 1 0 0 0 0.2588192 -0.9659258 0.6947465 -0.1861569 0.6947466 -0.6947466 -0.1861569 0.6947465 0.6947466 0.1861569 -0.6947465 -1 0 0 0 -0.2588193 0.9659258 -0.6947465 0.1861568 -0.6947467 1 0 0 -1 0 0 0 -0.707107 0.7071067 0.6947466 0.5085898 -0.5085898 1 0 0 0.6947465 -0.5085901 0.5085898 -0.6947466 -0.5085899 0.5085897 -0.6947465 0.5085898 -0.5085899 0 0.7071068 -0.7071068 -0.6947464 0.6947467 -0.1861568 0 0.9659256 -0.2588197 -1 0 0 0 -0.9659258 0.2588188 0.6947467 0.6947463 -0.1861572 1 0 0 0.6947465 -0.6947467 0.1861565 -0.6947467 -0.6947467 0.1861566 0 0 -1 1 0 0 -0.7071068 -0.7071068 -1.31743e-7 -0.7071069 0.7071067 -1.31709e-7 0.7071067 -0.7071069 2.63486e-7 0 -1 0 -1 0 -1.86265e-7 0 1 0 0 0 -1 1 0 0 -0.7071067 -0.7071069 -2.63486e-7 -0.7071068 0.7071068 -2.63418e-7 0.7071068 0.7071068 2.63418e-7 0.7071067 -0.7071069 2.63486e-7 0 -1 0 -1 0 -3.72529e-7 0 1 0 0 0 -1 1 0 0 -0.7071069 -0.7071067 -1.31743e-7 -0.7071069 0.7071067 -1.31709e-7 0.7071068 0.7071068 2.63418e-7 0.7071068 -0.7071068 2.63486e-7 0 -1 0 -1 0 -1.86265e-7 0 1 0 0 0 -1 1 0 0 -0.7071068 0.7071068 -2.63418e-7 0.7071068 0.7071068 2.63418e-7 0.7071068 -0.7071068 2.63486e-7 0 -1 0 -1 0 -3.72529e-7 0 1 0 0.7071068 0.7071068 2.63418e-7 -0.7071068 -0.7071068 -2.63486e-7 0 0 -1 0 0 -1 0 0 -1 0 0 -1 0 0 -1 0 0 -1 0 0 -1 0 0 -1 0 0 -1 0 0 -1 0 0 -1 0 0 -1 0 0 -1 0 0 -1 0 0 -1 0 0 -1 0 0 -1 0 0 -1 0 0 -1 0 0 -1 0 0 -1 0 0 -1 0 0 -1 0 0 -1 0 0 -1 0 0 -1 0 0 -1 0 0 -1 0 0 -1 0 0 -1 0 0 -1 0 0 -1 0 0 -1 0 0 -1 0 0 -1 0 0 -1 0 0 -1 0 0 -1 0 0 -1 0 0 -1 0 0 -1 0 0 -1 -0.7071067 -1.33834e-7 -0.7071068 -0.7071067 0 -0.7071068 -1 0 0 -1 0 0 -0.7071068 0 0.7071067 -0.7071069 0 0.7071067 0 0 1 0 0 1 0.7071067 0 0.7071068 0.7071067 0 0.7071069 1 0 0 1 0 0 0.7071068 0 -0.7071067 0.7071069 0 -0.7071067 0 0 -1 0 0 -1 -0.7071114 0 0.7071022 -0.7071114 0 -0.7071022 0 0 -1 1 0 0 0 0 1 -1 0 0 0.7071114 0 -0.7071021 0.7071115 0 0.7071021 -5.26862e-7 -1 5.26862e-7 0 -1 0 0 -1 0 0 -1 0 8.16048e-7 -1 -1.71308e-7 5.26846e-7 -1 5.26839e-7 0 -1 7.45058e-7 0 -1 -1.71308e-7 0.7071068 0.7071068 0 0.7071068 -0.7071068 0 1 0 0 -1 0 0 -0.7071068 0.7071068 0 -0.7071068 -0.7071068 0 0 1 0 0 -1 0 0 0 -1 0 0 -1 0 0 -1 0 0 -1 -1 0 0 0 0 -1 0.7071069 0 -0.7071067 1 0 0 0.7071067 0 0.7071068 0 0 1 -0.7071069 0 0.7071067 -1 0 0 -0.7071068 0 -0.7071068 0 0 1 0 0 1 0 0 1 0 0 1 1 0 0 0 1 0 0 -1 0 -0.7071067 -0.7071068 1.98746e-7 -0.7071067 0.7071068 -3.97492e-7 0.7071067 -0.7071069 0 0.7071068 0.7071068 -1.98746e-7 0 1 -2.81069e-7 -1 0 0 0 -1 2.8107e-7 1 0 0 0 0.2588192 -0.9659258 0.6947464 -0.186157 0.6947466 -0.6947467 -0.1861568 0.6947465 0.6947467 0.1861568 -0.6947465 -1 0 0 0 -0.2588193 0.9659258 -0.6947466 0.1861569 -0.6947466 1 0 0 -1 0 0 0 -0.707107 0.7071067 0.6947466 0.5085899 -0.5085897 1 0 0 0.6947464 -0.5085901 0.5085898 -0.6947467 -0.5085899 0.5085897 -0.6947466 0.5085898 -0.5085898 0 0.7071068 -0.7071068 -0.6947466 0.6947464 -0.1861572 0 0.9659256 -0.2588197 -1 0 0 0 -0.9659258 0.2588188 0.6947466 0.6947466 -0.1861567 1 0 0 0.6947465 -0.6947468 0.1861566 -0.6947466 -0.6947466 0.1861566 0 0 -1 0 0 -1 0 0 -1 0 0 -1 0 0 -1 1 0 0 -0.7071068 -0.7071068 -1.31709e-7 -0.7071069 0.7071067 -1.31709e-7 0.7071069 -0.7071067 0 0 -1 0 -1 0 -1.86265e-7 0 1 0 0 0 -1 0 0 -1 0 0 -1 0 0 -1 0 0 -1 1 0 0 -0.7071067 -0.7071069 -2.63418e-7 -0.7071068 0.7071068 -2.63418e-7 0.707107 0.7071065 0 0.7071069 -0.7071067 0 0 -1 0 -1 0 -3.72529e-7 0 1 0 0 0 -1 0 0 -1 0 0 -1 0 0 -1 0 0 -1 1 0 0 -0.7071069 -0.7071067 -1.31709e-7 -0.7071069 0.7071067 -1.31709e-7 0.707107 0.7071065 0 0.707107 -0.7071065 0 0 -1 0 -1 0 -1.86265e-7 0 1 0 0 0 -1 0 0 -1 0 0 -1 0 0 -1 0 0 -1 1 0 0 -0.7071068 0.7071068 -2.63418e-7 0.707107 0.7071065 0 0.707107 -0.7071065 0 0 -1 0 -1 0 -3.72529e-7 0 1 0 0.707107 0.7071065 0 -0.7071068 -0.7071068 -2.63418e-7 -0.7071067 0 -0.7071068 -0.7071068 0 -0.7071068 -1 0 0 -1 0 0 -0.7071068 0 0.7071067 -0.7071069 0 0.7071067 0 0 1 0 0 1 0.7071067 0 0.7071068 0.7071067 0 0.7071069 1 0 0 1 0 0 0.7071068 0 -0.7071067 0.7071069 0 -0.7071067 0 0 -1 0 0 -1</float_array>
          <technique_common>
            <accessor source="#Cube-mesh-normals-array" count="334" stride="3">
              <param name="X" type="float"/>
              <param name="Y" type="float"/>
              <param name="Z" type="float"/>
            </accessor>
          </technique_common>
        </source>
        <source id="Cube-mesh-map-0">
          <float_array id="Cube-mesh-map-0-array" count="2004">0 0 0 0 0 0 0 0 0 0 0 0 0 0 0 0 0 0 0 0 0 0 0 0 0 0 0 0 0 0 0 0 0 0 0 0 0 0 0 0 0 0 0 0 0 0 0 0 0 0 0.75 0.49 0 0 0 0 0.5802944 0.08029437 0.51 0.25 0 0 0.75 0.00999999 0.5802944 0.08029437 0 0 0.75 0.00999999 0 0 0 0 0.9197056 0.08029437 0 0 0 0 0.9197056 0.4197056 0.99 0.25 0 0 0.9197056 0.4197056 0 0 0 0 0.5802944 0.4197056 0 0 0 0 0 0 0 0 0 0 0 0 0 0 0 0 0 0 0 0 0 0 0 0 0 0 0 0 0 0 0 0 0 0 0 0 0 0 0 0 0 0 0 0 0 0 0 0 0 0 0 0 0 0 0 0 0 0 0 0 0 0 0 0 0 0 0 0 0 0 0 0 0 0 0 0 0 0 0 0 0 0 0 0 0 0 0 0 0 0 0 0 0 0 0 0 0 0 0 0 0 0 0 0 0.25 0.00333333 0 0 0.1934314 0.02676475 0 0 0.25 0.00333333 0.3065686 0.02676475 0.33 0.08333331 0 0 0.3065686 0.02676475 0.3065686 0.1399018 0 0 0.33 0.08333331 0 0 0 0 0.3065686 0.1399018 0 0 0 0 0.1934314 0.1399018 0.1934314 0.1399018 0 0 0 0 0.1934314 0.02676475 0 0 0.17 0.08333331 0 0 0 0 0 0 0 0 0 0 0 0 0 0 0 0 0 0 0 0 0 0 0 0 0 0 0 0 0 0 0 0 0 0 0 0 0 0 0 0 0 0 0 0 0 0 0 0 0 0 0 0 0 0 0 0 0 0 0 0 0 0 0 0 0 0 0 0 0 0 0 0 0 0 0 0 0 0 0 0 0 0 0 0 0 0 0 0 0 0 0 0 0 0 0 0 0 0 0 0 0 0 0 0 0 0 0 0 0 0 0 0 0 0 0 0 0 0 0 0 0 0 0 0 0 0 0 0 0 0 0 0 0 0 0 0 0 0 0 0 0 0 0 0 0 0 0 0 0 0 0 0 0 0 0 0 0 0 0 0 0 0 0 0 0 0 0 0 0 0 0 0 0 0 0 0 0 0 0 0 0 0 0 0 0 0 0 0 0 0 0 0 0 0 0 0 0 0 0 0 0 0 0 0 0 0 0 0 0 0 0 0 0 0 0 0 0 0 0 0 0 0 0 0 0 0 0 0 0 0 0 0 0 0 0 0 0 0 0 0 0 0 0 0 0 0 0 0 0 0 0 0 0 0 0 0 0 0 0 0 0 0 0 0 0 0 0 0 0 0 0 0 0 0 0 0 0 0 0 0 0 0 0 0 0 0 0 0 0 0 0 0 0 0 0 0 0 0 0 0 0 0 0 0 0 0 0 0 0 0 0 0 0 0 0 0 0 0 0 0 0 0 0 0 0 0 0 0 0 0 0 0 0 0 0 0 0 0 0 0 0 0 0 0 0 0 0 0 0 0 0 0 0 0 0 0 0 0 0 0 0 0 0 0 0 0 0 0 0 0 0 0 0 0 0 0 0 0 0 0 0 0 0 0 0 0 0 0 0 0 0 0 0 0 0 0 0 0 0 0 0 0 0 0 0 0 0 0 0 0 0 0 0 0 0 0 0 0 0 0 0 0 0 0 0 0 0 0 0 0 0 0 0 0 0 0 0 0 0 0 0 0 0 0 0 0 0 0 0 0 0 0 0 0 0 0 0 0 0 0 0 0 0 0 0 0 0 0 0 0 0 0 0 0 0 0 0 0 0 0 0 0 0 0 0 0 0 0 0 0 0 0 0 0 0 0 0 0 0 0 0 0 0 0 0 0 0 0 0 0 0 0 0 0 0 0 0 0 0 0 0 0 0 0 0 0 0 0 0 0 0 0 0 0 0 0 0 0 0 0 0 0 0 0 0 0 0 0 0 0 0 0 0 0 0 0 0 0 0 0 0 0 0 0 0 0 0 0 0 0 0 0 0 0 0 0 0 0 0 0 0 0 0 0 0 0 0 0 0 0 0 0 0 0 0 0 0 0 0 0 0 0 0 0 0 0 0 0 0 0 0 0 0 0 0 0 0 0 0 0 0 0 0 0 0 0 0 0 0 0 0 0 0 0 0 0 0 0 0 0 0 0 0 0 0 0 0 0 0 0 0 0 0 0 0 0 0 0 0 0 0 0 0 0 0 0 0 0 0 0 0 0 0 0 0 0 0 0 0 0 0 0 0 0 0 0 0 0 0 0 0 0 0 0 0 0 0 0 0 0 0 0 0 0 0 0 0 0 0 0 0 0 0 0 0 0 0 0 0 0 0 0 0 0 0 0 0 0 0 0 0 0 0 0 0 0 0 0 0 0 0 0 0 0 0 0 0 0 0 0 0 0 0 0 0 0 0 0 0 0 0 0 0 0 0 0 0 0 0 0 0 0 0 0 0 0 0 0 0 0 0 0 0 0 0 0 0 0 0 0 0 0 0 0 0 0 0 0 0.3868629 0.05352956 0.51 0.25 0.5802944 0.08029437 0.1934314 0.02676475 0.34 0.1666666 0.3868629 0.05352956 0.5802944 0.4197056 0.34 0.1666666 0.3868629 0.2798037 0.3868629 0.2798037 0.17 0.08333331 0.1934314 0.1399018 0.3868629 0.2798037 0 0 0.5802944 0.4197056 0.1934314 0.1399018 0 0 0.3868629 0.2798037 0 0 0.6131371 0.2798038 0.9197056 0.4197056 0 0 0.3065686 0.1399018 0.6131371 0.2798038 0.9197056 0.4197056 0.66 0.1666666 0.99 0.25 0.6131371 0.2798038 0.33 0.08333331 0.66 0.1666666 0.99 0.25 0.6131371 0.05352956 0.9197056 0.08029437 0.66 0.1666666 0.3065686 0.02676475 0.6131371 0.05352956 0.6131371 0.05352956 0.75 0.00999999 0.9197056 0.08029437 0.3065686 0.02676475 0.5 0.00666666 0.6131371 0.05352956 0.75 0.00999999 0.3868629 0.05352956 0.5802944 0.08029437 0.5 0.00666666 0.1934314 0.02676475 0.3868629 0.05352956 0 0 0 0 0 0 0 0 0 0 0 0 0 0 0 0 0 0 0 0 0 0 0 0 0 0 0 0 0 0 0 0 0 0 0 0 0 0 0 0 0 0 0 0 0 0 0 0 0 0 0.5802944 0.4197056 0.75 0.49 0 0 0 0 0.5802944 0.08029437 0 0 0 0 0.75 0.00999999 0 0 0.9197056 0.08029437 0.75 0.00999999 0 0 0.99 0.25 0.9197056 0.08029437 0 0 0 0 0.9197056 0.4197056 0 0 0.75 0.49 0.9197056 0.4197056 0 0 0.51 0.25 0.5802944 0.4197056 0 0 0 0 0 0 0 0 0 0 0 0 0 0 0 0 0 0 0 0 0 0 0 0 0 0 0 0 0 0 0 0 0 0 0 0 0 0 0 0 0 0 0 0 0 0 0 0 0 0 0 0 0 0 0 0 0 0 0 0 0 0 0 0 0 0 0 0 0 0 0 0 0 0 0 0 0 0 0.25 0.00333333 0 0 0 0 0 0 0 0 0.25 0.00333333 0.33 0.08333331 0 0 0 0 0.3065686 0.1399018 0 0 0 0 0 0 0 0 0 0 0 0 0 0 0 0 0.1934314 0.1399018 0.17 0.08333331 0 0 0.1934314 0.02676475 0 0 0 0 0 0 0 0 0 0 0 0 0 0 0 0 0 0 0 0 0 0 0 0 0 0 0 0 0 0 0 0 0 0 0 0 0 0 0 0 0 0 0 0 0 0 0 0 0 0 0 0 0 0 0 0 0 0 0 0 0 0 0 0 0 0 0 0 0 0 0 0 0 0 0 0 0 0 0 0 0 0 0 0 0 0 0 0 0 0 0 0 0 0 0 0 0 0 0 0 0 0 0 0 0 0 0 0 0 0 0 0 0 0 0 0 0 0 0 0 0 0 0 0 0 0 0 0 0 0 0 0 0 0 0 0 0 0 0 0 0 0 0 0 0 0 0 0 0 0 0 0 0 0 0 0 0 0 0 0 0 0 0 0 0 0 0 0 0 0 0 0 0 0 0 0 0 0 0 0 0 0 0 0 0 0 0 0 0 0 0 0 0 0 0 0 0 0 0 0 0 0 0 0 0 0 0 0 0 0 0 0 0 0 0 0 0 0 0 0 0 0 0 0 0 0 0 0 0 0 0 0 0 0 0 0 0 0 0 0 0 0 0 0 0 0 0 0 0 0 0 0 0 0 0 0 0 0 0 0 0 0 0 0 0 0 0 0 0 0 0 0 0 0 0 0 0 0 0 0 0 0 0 0 0 0 0 0 0 0 0 0 0 0 0 0 0 0 0 0 0 0 0 0 0 0 0 0 0 0 0 0 0 0 0 0 0 0 0 0 0 0 0 0 0 0 0 0 0 0 0 0 0 0 0 0 0 0 0 0 0 0 0 0 0 0 0 0 0 0 0 0 0 0 0 0 0 0 0 0 0 0 0 0 0 0 0 0 0 0 0 0 0 0 0 0 0 0 0 0 0 0 0 0 0 0 0 0 0 0 0 0 0 0 0 0 0 0 0 0 0 0 0 0 0 0 0 0 0 0 0 0 0 0 0 0 0 0 0 0 0 0 0 0 0 0 0 0 0 0 0 0 0 0 0 0 0 0 0 0 0 0 0 0 0 0 0 0 0 0 0 0 0 0 0 0 0 0 0 0 0 0 0 0 0 0 0 0 0 0 0 0 0 0 0 0 0 0 0 0 0 0 0 0 0 0 0 0 0 0 0 0 0 0 0 0 0 0 0 0 0 0 0 0 0 0 0 0 0 0 0 0 0 0 0 0 0 0 0 0 0 0 0 0 0 0 0 0 0 0 0 0 0 0 0 0 0 0 0 0 0 0 0 0 0 0 0 0 0 0 0.3868629 0.05352956 0.34 0.1666666 0.51 0.25 0.1934314 0.02676475 0.17 0.08333331 0.34 0.1666666 0.5802944 0.4197056 0.51 0.25 0.34 0.1666666 0.3868629 0.2798037 0.34 0.1666666 0.17 0.08333331 0.3868629 0.2798037 0 0 0 0 0.1934314 0.1399018 0 0 0 0 0 0 0 0 0.6131371 0.2798038 0 0 0 0 0.3065686 0.1399018 0.9197056 0.4197056 0.6131371 0.2798038 0.66 0.1666666 0.6131371 0.2798038 0.3065686 0.1399018 0.33 0.08333331 0.99 0.25 0.66 0.1666666 0.6131371 0.05352956 0.66 0.1666666 0.33 0.08333331 0.3065686 0.02676475 0.6131371 0.05352956 0.5 0.00666666 0.75 0.00999999 0.3065686 0.02676475 0.25 0.00333333 0.5 0.00666666 0.75 0.00999999 0.5 0.00666666 0.3868629 0.05352956 0.5 0.00666666 0.25 0.00333333 0.1934314 0.02676475</float_array>
          <technique_common>
            <accessor source="#Cube-mesh-map-0-array" count="1002" stride="2">
              <param name="S" type="float"/>
              <param name="T" type="float"/>
            </accessor>
          </technique_common>
        </source>
        <vertices id="Cube-mesh-vertices">
          <input semantic="POSITION" source="#Cube-mesh-positions"/>
        </vertices>
        <triangles material="paintable-0-material" count="230">
          <input semantic="VERTEX" source="#Cube-mesh-vertices" offset="0"/>
          <input semantic="NORMAL" source="#Cube-mesh-normals" offset="1"/>
          <input semantic="TEXCOORD" source="#Cube-mesh-map-0" offset="2" set="0"/>
          <p>2 0 0 11 0 1 3 0 2 5 1 3 14 1 4 6 1 5 12 2 6 5 2 7 4 2 8 8 3 9 15 3 10 7 3 11 3 4 12 17 4 13 9 4 14 6 5 15 10 5 16 2 5 17 15 6 18 4 6 19 7 6 20 9 7 21 16 7 22 8 7 23 10 8 24 18 8 25 11 8 26 14 9 27 23 9 28 24 9 29 13 10 30 22 10 31 23 10 32 15 11 33 22 11 34 12 11 35 16 12 36 21 12 37 15 12 38 16 13 39 19 13 40 20 13 41 11 14 42 19 14 43 17 14 44 14 15 45 25 15 46 10 15 47 0 16 48 38 16 49 31 16 50 29 17 51 34 17 52 28 17 53 31 18 54 35 18 55 29 18 56 32 19 57 30 19 58 26 19 59 36 20 60 1 20 61 30 20 62 27 21 63 32 21 64 26 21 65 37 22 66 0 22 67 1 22 68 28 23 69 33 23 70 27 23 71 31 24 72 129 24 73 0 24 74 155 25 75 30 25 76 128 25 77 30 26 78 1 26 79 128 26 80 27 27 81 26 27 82 155 27 83 28 28 84 154 28 85 29 28 86 128 29 87 0 29 88 129 29 89 27 30 90 154 30 91 28 30 92 31 31 93 154 31 94 129 31 95 54 32 96 41 32 97 40 32 98 169 33 99 51 33 100 170 33 101 47 34 102 169 34 103 160 34 104 163 35 105 47 35 106 160 35 107 164 36 108 46 36 109 163 36 110 156 37 111 45 37 112 164 37 113 49 38 114 156 38 115 159 38 116 159 39 117 48 39 118 49 39 119 170 40 120 48 40 121 166 40 122 34 41 123 35 41 124 42 41 125 43 42 126 35 42 127 38 42 128 39 43 129 43 43 130 38 43 131 42 44 132 33 44 133 34 44 134 40 45 135 36 45 136 32 45 137 37 46 138 36 46 139 41 46 140 41 47 141 39 47 142 37 47 143 63 48 144 42 48 145 43 48 146 53 49 147 43 49 148 41 49 149 55 50 150 40 50 151 42 50 152 63 51 153 53 51 154 62 51 155 61 52 156 60 52 157 63 52 158 53 53 159 59 53 160 62 53 161 54 54 162 57 54 163 58 54 164 60 55 165 55 55 166 63 55 167 63 56 168 62 56 169 61 56 170 60 57 171 56 57 172 55 57 173 54 58 174 55 58 175 57 58 176 58 59 177 52 59 178 54 59 179 52 60 180 53 60 181 54 60 182 55 61 183 56 61 184 57 61 185 33 62 186 40 62 187 32 62 188 52 63 189 59 63 190 53 63 191 58 64 192 80 64 193 85 64 194 59 65 195 84 65 196 87 65 197 60 66 198 81 66 199 56 66 200 62 67 201 83 67 202 61 67 203 59 68 204 86 68 205 62 68 206 52 69 207 85 69 208 84 69 209 56 70 210 80 70 211 57 70 212 61 71 213 82 71 214 60 71 215 50 72 216 71 72 217 51 72 218 46 73 219 65 73 220 66 73 221 44 74 222 69 74 223 64 74 224 50 75 225 67 75 226 70 75 227 49 76 228 68 76 229 69 76 230 44 77 231 65 77 232 45 77 233 51 78 234 68 78 235 48 78 236 46 79 237 67 79 238 47 79 239 69 80 240 76 80 241 77 80 242 64 81 243 73 81 244 65 81 245 67 82 246 78 82 247 70 82 248 66 83 249 75 83 250 67 83 251 66 84 252 73 84 253 74 84 254 64 85 255 77 85 256 72 85 257 71 86 258 76 86 259 68 86 260 70 87 261 79 87 262 71 87 263 76 88 264 87 88 265 84 88 266 78 89 267 87 89 268 79 89 269 77 90 270 84 90 271 85 90 272 72 91 273 81 91 274 73 91 275 75 92 276 86 92 277 78 92 278 74 93 279 83 93 280 75 93 281 74 94 282 81 94 283 82 94 284 72 95 285 85 95 286 80 95 287 132 132 396 125 132 397 124 132 398 143 133 399 155 133 400 121 133 401 140 134 402 153 134 403 152 134 404 152 135 405 151 135 406 154 135 407 155 136 408 142 136 409 141 136 410 140 137 411 139 137 412 153 137 413 155 138 414 141 138 415 140 138 416 152 139 417 154 139 418 140 139 419 154 140 420 155 140 421 140 140 422 134 141 423 130 141 424 129 141 425 154 142 426 151 142 427 150 142 428 154 143 429 150 143 430 149 143 431 134 144 432 129 144 433 135 144 434 129 145 435 154 145 436 135 145 437 135 146 438 154 146 439 149 146 440 136 147 441 135 147 442 149 147 443 136 148 444 149 148 445 148 148 446 126 149 447 133 149 448 137 149 449 137 150 450 136 150 451 148 150 452 137 151 453 148 151 454 147 151 455 127 152 456 126 152 457 137 152 458 127 153 459 137 153 460 147 153 461 146 154 462 153 154 463 139 154 464 127 155 465 147 155 466 146 155 467 120 156 468 127 156 469 145 156 470 127 157 471 146 157 472 145 157 473 146 158 474 139 158 475 138 158 476 146 159 477 138 159 478 145 159 479 120 160 480 145 160 481 144 160 482 128 161 483 122 161 484 121 161 485 121 162 486 120 162 487 144 162 488 143 163 489 142 163 490 155 163 491 121 164 492 144 164 493 143 164 494 155 165 495 128 165 496 121 165 497 128 166 498 129 166 499 131 166 500 129 167 501 130 167 502 131 167 503 123 168 504 122 168 505 128 168 506 124 169 507 123 169 508 128 169 509 128 170 510 131 170 511 124 170 512 131 171 513 132 171 514 124 171 515 132 172 516 133 172 517 126 172 518 132 173 519 126 173 520 125 173 521 171 174 522 24 174 523 23 174 524 25 176 528 167 176 529 158 176 530 158 178 534 18 178 535 25 178 536 18 180 540 165 180 541 19 180 542 19 182 546 162 182 547 20 182 548 20 184 552 161 184 553 21 184 554 161 186 558 22 186 559 21 186 560 22 188 564 171 188 565 23 188 566 2 190 570 10 190 571 11 190 572 5 191 573 13 191 574 14 191 575 12 192 576 13 192 577 5 192 578 8 193 579 16 193 580 15 193 581 3 194 582 11 194 583 17 194 584 6 195 585 14 195 586 10 195 587 15 196 588 12 196 589 4 196 590 9 197 591 17 197 592 16 197 593 10 198 594 25 198 595 18 198 596 14 199 597 13 199 598 23 199 599 13 200 600 12 200 601 22 200 602 15 201 603 21 201 604 22 201 605 16 202 606 20 202 607 21 202 608 16 203 609 17 203 610 19 203 611 11 204 612 18 204 613 19 204 614 14 205 615 24 205 616 25 205 617 0 206 618 39 206 619 38 206 620 29 207 621 35 207 622 34 207 623 31 208 624 38 208 625 35 208 626 32 209 627 36 209 628 30 209 629 36 210 630 37 210 631 1 210 632 27 211 633 33 211 634 32 211 635 37 212 636 39 212 637 0 212 638 28 213 639 34 213 640 33 213 641 155 214 642 26 214 643 30 214 644 128 215 645 1 215 646 0 215 647 27 216 648 155 216 649 154 216 650 31 217 651 29 217 652 154 217 653 54 218 654 53 218 655 41 218 656 169 219 657 50 219 658 51 219 659 47 220 660 50 220 661 169 220 662 163 221 663 46 221 664 47 221 665 164 222 666 45 222 667 46 222 668 156 223 669 44 223 670 45 223 671 49 224 672 44 224 673 156 224 674 159 225 675 166 225 676 48 225 677 170 226 678 51 226 679 48 226 680 43 227 681 42 227 682 35 227 683 42 228 684 40 228 685 33 228 686 40 229 687 41 229 688 36 229 689 41 230 690 43 230 691 39 230 692 63 231 693 55 231 694 42 231 695 53 232 696 63 232 697 43 232 698 55 233 699 54 233 700 40 233 701 58 234 702 57 234 703 80 234 704 59 235 705 52 235 706 84 235 707 60 236 708 82 236 709 81 236 710 62 237 711 86 237 712 83 237 713 59 238 714 87 238 715 86 238 716 52 239 717 58 239 718 85 239 719 56 240 720 81 240 721 80 240 722 61 241 723 83 241 724 82 241 725 50 242 726 70 242 727 71 242 728 46 243 729 45 243 730 65 243 731 44 244 732 49 244 733 69 244 734 50 245 735 47 245 736 67 245 737 49 246 738 48 246 739 68 246 740 44 247 741 64 247 742 65 247 743 51 248 744 71 248 745 68 248 746 46 249 747 66 249 748 67 249 749 69 250 750 68 250 751 76 250 752 64 251 753 72 251 754 73 251 755 67 252 756 75 252 757 78 252 758 66 253 759 74 253 760 75 253 761 66 254 762 65 254 763 73 254 764 64 255 765 69 255 766 77 255 767 71 256 768 79 256 769 76 256 770 70 257 771 78 257 772 79 257 773 76 258 774 79 258 775 87 258 776 78 259 777 86 259 778 87 259 779 77 260 780 76 260 781 84 260 782 72 261 783 80 261 784 81 261 785 75 262 786 83 262 787 86 262 788 74 263 789 82 263 790 83 263 791 74 264 792 73 264 793 81 264 794 72 265 795 77 265 796 85 265 797 171 318 954 167 318 955 24 318 956 25 320 960 24 320 961 167 320 962 158 322 966 157 322 967 18 322 968 18 324 972 157 324 973 165 324 974 19 326 978 165 326 979 162 326 980 20 328 984 162 328 985 161 328 986 161 330 990 168 330 991 22 330 992 22 332 996 168 332 997 171 332 998</p>
        </triangles>
        <triangles material="darkgrey-material" count="104">
          <input semantic="VERTEX" source="#Cube-mesh-vertices" offset="0"/>
          <input semantic="NORMAL" source="#Cube-mesh-normals" offset="1"/>
          <input semantic="TEXCOORD" source="#Cube-mesh-map-0" offset="2" set="0"/>
          <p>94 96 288 92 96 289 90 96 290 89 97 291 142 97 292 143 97 293 94 98 294 145 98 295 138 98 296 140 99 297 93 99 298 139 99 299 88 100 300 143 100 301 144 100 302 95 101 303 144 101 304 145 101 305 93 102 306 138 102 307 139 102 308 141 103 309 92 103 310 140 103 311 102 104 312 100 104 313 98 104 314 97 105 315 153 105 316 146 105 317 102 106 318 148 106 319 149 106 320 151 107 321 101 107 322 150 107 323 153 108 324 99 108 325 152 108 326 96 109 327 146 109 328 147 109 329 103 110 330 147 110 331 148 110 332 101 111 333 149 111 334 150 111 335 152 112 336 100 112 337 151 112 338 110 113 339 108 113 340 106 113 341 105 114 342 121 114 343 122 114 344 110 115 345 124 115 346 125 115 347 127 116 348 109 116 349 126 116 350 121 117 351 107 117 352 120 117 353 104 118 354 122 118 355 123 118 356 111 119 357 123 119 358 124 119 359 109 120 360 125 120 361 126 120 362 120 121 363 108 121 364 127 121 365 118 122 366 116 122 367 114 122 368 113 123 369 133 123 370 132 123 371 136 124 372 117 124 373 135 124 374 133 125 375 115 125 376 137 125 377 112 126 378 132 126 379 131 126 380 119 127 381 131 127 382 130 127 383 117 128 384 134 128 385 135 128 386 137 129 387 116 129 388 136 129 389 142 130 390 91 130 391 141 130 392 130 131 393 118 131 394 119 131 395 170 175 525 167 175 526 171 175 527 158 177 531 166 177 532 159 177 533 159 179 537 157 179 538 158 179 539 157 181 543 164 181 544 165 181 545 165 183 549 163 183 550 162 183 551 162 185 555 160 185 556 161 185 557 160 187 561 168 187 562 161 187 563 168 189 567 170 189 568 171 189 569 90 266 798 89 266 799 94 266 800 89 267 801 88 267 802 94 267 803 88 268 804 95 268 805 94 268 806 94 269 807 93 269 808 92 269 809 92 270 810 91 270 811 90 270 812 89 271 813 90 271 814 142 271 815 94 272 816 95 272 817 145 272 818 140 273 819 92 273 820 93 273 821 88 274 822 89 274 823 143 274 824 95 275 825 88 275 826 144 275 827 93 276 828 94 276 829 138 276 830 141 277 831 91 277 832 92 277 833 98 278 834 97 278 835 102 278 836 97 279 837 96 279 838 102 279 839 96 280 840 103 280 841 102 280 842 102 281 843 101 281 844 100 281 845 100 282 846 99 282 847 98 282 848 97 283 849 98 283 850 153 283 851 102 284 852 103 284 853 148 284 854 151 285 855 100 285 856 101 285 857 153 286 858 98 286 859 99 286 860 96 287 861 97 287 862 146 287 863 103 288 864 96 288 865 147 288 866 101 289 867 102 289 868 149 289 869 152 290 870 99 290 871 100 290 872 106 291 873 105 291 874 104 291 875 104 292 876 111 292 877 106 292 878 111 293 879 110 293 880 106 293 881 110 294 882 109 294 883 108 294 884 108 295 885 107 295 886 106 295 887 105 296 888 106 296 889 121 296 890 110 297 891 111 297 892 124 297 893 127 298 894 108 298 895 109 298 896 121 299 897 106 299 898 107 299 899 104 300 900 105 300 901 122 300 902 111 301 903 104 301 904 123 301 905 109 302 906 110 302 907 125 302 908 120 303 909 107 303 910 108 303 911 114 304 912 113 304 913 112 304 914 112 305 915 119 305 916 114 305 917 119 306 918 118 306 919 114 306 920 118 307 921 117 307 922 116 307 923 116 308 924 115 308 925 114 308 926 113 309 927 114 309 928 133 309 929 136 310 930 116 310 931 117 310 932 133 311 933 114 311 934 115 311 935 112 312 936 113 312 937 132 312 938 119 313 939 112 313 940 131 313 941 117 314 942 118 314 943 134 314 944 137 315 945 115 315 946 116 315 947 142 316 948 90 316 949 91 316 950 130 317 951 134 317 952 118 317 953 170 319 957 166 319 958 167 319 959 158 321 963 167 321 964 166 321 965 159 323 969 156 323 970 157 323 971 157 325 975 156 325 976 164 325 977 165 327 981 164 327 982 163 327 983 162 329 987 163 329 988 160 329 989 160 331 993 169 331 994 168 331 995 168 333 999 169 333 1000 170 333 1001</p>
        </triangles>
      </mesh>
    </geometry>
  </library_geometries>
  <library_visual_scenes>
    <visual_scene id="Scene" name="Scene">
      <node id="Cube" name="Cube" type="NODE">
        <matrix sid="transform">1 0 0 0 0 1 0 0 0 0 1 0 0 0 0 1</matrix>
        <instance_geometry url="#Cube-mesh" name="Cube">
          <bind_material>
            <technique_common>
              <instance_material symbol="paintable-0-material" target="#paintable-0-material">
                <bind_vertex_input semantic="UVMap" input_semantic="TEXCOORD" input_set="0"/>
              </instance_material>
              <instance_material symbol="paintable-1-material" target="#paintable-1-material">
                <bind_vertex_input semantic="UVMap" input_semantic="TEXCOORD" input_set="0"/>
              </instance_material>
              <instance_material symbol="lightgrey-material" target="#lightgrey-material">
                <bind_vertex_input semantic="UVMap" input_semantic="TEXCOORD" input_set="0"/>
              </instance_material>
              <instance_material symbol="darkgrey-material" target="#darkgrey-material">
                <bind_vertex_input semantic="UVMap" input_semantic="TEXCOORD" input_set="0"/>
              </instance_material>
              <instance_material symbol="Material-material" target="#Material-material">
                <bind_vertex_input semantic="UVMap" input_semantic="TEXCOORD" input_set="0"/>
              </instance_material>
            </technique_common>
          </bind_material>
        </instance_geometry>
      </node>
    </visual_scene>
  </library_visual_scenes>
  <scene>
    <instance_visual_scene url="#Scene"/>
  </scene>
</COLLADA>