<?xml version="1.0" encoding="utf-8"?>
<COLLADA xmlns="http://www.collada.org/2005/11/COLLADASchema" version="1.4.1" xmlns:xsi="http://www.w3.org/2001/XMLSchema-instance">
  <asset>
    <contributor>
      <author>Blender User</author>
      <authoring_tool>Blender 4.2.22 LTS commit date:2026-06-22, commit time:11:10, hash:88937221abfc</authoring_tool>
    </contributor>
    <created>2026-07-20T15:27:12</created>
    <modified>2026-07-20T15:27:12</modified>
    <unit name="meter" meter="1"/>
    <up_axis>Z_UP</up_axis>
  </asset>
  <library_effects>
    <effect id="paintable-0-effect">
      <profile_COMMON>
        <technique sid="common">
          <lambert>
            <emission>
              <color sid="emission">0 0 0 1</color>
            </emission>
            <diffuse>
              <color sid="diffuse">1 0.4969335 0 1</color>
            </diffuse>
            <index_of_refraction>
              <float sid="ior">1.45</float>
            </index_of_refraction>
          </lambert>
        </technique>
      </profile_COMMON>
    </effect>
    <effect id="paintable-1-effect">
      <profile_COMMON>
        <technique sid="common">
          <lambert>
            <emission>
              <color sid="emission">0 0 0 1</color>
            </emission>
            <diffuse>
              <color sid="diffuse">0.6104922 0.4910214 0 1</color>
            </diffuse>
            <index_of_refraction>
              <float sid="ior">1.5</float>
            </index_of_refraction>
          </lambert>
        </technique>
      </profile_COMMON>
    </effect>
    <effect id="lightgrey-effect">
      <profile_COMMON>
        <technique sid="common">
          <lambert>
            <emission>
              <color sid="emission">0 0 0 1</color>
            </emission>
            <diffuse>
              <color sid="diffuse">0.7835327 0.7835385 0.7835382 1</color>
            </diffuse>
            <index_of_refraction>
              <float sid="ior">1.5</float>
            </index_of_refraction>
          </lambert>
        </technique>
      </profile_COMMON>
    </effect>
    <effect id="darkgrey-effect">
      <profile_COMMON>
        <technique sid="common">
          <lambert>
            <emission>
              <color sid="emission">0 0 0 1</color>
            </emission>
            <diffuse>
              <color sid="diffuse">0.3371614 0.3371639 0.3371637 1</color>
            </diffuse>
            <index_of_refraction>
              <float sid="ior">1.5</float>
            </index_of_refraction>
          </lambert>
        </technique>
      </profile_COMMON>
    </effect>
    <effect id="Material-effect">
      <profile_COMMON>
        <technique sid="common">
          <lambert>
            <emission>
              <color sid="emission">0 0 0 1</color>
            </emission>
            <diffuse>
              <color sid="diffuse">1 0.4969335 0 1</color>
            </diffuse>
            <index_of_refraction>
              <float sid="ior">1.45</float>
            </index_of_refraction>
          </lambert>
        </technique>
      </profile_COMMON>
    </effect>
  </library_effects>
  <library_images/>
  <library_materials>
    <material id="paintable-0-material" name="paintable-0">
      <instance_effect url="#paintable-0-effect"/>
    </material>
    <material id="paintable-1-material" name="paintable-1">
      <instance_effect url="#paintable-1-effect"/>
    </material>
    <material id="lightgrey-material" name="lightgrey">
      <instance_effect url="#lightgrey-effect"/>
    </material>
    <material id="darkgrey-material" name="darkgrey">
      <instance_effect url="#darkgrey-effect"/>
    </material>
    <material id="Material-material" name="Material">
      <instance_effect url="#Material-effect"/>
    </material>
  </library_materials>
  <library_geometries>
    <geometry id="Cube-mesh" name="Cube">
      <mesh>
        <source id="Cube-mesh-positions">
          <float_array id="Cube-mesh-positions-array" count="360">0.07499998 0.08499997 -0.125 -0.07499998 0.08499997 -0.125 -0.06249946 -0.02588814 0.125 -0.02588808 -0.0625 0.125 0.02588814 0.0625 0.125 -0.02588808 0.0625 0.125 -0.06249946 0.02588808 0.125 0.06249952 0.02588808 0.125 0.06249952 -0.02588814 0.125 0.02588814 -0.0625 0.125 -0.06249946 -0.02588814 0.1 -0.02588808 -0.0625 0.1 0.02588814 0.0625 0.09999996 -0.02588808 0.0625 0.09999996 -0.06249946 0.02588808 0.09999996 0.06249952 0.02588808 0.09999996 0.06249952 -0.02588814 0.1 0.02588814 -0.0625 0.1 -0.08499997 -0.07499998 -0.125 -0.07499998 -0.08499997 -0.125 0.07499998 -0.08499997 -0.125 0.08499997 -0.07499998 -0.125 -0.08499997 0.07499998 -0.125 0.08499997 0.07499998 -0.125 -0.08499997 -0.07499998 -0.115 -0.07499998 -0.08499997 -0.115 0.07499998 -0.08499997 -0.115 0.08499997 -0.07499998 -0.115 -0.08499997 0.07499998 -0.115 -0.07499998 0.08499997 -0.115 0.08499997 0.07499998 -0.115 0.07499998 0.08499997 -0.115 -0.07499998 -0.07499998 -0.115 -0.07499998 0.07499998 -0.115 0.07499998 -0.07499998 -0.115 0.07499998 0.07499998 -0.115 -0.05249994 0.02174615 -0.07499998 0.02174615 -0.05249994 -0.07499998 -0.02174615 -0.05249994 -0.07499998 -0.05249994 -0.02174615 -0.07499998 -0.02174615 0.05249994 -0.07499998 0.05249994 -0.02174615 -0.07499998 0.05249994 0.02174615 -0.07499998 0.02174615 0.05249994 -0.07499998 -0.02174615 -0.05249994 0.09999996 0.02174615 -0.05249994 0.09999996 0.05249994 -0.02174615 0.09999996 0.05249994 0.02174621 0.09999996 -0.05249994 0.02174621 0.09999996 -0.05249994 -0.02174615 0.09999996 0.02174615 0.05249994 0.09999996 -0.02174615 0.05249994 0.09999996 -0.03914213 -0.02499997 -0.115 -0.04499995 -0.03085786 -0.115 -0.04499995 -0.03914213 -0.115 -0.03914213 -0.04499995 -0.115 -0.03085786 -0.04499995 -0.115 -0.02499997 -0.03914213 -0.115 -0.02499997 -0.03085786 -0.115 -0.03085786 -0.02499997 -0.115 0.03085786 -0.02499997 -0.115 0.02499997 -0.03085786 -0.115 0.02499997 -0.03914213 -0.115 0.03085786 -0.04499995 -0.115 0.03914213 -0.04499995 -0.115 0.04499995 -0.03914213 -0.115 0.04499995 -0.03085786 -0.115 0.03914213 -0.02499997 -0.115 -0.03914213 0.04499995 -0.115 -0.04499995 0.03914213 -0.115 -0.04499995 0.03085786 -0.115 -0.03914213 0.02499997 -0.115 -0.03085786 0.02499997 -0.115 -0.02499997 0.03085786 -0.115 -0.02499997 0.03914213 -0.115 -0.03085786 0.04499995 -0.115 0.03085786 0.04499995 -0.115 0.02499997 0.03914213 -0.115 0.02499997 0.03085786 -0.115 0.03085786 0.02499997 -0.115 0.03914213 0.02499997 -0.115 0.04499995 0.03085786 -0.115 0.04499995 0.03914213 -0.115 0.03914213 0.04499995 -0.115 -0.03914213 0.02499997 -0.125 -0.04499995 0.03085786 -0.125 -0.04499995 0.03914213 -0.125 -0.03914213 0.04499995 -0.125 -0.03085786 0.04499995 -0.125 -0.02499997 0.03914213 -0.125 -0.02499997 0.03085786 -0.125 -0.03085786 0.02499997 -0.125 -0.07499998 0.07499998 -0.125 0.07499998 0.07499998 -0.125 0.03914213 0.04499995 -0.125 0.03085786 0.04499995 -0.125 0.02499997 0.03914213 -0.125 0.02499997 0.03085786 -0.125 0.04499995 0.03914213 -0.125 0.04499995 0.03085786 -0.125 0.03914213 0.02499997 -0.125 0.03085786 0.02499997 -0.125 -0.02499997 -0.03085786 -0.125 -0.02499997 -0.03914213 -0.125 -0.03085786 -0.04499995 -0.125 -0.03914213 -0.04499995 -0.125 -0.04499995 -0.03914213 -0.125 -0.04499995 -0.03085786 -0.125 -0.03914213 -0.02499997 -0.125 -0.03085786 -0.02499997 -0.125 0.02499997 -0.03085786 -0.125 0.03085786 -0.02499997 -0.125 0.03914213 -0.02499997 -0.125 0.04499995 -0.03085786 -0.125 0.04499995 -0.03914213 -0.125 0.03914213 -0.04499995 -0.125 0.03085786 -0.04499995 -0.125 0.02499997 -0.03914213 -0.125 0.07499998 -0.07499998 -0.125 -0.07499998 -0.07499998 -0.125</float_array>
          <technique_common>
            <accessor source="#Cube-mesh-positions-array" count="120" stride="3">
              <param name="X" type="float"/>
              <param name="Y" type="float"/>
              <param name="Z" type="float"/>
            </accessor>
          </technique_common>
        </source>
        <source id="Cube-mesh-normals">
          <float_array id="Cube-mesh-normals-array" count="690">-0.7071114 -0.7071022 1.79873e-7 -0.7071114 0.7071021 0 0 1 -1.49012e-7 1 0 0 0 -1 2.98023e-7 -1 0 0 0.7071115 0.7071021 0 0.7071115 -0.707102 2.10733e-7 -2.1074e-6 -2.10737e-6 -1 0 0 -1 0 0 -1 0 0 -1 -2.12872e-7 5.13923e-7 -1 2.10744e-6 -2.10744e-6 -1 0 -2.98023e-6 -1 -1.43059e-6 -1.43899e-7 -1 0.7071068 0.7071068 0 0.7071068 -0.7071068 0 1 0 0 -1 0 0 -0.7071068 0.7071068 0 -0.7071068 -0.7071068 0 0 1 0 0 -1 0 0 0 -1 0 0 -1 0 0 -1 0 0 -1 0 0 -1 0 0 -1 0 0 -1 0 0 -1 0 0 1 0 0 1 0 0 1 0 0 1 0 0 1 0 0 1 0 0 1 0.8715755 0 0.4902613 0 0.8715755 0.4902613 -0.4230818 -0.4230818 0.8012512 0.4230817 -0.4230818 0.8012513 -0.8715755 0 0.4902613 0.4230818 0.4230816 0.8012513 -0.4230817 0.4230818 0.8012513 0 -0.8715754 0.4902613 0 0 1 -0.7071068 -0.7071068 0 -0.7071067 0.7071069 0 0.7071067 -0.7071069 0 0.707107 0.7071067 0 0 1 0 -1 0 0 0 -1 0 1 0 0 0 0 -1 1 0 0 -0.7071068 -0.7071068 -1.31743e-7 -0.7071069 0.7071067 -1.31709e-7 0.7071067 -0.7071069 2.63486e-7 0 -1 0 -1 0 -1.86265e-7 0 1 0 0 0 -1 1 0 0 -0.7071067 -0.7071069 -2.63486e-7 -0.7071068 0.7071068 -2.63418e-7 0.7071068 0.7071068 2.63418e-7 0.7071067 -0.7071069 2.63486e-7 0 -1 0 -1 0 -3.72529e-7 0 1 0 0 0 -1 1 0 0 -0.7071069 -0.7071067 -1.31743e-7 -0.7071069 0.7071067 -1.31709e-7 0.7071068 0.7071068 2.63418e-7 0.7071068 -0.7071068 2.63486e-7 0 -1 0 -1 0 -1.86265e-7 0 1 0 0 0 -1 1 0 0 -0.7071068 0.7071068 -2.63418e-7 0.7071068 0.7071068 2.63418e-7 0.7071068 -0.7071068 2.63486e-7 0 -1 0 -1 0 -3.72529e-7 0 1 0 0.7071068 0.7071068 2.63418e-7 -0.7071068 -0.7071068 -2.63486e-7 0 0 -1 0 0 -1 0 0 -1 0 0 -1 0 0 -1 0 0 -1 0 0 -1 0 0 -1 0 0 -1 0 0 -1 0 0 -1 0 0 -1 0 0 -1 0 0 -1 0 0 -1 0 0 -1 0 0 -1 0 0 -1 0 0 -1 0 0 -1 0 0 -1 0 0 -1 0 0 -1 0 0 -1 0 0 -1 0 0 -1 0 0 -1 0 0 -1 0 0 -1 0 0 -1 0 0 -1 0 0 -1 0 0 -1 0 0 -1 0 0 -1 0 0 -1 0 0 -1 0 0 -1 0 0 -1 0 0 -1 0 0 -1 0 0 -1 -0.7071114 -0.7071022 2.10733e-7 -0.7071114 0.7071021 0 0 1 -1.49012e-7 1 0 0 0 -1 2.98023e-7 -1 0 0 0.7071115 0.7071021 0 0.7071115 -0.707102 2.10733e-7 -1.19564e-6 -7.11109e-7 -1 0 0 -1 0 0 -1 0 0 -1 2.92076e-6 -1.43899e-7 -1 2.10738e-6 -2.10735e-6 -1 0 -2.98022e-6 -1 0 1.71308e-7 -1 0.7071068 0.7071068 0 0.7071068 -0.7071068 0 1 0 0 -1 0 0 -0.7071068 0.7071068 0 -0.7071068 -0.7071068 0 0 1 0 0 -1 0 0 0 -1 0 0 -1 0 0 -1 0 0 -1 0 0 1 0 0 1 0 0 1 0 0 1 0.8715756 0 0.4902612 0 0.8715755 0.4902613 -0.8715755 0 0.4902613 0 -0.8715755 0.4902614 -0.7071069 -0.7071067 0 -0.7071067 0.7071069 0 0.7071067 -0.7071069 0 0.7071068 0.7071068 0 0 1 0 -1 0 0 0 -1 0 1 0 0 0 0 -1 0 0 -1 0 0 -1 0 0 -1 0 0 -1 1 0 0 -0.7071068 -0.7071068 -1.31709e-7 -0.7071069 0.7071067 -1.31709e-7 0.7071069 -0.7071067 0 0 -1 0 -1 0 -1.86265e-7 0 1 0 0 0 -1 0 0 -1 0 0 -1 0 0 -1 0 0 -1 1 0 0 -0.7071067 -0.7071069 -2.63418e-7 -0.7071068 0.7071068 -2.63418e-7 0.707107 0.7071065 0 0.7071069 -0.7071067 0 0 -1 0 -1 0 -3.72529e-7 0 1 0 0 0 -1 0 0 -1 0 0 -1 0 0 -1 0 0 -1 1 0 0 -0.7071069 -0.7071067 -1.31709e-7 -0.7071069 0.7071067 -1.31709e-7 0.707107 0.7071065 0 0.707107 -0.7071065 0 0 -1 0 -1 0 -1.86265e-7 0 1 0 0 0 -1 0 0 -1 0 0 -1 0 0 -1 0 0 -1 1 0 0 -0.7071068 0.7071068 -2.63418e-7 0.707107 0.7071065 0 0.707107 -0.7071065 0 0 -1 0 -1 0 -3.72529e-7 0 1 0 0.707107 0.7071065 0 -0.7071068 -0.7071068 -2.63418e-7</float_array>
          <technique_common>
            <accessor source="#Cube-mesh-normals-array" count="230" stride="3">
              <param name="X" type="float"/>
              <param name="Y" type="float"/>
              <param name="Z" type="float"/>
            </accessor>
          </technique_common>
        </source>
        <source id="Cube-mesh-map-0">
          <float_array id="Cube-mesh-map-0-array" count="1380">0 0 0 0 0 0 0 0 0 0 0 0 0 0 0 0 0 0 0 0 0 0 0 0 0 0 0 0 0 0 0 0 0 0 0 0 0 0 0 0 0 0 0 0 0 0 0 0 0 0 0.75 0.49 0 0 0 0 0.5802944 0.08029437 0.51 0.25 0 0 0.75 0.00999999 0.5802944 0.08029437 0 0 0.75 0.00999999 0 0 0 0 0.99 0.25 0.9197056 0.08029437 0 0 0.9197056 0.4197056 0.99 0.25 0 0 0.9197056 0.4197056 0 0 0 0 0.5802944 0.4197056 0 0 0 0 0 0 0 0 0 0 0 0 0 0 0 0 0 0 0 0 0 0 0 0 0 0 0 0 0 0 0 0 0 0 0 0 0 0 0 0 0 0 0 0 0 0 0 0 0 0 0 0 0 0 0 0 0 0 0 0 0 0 0 0 0 0 0 0 0 0 0 0 0 0 0 0 0 0 0 0 0 0 0 0 0 0 0 0 0 0 0 0 0 0 0 0 0 0 0 0 0 0 0 0 0 0 0 0 0 0 0 0 0 0 0 0 0 0 0 0 0 0 0 0 0 0 0 0 0 0 0 0 0 0 0 0 0 0 0 0 0 0 0 0 0 0 0 0 0 0 0 0 0 0 0 0 0 0 0 0 0 0 0 0 0 0 0 0 0 0 0 0 0 0 0 0 0 0 0 0 0 0 0 0 0 0 0 0 0 0 0 0 0 0 0 0 0 0 0 0 0 0 0 0 0 0 0 0 0 0 0 0 0 0 0 0 0 0 0 0 0 0 0 0 0 0 0 0 0 0 0 0 0 0 0 0 0 0 0 0 0 0 0 0 0 0 0 0 0 0 0 0 0 0 0 0 0 0 0 0 0 0 0 0 0 0 0 0 0 0 0 0 0 0 0 0 0 0 0 0 0 0 0 0 0 0 0 0 0 0 0 0 0 0 0 0 0 0 0 0 0 0 0 0 0 0 0 0 0 0 0 0 0 0 0 0 0 0 0 0 0 0 0 0 0 0 0 0 0 0 0 0 0 0 0 0 0 0 0 0 0 0 0 0 0 0 0 0 0 0 0 0 0 0 0 0 0 0 0 0 0 0 0 0 0 0 0 0 0 0 0 0 0 0 0 0 0 0 0 0 0 0 0 0 0 0 0 0 0 0 0 0 0 0 0 0 0 0 0 0 0 0 0 0 0 0 0 0 0 0 0 0 0 0 0 0 0 0 0 0 0 0 0 0 0 0 0 0 0 0 0 0 0 0 0 0 0 0 0 0 0 0 0 0 0 0 0 0 0 0 0 0 0 0 0 0 0 0 0 0 0 0 0 0 0 0 0 0 0 0 0 0 0 0 0 0 0 0 0 0 0 0 0 0 0 0 0 0 0 0 0 0 0 0 0 0 0 0 0 0 0 0 0 0 0 0 0 0 0 0 0 0 0 0 0 0 0 0 0 0 0 0 0 0 0 0 0 0 0 0 0 0 0 0 0 0 0 0 0 0 0 0 0 0 0 0 0 0 0 0 0 0 0 0 0 0 0 0 0 0 0 0 0 0 0 0 0 0 0 0 0 0 0 0 0 0 0 0 0 0 0 0 0 0 0 0 0 0 0 0 0 0 0 0 0 0 0 0 0 0 0 0 0 0 0 0 0 0 0 0 0 0 0 0 0 0 0 0 0 0 0 0 0 0 0 0 0 0 0 0 0 0 0 0 0 0 0 0 0 0 0 0 0 0 0 0 0 0 0 0 0 0 0 0 0 0 0 0 0 0 0 0 0 0 0 0 0 0 0 0 0 0 0 0 0 0 0 0 0 0 0 0 0 0 0 0 0 0 0 0 0 0 0 0 0 0 0 0 0 0 0 0 0 0 0 0 0 0 0 0 0 0 0 0 0 0 0 0 0 0 0 0 0 0 0 0 0 0 0 0 0 0 0 0 0 0 0 0 0 0 0 0 0 0 0 0 0 0 0 0 0 0 0 0 0 0 0 0 0 0 0.5802944 0.4197056 0.75 0.49 0 0 0 0 0.5802944 0.08029437 0 0 0 0 0.75 0.00999999 0 0 0.9197056 0.08029437 0.75 0.00999999 0 0 0 0 0.99 0.25 0 0 0 0 0.9197056 0.4197056 0 0 0.75 0.49 0.9197056 0.4197056 0 0 0.51 0.25 0.5802944 0.4197056 0 0 0 0 0 0 0 0 0 0 0 0 0 0 0 0 0 0 0 0 0 0 0 0 0 0 0 0 0 0 0 0 0 0 0 0 0 0 0 0 0 0 0 0 0 0 0 0 0 0 0 0 0 0 0 0 0 0 0 0 0 0 0 0 0 0 0 0 0 0 0 0 0 0 0 0 0 0 0 0 0 0 0 0 0 0 0 0 0 0 0 0 0 0 0 0 0 0 0 0 0 0 0 0 0 0 0 0 0 0 0 0 0 0 0 0 0 0 0 0 0 0 0 0 0 0 0 0 0 0 0 0 0 0 0 0 0 0 0 0 0 0 0 0 0 0 0 0 0 0 0 0 0 0 0 0 0 0 0 0 0 0 0 0 0 0 0 0 0 0 0 0 0 0 0 0 0 0 0 0 0 0 0 0 0 0 0 0 0 0 0 0 0 0 0 0 0 0 0 0 0 0 0 0 0 0 0 0 0 0 0 0 0 0 0 0 0 0 0 0 0 0 0 0 0 0 0 0 0 0 0 0 0 0 0 0 0 0 0 0 0 0 0 0 0 0 0 0 0 0 0 0 0 0 0 0 0 0 0 0 0 0 0 0 0 0 0 0 0 0 0 0 0 0 0 0 0 0 0 0 0 0 0 0 0 0 0 0 0 0 0 0 0 0 0 0 0 0 0 0 0 0 0 0 0 0 0 0 0 0 0 0 0 0 0 0 0 0 0 0 0 0 0 0 0 0 0 0 0 0 0 0 0 0 0 0 0 0 0 0 0 0 0 0 0 0 0 0 0 0 0 0 0 0 0 0 0 0 0 0 0 0 0 0 0 0 0 0 0 0 0 0 0 0 0 0 0 0 0 0 0 0 0 0 0 0 0 0 0 0 0 0 0 0 0 0 0 0 0 0 0 0 0 0 0 0 0 0 0 0 0 0 0 0 0 0 0 0 0 0 0 0 0 0 0 0 0 0 0 0 0 0 0 0 0 0 0 0 0 0 0 0 0 0 0 0 0 0 0 0 0 0 0 0 0 0 0 0 0 0 0 0 0 0 0 0 0 0 0 0 0 0 0 0 0 0 0 0 0 0</float_array>
          <technique_common>
            <accessor source="#Cube-mesh-map-0-array" count="690" stride="2">
              <param name="S" type="float"/>
              <param name="T" type="float"/>
            </accessor>
          </technique_common>
        </source>
        <vertices id="Cube-mesh-vertices">
          <input semantic="POSITION" source="#Cube-mesh-positions"/>
        </vertices>
        <triangles material="paintable-0-material" count="142">
          <input semantic="VERTEX" source="#Cube-mesh-vertices" offset="0"/>
          <input semantic="NORMAL" source="#Cube-mesh-normals" offset="1"/>
          <input semantic="TEXCOORD" source="#Cube-mesh-map-0" offset="2" set="0"/>
          <p>3 0 0 10 0 1 11 0 2 5 1 3 14 1 4 6 1 5 12 2 6 5 2 7 4 2 8 8 3 9 15 3 10 7 3 11 3 4 12 17 4 13 9 4 14 2 5 15 14 5 16 10 5 17 15 6 18 4 6 19 7 6 20 9 7 21 16 7 22 8 7 23 10 8 24 44 8 25 11 8 26 14 9 27 51 9 28 48 9 29 13 10 30 50 10 31 51 10 32 15 11 33 50 11 34 12 11 35 15 12 36 46 12 37 47 12 38 16 13 39 45 13 40 46 13 41 11 14 42 45 14 43 17 14 44 14 15 45 49 15 46 10 15 47 0 16 48 30 16 49 23 16 50 21 17 51 26 17 52 20 17 53 23 18 54 27 18 55 21 18 56 24 19 57 22 19 58 18 19 59 28 20 60 1 20 61 22 20 62 19 21 63 24 21 64 18 21 65 29 22 66 0 22 67 1 22 68 20 23 69 25 23 70 19 23 71 23 24 72 93 24 73 0 24 74 119 25 75 22 25 76 92 25 77 22 26 78 1 26 79 92 26 80 19 27 81 18 27 82 119 27 83 20 28 84 118 28 85 21 28 86 92 29 87 0 29 88 93 29 89 19 30 90 118 30 91 20 30 92 23 31 93 118 31 94 93 31 95 26 32 96 27 32 97 34 32 98 35 33 99 27 33 100 30 33 101 31 34 102 35 34 103 30 34 104 34 35 105 25 35 106 26 35 107 32 36 108 28 36 109 24 36 110 29 37 111 28 37 112 33 37 113 33 38 114 31 38 115 29 38 116 42 39 117 34 39 118 35 39 119 40 40 120 35 40 121 33 40 122 38 41 123 39 41 124 32 41 125 37 42 126 34 42 127 41 42 128 33 43 129 39 43 130 36 43 131 42 44 132 35 44 133 43 44 134 36 45 135 40 45 136 33 45 137 32 46 138 37 46 139 38 46 140 25 47 141 32 47 142 24 47 143 38 48 144 49 48 145 39 48 146 40 49 147 48 49 148 51 49 149 41 50 150 45 50 151 37 50 152 43 51 153 47 51 154 42 51 155 40 52 156 50 52 157 43 52 158 36 53 159 49 53 160 48 53 161 37 54 162 44 54 163 38 54 164 42 55 165 46 55 166 41 55 167 96 92 276 89 92 277 88 92 278 107 93 279 119 93 280 85 93 281 104 94 282 117 94 283 116 94 284 116 95 285 115 95 286 118 95 287 119 96 288 106 96 289 105 96 290 104 97 291 103 97 292 117 97 293 119 98 294 105 98 295 104 98 296 116 99 297 118 99 298 104 99 299 118 100 300 119 100 301 104 100 302 98 101 303 94 101 304 93 101 305 118 102 306 115 102 307 114 102 308 118 103 309 114 103 310 113 103 311 98 104 312 93 104 313 99 104 314 93 105 315 118 105 316 99 105 317 99 106 318 118 106 319 113 106 320 100 107 321 99 107 322 113 107 323 100 108 324 113 108 325 112 108 326 90 109 327 97 109 328 101 109 329 101 110 330 100 110 331 112 110 332 101 111 333 112 111 334 111 111 335 91 112 336 90 112 337 101 112 338 91 113 339 101 113 340 111 113 341 110 114 342 117 114 343 103 114 344 91 115 345 111 115 346 110 115 347 84 116 348 91 116 349 109 116 350 91 117 351 110 117 352 109 117 353 110 118 354 103 118 355 102 118 356 110 119 357 102 119 358 109 119 359 84 120 360 109 120 361 108 120 362 92 121 363 86 121 364 85 121 365 85 122 366 84 122 367 108 122 368 107 123 369 106 123 370 119 123 371 85 124 372 108 124 373 107 124 374 119 125 375 92 125 376 85 125 377 92 126 378 93 126 379 95 126 380 93 127 381 94 127 382 95 127 383 87 128 384 86 128 385 92 128 386 88 129 387 87 129 388 92 129 389 92 130 390 95 130 391 88 130 392 95 131 393 96 131 394 88 131 395 96 132 396 97 132 397 90 132 398 96 133 399 90 133 400 89 133 401 3 134 402 2 134 403 10 134 404 5 135 405 13 135 406 14 135 407 12 136 408 13 136 409 5 136 410 8 137 411 16 137 412 15 137 413 3 138 414 11 138 415 17 138 416 2 139 417 6 139 418 14 139 419 15 140 420 12 140 421 4 140 422 9 141 423 17 141 424 16 141 425 10 142 426 49 142 427 44 142 428 14 143 429 13 143 430 51 143 431 13 144 432 12 144 433 50 144 434 15 145 435 47 145 436 50 145 437 15 146 438 16 146 439 46 146 440 16 147 441 17 147 442 45 147 443 11 148 444 44 148 445 45 148 446 14 149 447 48 149 448 49 149 449 0 150 450 31 150 451 30 150 452 21 151 453 27 151 454 26 151 455 23 152 456 30 152 457 27 152 458 24 153 459 28 153 460 22 153 461 28 154 462 29 154 463 1 154 464 19 155 465 25 155 466 24 155 467 29 156 468 31 156 469 0 156 470 20 157 471 26 157 472 25 157 473 119 158 474 18 158 475 22 158 476 92 159 477 1 159 478 0 159 479 19 160 480 119 160 481 118 160 482 23 161 483 21 161 484 118 161 485 35 162 486 34 162 487 27 162 488 34 163 489 32 163 490 25 163 491 32 164 492 33 164 493 28 164 494 33 165 495 35 165 496 31 165 497 42 166 498 41 166 499 34 166 500 40 167 501 43 167 502 35 167 503 33 168 504 32 168 505 39 168 506 32 169 507 34 169 508 37 169 509 38 170 510 44 170 511 49 170 512 40 171 513 36 171 514 48 171 515 41 172 516 46 172 517 45 172 518 43 173 519 50 173 520 47 173 521 40 174 522 51 174 523 50 174 524 36 175 525 39 175 526 49 175 527 37 176 528 45 176 529 44 176 530 42 177 531 47 177 532 46 177 533</p>
        </triangles>
        <triangles material="darkgrey-material" count="88">
          <input semantic="VERTEX" source="#Cube-mesh-vertices" offset="0"/>
          <input semantic="NORMAL" source="#Cube-mesh-normals" offset="1"/>
          <input semantic="TEXCOORD" source="#Cube-mesh-map-0" offset="2" set="0"/>
          <p>58 56 168 56 56 169 54 56 170 53 57 171 106 57 172 107 57 173 58 58 174 109 58 175 102 58 176 104 59 177 57 59 178 103 59 179 52 60 180 107 60 181 108 60 182 59 61 183 108 61 184 109 61 185 57 62 186 102 62 187 103 62 188 105 63 189 56 63 190 104 63 191 66 64 192 64 64 193 62 64 194 61 65 195 117 65 196 110 65 197 66 66 198 112 66 199 113 66 200 115 67 201 65 67 202 114 67 203 117 68 204 63 68 205 116 68 206 60 69 207 110 69 208 111 69 209 67 70 210 111 70 211 112 70 212 65 71 213 113 71 214 114 71 215 116 72 216 64 72 217 115 72 218 74 73 219 72 73 220 70 73 221 69 74 222 85 74 223 86 74 224 74 75 225 88 75 226 89 75 227 91 76 228 73 76 229 90 76 230 85 77 231 71 77 232 84 77 233 68 78 234 86 78 235 87 78 236 75 79 237 87 79 238 88 79 239 73 80 240 89 80 241 90 80 242 84 81 243 72 81 244 91 81 245 82 82 246 80 82 247 78 82 248 77 83 249 97 83 250 96 83 251 100 84 252 81 84 253 99 84 254 97 85 255 79 85 256 101 85 257 76 86 258 96 86 259 95 86 260 83 87 261 95 87 262 94 87 263 81 88 264 98 88 265 99 88 266 101 89 267 80 89 268 100 89 269 106 90 270 55 90 271 105 90 272 94 91 273 82 91 274 83 91 275 54 178 534 53 178 535 58 178 536 53 179 537 52 179 538 58 179 539 52 180 540 59 180 541 58 180 542 58 181 543 57 181 544 56 181 545 56 182 546 55 182 547 54 182 548 53 183 549 54 183 550 106 183 551 58 184 552 59 184 553 109 184 554 104 185 555 56 185 556 57 185 557 52 186 558 53 186 559 107 186 560 59 187 561 52 187 562 108 187 563 57 188 564 58 188 565 102 188 566 105 189 567 55 189 568 56 189 569 62 190 570 61 190 571 66 190 572 61 191 573 60 191 574 66 191 575 60 192 576 67 192 577 66 192 578 66 193 579 65 193 580 64 193 581 64 194 582 63 194 583 62 194 584 61 195 585 62 195 586 117 195 587 66 196 588 67 196 589 112 196 590 115 197 591 64 197 592 65 197 593 117 198 594 62 198 595 63 198 596 60 199 597 61 199 598 110 199 599 67 200 600 60 200 601 111 200 602 65 201 603 66 201 604 113 201 605 116 202 606 63 202 607 64 202 608 70 203 609 69 203 610 68 203 611 68 204 612 75 204 613 70 204 614 75 205 615 74 205 616 70 205 617 74 206 618 73 206 619 72 206 620 72 207 621 71 207 622 70 207 623 69 208 624 70 208 625 85 208 626 74 209 627 75 209 628 88 209 629 91 210 630 72 210 631 73 210 632 85 211 633 70 211 634 71 211 635 68 212 636 69 212 637 86 212 638 75 213 639 68 213 640 87 213 641 73 214 642 74 214 643 89 214 644 84 215 645 71 215 646 72 215 647 78 216 648 77 216 649 76 216 650 76 217 651 83 217 652 78 217 653 83 218 654 82 218 655 78 218 656 82 219 657 81 219 658 80 219 659 80 220 660 79 220 661 78 220 662 77 221 663 78 221 664 97 221 665 100 222 666 80 222 667 81 222 668 97 223 669 78 223 670 79 223 671 76 224 672 77 224 673 96 224 674 83 225 675 76 225 676 95 225 677 81 226 678 82 226 679 98 226 680 101 227 681 79 227 682 80 227 683 106 228 684 54 228 685 55 228 686 94 229 687 98 229 688 82 229 689</p>
        </triangles>
      </mesh>
    </geometry>
  </library_geometries>
  <library_visual_scenes>
    <visual_scene id="Scene" name="Scene">
      <node id="Cube" name="Cube" type="NODE">
        <matrix sid="transform">1 0 0 0 0 1 0 0 0 0 1 0 0 0 0 1</matrix>
        <instance_geometry url="#Cube-mesh" name="Cube">
          <bind_material>
            <technique_common>
              <instance_material symbol="paintable-0-material" target="#paintable-0-material">
                <bind_vertex_input semantic="UVMap" input_semantic="TEXCOORD" input_set="0"/>
              </instance_material>
              <instance_material symbol="paintable-1-material" target="#paintable-1-material">
                <bind_vertex_input semantic="UVMap" input_semantic="TEXCOORD" input_set="0"/>
              </instance_material>
              <instance_material symbol="lightgrey-material" target="#lightgrey-material">
                <bind_vertex_input semantic="UVMap" input_semantic="TEXCOORD" input_set="0"/>
              </instance_material>
              <instance_material symbol="darkgrey-material" target="#darkgrey-material">
                <bind_vertex_input semantic="UVMap" input_semantic="TEXCOORD" input_set="0"/>
              </instance_material>
              <instance_material symbol="Material-material" target="#Material-material">
                <bind_vertex_input semantic="UVMap" input_semantic="TEXCOORD" input_set="0"/>
              </instance_material>
            </technique_common>
          </bind_material>
        </instance_geometry>
      </node>
    </visual_scene>
  </library_visual_scenes>
  <scene>
    <instance_visual_scene url="#Scene"/>
  </scene>
</COLLADA>