<?xml version="1.0" encoding="utf-8"?>
<COLLADA xmlns="http://www.collada.org/2005/11/COLLADASchema" version="1.4.1" xmlns:xsi="http://www.w3.org/2001/XMLSchema-instance">
  <asset>
    <contributor>
      <author>Blender User</author>
      <authoring_tool>Blender 4.2.23 LTS commit date:2026-07-20, commit time:13:44, hash:d0cbe84903e8</authoring_tool>
    </contributor>
    <created>2026-08-11T15:38:00</created>
    <modified>2026-08-11T15:38:00</modified>
    <unit name="meter" meter="1"/>
    <up_axis>Z_UP</up_axis>
  </asset>
  <library_effects>
    <effect id="paintable-0_002-effect">
      <profile_COMMON>
        <technique sid="common">
          <lambert>
            <emission>
              <color sid="emission">0 0 0 1</color>
            </emission>
            <diffuse>
              <color sid="diffuse">1 0.4969335 0 1</color>
            </diffuse>
            <index_of_refraction>
              <float sid="ior">1.45</float>
            </index_of_refraction>
          </lambert>
        </technique>
      </profile_COMMON>
    </effect>
    <effect id="paintable-1_002-effect">
      <profile_COMMON>
        <technique sid="common">
          <lambert>
            <emission>
              <color sid="emission">0 0 0 1</color>
            </emission>
            <diffuse>
              <color sid="diffuse">0.6104922 0.4910214 0 1</color>
            </diffuse>
            <index_of_refraction>
              <float sid="ior">1.5</float>
            </index_of_refraction>
          </lambert>
        </technique>
      </profile_COMMON>
    </effect>
    <effect id="lightgray_002-effect">
      <profile_COMMON>
        <technique sid="common">
          <lambert>
            <emission>
              <color sid="emission">0 0 0 1</color>
            </emission>
            <diffuse>
              <color sid="diffuse">0.7835327 0.7835385 0.7835382 1</color>
            </diffuse>
            <index_of_refraction>
              <float sid="ior">1.5</float>
            </index_of_refraction>
          </lambert>
        </technique>
      </profile_COMMON>
    </effect>
    <effect id="paintable-0-effect">
      <profile_COMMON>
        <technique sid="common">
          <lambert>
            <emission>
              <color sid="emission">0 0 0 1</color>
            </emission>
            <diffuse>
              <color sid="diffuse">1 0.4969335 0 1</color>
            </diffuse>
            <index_of_refraction>
              <float sid="ior">1.45</float>
            </index_of_refraction>
          </lambert>
        </technique>
      </profile_COMMON>
    </effect>
    <effect id="paintable-1-effect">
      <profile_COMMON>
        <technique sid="common">
          <lambert>
            <emission>
              <color sid="emission">0 0 0 1</color>
            </emission>
            <diffuse>
              <color sid="diffuse">0.6104922 0.4910214 0 1</color>
            </diffuse>
            <index_of_refraction>
              <float sid="ior">1.5</float>
            </index_of_refraction>
          </lambert>
        </technique>
      </profile_COMMON>
    </effect>
    <effect id="lightgray-effect">
      <profile_COMMON>
        <technique sid="common">
          <lambert>
            <emission>
              <color sid="emission">0 0 0 1</color>
            </emission>
            <diffuse>
              <color sid="diffuse">0.7835327 0.7835385 0.7835382 1</color>
            </diffuse>
            <index_of_refraction>
              <float sid="ior">1.5</float>
            </index_of_refraction>
          </lambert>
        </technique>
      </profile_COMMON>
    </effect>
    <effect id="paintable-0_001-effect">
      <profile_COMMON>
        <technique sid="common">
          <lambert>
            <emission>
              <color sid="emission">0 0 0 1</color>
            </emission>
            <diffuse>
              <color sid="diffuse">1 0.4969335 0 1</color>
            </diffuse>
            <index_of_refraction>
              <float sid="ior">1.45</float>
            </index_of_refraction>
          </lambert>
        </technique>
      </profile_COMMON>
    </effect>
    <effect id="paintable-1_001-effect">
      <profile_COMMON>
        <technique sid="common">
          <lambert>
            <emission>
              <color sid="emission">0 0 0 1</color>
            </emission>
            <diffuse>
              <color sid="diffuse">0.6104922 0.4910214 0 1</color>
            </diffuse>
            <index_of_refraction>
              <float sid="ior">1.5</float>
            </index_of_refraction>
          </lambert>
        </technique>
      </profile_COMMON>
    </effect>
    <effect id="lightgray_001-effect">
      <profile_COMMON>
        <technique sid="common">
          <lambert>
            <emission>
              <color sid="emission">0 0 0 1</color>
            </emission>
            <diffuse>
              <color sid="diffuse">0.7835327 0.7835385 0.7835382 1</color>
            </diffuse>
            <index_of_refraction>
              <float sid="ior">1.5</float>
            </index_of_refraction>
          </lambert>
        </technique>
      </profile_COMMON>
    </effect>
  </library_effects>
  <library_images/>
  <library_materials>
    <material id="paintable-0_002-material" name="paintable-0.002">
      <instance_effect url="#paintable-0_002-effect"/>
    </material>
    <material id="paintable-1_002-material" name="paintable-1.002">
      <instance_effect url="#paintable-1_002-effect"/>
    </material>
    <material id="lightgray_002-material" name="lightgray.002">
      <instance_effect url="#lightgray_002-effect"/>
    </material>
    <material id="paintable-0-material" name="paintable-0">
      <instance_effect url="#paintable-0-effect"/>
    </material>
    <material id="paintable-1-material" name="paintable-1">
      <instance_effect url="#paintable-1-effect"/>
    </material>
    <material id="lightgray-material" name="lightgray">
      <instance_effect url="#lightgray-effect"/>
    </material>
    <material id="paintable-0_001-material" name="paintable-0.001">
      <instance_effect url="#paintable-0_001-effect"/>
    </material>
    <material id="paintable-1_001-material" name="paintable-1.001">
      <instance_effect url="#paintable-1_001-effect"/>
    </material>
    <material id="lightgray_001-material" name="lightgray.001">
      <instance_effect url="#lightgray_001-effect"/>
    </material>
  </library_materials>
  <library_geometries>
    <geometry id="Cube_002-mesh" name="Cube.002">
      <mesh>
        <source id="Cube_002-mesh-positions">
          <float_array id="Cube_002-mesh-positions-array" count="336">0.3249999 0.355 -0.08499974 0.355 0.3250001 -0.08499979 0.355 -0.3249999 -0.08499979 0.3249999 -0.355 -0.08499979 -0.3549998 0.3250001 -0.08499979 -0.3249999 0.355 -0.08499974 -0.3249999 -0.355 -0.08499979 -0.3549998 -0.3249999 -0.08499979 0.305 0.275 -0.1249999 0.2749999 0.305 -0.1249999 0.305 -0.2749999 -0.1249999 0.2749999 -0.305 -0.125 -0.2749999 -0.305 -0.125 -0.3049998 -0.2749999 -0.1249999 -0.3049998 0.275 -0.1249999 -0.2749999 0.305 -0.1249999 0.02071064 -0.04999995 -0.1249999 0.1035534 -0.25 -0.0949999 -0.02071058 -0.04999995 -0.1249999 -0.1035533 -0.25 -0.0949999 -0.04999995 -0.02071064 -0.1249999 -0.2499999 -0.1035534 -0.0949999 -0.04999995 0.02071064 -0.1249999 -0.2499999 0.1035534 -0.0949999 -0.02071058 0.05000001 -0.1249999 -0.1035533 0.25 -0.0949999 0.02071064 0.05000001 -0.1249999 0.1035534 0.25 -0.0949999 0.05000001 0.02071064 -0.1249999 0.25 0.1035534 -0.0949999 0.05000001 -0.02071064 -0.1249999 0.25 -0.1035533 -0.0949999 0.1035534 -0.25 -0.1249999 -0.1035533 -0.25 -0.1249999 -0.2499999 -0.1035534 -0.1249999 -0.2499999 0.1035534 -0.1249999 -0.1035533 0.25 -0.1249999 0.1035534 0.25 -0.1249999 0.25 0.1035534 -0.1249999 0.25 -0.1035533 -0.1249999 0.0828427 -0.1999999 -0.1249999 -0.08284264 -0.1999999 -0.1249999 -0.1999999 -0.0828427 -0.1249999 -0.1999999 0.0828427 -0.1249999 -0.08284264 0.1999999 -0.1249999 0.0828427 0.1999999 -0.1249999 0.2 0.0828427 -0.1249999 0.2 -0.0828427 -0.1249999 0.0828427 -0.1999999 -0.0949999 -0.08284264 -0.1999999 -0.0949999 -0.1999999 -0.0828427 -0.0949999 -0.1999999 0.0828427 -0.0949999 -0.08284264 0.1999999 -0.0949999 0.0828427 0.1999999 -0.0949999 0.2 0.0828427 -0.0949999 0.2 -0.0828427 -0.0949999 0.02071064 -0.04999995 -0.0949999 -0.02071058 -0.04999995 -0.0949999 -0.04999995 -0.02071064 -0.0949999 -0.04999995 0.02071064 -0.0949999 -0.02071064 0.05000001 -0.0949999 0.02071064 0.05000001 -0.0949999 0.05000001 0.02071064 -0.0949999 0.05000001 -0.02071064 -0.0949999 0.355 0.325 -0.1249999 0.3249999 0.355 -0.1249999 0.3249999 -0.355 -0.125 0.355 -0.3249999 -0.1249999 -0.3249999 -0.355 -0.125 -0.3549998 -0.3249999 -0.1249999 -0.3249999 0.355 -0.1249999 -0.3549998 0.325 -0.1249999 0.305 0.275 -0.0949999 0.2749999 0.305 -0.0949999 0.305 -0.2749999 -0.0949999 0.2749999 -0.305 -0.09499984 -0.2749999 -0.305 -0.09499984 -0.3049998 -0.2749999 -0.0949999 -0.3049998 0.275 -0.0949999 -0.2749999 0.305 -0.0949999 -0.1553301 0.375 -0.08499974 -0.1553301 0.375 0.125 0.15533 0.375 -0.08499974 0.15533 0.375 0.125 0.375 0.1553301 -0.08499974 0.375 0.1553301 0.125 0.375 -0.15533 -0.08499974 0.375 -0.15533 0.125 0.1553301 -0.375 -0.08499974 0.1553301 -0.375 0.125 -0.15533 -0.375 -0.08499974 -0.15533 -0.375 0.125 -0.375 -0.1553301 -0.08499974 -0.375 -0.1553301 0.125 -0.375 0.15533 -0.08499974 -0.375 0.15533 0.125 -0.1753301 -0.355 -0.08499974 -0.3549998 -0.1753302 -0.08499974 0.355 -0.17533 -0.08499974 0.1753301 -0.355 -0.08499974 -0.3549998 0.1753302 -0.08499974 -0.1753301 0.355 -0.08499974 0.17533 0.355 -0.08499974 0.355 0.1753301 -0.08499974 0.0625 0.02588832 0.125 -0.0625 0.02588832 0.125 0.02588832 0.0625 0.125 -0.02588832 0.0625 0.125 -0.0625 -0.02588832 0.125 -0.02588832 -0.0625 0.125 0.02588832 -0.0625 0.125 0.0625 -0.02588832 0.125</float_array>
          <technique_common>
            <accessor source="#Cube_002-mesh-positions-array" count="112" stride="3">
              <param name="X" type="float"/>
              <param name="Y" type="float"/>
              <param name="Z" type="float"/>
            </accessor>
          </technique_common>
        </source>
        <source id="Cube_002-mesh-normals">
          <float_array id="Cube_002-mesh-normals-array" count="642">0.7071061 -0.7071075 0 0.7071064 0.7071072 -1.05367e-6 0 1 0 0 0 -1 -0.7071078 0.7071058 0 -0.7071082 -0.7071053 0 -1 0 0 0 -1 0 0.7071086 -0.7071051 0 0 -1 4.96705e-7 -0.7071067 -0.7071069 2.99788e-7 -1 0 0 -0.7071069 0.7071067 -5.99576e-7 0 1 0 0.7071068 0.7071068 0 1 0 0 0.707107 -0.7071067 3.51223e-7 0 0 -1 0 0 -1 0 0 -1 0 0 -1 0 0 -1 0 0 -1 0 0 -1 0 0 -1 0 0 -1 -1 0 0 0.7071068 -0.7071068 0 -0.7071066 -0.7071069 0 1 0 0 0 -1 0 0.7071068 0.7071068 0 0.7071071 -0.7071065 0 0 1 0 0 0 -1 0 0 -1 0 0 -1 0 0 -1 0 0 -1 0 0 -1 0 0 -1 0 0 -1 0 -1 0 -0.7071071 0.7071065 0 -0.7071068 -0.7071068 0 0 1 0 -1 0 0 0.7071068 0.7071067 0 -0.7071068 0.7071068 0 1 -3.59746e-7 0 1 0 0 4.96705e-7 4.96705e-7 -1 -4.96705e-7 4.96705e-7 -1 0 0 -1 0 0 -1 1.98682e-7 7.94728e-7 -1 -4.96706e-7 4.96706e-7 -1 0 5.96046e-7 -1 -0.7071061 0.7071075 0 0.7071082 0.7071053 0 -0.7071064 -0.7071071 0 1 0 0 -1 0 0 0 -1 0 0 1 0 0 0 -1 0 -5.41861e-7 -1 1.31609e-7 -1.31609e-7 -1 0 0 -1 0 0 -1 0 0 -1 0 0 -1 0 0 -1 0 1 0 0.7071067 0.7071068 0 1 0 0 0.7071069 -0.7071067 0 0 -1 0 -0.7071067 -0.7071068 0 -1 0 0 -0.7071068 0.7071067 0 0 -9.93412e-7 1 0 0 1 0 0 1 3.98241e-7 -1.39165e-6 1 0 0 -1 0 0 1 0 0 1 7.94293e-7 -1.99121e-7 1 0 0 -1 0 0 1 0 0 -1 0 0 1 0 0 1 0 0 -1 1.19253e-6 1.9912e-7 1 0 0 1 0.7071061 -0.7071075 0 0.7071057 0.7071079 0 0 1 0 0 1 0 0 1 0 0 0 -1 -0.7071086 0.707105 -1.05367e-6 -0.7071081 -0.7071053 0 -1 0 0 -1 0 0 -1 0 0 0 -1 0 0 -1 0 0 -1 0 0.7071086 -0.7071051 0 0 -1 4.96705e-7 -0.7071067 -0.7071068 7.02447e-7 -1 0 0 -0.7071068 0.7071068 0 0 1 0 0.7071068 0.7071068 0 1 0 0 0.7071069 -0.7071067 0 0 0 -1 0 0 -1 0 0 -1 0 0 -1 0 0 -1 0 0 -1 0 0 -1 0 0 -1 0 0 -1 0 0 -1 0 0 -1 0 0 -1 0 0 -1 -1 0 0 0.7071068 -0.7071068 0 -0.7071067 -0.7071069 0 1 0 0 0 -1 0 0.7071068 0.7071068 0 0.7071071 -0.7071065 0 0 1 0 0 0 -1 0 0 -1 0 0 -1 0 0 -1 0 0 -1 0 0 -1 0 0 -1 0 0 -1 0 -1 0 -0.7071071 0.7071065 0 -0.7071068 -0.7071068 0 0 1 0 -1 0 0 0.7071068 0.7071068 0 -0.7071068 0.7071068 0 1 -3.59746e-7 0 1 0 0 1 0 0 1 0 0 4.96705e-7 4.96705e-7 -1 2.98023e-7 2.98023e-7 -1 0 0 -1 0 0 -1 0 0 -1 -4.96706e-7 4.96706e-7 -1 0 5.96046e-7 -1 -0.7071061 0.7071075 0 0.7071082 0.7071053 0 -0.7071064 -0.7071071 0 1 0 0 -1 0 0 0 -1 0 0 1 0 0 -8.83737e-7 -1 0 -5.41861e-7 -1 -7.52127e-7 -2.41282e-7 -1 0 0 -1 0 0 -1 0 0 -1 0 0 -1 0 0 -1 0 1 0 0.7071068 0.7071068 0 0.7071068 0.7071068 0 0.7071068 0.7071068 0 1 0 0 0.7071068 -0.7071068 0 0.7071068 -0.7071068 0 0.7071065 -0.7071071 0 0 -1 0 -0.7071068 -0.7071068 0 -0.7071068 -0.7071068 0 -0.7071065 -0.7071071 0 -1 0 0 -0.7071068 0.7071068 0 -0.7071068 0.7071068 0 -0.7071068 0.7071068 0 -1.9912e-7 1.9912e-7 1 0 0 1 0 0 1 1.9912e-7 -1.9912e-7 1 0 0 -1 0 0 1 0 0 1 -3.98241e-7 -3.98241e-7 1 0 0 -1 0 0 1 0 0 -1 0 0 1 0 0 1 0 0 -1 0 0 1 0 0 1</float_array>
          <technique_common>
            <accessor source="#Cube_002-mesh-normals-array" count="214" stride="3">
              <param name="X" type="float"/>
              <param name="Y" type="float"/>
              <param name="Z" type="float"/>
            </accessor>
          </technique_common>
        </source>
        <source id="Cube_002-mesh-map-0">
          <float_array id="Cube_002-mesh-map-0-array" count="1284">0.625 0.1666666 0.5416666 0.25 0.5416666 0.1666666 0.2083332 0.5 0.125 0.5833333 0.125 0.5 0.2083333 0.75 0.210124 0.6477034 0.210124 0.6022966 0.2799742 0.4329368 0.5416666 0.25 0.5739722 0.3063209 0.2083333 0.75 0.125 0.6666666 0.2083332 0.6666666 0.625 0.08333331 0.5416666 0 0.625 0 0.5217277 0.08333331 0.4782723 0.08333331 0.4583333 0 0.789876 0.6022965 0.789876 0.6477033 0.7916666 0.75 0.3553084 0.378188 0.3579229 0.3703945 0.3579229 0.3703945 1 1 0.875 0.5 1 0.5 0.875 1 0.75 0.5 0.875 0.5 0.75 1 0.625 0.5 0.75 0.5 0.625 1 0.5 0.5 0.625 0.5 0.5 1 0.375 0.5 0.5 0.5 0.375 1 0.25 0.5 0.375 0.5 0.25 1 0.125 0.5 0.25 0.5 0.125 0.5 0 1 0 0.5 0.7839411 0.2160589 0.7160589 0.2160589 0.7160589 0.2839412 0.7500001 0.442 0.9197056 0.4197056 0.8857645 0.3857645 0.8857645 0.3857645 0.99 0.25 0.9420001 0.25 0.9420001 0.25 0.9197056 0.08029437 0.8857645 0.1142355 0.75 0.05799996 0.9197056 0.08029437 0.75 0.00999999 0.75 0.05799996 0.5802944 0.08029437 0.6142354 0.1142355 0.6142354 0.1142355 0.51 0.25 0.558 0.25 0.558 0.25 0.5802944 0.4197056 0.6142355 0.3857645 0.6142355 0.3857645 0.75 0.49 0.7500001 0.442 0.798 0.25 0.7839411 0.2160589 0.7839411 0.2160589 0.75 0.05799996 0.8857645 0.1142355 0.8857645 0.1142355 0.783941 0.2839411 0.798 0.25 0.798 0.25 0.8857645 0.1142355 0.9420001 0.25 0.9420001 0.25 0.783941 0.2839411 0.75 0.298 0.783941 0.2839411 0.9420001 0.25 0.8857645 0.3857645 0.8857645 0.3857645 0.7160589 0.2839412 0.75 0.298 0.75 0.298 0.8857645 0.3857645 0.7500001 0.442 0.7500001 0.442 0.75 0.298 0.8857645 0.3857645 0.783941 0.2839411 0.783941 0.2839411 0.9420001 0.25 0.798 0.25 0.798 0.25 0.8857645 0.1142355 0.7839411 0.2160589 0.75 0.202 0.8857645 0.1142355 0.75 0.05799996 0.75 0.202 0.6142354 0.1142355 0.7160589 0.2160589 0.7160589 0.2160589 0.558 0.25 0.702 0.25 0.7160589 0.2839412 0.558 0.25 0.6142355 0.3857645 0.75 0.298 0.6142355 0.3857645 0.7500001 0.442 0.6142354 0.1142355 0.75 0.05799996 0.75 0.05799996 0.7839411 0.2160589 0.75 0.202 0.75 0.202 0.558 0.25 0.6142354 0.1142355 0.6142354 0.1142355 0.75 0.202 0.7160589 0.2160589 0.7160589 0.2160589 0.6142355 0.3857645 0.558 0.25 0.558 0.25 0.7160589 0.2160589 0.702 0.25 0.702 0.25 0.7500001 0.442 0.6142355 0.3857645 0.6142355 0.3857645 0.702 0.25 0.7160589 0.2839412 0.7160589 0.2839412 0.5416666 0.25 0.4583333 0.25 0.4782723 0.1666666 0.602806 0.3169239 0.625 0.25 0.6048047 0.3186272 0.2799742 0.4329368 0.2083333 0.5 0.125 0.5 0.6048047 0.3186272 0.7916666 0.75 0.6753306 0.4920897 0.6412094 0.3702481 0.4583333 0 0.405023 0.2524518 0.3553084 0.378188 0.4583333 0 0.2083333 0.75 0.6438232 0.378041 0.5416666 0 0.6412094 0.3702481 0.3553084 0.378188 0.2083333 0.5 0.2838775 0.4491374 0.6048047 0.3186272 0.602806 0.3169239 0.602806 0.3169239 0.6412094 0.3702481 0.6438232 0.378041 0.6438232 0.378041 0.2799742 0.4329368 0.2785913 0.4346407 0.2785913 0.4346407 0.405023 0.2524518 0.5938785 0.2522701 0.5938785 0.2522701 0.5739722 0.3063209 0.3504641 0.3769644 0.3504641 0.3769644 0.2838775 0.4491374 0.3235254 0.4923088 0.3235254 0.4923088 0.6753306 0.4920897 0.6480047 0.3784566 0.6480047 0.3784566 0.875 1 0.5938785 0.2522701 0.75 1 0.875 1 0.6480047 0.3784566 0.6753306 0.4920897 0.125 1 0.6480047 0.3784566 1 1 0.3504641 0.3769644 0.125 1 0.25 1 0.2838775 0.4491374 0.25 1 0.375 1 0.5 1 0.2838775 0.4491374 0.375 1 0.5 1 0.405023 0.2524518 0.3235254 0.4923088 0.5938785 0.2522701 0.625 1 0.75 1 1 1 0.875 0.5 1 0.5 0.7613807 0.5 0.8636193 0.5 0.875 1 0.75 1 0.625 0.5 0.75 0.5 0.5113807 0.5 0.6136193 0.5 0.625 1 0.5 1 0.375 0.5 0.5 0.5 0.2613808 0.5 0.3636193 0.5 0.375 1 0.25 1 0.125 0.5 0.25 0.5 0.01138067 0.5 0.1136192 0.5 0.125 1 0.4583333 0.08333331 0.210124 0.6477034 0.2083333 0.6666666 0.4197056 0.08029437 0.25 0.21 0.25 0.00999999 0.21 0.25 0.08029437 0.4197056 0.00999999 0.25 0.5416666 0.1666666 0.789876 0.6022965 0.7916666 0.5833333 0.125 0.5 0.2613808 0.5 0.25 0.5 0.25 0.29 0.08029437 0.4197056 0.2217157 0.2782843 0.2782843 0.2782843 0.49 0.25 0.4197056 0.4197056 0.7916667 0.6666666 0.5217277 0.08333331 0.5416666 0.08333331 0.210124 0.6022966 1 0.5 0.875 0.5 0.29 0.25 0.4197056 0.08029437 0.49 0.25 0.5217276 0.1666666 0.75 0.5 0.625 0.5 0.2217157 0.2217157 0.00999999 0.25 0.08029437 0.08029437 0.25 0.21 0.08029437 0.08029437 0.25 0.00999999 0.789876 0.6477033 0.5 0.5 0.375 0.5 0.2083333 0.5833333 0.4782723 0.1666666 0.4583333 0.1666666 0.25 0.29 0.4197056 0.4197056 0.25 0.49 0.625 0.1666666 0.625 0.25 0.5416666 0.25 0.2083332 0.5 0.2083333 0.5833333 0.125 0.5833333 0.2083333 0.5833333 0.2083333 0.5 0.210124 0.6022966 0.2083333 0.5 0.2083333 0.75 0.210124 0.6022966 0.2083333 0.75 0.2083333 0.6666666 0.210124 0.6477034 0.2799742 0.4329368 0.125 0.5 0.5416666 0.25 0.2083333 0.75 0.125 0.75 0.125 0.6666666 0.625 0.08333331 0.5416666 0.08333331 0.5416666 0 0.4583333 0.08333331 0.4583333 0 0.4782723 0.08333331 0.4583333 0 0.5416666 0 0.5217277 0.08333331 0.5416666 0 0.5416666 0.08333331 0.5217277 0.08333331 0.7916667 0.6666666 0.7916666 0.75 0.789876 0.6477033 0.7916666 0.75 0.7916666 0.5 0.789876 0.6022965 0.7916666 0.5 0.7916666 0.5833333 0.789876 0.6022965 0.3553084 0.378188 0.3553084 0.378188 0.3579229 0.3703945 1 1 0.875 1 0.875 0.5 0.875 1 0.75 1 0.75 0.5 0.75 1 0.625 1 0.625 0.5 0.625 1 0.5 1 0.5 0.5 0.5 1 0.375 1 0.375 0.5 0.375 1 0.25 1 0.25 0.5 0.25 1 0.125 1 0.125 0.5 0.125 0.5 0.125 1 0 1 0.7160589 0.2839412 0.75 0.298 0.783941 0.2839411 0.783941 0.2839411 0.798 0.25 0.7839411 0.2160589 0.7839411 0.2160589 0.75 0.202 0.7160589 0.2160589 0.7160589 0.2160589 0.702 0.25 0.7160589 0.2839412 0.7160589 0.2839412 0.783941 0.2839411 0.7839411 0.2160589 0.7500001 0.442 0.75 0.49 0.9197056 0.4197056 0.8857645 0.3857645 0.9197056 0.4197056 0.99 0.25 0.9420001 0.25 0.99 0.25 0.9197056 0.08029437 0.75 0.05799996 0.8857645 0.1142355 0.9197056 0.08029437 0.75 0.05799996 0.75 0.00999999 0.5802944 0.08029437 0.6142354 0.1142355 0.5802944 0.08029437 0.51 0.25 0.558 0.25 0.51 0.25 0.5802944 0.4197056 0.6142355 0.3857645 0.5802944 0.4197056 0.75 0.49 0.798 0.25 0.798 0.25 0.7839411 0.2160589 0.75 0.05799996 0.75 0.05799996 0.8857645 0.1142355 0.783941 0.2839411 0.783941 0.2839411 0.798 0.25 0.8857645 0.1142355 0.8857645 0.1142355 0.9420001 0.25 0.783941 0.2839411 0.75 0.298 0.75 0.298 0.9420001 0.25 0.9420001 0.25 0.8857645 0.3857645 0.7160589 0.2839412 0.7160589 0.2839412 0.75 0.298 0.8857645 0.3857645 0.8857645 0.3857645 0.7500001 0.442 0.75 0.298 0.7500001 0.442 0.8857645 0.3857645 0.783941 0.2839411 0.8857645 0.3857645 0.9420001 0.25 0.798 0.25 0.9420001 0.25 0.8857645 0.1142355 0.75 0.202 0.7839411 0.2160589 0.8857645 0.1142355 0.75 0.202 0.75 0.05799996 0.6142354 0.1142355 0.7160589 0.2160589 0.6142354 0.1142355 0.558 0.25 0.7160589 0.2839412 0.702 0.25 0.558 0.25 0.75 0.298 0.7160589 0.2839412 0.6142355 0.3857645 0.6142354 0.1142355 0.6142354 0.1142355 0.75 0.05799996 0.7839411 0.2160589 0.7839411 0.2160589 0.75 0.202 0.558 0.25 0.558 0.25 0.6142354 0.1142355 0.75 0.202 0.75 0.202 0.7160589 0.2160589 0.6142355 0.3857645 0.6142355 0.3857645 0.558 0.25 0.7160589 0.2160589 0.7160589 0.2160589 0.702 0.25 0.7500001 0.442 0.7500001 0.442 0.6142355 0.3857645 0.702 0.25 0.702 0.25 0.7160589 0.2839412 0.4583333 0.25 0.4583333 0.1666666 0.4782723 0.1666666 0.4782723 0.1666666 0.5217276 0.1666666 0.5416666 0.25 0.5217276 0.1666666 0.5416666 0.1666666 0.5416666 0.25 0.602806 0.3169239 0.5416666 0.25 0.625 0.25 0.2799742 0.4329368 0.2785913 0.4346407 0.2083333 0.5 0.6048047 0.3186272 0.625 0.25 0.7916666 0.75 0.6412094 0.3702481 0.5416666 0 0.4583333 0 0.3553084 0.378188 0.3579229 0.3703945 0.4583333 0 0.6438232 0.378041 0.7916666 0.75 0.5416666 0 0.3553084 0.378188 0.2083333 0.75 0.2083333 0.5 0.6048047 0.3186272 0.6048047 0.3186272 0.602806 0.3169239 0.6412094 0.3702481 0.6412094 0.3702481 0.6438232 0.378041 0.2799742 0.4329368 0.2799742 0.4329368 0.2785913 0.4346407 0.405023 0.2524518 0.405023 0.2524518 0.5938785 0.2522701 0.5739722 0.3063209 0.5739722 0.3063209 0.3504641 0.3769644 0.2838775 0.4491374 0.2838775 0.4491374 0.3235254 0.4923088 0.6753306 0.4920897 0.6753306 0.4920897 0.6480047 0.3784566 0.875 1 0.6753306 0.4920897 0.5938785 0.2522701 0.875 1 1 1 0.6480047 0.3784566 0.125 1 0.5739722 0.3063209 0.6480047 0.3784566 0.3504641 0.3769644 0.5739722 0.3063209 0.125 1 0.2838775 0.4491374 0.3504641 0.3769644 0.25 1 0.5 1 0.3235254 0.4923088 0.2838775 0.4491374 0.5 1 0.625 1 0.405023 0.2524518 0.5938785 0.2522701 0.405023 0.2524518 0.625 1 1 1 0.875 1 0.875 0.5 0.8636193 0.5 0.875 0.5 0.875 1 0.875 1 0.75 1 0.7613807 0.5 0.75 1 0.75 0.5 0.7613807 0.5 0.75 1 0.625 1 0.625 0.5 0.6136193 0.5 0.625 0.5 0.625 1 0.625 1 0.5 1 0.5113807 0.5 0.5 1 0.5 0.5 0.5113807 0.5 0.5 1 0.375 1 0.375 0.5 0.3636193 0.5 0.375 0.5 0.375 1 0.375 1 0.25 1 0.2613808 0.5 0.25 1 0.25 0.5 0.2613808 0.5 0.25 1 0.125 1 0.125 0.5 0.1136192 0.5 0.125 0.5 0.125 1 0.125 1 0 1 0.01138067 0.5 0 1 0 0.5 0.01138067 0.5 0.4583333 0.08333331 0.1136192 0.5 0.210124 0.6477034 0.4197056 0.08029437 0.2782843 0.2217157 0.25 0.21 0.21 0.25 0.2217157 0.2782843 0.08029437 0.4197056 0.5416666 0.1666666 0.6136193 0.5 0.789876 0.6022965 0.125 0.5 0.4782723 0.08333331 0.2613808 0.5 0.25 0.29 0.25 0.49 0.08029437 0.4197056 0.2782843 0.2782843 0.29 0.25 0.49 0.25 0.7916667 0.6666666 0.3636193 0.5 0.5217277 0.08333331 0.210124 0.6022966 0.01138067 0.5 1 0.5 0.29 0.25 0.2782843 0.2217157 0.4197056 0.08029437 0.5217276 0.1666666 0.7613807 0.5 0.75 0.5 0.2217157 0.2217157 0.21 0.25 0.00999999 0.25 0.25 0.21 0.2217157 0.2217157 0.08029437 0.08029437 0.789876 0.6477033 0.5113807 0.5 0.5 0.5 0.2083333 0.5833333 0.8636193 0.5 0.4782723 0.1666666 0.25 0.29 0.2782843 0.2782843 0.4197056 0.4197056</float_array>
          <technique_common>
            <accessor source="#Cube_002-mesh-map-0-array" count="642" stride="2">
              <param name="S" type="float"/>
              <param name="T" type="float"/>
            </accessor>
          </technique_common>
        </source>
        <vertices id="Cube_002-mesh-vertices">
          <input semantic="POSITION" source="#Cube_002-mesh-positions"/>
        </vertices>
        <triangles material="paintable-0_002-material" count="48">
          <input semantic="VERTEX" source="#Cube_002-mesh-vertices" offset="0"/>
          <input semantic="NORMAL" source="#Cube_002-mesh-normals" offset="1"/>
          <input semantic="TEXCOORD" source="#Cube_002-mesh-map-0" offset="2" set="0"/>
          <p>81 73 219 82 73 220 80 73 221 103 74 222 102 74 223 83 74 224 85 75 225 86 75 226 84 75 227 99 76 228 98 76 229 87 76 230 89 77 231 90 77 232 88 77 233 97 78 234 96 78 235 91 78 236 93 79 237 94 79 238 92 79 239 101 80 240 100 80 241 95 80 242 87 82 246 110 82 247 89 82 248 108 83 249 95 83 250 93 83 251 94 85 255 97 85 256 92 85 257 107 86 258 95 86 259 105 86 260 106 87 261 85 87 262 83 87 263 102 89 267 80 89 268 82 89 269 104 90 270 87 90 271 85 90 272 98 91 273 84 91 274 86 91 275 109 92 276 93 92 277 91 92 278 110 93 279 91 93 280 89 93 281 96 94 282 88 94 283 90 94 284 107 96 288 83 96 289 81 96 290 81 182 546 83 182 547 82 182 548 102 183 549 82 183 550 83 183 551 83 184 552 85 184 553 103 184 554 85 185 555 84 185 556 103 185 557 85 186 558 87 186 559 86 186 560 98 187 561 86 187 562 87 187 563 87 188 564 89 188 565 99 188 566 89 189 567 88 189 568 99 189 569 89 190 570 91 190 571 90 190 572 96 191 573 90 191 574 91 191 575 91 192 576 93 192 577 97 192 578 93 193 579 92 193 580 97 193 581 93 194 582 95 194 583 94 194 584 100 195 585 94 195 586 95 195 587 95 196 588 81 196 589 101 196 590 81 197 591 80 197 592 101 197 593 87 199 597 111 199 598 110 199 599 108 200 600 105 200 601 95 200 602 94 202 606 100 202 607 97 202 608 107 203 609 81 203 610 95 203 611 106 204 612 104 204 613 85 204 614 102 206 618 101 206 619 80 206 620 104 207 621 111 207 622 87 207 623 98 208 624 103 208 625 84 208 626 109 209 627 108 209 628 93 209 629 110 210 630 109 210 631 91 210 632 96 211 633 99 211 634 88 211 635 107 213 639 106 213 640 83 213 641</p>
        </triangles>
        <triangles material="paintable-0_001-material" count="80">
          <input semantic="VERTEX" source="#Cube_002-mesh-vertices" offset="0"/>
          <input semantic="NORMAL" source="#Cube_002-mesh-normals" offset="1"/>
          <input semantic="TEXCOORD" source="#Cube_002-mesh-map-0" offset="2" set="0"/>
          <p>3 0 0 67 0 1 2 0 2 65 1 3 1 1 4 64 1 5 70 2 6 101 2 7 102 2 8 8 3 9 67 3 10 10 3 11 70 4 12 4 4 13 5 4 14 6 5 15 69 5 16 68 5 17 97 6 18 100 6 19 71 6 20 99 7 21 96 7 22 68 7 23 15 8 24 78 8 25 14 8 26 67 50 150 64 50 151 103 50 152 10 51 153 66 51 154 11 51 155 8 52 156 65 52 157 64 52 158 11 53 159 68 53 160 12 53 161 13 54 162 71 54 163 14 54 164 15 55 165 71 55 166 70 55 167 12 56 168 69 56 169 13 56 170 15 57 171 65 57 172 9 57 173 11 58 174 74 58 175 10 58 176 13 59 177 76 59 178 12 59 179 8 60 180 73 60 181 9 60 182 14 61 183 77 61 184 13 61 185 10 62 186 72 62 187 8 62 188 9 63 189 79 63 190 15 63 191 12 64 192 75 64 193 11 64 194 19 65 195 77 65 196 21 65 197 19 66 198 75 66 199 76 66 200 31 67 201 75 67 202 17 67 203 72 68 204 31 68 205 29 68 206 73 69 207 29 69 208 27 69 209 25 70 210 73 70 211 27 70 212 25 71 213 78 71 214 79 71 215 77 72 216 23 72 217 21 72 218 4 81 243 101 81 244 5 81 245 2 84 252 99 84 253 3 84 254 6 88 264 97 88 265 7 88 266 0 95 285 103 95 286 1 95 287 3 97 291 66 97 292 67 97 293 65 98 294 0 98 295 1 98 296 0 99 297 65 99 298 102 99 299 65 100 300 70 100 301 102 100 302 70 101 303 5 101 304 101 101 305 8 102 306 64 102 307 67 102 308 70 103 309 71 103 310 4 103 311 6 104 312 7 104 313 69 104 314 4 105 315 71 105 316 100 105 317 71 106 318 69 106 319 97 106 320 69 107 321 7 107 322 97 107 323 6 108 324 68 108 325 96 108 326 68 109 327 66 109 328 99 109 329 66 110 330 3 110 331 99 110 332 15 111 333 79 111 334 78 111 335 64 157 471 1 157 472 103 157 473 103 158 474 98 158 475 67 158 476 98 159 477 2 159 478 67 159 479 10 160 480 67 160 481 66 160 482 8 161 483 9 161 484 65 161 485 11 162 486 66 162 487 68 162 488 13 163 489 69 163 490 71 163 491 15 164 492 14 164 493 71 164 494 12 165 495 68 165 496 69 165 497 15 166 498 70 166 499 65 166 500 11 167 501 75 167 502 74 167 503 13 168 504 77 168 505 76 168 506 8 169 507 72 169 508 73 169 509 14 170 510 78 170 511 77 170 512 10 171 513 74 171 514 72 171 515 9 172 516 73 172 517 79 172 518 12 173 519 76 173 520 75 173 521 19 174 522 76 174 523 77 174 524 19 175 525 17 175 526 75 175 527 31 176 528 74 176 529 75 176 530 72 177 531 74 177 532 31 177 533 73 178 534 72 178 535 29 178 536 25 179 537 79 179 538 73 179 539 25 180 540 23 180 541 78 180 542 77 181 543 78 181 544 23 181 545 4 198 594 100 198 595 101 198 596 2 201 603 98 201 604 99 201 605 6 205 615 96 205 616 97 205 617 0 212 636 102 212 637 103 212 638</p>
        </triangles>
        <triangles material="lightgray_001-material" count="86">
          <input semantic="VERTEX" source="#Cube_002-mesh-vertices" offset="0"/>
          <input semantic="NORMAL" source="#Cube_002-mesh-normals" offset="1"/>
          <input semantic="TEXCOORD" source="#Cube_002-mesh-map-0" offset="2" set="0"/>
          <p>17 9 27 33 9 28 32 9 29 19 10 30 34 10 31 33 10 32 21 11 33 35 11 34 34 11 35 23 12 36 36 12 37 35 12 38 25 13 39 37 13 40 36 13 41 27 14 42 38 14 43 37 14 44 29 15 45 39 15 46 38 15 47 39 16 48 17 16 49 32 16 50 22 17 51 26 17 52 30 17 53 40 18 54 33 18 55 41 18 56 41 19 57 34 19 58 42 19 59 42 20 60 35 20 61 43 20 62 44 21 63 35 21 64 36 21 65 44 22 66 37 22 67 45 22 68 45 23 69 38 23 70 46 23 71 46 24 72 39 24 73 47 24 74 47 25 75 32 25 76 40 25 77 20 26 78 59 26 79 22 26 80 44 27 81 51 27 82 43 27 83 18 28 84 58 28 85 20 28 86 43 29 87 50 29 88 42 29 89 18 30 90 56 30 91 57 30 92 42 31 93 49 31 94 41 31 95 30 32 96 56 32 97 16 32 98 41 33 99 48 33 100 40 33 101 56 34 102 49 34 103 57 34 104 57 35 105 50 35 106 58 35 107 58 36 108 51 36 109 59 36 110 60 37 111 51 37 112 52 37 113 60 38 114 53 38 115 61 38 116 61 39 117 54 39 118 62 39 119 63 40 120 54 40 121 55 40 122 56 41 123 55 41 124 48 41 125 45 42 126 52 42 127 44 42 128 22 43 129 60 43 130 24 43 131 46 44 132 53 44 133 45 44 134 24 45 135 61 45 136 26 45 137 47 46 138 54 46 139 46 46 140 26 47 141 62 47 142 28 47 143 40 48 144 55 48 145 47 48 146 28 49 147 63 49 148 30 49 149 17 112 336 19 112 337 33 112 338 19 113 339 21 113 340 34 113 341 21 114 342 23 114 343 35 114 344 23 115 345 25 115 346 36 115 347 25 116 348 27 116 349 37 116 350 27 117 351 29 117 352 38 117 353 29 118 354 31 118 355 39 118 356 39 119 357 31 119 358 17 119 359 30 120 360 16 120 361 18 120 362 18 121 363 20 121 364 22 121 365 22 122 366 24 122 367 26 122 368 26 123 369 28 123 370 30 123 371 30 124 372 18 124 373 22 124 374 40 125 375 32 125 376 33 125 377 41 126 378 33 126 379 34 126 380 42 127 381 34 127 382 35 127 383 44 128 384 43 128 385 35 128 386 44 129 387 36 129 388 37 129 389 45 130 390 37 130 391 38 130 392 46 131 393 38 131 394 39 131 395 47 132 396 39 132 397 32 132 398 20 133 399 58 133 400 59 133 401 44 134 402 52 134 403 51 134 404 18 135 405 57 135 406 58 135 407 43 136 408 51 136 409 50 136 410 18 137 411 16 137 412 56 137 413 42 138 414 50 138 415 49 138 416 30 139 417 63 139 418 56 139 419 41 140 420 49 140 421 48 140 422 56 141 423 48 141 424 49 141 425 57 142 426 49 142 427 50 142 428 58 143 429 50 143 430 51 143 431 60 144 432 59 144 433 51 144 434 60 145 435 52 145 436 53 145 437 61 146 438 53 146 439 54 146 440 63 147 441 62 147 442 54 147 443 56 148 444 63 148 445 55 148 446 45 149 447 53 149 448 52 149 449 22 150 450 59 150 451 60 150 452 46 151 453 54 151 454 53 151 455 24 152 456 60 152 457 61 152 458 47 153 459 55 153 460 54 153 461 26 154 462 61 154 463 62 154 464 40 155 465 48 155 466 55 155 467 28 156 468 62 156 469 63 156 470</p>
        </triangles>
      </mesh>
    </geometry>
  </library_geometries>
  <library_visual_scenes>
    <visual_scene id="Scene" name="Scene">
      <node id="Cube_002" name="Cube.002" type="NODE">
        <matrix sid="transform">1 0 0 0 0 1 0 0 0 0 1 0 0 0 0 1</matrix>
        <instance_geometry url="#Cube_002-mesh" name="Cube.002">
          <bind_material>
            <technique_common>
              <instance_material symbol="paintable-0_002-material" target="#paintable-0_002-material">
                <bind_vertex_input semantic="UVMap" input_semantic="TEXCOORD" input_set="0"/>
              </instance_material>
              <instance_material symbol="paintable-1_002-material" target="#paintable-1_002-material">
                <bind_vertex_input semantic="UVMap" input_semantic="TEXCOORD" input_set="0"/>
              </instance_material>
              <instance_material symbol="lightgray_002-material" target="#lightgray_002-material">
                <bind_vertex_input semantic="UVMap" input_semantic="TEXCOORD" input_set="0"/>
              </instance_material>
              <instance_material symbol="paintable-0-material" target="#paintable-0-material">
                <bind_vertex_input semantic="UVMap" input_semantic="TEXCOORD" input_set="0"/>
              </instance_material>
              <instance_material symbol="paintable-1-material" target="#paintable-1-material">
                <bind_vertex_input semantic="UVMap" input_semantic="TEXCOORD" input_set="0"/>
              </instance_material>
              <instance_material symbol="lightgray-material" target="#lightgray-material">
                <bind_vertex_input semantic="UVMap" input_semantic="TEXCOORD" input_set="0"/>
              </instance_material>
              <instance_material symbol="paintable-0_001-material" target="#paintable-0_001-material">
                <bind_vertex_input semantic="UVMap" input_semantic="TEXCOORD" input_set="0"/>
              </instance_material>
              <instance_material symbol="paintable-1_001-material" target="#paintable-1_001-material">
                <bind_vertex_input semantic="UVMap" input_semantic="TEXCOORD" input_set="0"/>
              </instance_material>
              <instance_material symbol="lightgray_001-material" target="#lightgray_001-material">
                <bind_vertex_input semantic="UVMap" input_semantic="TEXCOORD" input_set="0"/>
              </instance_material>
            </technique_common>
          </bind_material>
        </instance_geometry>
      </node>
    </visual_scene>
  </library_visual_scenes>
  <scene>
    <instance_visual_scene url="#Scene"/>
  </scene>
</COLLADA>