<?xml version="1.0" encoding="utf-8"?>
<COLLADA xmlns="http://www.collada.org/2005/11/COLLADASchema" version="1.4.1" xmlns:xsi="http://www.w3.org/2001/XMLSchema-instance">
  <asset>
    <contributor>
      <author>Blender User</author>
      <authoring_tool>Blender 4.2.22 LTS commit date:2026-06-22, commit time:11:10, hash:88937221abfc</authoring_tool>
    </contributor>
    <created>2026-07-23T00:10:16</created>
    <modified>2026-07-23T00:10:16</modified>
    <unit name="meter" meter="1"/>
    <up_axis>Z_UP</up_axis>
  </asset>
  <library_effects>
    <effect id="paintable-0-effect">
      <profile_COMMON>
        <technique sid="common">
          <lambert>
            <emission>
              <color sid="emission">0 0 0 1</color>
            </emission>
            <diffuse>
              <color sid="diffuse">1 0.4969335 0 1</color>
            </diffuse>
            <index_of_refraction>
              <float sid="ior">1.45</float>
            </index_of_refraction>
          </lambert>
        </technique>
      </profile_COMMON>
    </effect>
    <effect id="paintable-1-effect">
      <profile_COMMON>
        <technique sid="common">
          <lambert>
            <emission>
              <color sid="emission">0 0 0 1</color>
            </emission>
            <diffuse>
              <color sid="diffuse">0.6104922 0.4910214 0 1</color>
            </diffuse>
            <index_of_refraction>
              <float sid="ior">1.5</float>
            </index_of_refraction>
          </lambert>
        </technique>
      </profile_COMMON>
    </effect>
    <effect id="lightgray-effect">
      <profile_COMMON>
        <technique sid="common">
          <lambert>
            <emission>
              <color sid="emission">0 0 0 1</color>
            </emission>
            <diffuse>
              <color sid="diffuse">0.7835327 0.7835385 0.7835382 1</color>
            </diffuse>
            <index_of_refraction>
              <float sid="ior">1.5</float>
            </index_of_refraction>
          </lambert>
        </technique>
      </profile_COMMON>
    </effect>
    <effect id="Material-effect">
      <profile_COMMON>
        <technique sid="common">
          <lambert>
            <emission>
              <color sid="emission">0 0 0 1</color>
            </emission>
            <diffuse>
              <color sid="diffuse">1 0.4969335 0 1</color>
            </diffuse>
            <index_of_refraction>
              <float sid="ior">1.45</float>
            </index_of_refraction>
          </lambert>
        </technique>
      </profile_COMMON>
    </effect>
    <effect id="Material_001-effect">
      <profile_COMMON>
        <technique sid="common">
          <lambert>
            <emission>
              <color sid="emission">0 0 0 1</color>
            </emission>
            <diffuse>
              <color sid="diffuse">1 0.4969335 0 1</color>
            </diffuse>
            <index_of_refraction>
              <float sid="ior">1.45</float>
            </index_of_refraction>
          </lambert>
        </technique>
      </profile_COMMON>
    </effect>
  </library_effects>
  <library_images/>
  <library_materials>
    <material id="paintable-0-material" name="paintable-0">
      <instance_effect url="#paintable-0-effect"/>
    </material>
    <material id="paintable-1-material" name="paintable-1">
      <instance_effect url="#paintable-1-effect"/>
    </material>
    <material id="lightgray-material" name="lightgray">
      <instance_effect url="#lightgray-effect"/>
    </material>
    <material id="Material-material" name="Material">
      <instance_effect url="#Material-effect"/>
    </material>
    <material id="Material_001-material" name="Material.001">
      <instance_effect url="#Material_001-effect"/>
    </material>
  </library_materials>
  <library_geometries>
    <geometry id="Cube-mesh" name="Cube">
      <mesh>
        <source id="Cube-mesh-positions">
          <float_array id="Cube-mesh-positions-array" count="951">0.09499996 0.07499998 0.03935027 0.03935027 0.07499998 0.09499996 -0.03935027 0.07499998 0.09499996 -0.09499996 0.07499998 0.03935027 -0.09499996 0.115 -0.125 0.09499996 0.115 -0.125 -0.0478354 0.125 -0.01981407 0.0478354 0.125 0.01981407 -0.01981407 0.125 -0.0478354 0.01981407 0.125 0.0478354 0.01981407 0.125 -0.0478354 -0.01981407 0.125 0.0478354 0.0478354 0.125 -0.01981407 -0.0478354 0.125 0.01981407 0.03935027 0.115 0.09499996 -0.09499996 0.115 -0.03935027 0.09499996 0.115 -0.03935027 0.09499996 0.115 0.03935027 0.05707418 0.115 -0.02364087 -0.02364087 0.115 0.05707418 0.02364087 0.115 -0.05707418 -0.02364087 0.115 -0.05707418 -0.05707418 0.115 -0.02364087 0.02364087 0.115 0.05707418 -0.03935027 0.115 0.09499996 -0.05707418 0.115 0.02364087 0.05707418 0.115 0.02364087 -0.09499996 0.115 0.03935027 0.09499996 0.07499998 -0.125 0.09499996 0.07499998 -0.03935027 0.03894823 0.07499998 -0.09402936 -0.03894823 0.07499998 -0.09402936 -0.09403413 0.07499998 -0.03896325 0.09403431 0.07499998 -0.03896325 -0.09499996 0.07499998 -0.125 -0.09499996 0.07499998 -0.03935027 0.0911718 -0.07499998 0.05581647 -0.1039364 0.06428259 -0.04305183 -0.05581647 -0.07499998 0.0911718 -0.07702964 0.06428259 -0.06995862 0.1154849 -0.07499998 0.004999995 0.1154849 -0.07499998 0.02499997 0.1154849 -0.07499998 0.03499996 0.1039364 -0.07499998 0.004999995 0.1039364 -0.07499998 0.03499996 0.1039364 -0.07499998 0.02499997 0.1154849 0.05177664 0.02499997 0.1154849 0.05177664 0.03499996 0.1154849 0.05177664 0.004999995 0.1039364 0.06428259 0.03499996 -0.06398248 0.05177664 0.09933781 0.1039364 0.06428259 0.02499997 0.1039364 0.06428259 0.004999995 -0.0478354 -0.07499998 0.1154849 0.02499997 0.06428259 0.1039364 0.1154849 -0.07499998 -0.004999995 0.1154849 -0.07499998 -0.02499997 0.1154849 -0.07499998 -0.03499996 0.1039364 -0.07499998 -0.004999995 0.1039364 -0.07499998 -0.03499996 0.1039364 -0.07499998 -0.02499997 0.1154849 0.05177664 -0.02499997 0.1154849 0.05177664 -0.03499996 0.1154849 0.05177664 -0.004999995 0.1039364 0.06428259 -0.03499996 0.1039364 0.06428259 -0.02499997 0.1039364 0.06428259 -0.004999995 -0.1039364 -0.07499998 -0.04305183 -0.0478354 -0.115 -0.1154849 -0.1154849 -0.115 -0.0478354 -0.1154849 -0.07499998 -0.004999935 -0.1154849 -0.07499998 -0.02499997 -0.1154849 -0.07499998 -0.03499996 -0.1039364 -0.07499998 -0.004999935 -0.1039364 -0.07499998 -0.03499996 -0.1039364 -0.07499998 -0.02499997 -0.1154849 0.05177664 -0.02499997 -0.1154849 0.05177664 -0.03499996 -0.1154849 0.05177664 -0.004999935 -0.1039364 0.06428259 -0.03499996 -0.1039364 0.06428259 -0.02499997 -0.0569114 0.05177664 0.1064089 -0.1039364 0.06428259 -0.004999935 -0.0478354 -0.08499997 -0.1154849 0.06995862 0.06428259 -0.07702964 -0.1154849 -0.08499997 -0.0478354 0.05581647 0.06428259 -0.0911718 0.04874539 0.06428259 -0.09824287 0.07812464 0.05177664 -0.08519566 0.0569114 0.05177664 -0.1064089 0.06398248 0.05177664 -0.09933781 0.05581647 -0.07499998 -0.0911718 0.04874539 -0.07499998 -0.09824287 0.06995862 -0.07499998 -0.07702964 0.0569114 -0.07499998 -0.1064089 0.06398248 -0.07499998 -0.09933781 0.07812464 -0.07499998 -0.08519566 0.1039364 -0.07499998 -0.04305183 0.07702964 0.06428259 -0.06995862 0.1039364 0.06428259 -0.04305183 0.0911718 0.06428259 -0.05581647 0.09824287 0.06428259 -0.04874539 0.08519572 0.05177664 -0.07812464 0.1064089 0.05177664 -0.0569114 0.09933781 0.05177664 -0.06398248 -0.07812464 0.05177664 0.08519566 0.0911718 -0.07499998 -0.05581647 0.09824287 -0.07499998 -0.04874539 0.07702964 -0.07499998 -0.06995862 0.1064089 -0.07499998 -0.0569114 -0.1154849 -0.07499998 0.004999995 -0.1154849 -0.07499998 0.02499997 -0.1154849 -0.07499998 0.03499996 -0.1039364 -0.07499998 0.004999995 -0.1039364 -0.07499998 0.03499996 -0.1039364 -0.07499998 0.02499997 -0.1154849 0.05177664 0.02499997 -0.1154849 0.05177664 0.03499996 -0.1154849 0.05177664 0.004999995 -0.1039364 0.06428259 0.03499996 -0.1039364 0.06428259 0.02499997 0.03499996 0.06428259 0.1039364 -0.1039364 0.06428259 0.004999995 0.004999935 0.05177664 0.1154849 0.1154849 -0.115 -0.0478354 0.09933781 -0.07499998 -0.06398248 -0.04874539 0.06428259 0.09824287 0.03499996 0.05177664 0.1154849 0.08519572 -0.07499998 -0.07812464 0.1154849 -0.08499997 -0.0478354 -0.0478354 -0.07499998 -0.1154849 -0.05581647 0.06428259 0.0911718 0.02499997 0.05177664 0.1154849 -0.1154849 -0.07499998 -0.0478354 0.1154849 -0.07499998 -0.0478354 0.09933781 0.05177664 0.06398248 0.02499997 -0.07499998 0.1039364 0.09500938 0.07395476 -0.03934085 -0.1154849 -0.07499998 0.0478354 0.0478354 -0.07499998 -0.1154849 0.1064089 0.05177664 0.0569114 0.0478354 -0.08499997 -0.1154849 -0.1154849 -0.08499997 0.0478354 0.0478354 -0.115 -0.1154849 0.08519566 0.05177664 0.07812464 -0.004999995 0.06428259 -0.1039364 -0.1154849 -0.115 0.0478354 -0.02499997 0.06428259 -0.1039364 -0.03499996 0.06428259 -0.1039364 -0.004999935 0.05177664 -0.1154849 -0.03499996 0.05177664 -0.1154849 -0.02499997 0.05177664 -0.1154849 -0.02499997 -0.07499998 -0.1039364 -0.03499996 -0.07499998 -0.1039364 -0.004999995 -0.07499998 -0.1039364 -0.03499996 -0.07499998 -0.1154849 -0.02499997 -0.07499998 -0.1154849 -0.004999935 -0.07499998 -0.1154849 0.04305183 -0.07499998 -0.1039364 0.004999995 0.06428259 -0.1039364 0.04305183 0.06428259 -0.1039364 0.02499997 0.06428259 -0.1039364 0.03499996 0.06428259 -0.1039364 0.004999935 0.05177664 -0.1154849 0.03499996 0.05177664 -0.1154849 0.02499997 0.05177664 -0.1154849 0.02499997 -0.07499998 -0.1039364 0.03499996 -0.07499998 -0.1039364 0.004999995 -0.07499998 -0.1039364 0.03499996 -0.07499998 -0.1154849 0.02499997 -0.07499998 -0.1154849 0.004999935 -0.07499998 -0.1154849 0.09824287 0.06428259 0.04874539 -0.06995862 0.06428259 0.07702964 0.03936356 0.07395476 -0.09499996 -0.0911718 0.06428259 -0.05581647 -0.09824287 0.06428259 -0.04874539 -0.08519566 0.05177664 -0.07812464 -0.1064089 0.05177664 -0.0569114 -0.09933781 0.05177664 -0.06398248 -0.0911718 -0.07499998 -0.05581647 -0.09824287 -0.07499998 -0.04874539 -0.07702964 -0.07499998 -0.06995862 -0.1064089 -0.07499998 -0.0569114 -0.09933781 -0.07499998 -0.06398248 -0.08519566 -0.07499998 -0.07812464 -0.04305183 -0.07499998 -0.1039364 -0.06995862 0.06428259 -0.07702964 -0.04305183 0.06428259 -0.1039364 -0.05581647 0.06428259 -0.0911718 -0.04874539 0.06428259 -0.09824287 -0.07812464 0.05177664 -0.08519566 -0.0569114 0.05177664 -0.1064089 -0.06398248 0.05177664 -0.09933781 -0.05581647 -0.07499998 -0.0911718 -0.04874539 -0.07499998 -0.09824287 -0.06995862 -0.07499998 -0.07702964 -0.0569114 -0.07499998 -0.1064089 -0.06398248 -0.07499998 -0.09933781 -0.07812464 -0.07499998 -0.08519566 -0.09499055 0.07395476 -0.03935968 -0.03934085 0.07395476 -0.09500938 -0.06717354 0.07395476 -0.06717669 0.0911718 0.06428259 0.05581647 -0.04874539 -0.07499998 0.09824287 -0.06995862 -0.07499998 0.07702964 -0.0569114 -0.07499998 0.1064089 -0.06398248 -0.07499998 0.09933781 -0.07812464 -0.07499998 0.08519566 -0.1039364 -0.07499998 0.04305183 -0.07702964 0.06428259 0.06995862 -0.1039364 0.06428259 0.04305183 -0.0911718 0.06428259 0.05581647 -0.09824287 0.06428259 0.04874539 -0.08519566 0.05177664 0.07812464 -0.1064089 0.05177664 0.0569114 -0.09933781 0.05177664 0.06398248 -0.0911718 -0.07499998 0.05581647 -0.09824287 -0.07499998 0.04874539 -0.07702964 -0.07499998 0.06995862 -0.1064089 -0.07499998 0.0569114 -0.09933781 -0.07499998 0.06398248 -0.08519566 -0.07499998 0.07812464 0.1154849 -0.07499998 0.0478354 0.0478354 -0.07499998 0.1154849 -0.09500938 0.07395476 0.03934085 -0.0478354 -0.08499997 0.1154849 -0.0478354 -0.115 0.1154849 0.004999995 0.06428259 0.1039364 0.03499996 -0.07499998 0.1039364 0.004999995 -0.07499998 0.1039364 0.03499996 -0.07499998 0.1154849 0.02499997 -0.07499998 0.1154849 0.004999935 -0.07499998 0.1154849 -0.04305183 -0.07499998 0.1039364 -0.004999995 0.06428259 0.1039364 -0.04305183 0.06428259 0.1039364 -0.02499997 0.06428259 0.1039364 -0.03499996 0.06428259 0.1039364 -0.004999935 0.05177664 0.1154849 -0.03499996 0.05177664 0.1154849 -0.02499997 0.05177664 0.1154849 -0.02499997 -0.07499998 0.1039364 -0.03499996 -0.07499998 0.1039364 -0.004999995 -0.07499998 0.1039364 -0.03499996 -0.07499998 0.1154849 -0.02499997 -0.07499998 0.1154849 -0.004999935 -0.07499998 0.1154849 -0.03936356 0.07395476 0.09499996 0.1154849 -0.08499997 0.0478354 0.0478354 -0.08499997 0.1154849 0.1154849 -0.115 0.0478354 0.0478354 -0.115 0.1154849 0.1039364 -0.07499998 0.04305183 0.07702964 0.06428259 0.06995862 0.1039364 0.06428259 0.04305183 0.09824287 -0.07499998 0.04874539 0.07702964 -0.07499998 0.06995862 0.1064089 -0.07499998 0.0569114 0.09933781 -0.07499998 0.06398248 0.08519566 -0.07499998 0.07812464 0.04305183 -0.07499998 0.1039364 0.06995862 0.06428259 0.07702964 0.04305183 0.06428259 0.1039364 0.05581647 0.06428259 0.0911718 0.04874539 0.06428259 0.09824287 0.07812464 0.05177664 0.08519566 0.0569114 0.05177664 0.1064089 0.06398248 0.05177664 0.09933781 0.05581647 -0.07499998 0.0911718 0.04874539 -0.07499998 0.09824287 0.06995862 -0.07499998 0.07702964 0.0569114 -0.07499998 0.1064089 0.06398248 -0.07499998 0.09933781 0.07812464 -0.07499998 0.08519566 0.09499055 0.07395476 0.03935968 0.03934085 0.07395476 0.09500938 0.03106594 -0.125 -0.07499992 0.07499992 -0.125 -0.031066 -0.07499992 -0.125 -0.03106594 -0.031066 -0.125 -0.07499992 -0.07499998 -0.125 0.031066 0.07499992 -0.125 0.03106594 -0.03106594 -0.125 0.07499992 0.031066 -0.125 0.07499992 0.0478354 -0.125 -0.1154849 0.1154849 -0.125 -0.0478354 -0.1154849 -0.125 -0.0478354 -0.0478354 -0.125 -0.1154849 -0.115485 -0.125 0.0478354 0.1154849 -0.125 0.0478354 -0.0478354 -0.125 0.1154849 0.0478354 -0.125 0.1154849 0.02692383 -0.115 -0.06499993 0.06499993 -0.115 -0.02692383 -0.06499993 -0.115 -0.02692383 -0.02692383 -0.115 -0.06499993 -0.06499993 -0.115 0.02692383 0.06499993 -0.115 0.02692383 -0.02692383 -0.115 0.06499993 0.02692383 -0.115 0.06499993 0.03106594 -0.115 -0.07499992 0.07499992 -0.115 -0.031066 -0.07499992 -0.115 -0.03106594 -0.031066 -0.115 -0.07499992 -0.07499998 -0.115 0.031066 0.07499992 -0.115 0.03106594 -0.03106594 -0.115 0.07499992 0.031066 -0.115 0.07499992 0.02692383 -0.125 -0.06499993 0.06499993 -0.125 -0.02692383 -0.06499993 -0.125 -0.02692383 -0.02692383 -0.125 -0.06499993 -0.06499993 -0.125 0.02692383 0.06499993 -0.125 0.02692383 -0.02692383 -0.125 0.06499993 0.02692383 -0.125 0.06499993</float_array>
          <technique_common>
            <accessor source="#Cube-mesh-positions-array" count="317" stride="3">
              <param name="X" type="float"/>
              <param name="Y" type="float"/>
              <param name="Z" type="float"/>
            </accessor>
          </technique_common>
        </source>
        <source id="Cube-mesh-normals">
          <float_array id="Cube-mesh-normals-array" count="1890">-1 0 0 1 0 0 0.7071068 0 0.7071068 0 0 1 -0.7071068 0 0.7071068 -1 0 0 0 0 -1 0 1 0 1 0 0 0 1 0 0 1 0 0.7345095 0.6785985 0 -0.7345095 0.6785985 1.3486e-7 0 1 0 0 1 0 0.5193767 0.6785985 0.5193767 -0.5193768 0.6785983 -0.5193768 0 0.6785985 -0.7345095 -0.51979 0.6778219 -0.5199768 0 0.6785985 0.7345095 -0.5193767 0.6785985 0.5193767 0.5193768 0.6785983 -0.5193768 0 1 0 0 1 0 0 1 0 0 1 0 0 1 0 0 1 0 0 1 0 0 1 0 0 0.008995473 0.9999596 0.9999595 0.009002685 0 -0.7070782 0.008994281 0.7070782 0.7071068 -5.04107e-6 0.7071068 0.3719417 0.01170188 -0.9281824 -0.9999595 0.009002566 0 8.76802e-5 0.680482 -0.7327648 0.5157217 0.6840098 -0.5159085 -0.3719621 -0.01171517 -0.928174 0.7341346 0.6790041 0 0 -1 0 0 -1 0 0 -1 0 0 -1 0 0 -1 0 -0.7341348 0.6790038 0 1 0 0 0 0 -1 1 0 0 1 0 0 0 1 -9.2532e-7 0.7346692 0.6784255 0 0.734669 0.6784256 0 0 0 1 0 1 0 0 0 1 1 0 1.85064e-6 1 0 0 0 0 1 1 0 0 0 1 0 0.7346692 0.6784255 0 0 1 0 0 0 -1 1 0 -1.85064e-6 0.7348472 0.6782327 -1.30442e-6 0.7345359 0.6785697 1.75654e-4 0.7348468 0.6782331 0 0.7341349 0.6790036 1.98692e-6 0.7341346 0.6790041 0 0.7348468 0.678233 0 0.7341345 0.6790041 0 0 0 -1 0.5196151 0.678233 -0.5196154 0.5193634 0.6786188 -0.5193634 -1 0 0 0 0 1 0.5193637 0.6786187 -0.5193631 -1 0 0 -1 0 0 0 1 0 -0.7346692 0.6784256 0 -0.734669 0.6784256 0 0 0 -1 0 1 0 0.7071068 0 -0.7071068 0 1 0 0.5196147 0.6782329 -0.519616 0.7071067 -9.73465e-7 -0.707107 0.7071063 0 0.7071073 0.7071068 0 0.7071068 0 1 0 0.7071066 -4.86733e-7 -0.707107 -6.45156e-7 0 -1 -0.7071065 0 -0.7071071 0.707107 1.16415e-6 -0.7071066 0.707107 -1.67347e-6 -0.7071066 0.7071068 8.73115e-7 -0.7071068 0.7071068 -1.09139e-6 -0.7071068 0.7071062 0 -0.7071074 0.7071064 0 -0.7071073 0.7071061 3.92902e-6 -0.7071075 0.7071067 0 -0.707107 0.5193629 0.6786192 -0.5193632 -1 0 -1.85064e-6 -1 0 0 0 0 -1 -1 0 0 0 1 -9.25321e-7 -0.7346692 0.6784255 0 0 1 0 6.45156e-7 0 1 -1 0 1.85064e-6 1 0 -1.55754e-7 -1 0 -6.23018e-7 -0.734847 0.6782329 1.99096e-6 -0.7345359 0.6785697 -1.75526e-4 -0.7348467 0.6782333 0 -0.734135 0.6790035 -1.35862e-6 -0.7341348 0.6790038 0 -0.7348467 0.6782333 0 -0.7341348 0.6790038 0 0 0 1 0.5196152 0.6782332 -0.519615 0.5195674 0.6784014 -0.5194431 -0.7071068 0 -0.7071068 0.5194896 0.6784256 -0.5194895 0.7071059 0 -0.7071077 0 1 0 0.7071065 0 -0.707107 -0.7071071 0 -0.7071065 -1 0 1.55754e-7 1 0 0 0.7071068 0 -0.7071068 -1 -1.49012e-6 0 0.5193634 0.6786187 -0.5193634 1 0 0 0.5194896 0.6784255 -0.5194896 1 0 0 1 0 0 1 0 0 1 0 0 1 0 0 1 0 0 1 0 0 -1 0 0 -1 -6.67181e-7 1.55754e-7 -1 0 0 -1 0 1.16094e-6 -1 -1.49012e-6 0 -1 0 0 -1 -1.49012e-6 0 0.7071061 0 -0.7071076 0 1 0 0 1 0 0.7071068 0 -0.7071068 0.7071069 0 -0.7071067 0.7071071 0 0.7071065 0.5194888 0.678426 -0.5194899 0 0.6782327 -0.7348472 0 0.6786189 -0.7344906 5.47238e-7 0.6786188 -0.7344908 0 0 -1 0 1 0 -6.17883e-7 0.6782326 -0.7348473 -1.55754e-7 0 -1 1 0 9.67733e-7 1 0 6.45155e-7 0 1 0 -1.55754e-7 -6.6718e-7 -1 -1 0 -6.45156e-7 0 0 -1 7.45058e-7 -3.19149e-6 -1 0 0 -1 0 -1.49012e-6 -1 -1.16094e-6 0 -1 0 0 -1 -1.49012e-6 6.38299e-6 -1 -1.55754e-7 0 -1 -2.73619e-7 0.6786193 -0.7344902 0 0.6782328 -0.7348471 8.79109e-5 0.6784012 -0.7346916 -1 0 6.45155e-7 0 0.6784258 -0.734669 -9.2532e-7 0 -1 -3.72529e-7 0 -1 -1 0 6.45156e-7 0 0 -1 0 0.6786189 -0.7344906 0 0.6784255 -0.7346692 -1.49012e-6 0 -1 0 1 0 0 1 0 0 0 -1 0 0 -1 1 0 -6.45155e-7 -1.11133e-6 0.6784259 -0.7346689 -0.5193636 0.6786184 -0.5193636 -0.5193634 0.6786188 -0.5193634 -0.5193632 0.6786188 -0.5193637 -0.7071066 0 -0.707107 0 1 0 -0.5193635 0.6786184 -0.5193635 -0.7071068 0 -0.7071068 0.7071074 0 -0.7071062 0.7071071 0 -0.7071065 0 1 0 -0.7071068 0 -0.7071068 -0.7071074 0 0.7071062 -0.7071068 0 -0.7071068 -0.7071064 -1.16415e-6 -0.7071072 -0.7071072 -1.30967e-6 -0.7071065 -0.7071066 -5.82076e-7 -0.707107 -0.7071069 0 -0.7071067 -0.7071065 0 -0.7071071 -0.7071076 5.52974e-6 -0.7071061 -0.7071068 0 -0.7071068 -0.5193632 0.6786192 -0.5193629 -0.5193636 0.6786184 -0.5193637 -0.5193637 0.6786183 -0.5193637 -0.7071063 0 0.7071073 -0.5194895 0.6784257 -0.5194895 -0.7071068 0 -0.7071068 -0.707107 0 -0.7071065 -0.7071065 0 0.7071071 -0.7071071 0 -0.7071064 -0.5193634 0.6786187 -0.5193634 -0.5194899 0.6784255 -0.5194894 -0.7071076 0 -0.707106 0 1 0 0 1 0 -0.7071068 0 -0.7071068 -0.7071068 0 -0.7071068 0.7071062 0 -0.7071074 -0.51949 0.6784257 -0.5194889 -0.5196153 0.678233 0.5196152 -0.5193634 0.6786188 0.5193634 -0.519364 0.6786187 0.5193629 -0.7071072 0 0.7071064 0 1 0 -0.5196149 0.6782327 0.5196159 -0.7071064 5.26835e-6 0.7071073 -0.7071063 0 -0.7071073 -0.7071068 0 -0.7071068 0 1 0 -0.7071067 -4.86732e-7 0.7071068 0.7071062 0 0.7071074 -0.7071068 0 0.7071068 -0.707107 -1.16415e-6 0.7071066 -0.707106 -2.47382e-6 0.7071076 -0.7071072 -1.74623e-6 0.7071064 -0.7071062 0 0.7071074 -0.7071074 0 0.7071062 -0.707106 4.5111e-6 0.7071076 -0.7071068 0 0.7071068 -0.5193626 0.6786195 0.5193631 -0.5196152 0.6782329 0.5196154 0.7071073 0 0.7071063 -0.5194895 0.6784256 0.5194895 -0.7071061 0 0.7071075 -0.7071064 0 0.7071072 0.7071068 0 0.7071068 -0.7071061 0 0.7071075 -0.5193634 0.6786187 0.5193634 -0.5194891 0.6784254 0.5194902 -0.707106 0 0.7071076 0 1 0 0 1 0 -0.7071068 0 0.7071068 -0.7071067 0 0.7071069 -0.7071074 0 -0.7071062 -0.5194888 0.6784259 0.5194899 0 0.6782327 0.7348471 0 0.6786189 0.7344906 -1.09448e-6 0.6786186 0.7344909 0 0 1 0 1 0 6.17883e-7 0.6782326 0.7348473 1.55754e-7 0 1 -1 0 -9.67734e-7 -1 0 0 0 1 0 1.55754e-7 -6.67181e-7 1 1 0 6.45156e-7 0 0 1 -3.72529e-7 -1.59574e-6 1 0 0 1 0 -7.45058e-7 1 5.8047e-7 0 1 0 0 1 1.49012e-6 6.383e-6 1 1.55754e-7 0 1 5.47238e-7 0.6786199 0.7344897 0 0.6782328 0.7348471 1 0 -3.22578e-7 0 0.6784256 0.734669 9.25321e-7 0 1 7.45058e-7 0 1 1 0 0 0 0 1 0 0.6786189 0.7344906 0 0.6784254 0.7346693 1.49012e-6 0 1 0 1 0 0 1 0 0 0 1 0 0 1 -1 0 1.29031e-6 1.11133e-6 0.678426 0.7346687 0.5193634 0.6786185 0.5193636 0.5193634 0.6786188 0.5193634 0.5193629 0.6786187 0.519364 0.707107 0 0.7071066 0 1 0 0.5193635 0.6786186 0.5193635 0.7071068 0 0.7071068 -0.707107 0 0.7071067 -0.7071068 0 0.7071068 0 1 0 0.7071068 0 0.7071068 0.7071074 0 -0.7071062 0.7071068 0 0.7071068 0.7071068 1.01863e-6 0.7071068 0.7071068 0 0.7071068 0.707107 1.67347e-6 0.7071066 0.707106 0 0.7071075 0.7071068 0 0.7071068 0.7071076 5.52975e-6 0.7071061 0.7071068 0 0.7071068 0.5193631 0.6786195 0.5193626 0.5193638 0.6786183 0.5193636 0.7071067 0 -0.707107 0.5194897 0.6784255 0.5194894 0.7071068 0 0.7071068 0.7071072 0 0.7071064 0.7071068 0 -0.7071068 0.7071068 0 0.7071068 0.5193634 0.6786187 0.5193634 0.5194897 0.6784255 0.5194897 0.7071076 0 0.7071061 0 1 0 0 1 0 0.7071068 0 0.7071068 0.7071069 0 0.7071067 -0.7071055 0 0.7071081 0.5194899 0.6784259 0.5194888 0.5193634 0.6786186 0.5193635 -8.79174e-5 0.6784012 0.7346916 -0.5195674 0.6784014 0.5194432 -0.7071068 0 -0.7071068 0 -1 0 0 -1 0 0 -1 0 0 -1 0 0 -1 2.39831e-7 0 -1 0 1.19915e-7 -1 0 0 -1 0 0.7071068 0 -0.7071068 -1 0 2.39831e-7 2.39831e-7 0 1 -0.7071068 0 0.7071067 -2.39831e-7 0 -1 0.7071064 0 -0.7071072 1 0 5.99577e-7 0.7071068 0 0.7071068 0 -1 0 -1.38364e-7 -1 0 0 -1 0 0 -1 0 0 -1 2.39831e-7 0 -1 0 1.38364e-7 -1 0 0 -1 0 0 -1 0 2.76728e-7 0 1 -0.7071064 0 0.7071072 -1 0 -5.53456e-7 -0.7071068 -1.31709e-7 -0.7071068 0.7071067 1.31709e-7 0.7071068 1 0 -2.76728e-7 -2.76728e-7 0 -1 0 -1 0 4.72404e-7 -1 2.76728e-7 0 -1 0 0 -1 0 0 -1 0 -1 0 0 1 0 0 0.7071068 0 0.7071068 0 0 1 -0.7071068 0 0.7071068 -1 0 0 0 0 -1 0 1 0 1 0 0 0.7345095 0.6785984 0 -0.7345096 0.6785982 0 0.5193766 0.6785984 0.5193766 -0.5193768 0.6785984 -0.5193767 0 0.6785982 -0.7345097 -0.5181546 0.6804639 -0.5181549 -0.5216203 0.6751478 -0.5216203 0 0.6785984 0.7345095 -0.5193766 0.6785984 0.5193766 0.5193767 0.6785984 -0.5193767 0 1 0 0 1 0 0 1 0 0 1 0 0 1 0 0 1 0 0 1 0 -1.19657e-4 -1.27327e-5 1 0.9999595 -0.00900048 2.39127e-4 -0.7071913 -6.03789e-6 0.7070223 0.7071068 -1.00814e-5 0.7071068 -0.9999595 -0.009000599 -2.39128e-4 0 0.6839849 -0.7294962 0.5217 0.6751211 -0.5215753 0 -1 0 1 0 0 0 0 -1 1 0 0 1 0 0 2.40438e-7 1 -5.8047e-7 0.7346692 0.6784255 0 0.734669 0.6784256 0 0 0 1 0 1 0 0 0 1 1 0 1.85064e-6 1 0 0 0 0 1 1 0 0 0 1 0 0.7346692 0.6784255 0 0 1 0 0 0 -1 1 0 -1.85064e-6 0 0 -1 -1 0 0 0 0 1 -1 0 0 -1 0 0 0 1 0 -0.7346692 0.6784255 0 -0.734669 0.6784256 0 0 0 -1 0 1 0 0.7071068 0 -0.7071068 -1.24276e-7 1 -6.96632e-7 0.7071067 0 -0.7071068 0.7071063 0 0.7071073 0.7071068 0 0.7071068 0 1 0 -6.45156e-7 0 -1 -0.7071065 0 -0.7071071 0.7071067 0 -0.7071069 -1 0 -1.85064e-6 -1 0 0 0 0 -1 -1 0 0 -6.45156e-7 1 0 -0.7346692 0.6784256 0 0 1 0 6.45156e-7 0 1 -1 0 1.85064e-6 1 -1.49012e-6 0 -1 7.45058e-6 1.55754e-7 0 0 1 -0.7071068 0 -0.7071068 0.5194894 0.6784256 -0.5194897 0.7071059 0 -0.7071077 0.7071065 0 -0.707107 -0.7071071 0 -0.7071065 -1 0 1.55754e-7 1 0 0 0.7071068 0 -0.7071068 0.5194898 0.6784256 -0.5194892 0.7071061 0 -0.7071076 0 1 0 0 1 0 0.7071068 0 -0.7071068 0.7071069 0 -0.7071067 0.7071071 0 0.7071065 0.5194895 0.6784256 -0.5194895 0 0 -1 -5.8047e-7 1 -4.04717e-7 -1.55754e-7 0 -1 1 0 9.67733e-7 1 0 6.45155e-7 0 1 0 -1 0 -6.45156e-7 -1.55754e-7 0 -1 -1 0 6.45155e-7 0 0.6784257 -0.734669 -9.2532e-7 0 -1 -3.72529e-7 0 -1 -1 0 6.45156e-7 0 0 -1 5.47371e-7 0.6784258 -0.734669 -1.49012e-6 0 -1 5.80471e-7 1 -4.04717e-7 0 1 0 0 0 -1 0 0 -1 1 0 -6.45155e-7 0 0.6784254 -0.7346693 -0.7071066 0 -0.707107 0 1 0 -0.7071068 0 -0.7071068 0.7071074 0 -0.7071061 0.7071071 0 -0.7071065 0 1 0 -0.7071074 0 0.7071062 -0.7071068 0 -0.7071068 -0.5193635 0.6786182 -0.5193638 -0.7071064 0 0.7071073 -0.5194893 0.6784257 -0.5194896 -0.7071068 0 -0.7071068 -0.707107 0 -0.7071065 -0.7071065 0 0.7071071 -0.7071071 0 -0.7071064 -0.5194891 0.6784258 -0.5194897 -0.7071076 0 -0.707106 1.24277e-7 1 -6.96633e-7 0 1 0 -0.7071068 0 -0.7071068 -0.7071068 0 -0.7071068 0.7071061 0 -0.7071074 -0.5194897 0.6784254 -0.5194897 -0.7071072 0 0.7071064 1.24276e-7 1 6.96632e-7 -0.7071067 0 0.7071068 -0.7071064 0 -0.7071073 -0.7071068 0 -0.7071068 0 1 0 0.7071062 0 0.7071074 -0.7071068 0 0.7071068 0.7071073 0 0.7071063 -0.5194897 0.6784259 0.5194891 -0.7071061 0 0.7071075 -0.7071064 0 0.7071072 0.7071068 0 0.7071068 -0.7071061 0 0.7071075 -0.5194897 0.6784261 0.5194886 -0.707106 0 0.7071076 -6.96633e-7 1 -1.24277e-7 0 1 0 -0.7071068 0 0.7071068 -0.7071067 0 0.7071069 -0.7071074 0 -0.7071062 -0.5194895 0.6784255 0.5194895 0 0 1 5.8047e-7 1 4.04717e-7 1.55754e-7 0 1 -1 0 -9.67734e-7 -1 0 0 0 1 0 1 0 6.45156e-7 1.55754e-7 0 1 1 0 -3.22578e-7 0 0.6784257 0.7346691 9.25321e-7 0 1 7.45058e-7 0 1 1 0 0 0 0 1 -1.09474e-6 0.6784259 0.7346689 1.49012e-6 0 1 -5.80471e-7 1 4.04717e-7 0 1 0 0 0 1 0 0 1 -1 0 1.29031e-6 0 0.6784256 0.7346692 0.707107 0 0.7071066 0 1 0 0.7071068 0 0.7071068 -0.707107 0 0.7071067 -0.7071068 0 0.7071068 0 1 0 0.7071074 0 -0.7071062 0.7071068 0 0.7071068 0.7071066 0 -0.707107 0.5194895 0.6784253 0.5194898 0.7071068 0 0.7071068 0.7071072 0 0.7071064 0.7071068 0 -0.7071068 0.7071068 0 0.7071068 0.5194889 0.6784257 0.51949 0.7071076 0 0.7071061 -1.24277e-7 1 6.96633e-7 0 1 0 0.7071068 0 0.7071068 0.7071069 0 0.7071067 -0.7071055 0 0.7071081 0.5194895 0.6784255 0.5194895 -0.7071068 0 -0.7071069 0 -1 0 0 -1 1.19915e-7 0 -1 0 0 -1 0 0 -1 1.55754e-7 0 -1 0 0 -1 0 0 -1 0 0.7071068 -1.31709e-7 -0.7071068 -1 0 2.39831e-7 2.39831e-7 0 1 -0.7071068 0 0.7071067 -2.39831e-7 0 -1 0.7071064 0 -0.7071072 1 0 5.99577e-7 0.7071068 0 0.7071068 0 -1 0 0 -1 1.19915e-7 0 -1 0 0 -1 0 0 -1 2.76728e-7 0 -1 0 0 -1 -1.19915e-7 0 -1 0 2.76728e-7 0 1 -0.7071065 1.31709e-7 0.7071072 -1 0 -5.53456e-7 -0.7071068 0 -0.7071068 0.7071067 0 0.7071069 1 0 -2.76728e-7 -2.76728e-7 0 -1</float_array>
          <technique_common>
            <accessor source="#Cube-mesh-normals-array" count="630" stride="3">
              <param name="X" type="float"/>
              <param name="Y" type="float"/>
              <param name="Z" type="float"/>
            </accessor>
          </technique_common>
        </source>
        <source id="Cube-mesh-map-0">
          <float_array id="Cube-mesh-map-0-array" count="3780">0.125 1 0.125 0.5 0.125 0.5 0.75 1 0.625 0.5 0.75 0.5 0.625 1 0.5 0.5 0.625 0.5 0.5 1 0.375 0.5 0.5 0.5 0.375 1 0.25 0.5 0.375 0.5 0.25 0.5 0.125 1 0.125 0.5 0.125 0.5 0.75 1 0.75 0.5 0 0 0 0 0 0 0.75 0.5 0.75 1 0.75 1 0 0 0 0 0 0 0 0 0 0 0 0 0 0 0 0 0 0 0 0 0 0 0 0 0 0 0 0 0 0 0 0 0 0 0 0 0 0 0 0 0 0 0 0 0 0 0 0 0 0 0 0 0 0 0 0 0 0 0 0 0 0 0 0 0 0 0 0 0 0 0 0 0 0 0 0 0 0 0 0 0 0 0 0 0 0 0 0 0 0 0 0 0 0 0 0 0 0 0 0 0 0 0 0 0 0 0 0 0 0 0 0 0 0 0 0 0 0 0 0 0 0 0 0 0 0 0.375 0.5 0.5 0.5 0.5 0.5 0.625 0.5 0.75 0.5 0.75 0.5 0.25 0.5 0.375 0.5 0.375 0.5 0.5 0.5 0.625 0.5 0.625 0.5 0 0 0 0 0 0 0.125 0.5 0.25 0.5 0.25 0.5 0 0 0 0 0 0 0 0 0 0 0 0 0 0 0 0 0 0 0 0 0 0 0 0 0 0 0 0 0 0 0 0 0 0 0 0 0 0 0 0 0 0 0 0 0 0 0 0 0 0 0 0 0 0 0 0 0 0 0 0 0 0 0 0 0 0 0.375 0.522447 0.35 0.75 0.35 0.5 0.625 0.75 0.375 0.522447 0.625 0.522447 0.625 0.75 0.375 0.522447 0.625 0.522447 0 0 0 0 0 0 0 0 0 0 0 0 0 0 0 0 0 0 0.6375001 0.5112235 0.65 0.75 0.625 0.75 0 0 0 0 0 0 0.65 0.75 0.6375001 0.5112235 0.65 0.5 0 0 0 0 0 0 0 0 0 0 0 0 0.375 0.522447 0.35 0.75 0.375 0.75 0.375 0.522447 0.625 0.75 0.625 0.522447 0 0 0 0 0 0 0 0 0 0 0 0 0 0 0 0 0 0 0.65 0.75 0.6375001 0.5112235 0.625 0.75 0 0 0 0 0 0 0 0 0 0 0 0 0 0 0 0 0 0 0 0 0 0 0 0 0 0 0 0 0 0 0 0 0 0 0 0 0 0 0 0 0 0 0 0 0 0 0 0 0.375 0.522447 0.35 0.75 0.35 0.5 0 0 0 0 0 0 0 0 0 0 0 0 0 0 0 0 0 0 0.375 0.522447 0.35 0.75 0.35 0.5 0 0 0 0 0 0 0.625 0.75 0.375 0.522447 0.625 0.522447 0.625 0.75 0.375 0.522447 0.625 0.522447 0 0 0 0 0 0 0 0 0 0 0 0 0 0 0 0 0 0 0.6375001 0.5112235 0.65 0.75 0.625 0.75 0 0 0.65 0.75 0 0 0.375 0.522447 0.625 0.75 0.625 0.522447 0 0 0 0 0 0 0 0 0 0 0 0 0 0 0 0 0 0 0.375 0.522447 0.35 0.75 0.375 0.75 0.65 0.75 0.6375001 0.5112235 0.65 0.5 0 0 0.65 0.75 0 0 0 0 0 0 0 0 0.65 0.75 0.6375001 0.5112235 0.65 0.5 0.375 0.522447 0.35 0.75 0.35 0.5 0 0 0 0 0 0 0 0 0 0 0 0 0 0 0 0 0 0 0 0 0 0 0 0 0 0 0 0 0 0 0 0 0 0 0 0 0 0 0 0 0 0 0 0 0 0 0 0 0 0 0 0 0 0 0 0 0 0 0 0 0 0 0 0 0 0 0.375 0.522447 0.35 0.75 0.375 0.75 0.375 0.522447 0.625 0.75 0.625 0.522447 0 0 0 0 0 0 0 0 0 0 0 0 0 0 0 0 0 0 0.65 0.75 0.6375001 0.5112235 0.625 0.75 0 0 0 0 0 0 0 0 0 0 0 0 0 0 0 0 0 0 0 0 0 0 0 0 0 0 0 0 0 0 0 0 0 0 0 0 0 0 0 0 0 0 0 0 0 0 0 0 0 0 0 0 0 0 0 0 0 0 0 0 0.375 0.522447 0.35 0.75 0.35 0.5 0 0 0 0 0 0 0 0 0 0 0 0 0.65 0.75 0.6375001 0.5112235 0.625 0.75 0 0 0 0 0 0 0 0 0 0 0 0 0 0 0 0 0 0 0 0 0 0 0 0 0.375 0.522447 0.35 0.75 0.35 0.5 0 0 0 0 0 0 0 0 0 0 0 0 0.625 0.75 0.375 0.522447 0.625 0.522447 0 0 0 0 0 0 0 0 0 0 0 0 0 0 0 0 0 0 0 0 0 0 0 0 0 0 0 0 0 0 0 0 0 0 0 0 0 0 0 0 0 0 0 0 0 0 0 0 0 0 0 0 0 0 0 0 0 0 0 0 0 0 0 0 0 0 0 0 0 0 0 0 0 0 0 0 0 0 0 0 0 0 0 0 0 0 0 0 0 0 0 0 0 0 0 0 0 0 0 0 0 0 0 0 0 0 0 0 0.625 0.75 0.375 0.522447 0.625 0.522447 0 0 0 0 0 0 0 0 0.65 0.75 0 0 0 0 0 0 0 0 0 0 0 0 0 0 0.6375001 0.5112235 0.65 0.75 0.625 0.75 0 0 0 0 0 0 0 0 0 0 0 0 0 0 0 0 0 0 0 0 0 0 0 0 0.375 0.522447 0.625 0.75 0.625 0.522447 0 0 0 0 0 0 0 0 0 0 0 0 0 0 0 0 0 0 0.375 0.522447 0.35 0.75 0.375 0.75 0.65 0.75 0.6375001 0.5112235 0.65 0.5 0 0 0.65 0.75 0 0 0 0 0 0 0 0 0.375 0.522447 0.35 0.75 0.35 0.5 0 0 0 0 0 0 0 0 0 0 0 0 0 0 0 0 0 0 0 0 0 0 0 0 0 0 0 0 0 0 0 0 0 0 0 0 0 0 0 0 0 0 0 0 0 0 0 0 0 0 0 0 0 0 0 0 0 0 0 0 0 0 0 0 0 0 0.65 0.75 0.6375001 0.5112235 0.625 0.75 0 0 0 0 0 0 0 0 0 0 0 0 0 0 0 0 0 0 0.375 0.522447 0.35 0.75 0.35 0.5 0.625 0.75 0.375 0.522447 0.625 0.522447 0 0 0 0 0 0 0 0 0 0 0 0 0.625 0.75 0.375 0.522447 0.625 0.522447 0 0 0 0 0 0 0 0 0.65 0.75 0 0 0 0 0 0 0 0 0 0 0 0 0 0 0.6375001 0.5112235 0.65 0.75 0.625 0.75 0 0 0 0 0 0 0 0 0 0 0 0 0 0 0 0 0 0 0 0 0 0 0 0 0.375 0.522447 0.625 0.75 0.625 0.522447 0 0 0 0 0 0 0 0 0 0 0 0 0 0 0 0 0 0 0.375 0.522447 0.35 0.75 0.375 0.75 0.65 0.75 0.6375001 0.5112235 0.65 0.5 0 0 0.65 0.75 0 0 0 0 0 0 0 0 0.375 0.522447 0.35 0.75 0.35 0.5 0 0 0 0 0 0 0 0 0 0 0 0 0 0 0 0 0 0 0 0 0 0 0 0 0 0 0 0 0 0 0 0 0 0 0 0 0 0 0 0 0 0 0 0 0 0 0 0 0 0 0 0 0 0 0 0 0 0 0 0 0 0 0 0 0 0 0.65 0.75 0.6375001 0.5112235 0.625 0.75 0 0 0 0 0 0 0 0 0 0 0 0 0 0 0 0 0 0 0.375 0.522447 0.35 0.75 0.35 0.5 0.625 0.75 0.375 0.522447 0.625 0.522447 0 0 0 0 0 0 0 0 0 0 0 0 0.625 0.75 0.375 0.522447 0.625 0.522447 0 0 0 0 0 0 0 0 0.65 0.75 0 0 0 0 0 0 0 0 0 0 0 0 0 0 0.6375001 0.5112235 0.65 0.75 0.625 0.75 0 0 0 0 0 0 0 0 0 0 0 0 0 0 0 0 0 0 0 0 0 0 0 0 0.375 0.522447 0.625 0.75 0.625 0.522447 0 0 0 0 0 0 0 0 0 0 0 0 0 0 0 0 0 0 0.375 0.522447 0.35 0.75 0.375 0.75 0.65 0.75 0.6375001 0.5112235 0.65 0.5 0 0 0.65 0.75 0 0 0 0 0 0 0 0 0.375 0.522447 0.35 0.75 0.35 0.5 0 0 0 0 0 0 0 0 0 0 0 0 0 0 0 0 0 0 0 0 0 0 0 0 0 0 0 0 0 0 0 0 0 0 0 0 0 0 0 0 0 0 0 0 0 0 0 0 0 0 0 0 0 0 0 0 0 0 0 0 0.65 0.75 0.6375001 0.5112235 0.625 0.75 0 0 0 0 0 0 0 0 0 0 0 0 0 0 0 0 0 0 0.375 0.522447 0.35 0.75 0.35 0.5 0.625 0.75 0.375 0.522447 0.625 0.522447 0 0 0 0 0 0 0 0 0 0 0 0 0.625 0.75 0.375 0.522447 0.625 0.522447 0 0 0 0 0 0 0 0 0.65 0.75 0 0 0 0 0 0 0 0 0 0 0 0 0 0 0.6375001 0.5112235 0.65 0.75 0.625 0.75 0 0 0 0 0 0 0 0 0 0 0 0 0 0 0 0 0 0 0 0 0 0 0 0 0.375 0.522447 0.625 0.75 0.625 0.522447 0 0 0 0 0 0 0 0 0 0 0 0 0 0 0 0 0 0 0.375 0.522447 0.35 0.75 0.375 0.75 0.65 0.75 0.6375001 0.5112235 0.65 0.5 0 0 0.65 0.75 0 0 0 0 0 0 0 0 0.375 0.522447 0.35 0.75 0.35 0.5 0 0 0 0 0 0 0 0 0 0 0 0 0 0 0 0 0 0 0 0 0 0 0 0 0 0 0 0 0 0 0 0 0 0 0 0 0 0 0 0 0 0 0 0 0 0 0 0 0 0 0 0 0 0 0 0 0 0 0 0 0.65 0.75 0.6375001 0.5112235 0.625 0.75 0 0 0 0 0 0 0 0 0 0 0 0 0 0 0 0 0 0 0.375 0.522447 0.35 0.75 0.35 0.5 0.625 0.75 0.375 0.522447 0.625 0.522447 0 0 0 0 0 0 0 0 0 0 0 0 0.625 0.75 0.375 0.522447 0.625 0.522447 0 0 0 0 0 0 0 0 0.65 0.75 0 0 0 0 0 0 0 0 0 0 0 0 0 0 0.6375001 0.5112235 0.65 0.75 0.625 0.75 0 0 0 0 0 0 0 0 0 0 0 0 0 0 0 0 0 0 0 0 0 0 0 0 0.375 0.522447 0.625 0.75 0.625 0.522447 0 0 0 0 0 0 0 0 0 0 0 0 0 0 0 0 0 0 0.375 0.522447 0.35 0.75 0.375 0.75 0.65 0.75 0.6375001 0.5112235 0.65 0.5 0 0 0.65 0.75 0 0 0 0 0 0 0 0 0.375 0.522447 0.35 0.75 0.35 0.5 0 0 0 0 0 0 0 0 0 0 0 0 0 0 0 0 0 0 0 0 0 0 0 0 0 0 0 0 0 0 0 0 0 0 0 0 0 0 0 0 0 0 0 0 0 0 0 0 0 0 0 0 0 0 0 0 0 0 0 0 0.65 0.75 0.6375001 0.5112235 0.625 0.75 0 0 0 0 0 0 0 0 0 0 0 0 0 0 0 0 0 0 0.375 0.522447 0.35 0.75 0.35 0.5 0.625 0.75 0.375 0.522447 0.625 0.522447 0 0 0 0 0 0 0 0 0 0 0 0 0.625 0.75 0.375 0.522447 0.625 0.522447 0 0 0 0 0 0 0 0 0.65 0.75 0 0 0 0 0 0 0 0 0 0 0 0 0 0 0.6375001 0.5112235 0.65 0.75 0.625 0.75 0 0 0 0 0 0 0.5 0.5 0 0 0.625 0.5 0.375 0.5 0 0 0.5 0.5 0.25 0.5 0 0 0.375 0.5 0 0 0 0 0 0 0 0 0 0 0 0 0 0 0 0 0 0 0 0 0 0 0 0 0 0 0 0 0 0 0 0 0 0 0 0 0 0 0 0 0 0 0 0 0 0 0 0 0 0 0 0 0 0 0 0 0 0 0 0 0 0 0 0 0 0 0 0 0 0 0 0 0 0 0 0 0 0 0 0 0 0 0 0 0 0 0 0 0 0 0 0 0 0 0 0 0 0 0 0 0 0 0 0 0 0 0 0 0 0 0 0 0 0 0 0 0 0 0 0 0 0 0 0 0 0 0 0 0 0 0 0 0 0 0 0 0 0 0 0 0 0 0 0 0 0 0 0 0 0 0 0 0 0 0 0 0 0 0 0 0 0 0 0 0 0 0 0 0 0 0 0 0 0 0 0 0 0 0 0 0 0 0 0 0 0 0 0 0 0 0 0 0 0 0 0 0 0 0 0 0 0 0 0 0 0 0 0 0 0 0 0 0 0 0 0 0 0 0 0 0 0 0 0 0 0 0 0 0.125 1 0.125 1 0.125 0.5 0.75 1 0.625 1 0.625 0.5 0.625 1 0.5 1 0.5 0.5 0.5 1 0.375 1 0.375 0.5 0.375 1 0.25 1 0.25 0.5 0.25 0.5 0.25 1 0.125 1 0.125 0.5 0 0 0.75 1 0 0 0 0 0 0 0.75 0.5 0.75 0.5 0.75 1 0 0 0 0 0 0 0 0 0 0 0 0 0 0 0 0 0 0 0 0 0 0 0 0 0 0 0 0 0 0 0 0 0 0 0 0 0 0 0 0 0 0 0 0 0 0 0 0 0 0 0 0 0 0 0 0 0 0 0 0 0 0 0 0 0 0 0 0 0 0 0 0 0 0 0 0 0 0 0 0 0 0 0 0 0 0 0 0 0 0 0 0 0 0 0 0 0 0 0 0 0 0 0.375 0.5 0.375 0.5 0.5 0.5 0.625 0.5 0.625 0.5 0.75 0.5 0.25 0.5 0.25 0.5 0.375 0.5 0.5 0.5 0.5 0.5 0.625 0.5 0.125 0.5 0.125 0.5 0.25 0.5 0 0 0 0 0 0 0 0 0 0 0 0 0 0 0 0 0 0 0 0 0 0 0 0 0.375 0.522447 0.375 0.75 0.35 0.75 0.625 0.75 0.375 0.75 0.375 0.522447 0.625 0.75 0.375 0.75 0.375 0.522447 0 0 0 0 0 0 0 0 0 0 0 0 0 0 0 0 0 0 0.6375001 0.5112235 0.65 0.5 0.65 0.75 0 0 0.65 0.75 0 0 0.65 0.75 0.625 0.75 0.6375001 0.5112235 0 0 0 0 0 0 0 0 0 0 0 0 0.375 0.522447 0.35 0.5 0.35 0.75 0.375 0.522447 0.375 0.75 0.625 0.75 0 0 0 0 0 0 0 0 0 0 0 0 0 0 0.65 0.75 0 0 0.65 0.75 0.65 0.5 0.6375001 0.5112235 0 0 0 0 0 0 0.375 0.522447 0.375 0.75 0.35 0.75 0 0 0 0 0 0 0.375 0.522447 0.375 0.75 0.35 0.75 0.625 0.75 0.375 0.75 0.375 0.522447 0.625 0.75 0.375 0.75 0.375 0.522447 0 0 0 0 0 0 0 0 0 0 0 0 0 0 0 0 0 0 0.6375001 0.5112235 0.65 0.5 0.65 0.75 0 0 0 0 0.65 0.75 0.375 0.522447 0.375 0.75 0.625 0.75 0 0 0 0 0 0 0 0 0 0 0 0 0.375 0.522447 0.35 0.5 0.35 0.75 0.65 0.75 0.625 0.75 0.6375001 0.5112235 0 0 0 0 0.65 0.75 0.65 0.75 0.625 0.75 0.6375001 0.5112235 0.375 0.522447 0.375 0.75 0.35 0.75 0 0 0 0 0 0 0 0 0 0 0 0 0 0 0 0 0 0 0.375 0.522447 0.35 0.5 0.35 0.75 0.375 0.522447 0.375 0.75 0.625 0.75 0 0 0 0 0 0 0 0 0 0 0 0 0 0 0.65 0.75 0 0 0.65 0.75 0.65 0.5 0.6375001 0.5112235 0 0 0 0 0 0 0 0 0 0 0 0 0 0 0 0 0 0 0.375 0.522447 0.375 0.75 0.35 0.75 0.65 0.75 0.65 0.5 0.6375001 0.5112235 0 0 0 0 0 0 0 0 0 0 0 0 0 0 0 0 0 0 0.375 0.522447 0.375 0.75 0.35 0.75 0 0 0 0 0 0 0 0 0 0 0 0 0.625 0.75 0.375 0.75 0.375 0.522447 0 0 0 0 0 0 0.625 0.75 0.375 0.75 0.375 0.522447 0 0 0 0 0 0 0 0 0 0 0.65 0.75 0 0 0 0 0 0 0 0 0 0 0 0 0.6375001 0.5112235 0.65 0.5 0.65 0.75 0 0 0 0 0 0 0.375 0.522447 0.375 0.75 0.625 0.75 0 0 0 0 0 0 0 0 0 0 0 0 0.375 0.522447 0.35 0.5 0.35 0.75 0.65 0.75 0.625 0.75 0.6375001 0.5112235 0 0 0 0 0.65 0.75 0.375 0.522447 0.375 0.75 0.35 0.75 0 0 0 0 0 0 0.65 0.75 0.65 0.5 0.6375001 0.5112235 0 0 0 0 0 0 0 0 0 0 0 0 0 0 0 0 0 0 0.375 0.522447 0.375 0.75 0.35 0.75 0.625 0.75 0.375 0.75 0.375 0.522447 0 0 0 0 0 0 0.625 0.75 0.375 0.75 0.375 0.522447 0 0 0 0 0 0 0 0 0 0 0.65 0.75 0 0 0 0 0 0 0 0 0 0 0 0 0.6375001 0.5112235 0.65 0.5 0.65 0.75 0 0 0 0 0 0 0.375 0.522447 0.375 0.75 0.625 0.75 0 0 0 0 0 0 0 0 0 0 0 0 0.375 0.522447 0.35 0.5 0.35 0.75 0.65 0.75 0.625 0.75 0.6375001 0.5112235 0 0 0 0 0.65 0.75 0.375 0.522447 0.375 0.75 0.35 0.75 0 0 0 0 0 0 0 0 0 0 0 0 0.65 0.75 0.65 0.5 0.6375001 0.5112235 0 0 0 0 0 0 0 0 0 0 0 0 0 0 0 0 0 0 0.375 0.522447 0.375 0.75 0.35 0.75 0.625 0.75 0.375 0.75 0.375 0.522447 0 0 0 0 0 0 0.625 0.75 0.375 0.75 0.375 0.522447 0 0 0 0 0 0 0 0 0 0 0.65 0.75 0 0 0 0 0 0 0 0 0 0 0 0 0.6375001 0.5112235 0.65 0.5 0.65 0.75 0 0 0 0 0 0 0.375 0.522447 0.375 0.75 0.625 0.75 0 0 0 0 0 0 0 0 0 0 0 0 0.375 0.522447 0.35 0.5 0.35 0.75 0.65 0.75 0.625 0.75 0.6375001 0.5112235 0 0 0 0 0.65 0.75 0.375 0.522447 0.375 0.75 0.35 0.75 0 0 0 0 0 0 0.65 0.75 0.65 0.5 0.6375001 0.5112235 0 0 0 0 0 0 0 0 0 0 0 0 0 0 0 0 0 0 0.375 0.522447 0.375 0.75 0.35 0.75 0.625 0.75 0.375 0.75 0.375 0.522447 0 0 0 0 0 0 0.625 0.75 0.375 0.75 0.375 0.522447 0 0 0 0 0 0 0 0 0 0 0.65 0.75 0 0 0 0 0 0 0 0 0 0 0 0 0.6375001 0.5112235 0.65 0.5 0.65 0.75 0 0 0 0 0 0 0.375 0.522447 0.375 0.75 0.625 0.75 0 0 0 0 0 0 0 0 0 0 0 0 0.375 0.522447 0.35 0.5 0.35 0.75 0.65 0.75 0.625 0.75 0.6375001 0.5112235 0 0 0 0 0.65 0.75 0.375 0.522447 0.375 0.75 0.35 0.75 0 0 0 0 0 0 0.65 0.75 0.65 0.5 0.6375001 0.5112235 0 0 0 0 0 0 0 0 0 0 0 0 0 0 0 0 0 0 0.375 0.522447 0.375 0.75 0.35 0.75 0.625 0.75 0.375 0.75 0.375 0.522447 0 0 0 0 0 0 0.625 0.75 0.375 0.75 0.375 0.522447 0 0 0 0 0 0 0 0 0 0 0.65 0.75 0 0 0 0 0 0 0 0 0 0 0 0 0.6375001 0.5112235 0.65 0.5 0.65 0.75 0 0 0 0 0 0 0.375 0.522447 0.375 0.75 0.625 0.75 0 0 0 0 0 0 0 0 0 0 0 0 0.375 0.522447 0.35 0.5 0.35 0.75 0.65 0.75 0.625 0.75 0.6375001 0.5112235 0 0 0 0 0.65 0.75 0.375 0.522447 0.375 0.75 0.35 0.75 0 0 0 0 0 0 0.65 0.75 0.65 0.5 0.6375001 0.5112235 0 0 0 0 0 0 0 0 0 0 0 0 0 0 0 0 0 0 0.375 0.522447 0.375 0.75 0.35 0.75 0.625 0.75 0.375 0.75 0.375 0.522447 0 0 0 0 0 0 0.625 0.75 0.375 0.75 0.375 0.522447 0 0 0 0 0 0 0 0 0 0 0.65 0.75 0 0 0 0 0 0 0 0 0 0 0 0 0.6375001 0.5112235 0.65 0.5 0.65 0.75 0 0 0 0 0 0 0 0 0 0 0 0 0 0 0 0 0 0 0 0 0 0 0 0 0 0 0 0 0 0 0 0 0 0 0 0 0 0 0 0 0 0 0 0 0 0 0 0 0 0 0 0 0 0 0 0 0 0 0 0 0 0 0 0 0 0 0 0 0 0 0 0 0 0 0 0 0 0 0 0 0 0 0 0 0 0 0 0 0 0 0 0 0 0 0 0 0 0 0 0 0 0 0 0 0 0 0 0 0 0 0 0 0 0 0 0 0 0 0 0 0 0 0 0 0 0 0 0 0 0 0 0 0 0 0 0 0 0 0 0 0 0 0 0 0 0 0 0 0 0 0 0 0 0 0 0 0 0 0 0 0 0 0 0 0 0 0 0 0 0 0 0 0 0 0 0 0 0 0 0 0 0 0 0 0 0 0 0 0 0 0 0 0 0 0 0 0 0</float_array>
          <technique_common>
            <accessor source="#Cube-mesh-map-0-array" count="1890" stride="2">
              <param name="S" type="float"/>
              <param name="T" type="float"/>
            </accessor>
          </technique_common>
        </source>
        <vertices id="Cube-mesh-vertices">
          <input semantic="POSITION" source="#Cube-mesh-positions"/>
        </vertices>
        <triangles material="paintable-0-material" count="614">
          <input semantic="VERTEX" source="#Cube-mesh-vertices" offset="0"/>
          <input semantic="NORMAL" source="#Cube-mesh-normals" offset="1"/>
          <input semantic="TEXCOORD" source="#Cube-mesh-map-0" offset="2" set="0"/>
          <p>15 0 0 34 0 1 35 0 2 16 1 3 0 1 4 29 1 5 17 2 6 1 2 7 0 2 8 14 3 9 2 3 10 1 3 11 24 4 12 3 4 13 2 4 14 3 5 15 15 5 16 35 5 17 34 6 18 5 6 19 28 6 20 17 7 21 23 7 22 14 7 23 29 8 24 5 8 25 16 8 26 10 9 27 8 9 28 6 9 29 11 10 30 9 10 31 7 10 32 18 11 33 7 11 34 26 11 35 6 12 36 25 12 37 13 12 38 6 13 39 13 13 40 11 13 41 6 14 42 7 14 43 10 14 44 7 15 45 23 15 46 26 15 47 8 16 48 22 16 49 6 16 50 8 17 51 20 17 52 21 17 53 202 18 54 32 18 55 31 18 56 9 19 57 19 19 58 23 19 59 11 20 60 25 20 61 19 20 62 12 21 63 20 21 64 10 21 65 12 22 66 10 22 67 7 22 68 15 23 69 21 23 70 4 23 71 5 24 72 21 24 73 20 24 74 22 25 75 27 25 76 25 25 77 17 26 78 18 26 79 26 26 80 27 27 81 19 27 82 25 27 83 16 28 84 20 28 85 18 28 86 23 29 87 24 29 88 14 29 89 2 30 90 276 30 91 1 30 92 0 31 93 137 31 94 29 31 95 3 32 96 248 32 97 2 32 98 1 33 99 275 33 100 0 33 101 200 34 102 35 34 103 32 34 104 35 35 105 225 35 106 3 35 107 201 36 108 30 36 109 174 36 110 33 37 111 174 37 112 30 37 113 33 38 114 29 38 115 137 38 116 275 39 117 52 39 118 66 39 119 34 40 120 30 40 121 31 40 122 31 41 123 35 41 124 34 41 125 28 42 126 29 42 127 30 42 128 31 43 129 32 43 130 35 43 131 29 44 132 33 44 133 30 44 134 200 45 135 82 45 136 122 45 137 52 46 138 45 46 139 43 46 140 46 47 141 45 47 142 51 47 143 42 48 144 46 48 145 47 48 146 40 49 147 63 49 148 48 49 149 253 50 150 42 50 151 44 50 152 51 51 153 47 51 154 46 51 155 63 52 156 52 52 157 48 52 158 48 53 159 43 53 160 40 53 161 40 54 162 45 54 163 41 54 164 44 55 165 47 55 166 49 55 167 255 56 168 44 56 169 49 56 170 60 57 171 66 57 172 58 57 173 61 58 174 60 58 175 56 58 176 61 59 177 57 59 178 62 59 179 57 60 180 97 60 181 59 60 182 62 61 183 65 61 184 61 61 185 60 62 186 55 62 187 56 62 188 59 63 189 62 63 190 57 63 191 59 64 192 99 64 193 64 64 194 99 65 195 137 65 196 64 65 197 137 66 198 275 66 199 66 66 200 64 67 201 137 67 202 65 67 203 275 68 204 255 68 205 49 68 206 275 69 207 49 69 208 51 69 209 65 70 210 137 70 211 66 70 212 275 71 213 51 71 214 52 71 215 63 72 216 58 72 217 66 72 218 87 73 219 174 73 220 86 73 221 137 74 222 99 74 223 101 74 224 82 75 225 75 75 226 73 75 227 76 76 228 75 76 229 80 76 230 137 77 231 101 77 232 100 77 233 72 78 234 76 78 235 77 78 236 70 79 237 118 79 238 78 79 239 67 80 240 72 80 241 74 80 242 80 81 243 77 81 244 76 81 245 78 82 246 122 82 247 82 82 248 78 83 249 73 83 250 70 83 251 71 84 252 73 84 253 75 84 254 90 85 255 94 85 256 89 85 257 94 86 258 158 86 259 92 86 260 160 87 261 174 87 262 87 87 263 286 88 264 143 88 265 124 88 266 90 89 267 91 89 268 95 89 269 107 90 270 103 90 271 101 90 272 95 91 273 93 91 274 96 91 275 129 92 276 141 92 277 128 92 278 74 93 279 77 93 280 79 93 281 88 94 282 93 94 283 84 94 284 125 95 285 129 95 286 128 95 287 141 96 288 95 96 289 96 96 290 109 97 291 129 97 292 125 97 293 141 98 294 94 98 295 95 98 296 141 99 297 139 99 298 94 99 299 134 100 300 129 100 301 109 100 302 141 101 303 96 101 304 128 101 305 137 103 309 100 103 310 98 103 311 37 104 312 74 104 313 79 104 314 115 105 315 122 105 316 113 105 317 116 106 318 115 106 319 111 106 320 116 107 321 112 107 322 117 107 323 112 108 324 209 108 325 114 108 326 116 109 327 119 109 328 120 109 329 115 110 330 110 110 331 111 110 332 114 111 333 117 111 334 112 111 335 114 112 336 211 112 337 119 112 338 286 113 339 251 113 340 290 113 341 289 114 342 69 114 343 287 114 344 211 115 345 225 115 346 119 115 347 225 116 348 200 116 349 122 116 350 119 117 351 225 117 352 120 117 353 200 118 354 37 118 355 79 118 356 200 119 357 79 119 358 80 119 359 120 120 360 225 120 361 122 120 362 200 121 363 80 121 364 82 121 365 118 122 366 113 122 367 122 122 368 86 123 369 174 123 370 84 123 371 174 124 372 137 124 373 84 124 374 92 125 375 89 125 376 94 125 377 89 126 378 86 126 379 90 126 380 92 127 381 160 127 382 87 127 383 6 128 384 11 128 385 7 128 386 98 129 387 106 129 388 108 129 389 104 130 390 106 130 391 100 130 392 109 133 399 104 133 400 103 133 401 142 134 402 110 134 403 70 134 404 137 135 405 98 135 406 84 135 407 129 136 408 55 136 409 40 136 410 100 137 411 103 137 412 104 137 413 223 138 414 249 138 415 42 138 416 249 139 417 129 139 418 40 139 419 42 140 420 249 140 421 41 140 422 129 141 423 134 141 424 57 141 425 129 142 426 57 142 427 56 142 428 41 143 429 249 143 430 40 143 431 129 144 432 56 144 433 55 144 434 133 145 435 85 145 436 72 145 437 85 146 438 142 146 439 70 146 440 72 147 441 85 147 442 71 147 443 142 148 444 138 148 445 112 148 446 142 149 447 112 149 448 111 149 449 71 150 450 85 150 451 70 150 452 142 151 453 111 151 454 110 151 455 128 152 456 88 152 457 102 152 458 97 153 459 109 153 460 107 153 461 125 154 462 108 154 463 106 154 464 99 155 465 107 155 466 101 155 467 91 156 468 84 156 469 93 156 470 102 157 471 108 157 472 128 157 473 88 158 474 98 158 475 102 158 476 148 159 477 201 159 478 147 159 479 174 160 480 160 160 481 162 160 482 174 161 483 162 161 484 161 161 485 151 162 486 155 162 487 150 162 488 155 163 489 186 163 490 153 163 491 188 164 492 201 164 493 148 164 494 288 165 495 143 165 496 285 165 497 151 166 498 152 166 499 156 166 500 167 167 501 164 167 502 162 167 503 156 168 504 154 168 505 157 168 506 141 169 507 83 169 508 171 169 509 149 170 510 154 170 511 145 170 512 170 171 513 141 171 514 171 171 515 83 172 516 156 172 517 157 172 518 169 173 519 141 173 520 170 173 521 83 174 522 155 174 523 156 174 524 83 175 525 130 175 526 155 175 527 139 176 528 141 176 529 169 176 530 83 177 531 157 177 532 171 177 533 174 179 537 161 179 538 159 179 539 147 180 540 201 180 541 145 180 542 201 181 543 174 181 544 145 181 545 153 182 546 150 182 547 155 182 548 150 183 549 147 183 550 151 183 551 153 184 552 188 184 553 148 184 554 159 185 555 166 185 556 168 185 557 165 186 558 166 186 559 161 186 560 169 187 561 165 187 562 164 187 563 174 188 564 159 188 565 145 188 566 161 189 567 164 189 568 165 189 569 171 190 570 149 190 571 163 190 572 158 191 573 169 191 574 167 191 575 170 192 576 168 192 577 166 192 578 160 193 579 167 193 580 162 193 581 152 194 582 145 194 583 154 194 584 163 195 585 168 195 586 171 195 587 149 196 588 159 196 589 163 196 590 176 197 591 200 197 592 175 197 593 201 198 594 188 198 595 190 198 596 201 199 597 190 199 598 189 199 599 179 200 600 183 200 601 178 200 602 183 201 603 67 201 604 181 201 605 37 202 606 200 202 607 176 202 608 287 203 609 68 203 610 288 203 611 179 204 612 180 204 613 184 204 614 195 205 615 192 205 616 190 205 617 184 206 618 182 206 619 185 206 620 83 207 621 85 207 622 199 207 623 177 208 624 182 208 625 39 208 626 198 209 627 83 209 628 199 209 629 85 210 630 184 210 631 185 210 632 197 211 633 83 211 634 198 211 635 85 212 636 183 212 637 184 212 638 85 213 639 133 213 640 183 213 641 130 214 642 83 214 643 197 214 644 85 215 645 185 215 646 199 215 647 201 217 651 189 217 652 187 217 653 175 218 654 200 218 655 39 218 656 202 219 657 39 219 658 200 219 659 181 220 660 178 220 661 183 220 662 179 221 663 176 221 664 175 221 665 181 222 666 37 222 667 176 222 668 187 223 669 194 223 670 196 223 671 193 224 672 194 224 673 189 224 674 197 225 675 193 225 676 192 225 677 201 226 678 187 226 679 39 226 680 189 227 681 192 227 682 193 227 683 199 228 684 177 228 685 191 228 686 186 229 687 197 229 688 195 229 689 198 230 690 196 230 691 194 230 692 188 231 693 195 231 694 190 231 695 180 232 696 39 232 697 182 232 698 191 233 699 196 233 700 199 233 701 177 234 702 187 234 703 191 234 704 126 235 705 248 235 706 131 235 707 225 236 708 211 236 709 213 236 710 225 237 711 213 237 712 212 237 713 50 238 714 206 238 715 81 238 716 206 239 717 234 239 718 204 239 719 236 240 720 248 240 721 126 240 722 291 241 723 146 241 724 289 241 725 50 242 726 38 242 727 207 242 728 218 243 729 215 243 730 213 243 731 207 244 732 205 244 733 208 244 734 142 245 735 226 245 736 222 245 737 105 246 738 205 246 739 173 246 740 221 247 741 142 247 742 222 247 743 226 248 744 207 248 745 208 248 746 220 249 747 142 249 748 221 249 749 226 250 750 206 250 751 207 250 752 226 251 753 53 251 754 206 251 755 138 252 756 142 252 757 220 252 758 226 253 759 208 253 760 222 253 761 225 255 765 212 255 766 210 255 767 131 256 768 248 256 769 173 256 770 204 257 771 81 257 772 206 257 773 50 258 774 126 258 775 131 258 776 204 259 777 236 259 778 126 259 779 210 260 780 217 260 781 219 260 782 216 261 783 217 261 784 212 261 785 220 262 786 216 262 787 215 262 788 225 263 789 210 263 790 173 263 791 212 264 792 215 264 793 216 264 794 222 265 795 105 265 796 214 265 797 209 266 798 220 266 799 218 266 800 221 267 801 219 267 802 217 267 803 211 268 804 218 268 805 213 268 806 38 269 807 173 269 808 205 269 809 214 270 810 219 270 811 222 270 812 105 271 813 210 271 814 214 271 815 121 272 816 276 272 817 54 272 818 248 273 819 236 273 820 238 273 821 248 274 822 238 274 823 237 274 824 132 275 825 231 275 826 127 275 827 231 276 828 261 276 829 229 276 830 263 277 831 276 277 832 121 277 833 292 278 834 227 278 835 291 278 836 132 279 837 136 279 838 232 279 839 243 280 840 240 280 841 238 280 842 232 281 843 230 281 844 233 281 845 226 282 846 250 282 847 247 282 848 123 283 849 230 283 850 228 283 851 246 284 852 226 284 853 247 284 854 250 285 855 232 285 856 233 285 857 245 286 858 226 286 859 246 286 860 250 287 861 231 287 862 232 287 863 250 288 864 224 288 865 231 288 866 53 289 867 226 289 868 245 289 869 250 290 870 233 290 871 247 290 872 248 292 876 237 292 877 235 292 878 54 293 879 276 293 880 228 293 881 229 294 882 127 294 883 231 294 884 127 295 885 54 295 886 132 295 887 229 296 888 263 296 889 121 296 890 235 297 891 242 297 892 244 297 893 241 298 894 242 298 895 237 298 896 245 299 897 241 299 898 240 299 899 248 300 900 235 300 901 228 300 902 237 301 903 240 301 904 241 301 905 247 302 906 123 302 907 239 302 908 234 303 909 245 303 910 243 303 911 246 304 912 244 304 913 242 304 914 236 305 915 243 305 916 238 305 917 136 306 918 228 306 919 230 306 920 239 307 921 244 307 922 247 307 923 123 308 924 235 308 925 239 308 926 172 309 927 275 309 928 203 309 929 276 310 930 263 310 931 265 310 932 276 311 933 265 311 934 264 311 935 135 312 936 258 312 937 140 312 938 258 313 939 253 313 940 256 313 941 255 314 942 275 314 943 172 314 944 290 315 945 252 315 946 292 315 947 135 316 948 36 316 949 259 316 950 270 317 951 267 317 952 265 317 953 259 318 954 257 318 955 260 318 956 250 319 957 249 319 958 274 319 959 144 320 960 257 320 961 254 320 962 273 321 963 250 321 964 274 321 965 249 322 966 259 322 967 260 322 968 272 323 969 250 323 970 273 323 971 249 324 972 258 324 973 259 324 974 249 325 975 223 325 976 258 325 977 224 326 978 250 326 979 272 326 980 249 327 981 260 327 982 274 327 983 276 329 987 264 329 988 262 329 989 203 330 990 275 330 991 254 330 992 256 331 993 140 331 994 258 331 995 140 332 996 203 332 997 135 332 998 256 333 999 255 333 1000 172 333 1001 262 334 1002 269 334 1003 271 334 1004 268 335 1005 269 335 1006 264 335 1007 272 336 1008 268 336 1009 267 336 1010 276 337 1011 262 337 1012 254 337 1013 264 338 1014 267 338 1015 268 338 1016 274 339 1017 144 339 1018 266 339 1019 261 340 1020 272 340 1021 270 340 1022 273 341 1023 271 341 1024 269 341 1025 263 342 1026 270 342 1027 265 342 1028 36 343 1029 254 343 1030 257 343 1031 266 344 1032 271 344 1033 274 344 1034 144 345 1035 262 345 1036 266 345 1037 276 346 1038 254 346 1039 275 346 1040 248 347 1041 228 347 1042 276 347 1043 225 348 1044 173 348 1045 248 348 1046 282 349 1047 308 349 1048 306 349 1049 277 350 1050 286 350 1051 278 350 1052 280 351 1053 287 351 1054 288 351 1055 280 352 1056 285 352 1057 277 352 1058 281 353 1059 287 353 1060 279 353 1061 278 354 1062 290 354 1063 282 354 1064 281 355 1065 291 355 1066 289 355 1067 282 356 1068 292 356 1069 284 356 1070 284 357 1071 291 357 1072 283 357 1073 294 358 1074 309 358 1075 293 358 1076 282 359 1077 302 359 1078 278 359 1079 277 360 1080 304 360 1081 280 360 1082 278 361 1083 301 361 1084 277 361 1085 283 362 1086 308 362 1087 284 362 1088 281 363 1089 307 363 1090 283 363 1091 279 364 1092 305 364 1093 281 364 1094 279 365 1095 304 365 1096 303 365 1097 293 366 1098 302 366 1099 294 366 1100 295 367 1101 304 367 1102 296 367 1103 293 368 1104 304 368 1105 301 368 1106 297 369 1107 303 369 1108 295 369 1109 298 370 1110 302 370 1111 306 370 1112 297 371 1113 307 371 1114 305 371 1115 298 372 1116 308 372 1117 300 372 1118 299 373 1119 308 373 1120 307 373 1121 312 374 1122 310 374 1123 316 374 1124 299 375 1125 316 375 1126 300 375 1127 299 376 1128 313 376 1129 315 376 1130 297 377 1131 311 377 1132 313 377 1133 296 378 1134 311 378 1135 295 378 1136 300 379 1137 314 379 1138 298 379 1139 294 380 1140 314 380 1141 310 380 1142 293 381 1143 312 381 1144 296 381 1145 312 382 1146 309 382 1147 310 382 1148 310 383 1149 314 383 1150 316 383 1151 316 384 1152 315 384 1153 313 384 1154 313 385 1155 311 385 1156 316 385 1157 311 386 1158 312 386 1159 316 386 1160 15 387 1161 4 387 1162 34 387 1163 16 388 1164 17 388 1165 0 388 1166 17 389 1167 14 389 1168 1 389 1169 14 390 1170 24 390 1171 2 390 1172 24 391 1173 27 391 1174 3 391 1175 3 392 1176 27 392 1177 15 392 1178 34 393 1179 4 393 1180 5 393 1181 17 394 1182 26 394 1183 23 394 1184 29 395 1185 28 395 1186 5 395 1187 18 396 1188 12 396 1189 7 396 1190 6 397 1191 22 397 1192 25 397 1193 7 398 1194 9 398 1195 23 398 1196 8 399 1197 21 399 1198 22 399 1199 8 400 1200 10 400 1201 20 400 1202 31 401 1203 201 401 1204 202 401 1205 202 402 1206 200 402 1207 32 402 1208 9 403 1209 11 403 1210 19 403 1211 11 404 1212 13 404 1213 25 404 1214 12 405 1215 18 405 1216 20 405 1217 15 406 1218 22 406 1219 21 406 1220 5 407 1221 4 407 1222 21 407 1223 22 408 1224 15 408 1225 27 408 1226 17 409 1227 16 409 1228 18 409 1229 27 410 1230 24 410 1231 19 410 1232 16 411 1233 5 411 1234 20 411 1235 23 412 1236 19 412 1237 24 412 1238 2 413 1239 248 413 1240 276 413 1241 0 414 1242 275 414 1243 137 414 1244 3 415 1245 225 415 1246 248 415 1247 1 416 1248 276 416 1249 275 416 1250 35 417 1251 200 417 1252 225 417 1253 201 418 1254 31 418 1255 30 418 1256 33 419 1257 137 419 1258 174 419 1259 34 420 1260 28 420 1261 30 420 1262 52 421 1263 51 421 1264 45 421 1265 46 422 1266 41 422 1267 45 422 1268 42 423 1269 41 423 1270 46 423 1271 40 424 1272 55 424 1273 63 424 1274 253 425 1275 223 425 1276 42 425 1277 51 426 1278 49 426 1279 47 426 1280 63 427 1281 66 427 1282 52 427 1283 48 428 1284 52 428 1285 43 428 1286 40 429 1287 43 429 1288 45 429 1289 44 430 1290 42 430 1291 47 430 1292 255 431 1293 253 431 1294 44 431 1295 60 432 1296 65 432 1297 66 432 1298 61 433 1299 65 433 1300 60 433 1301 61 434 1302 56 434 1303 57 434 1304 57 435 1305 134 435 1306 97 435 1307 62 436 1308 64 436 1309 65 436 1310 60 437 1311 58 437 1312 55 437 1313 59 438 1314 64 438 1315 62 438 1316 59 439 1317 97 439 1318 99 439 1319 63 440 1320 55 440 1321 58 440 1322 82 441 1323 80 441 1324 75 441 1325 76 442 1326 71 442 1327 75 442 1328 72 443 1329 71 443 1330 76 443 1331 70 444 1332 110 444 1333 118 444 1334 67 445 1335 133 445 1336 72 445 1337 80 446 1338 79 446 1339 77 446 1340 78 447 1341 118 447 1342 122 447 1343 78 448 1344 82 448 1345 73 448 1346 71 449 1347 70 449 1348 73 449 1349 90 450 1350 95 450 1351 94 450 1352 94 451 1353 139 451 1354 158 451 1355 286 452 1356 285 452 1357 143 452 1358 90 453 1359 86 453 1360 91 453 1361 107 454 1362 109 454 1363 103 454 1364 95 455 1365 91 455 1366 93 455 1367 74 456 1368 72 456 1369 77 456 1370 88 457 1371 96 457 1372 93 457 1373 37 459 1377 67 459 1378 74 459 1379 115 460 1380 120 460 1381 122 460 1382 116 461 1383 120 461 1384 115 461 1385 116 462 1386 111 462 1387 112 462 1388 112 463 1389 138 463 1390 209 463 1391 116 464 1392 117 464 1393 119 464 1394 115 465 1395 113 465 1396 110 465 1397 114 466 1398 119 466 1399 117 466 1400 114 467 1401 209 467 1402 211 467 1403 286 468 1404 124 468 1405 251 468 1406 289 469 1407 146 469 1408 69 469 1409 118 470 1410 110 470 1411 113 470 1412 92 471 1413 87 471 1414 89 471 1415 89 472 1416 87 472 1417 86 472 1418 92 473 1419 158 473 1420 160 473 1421 98 474 1422 100 474 1423 106 474 1424 104 475 1425 125 475 1426 106 475 1427 109 478 1434 125 478 1435 104 478 1436 100 479 1437 101 479 1438 103 479 1439 128 480 1440 96 480 1441 88 480 1442 97 481 1443 134 481 1444 109 481 1445 125 482 1446 128 482 1447 108 482 1448 99 483 1449 97 483 1450 107 483 1451 91 484 1452 86 484 1453 84 484 1454 102 485 1455 98 485 1456 108 485 1457 88 486 1458 84 486 1459 98 486 1460 151 487 1461 156 487 1462 155 487 1463 155 488 1464 130 488 1465 186 488 1466 288 489 1467 68 489 1468 143 489 1469 151 490 1470 147 490 1471 152 490 1472 167 491 1473 169 491 1474 164 491 1475 156 492 1476 152 492 1477 154 492 1478 149 493 1479 157 493 1480 154 493 1481 153 495 1485 148 495 1486 150 495 1487 150 496 1488 148 496 1489 147 496 1490 153 497 1491 186 497 1492 188 497 1493 159 498 1494 161 498 1495 166 498 1496 165 499 1497 170 499 1498 166 499 1499 169 500 1500 170 500 1501 165 500 1502 161 501 1503 162 501 1504 164 501 1505 171 502 1506 157 502 1507 149 502 1508 158 503 1509 139 503 1510 169 503 1511 170 504 1512 171 504 1513 168 504 1514 160 505 1515 158 505 1516 167 505 1517 152 506 1518 147 506 1519 145 506 1520 163 507 1521 159 507 1522 168 507 1523 149 508 1524 145 508 1525 159 508 1526 179 509 1527 184 509 1528 183 509 1529 183 510 1530 133 510 1531 67 510 1532 287 511 1533 69 511 1534 68 511 1535 179 512 1536 175 512 1537 180 512 1538 195 513 1539 197 513 1540 192 513 1541 184 514 1542 180 514 1543 182 514 1544 177 515 1545 185 515 1546 182 515 1547 202 517 1551 201 517 1552 39 517 1553 181 518 1554 176 518 1555 178 518 1556 179 519 1557 178 519 1558 176 519 1559 181 520 1560 67 520 1561 37 520 1562 187 521 1563 189 521 1564 194 521 1565 193 522 1566 198 522 1567 194 522 1568 197 523 1569 198 523 1570 193 523 1571 189 524 1572 190 524 1573 192 524 1574 199 525 1575 185 525 1576 177 525 1577 186 526 1578 130 526 1579 197 526 1580 198 527 1581 199 527 1582 196 527 1583 188 528 1584 186 528 1585 195 528 1586 180 529 1587 175 529 1588 39 529 1589 191 530 1590 187 530 1591 196 530 1592 177 531 1593 39 531 1594 187 531 1595 50 532 1596 207 532 1597 206 532 1598 206 533 1599 53 533 1600 234 533 1601 291 534 1602 227 534 1603 146 534 1604 50 535 1605 131 535 1606 38 535 1607 218 536 1608 220 536 1609 215 536 1610 207 537 1611 38 537 1612 205 537 1613 105 538 1614 208 538 1615 205 538 1616 204 540 1620 126 540 1621 81 540 1622 50 541 1623 81 541 1624 126 541 1625 204 542 1626 234 542 1627 236 542 1628 210 543 1629 212 543 1630 217 543 1631 216 544 1632 221 544 1633 217 544 1634 220 545 1635 221 545 1636 216 545 1637 212 546 1638 213 546 1639 215 546 1640 222 547 1641 208 547 1642 105 547 1643 209 548 1644 138 548 1645 220 548 1646 221 549 1647 222 549 1648 219 549 1649 211 550 1650 209 550 1651 218 550 1652 38 551 1653 131 551 1654 173 551 1655 214 552 1656 210 552 1657 219 552 1658 105 553 1659 173 553 1660 210 553 1661 132 554 1662 232 554 1663 231 554 1664 231 555 1665 224 555 1666 261 555 1667 292 556 1668 252 556 1669 227 556 1670 132 557 1671 54 557 1672 136 557 1673 243 558 1674 245 558 1675 240 558 1676 232 559 1677 136 559 1678 230 559 1679 123 560 1680 233 560 1681 230 560 1682 229 562 1686 121 562 1687 127 562 1688 127 563 1689 121 563 1690 54 563 1691 229 564 1692 261 564 1693 263 564 1694 235 565 1695 237 565 1696 242 565 1697 241 566 1698 246 566 1699 242 566 1700 245 567 1701 246 567 1702 241 567 1703 237 568 1704 238 568 1705 240 568 1706 247 569 1707 233 569 1708 123 569 1709 234 570 1710 53 570 1711 245 570 1712 246 571 1713 247 571 1714 244 571 1715 236 572 1716 234 572 1717 243 572 1718 136 573 1719 54 573 1720 228 573 1721 239 574 1722 235 574 1723 244 574 1724 123 575 1725 228 575 1726 235 575 1727 135 576 1728 259 576 1729 258 576 1730 258 577 1731 223 577 1732 253 577 1733 290 578 1734 251 578 1735 252 578 1736 135 579 1737 203 579 1738 36 579 1739 270 580 1740 272 580 1741 267 580 1742 259 581 1743 36 581 1744 257 581 1745 144 582 1746 260 582 1747 257 582 1748 256 584 1752 172 584 1753 140 584 1754 140 585 1755 172 585 1756 203 585 1757 256 586 1758 253 586 1759 255 586 1760 262 587 1761 264 587 1762 269 587 1763 268 588 1764 273 588 1765 269 588 1766 272 589 1767 273 589 1768 268 589 1769 264 590 1770 265 590 1771 267 590 1772 274 591 1773 260 591 1774 144 591 1775 261 592 1776 224 592 1777 272 592 1778 273 593 1779 274 593 1780 271 593 1781 263 594 1782 261 594 1783 270 594 1784 36 595 1785 203 595 1786 254 595 1787 266 596 1788 262 596 1789 271 596 1790 144 597 1791 254 597 1792 262 597 1793 282 598 1794 284 598 1795 308 598 1796 277 599 1797 285 599 1798 286 599 1799 280 600 1800 279 600 1801 287 600 1802 280 601 1803 288 601 1804 285 601 1805 281 602 1806 289 602 1807 287 602 1808 278 603 1809 286 603 1810 290 603 1811 281 604 1812 283 604 1813 291 604 1814 282 605 1815 290 605 1816 292 605 1817 284 606 1818 292 606 1819 291 606 1820 294 607 1821 310 607 1822 309 607 1823 282 608 1824 306 608 1825 302 608 1826 277 609 1827 301 609 1828 304 609 1829 278 610 1830 302 610 1831 301 610 1832 283 611 1833 307 611 1834 308 611 1835 281 612 1836 305 612 1837 307 612 1838 279 613 1839 303 613 1840 305 613 1841 279 614 1842 280 614 1843 304 614 1844 293 615 1845 301 615 1846 302 615 1847 295 616 1848 303 616 1849 304 616 1850 293 617 1851 296 617 1852 304 617 1853 297 618 1854 305 618 1855 303 618 1856 298 619 1857 294 619 1858 302 619 1859 297 620 1860 299 620 1861 307 620 1862 298 621 1863 306 621 1864 308 621 1865 299 622 1866 300 622 1867 308 622 1868 299 623 1869 315 623 1870 316 623 1871 299 624 1872 297 624 1873 313 624 1874 297 625 1875 295 625 1876 311 625 1877 296 626 1878 312 626 1879 311 626 1880 300 627 1881 316 627 1882 314 627 1883 294 628 1884 298 628 1885 314 628 1886 293 629 1887 309 629 1888 312 629 1889</p>
        </triangles>
        <triangles material="lightgray-material" count="16">
          <input semantic="VERTEX" source="#Cube-mesh-vertices" offset="0"/>
          <input semantic="NORMAL" source="#Cube-mesh-normals" offset="1"/>
          <input semantic="TEXCOORD" source="#Cube-mesh-map-0" offset="2" set="0"/>
          <p>124 102 306 141 102 307 129 102 308 146 131 393 85 131 394 69 131 395 251 132 396 129 132 397 249 132 398 68 178 534 141 178 535 143 178 536 69 216 648 83 216 649 68 216 650 227 254 762 142 254 763 146 254 764 252 291 873 226 291 874 227 291 875 251 328 984 250 328 985 252 328 986 124 458 1374 143 458 1375 141 458 1376 146 476 1428 142 476 1429 85 476 1430 251 477 1431 124 477 1432 129 477 1433 68 494 1482 83 494 1483 141 494 1484 69 516 1548 85 516 1549 83 516 1550 227 539 1617 226 539 1618 142 539 1619 252 561 1683 250 561 1684 226 561 1685 251 583 1749 249 583 1750 250 583 1751</p>
        </triangles>
      </mesh>
    </geometry>
  </library_geometries>
  <library_visual_scenes>
    <visual_scene id="Scene" name="Scene">
      <node id="Cube" name="Cube" type="NODE">
        <matrix sid="transform">1 0 0 0 0 1 0 0 0 0 1 0 0 0 0 1</matrix>
        <instance_geometry url="#Cube-mesh" name="Cube">
          <bind_material>
            <technique_common>
              <instance_material symbol="paintable-0-material" target="#paintable-0-material">
                <bind_vertex_input semantic="UVMap" input_semantic="TEXCOORD" input_set="0"/>
              </instance_material>
              <instance_material symbol="paintable-1-material" target="#paintable-1-material">
                <bind_vertex_input semantic="UVMap" input_semantic="TEXCOORD" input_set="0"/>
              </instance_material>
              <instance_material symbol="lightgray-material" target="#lightgray-material">
                <bind_vertex_input semantic="UVMap" input_semantic="TEXCOORD" input_set="0"/>
              </instance_material>
              <instance_material symbol="Material-material" target="#Material-material">
                <bind_vertex_input semantic="UVMap" input_semantic="TEXCOORD" input_set="0"/>
              </instance_material>
              <instance_material symbol="Material_001-material" target="#Material_001-material">
                <bind_vertex_input semantic="UVMap" input_semantic="TEXCOORD" input_set="0"/>
              </instance_material>
            </technique_common>
          </bind_material>
        </instance_geometry>
      </node>
    </visual_scene>
  </library_visual_scenes>
  <scene>
    <instance_visual_scene url="#Scene"/>
  </scene>
</COLLADA>