<?xml version="1.0" encoding="utf-8"?>
<COLLADA xmlns="http://www.collada.org/2005/11/COLLADASchema" version="1.4.1" xmlns:xsi="http://www.w3.org/2001/XMLSchema-instance">
  <asset>
    <contributor>
      <author>Blender User</author>
      <authoring_tool>Blender 4.2.22 LTS commit date:2026-06-22, commit time:11:10, hash:88937221abfc</authoring_tool>
    </contributor>
    <created>2026-07-20T15:29:33</created>
    <modified>2026-07-20T15:29:33</modified>
    <unit name="meter" meter="1"/>
    <up_axis>Z_UP</up_axis>
  </asset>
  <library_effects>
    <effect id="paintable-0-effect">
      <profile_COMMON>
        <technique sid="common">
          <lambert>
            <emission>
              <color sid="emission">0 0 0 1</color>
            </emission>
            <diffuse>
              <color sid="diffuse">1 0.4969335 0 1</color>
            </diffuse>
            <index_of_refraction>
              <float sid="ior">1.45</float>
            </index_of_refraction>
          </lambert>
        </technique>
      </profile_COMMON>
    </effect>
    <effect id="paintable-1-effect">
      <profile_COMMON>
        <technique sid="common">
          <lambert>
            <emission>
              <color sid="emission">0 0 0 1</color>
            </emission>
            <diffuse>
              <color sid="diffuse">0.6104922 0.4910214 0 1</color>
            </diffuse>
            <index_of_refraction>
              <float sid="ior">1.5</float>
            </index_of_refraction>
          </lambert>
        </technique>
      </profile_COMMON>
    </effect>
    <effect id="lightgrey-effect">
      <profile_COMMON>
        <technique sid="common">
          <lambert>
            <emission>
              <color sid="emission">0 0 0 1</color>
            </emission>
            <diffuse>
              <color sid="diffuse">0.7835327 0.7835385 0.7835382 1</color>
            </diffuse>
            <index_of_refraction>
              <float sid="ior">1.5</float>
            </index_of_refraction>
          </lambert>
        </technique>
      </profile_COMMON>
    </effect>
    <effect id="darkgrey-effect">
      <profile_COMMON>
        <technique sid="common">
          <lambert>
            <emission>
              <color sid="emission">0 0 0 1</color>
            </emission>
            <diffuse>
              <color sid="diffuse">0.3371614 0.3371639 0.3371637 1</color>
            </diffuse>
            <index_of_refraction>
              <float sid="ior">1.5</float>
            </index_of_refraction>
          </lambert>
        </technique>
      </profile_COMMON>
    </effect>
    <effect id="Material-effect">
      <profile_COMMON>
        <technique sid="common">
          <lambert>
            <emission>
              <color sid="emission">0 0 0 1</color>
            </emission>
            <diffuse>
              <color sid="diffuse">1 0.4969335 0 1</color>
            </diffuse>
            <index_of_refraction>
              <float sid="ior">1.45</float>
            </index_of_refraction>
          </lambert>
        </technique>
      </profile_COMMON>
    </effect>
  </library_effects>
  <library_images/>
  <library_materials>
    <material id="paintable-0-material" name="paintable-0">
      <instance_effect url="#paintable-0-effect"/>
    </material>
    <material id="paintable-1-material" name="paintable-1">
      <instance_effect url="#paintable-1-effect"/>
    </material>
    <material id="lightgrey-material" name="lightgrey">
      <instance_effect url="#lightgrey-effect"/>
    </material>
    <material id="darkgrey-material" name="darkgrey">
      <instance_effect url="#darkgrey-effect"/>
    </material>
    <material id="Material-material" name="Material">
      <instance_effect url="#Material-effect"/>
    </material>
  </library_materials>
  <library_geometries>
    <geometry id="Cube-mesh" name="Cube">
      <mesh>
        <source id="Cube-mesh-positions">
          <float_array id="Cube-mesh-positions-array" count="456">-0.07499998 -0.08499997 -0.125 0.07499998 -0.08499997 -0.125 0.06249946 -0.125 0.02588814 0.02588808 -0.125 0.0625 -0.02588814 -0.125 -0.0625 0.02588808 -0.125 -0.0625 0.06249946 -0.125 -0.02588814 -0.06249952 -0.125 -0.02588814 -0.06249952 -0.125 0.02588814 -0.02588814 -0.125 0.0625 0.06249946 -0.09999996 0.02588814 0.02588808 -0.1 0.0625 -0.02588814 -0.1 -0.0625 0.02588808 -0.1 -0.0625 0.06249946 -0.09999996 -0.02588814 -0.06249952 -0.1 -0.02588814 -0.06249952 -0.1 0.02588814 -0.02588814 -0.1 0.0625 0.02174621 -0.09999996 0.05249994 -0.02174615 -0.09999996 0.05249994 -0.05249994 -0.09999996 0.02174621 -0.05249994 -0.1 -0.02174615 -0.02174615 -0.1 -0.05249994 0.02174621 -0.1 -0.05249994 0.05249994 -0.09999996 -0.02174615 0.05249994 -0.09999996 0.02174615 0.08499997 0.07499998 -0.125 0.07499998 0.08499997 -0.125 -0.07499998 0.08499997 -0.125 -0.08499997 0.07499998 -0.125 0.08499997 -0.07499998 -0.125 -0.08499997 -0.07499998 -0.125 0.08499997 0.07499998 -0.115 0.07499998 0.08499997 -0.115 -0.07499998 0.08499997 -0.115 -0.08499997 0.07499998 -0.115 0.08499997 -0.07499998 -0.115 0.07499998 -0.08499997 -0.115 -0.08499997 -0.07499998 -0.115 -0.07499998 -0.08499997 -0.115 0.07499998 0.07499998 -0.115 0.07499998 -0.07499998 -0.115 -0.07499998 0.07499998 -0.115 -0.07499998 -0.07499998 -0.115 0.02174621 -0.06174594 0.05249994 -0.02174615 -0.06174594 0.05249994 -0.05249994 -0.06174594 0.02174621 -0.05249994 -0.061746 -0.02174615 0.05249994 -0.061746 -0.02174615 0.05249994 -0.06174594 0.02174615 -0.02174615 -0.061746 -0.05249994 0.02174615 -0.061746 -0.05249994 0.05249994 -0.02174615 -0.07499998 -0.02174615 0.05249994 -0.07499998 0.02174615 0.05249994 -0.07499998 0.05249994 0.02174615 -0.07499998 0.02174615 -0.05249994 -0.07499998 -0.05249994 0.02174615 -0.07499998 -0.05249994 -0.02174615 -0.07499998 -0.02174615 -0.05249994 -0.07499998 0.02174615 -0.004622936 0.03719389 -0.02174615 -0.004622936 0.03719389 -0.05249994 -0.01999986 0.01056033 -0.05249994 -0.04174607 -0.02710515 0.05249994 -0.04174607 -0.02710515 0.05249994 -0.01999986 0.01056033 -0.02174615 -0.057123 -0.05373871 0.02174615 -0.05712294 -0.05373871 0.02174615 0.03719389 -0.004622995 -0.02174615 0.03719389 -0.004622995 -0.05249994 0.01056033 -0.01999986 -0.05249994 -0.02710515 -0.04174607 0.05249994 -0.02710515 -0.04174607 0.05249994 0.01056033 -0.01999986 -0.02174615 -0.05373871 -0.05712294 0.02174615 -0.05373871 -0.05712294 0.02174615 0.05249994 -0.061746 -0.02174615 0.05249994 -0.061746 -0.05249994 0.02174615 -0.061746 -0.05249994 -0.02174621 -0.061746 0.05249994 -0.02174621 -0.061746 0.05249994 0.02174615 -0.061746 -0.02174615 -0.0525 -0.061746 0.02174615 -0.05249994 -0.061746 0.03914213 0.02499997 -0.115 0.04499995 0.03085786 -0.115 0.04499995 0.03914213 -0.115 0.03914213 0.04499995 -0.115 0.03085786 0.04499995 -0.115 0.02499997 0.03914213 -0.115 0.02499997 0.03085786 -0.115 0.03085786 0.02499997 -0.115 -0.03085786 0.02499997 -0.115 -0.02499997 0.03085786 -0.115 -0.02499997 0.03914213 -0.115 -0.03085786 0.04499995 -0.115 -0.03914213 0.04499995 -0.115 -0.04499995 0.03914213 -0.115 -0.04499995 0.03085786 -0.115 -0.03914213 0.02499997 -0.115 0.03914213 -0.04499995 -0.115 0.04499995 -0.03914213 -0.115 0.04499995 -0.03085786 -0.115 0.03914213 -0.02499997 -0.115 0.03085786 -0.02499997 -0.115 0.02499997 -0.03085786 -0.115 0.02499997 -0.03914213 -0.115 0.03085786 -0.04499995 -0.115 -0.03085786 -0.04500001 -0.115 -0.02499997 -0.03914213 -0.115 -0.02499997 -0.03085786 -0.115 -0.03085786 -0.02499997 -0.115 -0.03914213 -0.02499997 -0.115 -0.04499995 -0.03085786 -0.115 -0.04499995 -0.03914213 -0.115 -0.03914213 -0.04500001 -0.115 0.03914213 -0.02499997 -0.125 0.04499995 -0.03085786 -0.125 0.04499995 -0.03914213 -0.125 0.03914213 -0.04499995 -0.125 0.03085786 -0.04499995 -0.125 0.02499997 -0.03914213 -0.125 0.02499997 -0.03085786 -0.125 0.03085786 -0.02499997 -0.125 0.07499998 -0.07499998 -0.125 -0.07499998 -0.07499998 -0.125 -0.03914213 -0.04500001 -0.125 -0.03085786 -0.04500001 -0.125 -0.02499997 -0.03914213 -0.125 -0.02499997 -0.03085786 -0.125 -0.04499995 -0.03914213 -0.125 -0.04499995 -0.03085786 -0.125 -0.03914213 -0.02499997 -0.125 -0.03085786 -0.02499997 -0.125 0.02499997 0.03085786 -0.125 0.02499997 0.03914213 -0.125 0.03085786 0.04499995 -0.125 0.03914213 0.04499995 -0.125 0.04499995 0.03914213 -0.125 0.04499995 0.03085786 -0.125 0.03914213 0.02499997 -0.125 0.03085786 0.02499997 -0.125 -0.02499997 0.03085786 -0.125 -0.03085786 0.02499997 -0.125 -0.03914213 0.02499997 -0.125 -0.04500001 0.03085786 -0.125 -0.04500001 0.03914213 -0.125 -0.03914213 0.04499995 -0.125 -0.03085786 0.04499995 -0.125 -0.02499997 0.03914213 -0.125 -0.07499998 0.07499998 -0.125 0.07499998 0.07499998 -0.125</float_array>
          <technique_common>
            <accessor source="#Cube-mesh-positions-array" count="152" stride="3">
              <param name="X" type="float"/>
              <param name="Y" type="float"/>
              <param name="Z" type="float"/>
            </accessor>
          </technique_common>
        </source>
        <source id="Cube-mesh-normals">
          <float_array id="Cube-mesh-normals-array" count="882">0.7071114 0 0.7071022 0.7071114 2.10735e-7 -0.7071022 0 0 -1 -1 -2.98023e-7 0 0 0 1 1 2.98023e-7 0 -0.7071114 -1.79873e-7 -0.7071021 -0.7071115 -2.10736e-7 0.7071021 2.39047e-7 1 6.46047e-7 -1.41916e-7 1 -3.42615e-7 0 1 0 -2.87801e-7 1 0 0 1 0 -1.58058e-6 1 1.58058e-6 0 1 7.45058e-7 -7.45096e-7 1 0 -0.7071078 -0.7071057 0 -0.7071057 0.7071078 0 -1 -1.98682e-7 0 1 1.98682e-7 0 0.7071057 -0.7071078 0 0.7071078 0.7071057 0 1.98682e-7 -1 0 -1.98682e-7 1 0 0 0 -1 0 0 -1 0 0 -1 0 0 -1 0 0 -1 0 0 -1 0 0 -1 0 0 -1 0 0 -1 -0.7071069 -1.39942e-7 -0.7071067 -1 -1.94766e-7 0 -0.7071067 -1.39942e-7 0.7071069 0 0 1 0.7071068 1.39943e-7 0.7071067 1 1.94766e-7 0 0.7071068 0 -0.7071068 0 0 1 0 0 1 0 0 1 0 0 1 0 0 1 0 0 1 0 0 1 -0.8715756 -1.73167e-7 0.4902612 1.73167e-7 -0.8715756 0.4902612 0.4230818 0.4230819 0.8012512 -0.4230818 0.4230817 0.8012512 0.8715754 0 0.4902615 -0.4230818 -0.4230817 0.8012513 0.4230818 -0.4230818 0.8012512 0 0.8715754 0.4902616 0 0 1 0.7071068 0.7071067 5.04882e-7 0.7071067 -0.7071069 2.01953e-7 -0.7071068 0.7071068 5.96239e-7 -0.7071068 -0.7071067 -7.94984e-7 0 -1 -8.43207e-7 1 0 0 0 1 -2.8107e-7 -1 0 0 0 -0.2588188 -0.9659259 -0.6947465 0.1861569 0.6947466 0.6947466 0.1861571 0.6947465 -0.6947466 -0.1861571 -0.6947465 1 0 0 0 0.2588193 0.9659258 0.6947466 -0.1861566 -0.6947466 -1 0 0 1 0 0 0 0.707107 0.7071066 -0.6947466 -0.5085898 -0.5085898 -1 0 0 -0.6947465 0.50859 0.5085897 0.6947466 0.50859 0.5085897 0.6947466 -0.5085898 -0.5085898 2.42266e-7 -0.7071068 -0.7071068 0.6947466 -0.6947466 -0.1861568 3.29878e-7 -0.9659256 -0.2588197 1 0 0 -3.39462e-7 0.9659258 0.2588188 -0.6947466 -0.6947466 -0.1861567 -1 0 0 -0.6947465 0.6947467 0.1861566 0.6947466 0.6947466 0.1861566 0 0 -1 -1 0 0 0.7071064 0.7071073 -3.95229e-7 0.7071064 -0.7071071 -1.31709e-7 -0.7071062 0.7071074 7.90457e-7 0 1 0 1 0 -1.86265e-7 0 -1 0 0 0 -1 -1 -4.49683e-7 0 0.7071062 0.7071074 -7.90457e-7 0.7071067 -0.7071068 -7.90254e-7 -0.7071073 -0.7071064 2.63418e-7 -0.7071069 0.7071067 2.63486e-7 0 1 0 1 0 -1.11759e-6 0 -1 0 0 0 -1 -1 0 0 0.7071064 0.7071071 -1.31743e-7 0.7071071 -0.7071064 1.31709e-7 -0.7071073 -0.7071063 0 -0.7071068 0.7071068 0 0 1 0 1 0 1.86265e-7 4.49682e-7 -1 0 0 0 -1 -1 -4.49682e-7 0 0.7071073 -0.7071064 2.63418e-7 -0.7071068 -0.7071068 2.63418e-7 -0.7071073 0.7071064 2.63486e-7 0 1 0 1 0 3.72529e-7 4.49682e-7 -1 0 -0.7071059 -0.7071077 7.90253e-7 0.7071068 0.7071068 -7.90456e-7 0 0 -1 0 0 -1 0 0 -1 0 0 -1 0 0 -1 0 0 -1 0 0 -1 0 0 -1 0 0 -1 0 0 -1 0 0 -1 0 0 -1 0 0 -1 0 0 -1 0 0 -1 0 0 -1 0 0 -1 0 0 -1 0 0 -1 0 0 -1 0 0 -1 0 0 -1 0 0 -1 0 0 -1 0 0 -1 0 0 -1 0 0 -1 0 0 -1 0 0 -1 0 0 -1 0 0 -1 0 0 -1 0 0 -1 0 0 -1 0 0 -1 0 0 -1 0 0 -1 0 0 -1 0 0 -1 0 0 -1 0 0 -1 0 0 -1 0.7071114 2.10735e-7 0.7071022 0.7071114 0 -0.7071022 0 0 -1 -1 -2.98023e-7 0 0 0 1 1 2.98023e-7 0 -0.7071114 0 -0.7071021 -0.7071115 0 0.7071021 -5.26862e-7 1 -5.26862e-7 -2.87803e-7 1 0 0 1 0 -1.41915e-7 1 3.42616e-7 -2.44814e-6 1 -5.13923e-7 -8.14647e-7 1 4.07632e-7 0 1 7.45058e-7 0 1 1.71308e-7 -0.7071078 -0.7071057 0 -0.7071057 0.7071078 0 -1 -1.98682e-7 0 1 1.98682e-7 0 0.7071057 -0.7071078 0 0.7071078 0.7071057 0 1.98682e-7 -1 0 -1.98682e-7 1 0 0 0 -1 0 0 -1 0 0 -1 0 0 -1 0 0 -1 -0.7071068 0 -0.7071068 -1 -1.94766e-7 0 -0.7071067 -1.3772e-7 0.7071069 0 0 1 0.707107 0 0.7071067 1 1.94766e-7 0 0.7071068 1.3772e-7 -0.7071067 0 0 1 0 0 1 0 0 1 0 0 1 -0.8715755 0 0.4902615 0 -0.8715754 0.4902615 0.8715756 1.73167e-7 0.4902612 -1.73167e-7 0.8715755 0.4902613 0.7071067 0.7071068 -1.98746e-7 0.7071068 -0.7071068 -3.97492e-7 -0.7071067 0.7071068 0 -0.7071068 -0.7071068 -5.96238e-7 3.42615e-7 -1 2.81069e-7 1 0 0 -3.42615e-7 1 8.43209e-7 -1 0 0 0 -0.2588196 -0.9659257 -0.6947464 0.1861569 0.6947466 0.6947467 0.1861568 0.6947464 -0.6947466 -0.1861569 -0.6947466 1 0 0 0 0.2588193 0.9659258 0.6947466 -0.1861566 -0.6947466 -1 0 0 1 0 0 -2.42266e-7 0.7071069 0.7071067 -0.6947466 -0.5085899 -0.5085898 -1 0 0 -0.6947465 0.5085901 0.5085898 0.6947466 0.5085899 0.5085898 0.6947466 -0.5085899 -0.5085899 2.42266e-7 -0.7071068 -0.7071068 0.6947464 -0.6947466 -0.1861578 3.30941e-7 -0.9659256 -0.2588197 1 0 0 -3.30941e-7 0.9659258 0.2588188 -0.6947466 -0.6947466 -0.1861566 -1 0 0 -0.6947464 0.6947467 0.1861566 0.6947467 0.6947466 0.1861566 0 0 -1 0 0 -1 0 0 -1 0 0 -1 0 0 -1 -1 0 0 0.7071068 0.7071068 1.31709e-7 0.7071064 -0.7071071 -1.31709e-7 -0.7071069 0.7071067 0 0 1 0 1 4.49682e-7 -5.58794e-7 0 -1 0 0 0 -1 0 0 -1 0 0 -1 0 0 -1 0 0 -1 -1 -4.49683e-7 0 0.7071071 0.7071064 2.63418e-7 0.7071077 -0.7071059 2.63418e-7 -0.7071074 -0.7071061 0 -0.7071071 0.7071065 0 0 1 0 1 0 -1.11759e-6 0 -1 0 0 0 -1 0 0 -1 0 0 -1 0 0 -1 0 0 -1 -1 0 0 0.7071064 0.7071071 -1.31709e-7 0.7071067 -0.7071069 -3.95127e-7 -0.707107 -0.7071065 -2.63418e-7 -0.7071065 0.707107 -2.63418e-7 0 1 0 1 4.49682e-7 -1.86265e-7 4.49682e-7 -1 0 0 0 -1 0 0 -1 0 0 -1 0 0 -1 0 0 -1 -1 -4.49682e-7 0 0.7071064 -0.7071073 -7.90253e-7 -0.707107 -0.7071065 0 -0.7071074 0.7071061 0 0 1 0 1 0 3.72529e-7 4.49683e-7 -1 0 -0.7071065 -0.707107 0 0.7071077 0.7071059 2.63418e-7</float_array>
          <technique_common>
            <accessor source="#Cube-mesh-normals-array" count="294" stride="3">
              <param name="X" type="float"/>
              <param name="Y" type="float"/>
              <param name="Z" type="float"/>
            </accessor>
          </technique_common>
        </source>
        <source id="Cube-mesh-map-0">
          <float_array id="Cube-mesh-map-0-array" count="1764">0 0 0 0 0 0 0 0 0 0 0 0 0 0 0 0 0 0 0 0 0 0 0 0 0 0 0 0 0 0 0 0 0 0 0 0 0 0 0 0 0 0 0 0 0 0 0 0 0 0 0.75 0.49 0 0 0 0 0.5802944 0.08029437 0.51 0.25 0 0 0.75 0.00999999 0.5802944 0.08029437 0 0 0.75 0.00999999 0 0 0 0 0.9197056 0.08029437 0 0 0 0 0.9197056 0.4197056 0.99 0.25 0 0 0.9197056 0.4197056 0 0 0 0 0.5802944 0.4197056 0 0 0 0 0 0 0 0 0 0 0 0 0 0 0 0 0 0 0 0 0 0 0 0 0 0 0 0 0 0 0 0 0 0 0 0 0 0 0 0 0 0 0 0 0 0 0 0 0 0 0 0 0 0 0 0 0 0 0 0 0 0 0 0 0 0 0 0 0 0 0 0 0 0 0 0 0 0 0 0 0 0 0 0 0 0 0 0 0 0 0 0 0 0 0 0 0 0 0.75 0.00999999 0 0 0.5802944 0.08029437 0 0 0.75 0.00999999 0.9197056 0.08029437 0.99 0.25 0 0 0.9197056 0.08029437 0.99 0.25 0 0 0 0 0.9197056 0.4197056 0 0 0 0 0 0 0 0 0.5802944 0.4197056 0.5802944 0.4197056 0 0 0 0 0 0 0.51 0.25 0.5802944 0.08029437 0 0 0 0 0 0 0 0 0 0 0 0 0 0 0 0 0 0 0 0 0 0 0 0 0 0 0 0 0 0 0 0 0 0 0 0 0 0 0 0 0 0 0 0 0 0 0 0 0 0 0 0 0 0 0 0 0 0 0 0 0 0 0 0 0 0 0 0 0 0 0 0 0 0 0 0 0 0 0 0 0 0 0 0 0 0 0 0 0 0 0 0 0 0 0 0 0 0 0 0 0 0 0 0 0 0 0 0 0 0 0 0 0 0 0 0 0 0 0 0 0 0 0 0 0 0 0 0 0 0 0 0 0 0 0 0 0 0 0 0 0 0 0 0 0 0 0 0 0 0 0 0 0 0 0 0 0 0 0 0 0 0 0 0 0 0 0 0 0 0 0 0 0 0 0 0 0 0 0 0 0 0 0 0 0 0 0 0 0 0 0 0 0 0 0 0 0 0 0 0 0 0 0 0 0 0 0 0 0 0 0 0 0 0 0 0 0 0 0 0 0 0 0 0 0 0 0 0 0 0 0 0 0 0 0 0 0 0 0 0 0 0 0 0 0 0 0 0 0 0 0 0 0 0 0 0 0 0 0 0 0 0 0 0 0 0 0 0 0 0 0 0 0 0 0 0 0 0 0 0 0 0 0 0 0 0 0 0 0 0 0 0 0 0 0 0 0 0 0 0 0 0 0 0 0 0 0 0 0 0 0 0 0 0 0 0 0 0 0 0 0 0 0 0 0 0 0 0 0 0 0 0 0 0 0 0 0 0 0 0 0 0 0 0 0 0 0 0 0 0 0 0 0 0 0 0 0 0 0 0 0 0 0 0 0 0 0 0 0 0 0 0 0 0 0 0 0 0 0 0 0 0 0 0 0 0 0 0 0 0 0 0 0 0 0 0 0 0 0 0 0 0 0 0 0 0 0 0 0 0 0 0 0 0 0 0 0 0 0 0 0 0 0 0 0 0 0 0 0 0 0 0 0 0 0 0 0 0 0 0 0 0 0 0 0 0 0 0 0 0 0 0 0 0 0 0 0 0 0 0 0 0 0 0 0 0 0 0 0 0 0 0 0 0 0 0 0 0 0 0 0 0 0 0 0 0 0 0 0 0 0 0 0 0 0 0 0 0 0 0 0 0 0 0 0 0 0 0 0 0 0 0 0 0 0 0 0 0 0 0 0 0 0 0 0 0 0 0 0 0 0 0 0 0 0 0 0 0 0 0 0 0 0 0 0 0 0 0 0 0 0 0 0 0 0 0 0 0 0 0 0 0 0 0 0 0 0 0 0 0 0 0 0 0 0 0 0 0 0 0 0 0 0 0 0 0 0 0 0 0 0 0 0 0 0 0 0 0 0 0 0 0 0 0 0 0 0 0 0 0 0 0 0 0 0 0 0 0 0 0 0 0 0 0 0 0 0 0 0 0 0 0 0 0 0 0 0 0 0 0 0 0 0 0 0 0 0 0 0 0 0 0 0 0 0 0 0 0 0 0 0 0 0 0 0 0 0 0 0 0 0 0 0 0 0 0 0 0 0 0 0 0 0 0 0 0 0 0 0 0 0 0 0 0 0 0 0 0 0 0 0 0 0 0 0 0 0 0 0 0 0 0 0 0 0 0 0 0 0 0 0 0 0 0 0 0 0 0 0 0 0 0 0 0 0 0 0 0 0 0 0 0 0 0 0 0 0 0 0 0 0 0 0 0 0 0 0 0 0 0 0 0 0 0 0 0 0 0 0 0 0 0 0 0 0 0 0 0 0 0 0 0 0 0 0 0 0 0 0 0 0 0 0 0 0 0 0 0 0 0 0 0 0 0 0 0 0.5802944 0.4197056 0.75 0.49 0 0 0 0 0.5802944 0.08029437 0 0 0 0 0.75 0.00999999 0 0 0.9197056 0.08029437 0.75 0.00999999 0 0 0.99 0.25 0.9197056 0.08029437 0 0 0 0 0.9197056 0.4197056 0 0 0.75 0.49 0.9197056 0.4197056 0 0 0.51 0.25 0.5802944 0.4197056 0 0 0 0 0 0 0 0 0 0 0 0 0 0 0 0 0 0 0 0 0 0 0 0 0 0 0 0 0 0 0 0 0 0 0 0 0 0 0 0 0 0 0 0 0 0 0 0 0 0 0 0 0 0 0 0 0 0 0 0 0 0 0 0 0 0 0 0 0 0 0 0 0.75 0.00999999 0 0 0 0 0 0 0 0 0.75 0.00999999 0.99 0.25 0 0 0 0 0.99 0.25 0.9197056 0.4197056 0 0 0.9197056 0.4197056 0 0 0 0 0 0 0 0 0 0 0.5802944 0.4197056 0.51 0.25 0 0 0 0 0 0 0.51 0.25 0 0 0 0 0 0 0 0 0 0 0 0 0 0 0 0 0 0 0 0 0 0 0 0 0 0 0 0 0 0 0 0 0 0 0 0 0 0 0 0 0 0 0 0 0 0 0 0 0 0 0 0 0 0 0 0 0 0 0 0 0 0 0 0 0 0 0 0 0 0 0 0 0 0 0 0 0 0 0 0 0 0 0 0 0 0 0 0 0 0 0 0 0 0 0 0 0 0 0 0 0 0 0 0 0 0 0 0 0 0 0 0 0 0 0 0 0 0 0 0 0 0 0 0 0 0 0 0 0 0 0 0 0 0 0 0 0 0 0 0 0 0 0 0 0 0 0 0 0 0 0 0 0 0 0 0 0 0 0 0 0 0 0 0 0 0 0 0 0 0 0 0 0 0 0 0 0 0 0 0 0 0 0 0 0 0 0 0 0 0 0 0 0 0 0 0 0 0 0 0 0 0 0 0 0 0 0 0 0 0 0 0 0 0 0 0 0 0 0 0 0 0 0 0 0 0 0 0 0 0 0 0 0 0 0 0 0 0 0 0 0 0 0 0 0 0 0 0 0 0 0 0 0 0 0 0 0 0 0 0 0 0 0 0 0 0 0 0 0 0 0 0 0 0 0 0 0 0 0 0 0 0 0 0 0 0 0 0 0 0 0 0 0 0 0 0 0 0 0 0 0 0 0 0 0 0 0 0 0 0 0 0 0 0 0 0 0 0 0 0 0 0 0 0 0 0 0 0 0 0 0 0 0 0 0 0 0 0 0 0 0 0 0 0 0 0 0 0 0 0 0 0 0 0 0 0 0 0 0 0 0 0 0 0 0 0 0 0 0 0 0 0 0 0 0 0 0 0 0 0 0 0 0 0 0 0 0 0 0 0 0 0 0 0 0 0 0 0 0 0 0 0 0 0 0 0 0 0 0 0 0 0 0 0 0 0 0 0 0 0 0 0 0 0 0 0 0 0 0 0 0 0 0 0 0 0 0 0 0 0 0 0 0 0 0 0 0 0 0 0 0 0 0 0 0 0 0 0 0 0 0 0 0 0 0 0 0 0 0 0 0 0 0 0 0 0 0 0 0 0 0 0 0 0 0 0 0 0 0 0 0 0 0 0 0 0 0 0 0 0 0 0 0 0 0 0 0 0 0 0 0 0 0 0 0 0 0 0 0 0 0 0 0 0 0 0 0 0 0 0 0 0 0 0 0 0 0 0 0 0 0 0 0 0 0 0 0 0 0 0 0 0</float_array>
          <technique_common>
            <accessor source="#Cube-mesh-map-0-array" count="882" stride="2">
              <param name="S" type="float"/>
              <param name="T" type="float"/>
            </accessor>
          </technique_common>
        </source>
        <vertices id="Cube-mesh-vertices">
          <input semantic="POSITION" source="#Cube-mesh-positions"/>
        </vertices>
        <triangles material="paintable-0-material" count="206">
          <input semantic="VERTEX" source="#Cube-mesh-vertices" offset="0"/>
          <input semantic="NORMAL" source="#Cube-mesh-normals" offset="1"/>
          <input semantic="TEXCOORD" source="#Cube-mesh-map-0" offset="2" set="0"/>
          <p>3 0 0 10 0 1 11 0 2 5 1 3 14 1 4 6 1 5 4 2 6 13 2 7 5 2 8 8 3 9 15 3 10 7 3 11 9 4 12 11 4 13 17 4 14 6 5 15 10 5 16 2 5 17 15 6 18 4 6 19 7 6 20 9 7 21 16 7 22 8 7 23 10 8 24 18 8 25 11 8 26 14 9 27 23 9 28 24 9 29 13 10 30 22 10 31 23 10 32 15 11 33 22 11 34 12 11 35 16 12 36 21 12 37 15 12 38 16 13 39 19 13 40 20 13 41 11 14 42 19 14 43 17 14 44 14 15 45 25 15 46 10 15 47 0 16 48 38 16 49 31 16 50 29 17 51 34 17 52 28 17 53 31 18 54 35 18 55 29 18 56 32 19 57 30 19 58 26 19 59 36 20 60 1 20 61 30 20 62 27 21 63 32 21 64 26 21 65 37 22 66 0 22 67 1 22 68 28 23 69 33 23 70 27 23 71 31 24 72 125 24 73 0 24 74 151 25 75 30 25 76 124 25 77 30 26 78 1 26 79 124 26 80 27 27 81 26 27 82 151 27 83 28 28 84 150 28 85 29 28 86 124 29 87 0 29 88 125 29 89 27 30 90 150 30 91 28 30 92 31 31 93 150 31 94 125 31 95 22 32 96 51 32 97 23 32 98 47 33 99 22 33 100 21 33 101 20 34 102 47 34 103 21 34 104 20 35 105 45 35 106 46 35 107 19 36 108 44 36 109 45 36 110 49 37 111 18 37 112 25 37 113 25 38 114 48 38 115 49 38 116 51 39 117 24 39 118 23 39 119 34 40 120 35 40 121 42 40 122 38 41 123 42 41 124 35 41 125 39 42 126 43 42 127 38 42 128 34 43 129 40 43 130 33 43 131 32 44 132 41 44 133 36 44 134 37 45 135 36 45 136 41 45 137 37 46 138 43 46 139 39 46 140 58 47 141 42 47 142 43 47 143 56 48 144 43 48 145 41 48 146 54 49 147 55 49 148 40 49 149 53 50 150 42 50 151 57 50 152 41 51 153 55 51 154 52 51 155 58 52 156 43 52 157 59 52 158 52 53 159 56 53 160 41 53 161 40 54 162 53 54 163 54 54 164 33 55 165 40 55 166 32 55 167 55 56 168 76 56 169 81 56 170 56 57 171 80 57 172 83 57 173 57 58 174 77 58 175 53 58 176 59 59 177 79 59 178 58 59 179 56 60 180 82 60 181 59 60 182 52 61 183 81 61 184 80 61 185 53 62 186 76 62 187 54 62 188 58 63 189 78 63 190 57 63 191 51 64 192 66 64 193 67 64 194 46 65 195 61 65 196 62 65 197 44 66 198 65 66 199 60 66 200 50 67 201 63 67 202 66 67 203 49 68 204 64 68 205 65 68 206 45 69 207 60 69 208 61 69 209 51 70 210 64 70 211 48 70 212 46 71 213 63 71 214 47 71 215 65 72 216 72 72 217 73 72 218 60 73 219 69 73 220 61 73 221 63 74 222 74 74 223 66 74 224 62 75 225 71 75 226 63 75 227 62 76 228 69 76 229 70 76 230 60 77 231 73 77 232 68 77 233 67 78 234 72 78 235 64 78 236 67 79 237 74 79 238 75 79 239 75 80 240 80 80 241 72 80 242 74 81 243 83 81 244 75 81 245 73 82 246 80 82 247 81 82 248 68 83 249 77 83 250 69 83 251 71 84 252 82 84 253 74 84 254 70 85 255 79 85 256 71 85 257 70 86 258 77 86 259 78 86 260 68 87 261 81 87 262 76 87 263 128 124 372 121 124 373 120 124 374 139 125 375 151 125 376 117 125 377 136 126 378 149 126 379 148 126 380 148 127 381 147 127 382 150 127 383 151 128 384 138 128 385 137 128 386 136 129 387 135 129 388 149 129 389 151 130 390 137 130 391 136 130 392 148 131 393 150 131 394 136 131 395 150 132 396 151 132 397 136 132 398 130 133 399 126 133 400 125 133 401 150 134 402 147 134 403 146 134 404 150 135 405 146 135 406 145 135 407 130 136 408 125 136 409 131 136 410 125 137 411 150 137 412 131 137 413 131 138 414 150 138 415 145 138 416 132 139 417 131 139 418 145 139 419 132 140 420 145 140 421 144 140 422 122 141 423 129 141 424 133 141 425 133 142 426 132 142 427 144 142 428 133 143 429 144 143 430 143 143 431 123 144 432 122 144 433 133 144 434 123 145 435 133 145 436 143 145 437 142 146 438 149 146 439 135 146 440 123 147 441 143 147 442 142 147 443 116 148 444 123 148 445 141 148 446 123 149 447 142 149 448 141 149 449 142 150 450 135 150 451 134 150 452 142 151 453 134 151 454 141 151 455 116 152 456 141 152 457 140 152 458 124 153 459 118 153 460 117 153 461 117 154 462 116 154 463 140 154 464 139 155 465 138 155 466 151 155 467 117 156 468 140 156 469 139 156 470 151 157 471 124 157 472 117 157 473 124 158 474 125 158 475 127 158 476 125 159 477 126 159 478 127 159 479 119 160 480 118 160 481 124 160 482 120 161 483 119 161 484 124 161 485 124 162 486 127 162 487 120 162 488 127 163 489 128 163 490 120 163 491 128 164 492 129 164 493 122 164 494 128 165 495 122 165 496 121 165 497 3 166 498 2 166 499 10 166 500 5 167 501 13 167 502 14 167 503 4 168 504 12 168 505 13 168 506 8 169 507 16 169 508 15 169 509 9 170 510 3 170 511 11 170 512 6 171 513 14 171 514 10 171 515 15 172 516 12 172 517 4 172 518 9 173 519 17 173 520 16 173 521 10 174 522 25 174 523 18 174 524 14 175 525 13 175 526 23 175 527 13 176 528 12 176 529 22 176 530 15 177 531 21 177 532 22 177 533 16 178 534 20 178 535 21 178 536 16 179 537 17 179 538 19 179 539 11 180 540 18 180 541 19 180 542 14 181 543 24 181 544 25 181 545 0 182 546 39 182 547 38 182 548 29 183 549 35 183 550 34 183 551 31 184 552 38 184 553 35 184 554 32 185 555 36 185 556 30 185 557 36 186 558 37 186 559 1 186 560 27 187 561 33 187 562 32 187 563 37 188 564 39 188 565 0 188 566 28 189 567 34 189 568 33 189 569 151 190 570 26 190 571 30 190 572 124 191 573 1 191 574 0 191 575 27 192 576 151 192 577 150 192 578 31 193 579 29 193 580 150 193 581 22 194 582 50 194 583 51 194 584 47 195 585 50 195 586 22 195 587 20 196 588 46 196 589 47 196 590 20 197 591 19 197 592 45 197 593 19 198 594 18 198 595 44 198 596 49 199 597 44 199 598 18 199 599 25 200 600 24 200 601 48 200 602 51 201 603 48 201 604 24 201 605 38 202 606 43 202 607 42 202 608 34 203 609 42 203 610 40 203 611 32 204 612 40 204 613 41 204 614 37 205 615 41 205 616 43 205 617 58 206 618 57 206 619 42 206 620 56 207 621 59 207 622 43 207 623 41 208 624 40 208 625 55 208 626 40 209 627 42 209 628 53 209 629 55 210 630 54 210 631 76 210 632 56 211 633 52 211 634 80 211 635 57 212 636 78 212 637 77 212 638 59 213 639 82 213 640 79 213 641 56 214 642 83 214 643 82 214 644 52 215 645 55 215 646 81 215 647 53 216 648 77 216 649 76 216 650 58 217 651 79 217 652 78 217 653 51 218 654 50 218 655 66 218 656 46 219 657 45 219 658 61 219 659 44 220 660 49 220 661 65 220 662 50 221 663 47 221 664 63 221 665 49 222 666 48 222 667 64 222 668 45 223 669 44 223 670 60 223 671 51 224 672 67 224 673 64 224 674 46 225 675 62 225 676 63 225 677 65 226 678 64 226 679 72 226 680 60 227 681 68 227 682 69 227 683 63 228 684 71 228 685 74 228 686 62 229 687 70 229 688 71 229 689 62 230 690 61 230 691 69 230 692 60 231 693 65 231 694 73 231 695 67 232 696 75 232 697 72 232 698 67 233 699 66 233 700 74 233 701 75 234 702 83 234 703 80 234 704 74 235 705 82 235 706 83 235 707 73 236 708 72 236 709 80 236 710 68 237 711 76 237 712 77 237 713 71 238 714 79 238 715 82 238 716 70 239 717 78 239 718 79 239 719 70 240 720 69 240 721 77 240 722 68 241 723 73 241 724 81 241 725</p>
        </triangles>
        <triangles material="darkgrey-material" count="88">
          <input semantic="VERTEX" source="#Cube-mesh-vertices" offset="0"/>
          <input semantic="NORMAL" source="#Cube-mesh-normals" offset="1"/>
          <input semantic="TEXCOORD" source="#Cube-mesh-map-0" offset="2" set="0"/>
          <p>84 88 264 90 88 265 88 88 266 85 89 267 138 89 268 139 89 269 90 90 270 141 90 271 134 90 272 136 91 273 89 91 274 135 91 275 84 92 276 139 92 277 140 92 278 91 93 279 140 93 280 141 93 281 89 94 282 134 94 283 135 94 284 137 95 285 88 95 286 136 95 287 96 96 288 95 96 289 94 96 290 93 97 291 149 97 292 142 97 293 98 98 294 144 98 295 145 98 296 147 99 297 97 99 298 146 99 299 149 100 300 95 100 301 148 100 302 92 101 303 142 101 304 143 101 305 99 102 306 143 102 307 144 102 308 97 103 309 145 103 310 146 103 311 95 104 312 147 104 313 148 104 314 106 105 315 104 105 316 102 105 317 101 106 318 117 106 319 118 106 320 106 107 321 120 107 322 121 107 323 123 108 324 105 108 325 122 108 326 102 109 327 116 109 328 117 109 329 119 110 330 101 110 331 118 110 332 120 111 333 100 111 334 119 111 335 105 112 336 121 112 337 122 112 338 116 113 339 104 113 340 123 113 341 114 114 342 112 114 343 110 114 344 109 115 345 129 115 346 128 115 347 132 116 348 113 116 349 131 116 350 129 117 351 111 117 352 133 117 353 108 118 354 128 118 355 127 118 356 115 119 357 127 119 358 126 119 359 113 120 360 130 120 361 131 120 362 133 121 363 112 121 364 132 121 365 138 122 366 87 122 367 137 122 368 126 123 369 114 123 370 115 123 371 86 242 726 85 242 727 84 242 728 84 243 729 91 243 730 90 243 731 90 244 732 89 244 733 88 244 734 88 245 735 87 245 736 86 245 737 86 246 738 84 246 739 88 246 740 85 247 741 86 247 742 138 247 743 90 248 744 91 248 745 141 248 746 136 249 747 88 249 748 89 249 749 84 250 750 85 250 751 139 250 752 91 251 753 84 251 754 140 251 755 89 252 756 90 252 757 134 252 758 137 253 759 87 253 760 88 253 761 94 254 762 93 254 763 92 254 764 92 255 765 99 255 766 94 255 767 99 256 768 98 256 769 94 256 770 98 257 771 97 257 772 94 257 773 97 258 774 96 258 775 94 258 776 93 259 777 94 259 778 149 259 779 98 260 780 99 260 781 144 260 782 147 261 783 96 261 784 97 261 785 149 262 786 94 262 787 95 262 788 92 263 789 93 263 790 142 263 791 99 264 792 92 264 793 143 264 794 97 265 795 98 265 796 145 265 797 95 266 798 96 266 799 147 266 800 102 267 801 101 267 802 100 267 803 100 268 804 107 268 805 102 268 806 107 269 807 106 269 808 102 269 809 106 270 810 105 270 811 104 270 812 104 271 813 103 271 814 102 271 815 101 272 816 102 272 817 117 272 818 106 273 819 107 273 820 120 273 821 123 274 822 104 274 823 105 274 824 102 275 825 103 275 826 116 275 827 119 276 828 100 276 829 101 276 830 120 277 831 107 277 832 100 277 833 105 278 834 106 278 835 121 278 836 116 279 837 103 279 838 104 279 839 110 280 840 109 280 841 114 280 842 109 281 843 108 281 844 114 281 845 108 282 846 115 282 847 114 282 848 114 283 849 113 283 850 112 283 851 112 284 852 111 284 853 110 284 854 109 285 855 110 285 856 129 285 857 132 286 858 112 286 859 113 286 860 129 287 861 110 287 862 111 287 863 108 288 864 109 288 865 128 288 866 115 289 867 108 289 868 127 289 869 113 290 870 114 290 871 130 290 872 133 291 873 111 291 874 112 291 875 138 292 876 86 292 877 87 292 878 126 293 879 130 293 880 114 293 881</p>
        </triangles>
      </mesh>
    </geometry>
  </library_geometries>
  <library_visual_scenes>
    <visual_scene id="Scene" name="Scene">
      <node id="Cube" name="Cube" type="NODE">
        <matrix sid="transform">1 0 0 0 0 1 0 0 0 0 1 0 0 0 0 1</matrix>
        <instance_geometry url="#Cube-mesh" name="Cube">
          <bind_material>
            <technique_common>
              <instance_material symbol="paintable-0-material" target="#paintable-0-material">
                <bind_vertex_input semantic="UVMap" input_semantic="TEXCOORD" input_set="0"/>
              </instance_material>
              <instance_material symbol="paintable-1-material" target="#paintable-1-material">
                <bind_vertex_input semantic="UVMap" input_semantic="TEXCOORD" input_set="0"/>
              </instance_material>
              <instance_material symbol="lightgrey-material" target="#lightgrey-material">
                <bind_vertex_input semantic="UVMap" input_semantic="TEXCOORD" input_set="0"/>
              </instance_material>
              <instance_material symbol="darkgrey-material" target="#darkgrey-material">
                <bind_vertex_input semantic="UVMap" input_semantic="TEXCOORD" input_set="0"/>
              </instance_material>
              <instance_material symbol="Material-material" target="#Material-material">
                <bind_vertex_input semantic="UVMap" input_semantic="TEXCOORD" input_set="0"/>
              </instance_material>
            </technique_common>
          </bind_material>
        </instance_geometry>
      </node>
    </visual_scene>
  </library_visual_scenes>
  <scene>
    <instance_visual_scene url="#Scene"/>
  </scene>
</COLLADA>