<?xml version="1.0" encoding="utf-8"?>
<COLLADA xmlns="http://www.collada.org/2005/11/COLLADASchema" version="1.4.1" xmlns:xsi="http://www.w3.org/2001/XMLSchema-instance">
  <asset>
    <contributor>
      <author>Blender User</author>
      <authoring_tool>Blender 4.2.22 LTS commit date:2026-06-22, commit time:11:10, hash:88937221abfc</authoring_tool>
    </contributor>
    <created>2026-07-22T22:02:16</created>
    <modified>2026-07-22T22:02:16</modified>
    <unit name="meter" meter="1"/>
    <up_axis>Z_UP</up_axis>
  </asset>
  <library_effects>
    <effect id="paintable-0-effect">
      <profile_COMMON>
        <technique sid="common">
          <lambert>
            <emission>
              <color sid="emission">0 0 0 1</color>
            </emission>
            <diffuse>
              <color sid="diffuse">1 0.4969335 0 1</color>
            </diffuse>
            <index_of_refraction>
              <float sid="ior">1.45</float>
            </index_of_refraction>
          </lambert>
        </technique>
      </profile_COMMON>
    </effect>
    <effect id="paintable-1-effect">
      <profile_COMMON>
        <technique sid="common">
          <lambert>
            <emission>
              <color sid="emission">0 0 0 1</color>
            </emission>
            <diffuse>
              <color sid="diffuse">0.6104922 0.4910214 0 1</color>
            </diffuse>
            <index_of_refraction>
              <float sid="ior">1.5</float>
            </index_of_refraction>
          </lambert>
        </technique>
      </profile_COMMON>
    </effect>
    <effect id="lightgray-effect">
      <profile_COMMON>
        <technique sid="common">
          <lambert>
            <emission>
              <color sid="emission">0 0 0 1</color>
            </emission>
            <diffuse>
              <color sid="diffuse">0.7835327 0.7835385 0.7835382 1</color>
            </diffuse>
            <index_of_refraction>
              <float sid="ior">1.5</float>
            </index_of_refraction>
          </lambert>
        </technique>
      </profile_COMMON>
    </effect>
    <effect id="Material-effect">
      <profile_COMMON>
        <technique sid="common">
          <lambert>
            <emission>
              <color sid="emission">0 0 0 1</color>
            </emission>
            <diffuse>
              <color sid="diffuse">1 0.4969335 0 1</color>
            </diffuse>
            <index_of_refraction>
              <float sid="ior">1.45</float>
            </index_of_refraction>
          </lambert>
        </technique>
      </profile_COMMON>
    </effect>
    <effect id="Material_001-effect">
      <profile_COMMON>
        <technique sid="common">
          <lambert>
            <emission>
              <color sid="emission">0 0 0 1</color>
            </emission>
            <diffuse>
              <color sid="diffuse">1 0.4969335 0 1</color>
            </diffuse>
            <index_of_refraction>
              <float sid="ior">1.45</float>
            </index_of_refraction>
          </lambert>
        </technique>
      </profile_COMMON>
    </effect>
  </library_effects>
  <library_images/>
  <library_materials>
    <material id="paintable-0-material" name="paintable-0">
      <instance_effect url="#paintable-0-effect"/>
    </material>
    <material id="paintable-1-material" name="paintable-1">
      <instance_effect url="#paintable-1-effect"/>
    </material>
    <material id="lightgray-material" name="lightgray">
      <instance_effect url="#lightgray-effect"/>
    </material>
    <material id="Material-material" name="Material">
      <instance_effect url="#Material-effect"/>
    </material>
    <material id="Material_001-material" name="Material.001">
      <instance_effect url="#Material_001-effect"/>
    </material>
  </library_materials>
  <library_geometries>
    <geometry id="Cube-mesh" name="Cube">
      <mesh>
        <source id="Cube-mesh-positions">
          <float_array id="Cube-mesh-positions-array" count="303">0.09499996 0.07499998 0.03935027 0.03935027 0.07499998 0.09499996 -0.03935027 0.07499998 0.09499996 -0.09499996 0.07499998 0.03935027 -0.06249946 -0.125 -0.02588814 -0.02588808 -0.125 -0.0625 0.02588814 -0.125 0.0625 -0.02588808 -0.125 0.0625 -0.06249946 -0.125 0.02588814 0.06249952 -0.125 0.02588814 0.06249952 -0.125 -0.02588814 0.02588814 -0.125 -0.0625 0.125 -0.02588814 0.06249952 0.125 -0.0625 0.02588814 0.125 0.0625 -0.02588814 0.125 0.0625 0.02588814 0.125 0.02588814 0.06249952 0.125 0.02588814 -0.06249952 0.125 -0.02588814 -0.06249952 0.125 -0.0625 -0.02588814 -0.09499996 0.115 -0.125 0.09499996 0.115 -0.125 -0.0478354 0.125 -0.01981407 -0.1154849 0.05177664 -0.0478354 -0.1154849 -0.05177664 -0.0478354 0.1154849 -0.05177664 0.0478354 0.1154849 0.05177664 0.0478354 0.0478354 0.125 0.01981407 -0.01981407 0.125 -0.0478354 -0.0478354 0.05177664 -0.1154849 -0.0478354 -0.05177664 -0.1154849 0.0478354 -0.05177664 0.1154849 0.0478354 0.05177664 0.1154849 0.01981407 0.125 0.0478354 0.01981407 0.125 -0.0478354 0.0478354 0.05177664 -0.1154849 0.0478354 -0.05177664 -0.1154849 -0.0478354 -0.05177664 0.1154849 -0.0478354 0.05177664 0.1154849 -0.01981407 0.125 0.0478354 0.0478354 0.125 -0.01981407 0.1154849 0.05177664 -0.0478354 0.1154849 -0.05177664 -0.0478354 -0.1154849 -0.05177664 0.0478354 -0.1154849 0.05177664 0.0478354 -0.0478354 0.125 0.01981407 0.03935027 0.115 0.09499996 -0.09499996 0.115 -0.03935027 0.09499996 0.115 -0.03935027 0.09499996 0.115 0.03935027 0.05707418 0.115 -0.02364087 -0.02364087 0.115 0.05707418 0.02364087 0.115 -0.05707418 -0.02364087 0.115 -0.05707418 -0.05707418 0.115 -0.02364087 0.02364087 0.115 0.05707418 -0.03935027 0.115 0.09499996 -0.05707418 0.115 0.02364087 0.05707418 0.115 0.02364087 -0.09499996 0.115 0.03935027 0 0.125 0 -0.06249946 -0.1091277 -0.02588814 -0.02588808 -0.1091277 -0.0625 0.02588814 -0.1091277 0.0625 -0.02588808 -0.1091277 0.0625 -0.06249946 -0.1091277 0.02588814 0.06249952 -0.1091277 0.02588814 0.06249952 -0.1091277 -0.02588814 0.02588814 -0.1091277 -0.0625 0.09499996 0.07395476 -0.03936356 0.09499996 0.07395476 0.03933691 0.03935027 0.07395476 0.09498667 -0.03935027 0.07395476 0.09498667 -0.09499996 0.07395476 0.03933691 -0.09499996 0.07395476 -0.03936356 -0.03934818 0.07395476 -0.09499502 0.03934818 0.07395476 -0.09499502 0.09499996 0.07499998 -0.125 0.09499996 0.07499998 -0.03935027 0.03894823 0.07499998 -0.09402936 -0.03894823 0.07499998 -0.09402936 -0.09403413 0.07499998 -0.03896325 0.09403431 0.07499998 -0.03896325 -0.09499996 0.07499998 -0.125 -0.09499996 0.07499998 -0.03935027 0.1154849 0.04055237 -0.0478354 0.1008208 0.02588814 -0.06249952 0.1055803 0.0625 -0.02588814 0.1154849 0.05177664 -0.03661125 0.1008208 -0.02588814 -0.06249952 0.1055779 -0.0625 -0.02588814 0.1154849 -0.05177664 -0.03661125 0.1154849 -0.04055243 -0.0478354 0.1154849 -0.05177664 0.03661125 0.1055779 -0.0625 0.02588814 0.1008208 -0.02588814 0.06249952 0.1154849 -0.04055237 0.0478354 0.1154849 0.04055237 0.0478354 0.1008208 0.02588814 0.06249952 0.1055803 0.0625 0.02588814 0.1154849 0.05177664 0.03661125</float_array>
          <technique_common>
            <accessor source="#Cube-mesh-positions-array" count="101" stride="3">
              <param name="X" type="float"/>
              <param name="Y" type="float"/>
              <param name="Z" type="float"/>
            </accessor>
          </technique_common>
        </source>
        <source id="Cube-mesh-normals">
          <float_array id="Cube-mesh-normals-array" count="558">-1 0 0 1 0 0 0.7071068 0 0.7071068 0 0 1 -0.7071068 0 0.7071068 -1 0 0 0 0 -1 0 1 0 1 0 0 -1 0 0 -0.7071068 0 -0.7071068 0.5193771 -0.6785978 0.519377 0 -0.6785947 0.7345129 0 0 1 0 0 -1 -0.5193824 -0.6785948 0.5193756 0 1 0 -0.7071068 0 0.7071068 0 1 0 0.7345095 0.6785985 0 -0.7345095 0.6785985 1.3486e-7 0 1 0 0 1 0 0.5193767 0.6785985 0.5193767 -0.5193768 0.6785983 -0.5193768 0 0.6785985 -0.7345095 -0.5192667 0.6786239 -0.5194533 0 1 0 0 0.6785985 0.7345095 -0.5193246 0.6786781 0.5193246 -0.5193767 0.6785985 0.5193767 0.5193768 0.6785983 -0.5193768 0 1 0 0 1 0 0 1 0 0 1 0 0 1 0 0 1 0 0 1 0 0 1 0 0 1 0 0 1 0 0 0 -1 -1 -2.34705e-7 0 0.7071114 2.83314e-7 0.7071022 0.7071114 1.65962e-7 -0.707102 -0.7071114 -2.48943e-7 -0.7071022 -0.7071114 -2.83314e-7 0.7071022 0 0 1 1 2.34705e-7 0 -0.7345096 -0.6785983 0 -0.5193824 -0.6785949 -0.5193756 0 -0.6785948 -0.7345129 0.519377 -0.6785978 -0.519377 0 -0.01274442 0.9999188 1 0 0 -0.7070781 -0.009012043 0.7070781 0.7070781 -0.009011864 0.707078 0.3719412 0.01183009 -0.928181 -1 0 0 0.5193246 0.6786781 0.5193246 0 0.6787477 0.7343716 -0.7345913 0.6785098 0 0 -1 0 -0.5192638 0.678626 -0.5194535 0 0.6785982 -0.7345096 0.5192638 0.678626 -0.5194535 0 0.6785971 -0.7345107 0.5192656 0.6786244 -0.5194537 -0.3719616 0.01182997 -0.9281727 0.7345103 -0.6785976 0 1 0 0 1 0 0 1 0 0 1 0 0 -1.92694e-7 0.7071022 -0.7071114 0 0.7071022 0.7071114 0 -0.7071021 0.7071114 0.7345913 0.6785099 0 0.7345101 -0.6785978 1.46225e-7 0 -0.7071022 0.7071114 0 1 0 0.7345101 -0.6785978 0 0 0 -1 0 -0.7071023 0.7071113 0 -1 0 0 0 1 0 -0.7071022 -0.7071114 0 -0.7071021 -0.7071115 0.7071068 0 -0.7071068 0 -0.7071021 -0.7071114 0.7071067 0 -0.7071068 0 0.7071021 -0.7071114 0 0.7071022 -0.7071115 0.7071068 0 -0.7071068 0 0.7071023 0.7071113 0 0.7071023 0.7071113 0.7345914 0.6785098 0 0.7345913 0.6785098 0 0.7071068 0 0.7071068 0.7071068 0 0.7071068 0.7071068 0 0.7071068 -1 0 0 1 0 0 0.7071068 0 0.7071068 0 0 1 -0.7071068 0 0.7071068 -1 0 0 0 0 -1 0 1 0 1 0 0 -1 0 0 -0.7071068 0 -0.7071068 0.5193826 -0.6785945 0.5193759 0 -0.6785947 0.734513 0 0 1 0 0 -1 -0.5193768 -0.6785982 0.5193768 -0.7071068 0 0.7071068 0.7345095 0.6785984 0 -0.7345096 0.6785982 0 0.5193766 0.6785984 0.5193766 -0.5193768 0.6785984 -0.5193767 0 0.6785982 -0.7345097 -0.5192075 0.6787121 -0.5193972 0 0.6785984 0.7345095 -0.5193246 0.6786781 0.5193246 -0.5193766 0.6785984 0.5193766 0.5193767 0.6785984 -0.5193767 0 1 0 0 1 0 0 1 0 0 1 0 0 1 0 0 1 0 0 1 0 0 0 -1 -1 -2.34705e-7 0 0.7071114 1.65962e-7 0.7071021 0.7071114 2.48944e-7 -0.7071021 -0.7071114 -1.65962e-7 -0.7071022 -0.7071114 -1.65962e-7 0.7071022 0 0 1 1 2.34705e-7 0 -0.7345097 -0.6785983 0 -0.5193768 -0.6785982 -0.5193768 0 -0.6785947 -0.7345129 0.5193827 -0.6785944 -0.5193758 0 -0.01274442 0.9999188 1 0 0 -0.7070781 -0.009012043 0.7070781 0.7070781 -0.009012043 0.707078 -1 0 0 0.5193246 0.6786781 0.5193246 0 0.6787477 0.7343715 -0.7345913 0.67851 0 0 -1 0 0 -1 0 0 -1 0 0 -1 0 0 -1 0 -0.5195445 0.6783413 -0.5195445 0 0.6785983 -0.7345097 0.5195445 0.6783413 -0.5195445 0 0.6785971 -0.7345107 0.5192342 0.6786711 -0.519424 0.7345101 -0.6785978 0 0 0.7071022 -0.7071114 4.81735e-7 0.7071021 0.7071114 0 -0.7071022 0.7071114 0.7345911 0.67851 0 0.73451 -0.6785979 0 0 1 0 0.7345101 -0.6785978 0 0 0 -1 0 -1 0 0 0 1 0.7071067 0 -0.7071069 1.92694e-7 -0.7071021 -0.7071115 0.7071068 0 -0.7071068 0.7071068 0 -0.7071068 0.7345913 0.6785099 0 0.7345912 0.6785099 0 0.7071068 0 0.7071068 0.7071068 0 0.7071067 0.7071068 0 0.7071068</float_array>
          <technique_common>
            <accessor source="#Cube-mesh-normals-array" count="186" stride="3">
              <param name="X" type="float"/>
              <param name="Y" type="float"/>
              <param name="Z" type="float"/>
            </accessor>
          </technique_common>
        </source>
        <source id="Cube-mesh-map-0">
          <float_array id="Cube-mesh-map-0-array" count="1116">0.125 1 0.125 0.5 0.125 0.5 0.75 1 0.625 0.5 0.75 0.5 0.625 1 0.5 0.5 0.625 0.5 0.5 1 0.375 0.5 0.5 0.5 0.375 1 0.25 0.5 0.375 0.5 0.25 0.5 0.125 1 0.125 0.5 0.125 0.5 0.75 1 0.75 0.5 0 0 0 0 0 0 0.75 0.5 0.75 1 0.75 1 0 0 0 0 0 0 0 0 0 0 0 0 0 0 0 0 0 0 0 0 0 0 0 0 0 0 0 0 0 0 0 0 0 0 0 0 0 0 0 0 0 0 0 0 0 0 0 0 0 0 0 0 0 0 0 0 0 0 0 0 0 0 0 0 0 0 0 0 0 0 0 0 0 0 0 0 0 0 0 0 0 0 0 0 0 0 0 0 0 0 0 0 0 0 0 0 0 0 0 0 0 0 0 0 0 0 0 0 0 0 0 0 0 0 0 0 0 0 0 0 0 0 0 0 0 0 0 0 0 0 0 0 0 0 0 0 0 0 0 0 0 0 0 0 0 0 0 0 0 0 0 0 0 0 0 0 0 0 0 0 0 0 0 0 0 0 0 0 0 0 0 0 0 0 0 0 0 0 0 0 0 0 0 0 0 0 0 0 0 0 0 0 0 0 0 0 0 0 0 0 0 0 0 0 0 0 0 0 0 0 0 0 0 0 0 0 0 0 0 0 0 0 0 0 0 0 0 0 0 0 0 0 0 0 0 0 0 0 0 0 0 0 0 0 0 0 0 0 0 0 0 0 0 0 0 0 0 0 0 0 0 0 0 0 0 0 0 0 0 0 0.375 0.5 0.5 0.5 0.5 0.5 0.75 0.5 0.625 0.5 0.75 0.5 0.25 0.5 0.375 0.5 0.375 0.5 0.625 0.5 0.5 0.5 0.625 0.5 0 0 0 0 0 0 0.125 0.5 0.25 0.5 0.25 0.5 0 0 0 0 0 0 0 0 0 0 0 0 0 0 0 0 0 0 0 0 0 0 0 0 0 0 0 0 0 0 0 0 0 0 0 0 0 0 0 0 0 0 0 0 0 0 0 0 0 0 0 0 0 0 0 0 0 0 0 0 0 0 0 0 0 0 0 0 0 0 0 0 0 0 0 0 0 0 0 0 0 0 0 0 0 0 0 0 0 0 0 0 0 0 0 0 0 0 0 0 0 0 0 0 0 0 0 0 0 0 0 0 0 0 0 0 0 0 0 0 0 0 0 0 0 0 0 0 0 0 0 0 0 0 0 0 0 0 0 0 0 0 0 0 0 0 0 0 0 0 0 0 0 0 0 0 0 0 0 0 0 0 0 0 0 0 0 0 0 0 0 0 0 0 0 0 0 0 0 0 0 0 0 0 0 0 0 0 0 0 0 0 0 0 0 0 0 0 0 0 0 0 0 0 0 0 0 0 0 0 0 0 0 0 0 0 0 0 0 0 0 0 0 0 0 0 0 0 0 0 0 0 0 0 0 0 0 0 0 0 0 0 0 0 0 0 0 0 0 0 0 0 0.125 1 0.125 1 0.125 0.5 0.75 1 0.625 1 0.625 0.5 0.625 1 0.5 1 0.5 0.5 0.5 1 0.375 1 0.375 0.5 0.375 1 0.25 1 0.25 0.5 0.25 0.5 0.25 1 0.125 1 0.125 0.5 0 0 0.75 1 0 0 0 0 0 0 0.75 0.5 0.75 0.5 0.75 1 0 0 0 0 0 0 0 0 0 0 0 0 0 0 0 0 0 0 0 0 0 0 0 0 0 0 0 0 0 0 0 0 0 0 0 0 0 0 0 0 0 0 0 0 0 0 0 0 0 0 0 0 0 0 0 0 0 0 0 0 0 0 0 0 0 0 0 0 0 0 0 0 0 0 0 0 0 0 0 0 0 0 0 0 0 0 0 0 0 0 0 0 0 0 0 0 0 0 0 0 0 0 0 0 0 0 0 0 0 0 0 0 0 0 0 0 0 0 0 0 0 0 0 0 0 0 0 0 0 0 0 0 0 0 0 0 0 0 0 0 0 0 0 0 0 0 0 0 0 0 0 0 0 0 0 0 0 0 0 0 0 0 0 0 0 0 0 0 0 0 0 0 0 0 0 0 0 0 0 0 0 0 0 0 0 0 0 0 0 0 0 0 0 0 0 0 0 0 0 0 0 0 0 0 0 0 0 0 0 0 0 0 0 0 0 0 0 0 0 0 0 0 0.375 0.5 0.375 0.5 0.5 0.5 0.75 0.5 0.625 0.5 0.625 0.5 0.25 0.5 0.25 0.5 0.375 0.5 0.625 0.5 0.5 0.5 0.5 0.5 0.125 0.5 0.125 0.5 0.25 0.5 0 0 0 0 0 0 0 0 0 0 0 0 0 0 0 0 0 0 0 0 0 0 0 0 0 0 0 0 0 0 0 0 0 0 0 0 0 0 0 0 0 0 0 0 0 0 0 0 0 0 0 0 0 0 0 0 0 0 0 0 0 0 0 0 0 0 0 0 0 0 0 0 0 0 0 0 0 0 0 0 0 0 0 0 0 0 0 0 0 0 0 0 0 0 0 0 0 0 0 0 0 0 0 0 0 0 0 0 0 0 0 0 0 0 0 0 0 0 0 0 0 0 0 0 0 0 0 0 0 0 0 0 0 0 0 0 0 0 0 0 0 0 0 0 0 0 0 0 0 0 0 0 0 0 0 0 0 0 0 0 0 0 0 0 0 0 0 0 0 0 0 0 0 0 0 0 0 0 0 0 0 0 0 0 0 0 0 0 0 0 0 0 0 0 0 0 0 0</float_array>
          <technique_common>
            <accessor source="#Cube-mesh-map-0-array" count="558" stride="2">
              <param name="S" type="float"/>
              <param name="T" type="float"/>
            </accessor>
          </technique_common>
        </source>
        <vertices id="Cube-mesh-vertices">
          <input semantic="POSITION" source="#Cube-mesh-positions"/>
        </vertices>
        <triangles material="paintable-0-material" count="186">
          <input semantic="VERTEX" source="#Cube-mesh-vertices" offset="0"/>
          <input semantic="NORMAL" source="#Cube-mesh-normals" offset="1"/>
          <input semantic="TEXCOORD" source="#Cube-mesh-map-0" offset="2" set="0"/>
          <p>47 0 0 83 0 1 84 0 2 48 1 3 0 1 4 78 1 5 49 2 6 1 2 7 0 2 8 46 3 9 2 3 10 1 3 11 56 4 12 3 4 13 2 4 14 3 5 15 47 5 16 84 5 17 83 6 18 21 6 19 77 6 20 49 7 21 55 7 22 46 7 23 78 8 24 21 8 25 48 8 26 43 9 27 23 9 28 24 9 29 23 10 30 30 10 31 24 10 32 31 11 33 66 11 34 25 11 35 31 12 36 64 12 37 63 12 38 38 13 39 31 13 40 32 13 41 29 14 42 36 14 43 30 14 44 37 15 45 65 15 46 64 15 47 34 16 48 60 16 49 40 16 50 44 17 51 37 17 52 38 17 53 60 18 54 27 18 55 40 18 56 50 19 57 27 19 58 58 19 59 22 20 60 57 20 61 45 20 62 60 21 63 22 21 64 45 21 65 60 22 66 28 22 67 22 22 68 27 23 69 55 23 70 58 23 71 28 24 72 54 24 73 22 24 74 28 25 75 52 25 76 53 25 77 75 26 78 81 26 79 80 26 80 60 27 81 34 27 82 28 27 83 33 28 84 51 28 85 55 28 86 44 29 87 72 29 88 73 29 89 39 30 90 57 30 91 51 30 92 40 31 93 52 31 94 34 31 95 39 32 96 60 32 97 45 32 98 60 33 99 33 33 100 27 33 101 60 34 102 39 34 103 33 34 104 47 35 105 53 35 106 20 35 107 21 36 108 53 36 109 52 36 110 54 37 111 59 37 112 57 37 113 49 38 114 50 38 115 58 38 116 59 39 117 51 39 118 57 39 119 48 40 120 52 40 121 50 40 122 55 41 123 56 41 124 46 41 125 5 42 126 68 42 127 11 42 128 65 43 129 4 43 130 8 43 131 6 44 132 66 44 133 63 44 134 11 45 135 67 45 136 10 45 137 4 46 138 62 46 139 5 46 140 64 47 141 8 47 142 7 47 143 7 48 144 63 48 145 64 48 146 67 49 147 9 49 148 10 49 149 65 50 150 24 50 151 61 50 152 61 51 153 30 51 154 62 51 155 62 52 156 36 52 157 68 52 158 67 53 159 36 53 160 42 53 161 2 54 162 71 54 163 1 54 164 78 55 165 70 55 166 69 55 167 3 56 168 72 56 169 2 56 170 0 57 171 71 57 172 70 57 173 74 58 174 84 58 175 81 58 176 84 59 177 73 59 178 3 59 179 71 60 180 26 60 181 70 60 182 72 61 183 32 61 184 71 61 185 73 62 186 23 62 187 44 62 188 80 63 189 83 63 190 77 63 191 29 64 192 74 64 193 75 64 194 35 65 195 75 65 196 76 65 197 69 66 198 35 66 199 76 66 200 75 67 201 79 67 202 76 67 203 82 68 204 76 68 205 79 68 206 82 69 207 78 69 208 69 69 209 25 70 210 94 70 211 93 70 212 25 71 213 93 71 214 96 71 215 100 72 216 26 72 217 97 72 218 85 73 219 41 73 220 88 73 221 91 74 222 42 74 223 92 74 224 14 75 225 85 75 226 88 75 227 15 76 228 97 76 229 16 76 230 96 77 231 13 77 232 12 77 233 70 78 234 87 78 235 69 78 236 42 79 237 90 79 238 67 79 239 13 80 240 93 80 241 94 80 242 99 81 243 14 81 244 87 81 245 67 82 246 94 82 247 66 82 248 86 83 249 18 83 250 89 83 251 96 84 252 12 84 253 95 84 254 94 85 255 19 85 256 13 85 257 95 86 258 16 86 259 98 86 260 91 87 261 19 87 262 90 87 263 18 88 264 92 88 265 89 88 266 41 89 267 86 89 268 35 89 269 19 90 270 92 90 271 18 90 272 42 91 273 89 91 274 92 91 275 88 92 276 87 92 277 14 92 278 17 93 279 86 93 280 85 93 281 89 94 282 35 94 283 86 94 284 100 95 285 15 95 286 99 95 287 16 96 288 97 96 289 98 96 290 99 97 291 26 97 292 100 97 293 41 98 294 87 98 295 88 98 296 26 99 297 98 99 298 97 99 299 95 100 300 32 100 301 31 100 302 25 101 303 95 101 304 31 101 305 47 102 306 20 102 307 83 102 308 48 103 309 49 103 310 0 103 311 49 104 312 46 104 313 1 104 314 46 105 315 56 105 316 2 105 317 56 106 318 59 106 319 3 106 320 3 107 321 59 107 322 47 107 323 83 108 324 20 108 325 21 108 326 49 109 327 58 109 328 55 109 329 78 110 330 77 110 331 21 110 332 43 111 333 44 111 334 23 111 335 23 112 336 29 112 337 30 112 338 31 113 339 63 113 340 66 113 341 31 114 342 37 114 343 64 114 344 38 115 345 37 115 346 31 115 347 29 116 348 35 116 349 36 116 350 37 117 351 43 117 352 65 117 353 44 118 354 43 118 355 37 118 356 50 119 357 40 119 358 27 119 359 22 120 360 54 120 361 57 120 362 27 121 363 33 121 364 55 121 365 28 122 366 53 122 367 54 122 368 28 123 369 34 123 370 52 123 371 75 124 372 74 124 373 81 124 374 33 125 375 39 125 376 51 125 377 44 126 378 38 126 379 72 126 380 39 127 381 45 127 382 57 127 383 40 128 384 50 128 385 52 128 386 47 129 387 54 129 388 53 129 389 21 130 390 20 130 391 53 130 392 54 131 393 47 131 394 59 131 395 49 132 396 48 132 397 50 132 398 59 133 399 56 133 400 51 133 401 48 134 402 21 134 403 52 134 404 55 135 405 51 135 406 56 135 407 5 136 408 62 136 409 68 136 410 65 137 411 61 137 412 4 137 413 6 138 414 9 138 415 66 138 416 11 139 417 68 139 418 67 139 419 4 140 420 61 140 421 62 140 422 64 141 423 65 141 424 8 141 425 7 142 426 6 142 427 63 142 428 67 143 429 66 143 430 9 143 431 65 144 432 43 144 433 24 144 434 61 145 435 24 145 436 30 145 437 62 146 438 30 146 439 36 146 440 67 147 441 68 147 442 36 147 443 2 148 444 72 148 445 71 148 446 78 149 447 0 149 448 70 149 449 3 150 450 73 150 451 72 150 452 0 151 453 1 151 454 71 151 455 84 152 456 74 152 457 73 152 458 71 153 459 32 153 460 26 153 461 72 154 462 38 154 463 32 154 464 73 155 465 74 155 466 23 155 467 78 156 468 82 156 469 79 156 470 80 157 471 81 157 472 84 157 473 77 158 474 78 158 475 79 158 476 80 159 477 84 159 478 83 159 479 77 160 480 79 160 481 80 160 482 29 161 483 23 161 484 74 161 485 35 162 486 29 162 487 75 162 488 69 163 489 41 163 490 35 163 491 75 164 492 80 164 493 79 164 494 82 165 495 69 165 496 76 165 497 25 166 498 66 166 499 94 166 500 14 167 501 17 167 502 85 167 503 15 168 504 100 168 505 97 168 506 96 169 507 93 169 508 13 169 509 70 170 510 99 170 511 87 170 512 42 171 513 91 171 514 90 171 515 99 172 516 15 172 517 14 172 518 67 173 519 90 173 520 94 173 521 86 174 522 17 174 523 18 174 524 94 175 525 90 175 526 19 175 527 95 176 528 12 176 529 16 176 530 41 177 531 85 177 532 86 177 533 19 178 534 91 178 535 92 178 536 42 179 537 36 179 538 89 179 539 89 180 540 36 180 541 35 180 542 99 181 543 70 181 544 26 181 545 41 182 546 69 182 547 87 182 548 26 183 549 32 183 550 98 183 551 95 184 552 98 184 553 32 184 554 25 185 555 96 185 556 95 185 557</p>
        </triangles>
      </mesh>
    </geometry>
  </library_geometries>
  <library_visual_scenes>
    <visual_scene id="Scene" name="Scene">
      <node id="Cube" name="Cube" type="NODE">
        <matrix sid="transform">1 0 0 0 0 1 0 0 0 0 1 0 0 0 0 1</matrix>
        <instance_geometry url="#Cube-mesh" name="Cube">
          <bind_material>
            <technique_common>
              <instance_material symbol="paintable-0-material" target="#paintable-0-material">
                <bind_vertex_input semantic="UVMap" input_semantic="TEXCOORD" input_set="0"/>
              </instance_material>
              <instance_material symbol="paintable-1-material" target="#paintable-1-material">
                <bind_vertex_input semantic="UVMap" input_semantic="TEXCOORD" input_set="0"/>
              </instance_material>
              <instance_material symbol="lightgray-material" target="#lightgray-material">
                <bind_vertex_input semantic="UVMap" input_semantic="TEXCOORD" input_set="0"/>
              </instance_material>
              <instance_material symbol="Material-material" target="#Material-material">
                <bind_vertex_input semantic="UVMap" input_semantic="TEXCOORD" input_set="0"/>
              </instance_material>
              <instance_material symbol="Material_001-material" target="#Material_001-material">
                <bind_vertex_input semantic="UVMap" input_semantic="TEXCOORD" input_set="0"/>
              </instance_material>
            </technique_common>
          </bind_material>
        </instance_geometry>
      </node>
    </visual_scene>
  </library_visual_scenes>
  <scene>
    <instance_visual_scene url="#Scene"/>
  </scene>
</COLLADA>