<?xml version="1.0" encoding="utf-8"?>
<COLLADA xmlns="http://www.collada.org/2005/11/COLLADASchema" version="1.4.1" xmlns:xsi="http://www.w3.org/2001/XMLSchema-instance">
  <asset>
    <contributor>
      <author>Blender User</author>
      <authoring_tool>Blender 4.2.22 LTS commit date:2026-06-22, commit time:11:10, hash:88937221abfc</authoring_tool>
    </contributor>
    <created>2026-07-22T19:03:16</created>
    <modified>2026-07-22T19:03:16</modified>
    <unit name="meter" meter="1"/>
    <up_axis>Z_UP</up_axis>
  </asset>
  <library_effects>
    <effect id="paintable-0-effect">
      <profile_COMMON>
        <technique sid="common">
          <lambert>
            <emission>
              <color sid="emission">0 0 0 1</color>
            </emission>
            <diffuse>
              <color sid="diffuse">1 0.4969335 0 1</color>
            </diffuse>
            <index_of_refraction>
              <float sid="ior">1.45</float>
            </index_of_refraction>
          </lambert>
        </technique>
      </profile_COMMON>
    </effect>
    <effect id="paintable-1-effect">
      <profile_COMMON>
        <technique sid="common">
          <lambert>
            <emission>
              <color sid="emission">0 0 0 1</color>
            </emission>
            <diffuse>
              <color sid="diffuse">0.6104922 0.4910214 0 1</color>
            </diffuse>
            <index_of_refraction>
              <float sid="ior">1.5</float>
            </index_of_refraction>
          </lambert>
        </technique>
      </profile_COMMON>
    </effect>
    <effect id="lightgray-effect">
      <profile_COMMON>
        <technique sid="common">
          <lambert>
            <emission>
              <color sid="emission">0 0 0 1</color>
            </emission>
            <diffuse>
              <color sid="diffuse">0.7835327 0.7835385 0.7835382 1</color>
            </diffuse>
            <index_of_refraction>
              <float sid="ior">1.5</float>
            </index_of_refraction>
          </lambert>
        </technique>
      </profile_COMMON>
    </effect>
    <effect id="Material-effect">
      <profile_COMMON>
        <technique sid="common">
          <lambert>
            <emission>
              <color sid="emission">0 0 0 1</color>
            </emission>
            <diffuse>
              <color sid="diffuse">1 0.4969335 0 1</color>
            </diffuse>
            <index_of_refraction>
              <float sid="ior">1.45</float>
            </index_of_refraction>
          </lambert>
        </technique>
      </profile_COMMON>
    </effect>
  </library_effects>
  <library_images/>
  <library_materials>
    <material id="paintable-0-material" name="paintable-0">
      <instance_effect url="#paintable-0-effect"/>
    </material>
    <material id="paintable-1-material" name="paintable-1">
      <instance_effect url="#paintable-1-effect"/>
    </material>
    <material id="lightgray-material" name="lightgray">
      <instance_effect url="#lightgray-effect"/>
    </material>
    <material id="Material-material" name="Material">
      <instance_effect url="#Material-effect"/>
    </material>
  </library_materials>
  <library_geometries>
    <geometry id="Cube-mesh" name="Cube">
      <mesh>
        <source id="Cube-mesh-positions">
          <float_array id="Cube-mesh-positions-array" count="336">-0.105 0.105 -0.105 0.105 0.105 -0.105 0.105 -0.105 -0.105 -0.105 -0.105 -0.105 -0.115 -0.09499996 -0.105 -0.115 0.09499996 -0.105 0.115 0.09499996 -0.105 0.115 -0.09499996 -0.105 0.105 -0.09085786 -0.125 0.1008579 0.09499996 -0.125 0.105 0.09085786 -0.125 -0.105 -0.09085786 -0.125 -0.105 0.09085786 -0.125 -0.1008579 0.09499996 -0.125 -0.1008579 -0.09499996 -0.125 0.1008578 -0.09499996 -0.125 -0.031066 0.07499998 -0.125 0.031066 0.07499998 -0.125 -0.07499998 0.031066 -0.125 -0.07499998 -0.031066 -0.125 -0.031066 -0.07499998 -0.125 0.031066 -0.07499998 -0.125 0.07499998 -0.031066 -0.125 0.07499998 0.031066 -0.125 -0.01035535 0.02499997 -0.125 0.01035529 0.02499997 -0.125 -0.02499997 0.01035529 -0.125 -0.02499997 -0.01035529 -0.125 -0.01035535 -0.02499997 -0.125 0.01035529 -0.02499997 -0.125 0.02499997 -0.01035529 -0.125 0.02499997 0.01035529 -0.125 -0.02692389 0.06499999 -0.125 0.02692383 0.06499999 -0.125 -0.06499999 0.02692383 -0.125 -0.06499999 -0.02692383 -0.125 -0.02692389 -0.06499999 -0.125 0.02692383 -0.06499999 -0.125 0.06499999 -0.02692383 -0.125 0.06499999 0.02692383 -0.125 -0.02692389 0.06499999 -0.106 0.02692383 0.06499999 -0.106 -0.06499999 0.02692383 -0.106 -0.06499999 -0.02692383 -0.106 -0.02692389 -0.06499999 -0.106 0.02692383 -0.06499999 -0.106 0.06499999 -0.02692383 -0.106 0.06499999 0.02692383 -0.106 -0.01035529 0.02499997 -0.106 0.01035529 0.02499997 -0.106 -0.02499997 0.01035529 -0.106 -0.02499997 -0.01035529 -0.106 -0.01035535 -0.02499997 -0.106 0.01035529 -0.02499997 -0.106 0.02499997 -0.01035529 -0.106 0.02499997 0.01035529 -0.106 -0.031066 0.07499998 -0.106 0.031066 0.07499998 -0.106 -0.07499998 0.031066 -0.106 -0.07499998 -0.031066 -0.106 -0.031066 -0.07499998 -0.106 0.031066 -0.07499998 -0.106 0.07499998 -0.031066 -0.106 0.07499998 0.031066 -0.106 0.115 0.09499996 -0.125 0.105 0.105 -0.125 -0.105 0.105 -0.125 -0.115 0.09499996 -0.125 0.115 -0.09499996 -0.125 -0.115 -0.09499996 -0.125 0.105 -0.105 -0.125 -0.105 -0.105 -0.125 0.105 -0.09085786 -0.106 0.1008579 0.09499996 -0.106 0.105 0.09085786 -0.106 -0.105 -0.09085786 -0.106 -0.105 0.09085786 -0.106 -0.1008579 0.09499996 -0.106 -0.1008579 -0.09499996 -0.106 0.1008578 -0.09499996 -0.106 -0.06249946 -0.02588814 0.125 -0.02588808 -0.0625 0.125 0.02588814 0.0625 0.125 -0.02588808 0.0625 0.125 -0.06249946 0.02588814 0.125 0.06249952 0.02588814 0.125 0.06249952 -0.02588814 0.125 0.02588814 -0.0625 0.125 -0.05177664 0.125 -0.105 -0.05177664 0.125 0.125 0.05177664 0.125 -0.105 0.05177664 0.125 0.125 0.125 0.05177664 -0.105 0.125 0.05177664 0.125 0.125 -0.05177664 -0.105 0.125 -0.05177664 0.125 0.05177664 -0.125 -0.105 0.05177664 -0.125 0.125 -0.05177664 -0.125 -0.105 -0.05177664 -0.125 0.125 -0.125 -0.05177664 -0.105 -0.125 -0.05177664 0.125 -0.125 0.05177664 -0.105 -0.125 0.05177664 0.125 -0.07177668 -0.105 -0.105 -0.115 -0.06177669 -0.105 -0.115 0.06177663 -0.105 -0.07177668 0.105 -0.105 0.07177668 0.105 -0.105 0.115 0.06177669 -0.105 0.115 -0.06177663 -0.105 0.07177668 -0.105 -0.105</float_array>
          <technique_common>
            <accessor source="#Cube-mesh-positions-array" count="112" stride="3">
              <param name="X" type="float"/>
              <param name="Y" type="float"/>
              <param name="Z" type="float"/>
            </accessor>
          </technique_common>
        </source>
        <source id="Cube-mesh-normals">
          <float_array id="Cube-mesh-normals-array" count="642">-0.7071068 0.7071068 0 0.7071068 0.7071068 -5.40213e-7 0.7071073 -0.7071062 -5.26837e-7 -1 0 7.45059e-7 -0.7071068 -0.7071068 5.26836e-7 0 1 0 1 0 -7.45059e-7 0 -1 0 0 0 -1 0 0 -1 0 0 -1 0 0 -1 0 0 -1 0 0 -1 0 0 -1 0 0 -1 0 0 -1 0.707107 0.7071067 0 -0.7071068 0.7071069 0 1 4.15091e-7 0 0 1 0 0.7071068 0.7071068 -1.47922e-7 0.7071066 -0.707107 0 1 1.79873e-7 -1.96068e-7 1.38364e-7 -1 0 0 0 -1 0 0 -1 0 0 -1 0 0 -1 0 0 -1 0 0 -1 0 0 -1 0 0 -1 -1 -1.79873e-7 1.96068e-7 -1.38364e-7 1 0 -0.707107 -0.7071067 1.38641e-7 -0.7071065 0.707107 0 3.59746e-7 -1 0 -1 -4.15091e-7 0 0.7071064 -0.7071071 0 -0.7071069 -0.7071068 0 0.7071067 0.7071068 0 0.7071066 -0.707107 0 -0.7071068 -0.7071068 0 -0.7071067 0.7071069 0 1 -1.19915e-7 0 1.19915e-7 -1 0 -1 1.19915e-7 0 -1.19915e-7 1 0 1 0 0 0 0 -1 0 0 -1 0 0 -1 0 0 -1 0 0 -1 0 0 -1 0 0 -1 0 0 -1 0 0 -1 -1 0 0 -0.7071068 -0.7071068 0 0.707108 0.7071055 0 0 1 0 0 -1 0 0.7071068 -0.7071068 0 -0.7071055 0.707108 0 0 0 -1 0 0 -1 0 0 -1 0 0 -1 0 0 -1 0 0 -1 0 0 -1 0 1 0 0.7071067 0.7071068 0 1 0 0 0.7071068 -0.7071067 0 0 -1 0 -0.7071067 -0.7071068 0 0 0 1 -1 0 0 -0.7071068 0.7071067 0 4.48515e-7 -4.48514e-7 1 0 0 -1 -4.48515e-7 -4.48515e-7 1 0 0 -1 -4.48515e-7 4.48515e-7 1 0 0 -1 4.48515e-7 4.48515e-7 1 0 0 -1 0 -1 0 0 -1 0 0 -1 0 -1 0 7.45058e-7 -1 0 7.45059e-7 -1 0 7.45058e-7 0 1 0 0 1 0 0 1 0 1 0 -7.45058e-7 1 0 -7.45059e-7 1 0 -7.45058e-7 0 0 1 0 0 1 0 0 1 0 0 1 0 0 1 0 0 1 0 0 1 -0.7071062 0.7071073 5.26836e-7 0.7071073 0.7071063 0 0.7071068 -0.7071068 -1.05367e-6 -0.7071062 -0.7071073 1.05367e-6 0 0 -1 0 0 -1 0 0 -1 0 0 -1 0 0 -1 0 0 -1 0 0 -1 0 0 -1 0 0 -1 0 0 -1 0 0 -1 0 0 -1 0 0 -1 0.707107 0.7071067 0 -0.7071067 0.7071069 1.38641e-7 1 4.15091e-7 0 0 1 0 0.7071068 0.7071068 0 0.7071066 -0.707107 0 1 1.79873e-7 -1.96068e-7 1.38364e-7 -1 0 0 0 -1 0 0 -1 0 0 -1 0 0 -1 0 0 -1 0 0 -1 0 0 -1 0 0 -1 -1 -1.79873e-7 1.96068e-7 -1.38364e-7 1 0 -0.707107 -0.7071066 0 -0.7071065 0.7071071 1.38641e-7 3.59746e-7 -1 0 -1 -4.15091e-7 0 0.7071064 -0.7071072 -1.38641e-7 -0.7071069 -0.7071068 0 0.7071067 0.7071068 0 0.7071066 -0.707107 0 -0.7071068 -0.7071068 0 -0.7071067 0.7071069 0 1 -1.19915e-7 0 1.19915e-7 -1 0 -1 1.19915e-7 0 -1.19915e-7 1 0 1 0 0 0 0 -1 0 0 -1 0 0 -1 0 0 -1 0 0 -1 0 0 -1 0 0 -1 0 0 -1 0 0 -1 -1 0 0 -0.7071068 -0.7071068 0 0.707108 0.7071055 0 0 1 0 0 -1 0 0.7071068 -0.7071068 0 -0.7071055 0.707108 0 0 0 -1 0 0 -1 0 0 -1 0 0 -1 0 0 -1 0 0 -1 0 0 -1 0 1 0 0.7071068 0.7071068 0 0.7071068 0.7071068 0 0.7071068 0.7071068 0 1 0 0 0.7071068 -0.7071068 0 0.7071068 -0.7071068 0 0.7071068 -0.7071068 0 0 -1 0 -0.7071068 -0.7071068 0 -0.7071068 -0.7071068 0 -0.7071068 -0.7071068 0 0 0 1 -1 0 0 -0.7071068 0.7071068 0 -0.7071068 0.7071068 0 -0.7071068 0.7071068 0 4.48515e-7 -4.48515e-7 1 0 0 -1 -4.48515e-7 -4.48516e-7 1 0 0 -1 -4.48515e-7 4.48515e-7 1 0 0 -1 4.48515e-7 4.48515e-7 1 0 0 -1 0 0 1 0 0 1 0 0 1 0 0 1 0 0 1 0 0 1 0 0 1</float_array>
          <technique_common>
            <accessor source="#Cube-mesh-normals-array" count="214" stride="3">
              <param name="X" type="float"/>
              <param name="Y" type="float"/>
              <param name="Z" type="float"/>
            </accessor>
          </technique_common>
        </source>
        <source id="Cube-mesh-map-0">
          <float_array id="Cube-mesh-map-0-array" count="1284">0.375 0.26 0.4583333 0.24 0.4583333 0.26 0.375 0.51 0.4583333 0.49 0.4583333 0.51 0.4583333 0.76 0.375 0.74 0.4583333 0.74 0.4583333 0.1997823 0.4583333 0.24 0.375 0.24 0.375 0 0.4583333 0.00999999 0.375 0.00999999 0.4583333 0.4536126 0.4583333 0.49 0.375 0.49 0.4583333 0.6997824 0.4583333 0.74 0.375 0.74 0.4583333 0.4536126 0.4583333 0.49 0.375 0.49 0 0 0 0 0 0 0 0 0 0 0 0 0 0 0 0 0 0 0 0 0 0 0 0 0 0 0 0 0 0 0 0 0 0 0 0 0 0 0 0 0 0 0 0 0 0 0 0 0 0 0 0 0 0 0 0 0 0 0 0 0 0 0 0 0 0 0 0 0 0 0 0 0 0 0 0 0 0 0 0 0 0 0 0 0 0 0 0 0 0 0 0 0 0 0 0 0 0 0 0 0 0 0 0 0 0 0 0 0 0 0 0 0 0 0 0 0 0 0 0 0 0 0 0 0 0 0 0 0 0 0 0 0 0 0 0 0 0 0 0 0 0 0 0 0 0 0 0 0 0 0 0 0 0 0 0 0 0 0 0 0 0 0 0 0 0 0 0 0 0 0 0 0 0 0 0 0 0 0 0 0 0 0 0 0 0 0 0 0 0 0 0 0 0 0 0 0 0 0 0 0 0 0 0 0 0 0 0 0 0 0 0 0 0 0 0 0 0 0 0 0 0 0 0 0 0 0 0 0 0 0 0 0 0 0 0 0 0 0 0 0 0 0 0 0 0 0.625 0.4970173 0.6250001 0.5463718 0.6250001 0.5463718 0.625 0.2558088 0.625 0.24 0.6250001 0.2470189 0.625 0.4970173 0.625 0.49 0.625 0.4882982 0.6250001 0.2470189 0.625 0.00999999 0.6250001 0.02589714 0.625 0.4882982 0.625 0.26 0.625 0.2558088 0.6250001 0.5463718 0.625 0.51 0.625 0.4970173 0.625 0.02347075 0.625 0.26 0.6250001 0.4250575 0.6250001 0.02589714 0.625 0 0.625 0.02347075 0.6250001 0.4250575 0.625 0.74 0.6250001 0.5463718 0 0 0.625 0.02347075 0 0 0.6250001 0.02589714 0.6250001 0.2470189 0.6250001 0.2470189 0.6250001 0.2470189 0.625 0.2558088 0.625 0.2558088 0.6250001 0.5463718 0.6250001 0.4250575 0.6250001 0.4250575 0.6250001 0.4250575 0.625 0.02347075 0.625 0.02347075 0.625 0.2558088 0.625 0.4882982 0.625 0.4882982 0.625 0.4882982 0.625 0.4970173 0.625 0.4970173 0.625 0.02347075 0.6250001 0.02589714 0.6250001 0.02589714 0 0 0.6250001 0.02589714 0 0 0.625 0.2558088 0 0 0 0 0.625 0.4882982 0 0 0 0 0 0 0.625 0.4882982 0 0 0 0 0.625 0.4970173 0 0 0.6250001 0.4250575 0 0 0 0 0 0 0.625 0.02347075 0.6250001 0.4250575 1 1 0.875 0.5 1 0.5 0.7670711 0.5 0.8408579 0.5 0.75 1 0.75 1 0.625 0.5 0.75 0.5 0.5341421 0.5 0.6079289 0.5 0.625 1 0.5 1 0.375 0.5 0.5 0.5 0.2670711 0.5 0.3408579 0.5 0.25 1 0 0 0.125 1 0.25 1 0.25 1 0.125 0.5 0.25 0.5 0.03414213 0.5 0.1079289 0.5 0.125 1 0.4583333 0.74 0.4583333 0.2963874 0.4583333 0.26 0.5 0.5 0.4583333 0.4536126 0.4583333 0.2963874 0.4583333 0.49 0.4583333 0.05021762 0.4583333 0.00999999 0.25 0.5 0.4583333 0.1997823 0.4583333 0.05021762 0.4583333 0.24 0.4583333 0.2963874 0.4583333 0.26 0.8408579 0.5 0 0.5 0.875 0.5 0.4583333 0.49 0.4583333 0.5502177 0.4583333 0.51 0.75 0.5 0.4583333 0.6997824 0.4583333 0.5502177 0.375 0.49 0.375 0.26 0.4583333 0.4536126 0.375 0.26 0.4583333 0.26 0.4583333 0.2963874 0.4583333 0.4536126 0.375 0.26 0.4583333 0.2963874 0.375 0.24 0.375 0.00999999 0.4583333 0.1997823 0.375 0.00999999 0.4583333 0.00999999 0.4583333 0.05021762 0.4583333 0.1997823 0.375 0.00999999 0.4583333 0.05021762 0.375 0.49 0.375 0.26 0.4583333 0.4536126 0.375 0.26 0.4583333 0.26 0.4583333 0.2963874 0.4583333 0.4536126 0.375 0.26 0.4583333 0.2963874 0.375 0.74 0.375 0.51 0.4583333 0.6997824 0.375 0.51 0.4583333 0.51 0.4583333 0.5502177 0.4583333 0.6997824 0.375 0.51 0.4583333 0.5502177 0 0 0 1 0.125 1 0 0 0.875 1 0 1 0 0 0.875 1 0 0 0 0 0.625 1 0.75 1 0 0 0.625 1 0 0 0 0 0.5 1 0 0 0 0 0.375 1 0 0 0.375 0.26 0.375 0.24 0.4583333 0.24 0.375 0.51 0.375 0.49 0.4583333 0.49 0.4583333 0.76 0.375 0.76 0.375 0.74 0.375 0 0.4583333 0 0.4583333 0.00999999 0 0 0 0 0 0 0 0 0 0 0 0 0 0 0 0 0 0 0 0 0 0 0 0 0 0 0 0 0 0 0 0 0 0 0 0 0 0 0 0 0 0 0 0 0 0 0 0 0 0 0 0 0 0 0 0 0 0 0 0 0 0 0 0 0 0 0 0 0 0 0 0 0 0 0 0 0 0 0 0 0 0 0 0 0 0 0 0 0 0 0 0 0 0 0 0 0 0 0 0 0 0 0 0 0 0 0 0 0 0 0 0 0 0 0 0 0 0 0 0 0 0 0 0 0 0 0 0 0 0 0 0 0 0 0 0 0 0 0 0 0 0 0 0 0 0 0 0 0 0 0 0 0 0 0 0 0 0 0 0 0 0 0 0 0 0 0 0 0 0 0 0 0 0 0 0 0 0 0 0 0 0 0 0 0 0 0 0 0 0 0 0 0 0 0 0 0 0 0 0 0 0 0 0 0 0 0 0 0 0 0 0 0 0 0 0 0 0 0 0 0 0 0 0 0 0 0 0 0 0 0 0 0 0 0 0 0 0 0 0 0 0 0 0 0 0 0 0 0 0 0 0 0 0 0 0 0 0 0 0 0 0 0 0 0 0 0 0 0 0 0.625 0.4970173 0.625 0.4970173 0.6250001 0.5463718 0.625 0.2558088 0.625 0.26 0.625 0.24 0.625 0.4970173 0.625 0.51 0.625 0.49 0.6250001 0.2470189 0.625 0.24 0.625 0.00999999 0.625 0.4882982 0.625 0.49 0.625 0.26 0.6250001 0.5463718 0.625 0.74 0.625 0.51 0.625 0.02347075 0.625 0 0.625 0.26 0.6250001 0.02589714 0.625 0.00999999 0.625 0 0.6250001 0.4250575 0.625 0.26 0.625 0.74 0 0 0.6250001 0.02589714 0.625 0.02347075 0.6250001 0.02589714 0.6250001 0.02589714 0.6250001 0.2470189 0.6250001 0.2470189 0.6250001 0.2470189 0.625 0.2558088 0.6250001 0.5463718 0.6250001 0.5463718 0.6250001 0.4250575 0.6250001 0.4250575 0.6250001 0.4250575 0.625 0.02347075 0.625 0.2558088 0.625 0.2558088 0.625 0.4882982 0.625 0.4882982 0.625 0.4882982 0.625 0.4970173 0.625 0.02347075 0.625 0.02347075 0.6250001 0.02589714 0 0 0.6250001 0.2470189 0.6250001 0.02589714 0.625 0.2558088 0.6250001 0.2470189 0 0 0.625 0.4882982 0.625 0.2558088 0 0 0 0 0.625 0.4970173 0.625 0.4882982 0 0 0.6250001 0.5463718 0.625 0.4970173 0.6250001 0.4250575 0.6250001 0.5463718 0 0 0 0 0 0 0.625 0.02347075 1 1 0.875 1 0.875 0.5 0.8408579 0.5 0.875 0.5 0.875 1 0.875 1 0.75 1 0.8408579 0.5 0.75 1 0.75 0.5 0.7670711 0.5 0.75 1 0.625 1 0.625 0.5 0.6079289 0.5 0.625 0.5 0.625 1 0.625 1 0.5 1 0.5341421 0.5 0.5 1 0.5 0.5 0.5341421 0.5 0.5 1 0.375 1 0.375 0.5 0.3408579 0.5 0.375 0.5 0.375 1 0.375 1 0.25 1 0.3408579 0.5 0.25 1 0.25 0.5 0.2670711 0.5 0 0 0 0 0.125 1 0.25 1 0.125 1 0.125 0.5 0.1079289 0.5 0.125 0.5 0.125 1 0.125 1 0 1 0.03414213 0.5 0 1 0 0.5 0.03414213 0.5 0.4583333 0.74 0.6079289 0.5 0.4583333 0.2963874 0.5 0.5 0.375 0.5 0.4583333 0.4536126 0.4583333 0.49 0.3408579 0.5 0.4583333 0.05021762 0.25 0.5 0.125 0.5 0.4583333 0.1997823 0.4583333 0.24 0.1079289 0.5 0.4583333 0.2963874 0.8408579 0.5 0.4583333 0.2963874 0 0.5 0.4583333 0.49 0.8408579 0.5 0.4583333 0.5502177 0.75 0.5 0.625 0.5 0.4583333 0.6997824 0 0 0 0 0 1 0 0 0 0 0.875 1 0 0 0.75 1 0.875 1 0 0 0 0 0.625 1 0 0 0.5 1 0.625 1 0 0 0.375 1 0.5 1 0 0 0.25 1 0.375 1</float_array>
          <technique_common>
            <accessor source="#Cube-mesh-map-0-array" count="642" stride="2">
              <param name="S" type="float"/>
              <param name="T" type="float"/>
            </accessor>
          </technique_common>
        </source>
        <vertices id="Cube-mesh-vertices">
          <input semantic="POSITION" source="#Cube-mesh-positions"/>
        </vertices>
        <triangles material="paintable-0-material" count="128">
          <input semantic="VERTEX" source="#Cube-mesh-vertices" offset="0"/>
          <input semantic="NORMAL" source="#Cube-mesh-normals" offset="1"/>
          <input semantic="TEXCOORD" source="#Cube-mesh-map-0" offset="2" set="0"/>
          <p>66 0 0 5 0 1 0 0 2 64 1 3 1 1 4 6 1 5 2 2 6 68 2 7 7 2 8 106 3 9 5 3 10 67 3 11 71 4 12 4 4 13 69 4 14 108 5 15 1 5 16 65 5 17 110 6 18 7 6 19 68 6 20 104 7 21 3 7 22 71 7 23 12 49 147 75 49 148 11 49 149 9 50 150 64 50 151 10 50 152 12 51 153 66 51 154 13 51 155 10 52 156 68 52 157 8 52 158 13 53 159 65 53 160 9 53 161 11 54 162 67 54 163 12 54 164 15 55 165 71 55 166 14 55 167 8 56 168 70 56 169 15 56 170 14 57 171 69 57 172 11 57 173 62 58 174 79 58 175 61 58 176 8 59 177 74 59 178 10 59 179 10 60 180 73 60 181 9 60 182 11 61 183 78 61 184 14 61 185 14 62 186 79 62 187 15 62 188 9 63 189 77 63 190 13 63 191 13 64 192 76 64 193 12 64 194 15 65 195 72 65 196 8 65 197 63 66 198 72 66 199 62 66 200 73 67 201 63 67 202 57 67 203 77 68 204 57 68 205 56 68 206 58 69 207 77 69 208 56 69 209 59 70 210 76 70 211 58 70 212 78 71 213 59 71 214 60 71 215 60 72 216 79 72 217 78 72 218 89 73 219 90 73 220 88 73 221 109 74 222 108 74 223 93 74 224 93 75 225 94 75 226 92 75 227 111 76 228 110 76 229 95 76 230 97 77 231 98 77 232 96 77 233 105 78 234 104 78 235 101 78 236 80 79 237 103 79 238 101 79 239 101 80 240 102 80 241 100 80 242 107 81 243 106 81 244 103 81 245 7 82 246 111 82 247 2 82 248 96 83 249 104 83 250 111 83 251 3 84 252 105 84 253 4 84 254 100 85 255 106 85 256 105 85 257 5 86 258 107 86 259 0 86 260 108 87 261 88 87 262 90 87 263 1 88 264 109 88 265 6 88 266 92 89 267 110 89 268 109 89 269 71 90 270 70 90 271 104 90 272 70 91 273 2 91 274 111 91 275 104 92 276 70 92 277 111 92 278 67 93 279 69 93 280 106 93 281 69 94 282 4 94 283 105 94 284 106 95 285 69 95 286 105 95 287 65 96 288 66 96 289 108 96 290 66 97 291 0 97 292 107 97 293 108 98 294 66 98 295 107 98 296 68 99 297 64 99 298 110 99 299 64 100 300 6 100 301 109 100 302 110 101 303 64 101 304 109 101 305 84 102 306 89 102 307 103 102 308 83 103 309 91 103 310 89 103 311 85 104 312 91 104 313 82 104 314 85 105 315 95 105 316 93 105 317 87 106 318 95 106 319 86 106 320 81 107 321 97 107 322 87 107 323 80 108 324 99 108 325 81 108 326 66 109 327 67 109 328 5 109 329 64 110 330 65 110 331 1 110 332 2 111 333 70 111 334 68 111 335 71 112 336 3 112 337 4 112 338 12 158 474 76 158 475 75 158 476 9 159 477 65 159 478 64 159 479 12 160 480 67 160 481 66 160 482 10 161 483 64 161 484 68 161 485 13 162 486 66 162 487 65 162 488 11 163 489 69 163 490 67 163 491 15 164 492 70 164 493 71 164 494 8 165 495 68 165 496 70 165 497 14 166 498 71 166 499 69 166 500 62 167 501 72 167 502 79 167 503 8 168 504 72 168 505 74 168 506 10 169 507 74 169 508 73 169 509 11 170 510 75 170 511 78 170 512 14 171 513 78 171 514 79 171 515 9 172 516 73 172 517 77 172 518 13 173 519 77 173 520 76 173 521 15 174 522 79 174 523 72 174 524 63 175 525 74 175 526 72 175 527 73 176 528 74 176 529 63 176 530 77 177 531 73 177 532 57 177 533 58 178 534 76 178 535 77 178 536 59 179 537 75 179 538 76 179 539 78 180 540 75 180 541 59 180 542 60 181 543 61 181 544 79 181 545 89 182 546 91 182 547 90 182 548 108 183 549 90 183 550 91 183 551 91 184 552 93 184 553 108 184 554 93 185 555 92 185 556 109 185 557 93 186 558 95 186 559 94 186 560 110 187 561 94 187 562 95 187 563 95 188 564 97 188 565 111 188 566 97 189 567 96 189 568 111 189 569 97 190 570 99 190 571 98 190 572 104 191 573 98 191 574 99 191 575 99 192 576 101 192 577 104 192 578 101 193 579 100 193 580 105 193 581 80 194 582 84 194 583 103 194 584 101 195 585 103 195 586 102 195 587 106 196 588 102 196 589 103 196 590 103 197 591 89 197 592 107 197 593 89 198 594 88 198 595 107 198 596 7 199 597 110 199 598 111 199 599 96 200 600 98 200 601 104 200 602 3 201 603 104 201 604 105 201 605 100 202 606 102 202 607 106 202 608 5 203 609 106 203 610 107 203 611 108 204 612 107 204 613 88 204 614 1 205 615 108 205 616 109 205 617 92 206 618 94 206 619 110 206 620 84 207 621 83 207 622 89 207 623 83 208 624 82 208 625 91 208 626 85 209 627 93 209 628 91 209 629 85 210 630 86 210 631 95 210 632 87 211 633 97 211 634 95 211 635 81 212 636 99 212 637 97 212 638 80 213 639 101 213 640 99 213 641</p>
        </triangles>
        <triangles material="lightgray-material" count="86">
          <input semantic="VERTEX" source="#Cube-mesh-vertices" offset="0"/>
          <input semantic="NORMAL" source="#Cube-mesh-normals" offset="1"/>
          <input semantic="TEXCOORD" source="#Cube-mesh-map-0" offset="2" set="0"/>
          <p>28 8 24 27 8 25 26 8 26 33 9 27 16 9 28 17 9 29 32 10 30 18 10 31 16 10 32 34 11 33 19 11 34 18 11 35 35 12 36 20 12 37 19 12 38 36 13 39 21 13 40 20 13 41 37 14 42 22 14 43 21 14 44 38 15 45 23 15 46 22 15 47 39 16 48 17 16 49 23 16 50 35 17 51 44 17 52 36 17 53 24 18 54 50 18 55 48 18 56 34 19 57 43 19 58 35 19 59 25 20 60 48 20 61 49 20 62 31 21 63 49 21 64 55 21 65 32 22 66 42 22 67 34 22 68 31 23 69 54 23 70 30 23 71 33 24 72 40 24 73 32 24 74 49 25 75 40 25 76 41 25 77 50 26 78 40 26 79 48 26 80 50 27 81 43 27 82 42 27 83 52 28 84 43 28 85 51 28 86 52 29 87 45 29 88 44 29 89 54 30 90 45 30 91 53 30 92 54 31 93 47 31 94 46 31 95 49 32 96 47 32 97 55 32 98 27 33 99 50 33 100 26 33 101 36 34 102 45 34 103 37 34 104 28 35 105 51 35 106 27 35 107 38 36 108 45 36 109 46 36 110 29 37 111 52 37 112 28 37 113 38 38 114 47 38 115 39 38 116 30 39 117 53 39 118 29 39 119 39 40 120 41 40 121 33 40 122 17 41 123 63 41 124 23 41 125 22 42 126 61 42 127 21 42 128 20 43 129 59 43 130 19 43 131 18 44 132 56 44 133 16 44 134 23 45 135 62 45 136 22 45 137 21 46 138 60 46 139 20 46 140 19 47 141 58 47 142 18 47 143 16 48 144 57 48 145 17 48 146 26 113 339 24 113 340 30 113 341 24 114 342 25 114 343 30 114 344 25 115 345 31 115 346 30 115 347 30 116 348 29 116 349 26 116 350 29 117 351 28 117 352 26 117 353 33 118 354 32 118 355 16 118 356 32 119 357 34 119 358 18 119 359 34 120 360 35 120 361 19 120 362 35 121 363 36 121 364 20 121 365 36 122 366 37 122 367 21 122 368 37 123 369 38 123 370 22 123 371 38 124 372 39 124 373 23 124 374 39 125 375 33 125 376 17 125 377 35 126 378 43 126 379 44 126 380 24 127 381 26 127 382 50 127 383 34 128 384 42 128 385 43 128 386 25 129 387 24 129 388 48 129 389 31 130 390 25 130 391 49 130 392 32 131 393 40 131 394 42 131 395 31 132 396 55 132 397 54 132 398 33 133 399 41 133 400 40 133 401 49 134 402 48 134 403 40 134 404 50 135 405 42 135 406 40 135 407 50 136 408 51 136 409 43 136 410 52 137 411 44 137 412 43 137 413 52 138 414 53 138 415 45 138 416 54 139 417 46 139 418 45 139 419 54 140 420 55 140 421 47 140 422 49 141 423 41 141 424 47 141 425 27 142 426 51 142 427 50 142 428 36 143 429 44 143 430 45 143 431 28 144 432 52 144 433 51 144 434 38 145 435 37 145 436 45 145 437 29 146 438 53 146 439 52 146 440 38 147 441 46 147 442 47 147 443 30 148 444 54 148 445 53 148 446 39 149 447 47 149 448 41 149 449 17 150 450 57 150 451 63 150 452 22 151 453 62 151 454 61 151 455 20 152 456 60 152 457 59 152 458 18 153 459 58 153 460 56 153 461 23 154 462 63 154 463 62 154 464 21 155 465 61 155 466 60 155 467 19 156 468 59 156 469 58 156 470 16 157 471 56 157 472 57 157 473</p>
        </triangles>
      </mesh>
    </geometry>
  </library_geometries>
  <library_visual_scenes>
    <visual_scene id="Scene" name="Scene">
      <node id="Cube" name="Cube" type="NODE">
        <matrix sid="transform">1 0 0 0 0 1 0 0 0 0 1 0 0 0 0 1</matrix>
        <instance_geometry url="#Cube-mesh" name="Cube">
          <bind_material>
            <technique_common>
              <instance_material symbol="paintable-0-material" target="#paintable-0-material">
                <bind_vertex_input semantic="UVMap" input_semantic="TEXCOORD" input_set="0"/>
              </instance_material>
              <instance_material symbol="paintable-1-material" target="#paintable-1-material">
                <bind_vertex_input semantic="UVMap" input_semantic="TEXCOORD" input_set="0"/>
              </instance_material>
              <instance_material symbol="lightgray-material" target="#lightgray-material">
                <bind_vertex_input semantic="UVMap" input_semantic="TEXCOORD" input_set="0"/>
              </instance_material>
              <instance_material symbol="Material-material" target="#Material-material">
                <bind_vertex_input semantic="UVMap" input_semantic="TEXCOORD" input_set="0"/>
              </instance_material>
            </technique_common>
          </bind_material>
        </instance_geometry>
      </node>
    </visual_scene>
  </library_visual_scenes>
  <scene>
    <instance_visual_scene url="#Scene"/>
  </scene>
</COLLADA>