<?xml version="1.0" encoding="utf-8"?>
<COLLADA xmlns="http://www.collada.org/2005/11/COLLADASchema" version="1.4.1" xmlns:xsi="http://www.w3.org/2001/XMLSchema-instance">
  <asset>
    <contributor>
      <author>Blender User</author>
      <authoring_tool>Blender 4.2.22 LTS commit date:2026-06-22, commit time:11:10, hash:88937221abfc</authoring_tool>
    </contributor>
    <created>2026-07-23T00:31:50</created>
    <modified>2026-07-23T00:31:50</modified>
    <unit name="meter" meter="1"/>
    <up_axis>Z_UP</up_axis>
  </asset>
  <library_effects>
    <effect id="paintable-0-effect">
      <profile_COMMON>
        <technique sid="common">
          <lambert>
            <emission>
              <color sid="emission">0 0 0 1</color>
            </emission>
            <diffuse>
              <color sid="diffuse">1 0.4969335 0 1</color>
            </diffuse>
            <index_of_refraction>
              <float sid="ior">1.45</float>
            </index_of_refraction>
          </lambert>
        </technique>
      </profile_COMMON>
    </effect>
    <effect id="paintable-1-effect">
      <profile_COMMON>
        <technique sid="common">
          <lambert>
            <emission>
              <color sid="emission">0 0 0 1</color>
            </emission>
            <diffuse>
              <color sid="diffuse">0.6104922 0.4910214 0 1</color>
            </diffuse>
            <index_of_refraction>
              <float sid="ior">1.5</float>
            </index_of_refraction>
          </lambert>
        </technique>
      </profile_COMMON>
    </effect>
    <effect id="lightgray-effect">
      <profile_COMMON>
        <technique sid="common">
          <lambert>
            <emission>
              <color sid="emission">0 0 0 1</color>
            </emission>
            <diffuse>
              <color sid="diffuse">0.7835327 0.7835385 0.7835382 1</color>
            </diffuse>
            <index_of_refraction>
              <float sid="ior">1.5</float>
            </index_of_refraction>
          </lambert>
        </technique>
      </profile_COMMON>
    </effect>
  </library_effects>
  <library_images/>
  <library_materials>
    <material id="paintable-0-material" name="paintable-0">
      <instance_effect url="#paintable-0-effect"/>
    </material>
    <material id="paintable-1-material" name="paintable-1">
      <instance_effect url="#paintable-1-effect"/>
    </material>
    <material id="lightgray-material" name="lightgray">
      <instance_effect url="#lightgray-effect"/>
    </material>
  </library_materials>
  <library_geometries>
    <geometry id="Cube-mesh" name="Cube">
      <mesh>
        <source id="Cube-mesh-positions">
          <float_array id="Cube-mesh-positions-array" count="600">-0.105 0.105 -0.105 0.105 0.105 -0.105 0.105 -0.105 -0.105 -0.105 -0.105 -0.105 -0.115 -0.09499996 -0.105 -0.115 0.09499996 -0.105 0.115 0.09499996 -0.105 0.115 -0.09499996 -0.105 0.105 -0.09085786 -0.125 0.1008579 0.09499996 -0.125 0.105 0.09085786 -0.125 -0.105 -0.09085786 -0.125 -0.105 0.09085786 -0.125 -0.1008579 0.09499996 -0.125 -0.1008579 -0.09499996 -0.125 0.1008578 -0.09499996 -0.125 -0.031066 0.07499998 -0.125 0.031066 0.07499998 -0.125 -0.07499998 0.031066 -0.125 -0.07499998 -0.031066 -0.125 -0.031066 -0.07499998 -0.125 0.031066 -0.07499998 -0.125 0.07499998 -0.031066 -0.125 0.07499998 0.031066 -0.125 -0.01035535 0.02499997 -0.125 0.01035529 0.02499997 -0.125 -0.02499997 0.01035529 -0.125 -0.02499997 -0.01035529 -0.125 -0.01035535 -0.02499997 -0.125 0.01035529 -0.02499997 -0.125 0.02499997 -0.01035529 -0.125 0.02499997 0.01035529 -0.125 -0.02692389 0.06499999 -0.125 0.02692383 0.06499999 -0.125 -0.06499999 0.02692383 -0.125 -0.06499999 -0.02692383 -0.125 -0.02692389 -0.06499999 -0.125 0.02692383 -0.06499999 -0.125 0.06499999 -0.02692383 -0.125 0.06499999 0.02692383 -0.125 -0.02692389 0.06499999 -0.106 0.02692383 0.06499999 -0.106 -0.06499999 0.02692383 -0.106 -0.06499999 -0.02692383 -0.106 -0.02692389 -0.06499999 -0.106 0.02692383 -0.06499999 -0.106 0.06499999 -0.02692383 -0.106 0.06499999 0.02692383 -0.106 -0.01035529 0.02499997 -0.106 0.01035529 0.02499997 -0.106 -0.02499997 0.01035529 -0.106 -0.02499997 -0.01035529 -0.106 -0.01035535 -0.02499997 -0.106 0.01035529 -0.02499997 -0.106 0.02499997 -0.01035529 -0.106 0.02499997 0.01035529 -0.106 -0.031066 0.07499998 -0.106 0.031066 0.07499998 -0.106 -0.07499998 0.031066 -0.106 -0.07499998 -0.031066 -0.106 -0.031066 -0.07499998 -0.106 0.031066 -0.07499998 -0.106 0.07499998 -0.031066 -0.106 0.07499998 0.031066 -0.106 0.115 0.09499996 -0.125 0.105 0.105 -0.125 -0.105 0.105 -0.125 -0.115 0.09499996 -0.125 0.115 -0.09499996 -0.125 -0.115 -0.09499996 -0.125 0.105 -0.105 -0.125 -0.105 -0.105 -0.125 0.105 -0.09085786 -0.106 0.1008579 0.09499996 -0.106 0.105 0.09085786 -0.106 -0.105 -0.09085786 -0.106 -0.105 0.09085786 -0.106 -0.1008579 0.09499996 -0.106 -0.1008579 -0.09499996 -0.106 0.1008578 -0.09499996 -0.106 0.09999996 0.09292894 0.125 0.09999996 0.09292894 0.115 -0.04349237 0.105 0.125 0.04349237 0.105 0.125 0.105 0.04349237 0.125 0.105 -0.04349237 0.125 0.04349237 -0.105 0.125 -0.04349237 -0.105 0.125 -0.105 -0.04349237 0.125 -0.105 0.04349237 0.125 0.05177664 0.125 0.125 -0.05177664 0.125 0.125 0.125 0.05177664 0.125 0.125 -0.05177664 0.125 0.05177664 -0.125 0.125 -0.05177664 -0.125 0.125 -0.125 -0.05177664 0.125 -0.125 0.05177664 0.125 0.04349237 -0.105 0.115 -0.04349237 -0.105 0.115 -0.105 -0.04349237 0.115 -0.105 0.04349237 0.115 0.09292894 -0.09999996 0.115 0.1 -0.09292888 0.125 0.1 -0.09292888 0.115 0.1 -0.1070711 0.125 0.1 -0.1070711 0.115 0.1070711 -0.09999996 0.125 0.1070711 -0.09999996 0.115 0.09499996 0.125 0.115 0.125 0.09499996 0.115 0.125 0.09499996 0.07499998 0.09499996 0.125 0.07499998 0.05177664 0.125 0.115 0.125 0.0517767 0.115 -0.09499996 0.125 0.115 -0.09999996 -0.09292894 0.125 0.05177664 0.125 0.07499998 0.05177664 -0.125 0.07499998 -0.09999996 -0.09292894 0.115 0.125 -0.05177664 0.07499998 -0.125 0.09499996 0.115 0.125 0.05177664 0.07499998 -0.07177668 0.105 -0.105 0.04349237 0.105 0.115 0.09292894 -0.09999996 0.125 0.0517767 -0.125 0.115 -0.09292894 0.09999996 0.115 0.09999996 0.1070711 0.115 0.09999996 0.1070711 0.125 0.1070711 0.1 0.115 0.1070711 0.1 0.125 0.09292888 0.1 0.115 0.09292888 0.1 0.125 -0.09499996 -0.125 0.115 -0.125 -0.09500002 0.115 -0.04349237 0.105 0.115 0.105 -0.04349237 0.115 0.105 0.04349237 0.115 0.125 -0.05177664 0.115 -0.09292894 0.09999996 0.125 -0.01035529 0.02499997 0.115 -0.01035529 0.02499997 0.125 0.01035529 0.02499997 0.115 0.01035529 0.02499997 0.125 0.02499997 0.01035529 0.115 0.02499997 0.01035529 0.125 0.02499997 -0.01035529 0.115 0.02499997 -0.01035529 0.125 0.01035529 -0.02499997 0.115 0.01035529 -0.02499997 0.125 -0.01035529 -0.02499997 0.115 -0.01035529 -0.02499997 0.125 -0.02499997 -0.01035529 0.115 -0.02499997 -0.01035529 0.125 -0.02499997 0.01035529 0.115 -0.02499997 0.01035529 0.125 0.125 -0.09499996 0.07499998 0.09499996 -0.125 0.07499998 0.09499996 -0.125 0.115 0.125 -0.09499996 0.115 -0.09499996 0.125 0.07499998 -0.125 0.09499996 0.07499998 -0.125 0.05177664 0.115 -0.0517767 0.125 0.115 -0.125 0.05177664 0.07499998 -0.05177664 0.125 0.07499998 -0.1070711 0.09999996 0.115 -0.1070711 0.09999996 0.125 -0.1 0.1070711 0.115 -0.1 0.1070711 0.125 -0.1 0.09292888 0.115 -0.1 0.09292888 0.125 -0.125 -0.09499996 0.07499998 -0.09499996 -0.125 0.07499998 -0.05177664 -0.125 0.115 -0.125 -0.0517767 0.115 -0.05177664 -0.125 0.07499998 -0.125 -0.05177664 0.07499998 -0.09999996 -0.1070711 0.115 -0.09999996 -0.1070711 0.125 -0.107071 -0.1 0.115 -0.107071 -0.1 0.125 -0.09292888 -0.1 0.115 -0.09292888 -0.1 0.125 0.05177664 -0.125 -0.105 0.125 -0.05177664 -0.105 0.05177664 0.125 -0.105 0.125 0.05177664 -0.105 -0.125 0.05177664 -0.105 -0.05177664 0.125 -0.105 -0.05177664 -0.125 -0.105 -0.125 -0.05177664 -0.105 -0.07177668 -0.105 -0.105 0.07177668 -0.105 -0.105 -0.115 -0.06177663 -0.105 -0.115 0.06177663 -0.105 0.115 -0.06177669 -0.105 0.115 0.06177663 -0.105 0.07177668 0.105 -0.105</float_array>
          <technique_common>
            <accessor source="#Cube-mesh-positions-array" count="200" stride="3">
              <param name="X" type="float"/>
              <param name="Y" type="float"/>
              <param name="Z" type="float"/>
            </accessor>
          </technique_common>
        </source>
        <source id="Cube-mesh-normals">
          <float_array id="Cube-mesh-normals-array" count="1230">-0.7071068 0.7071068 0 0.7071068 0.7071068 -5.40213e-7 0.7071073 -0.7071062 -5.26837e-7 -1 0 8.45231e-7 -0.7071068 -0.7071068 5.26836e-7 0 1 0 1 0 -8.45231e-7 0 -1 0 0 0 -1 0 0 -1 0 0 -1 0 0 -1 0 0 -1 0 0 -1 0 0 -1 0 0 -1 0 0 -1 0.707107 0.7071067 0 -0.7071068 0.7071069 0 1 4.15091e-7 0 0 1 0 0.7071068 0.7071068 -1.47922e-7 0.7071066 -0.707107 0 1 1.79873e-7 -1.96068e-7 1.38364e-7 -1 0 0 0 -1 0 0 -1 0 0 -1 0 0 -1 0 0 -1 0 0 -1 0 0 -1 0 0 -1 -1 -1.79873e-7 1.96068e-7 -1.38364e-7 1 0 -0.707107 -0.7071067 1.38641e-7 -0.7071065 0.707107 0 3.59746e-7 -1 0 -1 -4.15091e-7 0 0.7071064 -0.7071071 0 -0.7071069 -0.7071068 0 0.7071067 0.7071068 0 0.7071066 -0.707107 0 -0.7071068 -0.7071068 0 -0.7071067 0.7071069 0 1 -1.19915e-7 0 1.19915e-7 -1 0 -1 1.19915e-7 0 -1.19915e-7 1 0 1 0 0 0 0 -1 0 0 -1 0 0 -1 0 0 -1 0 0 -1 0 0 -1 0 0 -1 0 0 -1 0 0 -1 -1 0 0 -0.7071068 -0.7071068 0 0.707108 0.7071055 0 0 1 0 0 -1 0 0.7071068 -0.7071068 0 -0.7071055 0.707108 0 0 0 -1 0 0 -1 0 0 -1 0 0 -1 0 0 -1 0 0 -1 0 0 -1 0 0 1 0 0 1 1 0 0 0 1 0 0.7071067 0.7071068 0 1 0 0 0.7071068 -0.7071067 0 0 -1 0 -0.7071067 -0.7071068 0 -0.7071068 -0.7071068 0 -1 0 0 -0.7071068 0.7071067 0 0 0 1 0 0 1 0 0 1 0 0 1 0 0 1 0 0 1 0 0 1 0 0 1 1 0 0 0 1 0 -1 0 0 0 -1 0 -0.7071068 0.7071068 0 0.7071068 -0.7071068 0 -0.7071068 -0.7071068 0 -0.7071068 0.7071068 0 0.7071068 0.7071068 0 0 0 -1 0 0 1 0 0 1 0.7071068 0.7071068 0 0 0 1 0 0 -1 0 -1 0 1 1.72374e-7 0 0 1 0 -1 0 0 -0.7071069 0.7071067 0 0 0 1 0 -1 0 1 0 0 1 0 0 -1 0 0 0.7071067 0.7071069 1.31709e-7 0.7071068 -0.7071068 0 0 0 1 0 0 1 0 0 -1 -0.7071068 0.7071068 0 -0.7071068 -0.7071068 0 0.7071068 -0.7071068 0 0.7071068 0.7071068 0 0 1 0 0.7071068 -0.7071068 0 0 0 1 0 1 0 0 0 1 0.7071068 0.7071068 0 0 0 1 1 0 0 0 0 1 0.7071068 -0.7071068 0 0 0 1 0 -1 0 0 0 1 -0.7071068 -0.7071068 0 0 0 1 0 0 1 -1 0 0 0 0 1 -0.7071068 0.7071068 0 0 0 -1 0.7071068 -0.7071068 1.31709e-7 0 -1 0 0 0 1 0 0 1 0 0 1 0 0 1 -3.44748e-7 1 0 0 0 1 -0.707107 0.7071066 1.31709e-7 0 0 -1 0 0 1 0 0 1 0 0 -1 -0.7071068 -0.7071068 0 0.7071068 -0.7071068 0 0.7071068 0.7071068 0 -0.7071068 0.7071068 0 -1 0 0 0 0 1 0 0 1 -1 -5.17122e-7 0 0 0 1 -0.7071065 -0.7071072 2.63418e-7 0 0 1 0 0 1 0 0 -1 0.7071068 -0.7071068 0 0.7071068 0.7071068 0 -0.7071068 0.7071068 0 -0.7071068 -0.7071068 0 0 -1 1.86265e-7 0 0 -1 0.7071068 0.7071068 0 0 0 -1 0 1 0 0 0 -1 0 0 -1 0 0 -1 0.7071067 -0.7071068 0 -0.7071068 0.7071068 0 -0.7071068 -0.7071068 0 -0.707107 -0.7071065 0 0 0 -1 -0.7071068 -0.7071068 0 0.7071068 -0.7071068 0 -0.7071067 0.7071068 0 0 0 1 0 0 1 0 0 1 0 0 1 0.7071065 0.707107 0 0.7071068 0.7071068 0 -0.7071062 0.7071073 5.26836e-7 0.7071073 0.7071063 0 0.7071068 -0.7071068 -1.05367e-6 -1 0 3.72529e-7 -1 -2.24258e-7 7.45059e-7 -1 0 7.45059e-7 -0.7071062 -0.7071073 1.05367e-6 0 1 3.72529e-7 2.24258e-7 1 0 0 1 0 1 0 -3.72529e-7 1 -2.24258e-7 -7.45059e-7 1 0 -7.45059e-7 0 -1 0 0 -1 0 0 -1 0 0 0 -1 0 0 -1 0 0 -1 0 0 -1 0 0 -1 0 0 -1 0 0 -1 0 0 -1 0 0 -1 0 0 -1 0 0 -1 0 0 -1 0 0 -1 0.707107 0.7071067 0 -0.7071067 0.7071069 1.38641e-7 1 4.15091e-7 0 0 1 0 0.7071068 0.7071068 0 0.7071066 -0.707107 0 1 1.79873e-7 -1.96068e-7 1.38364e-7 -1 0 0 0 -1 0 0 -1 0 0 -1 0 0 -1 0 0 -1 0 0 -1 0 0 -1 0 0 -1 -1 -1.79873e-7 1.96068e-7 -1.38364e-7 1 0 -0.707107 -0.7071066 0 -0.7071065 0.7071071 1.38641e-7 3.59746e-7 -1 0 -1 -4.15091e-7 0 0.7071064 -0.7071072 -1.38641e-7 -0.7071069 -0.7071068 0 0.7071067 0.7071068 0 0.7071066 -0.707107 0 -0.7071068 -0.7071068 0 -0.7071067 0.7071069 0 1 -1.19915e-7 0 1.19915e-7 -1 0 -1 1.19915e-7 0 -1.19915e-7 1 0 1 0 0 0 0 -1 0 0 -1 0 0 -1 0 0 -1 0 0 -1 0 0 -1 0 0 -1 0 0 -1 0 0 -1 -1 0 0 -0.7071068 -0.7071068 0 0.707108 0.7071055 0 0 1 0 0 -1 0 0.7071068 -0.7071068 0 -0.7071055 0.707108 0 0 0 -1 0 0 -1 0 0 -1 0 0 -1 0 0 -1 0 0 -1 0 0 -1 0 0 1 0 0 1 1 0 0 0 1 0 0.7071068 0.7071068 5.26835e-7 1 0 0 0.7071068 -0.7071068 5.26835e-7 0 -1 0 -0.7071068 -0.7071068 5.26835e-7 -0.7071068 -0.7071068 0 -1 0 0 -0.7071068 0.7071068 5.26835e-7 0 0 1 0 0 1 0 0 1 0 0 1 0 0 1 0 0 1 0 0 1 0 0 1 1 0 0 0 1 0 -1 0 0 0 -1 0 -0.7071068 0.7071068 0 0.7071068 -0.7071068 0 -0.7071068 -0.7071068 0 -0.7071068 0.7071068 0 0.7071068 0.7071068 0 0 0 -1 0 0 1 0 0 1 0.7071068 0.7071068 0 0 0 1 0 0 -1 0 -1 0 1 3.44748e-7 1.86265e-7 0 1 0 -1 0 0 0 0 1 0 -1 0 1 0 0 1 0 0 -1 0 0 0.7071068 0.7071068 0 0 0 1 0 0 1 0 0 -1 -0.7071068 0.7071068 0 -0.7071068 -0.7071068 0 0.7071068 -0.7071068 0 0.7071068 0.7071068 0 0 1 0 0.7071068 -0.7071068 0 0 0 1 0 1 0 0 0 1 0.7071068 0.7071068 0 0 0 1 1 0 0 0 0 1 0.7071068 -0.7071068 0 0 0 1 0 -1 0 0 0 1 -0.7071068 -0.7071068 0 0 0 1 0 0 1 0 0 1 0 0 1 0 0 1 0 0 1 -1 0 0 0 0 1 -0.7071068 0.7071068 0 0 0 -1 0 0 -1 0 0 -1 0 0 -1 0 0 -1 0.7071068 -0.7071068 1.31709e-7 1.72374e-7 -1 1.86265e-7 0 0 1 0 0 1 0 0 1 0 0 1 -5.17122e-7 1 1.86265e-7 0 0 1 -0.7071069 0.7071067 0 0 0 -1 0 0 1 0 0 1 0 0 -1 -0.7071068 -0.7071068 0 0.7071068 -0.7071068 0 0.7071068 0.7071068 0 -0.7071068 0.7071068 0 -1 0 0 0 0 1 0 0 1 -1 -6.89496e-7 1.86265e-7 0 0 1 -0.7071066 -0.707107 0 0 0 1 0 0 1 0 0 -1 0.7071068 -0.7071068 0 0.7071068 0.7071068 0 -0.7071068 0.7071068 0 -0.7071068 -0.7071068 0 -1.72374e-7 -1 0 0 0 -1 0 0 -1 0 1 0 0 0 -1 0 0 -1 0 0 -1 0.7071068 -0.7071069 0 0 0 -1 -0.7071067 -0.7071068 0 -0.7071068 0.7071068 0 0 0 1 0 0 1 0 0 1 0 0 1 0.7071068 0.7071067 0</float_array>
          <technique_common>
            <accessor source="#Cube-mesh-normals-array" count="410" stride="3">
              <param name="X" type="float"/>
              <param name="Y" type="float"/>
              <param name="Z" type="float"/>
            </accessor>
          </technique_common>
        </source>
        <source id="Cube-mesh-map-0">
          <float_array id="Cube-mesh-map-0-array" count="2460">0.375 0.26 0.4583333 0.24 0.4583333 0.26 0.375 0.51 0.4583333 0.49 0.4583333 0.51 0.4583333 0.76 0.375 0.74 0.4583333 0.74 0.4583333 0.06232291 0.4583333 0.1997823 0.375 0.24 0.375 0 0.4583333 0.00999999 0.375 0.00999999 0.4583333 0.3182922 0.4583333 0.4536126 0.375 0.49 0.4583333 0.5623229 0.4583333 0.6997823 0.375 0.74 0.4583333 0.3182922 0.4583333 0.4536126 0.375 0.49 0 0 0 0 0 0 0 0 0 0 0 0 0 0 0 0 0 0 0 0 0 0 0 0 0 0 0 0 0 0 0 0 0 0 0 0 0 0 0 0 0 0 0 0 0 0 0 0 0 0 0 0 0 0 0 0 0 0 0 0 0 0 0 0 0 0 0 0 0 0 0 0 0 0 0 0 0 0 0 0 0 0 0 0 0 0 0 0 0 0 0 0 0 0 0 0 0 0 0 0 0 0 0 0 0 0 0 0 0 0 0 0 0 0 0 0 0 0 0 0 0 0 0 0 0 0 0 0 0 0 0 0 0 0 0 0 0 0 0 0 0 0 0 0 0 0 0 0 0 0 0 0 0 0 0 0 0 0 0 0 0 0 0 0 0 0 0 0 0 0 0 0 0 0 0 0 0 0 0 0 0 0 0 0 0 0 0 0 0 0 0 0 0 0 0 0 0 0 0 0 0 0 0 0 0 0 0 0 0 0 0 0 0 0 0 0 0 0 0 0 0 0 0 0 0 0 0 0 0 0 0 0 0 0 0 0 0 0 0 0 0 0 0 0 0 0 0.625 0.4970173 0.6250001 0.5463718 0.6250001 0.5463718 0.625 0.2558088 0.625 0.24 0.6250001 0.2470189 0.625 0.4970173 0.625 0.49 0.625 0.4882982 0.6250001 0.2470189 0.625 0.00999999 0.6250001 0.02589714 0.625 0.4882982 0.625 0.26 0.625 0.2558088 0.6250001 0.5463718 0.625 0.51 0.625 0.4970173 0.625 0.02347075 0.625 0.26 0.6250001 0.4250575 0.6250001 0.02589714 0.625 0 0.625 0.02347075 0.6250001 0.4250575 0.625 0.74 0.6250001 0.5463718 0 0 0.625 0.02347075 0 0 0.6250001 0.02589714 0.6250001 0.2470189 0.6250001 0.2470189 0.6250001 0.2470189 0.625 0.2558088 0.625 0.2558088 0.6250001 0.5463718 0.6250001 0.4250575 0.6250001 0.4250575 0.6250001 0.4250575 0.625 0.02347075 0.625 0.02347075 0.625 0.2558088 0.625 0.4882982 0.625 0.4882982 0.625 0.4882982 0.625 0.4970173 0.625 0.4970173 0.625 0.02347075 0.6250001 0.02589714 0.6250001 0.02589714 0 0 0.6250001 0.02589714 0 0 0.625 0.2558088 0 0 0 0 0.625 0.4882982 0 0 0 0 0 0 0.625 0.4882982 0 0 0 0 0.625 0.4970173 0 0 0.6250001 0.4250575 0 0 0 0 0 0 0.625 0.02347075 0.6250001 0.4250575 0 0 0 0 0 0 0 0 0 0 0 0 0.375 0.6666666 0.625 0.7158579 0.375 0.7158579 1 1 0.875 0.5 1 0.5 0.875 1 0.75 0.5 0.875 0.5 0.75 1 0.625 0.5 0.75 0.5 0.625 1 0.5 0.5 0.625 0.5 0.5 1 0.375 0.5 0.5 0.5 0.375 1 0.25 0.5 0.375 0.5 0.3925527 0.3925527 0.4516 0.25 0.4516 0.25 0.25 1 0.125 0.5 0.25 0.5 0.125 1 0 0.5 0.125 0.5 0.3925527 0.3925527 0.25 0.49 0.25 0.4516 0.4516 0.25 0.4197056 0.4197056 0.3925527 0.3925527 0.3925527 0.1074473 0.49 0.25 0.4516 0.25 0.25 0.04839998 0.4197056 0.08029437 0.3925527 0.1074473 0.1074473 0.1074473 0.25 0.00999999 0.25 0.04839998 0.04839998 0.25 0.08029437 0.08029437 0.1074473 0.1074473 0.1074473 0.3925526 0.00999999 0.25 0.04839998 0.25 0.25 0.4516 0.08029437 0.4197056 0.1074473 0.3925526 0.04839998 0.25 0.1074473 0.3925526 0.1074473 0.3925526 0.25 0.04839998 0.1074473 0.1074473 0.1074473 0.1074473 0.4516 0.25 0.3925527 0.1074473 0.3925527 0.1074473 0.25 0.4516 0.3925527 0.3925527 0.3925527 0.3925527 0.3925527 0.1074473 0.25 0.04839998 0.25 0.04839998 0.625 0 0.375 0.25 0.375 0 0.625 0.25 0.375 0.5 0.375 0.25 0.625 0.5 0.375 0.75 0.375 0.5 0.625 0.75 0.375 1 0.375 0.75 0.375 0.5 0.125 0.75 0.125 0.5 0.875 0.5 0.625 0.75 0.625 0.5 0 0 0 0 0 0 0.1074473 0.1074473 0.04839998 0.25 0.04839998 0.25 0 0 0 0 0 0 0.375 0.7841421 0.125 0.5833333 0.375 0.7158579 0.375 0.8333333 0.625 0.9166666 0.375 0.9166666 0.375 0.7841421 0.625 0.8333333 0.375 0.8333333 0.375 0.3333333 0.625 0.4166666 0.375 0.4166666 0.375 0.1666666 0.375 0.08333331 0.375 0.08333331 0.375 0.8333333 0.375 0.8333333 0.3067157 0.765049 0 0 0 0 0 0 0.375 0.9166666 0.375 0.8333333 0.375 0.8333333 0.375 0.6666666 0.375 0.5833333 0.375 0.5833333 0.375 0.5833333 0.625 0.6666666 0.375 0.6666666 0.375 0.08333331 0.625 0.1666666 0.375 0.1666666 0.625 0.7841421 0.375 0.7158579 0.625 0.7158579 0.375 0.8333333 0.375 0.8333333 0.375 0.7878105 0 0 0 0 0 0 0.875 0.5 0.625 0.75 0.625 0.5 0.375 0.5 0.125 0.75 0.125 0.5 0.625 0.75 0.375 1 0.375 0.75 0.625 0.5 0.375 0.75 0.375 0.5 0.625 0.25 0.375 0.5 0.375 0.25 0.625 0 0.375 0.25 0.375 0 0.375 0.6666666 0.625 0.7158579 0.375 0.7158579 0.1074473 0.3925526 0.25 0.4516 0.1074473 0.3925526 0 0 0 0 0 0 1 1 0.875 0.5 1 0.5 0 0 0 0 0 0 0.875 1 0.75 0.5 0.875 0.5 0 0 0 0 0 0 0.75 1 0.625 0.5 0.75 0.5 0 0 0 0 0 0 0.625 1 0.5 0.5 0.625 0.5 0 0 0 0 0 0 0.5 1 0.375 0.5 0.5 0.5 0 0 0 0 0 0 0.375 1 0.25 0.5 0.375 0.5 0.25 0.00999999 0.4197056 0.08029437 0.49 0.25 0.625 0.5 0.25 0.04839998 0.3925527 0.1074473 0.25 1 0.125 0.5 0.25 0.5 0 0 0 0 0 0 0.125 1 0 0.5 0.125 0.5 0.9197056 0.08029437 0.5802944 0.08029437 0.5802944 0.4197056 0.625 0.7841421 0.375 0.7158579 0.625 0.7158579 0.375 0.7841421 0.625 0.8333333 0.375 0.8333333 0 0 0 0 0 0 0 0 0 0 0 0 0 0 0 0 0 0 0 0 0 0 0 0 0.375 0.7841421 0.625 0.8333333 0.375 0.8333333 0 0 0 0 0 0 0.625 0.7841421 0.375 0.7158579 0.625 0.7158579 0.375 0.7841421 0.2916666 0.5 0.375 0.7158579 0 0 0 0 0 0 0.875 0.5 0.625 0.75 0.625 0.5 0.375 0.5 0.125 0.75 0.125 0.5 0.625 0.75 0.375 1 0.375 0.75 0.625 0.5 0.375 0.75 0.375 0.5 0.625 0.25 0.375 0.5 0.375 0.25 0.625 0 0.375 0.25 0.375 0 0.375 0.6666666 0.625 0.7158579 0.375 0.7158579 0 0 0 0 0 0 0 0 0 0 0 0 0.375 0.7841421 0.625 0.8333333 0.375 0.8333333 0 0 0 0 0 0 0.625 0.7841421 0.375 0.7158579 0.625 0.7158579 0 0 0 0 0 0 0.875 0.5 0.625 0.75 0.625 0.5 0.375 0.5 0.125 0.75 0.125 0.5 0.625 0.75 0.375 1 0.375 0.75 0.625 0.5 0.375 0.75 0.375 0.5 0.625 0.25 0.375 0.5 0.375 0.25 0.625 0 0.375 0.25 0.375 0 0.375 0.6666666 0.625 0.7158579 0.375 0.7158579 0.375 0.7841421 0.375 0.6666666 0.375 0.7158579 0.2916666 0.5 0.2916666 0.5 0.3144281 0.5910457 0.375 0.7841421 0.375 0.6666666 0.375 0.7158579 0.375 0.4166666 0.375 0.3333333 0.375 0.3333333 0.2916666 0.5 0.2083333 0.5227614 0.2083333 0.5 0.1363807 0.5833333 0.125 0.6666666 0.125 0.5833333 0.2916666 0.7272385 0.2083333 0.75 0.2083333 0.7272385 0.375 0.6666666 0.375 0.7878105 0.375 0.6894281 0.125 0.5833333 0.125 0.5833333 0.1591421 0.6174755 0.375 0.6666666 0.375 0.6666666 0.375 0.7121895 0.375 0.8333333 0.375 0.8333333 0.375 0.8105719 0.3636193 0.5833333 0.375 0.6666666 0.3636193 0.6666666 0.375 0.8333333 0.375 0.7121895 0.375 0.6666666 0.375 0.6666666 0.375 0.6666666 0.375 0.6894281 0.125 0.5833333 0.3067157 0.765049 0.1591421 0.6174755 0.4583333 0.24 0.4583333 0.2963874 0.4583333 0.26 0.4583333 0.49 0.4583333 0.5502176 0.4583333 0.51 0.4583333 0.6997823 0.4583333 0.26 0.4583333 0.74 0.4583333 0.00999999 0.375 0.7121895 0.4583333 0.05021762 0.375 0.8333333 0.375 0.8333333 0.3636193 0.7878105 0.375 0.8333333 0.3144281 0.5910457 0.2916666 0.5 0.375 0.26 0.375 0.24 0.4583333 0.24 0.375 0.51 0.375 0.49 0.4583333 0.49 0.4583333 0.76 0.375 0.76 0.375 0.74 0.375 0.24 0.375 0.00999999 0.4583333 0.06232291 0.375 0.00999999 0.4583333 0.00999999 0.4583333 0.06232291 0.4583333 0.1997823 0.4583333 0.24 0.375 0.24 0.375 0 0.4583333 0 0.4583333 0.00999999 0.375 0.49 0.375 0.26 0.4583333 0.3182922 0.375 0.26 0.4583333 0.26 0.4583333 0.3182922 0.4583333 0.4536126 0.4583333 0.49 0.375 0.49 0.375 0.74 0.375 0.51 0.4583333 0.5623229 0.375 0.51 0.4583333 0.51 0.4583333 0.5623229 0.4583333 0.6997823 0.4583333 0.74 0.375 0.74 0.375 0.49 0.375 0.26 0.4583333 0.3182922 0.375 0.26 0.4583333 0.26 0.4583333 0.3182922 0.4583333 0.4536126 0.4583333 0.49 0.375 0.49 0 0 0 0 0 0 0 0 0 0 0 0 0 0 0 0 0 0 0 0 0 0 0 0 0 0 0 0 0 0 0 0 0 0 0 0 0 0 0 0 0 0 0 0 0 0 0 0 0 0 0 0 0 0 0 0 0 0 0 0 0 0 0 0 0 0 0 0 0 0 0 0 0 0 0 0 0 0 0 0 0 0 0 0 0 0 0 0 0 0 0 0 0 0 0 0 0 0 0 0 0 0 0 0 0 0 0 0 0 0 0 0 0 0 0 0 0 0 0 0 0 0 0 0 0 0 0 0 0 0 0 0 0 0 0 0 0 0 0 0 0 0 0 0 0 0 0 0 0 0 0 0 0 0 0 0 0 0 0 0 0 0 0 0 0 0 0 0 0 0 0 0 0 0 0 0 0 0 0 0 0 0 0 0 0 0 0 0 0 0 0 0 0 0 0 0 0 0 0 0 0 0 0 0 0 0 0 0 0 0 0 0 0 0 0 0 0 0 0 0 0 0 0 0 0 0 0 0 0 0 0 0 0 0 0 0 0 0 0 0 0 0 0 0 0 0 0 0 0 0 0 0 0 0 0 0 0 0 0 0 0 0 0 0 0 0 0 0 0 0 0.625 0.4970173 0.625 0.4970173 0.6250001 0.5463718 0.625 0.2558088 0.625 0.26 0.625 0.24 0.625 0.4970173 0.625 0.51 0.625 0.49 0.6250001 0.2470189 0.625 0.24 0.625 0.00999999 0.625 0.4882982 0.625 0.49 0.625 0.26 0.6250001 0.5463718 0.625 0.74 0.625 0.51 0.625 0.02347075 0.625 0 0.625 0.26 0.6250001 0.02589714 0.625 0.00999999 0.625 0 0.6250001 0.4250575 0.625 0.26 0.625 0.74 0 0 0.6250001 0.02589714 0.625 0.02347075 0.6250001 0.02589714 0.6250001 0.02589714 0.6250001 0.2470189 0.6250001 0.2470189 0.6250001 0.2470189 0.625 0.2558088 0.6250001 0.5463718 0.6250001 0.5463718 0.6250001 0.4250575 0.6250001 0.4250575 0.6250001 0.4250575 0.625 0.02347075 0.625 0.2558088 0.625 0.2558088 0.625 0.4882982 0.625 0.4882982 0.625 0.4882982 0.625 0.4970173 0.625 0.02347075 0.625 0.02347075 0.6250001 0.02589714 0 0 0.6250001 0.2470189 0.6250001 0.02589714 0.625 0.2558088 0.6250001 0.2470189 0 0 0.625 0.4882982 0.625 0.2558088 0 0 0 0 0.625 0.4970173 0.625 0.4882982 0 0 0.6250001 0.5463718 0.625 0.4970173 0.6250001 0.4250575 0.6250001 0.5463718 0 0 0 0 0 0 0.625 0.02347075 0 0 0 0 0 0 0 0 0 0 0 0 0.375 0.6666666 0.625 0.6666666 0.625 0.7158579 1 1 0.875 1 0.875 0.5 0.875 1 0.75 1 0.75 0.5 0.75 1 0.625 1 0.625 0.5 0.625 1 0.5 1 0.5 0.5 0.5 1 0.375 1 0.375 0.5 0.375 1 0.25 1 0.25 0.5 0.3925527 0.3925527 0.3925527 0.3925527 0.4516 0.25 0.25 1 0.125 1 0.125 0.5 0.125 1 0 1 0 0.5 0.3925527 0.3925527 0.4197056 0.4197056 0.25 0.49 0.4516 0.25 0.49 0.25 0.4197056 0.4197056 0.3925527 0.1074473 0.4197056 0.08029437 0.49 0.25 0.25 0.04839998 0.25 0.00999999 0.4197056 0.08029437 0.1074473 0.1074473 0.08029437 0.08029437 0.25 0.00999999 0.04839998 0.25 0.00999999 0.25 0.08029437 0.08029437 0.1074473 0.3925526 0.08029437 0.4197056 0.00999999 0.25 0.25 0.4516 0.25 0.49 0.08029437 0.4197056 0.04839998 0.25 0.04839998 0.25 0.1074473 0.3925526 0.25 0.04839998 0.25 0.04839998 0.1074473 0.1074473 0.4516 0.25 0.4516 0.25 0.3925527 0.1074473 0.25 0.4516 0.25 0.4516 0.3925527 0.3925527 0.3925527 0.1074473 0.3925527 0.1074473 0.25 0.04839998 0.625 0 0.625 0.25 0.375 0.25 0.625 0.25 0.625 0.5 0.375 0.5 0.625 0.5 0.625 0.75 0.375 0.75 0.625 0.75 0.625 1 0.375 1 0.375 0.5 0.375 0.75 0.125 0.75 0.875 0.5 0.875 0.75 0.625 0.75 0 0 0 0 0 0 0.1074473 0.1074473 0.1074473 0.1074473 0.04839998 0.25 0 0 0 0 0 0 0.375 0.7841421 0.375 0.8333333 0.125 0.5833333 0.375 0.8333333 0.625 0.8333333 0.625 0.9166666 0.375 0.7841421 0.625 0.7841421 0.625 0.8333333 0.375 0.3333333 0.625 0.3333333 0.625 0.4166666 0.375 0.1666666 0.375 0.1666666 0.375 0.08333331 0 0 0 0 0 0 0.375 0.9166666 0.375 0.9166666 0.375 0.8333333 0.375 0.6666666 0.375 0.6666666 0.375 0.5833333 0.375 0.5833333 0.625 0.5833333 0.625 0.6666666 0.375 0.08333331 0.625 0.08333331 0.625 0.1666666 0.625 0.7841421 0.375 0.7841421 0.375 0.7158579 0 0 0 0 0 0 0.875 0.5 0.875 0.75 0.625 0.75 0.375 0.5 0.375 0.75 0.125 0.75 0.625 0.75 0.625 1 0.375 1 0.625 0.5 0.625 0.75 0.375 0.75 0.625 0.25 0.625 0.5 0.375 0.5 0.625 0 0.625 0.25 0.375 0.25 0.375 0.6666666 0.625 0.6666666 0.625 0.7158579 0.1074473 0.3925526 0.25 0.4516 0.25 0.4516 0 0 0 0 0 0 1 1 0.875 1 0.875 0.5 0 0 0 0 0 0 0.875 1 0.75 1 0.75 0.5 0 0 0 0 0 0 0.75 1 0.625 1 0.625 0.5 0 0 0 0 0 0 0.625 1 0.5 1 0.5 0.5 0 0 0 0 0 0 0.5 1 0.375 1 0.375 0.5 0 0 0 0 0 0 0.375 1 0.25 1 0.25 0.5 0.49 0.25 0.4197056 0.4197056 0.00999999 0.25 0.4197056 0.4197056 0.25 0.49 0.00999999 0.25 0.25 0.49 0.08029437 0.4197056 0.00999999 0.25 0.00999999 0.25 0.08029437 0.08029437 0.49 0.25 0.08029437 0.08029437 0.25 0.00999999 0.49 0.25 0.625 0.5 0.5 0.5 0.25 0.04839998 0.25 1 0.125 1 0.125 0.5 0 0 0 0 0 0 0.125 1 0 1 0 0.5 0.5802944 0.4197056 0.75 0.49 0.9197056 0.4197056 0.9197056 0.4197056 0.99 0.25 0.9197056 0.08029437 0.9197056 0.08029437 0.75 0.00999999 0.5802944 0.08029437 0.5802944 0.08029437 0.51 0.25 0.5802944 0.4197056 0.5802944 0.4197056 0.9197056 0.4197056 0.9197056 0.08029437 0.625 0.7841421 0.375 0.7841421 0.375 0.7158579 0.375 0.7841421 0.625 0.7841421 0.625 0.8333333 0 0 0 0 0 0 0 0 0 0 0 0 0 0 0 0 0 0 0 0 0 0 0 0 0.375 0.7841421 0.625 0.7841421 0.625 0.8333333 0 0 0 0 0 0 0.625 0.7841421 0.375 0.7841421 0.375 0.7158579 0.375 0.7841421 0.375 0.8333333 0.2916666 0.5 0 0 0 0 0 0 0.875 0.5 0.875 0.75 0.625 0.75 0.375 0.5 0.375 0.75 0.125 0.75 0.625 0.75 0.625 1 0.375 1 0.625 0.5 0.625 0.75 0.375 0.75 0.625 0.25 0.625 0.5 0.375 0.5 0.625 0 0.625 0.25 0.375 0.25 0.375 0.6666666 0.625 0.6666666 0.625 0.7158579 0 0 0 0 0 0 0 0 0 0 0 0 0.375 0.7841421 0.625 0.7841421 0.625 0.8333333 0 0 0 0 0 0 0.625 0.7841421 0.375 0.7841421 0.375 0.7158579 0 0 0 0 0 0 0.875 0.5 0.875 0.75 0.625 0.75 0.375 0.5 0.375 0.75 0.125 0.75 0.625 0.75 0.625 1 0.375 1 0.625 0.5 0.625 0.75 0.375 0.75 0.625 0.25 0.625 0.5 0.375 0.5 0.625 0 0.625 0.25 0.375 0.25 0.375 0.6666666 0.625 0.6666666 0.625 0.7158579 0.375 0.7841421 0.375 0.8333333 0.375 0.6666666 0.375 0.7841421 0.375 0.8333333 0.375 0.6666666 0.375 0.4166666 0.375 0.4166666 0.375 0.3333333 0.2916666 0.5 0.2916667 0.5227615 0.2083333 0.5227614 0.1363807 0.5833333 0.1363807 0.6666666 0.125 0.6666666 0.2916666 0.7272385 0.2916666 0.75 0.2083333 0.75 0.375 0.6666666 0.375 0.8333333 0.375 0.7878105 0.3636193 0.5833333 0.375 0.5833333 0.375 0.6666666 0.375 0.8333333 0.375 0.8105719 0.375 0.7121895 0.125 0.5833333 0.375 0.8333333 0.3067157 0.765049 0.4583333 0.24 0.1591421 0.6174755 0.4583333 0.2963874 0.4583333 0.49 0.3144281 0.5910457 0.4583333 0.5502176 0.4583333 0.6997823 0.375 0.7878105 0.4583333 0.26 0.4583333 0.00999999 0.4583333 0.49 0.375 0.7121895 0.375 0.8333333 0.3636193 0.7878105 0.3144281 0.5910457</float_array>
          <technique_common>
            <accessor source="#Cube-mesh-map-0-array" count="1230" stride="2">
              <param name="S" type="float"/>
              <param name="T" type="float"/>
            </accessor>
          </technique_common>
        </source>
        <vertices id="Cube-mesh-vertices">
          <input semantic="POSITION" source="#Cube-mesh-positions"/>
        </vertices>
        <triangles material="paintable-0-material" count="276">
          <input semantic="VERTEX" source="#Cube-mesh-vertices" offset="0"/>
          <input semantic="NORMAL" source="#Cube-mesh-normals" offset="1"/>
          <input semantic="TEXCOORD" source="#Cube-mesh-map-0" offset="2" set="0"/>
          <p>66 0 0 5 0 1 0 0 2 64 1 3 1 1 4 6 1 5 2 2 6 68 2 7 7 2 8 195 3 9 196 3 10 67 3 11 71 4 12 4 4 13 69 4 14 123 5 15 199 5 16 65 5 17 198 6 18 197 6 19 68 6 20 194 7 21 193 7 22 71 7 23 12 49 147 75 49 148 11 49 149 9 50 150 64 50 151 10 50 152 12 51 153 66 51 154 13 51 155 10 52 156 68 52 157 8 52 158 13 53 159 65 53 160 9 53 161 11 54 162 67 54 163 12 54 164 15 55 165 71 55 166 14 55 167 8 56 168 70 56 169 15 56 170 14 57 171 69 57 172 11 57 173 62 58 174 79 58 175 61 58 176 8 59 177 74 59 178 10 59 179 10 60 180 73 60 181 9 60 182 11 61 183 78 61 184 14 61 185 14 62 186 79 62 187 15 62 188 9 63 189 77 63 190 13 63 191 13 64 192 76 64 193 12 64 194 15 65 195 72 65 196 8 65 197 63 66 198 72 66 199 62 66 200 73 67 201 63 67 202 57 67 203 77 68 204 57 68 205 56 68 206 58 69 207 77 69 208 56 69 209 59 70 210 76 70 211 58 70 212 78 71 213 59 71 214 60 71 215 60 72 216 79 72 217 78 72 218 130 73 219 109 73 220 128 73 221 102 74 222 159 74 223 106 74 224 120 75 225 160 75 226 157 75 227 91 76 228 113 76 229 164 76 230 90 77 231 114 77 232 113 77 233 92 78 234 139 78 235 114 78 236 93 79 237 126 79 238 139 79 239 94 80 240 175 80 241 126 80 242 95 81 243 176 81 244 175 81 245 83 82 246 138 82 247 84 82 248 96 83 249 163 83 250 176 83 251 97 84 252 164 84 253 163 84 254 83 85 255 91 85 256 82 85 257 84 86 258 90 86 259 83 86 260 85 87 261 92 87 262 84 87 263 86 88 264 93 88 265 85 88 266 87 89 267 94 89 268 86 89 269 88 90 270 95 90 271 87 90 272 89 91 273 96 91 274 88 91 275 82 92 276 97 92 277 89 92 278 88 93 279 101 93 280 89 93 281 86 94 282 99 94 283 87 94 284 84 95 285 137 95 286 85 95 287 82 96 288 124 96 289 83 96 290 85 97 291 98 97 292 86 97 293 139 104 312 102 104 313 104 104 314 87 105 315 100 105 316 88 105 317 109 106 318 132 106 319 128 106 320 161 107 321 165 107 322 162 107 323 118 108 324 175 108 325 177 108 326 111 109 327 114 109 328 122 109 329 166 110 330 113 110 331 117 110 332 165 111 333 192 111 334 178 111 335 166 112 336 190 112 337 123 112 338 81 113 339 110 113 340 130 113 341 177 114 342 185 114 343 118 114 344 120 115 345 188 115 346 122 115 347 122 116 348 139 116 349 120 116 350 178 117 351 163 117 352 165 117 353 110 118 354 112 118 355 109 118 356 118 119 357 185 119 358 194 119 359 113 120 360 81 120 361 132 120 362 117 127 381 109 127 382 112 127 383 101 128 384 82 128 385 89 128 386 99 129 387 153 129 388 100 129 389 142 130 390 143 130 391 141 130 392 101 131 393 153 131 394 155 131 395 144 132 396 145 132 397 143 132 398 136 133 399 155 133 400 141 133 401 146 134 402 147 134 403 145 134 404 136 135 405 143 135 406 124 135 407 148 136 408 149 136 409 147 136 410 124 137 411 145 137 412 138 137 413 150 138 414 151 138 415 149 138 416 137 139 417 145 139 418 147 139 419 152 140 420 153 140 421 151 140 422 150 141 423 148 141 424 146 141 425 147 142 426 98 142 427 137 142 428 154 143 429 155 143 430 153 143 431 99 144 432 149 144 433 151 144 434 156 145 435 141 145 436 155 145 437 147 146 438 151 146 439 155 146 440 159 147 441 157 147 442 160 147 443 158 148 444 126 148 445 118 148 446 106 149 447 160 149 448 108 149 449 160 150 450 104 150 451 108 150 452 169 151 453 121 151 454 167 151 455 121 152 456 171 152 457 167 152 458 161 153 459 164 153 460 166 153 461 127 154 462 115 154 463 169 154 464 115 155 465 162 155 466 121 155 467 111 156 468 117 156 469 112 156 470 163 157 471 127 157 472 171 157 473 165 164 492 121 164 493 162 164 494 181 165 495 134 165 496 179 165 497 134 166 498 183 166 499 179 166 500 173 167 501 176 167 502 178 167 503 119 168 504 135 168 505 181 168 506 135 169 507 174 169 508 134 169 509 175 170 510 119 170 511 183 170 512 177 177 531 134 177 532 174 177 533 173 178 534 177 178 535 174 178 536 187 179 537 117 179 538 199 179 539 158 180 540 120 180 541 157 180 542 117 181 543 190 181 544 166 181 545 187 182 546 123 182 547 190 182 548 196 183 549 192 183 550 189 183 551 194 184 552 191 184 553 193 184 554 120 185 555 194 185 556 197 185 557 189 186 558 165 186 559 196 186 560 191 187 561 177 187 562 193 187 563 178 188 564 192 188 565 195 188 566 198 189 567 186 189 568 197 189 569 178 190 570 193 190 571 177 190 572 186 191 573 120 191 574 197 191 575 165 192 576 123 192 577 196 192 578 5 193 579 123 193 580 0 193 581 1 194 582 198 194 583 6 194 584 197 195 585 2 195 586 7 195 587 4 196 588 193 196 589 195 196 590 122 197 591 188 197 592 198 197 593 122 198 594 199 198 595 117 198 596 66 199 597 67 199 598 5 199 599 64 200 600 65 200 601 1 200 602 2 201 603 70 201 604 68 201 605 67 202 606 69 202 607 195 202 608 69 203 609 4 203 610 195 203 611 196 204 612 5 204 613 67 204 614 71 205 615 3 205 616 4 205 617 65 206 618 66 206 619 123 206 620 66 207 621 0 207 622 123 207 623 199 208 624 1 208 625 65 208 626 68 209 627 64 209 628 198 209 629 64 210 630 6 210 631 198 210 632 197 211 633 7 211 634 68 211 635 71 212 636 70 212 637 194 212 638 70 213 639 2 213 640 194 213 641 193 214 642 3 214 643 71 214 644 12 260 780 76 260 781 75 260 782 9 261 783 65 261 784 64 261 785 12 262 786 67 262 787 66 262 788 10 263 789 64 263 790 68 263 791 13 264 792 66 264 793 65 264 794 11 265 795 69 265 796 67 265 797 15 266 798 70 266 799 71 266 800 8 267 801 68 267 802 70 267 803 14 268 804 71 268 805 69 268 806 62 269 807 72 269 808 79 269 809 8 270 810 72 270 811 74 270 812 10 271 813 74 271 814 73 271 815 11 272 816 75 272 817 78 272 818 14 273 819 78 273 820 79 273 821 9 274 822 73 274 823 77 274 824 13 275 825 77 275 826 76 275 827 15 276 828 79 276 829 72 276 830 63 277 831 74 277 832 72 277 833 73 278 834 74 278 835 63 278 836 77 279 837 73 279 838 57 279 839 58 280 840 76 280 841 77 280 842 59 281 843 75 281 844 76 281 845 78 282 846 75 282 847 59 282 848 60 283 849 61 283 850 79 283 851 130 284 852 110 284 853 109 284 854 102 285 855 126 285 856 159 285 857 120 286 858 139 286 859 160 286 860 91 287 861 90 287 862 113 287 863 90 288 864 92 288 865 114 288 866 92 289 867 93 289 868 139 289 869 93 290 870 94 290 871 126 290 872 94 291 873 95 291 874 175 291 875 95 292 876 96 292 877 176 292 878 83 293 879 124 293 880 138 293 881 96 294 882 97 294 883 163 294 884 97 295 885 91 295 886 164 295 887 83 296 888 90 296 889 91 296 890 84 297 891 92 297 892 90 297 893 85 298 894 93 298 895 92 298 896 86 299 897 94 299 898 93 299 899 87 300 900 95 300 901 94 300 902 88 301 903 96 301 904 95 301 905 89 302 906 97 302 907 96 302 908 82 303 909 91 303 910 97 303 911 88 304 912 100 304 913 101 304 914 86 305 915 98 305 916 99 305 917 84 306 918 138 306 919 137 306 920 82 307 921 136 307 922 124 307 923 85 308 924 137 308 925 98 308 926 139 315 945 126 315 946 102 315 947 87 316 948 99 316 949 100 316 950 109 317 951 113 317 952 132 317 953 161 318 954 166 318 955 165 318 956 118 319 957 126 319 958 175 319 959 111 320 960 110 320 961 114 320 962 166 321 963 164 321 964 113 321 965 165 322 966 189 322 967 192 322 968 81 323 969 114 323 970 110 323 971 177 324 972 191 324 973 185 324 974 120 325 975 186 325 976 188 325 977 122 326 978 114 326 979 139 326 980 178 327 981 176 327 982 163 327 983 110 328 984 111 328 985 112 328 986 113 329 987 114 329 988 81 329 989 117 336 1008 113 336 1009 109 336 1010 101 337 1011 136 337 1012 82 337 1013 99 338 1014 151 338 1015 153 338 1016 142 339 1017 144 339 1018 143 339 1019 101 340 1020 100 340 1021 153 340 1022 144 341 1023 146 341 1024 145 341 1025 136 342 1026 101 342 1027 155 342 1028 146 343 1029 148 343 1030 147 343 1031 136 344 1032 141 344 1033 143 344 1034 148 345 1035 150 345 1036 149 345 1037 124 346 1038 143 346 1039 145 346 1040 150 347 1041 152 347 1042 151 347 1043 137 348 1044 138 348 1045 145 348 1046 152 349 1047 154 349 1048 153 349 1049 146 350 1050 144 350 1051 154 350 1052 144 351 1053 142 351 1054 154 351 1055 142 352 1056 156 352 1057 154 352 1058 154 353 1059 152 353 1060 146 353 1061 152 354 1062 150 354 1063 146 354 1064 147 355 1065 149 355 1066 98 355 1067 154 356 1068 156 356 1069 155 356 1070 99 357 1071 98 357 1072 149 357 1073 156 358 1074 142 358 1075 141 358 1076 155 359 1077 141 359 1078 143 359 1079 143 360 1080 145 360 1081 147 360 1082 147 361 1083 149 361 1084 151 361 1085 151 362 1086 153 362 1087 155 362 1088 155 363 1089 143 363 1090 147 363 1091 159 364 1092 158 364 1093 157 364 1094 158 365 1095 159 365 1096 126 365 1097 106 366 1098 159 366 1099 160 366 1100 160 367 1101 139 367 1102 104 367 1103 169 368 1104 115 368 1105 121 368 1106 121 369 1107 163 369 1108 171 369 1109 161 370 1110 115 370 1111 164 370 1112 127 371 1113 164 371 1114 115 371 1115 115 372 1116 161 372 1117 162 372 1118 111 373 1119 122 373 1120 117 373 1121 163 374 1122 164 374 1123 127 374 1124 165 381 1143 163 381 1144 121 381 1145 181 382 1146 135 382 1147 134 382 1148 134 383 1149 175 383 1150 183 383 1151 173 384 1152 135 384 1153 176 384 1154 119 385 1155 176 385 1156 135 385 1157 135 386 1158 173 386 1159 174 386 1160 175 387 1161 176 387 1162 119 387 1163 177 394 1182 175 394 1183 134 394 1184 173 395 1185 178 395 1186 177 395 1187 158 396 1188 118 396 1189 120 396 1190 117 397 1191 187 397 1192 190 397 1193 187 398 1194 199 398 1195 123 398 1196 196 399 1197 195 399 1198 192 399 1199 194 400 1200 185 400 1201 191 400 1202 120 401 1203 118 401 1204 194 401 1205 198 402 1206 188 402 1207 186 402 1208 178 403 1209 195 403 1210 193 403 1211 165 404 1212 166 404 1213 123 404 1214 5 405 1215 196 405 1216 123 405 1217 1 406 1218 199 406 1219 198 406 1220 197 407 1221 194 407 1222 2 407 1223 4 408 1224 3 408 1225 193 408 1226 122 409 1227 198 409 1228 199 409 1229</p>
        </triangles>
        <triangles material="lightgray-material" count="134">
          <input semantic="VERTEX" source="#Cube-mesh-vertices" offset="0"/>
          <input semantic="NORMAL" source="#Cube-mesh-normals" offset="1"/>
          <input semantic="TEXCOORD" source="#Cube-mesh-map-0" offset="2" set="0"/>
          <p>28 8 24 27 8 25 26 8 26 33 9 27 16 9 28 17 9 29 32 10 30 18 10 31 16 10 32 34 11 33 19 11 34 18 11 35 35 12 36 20 12 37 19 12 38 36 13 39 21 13 40 20 13 41 37 14 42 22 14 43 21 14 44 38 15 45 23 15 46 22 15 47 39 16 48 17 16 49 23 16 50 35 17 51 44 17 52 36 17 53 24 18 54 50 18 55 48 18 56 34 19 57 43 19 58 35 19 59 25 20 60 48 20 61 49 20 62 31 21 63 49 21 64 55 21 65 32 22 66 42 22 67 34 22 68 31 23 69 54 23 70 30 23 71 33 24 72 40 24 73 32 24 74 49 25 75 40 25 76 41 25 77 50 26 78 40 26 79 48 26 80 50 27 81 43 27 82 42 27 83 52 28 84 43 28 85 51 28 86 52 29 87 45 29 88 44 29 89 54 30 90 45 30 91 53 30 92 54 31 93 47 31 94 46 31 95 49 32 96 47 32 97 55 32 98 27 33 99 50 33 100 26 33 101 36 34 102 45 34 103 37 34 104 28 35 105 51 35 106 27 35 107 38 36 108 45 36 109 46 36 110 29 37 111 52 37 112 28 37 113 38 38 114 47 38 115 39 38 116 30 39 117 53 39 118 29 39 119 39 40 120 41 40 121 33 40 122 17 41 123 63 41 124 23 41 125 22 42 126 61 42 127 21 42 128 20 43 129 59 43 130 19 43 131 18 44 132 56 44 133 16 44 134 23 45 135 62 45 136 22 45 137 21 46 138 60 46 139 20 46 140 19 47 141 58 47 142 18 47 143 16 48 144 57 48 145 17 48 146 107 98 294 106 98 295 108 98 296 105 99 297 102 99 298 106 99 299 125 100 300 104 100 301 102 100 302 103 101 303 108 101 304 104 101 305 102 102 306 108 102 307 106 102 308 105 103 309 103 103 310 125 103 311 131 121 363 133 121 364 80 121 365 81 122 366 128 122 367 130 122 368 133 123 369 128 123 370 132 123 371 80 124 372 132 124 373 81 124 374 131 125 375 81 125 376 130 125 377 129 126 378 130 126 379 128 126 380 170 158 474 172 158 475 140 158 476 127 159 477 167 159 478 169 159 479 172 160 480 167 160 481 171 160 482 140 161 483 171 161 484 127 161 485 170 162 486 127 162 487 169 162 488 168 163 489 169 163 490 167 163 491 182 171 513 184 171 514 116 171 515 119 172 516 179 172 517 181 172 518 184 173 519 179 173 520 183 173 521 116 174 522 183 174 523 119 174 524 182 175 525 119 175 526 181 175 527 180 176 528 181 176 529 179 176 530 26 215 645 24 215 646 30 215 647 24 216 648 25 216 649 30 216 650 25 217 651 31 217 652 30 217 653 30 218 654 29 218 655 26 218 656 29 219 657 28 219 658 26 219 659 33 220 660 32 220 661 16 220 662 32 221 663 34 221 664 18 221 665 34 222 666 35 222 667 19 222 668 35 223 669 36 223 670 20 223 671 36 224 672 37 224 673 21 224 674 37 225 675 38 225 676 22 225 677 38 226 678 39 226 679 23 226 680 39 227 681 33 227 682 17 227 683 35 228 684 43 228 685 44 228 686 24 229 687 26 229 688 50 229 689 34 230 690 42 230 691 43 230 692 25 231 693 24 231 694 48 231 695 31 232 696 25 232 697 49 232 698 32 233 699 40 233 700 42 233 701 31 234 702 55 234 703 54 234 704 33 235 705 41 235 706 40 235 707 49 236 708 48 236 709 40 236 710 50 237 711 42 237 712 40 237 713 50 238 714 51 238 715 43 238 716 52 239 717 44 239 718 43 239 719 52 240 720 53 240 721 45 240 722 54 241 723 46 241 724 45 241 725 54 242 726 55 242 727 47 242 728 49 243 729 41 243 730 47 243 731 27 244 732 51 244 733 50 244 734 36 245 735 44 245 736 45 245 737 28 246 738 52 246 739 51 246 740 38 247 741 37 247 742 45 247 743 29 248 744 53 248 745 52 248 746 38 249 747 46 249 748 47 249 749 30 250 750 54 250 751 53 250 752 39 251 753 47 251 754 41 251 755 17 252 756 57 252 757 63 252 758 22 253 759 62 253 760 61 253 761 20 254 762 60 254 763 59 254 764 18 255 765 58 255 766 56 255 767 23 256 768 63 256 769 62 256 770 21 257 771 61 257 772 60 257 773 19 258 774 59 258 775 58 258 776 16 259 777 56 259 778 57 259 779 107 309 927 105 309 928 106 309 929 105 310 930 125 310 931 102 310 932 125 311 933 103 311 934 104 311 935 103 312 936 107 312 937 108 312 938 102 313 939 104 313 940 108 313 941 105 314 942 107 314 943 103 314 944 131 330 990 129 330 991 133 330 992 81 331 993 132 331 994 128 331 995 133 332 996 129 332 997 128 332 998 80 333 999 133 333 1000 132 333 1001 131 334 1002 80 334 1003 81 334 1004 129 335 1005 131 335 1006 130 335 1007 170 375 1125 168 375 1126 172 375 1127 127 376 1128 171 376 1129 167 376 1130 172 377 1131 168 377 1132 167 377 1133 140 378 1134 172 378 1135 171 378 1136 170 379 1137 140 379 1138 127 379 1139 168 380 1140 170 380 1141 169 380 1142 182 388 1164 180 388 1165 184 388 1166 119 389 1167 183 389 1168 179 389 1169 184 390 1170 180 390 1171 179 390 1172 116 391 1173 184 391 1174 183 391 1175 182 392 1176 116 392 1177 119 392 1178 180 393 1179 182 393 1180 181 393 1181</p>
        </triangles>
      </mesh>
    </geometry>
  </library_geometries>
  <library_visual_scenes>
    <visual_scene id="Scene" name="Scene">
      <node id="Cube" name="Cube" type="NODE">
        <matrix sid="transform">1 0 0 0 0 1 0 0 0 0 1 0 0 0 0 1</matrix>
        <instance_geometry url="#Cube-mesh" name="Cube">
          <bind_material>
            <technique_common>
              <instance_material symbol="paintable-0-material" target="#paintable-0-material">
                <bind_vertex_input semantic="UVMap" input_semantic="TEXCOORD" input_set="0"/>
              </instance_material>
              <instance_material symbol="paintable-1-material" target="#paintable-1-material">
                <bind_vertex_input semantic="UVMap" input_semantic="TEXCOORD" input_set="0"/>
              </instance_material>
              <instance_material symbol="lightgray-material" target="#lightgray-material">
                <bind_vertex_input semantic="UVMap" input_semantic="TEXCOORD" input_set="0"/>
              </instance_material>
            </technique_common>
          </bind_material>
        </instance_geometry>
      </node>
    </visual_scene>
  </library_visual_scenes>
  <scene>
    <instance_visual_scene url="#Scene"/>
  </scene>
</COLLADA>