<?xml version="1.0" encoding="utf-8"?>
<COLLADA xmlns="http://www.collada.org/2005/11/COLLADASchema" version="1.4.1" xmlns:xsi="http://www.w3.org/2001/XMLSchema-instance">
  <asset>
    <contributor>
      <author>Blender User</author>
      <authoring_tool>Blender 4.2.23 LTS commit date:2026-07-20, commit time:13:44, hash:d0cbe84903e8</authoring_tool>
    </contributor>
    <created>2026-09-01T16:10:10</created>
    <modified>2026-09-01T16:10:10</modified>
    <unit name="meter" meter="1"/>
    <up_axis>Z_UP</up_axis>
  </asset>
  <library_effects>
    <effect id="concrete-1-effect">
      <profile_COMMON>
        <technique sid="common">
          <lambert>
            <emission>
              <color sid="emission">0 0 0 1</color>
            </emission>
            <diffuse>
              <color sid="diffuse">0.6 0.533 0.475 1</color>
            </diffuse>
            <index_of_refraction>
              <float sid="ior">1.5</float>
            </index_of_refraction>
          </lambert>
        </technique>
      </profile_COMMON>
    </effect>
    <effect id="galvalume-effect">
      <profile_COMMON>
        <technique sid="common">
          <lambert>
            <emission>
              <color sid="emission">0 0 0 1</color>
            </emission>
            <diffuse>
              <color sid="diffuse">0.5271116 0.5271156 0.5271153 1</color>
            </diffuse>
            <index_of_refraction>
              <float sid="ior">1.5</float>
            </index_of_refraction>
          </lambert>
        </technique>
      </profile_COMMON>
    </effect>
    <effect id="asphalt-1-effect">
      <profile_COMMON>
        <technique sid="common">
          <lambert>
            <emission>
              <color sid="emission">0 0 0 1</color>
            </emission>
            <diffuse>
              <color sid="diffuse">0.188 0.165 0.176 1</color>
            </diffuse>
            <index_of_refraction>
              <float sid="ior">1.5</float>
            </index_of_refraction>
          </lambert>
        </technique>
      </profile_COMMON>
    </effect>
    <effect id="white-line-effect">
      <profile_COMMON>
        <technique sid="common">
          <lambert>
            <emission>
              <color sid="emission">0 0 0 1</color>
            </emission>
            <diffuse>
              <color sid="diffuse">0.8 0.8 0.8 1</color>
            </diffuse>
            <index_of_refraction>
              <float sid="ior">1.5</float>
            </index_of_refraction>
          </lambert>
        </technique>
      </profile_COMMON>
    </effect>
  </library_effects>
  <library_images/>
  <library_materials>
    <material id="concrete-1-material" name="concrete-1">
      <instance_effect url="#concrete-1-effect"/>
    </material>
    <material id="galvalume-material" name="galvalume">
      <instance_effect url="#galvalume-effect"/>
    </material>
    <material id="asphalt-1-material" name="asphalt-1">
      <instance_effect url="#asphalt-1-effect"/>
    </material>
    <material id="white-line-material" name="white-line">
      <instance_effect url="#white-line-effect"/>
    </material>
  </library_materials>
  <library_geometries>
    <geometry id="Cube-mesh" name="Cube">
      <mesh>
        <source id="Cube-mesh-positions">
          <float_array id="Cube-mesh-positions-array" count="1308">57.5 55.00831 1.5 22.91423 70 1.5 26.95999 28.88435 1.5 22.91423 70 -20 150 40 1.5 150 40 -20 150 3.8147e-6 -20 150 3.8147e-6 1.5 -149.9999 35.83334 -1.5 -149.9999 39.50001 1.5 -149.9999 39.50001 -1.5 -25 70 1.5 -25 70 -20 100.5 66.00001 1.5 112.5 0.003765106 1.5 -150 70 1.5 -150 70 -20 57.5 40 1.5 57.5 70 -20 57.5 70 1.5 150 49.0083 -20 -57.5 40 1.5 -57.5 70 -20 -57.5 70 1.5 24.06997 29.5128 8 150 28.72371 -20 150 28.72371 1.5 -149.9999 39.50001 -20 -149.9999 17.93704 -1.5 61.60424 28.72369 1.5 -57.5 28 1.5 -57.5 0 1.5 72.04783 0.03017425 1.5 149.5 40 1.5 112.5 29.22374 1.5 112.5 50.00831 1.5 149.5 28.7237 1.5 149.5 -7.62939e-6 1.5 112.5 39.50376 1.5 112.5 28.7237 1.5 22.91422 66 1.5 -149.9999 65.99999 1.5 -149.9999 65.99999 -20 -25 66 1.5 57.5 66 1.5 -57.5 66 1.5 112.5 40 1.5 -149.5 70.00001 -20 -149.5 40 1.5 -149.9999 40 -1.5 -149.5 70.00001 1.5 -149.5 27.99999 1.5 -149.5 0 1.5 -149.4999 66.00003 1.5 -24.99995 39.49999 8 150 39.49998 -20 -149.9999 35.83334 1.5 57.67101 39.53016 1.5 -149.9999 35.83334 -20 26.49014 28.71334 8 150 39.49998 1.5 -149.9999 40 -20 -57.49998 39.50001 1.5 149.5 39.49998 1.5 -149.4999 39.49998 1.5 150 40 -1.5 149.5 49.0083 1.5 150 29.22366 1.5 -149.9999 42.00079 1.5 -57.5 28.5 1.5 -149.5 28.5 1.5 -24.99999 28.5 8 150 29.22372 -20 -149.9999 27.99999 -1.5 61.42225 29.22371 1.5 150 49.0083 1.5 149.5 29.22374 1.5 57.5 49.0083 1.5 -20.00007 70 -20 -19.00004 27.5 8 -20.00007 70 1.5 -20.5001 28 8.100001 -19.00005 1.90735e-5 8 -20.00009 66 1.5 -20.5001 28.50001 8 -20.00006 28.5 8 30.59438 17.43702 8 36.94094 1.52588e-5 8 26.95999 28.88435 8 30.41239 17.93705 8 149.5 50.00831 1.5 22.44438 39.82899 1.5 57.5 50.00831 1.5 22.41423 70 1.5 24.07071 29.51322 8.099997 22.41423 70 -20 22.41422 66 1.5 22.41422 40.81958 1.5 23.89969 29.98307 8.099997 26.64721 28.2818 8 27.131 28.41451 8 30.88224 18.10806 8 20.25294 70 1.5 -149.9999 42.00079 -20 -149.9999 42.50082 -1.5 -149.9999 0 -1.5 -149.9999 17.43705 -1.5 -57.5 17.93705 1.5 -57.5 17.437 1.5 -149.5 17.93704 1.5 -149.5 17.43704 1.5 -19.00004 17.93705 8 -19.00004 17.43706 8 -10.25007 28.60667 8 -10.25005 70 -20 -10.25007 66 1.5 -10.25005 70 1.5 -10.25007 40 8 -10.25007 1.71661e-5 8 -10.25007 40 1.5 -10.25007 39.49996 8 -10.25007 28.1409 8 -10.25007 17.93705 8 -10.25007 17.43704 8 -25.0001 39.50083 8.099997 -25.00015 40.00084 8.099997 57.67086 39.531 1.599996 57.49985 40.00084 1.599996 -57.50015 40.00084 1.599996 23.42985 29.81201 8.099997 23.60087 29.34216 8 -57.50013 39.50085 1.599996 26.95984 28.88519 8.099997 23.60087 29.34217 8.099997 26.48999 28.71418 8.099997 -10.25021 40.00084 8.099997 -10.25022 39.50081 8.099997 23.42911 29.81159 8 27.13085 28.41535 8.099997 26.64706 28.28264 8.099997 30.59438 17.43702 8.100001 36.94094 1.52588e-5 8.100001 61.60424 28.72369 1.6 61.42225 29.22371 1.6 30.41239 17.93705 8.100001 30.88224 18.10806 8.100001 31.06423 17.60804 8.100001 37.47302 1.52588e-5 8.100001 72.04783 0.03017425 1.6 -57.5 28 1.6 -25 28 8.100001 -57.5 28.5 1.6 -57.5 0 1.6 -25 0 8.100001 -57.5 17.437 1.6 -25 17.93704 8.100001 -19.00005 1.90735e-5 8.100001 -24.99999 28.5 8.100001 -19 27.5 8.100001 -20.00006 28.5 8.100001 -19.00004 17.43706 8.100001 -57.5 17.93705 1.6 -25 17.43704 8.100001 -19 17.93705 8.100001 -24.49999 70.00002 -20 -24.5 66.00002 1.5 -24.49999 70.00002 1.5 -20.5001 70.00001 1.5 -24.5 28.50001 8 -24.50014 40.00085 8.099997 -24.5001 39.50084 8.099997 -24.50013 9.53674e-6 8.100001 -24.5 28.00001 8.100001 -24.49998 28.50001 8.100001 -24.50005 17.93705 8.100001 -24.50005 17.43705 8.100001 22.91422 42.5008 1.5 112.5 43.00207 1.5 -24.5001 39.50084 8 -20.00024 39.50082 8 -20.50009 28.50001 8.100001 -20.49999 17.93705 8.100001 -20.49998 17.43705 8.100001 -20.50011 66.00001 1.5 -20.5001 70.00001 -20 -20.64552 1.43051e-5 8.100001 -57.5 42.5008 1.5 -20.50022 39.50083 8 -20.50026 40.00085 8.099997 -20.50022 39.50083 8.099997 -20.00028 40.00084 8.099997 -20.00024 39.50082 8.099997 -57.5 42.0008 1.5 150 51.00831 -20 22.91422 42.0008 1.5 57.5 51.00831 1.5 149.5 51.00831 1.5 -149.9999 40 1.5 150 51.00831 1.5 -149.5 42.00082 1.5 22.41422 42.0008 1.5 -34.75 70 1.5 -34.75 40 6.05 -34.74997 39.5 6.05 -34.75 28.5 6.05 -34.75015 40.00084 6.149997 -34.75012 39.50085 6.149997 -34.75 28 6.150001 -34.75 0 6.150001 -34.75 28.5 6.150001 -34.75 17.93704 6.150001 -34.75 17.43702 6.150001 -34.75 70 -20 -34.75 66 1.5 -34.75004 42.0008 1.5 -20.50011 40.00001 8 -20.00013 40 8 -24.5 40.00001 8 112.5 43.50207 1.5 -149.9999 42.00079 -1.5 -20.0001 42.5008 1.5 -149.4999 42.50082 1.5 22.41422 42.5008 1.5 -10.25007 42.5008 1.5 -24.5 42.50082 1.5 -20.50011 42.50081 1.5 -20.50011 42.00081 8 -20.50011 42.50081 8 -24.5 42.00082 8 -24.5 42.50082 8 -20.0001 42.5008 8 -20.50011 42.00081 8.100001 -20.50011 42.50081 8.100001 -24.5 42.00082 8.100001 -24.5 42.50082 8.100001 -20.00011 42.0008 8.100001 -20.0001 42.5008 8.100001 -10.25007 42.0008 1.6 -10.25007 42.5008 1.6 -10.25007 42.0008 1.5 -20.00013 42.0008 8 -34.75004 40 1.5 -24.99997 40 8 -25 42.5008 1.5 -34.75003 42.5008 1.5 -25 42.5008 8 -24.99999 42.0008 8.100001 -25 42.5008 8.100001 -34.75003 42.0008 1.6 -34.75003 42.5008 1.6 -149.9999 0 1.5 -149.9999 0 -20 -149.9999 17.43705 -20 -149.9999 17.43705 1.5 -149.9999 17.93704 1.5 -149.9999 17.93704 -20 -149.9999 27.99999 -20 -149.9999 27.99999 1.5 -149.9999 28.5 -1.5 -149.9999 28.5 1.5 -149.9999 32.16666 -20 -149.9999 32.16666 1.5 -24.99997 42.0008 8 25.95011 30.19711 8 26.41996 30.36812 8 25.95011 30.19711 8.100001 26.41996 30.36812 8.100001 20.56424 39.14468 1.5 23.89896 29.98261 8 22.91422 40 1.5 26.24893 30.83797 8 25.77909 30.66694 8.100001 26.24893 30.83797 8.100001 22.44438 39.82899 1.6 22.91422 40 1.6 25.7791 30.66692 8 150 43.50208 1.5 26.24893 30.83797 1.5 57.5 43.50207 1.5 150 43.50208 -20 149.5 43.50207 1.5 150 43.00208 1.5 26.41996 30.36812 1.5 57.5 43.00207 1.5 150 43.00208 -20 149.5 43.00207 1.5 20.56424 39.14468 8 20.25294 70 -20 20.25292 66 1.5 20.25293 42.5008 1.5 20.25293 42.0008 1.5 24.38128 28.66 8 24.54459 28.21135 8 34.81348 1.62125e-5 8 28.28442 17.93705 8 28.46643 17.43703 8 19.78011 40 8 19.78011 40 1.5 19.90361 39.49996 8 19.77997 40.00084 8.099997 19.90347 39.50081 8.099997 19.78013 70 1.5 19.78013 70 -20 19.78011 66 1.5 19.78011 42.5008 1.5 19.78011 42.0008 1.5 20.56424 39.14468 8.099997 150 50.00831 -20 20.25293 40 8 20.25292 40 8.099997 150 50.00831 1.5 22.91422 41.0004 1.5 20.25293 40 1.5 -24.99998 32.16666 8 -24.99997 35.83333 8 -149.9999 28.5 -20 -149.9999 32.16666 -1.5 -149.9999 42.50082 -20 -149.9999 42.50082 1.5 -57.49999 35.83334 1.5 -57.49999 32.16667 1.5 -149.4999 35.83332 1.5 -149.5 32.16666 1.5 -10.25007 35.86886 8 -10.25007 32.23777 8 -20.00018 35.83388 8 -20.00012 32.16694 8 -24.50007 35.8339 8 -24.50004 32.16695 8 -20.50018 35.83389 8 -20.50014 32.16695 8 -34.74998 35.83333 6.05 -34.74998 32.16666 6.05 34.27721 1.66893e-5 8 27.75012 17.93705 8 27.93207 17.43704 8 23.85885 28.63334 8 24.02424 28.17613 8 100 0.01508331 1.5 100 40 1.5 100 70 -20 100 70 1.5 100 28.72369 1.5 100 66 1.5 100 39.51507 1.5 100 49.0083 1.5 100 29.22373 1.5 100 43.50207 1.5 100 43.00207 1.5 100 50.00831 1.5 100.5 40 1.5 100.5 28.7237 1.5 100.5 39.50753 1.5 100.5 29.22373 1.5 100.5 0.007537841 1.5 100.5 70 -20 100.5 49.0083 1.5 112.5 49.0083 1.5 100.5 43.50207 1.5 100.5 43.00207 1.5 100.5 50.00831 1.5 150 55.00831 1.5 150 55.00831 -20 149.5 55.00831 -20 149.5 55.00831 1.5 112.5 70 -1.379998 113 66.00001 -1.5 113 70 -1.5 113 55.00831 -20 113 29.22374 1.5 113 39.50187 1.5 113 0.001878738 1.5 113 49.0083 1.5 113 28.7237 1.5 113 43.50207 1.5 113 40 1.5 113 43.00207 1.5 113 50.00831 1.5 150 3.8147e-6 -1.5 -25 70 -1.5 -150 70 -1.5 22.91423 70 -1.5 57.5 70 -1.5 -57.5 70 -1.5 150 28.72371 -1.5 -149.9999 65.99999 -1.5 -149.5 70.00001 -1.5 150 39.49998 -1.5 150 29.22369 -1.5 150 49.0083 -1.5 -20.00007 70 -1.5 22.41423 70 -1.5 -10.25005 70 -1.5 -24.49999 70.00002 -1.5 -20.5001 70.00001 -1.5 150 51.00831 -1.5 -34.75 70 -1.5 150 43.50208 -1.5 150 43.00208 -1.5 20.25294 70 -1.5 19.78013 70 -1.5 150 50.00831 -1.5 100 70 -1.5 100.5 70 -1.5 150 55.00831 -1.5 149.5 55.00831 -1.5 112.5 66.00001 -1.379998 112.5 55.00831 -1.379998 113 55.00831 -1.5 112.5 70 -20 112.5 70 -1.5 113 66.00001 -20 100.5 70 1.5 113 70 -20 113 51.00831 1.5 112.5 51.00831 1.5 100.5 51.00831 1.5 100 51.00831 1.5 112.5 55.00831 1.5 100 55.00831 1.5 100.5 55.00831 1.5 113 55.00831 1.5 24.07071 29.51322 9.099997 23.60087 29.34217 9.099997 23.42985 29.81201 9.099997 23.89969 29.98307 9.099997 -10.25021 40.00084 9.099997 -10.25022 39.50081 9.099997 -20.50026 40.00085 9.099997 -20.50022 39.50083 9.099997 -20.00028 40.00084 9.099997 -20.00024 39.50082 9.099997 19.77997 40.00084 9.099997 19.90347 39.50081 9.099997 20.56424 39.14468 9.099997 20.25292 40 9.099997</float_array>
          <technique_common>
            <accessor source="#Cube-mesh-positions-array" count="436" stride="3">
              <param name="X" type="float"/>
              <param name="Y" type="float"/>
              <param name="Z" type="float"/>
            </accessor>
          </technique_common>
        </source>
        <source id="Cube-mesh-normals">
          <float_array id="Cube-mesh-normals-array" count="2406">0 0 1 0 1 0 -2.6702e-5 1 0 0 0 1 -1 -2.28881e-5 0 1 0 0 0 0 1 -1 0 0 -1 0 0 0 0 1 0 0 1 -1.52588e-5 1 0 0 0 1 0 0 1 1 0 0 0 0 1 0 0 1 1.52589e-5 1 0 0 0 1 -1 0 0 0 0 1 1 0 0 -1 0 0 -0.3420201 0.9396926 0 0 0 1 0 1 0 1 -4.3754e-7 0 0.9396924 0.3420209 0 0 0 1 0 0 1 1.52588e-5 1 6.35775e-5 0 0 1 0 0 1 0 0 1 0 0 1 -1 0 0 0 0 1 0 0 1 0 0 1 0.9396924 0.3420208 0 0 0 1 0 0 1 0 0 1 0 1 0 0 0 1 0 0 1 0 0 1 -0.3420114 0.9396958 0 1 0 0 0 0 1 0 0 1 -1 0 0 -0.196116 2.04033e-7 0.9805807 1 0 0 -1 0 0 0 0 1 0 0 1 0 0 1 0 0 1 0 0 1 0 0 1 1 0 0 0 0 1 -2.28887e-5 0.9999645 -0.00843048 0 0 1 1.52579e-5 1 0 0 0 1 0 0 1 0.9396926 0.3420202 0 -0.9396935 -0.3420179 0 0.9396926 0.3420202 0 -0.3435915 0.9390814 -0.008428335 0 0 1 -0.9396817 -0.3420503 -6.40758e-6 0 0 1 0 1 0 0.939691 0.3420214 -0.001485407 0 0 1 0 0 1 0 0 1 -2.20593e-7 1 0 0.1842888 0.06707566 0.9805807 0 0 1 0 0 1 0 0 1 -1 0 0 0 1 0 -1 0 0 -1 0 0 0 0 1 0 0 1 0.9999999 -5.98356e-7 -4.38688e-4 0 0 1 0 0 1 0 0 1 0 0 1 0 0 1 0 0 1 0 0 1 0 1 0 0 0 1 0 0 1 0.3420986 -0.9396629 0.001476466 -0.001693964 -0.9999628 0.008466064 -0.196116 -1.18385e-5 0.9805807 0 0 1 0.939691 0.3420245 0 0.1842886 0.0670759 0.9805807 0.9396815 0.3420506 0 -0.3420873 0.9396682 0 0 0 1 -0.939656 -0.3420173 0.0084154 0.2645279 -0.9643404 0.008523643 0 0 1 0 0.9999645 -0.008430421 0.9396815 0.3420506 0 -0.9999989 -3.05182e-5 -0.001487493 0 1 0 -0.9396919 -0.3420188 0.001485466 0.001685559 0.9999631 -0.008427917 0.3435904 -0.9390817 0.008429706 -1.17375e-6 -1 0 0 0 1 0 0 1 0.1842892 0.06707483 0.9805806 0.1842889 0.06707566 0.9805807 -0.9396926 -0.3420202 0 -0.3420261 0.9396905 0 0.9396942 0.3420159 0 -0.34202 0.9396927 0 0 0 1 0 0 1 -0.1961161 0 0.9805806 -0.1961162 0 0.9805807 -0.1961161 0 0.9805807 -0.1961162 0 0.9805806 0 0 1 0 0 1 -1 0 0 -1 0 0 0.7070892 0.7071243 -2.6973e-4 0 0 1 0 0 1 0 0 1 0 0 1 7.62909e-6 -0.9999645 0.00843048 -3.05168e-5 1 0 0 0 1 1.52584e-5 1 0 0 0 1 0 0 1 0 0 1 1.43055e-6 1 0 0 0 1 7.62893e-6 1 0 -0.9999989 -8.01061e-5 -0.001487076 0.9999989 8.39207e-5 0.001487016 0 0 1 0 0 1 0 0 1 1.9074e-6 1 0 0 0 1 0 0 1 0.342099 -0.939664 0 -2.28892e-5 -1 0 1.52589e-5 0.9999645 -0.008430421 0 0 1 0 0 1 0 0 1 1 0 0 0 0 1 0 0 1 0 0 1 0 0 1 0 0 1 0 1 0 0 1 0 0 1 0 0 0 1 -0.1961161 0 0.9805807 -0.1961161 0 0.9805808 -0.1961161 1.49624e-6 0.9805807 -0.1961161 0 0.9805807 0.00168544 0.9999631 -0.008427321 -0.1961158 -1.80314e-5 0.9805808 -0.001686096 -0.9999631 0.008427917 0 1 0 -0.1961159 4.08067e-7 0.9805808 0 0 1 0 0 1 0 0 1 0 0 1 0 0 1 1.90741e-6 1 0 0 0 1 1 0 0 0 0 1 0 0 1 0 0 1 0 0 1 -1.52594e-5 -1 0 -3.05172e-5 1 0 -1 -6.86645e-5 0 -3.05172e-5 1 0 0 0 1 0 0 1 0 0 1 -1.90741e-6 -1 0 1.52584e-5 1 0 1.90741e-6 1 0 3.05179e-5 -1 0 0 1 0 1 1.90735e-6 9.53674e-6 0 1 0 0.5546985 -1.2696e-5 0.8320515 0 0 1 0.9396511 0.3420302 -0.008433401 0 -1 0 0 1 0 -1 7.62939e-6 3.8147e-5 0 1 0 -0.5546984 -1.23705e-5 0.8320515 0.5546975 0 0.8320521 0 -1 0 -1 0 0 -1 0 0 -1 0 0 -1 0 0 -1 0 0 -1 0 0 -1 0 0 -1 0 0 -1 0 0 -1 0 0 -1 0 0 -1 0 0 -0.5546973 0 0.8320522 0 1 0 -0.1897336 0.5212403 0.8320515 -0.1897178 0.521245 0.8320522 0 0 1 0 0 1 0 0 1 1 0 0 1 0 0 0 0 1 0 0 1 0 0 1 0.9396962 0.3420103 0 0.9396952 0.34201 -0.001485288 8.26725e-7 -2.27143e-6 1 -0.9396641 -0.3420988 0 0 1 0 0 0 1 0 0 1 -0.9396941 -0.3420159 0 0 0 1 0 0 1 0 0 1 0 0 1 -1 -8.01062e-5 0 0 0.9999645 -0.008430421 0 -0.9999645 0.008430421 0 1 0 0 0 1 0 0 1 0 1 0 0 0 1 0 1 0 0 1 0 0.9396593 0.3420079 -0.008425295 0.9396924 0.3420208 0 0.9396927 0.3420201 0 0 0 1 0.001782476 0.9999985 0 -0.9396839 -0.3419407 0.008413851 0 0 1 0 0 1 0 0 1 0 0 1 1 0 0 0 0 1 0 0 1 -0.196116 6.12101e-7 0.9805807 -0.196116 4.08067e-7 0.9805807 0 0 1 0 0 1 0 0 1 0 0 1 0 0 1 0 0 1 0 0 1 0 0 1 -0.1961161 4.08067e-7 0.9805807 -0.196116 2.04034e-7 0.9805807 -1 0 0 -1 0 0 0 0 1 0 0 1 0 0 1 0 0 1 0 0 1 0 0 1 0 0 1 0 0 1 0 0 1 0 0 1 0 0 1 0 0 1 0 0 1 0 0 1 0 0 1 0 0 1 0 0 1 0 0 1 0 0 1 0 0 1 0 0 1 0 0 1 0 0 1 0 1 0 0 0 1 0 0 1 0 0 1 0 0 1 0 0 1 0 0 1 0 0 1 0 0 1 0 0 1 0 0 1 0 0 1 0 1 0 0 0 1 0 0 1 0 1 0 0 1 0 0.2333728 0 0.9723874 0 0 1 0 0 1 0 0 1 0 1 0 0 0 1 0 0 1 0 0 1 0 0 1 0 0 1 0 0 1 0 0 1 0 0 1 0 0 1 0.2333758 0 0.9723866 0.2333758 0 0.9723866 0 1 0 0 1 0 0 1 0 0 1 0 0 1 0 1 0 0 0 1 0 0 1 0 1 0 0 1 0 0 1 0 0 0 1 0 0 0 1 1 0 0 1.9074e-6 1 0 -3.05168e-5 1 0 0 1 0 -2.20593e-7 1 0 0 1 0 1.52579e-5 1 0 1 0 0 1 0 0 0 1 0 0.2333728 0 0.9723873 1 0 0 1.52589e-5 1 0 1 0 0 -1.52588e-5 1 0 1 0 0 -1 -2.28881e-5 0 0 1 0 0 1 0 1 0 0 1 0 0 6.10351e-7 1 2.54313e-6 0 0 1 0 0 1 0 0 1 0 0 1 0 0 1 0 0 1 0 0 1 0 0 1 0 0 1 0 0 1 0 -1 0 7.62971e-6 1 0 -0.9396893 -0.3420295 0 -1.17375e-6 -1 0 0 1 0 -2.28892e-5 -1 0 0.939684 0.3420438 0 0.9396631 0.3421013 0 0 0 1 -2.67033e-5 1 0 0 0 1 -1 -2.28881e-5 0 1 0 0 0 0 1 -1 0 0 -1 0 0 0 0 1 0 0 1 -1.52588e-5 1 0 0 0 1 0 0 1 1 0 0 0 0 1 0 0 1 1.52589e-5 1 0 0 0 1 -1 0 0 0 0 1 1 0 0 -1 0 0 0 0 1 1 -4.3754e-7 0 0.9396926 0.3420201 0 0 0 1 0 0 1 0 0 1 0 0 1 0 0 1 0 0 1 -1 0 0 0 0 1 0 0 1 0 0 1 0.9396911 0.3420246 3.58476e-5 0 0 1 0 0 1 0 0 1 0 1 0 0 0 1 0 0 1 0 0 1 -0.3420181 0.9396934 3.58465e-5 1 0 0 0 0 1 0 0 1 -1 0 0 -0.196116 4.08067e-7 0.9805807 1 -8.77387e-5 -4.38688e-4 -1 0 0 0 0 1 0 0 1 0 0 1 0 0 1 0 0 1 0 0 1 1 0 0 0 0 1 -2.28871e-5 0.9999645 -0.00843048 0 0 1 1.52579e-5 1 0 0 0 1 0 0 1 0.9396926 0.3420202 0 -0.9396935 -0.3420179 0 -0.3435915 0.9390814 -0.008428335 0 0 1 -0.9396821 -0.342049 0 0 0 1 0 1 0 0.939691 0.3420214 -0.001485407 0 0 1 0 0 1 0 0 1 -2.20593e-7 1 0 0.1842889 0.06707561 0.9805806 0 0 1 0 0 1 0 0 1 -1 0 0 0 1 0 -1 0 0 -1 0 0 0 0 1 0 0 1 1 0 -3.81468e-4 0 0 1 0 0 1 0 0 1 0 0 1 0 0 1 0 0 1 0 0 1 0 1 0 0 0 1 0 0 1 0.341829 -0.9397622 4.23704e-5 -0.001686751 -0.9999631 0.008427917 -0.1961161 -5.98513e-6 0.9805806 0 0 1 0.939691 0.3420245 0 0.1842889 0.06707555 0.9805807 0.9396815 0.3420506 0 -0.3420487 0.9396823 -2.05326e-4 0 0 1 -0.9391118 -0.3436119 -4.80455e-6 0.2645279 -0.9643404 0.008523643 0 0 1 0 0.9999645 -0.008430421 0.9396815 0.3420506 0 -0.9999989 -3.05182e-5 -0.001487493 0 1 0 -0.9396919 -0.3420188 0.001485407 0.001685559 0.9999631 -0.008427917 0.3435914 -0.9390814 0.008428335 -8.76355e-5 -0.9999644 0.008430302 0 0 1 0 0 1 0.1842887 0.06707608 0.9805806 0.1842889 0.06707561 0.9805807 -0.9396926 -0.3420202 0 -0.3420261 0.9396905 0 0.9396942 0.3420159 0 -0.34202 0.9396927 0 0 0 1 0 0 1 -0.1961162 0 0.9805807 -0.1961161 1.49624e-6 0.9805807 -0.1961161 0 0.9805807 -0.1961162 0 0.9805807 0 0 1 0 0 1 -1 0 0 -1 0 0 0.7071028 0.7071109 0 0 0 1 0 0 1 0 0 1 0 0 1 0.001694202 -0.9999986 0 -3.05168e-5 1 0 0 0 1 1.52584e-5 1 0 0 0 1 0 0 1 0 0 1 1.43055e-6 1 0 0 0 1 7.62872e-6 1 0 -1 2.17797e-4 0 1 -2.10156e-4 1.90741e-5 0 0 1 0 0 1 0 0 1 1.9074e-6 1 0 0 0 1 0 0 1 0.342099 -0.939664 0 -2.28892e-5 -1 0 7.62945e-6 0.9999648 -0.008392274 0 0 1 0 0 1 0 0 1 1 0 0 0 0 1 0 0 1 0 0 1 0 0 1 0 0 1 0 1 0 0 1 0 0 1 0 0 0 1 -0.1961161 0 0.9805807 -0.1961161 0 0.9805808 -0.196116 2.99247e-6 0.9805807 -0.1961161 0 0.9805807 0.001685559 0.9999631 -0.008427917 -0.1961161 -1.19701e-5 0.9805807 -0.001693546 -0.9999628 0.008466064 0 1 0 -0.1961158 6.12101e-7 0.9805807 0 0 1 0 0 1 0 0 1 0 0 1 0 0 1 1.90741e-6 1 0 0 0 1 1 0 0 0 0 1 0 0 1 0 0 1 0 0 1 -1.52587e-5 -1 0 -3.05172e-5 1 0 -1 -2.28882e-5 -2.28881e-4 -3.05172e-5 1 0 0 0 1 0 0 1 0 0 1 -1.90741e-6 -1 0 1.52584e-5 1 0 1.90741e-6 1 0 3.05193e-5 -1 0 1 0 0 0 1 0 0.554699 0 0.8320511 0 0 1 0.9396507 0.3420317 -0.008425354 0 -1 0 -1 0 0 0 1 0 -0.5546989 0 0.8320512 0.5546975 0 0.8320521 0 -1 0 -1 0 0 -1 0 0 -1 0 0 -1 0 0 -1 0 0 -1 0 0 -1 0 0 -1 0 0 -1 0 0 -1 0 0 -1 0 0 -1 0 0 -0.5546973 0 0.8320522 -0.1897171 0.5212469 0.8320511 -0.1897177 0.521245 0.8320522 0 0 1 0 0 1 0 0 1 1 0 0 1 0 0 0 0 1 0 0 1 0 0 1 0.9396962 0.3420103 0 0.9396641 0.3420988 0 8.26725e-7 -2.27142e-6 1 -0.9396952 -0.34201 0.001485288 0 1 0 0 0 1 0 0 1 -0.9396941 -0.3420159 0 0 0 1 0 0 1 0 0 1 0 0 1 -1 -8.01062e-5 0 0 0.9999645 -0.008430421 0 -0.9999645 0.008430421 0 1 0 0 0 1 0 0 1 0 1 0 0 0 1 0 1 0 0.001782417 0.9999629 -0.008427798 0.9396631 0.3421013 0 0.9396924 0.3420208 0 0 0 1 0.001782476 0.9999985 0 -0.9396931 -0.3420155 0.001485347 0 0 1 0 0 1 0 0 1 0 0 1 1 0 0 0 0 1 0 0 1 -0.196116 7.14118e-7 0.9805807 -0.1961159 7.14118e-7 0.9805807 0 0 1 0 0 1 0 0 1 0 0 1 0 0 1 0 0 1 0 0 1 0 0 1 -0.196116 6.12101e-7 0.9805806 -0.196116 4.08067e-7 0.9805807 -1 0 0 -1 0 0 0 0 1 0 0 1 0 0 1 0 0 1 0 0 1 0 0 1 0 0 1 0 0 1 0 0 1 0 0 1 0 0 1 0 0 1 0 0 1 0 0 1 0 0 1 0 0 1 0 0 1 0 0 1 0 0 1 0 0 1 0 0 1 0 0 1 0 0 1 0 1 0 0 0 1 0 0 1 0 0 1 0 0 1 0 0 1 0 0 1 0 0 1 0 0 1 0 0 1 0 0 1 0 0 1 1.52588e-5 1 2.54313e-6 0 0 1 0 0 1 0 1 0 0 1 0 0.2333728 0 0.9723874 0 0 1 0 0 1 0 0 1 0 1 0 0 0 1 0 0 1 0 0 1 0 0 1 0 0 1 0 0 1 0 0 1 0 0 1 0 0 1 0.2333758 0 0.9723866 0.2333758 0 0.9723866 0 1 0 0 1 0 0 1 0 0 1 0 1 0 0 0 1 0 0 1 0 1 0 0 1 0 0 1 0 0 0 1 0 0 0 1 1 0 0 1.9074e-6 1 0 -3.05168e-5 1 0 0 1 0 -2.20593e-7 1 0 0 1 0 1.52579e-5 1 0 1 0 0 1 0 0 0 1 0 0.2333728 0 0.9723873 1 0 0 1.52589e-5 1 0 1 0 0 -1.52588e-5 1 0 1 0 0 -1 -2.28881e-5 0 0 1 0 1.52588e-5 1 4.124e-7 1 0 0 1 0 0 0 1 6.35775e-5 0 0 1 0 0 1 0 0 1 0 0 1 0 0 1 0 0 1 0 0 1 0 0 1 0 0 1 0 0 1 0 -1 0 7.62971e-6 1 0 -0.9396893 -0.3420295 0 -1.17375e-6 -1 0 0 1 0 -2.28892e-5 -1 0 0.939684 0.3420438 0 0.9396631 0.3421013 0</float_array>
          <technique_common>
            <accessor source="#Cube-mesh-normals-array" count="802" stride="3">
              <param name="X" type="float"/>
              <param name="Y" type="float"/>
              <param name="Z" type="float"/>
            </accessor>
          </technique_common>
        </source>
        <source id="Cube-mesh-map-0">
          <float_array id="Cube-mesh-map-0-array" count="4812">0.5 0.28125 0.5 0.25 0.5 0.25 0.5 0.328125 0.625 0.3125 0.625 0.328125 0.84375 0.59375 0.875 0.59375 0.84375 0.59375 0.5 0.5 0.5 0.375 0.5 0.3750001 0.5 0.25 0.4375 0.25 0.4375 0.25 0.5 0.625 0.4375 0.75 0.4375 0.625 0.5 0.625 0.5 0.75 0.5 0.625 0.4375 0.25 0.5 0.25 0.5 0.25 0.4375 0.25 0.5 0.25 0.5 0.25 0.5 0.25 0.5 0.1875 0.5 0.1875 0.5 0.5 0.5 0.375 0.5 0.375 0.375 0.25 0.4375 0.25 0.4375 0.25 0.5 0.5 0.5 0.5 0.5 0.5 0.5 0.5 0.5 0.5 0.5 0.5 0.375 0.5 0.4375 0.5 0.4375 0.5 0.5 0.25 0.5 0.25 0.5 0.25 0.5 0.25 0.5 0.25 0.5 0.25 0.5 0.34375 0.4375 0.375 0.4375 0.34375 0.5000001 0.08333331 0.5 0.125 0.5 0.08333331 0.375 0.25 0.4375 0.25 0.4375 0.25 0.5 0.625 0.5 0.59375 0.5 0.5937501 0.5 0.59375 0.4375 0.625 0.4375 0.59375 0.5 0 0.5 0.04166662 0.5 0.04166662 0.5 0.5 0.625 0.5 0.5 0.5 0.5 0.34375 0.5 0.375 0.5 0.34375 0.5 0.25 0.5 0.25 0.6875 0.375 0.8125 0.7083333 0.625 0.9375 0.625 0.9375 0 0 0 0 0 0 0.5 0.625 0.5 0.5937501 0.5 0.5937501 0.5 0.75 0.5 0.625 0.5 0.625 0 0 0.4375 0.5 0 0 0.5 0.75 0.5 0.625 0.5 0.625 0.5 0.5 0.5 0.5 0.5 0.5 0.5 0.25 0.5 0.25 0.5 0.25 0.5 0.25 0.5 0.25 0.5 0.25 0.375 0.25 0.4375 0.25 0.4375 0.25 0.4999999 0.5625 0.5 0.5 0.5 0.5 0.5 0.5937501 0.4999998 0.5625 0.4999999 0.5625 0.5 0.25 0.5 0.25 0.5 0.25 0.5 0.3359375 0.5 0.328125 0.5 0.328125 0.5 0.296875 0.5 0.3125 0.5 0.296875 0.5 0.125 0.5000001 0.08333331 0.5 0.08333331 0.5 0.25 0.5 0.25 0.5 0.25 0.375 0.25 0.4375 0.25 0.4375 0.25 0.5 0.25 0.5 0.1875 0.5 0.1875 0.5 0.1770833 0.5 0.1875 0.5000001 0.1770833 0.4999999 0.5625 0.5 0.5 0.5 0.5 0.5 0.328125 0.5 0.328125 0.5 0.328125 0.5 0.5 0.4375 0.5625 0.4375 0.5 0.5 0.5625 0.5 0.5 0.5 0.5 0.5 0.1875 0.5 0.1770833 0.5000001 0.1770833 0.375 0.25 0.4375 0.25 0.4375 0.25 0.6145833 0.2291666 0.5 0.1875 0.5 0.1770833 0.8125 0.6666666 0.8125 0.7083333 0.8125 0.7083333 0.4375 0.25 0.5 0.25 0.5 0.25 0.5 0.125 0.5 0.15625 0.5 0.125 0.5 0.3750001 0.5 0.34375 0.5 0.34375 0.5 0.15625 0.5 0.125 0.5 0.125 0.5 0.5937501 0.5 0.5625 0.4999999 0.5625 0.5 0.5 0.5 0.375 0.5 0.46875 0.875 0.5833333 0.84375 0.59375 0.8437501 0.5833333 0.5 0.5625 0.4375 0.59375 0.4375 0.5625 0.5 0.5937501 0.5 0.5625 0.5 0.5625 0.625 0.25 0.625 0.28125 0.625 0.28125 0.5 0.296875 0.5 0.3125 0.5 0.296875 0.5 0.296875 0.4375 0.3125 0.4375 0.296875 0.7395833 0.5677083 0.8125 0.5625 0.8125 0.5729166 0.5 0.5 0.5 0.5 0.5 0.5 0.5 0.625 0.5 0.75 0.5 0.75 0.6250001 0.5625001 0.6250001 0.5625001 0.6250001 0.5625001 0.5 0.3182202 0.5 0.328125 0.5 0.3125 0.625 0.5 0.5 0.5 0.5 0.5 0.5 0.34375 0.5 0.3359375 0.5 0.3359375 0.5 0.25 0.5 0.28125 0.5 0.25 0.5 0.34375 0.5000001 0.3359375 0.5 0.3359375 0.5000001 0.3359375 0.4375 0.34375 0.4375 0.3359375 0.5 0.5 0.5 0.5625 0.5 0.5625 0.5 0.28125 0.5 0.25 0.5 0.25 0.625 0.5 0.6250001 0.5625001 0.625 0.5 0.71875 0.578125 0.8125 0.625 0.71875 0.59375 0.4375 0.5 0.375 0.375 0.4375 0.375 0.5 0.5625 0.5 0.5625 0.5 0.5625 0.5 0.3359375 0.5 0.3320313 0.5 0.3320313 0.5 0.04166662 0.5 0 0.5 0 0.5 0.08333331 0.5 0.04166662 0.5 0.04166662 0.5 0.08333331 0.5 0.125 0.5 0.125 0.59375 0.1875 0.5 0.15625 0.59375 0.1875 0.4375 0.25 0.5 0.25 0.5 0.25 0.375 0.25 0.4375 0.25 0.4375 0.25 0.5 0.04166662 0.5 0 0.5 0 0.5000001 0.08333331 0.5 0.04166662 0.5 0.04166662 0.8125 0.625 0.8125 0.6666666 0.8125 0.6666666 0.71875 0.6145834 0.8125 0.625 0.8125 0.6666666 0.71875 0.6145834 0.8125 0.7083333 0.7187501 0.6354168 0.7187501 0.6354168 0.625 0.9375 0.625 0.84375 0.6953125 0.6171876 0.625 0.84375 0.625 0.8203125 0.6953125 0.6015626 0.7187501 0.6354168 0.6953125 0.6171876 0.6953125 0.5859375 0.71875 0.6145834 0.6953125 0.6015626 0.6953125 0.5742188 0.71875 0.59375 0.6953125 0.5859375 0.5 0.3125 0.4375 0.328125 0.4375 0.3125 0.5 0.328125 0.5 0.3125 0.5 0.3125 0.5 0.328125 0.5 0.3125 0.5 0.3125 0.84375 0.5625 0.84375 0.5 0.84375 0.5 0.75 0.3125 0.625 0.25 0.625 0.25 0.6875 0.375 0.5 0.1875 0.625 0.25 0.84375 0.5 0.875 0.5625 0.84375 0.5625 0.5 0.3359375 0.5 0.328125 0.5 0.328125 0.5 0.5 0.5 0.5625 0.5 0.5625 0.5 0.25 0.4999999 0.28125 0.4999999 0.28125 0.5 0.25 0.5 0.25 0.5 0.25 0.625 0.5 0.6250001 0.5625001 0.625 0.5 0.875 0.5625 0.84375 0.5625 0.875 0.5625 0.625 0.5 0.6250001 0.5625001 0.6250001 0.5625001 0.828125 0.7083333 0.8125 0.75 0.8125 0.7083333 0.625 0.3125 0.625 0.328125 0.625 0.328125 0.5 0.25 0.4999999 0.28125 0.4999999 0.28125 0.5 0.25 0.5 0.1875 0.5 0.25 0.625 0.3125 0.625 0.328125 0.625 0.328125 0.6250001 0.5625001 0.6250001 0.5625001 0.6250001 0.5625001 0.6875 0.375 0.5 0.25 0.6875 0.375 0.5 0.5625 0.5 0.5625 0.5 0.5625 0.8125 0.5625 0.75 0.5625 0.8125 0.5625 0.6250001 0.5625001 0.625 0.5 0.625 0.5 0.625 0.5 0.6250001 0.5625001 0.625 0.5 0.5 0.5625 0.5 0.5625 0.5 0.5625 0.5 0.5625 0.5 0.5625 0.5 0.5625 0.625 0.75 0.6250001 0.5625001 0.6250001 0.5625001 0.6250001 0.5625001 0.625 0.5 0.625 0.5 0.5 0.59375 0.5 0.625 0.5 0.625 0.5 0.5625 0.5 0.5625 0.5 0.5625 0.875 0.7083333 0.84375 0.75 0.8437501 0.7083333 0.875 0.59375 0.8437501 0.6250001 0.84375 0.59375 0.5 0.125 0.5625 0.125 0.5625 0.125 0.5625 0.125 0.5 0.15625 0.5 0.125 0.5625 0.125 0.5 0.125 0.5625 0.125 0.5 0.125 0.5625 0.125 0.5625 0.125 0.875 0.625 0.84375 0.6666666 0.8437501 0.6250001 0.875 0.6666666 0.8437501 0.7083333 0.84375 0.6666666 0.5 0.125 0.5 0.15625 0.5 0.15625 0.5 0.04166662 0.5 0.08333331 0.5 0.08333331 0.8125 0.625 0.8125 0.59375 0.8125 0.625 0.828125 0.6666666 0.8437501 0.7083333 0.828125 0.7083333 0.828125 0.625 0.84375 0.6666666 0.828125 0.6666666 0.84375 0.59375 0.828125 0.625 0.8281251 0.5937501 0.8437501 0.7083333 0.828125 0.75 0.828125 0.7083333 0.875 0.5625 0.84375 0.5625 0.875 0.5625 0.5 0.25 0.4375 0.28125 0.4375 0.25 0.5 0.28125 0.5 0.25 0.5 0.25 0.5 0.296875 0.5 0.3125 0.5 0.3125 0.8125 0.5833333 0.8281251 0.5937501 0.8125 0.59375 0.8281251 0.5833334 0.84375 0.59375 0.8281251 0.5937501 0.4999999 0.28125 0.5 0.25 0.5 0.25 0.8281251 0.5937501 0.84375 0.59375 0.8281251 0.5937501 0.84375 0.5 0.828125 0.5625 0.828125 0.5 0.8125 0.59375 0.8281251 0.5937501 0.8125 0.59375 0.828125 0.5 0.828125 0.5625 0.828125 0.5 0.84375 0.5625 0.84375 0.5 0.84375 0.5 0.8125 0.59375 0.828125 0.625 0.8125 0.625 0.8125 0.625 0.828125 0.6666666 0.8125 0.6666666 0.828125 0.6666666 0.8125 0.7083333 0.8125 0.6666666 0.5 0.28125 0.4375 0.296875 0.4375 0.28125 0.5 0.296875 0.5 0.28125 0.5 0.28125 0.4999999 0.28125 0.5 0.296875 0.5 0.28125 0.84375 0.5 0.84375 0.5625 0.84375 0.5625 0.8125 0.5625 0.828125 0.5625 0.828125 0.5625 0.625 0.296875 0.625 0.3125 0.625 0.3125 0.5 0.34375 0.5 0.3359375 0.5 0.3359375 0.5 0.3750001 0.5 0.34375 0.5 0.34375 0.5 0.3320313 0.5 0.3359375 0.5 0.3359375 0.375 0.5 0.4375 0.5 0.4375 0.5 0.5 0.5 0.5 0.5 0.5 0.5 0.5 0.25 0.5 0.25 0.5 0.25 0.5 0.5 0.5 0.5 0.5 0.5 0.5 0.5 0.5 0.3750001 0.5 0.3750001 0.5 0.25 0.5 0.25 0.5 0.25 0.4375 0.25 0.5 0.25 0.4375 0.25 0.375 0.25 0.4375 0.25 0.4375 0.25 0.375 0.25 0.4375 0.25 0.4375 0.25 0.5 0.25 0.5 0.25 0.5 0.25 0.5625 0.125 0.625 0.125 0.625 0.125 0.625 0.125 0.5625 0.125 0.625 0.125 0.625 0.125 0.59375 0.1875 0.5625 0.125 0.5625 0.125 0.625 0.125 0.625 0.125 0.875 0.5 0.6875 0.375 0.875 0.5 0.875 0.5 0.625 0.25 0.75 0.3125 0.625 0.25 0.5 0.1875 0.5 0.1875 0.6875 0.21875 0.59375 0.1875 0.6875 0.21875 0.7291666 0.28125 0.625 0.25 0.6145833 0.2291666 0.5 0.28125 0.5 0.296875 0.5 0.28125 0.5 0.28125 0.5 0.25 0.5 0.25 0.5 0.25 0.5 0.25 0.5 0.25 0.5 0.3359375 0.5 0.34375 0.5 0.3359375 0.5 0.34375 0.5 0.3750001 0.5 0.34375 0.4999999 0.28125 0.5 0.296875 0.5 0.296875 0.5 0.25 0.5 0.25 0.5 0.25 0.375 0.5 0.4375 0.5 0.4375 0.5 0.5 0.5 0.5 0.5 0.5 0.5 0.5 0.25 0.5 0.25 0.5 0.25 0.5 0.5 0.5 0.5 0.5 0.5 0.5 0.5 0.5 0.3750001 0.5 0.3750001 0.5 0.3125 0.5 0.296875 0.5 0.296875 0.5 0.25 0.4999999 0.28125 0.4999999 0.28125 0.5 0.25 0.5 0.25 0.5 0.25 0.5 0.25 0.4999999 0.28125 0.4999999 0.28125 0.5 0.28125 0.5 0.25 0.5 0.25 0.5 0.28125 0.5 0.296875 0.4999999 0.28125 0.5 0.296875 0.5 0.3125 0.5 0.296875 0.5 0.296875 0.5 0.28125 0.5 0.28125 0.5 0.296875 0.5 0.3125 0.5 0.3125 0.4999999 0.28125 0.5 0.296875 0.5 0.296875 0.5 0.25 0.5 0.28125 0.5 0.25 0.5 0.3125 0.5 0.3125 0.5 0.328125 0.5 0.328125 0.5 0.328125 0.5 0.328125 0 0 0 0 0 0 0 0 0 0 0 0 0.5 0.296875 0.5 0.3125 0.5 0.296875 0.625 0.25 0.625 0.28125 0.625 0.28125 0.5 0.3125 0.5 0.328125 0 0 0.5 0.3125 0.5 0.328125 0.5 0.3125 0.5 0.328125 0.5 0.328125 0.5 0.328125 0 0 0 0 0 0 0 0 0 0 0 0 0.5 0.3125 0.5 0.328125 0.5 0.3125 0.5 0.3125 0.5 0.328125 0.5 0.328125 0.375 0.25 0.4375 0.25 0.4375 0.25 0.4375 0.25 0.5 0.25 0.5 0.25 0.4375 0.25 0.5 0.25 0.5 0.25 0.375 0.25 0.4375 0.25 0.4375 0.25 0.375 0.25 0.4375 0.25 0.4375 0.25 0.4375 0.25 0.5 0.25 0.5 0.25 0.4375 0.25 0.5 0.25 0.5 0.25 0.375 0.25 0.4375 0.25 0.4375 0.25 0.375 0.25 0.4375 0.25 0.4375 0.25 0.4375 0.25 0.5 0.25 0.5 0.25 0.4375 0.25 0.5 0.25 0.5 0.25 0.375 0.25 0.4375 0.25 0.4375 0.25 0.5 0.25 0.5 0.25 0.5 0.25 0.875 0.5 0.5 0.25 0.6875 0.375 0 0 0 0 0 0 0.5 0.25 0.5 0.328125 0.5 0.25 0.5 0.5 0.5 0.4824552 0.5 0.484375 0.5 0.5 0.5 0.5 0.5 0.5 0.5 0.5 0.5 0.5 0.5 0.5 0.375 0.5 0.4375 0.5 0.4375 0.5 0.375 0.5 0.4375 0.5 0.4375 0.5 0.5 0.5 0.5 0.5 0.5 0.5 0.5 0.5 0.5 0.5 0.5 0.5 0.5 0.5 0.5 0.484375 0.5 0.5 0.4999999 0.28125 0.5 0.5 0.4999999 0.28125 0.4999999 0.28125 0.625 0.5 0.625 0.5 0.4999999 0.28125 0.6250001 0.5625001 0.625 0.5 0.5 0.28125 0.6250001 0.5625001 0.5 0.28125 0.5 0.3320313 0.4375 0.3359375 0.4375 0.3320313 0.5 0.3359375 0.5 0.3320313 0.5 0.3320312 0.5 0.3359375 0.5 0.3320312 0.5 0.3320313 0.875 0.5625 0.75 0.5625 0.75 0.5625 0.6250001 0.5625001 0.671875 0.578125 0.6250001 0.5625001 0.6250001 0.5625001 0.671875 0.5885418 0.6250001 0.5625001 0.6250001 0.5625001 0.6718751 0.5989584 0.6250001 0.5625001 0.6250001 0.5625001 0.625 0.796875 0.625 0.75 0.828125 0.5625 0.828125 0.5 0.828125 0.5 0.625 0.328125 0.625 0.328125 0.625 0.328125 0.75 0.5625 0.75 0.5625 0.75 0.5625 0.625 0.328125 0.5 0.328125 0.5 0.328125 0.5 0.328125 0.5 0.3320312 0.5 0.328125 0.5 0.3320312 0.5 0.328125 0.5 0.328125 0.5 0.328125 0.4375 0.3320313 0.4375 0.328125 0.5 0.328125 0.5 0.3320313 0.5 0.328125 0.625 0.328125 0.5 0.328125 0.5 0.328125 0.625 0.328125 0.625 0.328125 0.625 0.328125 0.5 0.328125 0.625 0.25 0.625 0.25 0.5 0.3359375 0.5 0.328125 0.5 0.328125 0 0 0.5 0.328125 0.5 0.328125 0.5 0.328125 0.5 0.3359375 0.5 0.328125 0.625 0.328125 0.625 0.328125 0.625 0.328125 0.875 0.5625 0.75 0.5625 0.875 0.5625 0.5 0.5 0.5 0.5 0.5 0.5 0.5 0.5 0.5 0.3750001 0.5 0.3750001 0.5 0.5 0.5 0.5 0.5 0.5 0.5 0.5 0.5 0.5 0.5 0.5 0.375 0.5 0.4375 0.5 0.4375 0.5 0.5 0.3750001 0.5 0.34375 0.5 0.328125 0.5 0.328125 0.5 0.3320313 0.5 0.328125 0.6875 0.21875 0.6041667 0.2083333 0.59375 0.1875 0.7083333 0.25 0.6145833 0.2291666 0.6041667 0.2083333 0.828125 0.5625 0.8437499 0.5729166 0.828125 0.5729166 0.828125 0.5729166 0.8437501 0.5833333 0.8281251 0.5833334 0.8125 0.5625 0.828125 0.5729166 0.8125 0.5729166 0.8125 0.5729166 0.8281251 0.5833334 0.8125 0.5833333 0.71875 0.578125 0.8125 0.5833333 0.8125 0.59375 0.7291666 0.5729166 0.8125 0.5729166 0.8125 0.5833333 0.875 0.5625 0.8437499 0.5729166 0.84375 0.5625 0.875 0.5729166 0.8437501 0.5833333 0.8437499 0.5729166 0.59375 0.1875 0.5 0.1666666 0.5 0.15625 0.6041667 0.2083333 0.5 0.1770833 0.5 0.1666666 0.375 0.25 0.4375 0.25 0.4375 0.25 0.4375 0.25 0.5 0.25 0.5 0.25 0.5 0.15625 0.5 0.1666666 0.5 0.15625 0.5000001 0.1770833 0.5 0.1666666 0.5 0.1666666 0.5 0.15625 0.5 0.1666666 0.5 0.15625 0.5 0.1666666 0.5000001 0.1770833 0.5 0.1666666 0.5 0.28125 0.671875 0.5703125 0.6250001 0.5625001 0.671875 0.5703125 0.6953125 0.5859375 0.671875 0.578125 0.671875 0.578125 0.6953125 0.6015626 0.671875 0.5885418 0.671875 0.5885418 0.6953125 0.6171876 0.6718751 0.5989584 0.6718751 0.5989584 0.625 0.8203125 0.625 0.796875 0.5 0.28125 0.6953125 0.5742188 0.671875 0.5703125 0.71875 0.578125 0.84375 0.5625 0.7291666 0.5729166 0.875 0.5625 0.7291666 0.5729166 0.84375 0.5625 0.7395833 0.5677083 0.75 0.5625 0.75 0.5625 0.5 0.5 0.5 0.5 0.5 0.5 0.5 0.5 0.5 0.5 0.5 0.5 0.5 0.5 0.5 0.5 0.5 0.5 0.5 0.5 0.5 0.5 0.5 0.5 0.5 0.5 0.5 0.5 0.5 0.5 0.5 0.5 0.5 0.5 0.5 0.5 0.5 0.59375 0.5 0.5625 0.5 0.5625 0.5 0.5625 0.5 0.5 0.5 0.5 0.5 0.5 0.5 0.5 0.5 0.5 0.5 0.75 0.5 0.625 0.5 0.625 0.5 0.5 0.4375 0.5 0.4375 0.5 0.5 0.5 0.5 0.5 0.5 0.5 0.5 0.625 0.4999999 0.59375 0.5 0.59375 0.5 0.5 0.5 0.5 0.5 0.5 0.5 0.5 0.5 0.5 0.5 0.5 0.5 0.5 0.5 0.5 0.5 0.5 0.5 0.5 0.5 0.5 0.5 0.5 0.5 0.5 0.5 0.5 0.5 0.5 0.4999999 0.59375 0.4999999 0.5625 0.5 0.5625 0.5 0.5625 0.5 0.5 0.5 0.5 0.5 0.5 0.5 0.5 0.5 0.5 0.5 0.75 0.5 0.625 0.5 0.625 0.5 0.5 0.4375 0.5 0.4375 0.5 0.5 0.5 0.5 0.5 0.5 0.5 0.4999999 0.59375 0.5 0.625 0.5 0.5937501 0.5 0.5 0.4375 0.5 0.4375 0.5 0.5 0.5 0.4375 0.5 0.4375 0.5 0.4375 0.5 0.5 0.5 0.5 0.5 0.5 0.5 0.5 0.5 0.5 0.5 0.5 0.5 0.5 0.5 0.5 0.5 0.5 0.5937501 0.5 0.625 0.5 0.5937501 0.4375 0.5 0.5 0.5 0.4375 0.5 0.5 0.5 0.5 0.5 0.5 0.5 0.5 0.5 0.5 0.5 0.5 0.5 0.5 0.5 0.5 0.5 0.5 0.5 0.5 0.5 0.5 0.5 0.5 0.5 0.5 0.5 0.5 0.5 0.5 0.5 0.5 0.5937501 0.4999999 0.5625 0.4999998 0.5625 0.4999998 0.5625 0.5 0.5 0.5 0.5 0.5 0.75 0.5 0.625 0.5 0.625 0.5 0.625 0.5 0.5937501 0.5 0.5937501 0.4375 0.5 0.4375 0.5 0.4375 0.5 0.4375 0.5 0.4375 0.5 0.4375 0.5 0.4375 0.5 0.5 0.5 0.5 0.5 0.4375 0.5 0.375 0.5 0.375 0.5 0.4375 0.5 0.375 0.5 0.375 0.5 0.4375 0.5 0.375 0.5 0.375 0.5 0.4375 0.5 0.375 0.5 0.375 0.5 0.4375 0.5 0.5 0.5 0.5 0.5 0.4375 0.328125 0.375 0.3320313 0.375 0.328125 0.4375 0.3320313 0.375 0.3359375 0.375 0.3320313 0.4375 0.5 0.5 0.5 0.5 0.5 0.4375 0.5 0.5 0.5 0.5 0.5 0.4375 0.5 0.5 0.5 0.5 0.5 0.4375 0.25 0.5 0.25 0.5 0.25 0.5 0.25 0.5 0.25 0.5 0.25 0.4375 0.5 0.5 0.5 0.5 0.5 0.4375 0.28125 0.375 0.296875 0.375 0.28125 0.4375 0.25 0.375 0.28125 0.375 0.25 0.4375 0.3125 0.375 0.328125 0.375 0.3125 0.5 0.5 0.4375 0.375 0.5 0.375 0.4375 0.3359375 0.375 0.34375 0.375 0.3359375 0.4375 0.296875 0.375 0.3125 0.375 0.296875 0.4375 0.5625 0.375 0.59375 0.375 0.5625 0.4375 0.5 0.375 0.5625 0.375 0.5 0.4375 0.25 0.5 0.25 0.5 0.25 0.4375 0.5 0.5 0.5 0.5 0.5 0.4375 0.59375 0.375 0.625 0.375 0.59375 0.4375 0.34375 0.375 0.375 0.375 0.34375 0.4375 0.5 0.5 0.5 0.5 0.5 0.4375 0.25 0.5 0.25 0.5 0.25 0.4375 0.625 0.375 0.75 0.375 0.625 0.4375 0.25 0.375 0.25 0.375 0.25 0.4375 0.5 0.375 0.5 0.375 0.5 0.4375 0.5 0.375 0.5 0.375 0.5 0.375 0.5 0.4375 0.5 0.4375 0.5 0.375 0.5 0.4375 0.5 0.4375 0.5 0 0 0 0 0 0 0.5 0.25 0.5 0.25 0.5 0.25 0.5 0.5 0.5 0.5 0.5 0.5 0.5 0.5 0.5 0.5 0.5 0.5 0.5 0.5 0.5 0.5 0.5 0.5 0.796875 0.5 0.8125 0.5625 0.796875 0.5625 0.84375 0.5 0.875 0.5625 0.84375 0.5625 0.8125 0.5 0.828125 0.5625 0.8125 0.5625 0.75 0.5625 0.5 0.3359375 0.625 0.328125 0.796875 0.5625 0.796875 0.5 0.796875 0.5 0.875 0.5625 0 0 0.75 0.5625 0.75 0.5625 0.75 0.5625 0.75 0.5625 0.625 0.296875 0.625 0.3125 0.625 0.3125 0.84375 0.5625 0.875 0.5625 0.875 0.5625 0.75 0.5625 0.8125 0.5625 0.8125 0.5625 0.625 0.328125 0.625 0.328125 0.625 0.328125 0.8125 0.5625 0.828125 0.5625 0.828125 0.5625 0.625 0.25 0.625 0.28125 0.625 0.28125 0 0 0.625 0.25 0.625 0.25 0.5 0.28125 0.5 0.28125 0.5 0.25 0.84375 0.59375 0.875 0.59375 0.875 0.59375 0.5 0.5 0.5 0.5 0.5 0.375 0.5 0.25 0.5 0.25 0.4375 0.25 0.5 0.625 0.5 0.75 0.4375 0.75 0.5 0.625 0.5 0.75 0.5 0.75 0.4375 0.25 0.4375 0.25 0.5 0.25 0.4375 0.25 0.4375 0.25 0.5 0.25 0.5 0.25 0.5 0.25 0.5 0.1875 0.5 0.5 0.5 0.5 0.5 0.375 0.375 0.25 0.375 0.25 0.4375 0.25 0.5 0.5 0.5 0.5 0.5 0.5 0.5 0.5 0.5 0.5 0.5 0.5 0.375 0.5 0.375 0.5 0.4375 0.5 0.5 0.25 0.5 0.25 0.5 0.25 0.5 0.25 0.5 0.25 0.5 0.25 0.5 0.34375 0.5 0.375 0.4375 0.375 0.5000001 0.08333331 0.5 0.125 0.5 0.125 0.375 0.25 0.375 0.25 0.4375 0.25 0.5 0.625 0.5 0.625 0.5 0.59375 0.5 0.59375 0.5 0.625 0.4375 0.625 0.5 0 0.5 0 0.5 0.04166662 0.5 0.34375 0.5 0.375 0.5 0.375 0.8125 0.7083333 0.8125 0.7083333 0.625 0.9375 0 0 0 0 0 0 0.5 0.625 0.5 0.625 0.5 0.5937501 0.5 0.75 0.5 0.75 0.5 0.625 0.5 0.75 0.5 0.75 0.5 0.625 0.5 0.5 0.5 0.5 0.5 0.5 0.5 0.25 0.5 0.25 0.5 0.25 0.5 0.25 0.5 0.25 0.5 0.25 0.375 0.25 0.375 0.25 0.4375 0.25 0.4999999 0.5625 0.4999998 0.5625 0.5 0.5 0.5 0.5937501 0.5 0.5937501 0.4999998 0.5625 0.5 0.25 0.5 0.25 0.5 0.25 0.5 0.3359375 0.5 0.3359375 0.5 0.328125 0.5 0.296875 0.5 0.3125 0.5 0.3125 0.5 0.125 0.5 0.125 0.5000001 0.08333331 0.5 0.25 0.5 0.25 0.5 0.25 0.375 0.25 0.375 0.25 0.4375 0.25 0.5 0.25 0.5 0.25 0.5 0.1875 0.5 0.1770833 0.5 0.1875 0.5 0.1875 0.4999999 0.5625 0.5 0.5625 0.5 0.5 0.5 0.328125 0.5 0.328125 0.5 0.328125 0.5 0.5 0.5 0.5625 0.4375 0.5625 0.5 0.5625 0.5 0.5625 0.5 0.5 0.5 0.1875 0.5 0.1875 0.5 0.1770833 0.375 0.25 0.375 0.25 0.4375 0.25 0.6145833 0.2291666 0.625 0.25 0.5 0.1875 0.8125 0.6666666 0.8125 0.6666666 0.8125 0.7083333 0.4375 0.25 0.4375 0.25 0.5 0.25 0.5 0.125 0.5 0.15625 0.5 0.15625 0.5 0.3750001 0.5 0.375 0.5 0.34375 0.5 0.15625 0.5 0.15625 0.5 0.125 0.5 0.5937501 0.5 0.5937501 0.5 0.5625 0.5 0.5 0.5 0.5 0.5 0.375 0.875 0.5833333 0.875 0.59375 0.84375 0.59375 0.5 0.5625 0.5 0.59375 0.4375 0.59375 0.5 0.5937501 0.5 0.59375 0.5 0.5625 0.625 0.25 0.625 0.25 0.625 0.28125 0.5 0.296875 0.5 0.3125 0.5 0.3125 0.5 0.296875 0.5 0.3125 0.4375 0.3125 0.7395833 0.5677083 0.75 0.5625 0.8125 0.5625 0.5 0.5 0.5 0.5 0.5 0.5 0.5 0.625 0.5 0.625 0.5 0.75 0.6250001 0.5625001 0.6250001 0.5625001 0.6250001 0.5625001 0.625 0.5 0.625 0.5 0.5 0.5 0.5 0.34375 0.5 0.34375 0.5 0.3359375 0.5 0.25 0.5 0.28125 0.5 0.28125 0.5 0.34375 0.5 0.34375 0.5000001 0.3359375 0.5000001 0.3359375 0.5 0.34375 0.4375 0.34375 0.5 0.5 0.5 0.5 0.5 0.5625 0.5 0.28125 0.4999999 0.28125 0.5 0.25 0.625 0.5 0.6250001 0.5625001 0.6250001 0.5625001 0.71875 0.578125 0.8125 0.59375 0.8125 0.625 0.4375 0.5 0.375 0.5 0.375 0.375 0.5 0.5625 0.5 0.5625 0.5 0.5625 0.5 0.3359375 0.5 0.3359375 0.5 0.3320313 0.5 0.04166662 0.5 0.04166662 0.5 0 0.5 0.08333331 0.5000001 0.08333331 0.5 0.04166662 0.5 0.08333331 0.5 0.08333331 0.5 0.125 0.59375 0.1875 0.5 0.15625 0.5 0.15625 0.4375 0.25 0.4375 0.25 0.5 0.25 0.375 0.25 0.375 0.25 0.4375 0.25 0.5 0.04166662 0.5 0.04166662 0.5 0 0.5000001 0.08333331 0.5 0.08333331 0.5 0.04166662 0.8125 0.625 0.8125 0.625 0.8125 0.6666666 0.71875 0.6145834 0.71875 0.59375 0.8125 0.625 0.71875 0.6145834 0.8125 0.6666666 0.8125 0.7083333 0.7187501 0.6354168 0.8125 0.7083333 0.625 0.9375 0.6953125 0.6171876 0.7187501 0.6354168 0.625 0.84375 0.6953125 0.6015626 0.71875 0.6145834 0.7187501 0.6354168 0.6953125 0.5859375 0.71875 0.59375 0.71875 0.6145834 0.6953125 0.5742188 0.71875 0.578125 0.71875 0.59375 0.5 0.3125 0.5 0.328125 0.4375 0.328125 0.5 0.328125 0.5 0.328125 0.5 0.3125 0.5 0.328125 0.5 0.328125 0.5 0.3125 0.84375 0.5625 0.84375 0.5625 0.84375 0.5 0.75 0.3125 0.75 0.3125 0.625 0.25 0.6875 0.375 0.5 0.25 0.5 0.1875 0.84375 0.5 0.875 0.5 0.875 0.5625 0.5 0.3359375 0.5 0.3359375 0.5 0.328125 0.5 0.5 0.5 0.5 0.5 0.5625 0.5 0.25 0.5 0.25 0.4999999 0.28125 0.5 0.25 0.5 0.25 0.5 0.25 0.625 0.5 0.6250001 0.5625001 0.6250001 0.5625001 0.875 0.5625 0.84375 0.5625 0.84375 0.5625 0.625 0.5 0.625 0.5 0.6250001 0.5625001 0.828125 0.7083333 0.828125 0.75 0.8125 0.75 0.625 0.3125 0.625 0.3125 0.625 0.328125 0.5 0.25 0.5 0.25 0.4999999 0.28125 0.5 0.25 0.5 0.1875 0.5 0.1875 0.625 0.3125 0.625 0.3125 0.625 0.328125 0.6250001 0.5625001 0.6250001 0.5625001 0.6250001 0.5625001 0.6875 0.375 0.5 0.25 0.5 0.25 0.5 0.5625 0.5 0.5625 0.5 0.5625 0.8125 0.5625 0.75 0.5625 0.75 0.5625 0.6250001 0.5625001 0.6250001 0.5625001 0.625 0.5 0.625 0.5 0.6250001 0.5625001 0.6250001 0.5625001 0.5 0.5625 0.5 0.5625 0.5 0.5625 0.5 0.5625 0.5 0.5625 0.5 0.5625 0.625 0.75 0.625 0.75 0.6250001 0.5625001 0.6250001 0.5625001 0.6250001 0.5625001 0.625 0.5 0.5 0.59375 0.5 0.59375 0.5 0.625 0.5 0.5625 0.5 0.5625 0.5 0.5625 0.875 0.7083333 0.875 0.75 0.84375 0.75 0.875 0.59375 0.875 0.625 0.8437501 0.6250001 0.5 0.125 0.5 0.125 0.5625 0.125 0.5625 0.125 0.59375 0.1875 0.5 0.15625 0.5625 0.125 0.5 0.125 0.5 0.125 0.5 0.125 0.5 0.125 0.5625 0.125 0.875 0.625 0.875 0.6666666 0.84375 0.6666666 0.875 0.6666666 0.875 0.7083333 0.8437501 0.7083333 0.5 0.125 0.5 0.125 0.5 0.15625 0.5 0.04166662 0.5 0.04166662 0.5 0.08333331 0.8125 0.625 0.8125 0.59375 0.8125 0.59375 0.828125 0.6666666 0.84375 0.6666666 0.8437501 0.7083333 0.828125 0.625 0.8437501 0.6250001 0.84375 0.6666666 0.84375 0.59375 0.8437501 0.6250001 0.828125 0.625 0.8437501 0.7083333 0.84375 0.75 0.828125 0.75 0.875 0.5625 0.84375 0.5625 0.84375 0.5625 0.5 0.25 0.5 0.28125 0.4375 0.28125 0.5 0.28125 0.5 0.28125 0.5 0.25 0.5 0.296875 0.5 0.296875 0.5 0.3125 0.8125 0.5833333 0.8281251 0.5833334 0.8281251 0.5937501 0.8281251 0.5833334 0.8437501 0.5833333 0.84375 0.59375 0.4999999 0.28125 0.5 0.28125 0.5 0.25 0.8281251 0.5937501 0.84375 0.59375 0.84375 0.59375 0.84375 0.5 0.84375 0.5625 0.828125 0.5625 0.8125 0.59375 0.8281251 0.5937501 0.8281251 0.5937501 0.828125 0.5 0.828125 0.5625 0.828125 0.5625 0.84375 0.5625 0.84375 0.5625 0.84375 0.5 0.8125 0.59375 0.8281251 0.5937501 0.828125 0.625 0.8125 0.625 0.828125 0.625 0.828125 0.6666666 0.828125 0.6666666 0.828125 0.7083333 0.8125 0.7083333 0.5 0.28125 0.5 0.296875 0.4375 0.296875 0.5 0.296875 0.5 0.296875 0.5 0.28125 0.4999999 0.28125 0.5 0.296875 0.5 0.296875 0.84375 0.5 0.84375 0.5 0.84375 0.5625 0.8125 0.5625 0.8125 0.5625 0.828125 0.5625 0.625 0.296875 0.625 0.296875 0.625 0.3125 0.5 0.34375 0.5 0.34375 0.5 0.3359375 0.5 0.3750001 0.5 0.3750001 0.5 0.34375 0.5 0.3320313 0 0 0.5 0.3359375 0.375 0.5 0.375 0.5 0.4375 0.5 0.5 0.5 0.5 0.5 0.5 0.5 0.5 0.25 0.5 0.25 0.5 0.25 0.5 0.5 0.5 0.5 0.5 0.5 0.5 0.5 0.5 0.5 0.5 0.3750001 0.5 0.25 0.5 0.25 0.5 0.25 0.4375 0.25 0.5 0.25 0.5 0.25 0.375 0.25 0.375 0.25 0.4375 0.25 0.375 0.25 0.375 0.25 0.4375 0.25 0.5 0.25 0.5 0.25 0.5 0.25 0.5625 0.125 0.5625 0.125 0.625 0.125 0.625 0.125 0.5625 0.125 0.5625 0.125 0.625 0.125 0.6875 0.21875 0.59375 0.1875 0.5625 0.125 0.5625 0.125 0.625 0.125 0.875 0.5 0.6875 0.375 0.6875 0.375 0.875 0.5 0.6875 0.375 0.625 0.25 0.625 0.25 0.625 0.25 0.5 0.1875 0.6875 0.21875 0.59375 0.1875 0.59375 0.1875 0.7291666 0.28125 0.75 0.3125 0.625 0.25 0.5 0.28125 0.5 0.296875 0.5 0.296875 0.5 0.28125 0.5 0.28125 0.5 0.25 0.5 0.25 0.5 0.25 0.5 0.25 0.5 0.3359375 0.5 0.34375 0.5 0.34375 0.5 0.34375 0.5 0.3750001 0.5 0.3750001 0.4999999 0.28125 0.4999999 0.28125 0.5 0.296875 0.5 0.25 0.5 0.25 0.5 0.25 0.375 0.5 0.375 0.5 0.4375 0.5 0.5 0.5 0.5 0.5 0.5 0.5 0.5 0.25 0.5 0.25 0.5 0.25 0.5 0.5 0.5 0.5 0.5 0.5 0.5 0.5 0.5 0.5 0.5 0.3750001 0.5 0.3125 0.5 0.3125 0.5 0.296875 0.5 0.25 0.5 0.25 0.4999999 0.28125 0.5 0.25 0.5 0.25 0.5 0.25 0.5 0.25 0.5 0.25 0.4999999 0.28125 0.5 0.28125 0.4999999 0.28125 0.5 0.25 0.5 0.28125 0.5 0.296875 0.5 0.296875 0.5 0.296875 0.5 0.3125 0.5 0.3125 0.5 0.296875 0.5 0.296875 0.5 0.28125 0.5 0.296875 0.5 0.296875 0.5 0.3125 0.4999999 0.28125 0.4999999 0.28125 0.5 0.296875 0.5 0.25 0.5 0.28125 0.5 0.28125 0.5 0.328125 0.5 0.328125 0.5 0.328125 0 0 0 0 0 0 0 0 0 0 0 0 0.5 0.296875 0.5 0.3125 0.5 0.3125 0.625 0.25 0.625 0.25 0.625 0.28125 0.5 0.3125 0.5 0.328125 0.5 0.328125 0.5 0.328125 0.5 0.328125 0.5 0.328125 0 0 0 0 0 0 0 0 0 0 0 0 0.5 0.3125 0.5 0.328125 0.5 0.328125 0.5 0.3125 0 0 0.5 0.328125 0.375 0.25 0.375 0.25 0.4375 0.25 0.4375 0.25 0.4375 0.25 0.5 0.25 0.4375 0.25 0.4375 0.25 0.5 0.25 0.375 0.25 0.375 0.25 0.4375 0.25 0.375 0.25 0.375 0.25 0.4375 0.25 0.4375 0.25 0.4375 0.25 0.5 0.25 0.4375 0.25 0.4375 0.25 0.5 0.25 0.375 0.25 0.375 0.25 0.4375 0.25 0.375 0.25 0.375 0.25 0.4375 0.25 0.4375 0.25 0.4375 0.25 0.5 0.25 0.4375 0.25 0.4375 0.25 0.5 0.25 0.375 0.25 0.375 0.25 0.4375 0.25 0.5 0.25 0.5 0.25 0.5 0.25 0 0 0 0 0 0 0.5 0.25 0.5 0.328125 0.5 0.328125 0.5 0.5 0.5 0.5 0.5 0.4824552 0.5 0.5 0.5 0.5 0.5 0.5 0.5 0.5 0.5 0.5 0.5 0.5 0.375 0.5 0.375 0.5 0.4375 0.5 0.375 0.5 0.375 0.5 0.4375 0.5 0.5 0.5 0.5 0.5 0.5 0.5 0.5 0.5 0.5 0.5 0.5 0.5 0.5 0.5 0.5 0.5 0.5 0.484375 0.4999999 0.28125 0.625 0.5 0.5 0.5 0.4999999 0.28125 0.4999999 0.28125 0.625 0.5 0.4999999 0.28125 0.5 0.28125 0.6250001 0.5625001 0.5 0.28125 0.6250001 0.5625001 0.6250001 0.5625001 0.5 0.3320313 0.5000001 0.3359375 0.4375 0.3359375 0.5 0.3359375 0.5000001 0.3359375 0.5 0.3320313 0.5 0.3359375 0.5 0.3359375 0.5 0.3320312 0.875 0.5625 0.875 0.5625 0.75 0.5625 0.6250001 0.5625001 0.671875 0.5703125 0.671875 0.578125 0.6250001 0.5625001 0.671875 0.578125 0.671875 0.5885418 0.6250001 0.5625001 0.671875 0.5885418 0.6718751 0.5989584 0.6250001 0.5625001 0.6718751 0.5989584 0.625 0.796875 0.828125 0.5625 0.828125 0.5625 0.828125 0.5 0.625 0.328125 0.625 0.328125 0.625 0.328125 0.75 0.5625 0.75 0.5625 0.75 0.5625 0.625 0.328125 0.625 0.328125 0.5 0.328125 0.5 0.328125 0.5 0.3320313 0.5 0.3320312 0.5 0.3320312 0.5 0.3320313 0.5 0.328125 0.5 0.328125 0.5 0.3320313 0.4375 0.3320313 0.5 0.328125 0.5 0.3320313 0.5 0.3320313 0.625 0.328125 0.625 0.328125 0.5 0.328125 0.625 0.328125 0.625 0.328125 0.625 0.328125 0.5 0.328125 0 0 0.625 0.25 0.5 0.3359375 0.5 0.3359375 0.5 0.328125 0.5 0.328125 0.5 0.34375 0.5 0.3359375 0.625 0.328125 0.625 0.328125 0.625 0.328125 0.875 0.5625 0.75 0.5625 0.75 0.5625 0.5 0.5 0.5 0.5 0.5 0.5 0.5 0.5 0.5 0.5 0.5 0.3750001 0.5 0.5 0.5 0.5 0.5 0.5 0.5 0.5 0.5 0.5 0.5 0.5 0.375 0.5 0.375 0.5 0.4375 0.5 0.5 0.3750001 0.5 0.3750001 0.5 0.34375 0.5 0.328125 0 0 0.5 0.3320313 0.6875 0.21875 0.7083333 0.25 0.6041667 0.2083333 0.7083333 0.25 0.7291666 0.28125 0.6145833 0.2291666 0.828125 0.5625 0.84375 0.5625 0.8437499 0.5729166 0.828125 0.5729166 0.8437499 0.5729166 0.8437501 0.5833333 0.8125 0.5625 0.828125 0.5625 0.828125 0.5729166 0.8125 0.5729166 0.828125 0.5729166 0.8281251 0.5833334 0.71875 0.578125 0.7291666 0.5729166 0.8125 0.5833333 0.7291666 0.5729166 0.7395833 0.5677083 0.8125 0.5729166 0.875 0.5625 0.875 0.5729166 0.8437499 0.5729166 0.875 0.5729166 0.875 0.5833333 0.8437501 0.5833333 0.59375 0.1875 0.6041667 0.2083333 0.5 0.1666666 0.6041667 0.2083333 0.6145833 0.2291666 0.5 0.1770833 0.375 0.25 0.375 0.25 0.4375 0.25 0.4375 0.25 0.4375 0.25 0.5 0.25 0.5 0.15625 0.5 0.1666666 0.5 0.1666666 0.5000001 0.1770833 0.5 0.1770833 0.5 0.1666666 0.5 0.15625 0.5 0.1666666 0.5 0.1666666 0.5 0.1666666 0.5 0.1770833 0.5000001 0.1770833 0.5 0.28125 0.5 0.28125 0.671875 0.5703125 0.671875 0.5703125 0.6953125 0.5742188 0.6953125 0.5859375 0.671875 0.578125 0.6953125 0.5859375 0.6953125 0.6015626 0.671875 0.5885418 0.6953125 0.6015626 0.6953125 0.6171876 0.6718751 0.5989584 0.6953125 0.6171876 0.625 0.8203125 0.5 0.28125 0.84375 0.5625 0.6953125 0.5742188 0.71875 0.578125 0.6953125 0.5742188 0.84375 0.5625 0.875 0.5625 0.7395833 0.5677083 0.7291666 0.5729166 0.7395833 0.5677083 0.875 0.5625 0.75 0.5625 0.5 0.5 0.5 0.5 0.5 0.5 0.5 0.5 0.5 0.5 0.5 0.5 0.5 0.5 0.5 0.5 0.5 0.5 0.5 0.5 0.5 0.5 0.5 0.5 0.5 0.5 0.5 0.5 0.5 0.5 0.5 0.5 0.5 0.5 0.5 0.5 0.5 0.59375 0.4999999 0.59375 0.5 0.5625 0.5 0.5625 0.5 0.5625 0.5 0.5 0.5 0.5 0.5 0.5 0.5 0.5 0.5 0.75 0.5 0.75 0.5 0.625 0.5 0.5 0.5 0.5 0.4375 0.5 0.5 0.5 0.5 0.5 0.5 0.5 0.5 0.625 0.5 0.625 0.4999999 0.59375 0.5 0.5 0.5 0.5 0.5 0.5 0.5 0.5 0.5 0.5 0.5 0.5 0.5 0.5 0.5 0.5 0.5 0.5 0.5 0.5 0.5 0.5 0.5 0.5 0.5 0.5 0.5 0.5 0.5 0.5 0.4999999 0.59375 0.5 0.5937501 0.4999999 0.5625 0.5 0.5625 0.4999999 0.5625 0.5 0.5 0.5 0.5 0.5 0.5 0.5 0.5 0.5 0.75 0.5 0.75 0.5 0.625 0.5 0.5 0.5 0.5 0.4375 0.5 0.5 0.5 0.5 0.5 0.5 0.5 0.4999999 0.59375 0.5 0.625 0.5 0.625 0.5 0.5 0.5 0.5 0.4375 0.5 0.5 0.5 0.5 0.5 0.4375 0.5 0.4375 0.5 0.4375 0.5 0.5 0.5 0.5 0.5 0.5 0.5 0.5 0.5 0.5 0.5 0.5 0.5 0.5 0.5 0.5 0.5937501 0.5 0.625 0.5 0.625 0.4375 0.5 0.5 0.5 0.5 0.5 0.5 0.5 0.5 0.5 0.5 0.5 0.5 0.5 0.5 0.5 0.5 0.5 0.5 0.5 0.5 0.5 0.5 0.5 0.5 0.5 0.5 0.5 0.5 0.5 0.5 0.5 0.5 0.5 0.5 0.5 0.5 0.5937501 0.5 0.5937501 0.4999999 0.5625 0.4999998 0.5625 0.4999999 0.5625 0.5 0.5 0.5 0.75 0.5 0.75 0.5 0.625 0.5 0.625 0.5 0.625 0.5 0.5937501 0.4375 0.5 0.4375 0.5 0.4375 0.5 0.4375 0.5 0.4375 0.5 0.4375 0.5 0.4375 0.5 0.4375 0.5 0.375 0.5 0.4375 0.5 0.4375 0.5 0.375 0.5 0.4375 0.5 0.4375 0.5 0.375 0.5 0.4375 0.5 0.4375 0.5 0.375 0.5 0.4375 0.5 0.4375 0.5 0.5 0.5 0.4375 0.328125 0.4375 0.3320313 0.375 0.3320313 0.4375 0.3320313 0.4375 0.3359375 0.375 0.3359375 0.4375 0.5 0.4375 0.5 0.5 0.5 0.4375 0.5 0.4375 0.5 0.5 0.5 0.4375 0.5 0.4375 0.5 0.5 0.5 0.4375 0.25 0.4375 0.25 0.5 0.25 0.5 0.25 0.5 0.25 0.5 0.25 0.4375 0.5 0.4375 0.5 0.5 0.5 0.4375 0.28125 0.4375 0.296875 0.375 0.296875 0.4375 0.25 0.4375 0.28125 0.375 0.28125 0.4375 0.3125 0.4375 0.328125 0.375 0.328125 0.5 0.5 0.4375 0.5 0.4375 0.375 0.4375 0.3359375 0.4375 0.34375 0.375 0.34375 0.4375 0.296875 0.4375 0.3125 0.375 0.3125 0.4375 0.5625 0.4375 0.59375 0.375 0.59375 0.4375 0.5 0.4375 0.5625 0.375 0.5625 0.4375 0.25 0.4375 0.25 0.5 0.25 0.4375 0.5 0.4375 0.5 0.5 0.5 0.4375 0.59375 0.4375 0.625 0.375 0.625 0.4375 0.34375 0.4375 0.375 0.375 0.375 0.4375 0.5 0.4375 0.5 0.5 0.5 0.4375 0.25 0.4375 0.25 0.5 0.25 0.4375 0.625 0.4375 0.75 0.375 0.75 0.4375 0.25 0.4375 0.25 0.375 0.25 0.4375 0.5 0.4375 0.5 0.375 0.5 0.4375 0.5 0.4375 0.5 0.375 0.5 0.375 0.5 0.375 0.5 0.4375 0.5 0.375 0.5 0.375 0.5 0.4375 0.5 0 0 0 0 0 0 0.5 0.25 0.5 0.25 0.5 0.25 0.5 0.5 0.5 0.5 0.5 0.5 0.5 0.5 0.5 0.5 0.5 0.5 0.5 0.5 0.5 0.5 0.5 0.5 0.796875 0.5 0.8125 0.5 0.8125 0.5625 0.84375 0.5 0.875 0.5 0.875 0.5625 0.8125 0.5 0.828125 0.5 0.828125 0.5625 0.75 0.5625 0 0 0.5 0.3359375 0.796875 0.5625 0.796875 0.5625 0.796875 0.5 0.875 0.5625 0.875 0.5 0 0 0.75 0.5625 0.75 0.5625 0.75 0.5625 0.625 0.296875 0.625 0.296875 0.625 0.3125 0.84375 0.5625 0.84375 0.5625 0.875 0.5625 0.75 0.5625 0.75 0.5625 0.8125 0.5625 0.625 0.328125 0.625 0.328125 0.625 0.328125 0.8125 0.5625 0.8125 0.5625 0.828125 0.5625 0.625 0.25 0.625 0.25 0.625 0.28125 0 0 0 0 0.625 0.25</float_array>
          <technique_common>
            <accessor source="#Cube-mesh-map-0-array" count="2406" stride="2">
              <param name="S" type="float"/>
              <param name="T" type="float"/>
            </accessor>
          </technique_common>
        </source>
        <vertices id="Cube-mesh-vertices">
          <input semantic="POSITION" source="#Cube-mesh-positions"/>
        </vertices>
        <triangles material="concrete-1-material" count="550">
          <input semantic="VERTEX" source="#Cube-mesh-vertices" offset="0"/>
          <input semantic="NORMAL" source="#Cube-mesh-normals" offset="1"/>
          <input semantic="TEXCOORD" source="#Cube-mesh-map-0" offset="2" set="0"/>
          <p>24 0 0 275 0 1 268 0 2 119 1 3 216 1 4 117 1 5 168 2 6 157 2 7 173 2 8 41 4 12 380 4 13 385 4 14 26 5 15 378 5 16 384 5 17 36 6 18 7 6 19 26 6 20 10 7 21 56 7 22 9 7 23 49 8 24 9 8 25 197 8 26 48 9 27 9 9 28 64 9 29 44 10 30 1 10 31 40 10 32 47 11 33 380 11 34 386 11 35 279 14 42 389 14 43 397 14 44 43 15 45 201 15 46 213 15 47 53 16 48 23 16 49 50 16 50 93 17 51 381 17 52 391 17 53 109 18 54 257 18 55 254 18 56 61 19 57 10 19 58 49 19 59 36 20 60 67 20 61 76 20 62 67 21 63 384 21 64 388 21 65 31 22 66 154 22 67 108 22 68 2 23 69 88 23 70 17 23 71 96 24 72 1 24 73 93 24 74 241 25 75 21 25 76 202 25 77 112 26 78 156 26 79 82 26 80 274 27 81 270 27 82 269 27 83 367 30 90 410 30 91 365 30 92 27 35 105 8 35 106 10 35 107 221 38 114 41 38 115 318 38 116 308 39 117 306 39 118 286 39 119 53 42 126 15 42 127 41 42 128 22 43 129 386 43 130 383 43 131 91 47 141 274 47 142 269 47 143 4 48 144 387 48 145 65 48 146 63 49 147 4 49 148 33 49 149 64 50 150 56 50 151 321 50 152 103 51 153 49 51 154 219 51 155 111 53 159 160 53 160 112 53 161 219 54 162 197 54 163 68 54 164 51 55 165 259 55 166 257 55 167 60 61 183 388 61 184 387 61 185 76 62 186 60 62 187 63 62 188 242 63 189 169 63 190 217 63 191 183 64 192 80 64 193 167 64 194 167 65 195 390 65 196 394 65 197 29 68 204 148 68 205 32 68 206 86 69 207 144 69 208 89 69 209 277 70 210 269 70 211 270 70 212 88 71 213 127 71 214 17 71 215 275 73 219 265 73 220 271 73 221 96 74 222 102 74 223 288 74 224 102 75 225 391 75 226 399 75 227 17 76 228 126 76 229 57 76 230 265 77 231 272 77 232 271 77 233 382 80 240 3 80 241 381 80 242 107 85 255 149 85 256 30 85 257 204 86 258 151 86 259 209 86 260 104 87 261 68 87 262 318 87 263 317 88 264 219 88 265 104 88 266 110 89 267 250 89 268 52 89 269 109 90 270 253 90 271 110 90 272 79 91 273 163 91 274 111 91 275 80 99 297 392 99 298 390 99 299 115 100 300 80 100 301 83 100 302 133 102 306 24 102 307 94 102 308 54 103 309 206 103 310 203 103 311 205 104 312 131 104 313 206 104 314 169 105 315 124 105 316 170 105 317 309 106 318 434 106 319 306 106 320 127 107 321 138 107 322 126 107 323 277 108 324 264 108 325 282 108 326 132 110 330 139 110 331 138 110 332 137 111 333 133 111 334 129 111 335 100 112 336 139 112 337 99 112 338 182 113 339 156 113 340 160 113 341 216 114 342 135 114 343 117 114 344 270 115 345 266 115 346 264 115 347 21 116 348 131 116 349 128 116 350 190 117 351 426 117 352 135 117 353 59 118 354 139 118 355 134 118 356 202 119 357 128 119 358 205 119 359 100 120 360 126 120 361 138 120 362 179 121 363 136 121 364 191 121 365 144 122 366 146 122 367 145 122 368 146 123 369 141 123 370 147 123 371 145 124 372 142 124 373 143 124 374 142 125 375 147 125 376 148 125 377 87 126 378 140 126 379 86 126 380 89 127 381 145 127 382 101 127 383 74 128 384 142 128 385 29 128 386 101 129 387 143 129 388 74 129 389 162 130 390 171 130 391 175 130 392 157 131 393 172 131 394 173 131 395 154 132 396 208 132 397 211 132 398 207 133 399 151 133 400 149 133 401 207 134 402 161 134 403 210 134 404 161 135 405 211 135 406 210 135 407 150 136 408 174 136 409 172 136 410 155 137 411 175 137 412 174 137 413 30 138 414 151 138 415 69 138 416 108 139 417 161 139 418 107 139 419 79 140 420 159 140 421 158 140 422 181 141 423 175 141 424 182 141 425 81 142 426 174 142 427 181 142 428 173 143 429 81 143 430 180 143 431 175 144 432 185 144 433 182 144 434 54 145 435 170 145 436 124 145 437 11 146 438 393 146 439 379 146 440 165 147 441 11 147 442 43 147 443 225 148 444 230 148 445 220 148 446 84 152 456 173 152 457 180 152 458 217 153 459 187 153 460 215 153 461 85 154 462 180 154 463 159 154 464 215 155 465 189 155 466 188 155 467 170 156 468 217 156 469 169 156 470 159 157 471 81 157 472 158 157 473 158 158 474 181 158 475 163 158 476 181 159 477 160 159 478 163 159 479 166 160 480 394 160 481 393 160 482 183 161 483 166 161 484 165 161 485 94 163 489 423 163 490 133 163 491 179 164 492 189 164 493 187 164 494 215 165 495 190 165 496 216 165 497 307 169 507 395 169 508 401 169 509 310 170 510 196 170 511 90 170 512 48 171 513 68 171 514 197 171 515 383 175 525 201 175 526 396 175 527 212 176 528 383 176 529 396 176 530 12 177 531 396 177 532 379 177 533 210 179 537 162 179 538 155 179 539 150 180 540 210 180 541 155 180 542 150 181 543 209 181 544 207 181 545 211 182 546 153 182 547 162 182 548 242 183 549 205 183 550 125 183 551 125 184 552 206 184 553 124 184 554 203 185 555 131 185 556 62 185 557 71 186 558 209 186 559 157 186 560 217 188 564 226 188 565 228 188 566 217 189 567 262 189 568 242 189 569 224 193 579 227 193 580 225 193 581 199 194 582 318 194 583 68 194 584 193 195 585 404 195 586 395 195 587 198 196 588 364 196 589 196 196 590 196 198 594 421 198 595 414 198 596 240 200 600 231 200 601 226 200 602 245 201 603 234 201 604 229 201 605 243 203 609 229 203 610 224 203 611 233 204 612 247 204 613 246 204 614 233 205 615 232 205 616 234 205 617 231 206 618 236 206 619 232 206 620 226 207 621 233 207 622 228 207 623 227 208 624 236 208 625 230 208 626 229 209 627 232 209 628 227 209 629 262 210 630 233 210 631 246 210 632 220 211 633 230 211 634 223 211 635 223 212 636 237 212 637 239 212 638 230 213 639 238 213 640 223 213 641 237 214 642 236 214 643 235 214 644 215 215 645 240 215 646 226 215 647 268 216 648 94 216 649 24 216 650 240 217 651 237 217 652 235 217 653 243 218 654 244 218 655 245 218 656 248 219 657 244 219 658 214 219 659 249 220 660 245 220 661 244 220 662 247 221 663 248 221 664 246 221 665 216 222 666 239 222 667 240 222 668 262 223 669 248 223 670 214 223 671 252 224 672 105 224 673 106 224 674 106 225 675 250 225 676 253 225 677 28 226 678 253 226 679 254 226 680 255 227 681 106 227 682 28 227 683 256 228 684 28 228 685 73 228 686 73 229 687 254 229 688 257 229 689 258 230 690 257 230 691 259 230 692 315 231 693 73 231 694 258 231 695 260 232 696 258 232 697 316 232 698 316 233 699 259 233 700 261 233 701 8 234 702 261 234 703 56 234 704 58 235 705 316 235 706 8 235 707 241 236 708 262 236 709 214 236 710 242 237 711 241 237 712 202 237 713 272 238 714 273 238 715 271 238 716 275 239 717 267 239 718 268 239 719 281 241 723 280 241 724 285 241 725 284 243 729 397 243 730 398 243 731 5 244 732 398 244 733 65 244 734 4 246 738 285 246 739 33 246 740 264 248 744 2 248 745 282 248 746 264 249 747 132 249 748 88 249 749 266 250 750 134 250 751 132 250 752 263 251 753 134 251 754 265 251 755 301 252 756 399 252 757 400 252 758 288 253 759 301 253 760 303 253 761 129 255 765 433 255 766 300 255 767 59 256 768 292 256 769 99 256 770 189 260 780 428 260 781 188 260 782 117 261 783 299 261 784 296 261 785 120 262 786 300 262 787 136 262 788 117 263 789 297 263 790 119 263 791 303 265 795 116 265 796 115 265 797 116 266 798 400 266 799 392 266 800 296 268 804 312 268 805 297 268 806 296 269 807 309 269 808 308 269 809 286 270 810 98 270 811 268 270 812 312 271 813 286 271 814 267 271 815 268 272 816 267 272 817 286 272 818 299 274 822 435 274 823 309 274 824 129 275 825 298 275 826 137 275 827 276 276 828 66 276 829 280 276 830 75 279 837 90 279 838 66 279 839 20 280 840 401 280 841 389 280 842 42 295 885 104 295 886 385 295 887 385 296 888 318 296 889 41 296 890 70 297 891 261 297 892 259 297 893 321 298 894 261 298 895 322 298 896 263 301 903 291 301 904 59 301 905 291 302 906 337 302 907 292 302 908 24 306 918 336 306 919 291 306 920 19 320 960 402 320 961 382 320 962 343 321 963 19 321 964 44 321 965 420 330 990 343 330 991 419 330 992 341 332 996 403 332 997 402 332 998 13 333 999 341 333 1000 343 333 1001 364 335 1005 404 335 1006 405 335 1007 421 336 1008 405 336 1009 408 336 1010 407 337 1011 13 337 1012 420 337 1013 407 341 1023 421 341 1024 408 341 1025 408 351 1053 406 351 1054 407 351 1055 366 352 1056 365 352 1057 406 352 1058 407 353 1059 420 353 1060 418 353 1061 408 354 1062 363 354 1063 368 354 1064 405 355 1065 362 355 1066 363 355 1067 402 356 1068 355 356 1069 340 356 1070 382 357 1071 340 357 1072 18 357 1073 389 358 1074 310 358 1075 75 358 1076 392 359 1077 302 359 1078 114 359 1079 400 360 1080 287 360 1081 302 360 1082 65 361 1083 281 361 1084 4 361 1085 398 362 1086 276 362 1087 281 362 1088 395 363 1089 361 363 1090 198 363 1091 379 364 1092 201 364 1093 11 364 1094 213 365 1095 23 365 1096 45 365 1097 401 366 1098 198 366 1099 310 366 1100 393 367 1101 184 367 1102 164 367 1103 379 368 1104 164 368 1105 12 368 1106 390 369 1107 114 369 1108 78 369 1109 19 370 1110 381 370 1111 1 370 1112 399 371 1113 95 371 1114 287 371 1115 394 372 1116 78 372 1117 184 372 1118 387 373 1119 72 373 1120 55 373 1121 65 374 1122 55 374 1123 5 374 1124 383 375 1125 50 375 1126 23 375 1127 406 376 1128 412 376 1129 13 376 1130 388 377 1131 25 377 1132 72 377 1133 391 378 1134 3 378 1135 95 378 1136 397 379 1137 75 379 1138 276 379 1139 386 380 1140 15 380 1141 50 380 1142 384 381 1143 6 381 1144 25 381 1145 385 382 1146 16 382 1147 42 382 1148 403 383 1149 409 383 1150 355 383 1151 410 384 1152 413 384 1153 409 384 1154 368 385 1155 366 385 1156 408 385 1157 411 386 1158 367 386 1159 366 386 1160 365 387 1161 403 387 1162 412 387 1163 415 389 1167 420 389 1168 416 389 1169 416 390 1170 419 390 1171 417 390 1172 414 391 1173 418 391 1174 415 391 1175 426 392 1176 431 392 1177 427 392 1178 422 393 1179 424 393 1180 423 393 1181 430 394 1182 429 394 1183 431 394 1184 433 395 1185 435 395 1186 432 395 1187 427 396 1188 432 396 1189 426 396 1190 424 397 1191 434 397 1192 433 397 1193 300 398 1194 427 398 1195 136 398 1196 188 399 1197 430 399 1198 190 399 1199 133 400 1200 424 400 1201 129 400 1202 136 401 1203 431 401 1204 191 401 1205 135 402 1206 432 402 1207 299 402 1208 191 403 1209 429 403 1210 189 403 1211 98 404 1212 422 404 1213 94 404 1214 306 405 1215 425 405 1216 98 405 1217 24 406 1218 263 406 1219 275 406 1220 168 407 1221 71 407 1222 157 407 1223 41 409 1227 15 409 1228 380 409 1229 26 410 1230 7 410 1231 378 410 1232 36 411 1233 37 411 1234 7 411 1235 10 412 1236 8 412 1237 56 412 1238 49 413 1239 10 413 1240 9 413 1241 48 414 1242 197 414 1243 9 414 1244 44 415 1245 19 415 1246 1 415 1247 47 416 1248 16 416 1249 380 416 1250 279 419 1257 20 419 1258 389 419 1259 43 420 1260 11 420 1261 201 420 1262 53 421 1263 45 421 1264 23 421 1265 93 422 1266 1 422 1267 381 422 1268 109 423 1269 51 423 1270 257 423 1271 61 424 1272 27 424 1273 10 424 1274 36 425 1275 26 425 1276 67 425 1277 67 426 1278 26 426 1279 384 426 1280 31 427 1281 152 427 1282 154 427 1283 96 428 1284 40 428 1285 1 428 1286 112 429 1287 160 429 1288 156 429 1289 274 430 1290 272 430 1291 270 430 1292 27 437 1311 58 437 1312 8 437 1313 221 440 1320 53 440 1321 41 440 1322 308 441 1323 309 441 1324 306 441 1325 53 444 1332 50 444 1333 15 444 1334 22 445 1335 47 445 1336 386 445 1337 91 449 1347 273 449 1348 274 449 1349 4 450 1350 60 450 1351 387 450 1352 63 451 1353 60 451 1354 4 451 1355 64 452 1356 9 452 1357 56 452 1358 103 453 1359 61 453 1360 49 453 1361 111 455 1365 163 455 1366 160 455 1367 219 456 1368 49 456 1369 197 456 1370 51 457 1371 70 457 1372 259 457 1373 60 463 1389 67 463 1390 388 463 1391 76 464 1392 67 464 1393 60 464 1394 242 465 1395 125 465 1396 169 465 1397 183 466 1398 83 466 1399 80 466 1400 167 467 1401 80 467 1402 390 467 1403 29 470 1410 142 470 1411 148 470 1412 86 471 1413 140 471 1414 144 471 1415 88 472 1416 132 472 1417 127 472 1418 275 474 1422 263 474 1423 265 474 1424 96 475 1425 93 475 1426 102 475 1427 102 476 1428 93 476 1429 391 476 1430 17 477 1431 127 477 1432 126 477 1433 265 478 1434 266 478 1435 272 478 1436 382 481 1443 18 481 1444 3 481 1445 107 486 1458 161 486 1459 149 486 1460 204 487 1461 69 487 1462 151 487 1463 104 488 1464 219 488 1465 68 488 1466 317 489 1467 103 489 1468 219 489 1469 110 490 1470 253 490 1471 250 490 1472 109 491 1473 254 491 1474 253 491 1475 79 492 1476 158 492 1477 163 492 1478 80 500 1500 116 500 1501 392 500 1502 115 501 1503 116 501 1504 80 501 1505 133 503 1509 130 503 1510 24 503 1511 54 504 1512 124 504 1513 206 504 1514 205 505 1515 128 505 1516 131 505 1517 169 506 1518 125 506 1519 124 506 1520 309 507 1521 435 507 1522 434 507 1523 127 508 1524 132 508 1525 138 508 1526 277 509 1527 270 509 1528 264 509 1529 132 511 1533 134 511 1534 139 511 1535 137 512 1536 130 512 1537 133 512 1538 100 513 1539 138 513 1540 139 513 1541 182 514 1542 185 514 1543 156 514 1544 216 515 1545 190 515 1546 135 515 1547 270 516 1548 272 516 1549 266 516 1550 21 517 1551 62 517 1552 131 517 1553 190 518 1554 430 518 1555 426 518 1556 59 519 1557 99 519 1558 139 519 1559 202 520 1560 21 520 1561 128 520 1562 100 521 1563 57 521 1564 126 521 1565 179 522 1566 120 522 1567 136 522 1568 144 523 1569 140 523 1570 146 523 1571 146 524 1572 140 524 1573 141 524 1574 145 525 1575 146 525 1576 142 525 1577 142 526 1578 146 526 1579 147 526 1580 87 527 1581 141 527 1582 140 527 1583 89 528 1584 144 528 1585 145 528 1586 74 529 1587 143 529 1588 142 529 1589 101 530 1590 145 530 1591 143 530 1592 162 531 1593 153 531 1594 171 531 1595 157 532 1596 150 532 1597 172 532 1598 154 533 1599 152 533 1600 208 533 1601 207 534 1602 209 534 1603 151 534 1604 207 535 1605 149 535 1606 161 535 1607 161 536 1608 154 536 1609 211 536 1610 150 537 1611 155 537 1612 174 537 1613 155 538 1614 162 538 1615 175 538 1616 30 539 1617 149 539 1618 151 539 1619 108 540 1620 154 540 1621 161 540 1622 79 541 1623 85 541 1624 159 541 1625 181 542 1626 174 542 1627 175 542 1628 81 543 1629 172 543 1630 174 543 1631 173 544 1632 172 544 1633 81 544 1634 175 545 1635 171 545 1636 185 545 1637 54 546 1638 178 546 1639 170 546 1640 11 547 1641 166 547 1642 393 547 1643 165 548 1644 166 548 1645 11 548 1646 225 549 1647 227 549 1648 230 549 1649 84 553 1659 168 553 1660 173 553 1661 217 554 1662 178 554 1663 187 554 1664 85 555 1665 84 555 1666 180 555 1667 215 556 1668 187 556 1669 189 556 1670 170 557 1671 178 557 1672 217 557 1673 159 558 1674 180 558 1675 81 558 1676 158 559 1677 81 559 1678 181 559 1679 181 560 1680 182 560 1681 160 560 1682 166 561 1683 167 561 1684 394 561 1685 183 562 1686 167 562 1687 166 562 1688 94 564 1692 422 564 1693 423 564 1694 179 565 1695 191 565 1696 189 565 1697 215 566 1698 188 566 1699 190 566 1700 307 570 1710 193 570 1711 395 570 1712 310 571 1713 198 571 1714 196 571 1715 48 572 1716 199 572 1717 68 572 1718 383 576 1728 23 576 1729 201 576 1730 212 577 1731 22 577 1732 383 577 1733 12 578 1734 212 578 1735 396 578 1736 210 580 1740 211 580 1741 162 580 1742 150 581 1743 207 581 1744 210 581 1745 150 582 1746 157 582 1747 209 582 1748 211 583 1749 208 583 1750 153 583 1751 242 584 1752 202 584 1753 205 584 1754 125 585 1755 205 585 1756 206 585 1757 203 586 1758 206 586 1759 131 586 1760 71 587 1761 204 587 1762 209 587 1763 217 589 1767 215 589 1768 226 589 1769 217 590 1770 228 590 1771 262 590 1772 224 594 1782 229 594 1783 227 594 1784 199 595 1785 221 595 1786 318 595 1787 193 596 1788 362 596 1789 404 596 1790 198 597 1791 361 597 1792 364 597 1793 196 599 1797 364 599 1798 421 599 1799 240 601 1803 235 601 1804 231 601 1805 245 602 1806 247 602 1807 234 602 1808 243 604 1812 245 604 1813 229 604 1814 233 605 1815 234 605 1816 247 605 1817 233 606 1818 231 606 1819 232 606 1820 231 607 1821 235 607 1822 236 607 1823 226 608 1824 231 608 1825 233 608 1826 227 609 1827 232 609 1828 236 609 1829 229 610 1830 234 610 1831 232 610 1832 262 611 1833 228 611 1834 233 611 1835 223 612 1836 238 612 1837 237 612 1838 230 613 1839 236 613 1840 238 613 1841 237 614 1842 238 614 1843 236 614 1844 215 615 1845 216 615 1846 240 615 1847 268 616 1848 98 616 1849 94 616 1850 240 617 1851 239 617 1852 237 617 1853 248 618 1854 249 618 1855 244 618 1856 249 619 1857 247 619 1858 245 619 1859 247 620 1860 249 620 1861 248 620 1862 216 621 1863 119 621 1864 239 621 1865 262 622 1866 246 622 1867 248 622 1868 252 623 1869 251 623 1870 105 623 1871 106 624 1872 105 624 1873 250 624 1874 28 625 1875 106 625 1876 253 625 1877 255 626 1878 252 626 1879 106 626 1880 256 627 1881 255 627 1882 28 627 1883 73 628 1884 28 628 1885 254 628 1886 258 629 1887 73 629 1888 257 629 1889 315 630 1890 256 630 1891 73 630 1892 260 631 1893 315 631 1894 258 631 1895 316 632 1896 258 632 1897 259 632 1898 8 633 1899 316 633 1900 261 633 1901 58 634 1902 260 634 1903 316 634 1904 241 635 1905 242 635 1906 262 635 1907 272 636 1908 274 636 1909 273 636 1910 275 637 1911 91 637 1912 267 637 1913 281 639 1917 276 639 1918 280 639 1919 284 641 1923 279 641 1924 397 641 1925 5 642 1926 284 642 1927 398 642 1928 4 644 1932 281 644 1933 285 644 1934 264 646 1938 88 646 1939 2 646 1940 264 647 1941 266 647 1942 132 647 1943 266 648 1944 265 648 1945 134 648 1946 263 649 1947 59 649 1948 134 649 1949 301 650 1950 102 650 1951 399 650 1952 288 651 1953 102 651 1954 301 651 1955 129 653 1959 424 653 1960 433 653 1961 59 654 1962 291 654 1963 292 654 1964 189 658 1974 429 658 1975 428 658 1976 117 659 1977 135 659 1978 299 659 1979 120 660 1980 298 660 1981 300 660 1982 117 661 1983 296 661 1984 297 661 1985 303 663 1989 301 663 1990 116 663 1991 116 664 1992 301 664 1993 400 664 1994 296 666 1998 308 666 1999 312 666 2000 296 667 2001 299 667 2002 309 667 2003 286 668 2004 306 668 2005 98 668 2006 312 669 2007 308 669 2008 286 669 2009 299 671 2013 432 671 2014 435 671 2015 129 672 2016 300 672 2017 298 672 2018 276 673 2019 75 673 2020 66 673 2021 75 676 2028 310 676 2029 90 676 2030 20 677 2031 307 677 2032 401 677 2033 42 692 2076 317 692 2077 104 692 2078 385 693 2079 104 693 2080 318 693 2081 70 694 2082 322 694 2083 261 694 2084 321 695 2085 56 695 2086 261 695 2087 263 698 2094 24 698 2095 291 698 2096 291 699 2097 336 699 2098 337 699 2099 24 703 2109 130 703 2110 336 703 2111 19 717 2151 341 717 2152 402 717 2153 343 718 2154 341 718 2155 19 718 2156 420 727 2181 13 727 2182 343 727 2183 341 729 2187 412 729 2188 403 729 2189 13 730 2190 412 730 2191 341 730 2192 364 732 2196 361 732 2197 404 732 2198 421 733 2199 364 733 2200 405 733 2201 407 734 2202 406 734 2203 13 734 2204 407 738 2214 418 738 2215 421 738 2216 408 748 2244 366 748 2245 406 748 2246 366 749 2247 367 749 2248 365 749 2249 408 750 2250 405 750 2251 363 750 2252 405 751 2253 404 751 2254 362 751 2255 402 752 2256 403 752 2257 355 752 2258 382 753 2259 402 753 2260 340 753 2261 389 754 2262 401 754 2263 310 754 2264 392 755 2265 400 755 2266 302 755 2267 400 756 2268 399 756 2269 287 756 2270 65 757 2271 398 757 2272 281 757 2273 398 758 2274 397 758 2275 276 758 2276 395 759 2277 404 759 2278 361 759 2279 379 760 2280 396 760 2281 201 760 2282 213 761 2283 201 761 2284 23 761 2285 401 762 2286 395 762 2287 198 762 2288 393 763 2289 394 763 2290 184 763 2291 379 764 2292 393 764 2293 164 764 2294 390 765 2295 392 765 2296 114 765 2297 19 766 2298 382 766 2299 381 766 2300 399 767 2301 391 767 2302 95 767 2303 394 768 2304 390 768 2305 78 768 2306 387 769 2307 388 769 2308 72 769 2309 65 770 2310 387 770 2311 55 770 2312 383 771 2313 386 771 2314 50 771 2315 406 772 2316 365 772 2317 412 772 2318 388 773 2319 384 773 2320 25 773 2321 391 774 2322 381 774 2323 3 774 2324 397 775 2325 389 775 2326 75 775 2327 386 776 2328 380 776 2329 15 776 2330 384 777 2331 378 777 2332 6 777 2333 385 778 2334 380 778 2335 16 778 2336 403 779 2337 410 779 2338 409 779 2339 410 780 2340 367 780 2341 413 780 2342 368 781 2343 411 781 2344 366 781 2345 411 782 2346 413 782 2347 367 782 2348 365 783 2349 410 783 2350 403 783 2351 415 785 2355 418 785 2356 420 785 2357 416 786 2358 420 786 2359 419 786 2360 414 787 2361 421 787 2362 418 787 2363 426 788 2364 430 788 2365 431 788 2366 422 789 2367 425 789 2368 424 789 2369 430 790 2370 428 790 2371 429 790 2372 433 791 2373 434 791 2374 435 791 2375 427 792 2376 433 792 2377 432 792 2378 424 793 2379 425 793 2380 434 793 2381 300 794 2382 433 794 2383 427 794 2384 188 795 2385 428 795 2386 430 795 2387 133 796 2388 423 796 2389 424 796 2390 136 797 2391 427 797 2392 431 797 2393 135 798 2394 426 798 2395 432 798 2396 191 799 2397 431 799 2398 429 799 2399 98 800 2400 425 800 2401 422 800 2402 306 801 2403 434 801 2404 425 801 2405</p>
        </triangles>
        <triangles material="asphalt-1-material" count="252">
          <input semantic="VERTEX" source="#Cube-mesh-vertices" offset="0"/>
          <input semantic="NORMAL" source="#Cube-mesh-normals" offset="1"/>
          <input semantic="TEXCOORD" source="#Cube-mesh-map-0" offset="2" set="0"/>
          <p>0 3 9 40 3 10 176 3 11 177 12 36 358 12 37 359 12 38 46 13 39 359 13 40 350 13 41 373 28 84 76 28 85 369 28 86 354 29 87 39 29 88 351 29 89 371 31 93 36 31 94 373 31 95 357 32 96 360 32 97 356 32 98 186 33 99 53 33 100 221 33 101 243 34 102 213 34 103 244 34 104 352 36 108 46 36 109 350 36 110 353 37 111 38 37 112 352 37 113 225 40 120 83 40 121 183 40 122 30 41 123 109 41 124 107 41 125 21 44 132 64 44 133 62 44 134 319 45 135 64 45 136 321 45 137 370 46 138 33 46 139 375 46 140 331 52 156 62 52 157 319 52 158 176 56 168 96 56 169 222 56 170 69 57 171 51 57 172 30 57 173 369 58 174 63 58 175 370 58 176 278 59 177 269 59 178 277 59 179 313 60 180 168 60 181 328 60 182 323 66 198 179 66 199 325 66 200 280 67 201 372 67 202 374 67 203 222 72 216 288 72 217 289 72 218 100 78 234 89 78 235 101 78 236 113 79 237 79 79 238 121 79 239 57 81 243 101 81 244 74 81 245 290 82 246 304 82 247 305 82 248 108 83 249 52 83 250 31 83 251 107 84 252 110 84 253 108 84 254 122 92 276 79 92 277 111 92 278 122 93 279 112 93 280 123 93 281 123 94 282 82 94 283 118 94 284 335 95 285 118 95 286 333 95 287 334 96 288 123 96 289 335 96 290 337 97 291 122 97 292 334 97 293 336 98 294 121 98 295 337 98 296 223 101 303 83 101 304 220 101 305 275 109 327 272 109 328 270 109 329 326 149 447 84 149 448 85 149 449 330 150 450 168 150 451 84 150 452 224 151 453 43 151 454 243 151 455 224 162 486 183 162 487 165 162 488 97 166 498 290 166 499 312 166 500 311 167 501 200 167 502 97 167 503 305 168 504 312 168 505 290 168 506 90 172 516 414 172 517 377 172 518 92 173 519 194 173 520 311 173 521 21 174 522 199 174 523 48 174 524 214 178 534 186 178 535 192 178 536 314 187 561 203 187 562 331 187 563 244 190 570 45 190 571 186 190 572 290 191 573 222 191 574 289 191 575 200 192 576 176 192 577 222 192 578 192 197 591 221 197 592 199 197 593 195 199 597 176 199 598 194 199 599 262 202 606 247 202 607 245 202 608 283 240 720 277 240 721 282 240 722 285 242 726 374 242 727 376 242 728 33 245 735 376 245 736 375 245 737 17 247 741 282 247 742 2 247 743 289 254 762 303 254 763 304 254 764 99 257 771 294 257 772 89 257 773 89 258 774 295 258 775 86 258 776 86 259 777 293 259 778 87 259 779 223 264 792 303 264 793 115 264 794 239 267 801 304 267 802 223 267 803 91 273 819 312 273 820 267 273 821 77 277 831 311 277 832 269 277 833 66 278 834 377 278 835 372 278 836 269 281 843 97 281 844 91 281 845 119 282 846 305 282 847 239 282 848 71 283 849 332 283 850 204 283 851 313 284 852 331 284 853 332 284 854 187 285 855 327 285 856 329 285 857 329 286 858 328 286 859 330 286 860 179 287 861 329 287 862 325 287 863 325 288 864 330 288 865 326 288 866 113 289 867 326 289 868 85 289 869 324 290 870 325 290 871 326 290 872 54 291 873 327 291 874 178 291 875 314 292 876 328 292 877 327 292 878 204 293 879 320 293 880 69 293 881 332 294 882 319 294 883 320 294 884 69 299 897 322 299 898 70 299 899 320 300 900 321 300 901 322 300 902 292 303 909 334 303 910 294 303 911 294 304 912 335 304 913 295 304 914 295 305 915 333 305 916 293 305 917 113 307 921 130 307 922 324 307 923 137 308 924 324 308 925 130 308 926 323 309 927 298 309 928 120 309 929 345 310 930 92 310 931 77 310 932 339 311 933 283 311 934 17 311 935 348 312 936 278 312 937 283 312 938 417 313 939 0 313 940 195 313 941 349 314 942 195 314 943 92 314 944 347 315 945 77 315 946 278 315 947 74 316 948 344 316 949 57 316 950 57 317 951 339 317 952 17 317 953 419 318 954 44 318 955 0 318 956 32 319 957 342 319 958 29 319 959 29 322 966 346 322 967 74 322 968 356 323 969 349 323 970 345 323 971 350 324 972 348 324 973 339 324 974 359 325 975 347 325 976 348 325 977 360 326 978 417 326 979 349 326 980 358 327 981 345 327 982 347 327 983 346 328 984 352 328 985 344 328 986 344 329 987 350 329 988 339 329 989 338 331 993 351 331 994 342 331 995 346 334 1002 351 334 1003 353 334 1004 218 338 1014 356 338 1015 358 338 1016 35 339 1017 416 339 1018 360 339 1019 353 340 1020 39 340 1021 34 340 1022 372 342 1026 35 342 1027 357 342 1028 375 343 1029 177 343 1030 46 343 1031 376 344 1032 218 344 1033 177 344 1034 377 345 1035 415 345 1036 35 345 1037 374 346 1038 357 346 1039 218 346 1040 34 347 1041 370 347 1042 38 347 1043 38 348 1044 375 348 1045 46 348 1046 14 349 1047 373 349 1048 39 349 1049 39 350 1050 369 350 1051 34 350 1052 241 388 1164 192 388 1165 21 388 1166 0 408 1224 44 408 1225 40 408 1226 177 417 1251 218 417 1252 358 417 1253 46 418 1254 177 418 1255 359 418 1256 373 431 1293 36 431 1294 76 431 1295 354 432 1296 14 432 1297 39 432 1298 371 433 1299 37 433 1300 36 433 1301 357 434 1302 35 434 1303 360 434 1304 186 435 1305 45 435 1306 53 435 1307 243 436 1308 43 436 1309 213 436 1310 352 438 1314 38 438 1315 46 438 1316 353 439 1317 34 439 1318 38 439 1319 225 442 1326 220 442 1327 83 442 1328 30 443 1329 51 443 1330 109 443 1331 21 446 1338 48 446 1339 64 446 1340 319 447 1341 62 447 1342 64 447 1343 370 448 1344 63 448 1345 33 448 1346 331 454 1362 203 454 1363 62 454 1364 176 458 1374 40 458 1375 96 458 1376 69 459 1377 70 459 1378 51 459 1379 369 460 1380 76 460 1381 63 460 1382 278 461 1383 77 461 1384 269 461 1385 313 462 1386 71 462 1387 168 462 1388 323 468 1404 120 468 1405 179 468 1406 280 469 1407 66 469 1408 372 469 1409 222 473 1419 96 473 1420 288 473 1421 100 479 1437 99 479 1438 89 479 1439 113 480 1440 85 480 1441 79 480 1442 57 482 1446 100 482 1447 101 482 1448 290 483 1449 289 483 1450 304 483 1451 108 484 1452 110 484 1453 52 484 1454 107 485 1455 109 485 1456 110 485 1457 122 493 1479 121 493 1480 79 493 1481 122 494 1482 111 494 1483 112 494 1484 123 495 1485 112 495 1486 82 495 1487 335 496 1488 123 496 1489 118 496 1490 334 497 1491 122 497 1492 123 497 1493 337 498 1494 121 498 1495 122 498 1496 336 499 1497 113 499 1498 121 499 1499 223 502 1506 115 502 1507 83 502 1508 275 510 1530 271 510 1531 272 510 1532 326 550 1650 330 550 1651 84 550 1652 330 551 1653 328 551 1654 168 551 1655 224 552 1656 165 552 1657 43 552 1658 224 563 1689 225 563 1690 183 563 1691 97 567 1701 200 567 1702 290 567 1703 311 568 1704 194 568 1705 200 568 1706 305 569 1707 297 569 1708 312 569 1709 90 573 1719 196 573 1720 414 573 1721 92 574 1722 195 574 1723 194 574 1724 21 575 1725 192 575 1726 199 575 1727 214 579 1737 244 579 1738 186 579 1739 314 588 1764 54 588 1765 203 588 1766 244 591 1773 213 591 1774 45 591 1775 290 592 1776 200 592 1777 222 592 1778 200 593 1779 194 593 1780 176 593 1781 192 598 1794 186 598 1795 221 598 1796 195 600 1800 0 600 1801 176 600 1802 262 603 1809 246 603 1810 247 603 1811 283 638 1914 278 638 1915 277 638 1916 285 640 1920 280 640 1921 374 640 1922 33 643 1929 285 643 1930 376 643 1931 17 645 1935 283 645 1936 282 645 1937 289 652 1956 288 652 1957 303 652 1958 99 655 1965 292 655 1966 294 655 1967 89 656 1968 294 656 1969 295 656 1970 86 657 1971 295 657 1972 293 657 1973 223 662 1986 304 662 1987 303 662 1988 239 665 1995 305 665 1996 304 665 1997 91 670 2010 97 670 2011 312 670 2012 77 674 2022 92 674 2023 311 674 2024 66 675 2025 90 675 2026 377 675 2027 269 678 2034 311 678 2035 97 678 2036 119 679 2037 297 679 2038 305 679 2039 71 680 2040 313 680 2041 332 680 2042 313 681 2043 314 681 2044 331 681 2045 187 682 2046 178 682 2047 327 682 2048 329 683 2049 327 683 2050 328 683 2051 179 684 2052 187 684 2053 329 684 2054 325 685 2055 329 685 2056 330 685 2057 113 686 2058 324 686 2059 326 686 2060 324 687 2061 323 687 2062 325 687 2063 54 688 2064 314 688 2065 327 688 2066 314 689 2067 313 689 2068 328 689 2069 204 690 2070 332 690 2071 320 690 2072 332 691 2073 331 691 2074 319 691 2075 69 696 2088 320 696 2089 322 696 2090 320 697 2091 319 697 2092 321 697 2093 292 700 2100 337 700 2101 334 700 2102 294 701 2103 334 701 2104 335 701 2105 295 702 2106 335 702 2107 333 702 2108 113 704 2112 336 704 2113 130 704 2114 137 705 2115 323 705 2116 324 705 2117 323 706 2118 137 706 2119 298 706 2120 345 707 2121 349 707 2122 92 707 2123 339 708 2124 348 708 2125 283 708 2126 348 709 2127 347 709 2128 278 709 2129 417 710 2130 419 710 2131 0 710 2132 349 711 2133 417 711 2134 195 711 2135 347 712 2136 345 712 2137 77 712 2138 74 713 2139 346 713 2140 344 713 2141 57 714 2142 344 714 2143 339 714 2144 419 715 2145 343 715 2146 44 715 2147 32 716 2148 338 716 2149 342 716 2150 29 719 2157 342 719 2158 346 719 2159 356 720 2160 360 720 2161 349 720 2162 350 721 2163 359 721 2164 348 721 2165 359 722 2166 358 722 2167 347 722 2168 360 723 2169 416 723 2170 417 723 2171 358 724 2172 356 724 2173 345 724 2174 346 725 2175 353 725 2176 352 725 2177 344 726 2178 352 726 2179 350 726 2180 338 728 2184 354 728 2185 351 728 2186 346 731 2193 342 731 2194 351 731 2195 218 735 2205 357 735 2206 356 735 2207 35 736 2208 415 736 2209 416 736 2210 353 737 2211 351 737 2212 39 737 2213 372 739 2217 377 739 2218 35 739 2219 375 740 2220 376 740 2221 177 740 2222 376 741 2223 374 741 2224 218 741 2225 377 742 2226 414 742 2227 415 742 2228 374 743 2229 372 743 2230 357 743 2231 34 744 2232 369 744 2233 370 744 2234 38 745 2235 370 745 2236 375 745 2237 14 746 2238 371 746 2239 373 746 2240 39 747 2241 373 747 2242 369 747 2243 241 784 2352 214 784 2353 192 784 2354</p>
        </triangles>
      </mesh>
    </geometry>
  </library_geometries>
  <library_visual_scenes>
    <visual_scene id="Scene" name="Scene">
      <node id="Cube" name="Cube" type="NODE">
        <matrix sid="transform">1 0 0 0 0 1 0 0 0 0 1 0 0 0 0 1</matrix>
        <instance_geometry url="#Cube-mesh" name="Cube">
          <bind_material>
            <technique_common>
              <instance_material symbol="concrete-1-material" target="#concrete-1-material">
                <bind_vertex_input semantic="UVMap" input_semantic="TEXCOORD" input_set="0"/>
              </instance_material>
              <instance_material symbol="galvalume-material" target="#galvalume-material">
                <bind_vertex_input semantic="UVMap" input_semantic="TEXCOORD" input_set="0"/>
              </instance_material>
              <instance_material symbol="asphalt-1-material" target="#asphalt-1-material">
                <bind_vertex_input semantic="UVMap" input_semantic="TEXCOORD" input_set="0"/>
              </instance_material>
              <instance_material symbol="white-line-material" target="#white-line-material">
                <bind_vertex_input semantic="UVMap" input_semantic="TEXCOORD" input_set="0"/>
              </instance_material>
            </technique_common>
          </bind_material>
        </instance_geometry>
      </node>
    </visual_scene>
  </library_visual_scenes>
  <scene>
    <instance_visual_scene url="#Scene"/>
  </scene>
</COLLADA>