<?xml version="1.0" encoding="utf-8"?>
<COLLADA xmlns="http://www.collada.org/2005/11/COLLADASchema" version="1.4.1" xmlns:xsi="http://www.w3.org/2001/XMLSchema-instance">
  <asset>
    <contributor>
      <author>Blender User</author>
      <authoring_tool>Blender 4.2.22 LTS commit date:2026-06-22, commit time:11:10, hash:88937221abfc</authoring_tool>
    </contributor>
    <created>2026-07-19T17:15:26</created>
    <modified>2026-07-19T17:15:26</modified>
    <unit name="meter" meter="1"/>
    <up_axis>Z_UP</up_axis>
  </asset>
  <library_effects>
    <effect id="paintable-0-effect">
      <profile_COMMON>
        <technique sid="common">
          <lambert>
            <emission>
              <color sid="emission">0 0 0 1</color>
            </emission>
            <diffuse>
              <color sid="diffuse">1 0.4969335 0 1</color>
            </diffuse>
            <index_of_refraction>
              <float sid="ior">1.45</float>
            </index_of_refraction>
          </lambert>
        </technique>
      </profile_COMMON>
    </effect>
    <effect id="paintable-1-effect">
      <profile_COMMON>
        <technique sid="common">
          <lambert>
            <emission>
              <color sid="emission">0 0 0 1</color>
            </emission>
            <diffuse>
              <color sid="diffuse">0.6104922 0.4910214 0 1</color>
            </diffuse>
            <index_of_refraction>
              <float sid="ior">1.5</float>
            </index_of_refraction>
          </lambert>
        </technique>
      </profile_COMMON>
    </effect>
    <effect id="lightgrey-effect">
      <profile_COMMON>
        <technique sid="common">
          <lambert>
            <emission>
              <color sid="emission">0 0 0 1</color>
            </emission>
            <diffuse>
              <color sid="diffuse">0.7835327 0.7835385 0.7835382 1</color>
            </diffuse>
            <index_of_refraction>
              <float sid="ior">1.5</float>
            </index_of_refraction>
          </lambert>
        </technique>
      </profile_COMMON>
    </effect>
    <effect id="darkgrey-effect">
      <profile_COMMON>
        <technique sid="common">
          <lambert>
            <emission>
              <color sid="emission">0 0 0 1</color>
            </emission>
            <diffuse>
              <color sid="diffuse">0.3371614 0.3371639 0.3371637 1</color>
            </diffuse>
            <index_of_refraction>
              <float sid="ior">1.5</float>
            </index_of_refraction>
          </lambert>
        </technique>
      </profile_COMMON>
    </effect>
    <effect id="Material-effect">
      <profile_COMMON>
        <technique sid="common">
          <lambert>
            <emission>
              <color sid="emission">0 0 0 1</color>
            </emission>
            <diffuse>
              <color sid="diffuse">1 0.4969335 0 1</color>
            </diffuse>
            <index_of_refraction>
              <float sid="ior">1.45</float>
            </index_of_refraction>
          </lambert>
        </technique>
      </profile_COMMON>
    </effect>
  </library_effects>
  <library_images/>
  <library_materials>
    <material id="paintable-0-material" name="paintable-0">
      <instance_effect url="#paintable-0-effect"/>
    </material>
    <material id="paintable-1-material" name="paintable-1">
      <instance_effect url="#paintable-1-effect"/>
    </material>
    <material id="lightgrey-material" name="lightgrey">
      <instance_effect url="#lightgrey-effect"/>
    </material>
    <material id="darkgrey-material" name="darkgrey">
      <instance_effect url="#darkgrey-effect"/>
    </material>
    <material id="Material-material" name="Material">
      <instance_effect url="#Material-effect"/>
    </material>
  </library_materials>
  <library_geometries>
    <geometry id="Cube-mesh" name="Cube">
      <mesh>
        <source id="Cube-mesh-positions">
          <float_array id="Cube-mesh-positions-array" count="96">0.09999996 0.06249994 -0.02588832 0.09999996 0.02588832 -0.0625 0.09999996 -0.02588832 -0.0625 0.09999996 -0.0625 -0.02588832 0.09999996 -0.06249994 0.02588832 0.09999996 -0.02588832 0.06249994 0.09999996 0.02588832 0.06249994 0.09999996 0.06249994 0.02588832 -0.125 0.05249994 0.02174621 0.1 0.05249994 0.02174615 -0.125 0.05249994 -0.02174615 0.09999996 0.05249994 -0.02174615 -0.125 0.02174615 -0.05249994 0.1 0.02174615 -0.05249994 -0.125 -0.02174615 -0.05249994 0.1 -0.02174615 -0.05249994 -0.125 -0.05249994 -0.02174615 0.1 -0.05249994 -0.02174621 -0.125 -0.05249994 0.02174615 0.1 -0.05249994 0.02174615 -0.125 -0.02174615 0.05249994 0.1 -0.02174615 0.05249994 -0.125 0.02174615 0.05249994 0.1 0.02174615 0.05249994 0.125 0.06249994 -0.02588832 0.125 0.02588832 -0.0625 0.125 -0.02588832 -0.0625 0.125 -0.0625 -0.02588832 0.125 -0.06249994 0.02588832 0.125 -0.02588832 0.06249994 0.125 0.02588832 0.06249994 0.125 0.06249994 0.02588832</float_array>
          <technique_common>
            <accessor source="#Cube-mesh-positions-array" count="32" stride="3">
              <param name="X" type="float"/>
              <param name="Y" type="float"/>
              <param name="Z" type="float"/>
            </accessor>
          </technique_common>
        </source>
        <source id="Cube-mesh-normals">
          <float_array id="Cube-mesh-normals-array" count="144">0 1 0 0 0.7071069 -0.7071067 0 0 -1 0 -0.7071067 -0.7071068 0 -1 0 0 -0.7071069 0.7071067 0 0 1 0 0.7071067 0.7071068 0 0 1 0 -0.7071068 0.7071068 0 -1 1.43898e-7 0 -0.7071068 -0.7071069 0 -1.43898e-7 -1 0 0.7071069 -0.7071068 0 1 0 0 0.7071068 0.7071068 -1 6.741e-7 1.71308e-7 -1 5.26835e-7 5.26835e-7 -1 0 7.45058e-7 -1 0 -1.71308e-7 -1 -7.45058e-7 0 -1 -1.22498e-6 -9.82713e-7 -1 0 -1.49012e-6 -1 1.05367e-6 -1.05367e-6 0 1 0 0 0.707107 -0.7071067 0 0 -1 0 -0.7071067 -0.7071068 0 -1 0 0 -0.7071068 0.7071067 0 0 1 0 0.7071067 0.7071068 0 0 1 0 -0.7071068 0.7071068 0 -1 1.43898e-7 0 -0.7071068 -0.7071069 0 -1.43898e-7 -1 0 0.7071069 -0.7071068 0 1 0 0 0.7071068 0.7071068 -1 1.49012e-6 0 -1 5.26835e-7 5.26835e-7 -1 0 7.45058e-7 -1 -5.26836e-7 5.26836e-7 -1 0 1.71308e-7 -1 -5.26836e-7 -5.26836e-7 -1 0 -1.49012e-6 -1 1.05367e-6 -1.05367e-6</float_array>
          <technique_common>
            <accessor source="#Cube-mesh-normals-array" count="48" stride="3">
              <param name="X" type="float"/>
              <param name="Y" type="float"/>
              <param name="Z" type="float"/>
            </accessor>
          </technique_common>
        </source>
        <source id="Cube-mesh-map-0">
          <float_array id="Cube-mesh-map-0-array" count="288">1 0.5 0.875 1 0.875 0.5 0.875 1 0.75 0.5 0.875 0.5 0.75 1 0.625 0.5 0.75 0.5 0.625 1 0.5 0.5 0.625 0.5 0.5 1 0.375 0.5 0.5 0.5 0.375 0.5 0.25 1 0.25 0.5 0.25 1 0.125 0.5 0.25 0.5 0.125 0.5 0 1 0 0.5 0 0 0 0 0 0 0 0 0 0 0 0 0 0 0 0 0 0 0 0 0 0 0 0 0 0 0 0 0 0 0 0 0 0 0 0 0 0 0 0 0 0 0 0 0 0 0 0 0 0 0.375 1 0.5 1 0 0 0.5 1 0.625 1 0 0 0.625 1 0.75 1 0 0 0.75 1 0.875 1 0 0 1 1 0 0 0 0 0 1 0.125 1 0 0 0.125 1 0.25 1 0 0 0.25 1 0.375 1 1 0.5 1 1 0.875 1 0.875 1 0.75 1 0.75 0.5 0.75 1 0.625 1 0.625 0.5 0.625 1 0.5 1 0.5 0.5 0.5 1 0.375 1 0.375 0.5 0.375 0.5 0.375 1 0.25 1 0.25 1 0.125 1 0.125 0.5 0.125 0.5 0.125 1 0 1 0 0 0 0 0 0 0 0 0 0 0 0 0 0 0 0 0 0 0 0 0 0 0 0 0 0 0 0 0 0 0 0 0 0 0 0 0 0 0 0 0 0 0 0 0 0 0 0 0 0 0 0 0.375 1 0 0 0 0 0.5 1 0 0 0 0 0.625 1 0 0 0 0 0.75 1 0 0 0.875 1 1 1 0 0 0 0 0 1 0 0 0 0 0.125 1 0 0 0 0 0.25 1</float_array>
          <technique_common>
            <accessor source="#Cube-mesh-map-0-array" count="144" stride="2">
              <param name="S" type="float"/>
              <param name="T" type="float"/>
            </accessor>
          </technique_common>
        </source>
        <vertices id="Cube-mesh-vertices">
          <input semantic="POSITION" source="#Cube-mesh-positions"/>
        </vertices>
        <triangles material="paintable-0-material" count="48">
          <input semantic="VERTEX" source="#Cube-mesh-vertices" offset="0"/>
          <input semantic="NORMAL" source="#Cube-mesh-normals" offset="1"/>
          <input semantic="TEXCOORD" source="#Cube-mesh-map-0" offset="2" set="0"/>
          <p>8 0 0 11 0 1 10 0 2 11 1 3 12 1 4 10 1 5 13 2 6 14 2 7 12 2 8 15 3 9 16 3 10 14 3 11 17 4 12 18 4 13 16 4 14 18 5 15 21 5 16 20 5 17 21 6 18 22 6 19 20 6 20 22 7 21 9 7 22 8 7 23 29 8 24 6 8 25 5 8 26 28 9 27 5 9 28 4 9 29 27 10 30 4 10 31 3 10 32 26 11 33 3 11 34 2 11 35 25 12 36 2 12 37 1 12 38 24 13 39 1 13 40 0 13 41 31 14 42 0 14 43 7 14 44 30 15 45 7 15 46 6 15 47 3 16 48 19 16 49 17 16 50 2 17 51 17 17 52 15 17 53 1 18 54 15 18 55 13 18 56 0 19 57 13 19 58 11 19 59 0 20 60 9 20 61 7 20 62 6 21 63 9 21 64 23 21 65 5 22 66 23 22 67 21 22 68 4 23 69 21 23 70 19 23 71 8 24 72 9 24 73 11 24 74 11 25 75 13 25 76 12 25 77 13 26 78 15 26 79 14 26 80 15 27 81 17 27 82 16 27 83 17 28 84 19 28 85 18 28 86 18 29 87 19 29 88 21 29 89 21 30 90 23 30 91 22 30 92 22 31 93 23 31 94 9 31 95 29 32 96 30 32 97 6 32 98 28 33 99 29 33 100 5 33 101 27 34 102 28 34 103 4 34 104 26 35 105 27 35 106 3 35 107 25 36 108 26 36 109 2 36 110 24 37 111 25 37 112 1 37 113 31 38 114 24 38 115 0 38 116 30 39 117 31 39 118 7 39 119 3 40 120 4 40 121 19 40 122 2 41 123 3 41 124 17 41 125 1 42 126 2 42 127 15 42 128 0 43 129 1 43 130 13 43 131 0 44 132 11 44 133 9 44 134 6 45 135 7 45 136 9 45 137 5 46 138 6 46 139 23 46 140 4 47 141 5 47 142 21 47 143</p>
        </triangles>
      </mesh>
    </geometry>
  </library_geometries>
  <library_visual_scenes>
    <visual_scene id="Scene" name="Scene">
      <node id="Cube" name="Cube" type="NODE">
        <matrix sid="transform">1 0 0 0 0 1 0 0 0 0 1 0 0 0 0 1</matrix>
        <instance_geometry url="#Cube-mesh" name="Cube">
          <bind_material>
            <technique_common>
              <instance_material symbol="paintable-0-material" target="#paintable-0-material">
                <bind_vertex_input semantic="UVMap" input_semantic="TEXCOORD" input_set="0"/>
              </instance_material>
              <instance_material symbol="paintable-1-material" target="#paintable-1-material">
                <bind_vertex_input semantic="UVMap" input_semantic="TEXCOORD" input_set="0"/>
              </instance_material>
              <instance_material symbol="lightgrey-material" target="#lightgrey-material">
                <bind_vertex_input semantic="UVMap" input_semantic="TEXCOORD" input_set="0"/>
              </instance_material>
              <instance_material symbol="darkgrey-material" target="#darkgrey-material">
                <bind_vertex_input semantic="UVMap" input_semantic="TEXCOORD" input_set="0"/>
              </instance_material>
              <instance_material symbol="Material-material" target="#Material-material">
                <bind_vertex_input semantic="UVMap" input_semantic="TEXCOORD" input_set="0"/>
              </instance_material>
            </technique_common>
          </bind_material>
        </instance_geometry>
      </node>
    </visual_scene>
  </library_visual_scenes>
  <scene>
    <instance_visual_scene url="#Scene"/>
  </scene>
</COLLADA>