<?xml version="1.0" encoding="utf-8"?>
<COLLADA xmlns="http://www.collada.org/2005/11/COLLADASchema" version="1.4.1" xmlns:xsi="http://www.w3.org/2001/XMLSchema-instance">
  <asset>
    <contributor>
      <author>Blender User</author>
      <authoring_tool>Blender 4.2.23 LTS commit date:2026-07-20, commit time:13:44, hash:d0cbe84903e8</authoring_tool>
    </contributor>
    <created>2026-08-08T18:50:20</created>
    <modified>2026-08-08T18:50:20</modified>
    <unit name="meter" meter="1"/>
    <up_axis>Z_UP</up_axis>
  </asset>
  <library_effects>
    <effect id="paintable-0-effect">
      <profile_COMMON>
        <technique sid="common">
          <lambert>
            <emission>
              <color sid="emission">0 0 0 1</color>
            </emission>
            <diffuse>
              <color sid="diffuse">1 0.4969335 0 1</color>
            </diffuse>
            <index_of_refraction>
              <float sid="ior">1.45</float>
            </index_of_refraction>
          </lambert>
        </technique>
      </profile_COMMON>
    </effect>
    <effect id="paintable-1-effect">
      <profile_COMMON>
        <technique sid="common">
          <lambert>
            <emission>
              <color sid="emission">0 0 0 1</color>
            </emission>
            <diffuse>
              <color sid="diffuse">0.6104922 0.4910214 0 1</color>
            </diffuse>
            <index_of_refraction>
              <float sid="ior">1.5</float>
            </index_of_refraction>
          </lambert>
        </technique>
      </profile_COMMON>
    </effect>
    <effect id="lightgray-effect">
      <profile_COMMON>
        <technique sid="common">
          <lambert>
            <emission>
              <color sid="emission">0 0 0 1</color>
            </emission>
            <diffuse>
              <color sid="diffuse">0.7835327 0.7835385 0.7835382 1</color>
            </diffuse>
            <index_of_refraction>
              <float sid="ior">1.5</float>
            </index_of_refraction>
          </lambert>
        </technique>
      </profile_COMMON>
    </effect>
    <effect id="Material-effect">
      <profile_COMMON>
        <technique sid="common">
          <lambert>
            <emission>
              <color sid="emission">0 0 0 1</color>
            </emission>
            <diffuse>
              <color sid="diffuse">1 0.4969335 0 1</color>
            </diffuse>
            <index_of_refraction>
              <float sid="ior">1.45</float>
            </index_of_refraction>
          </lambert>
        </technique>
      </profile_COMMON>
    </effect>
    <effect id="Material_001-effect">
      <profile_COMMON>
        <technique sid="common">
          <lambert>
            <emission>
              <color sid="emission">0 0 0 1</color>
            </emission>
            <diffuse>
              <color sid="diffuse">1 0.4969335 0 1</color>
            </diffuse>
            <index_of_refraction>
              <float sid="ior">1.45</float>
            </index_of_refraction>
          </lambert>
        </technique>
      </profile_COMMON>
    </effect>
  </library_effects>
  <library_images/>
  <library_materials>
    <material id="paintable-0-material" name="paintable-0">
      <instance_effect url="#paintable-0-effect"/>
    </material>
    <material id="paintable-1-material" name="paintable-1">
      <instance_effect url="#paintable-1-effect"/>
    </material>
    <material id="lightgray-material" name="lightgray">
      <instance_effect url="#lightgray-effect"/>
    </material>
    <material id="Material-material" name="Material">
      <instance_effect url="#Material-effect"/>
    </material>
    <material id="Material_001-material" name="Material.001">
      <instance_effect url="#Material_001-effect"/>
    </material>
  </library_materials>
  <library_geometries>
    <geometry id="Cube-mesh" name="Cube">
      <mesh>
        <source id="Cube-mesh-positions">
          <float_array id="Cube-mesh-positions-array" count="216">-0.02588814 -0.06249946 -0.125 -0.0625 -0.02588808 -0.125 0.0625 0.02588814 -0.125 0.0625 -0.02588808 -0.125 0.02588814 -0.06249946 -0.125 0.02588808 0.06249952 -0.125 -0.02588814 0.06249952 -0.125 -0.0625 0.02588814 -0.125 0.06249946 0.125 -0.02588814 0.02588808 0.125 -0.06249994 -0.06249952 0.125 -0.02588814 -0.02588814 0.125 -0.06249994 -0.0478354 -0.1154849 -0.05177664 0.0478354 0.1154849 -0.05177664 -0.1154849 -0.0478354 -0.05177664 0.1154849 0.0478354 -0.05177664 -0.1154849 0.0478354 -0.05177664 0.1154849 -0.0478354 -0.05177664 -0.0478354 0.1154849 -0.05177664 0.0478354 -0.1154849 -0.05177664 0.0478354 0.1154849 0.04055237 0.06249952 0.1008208 0.02588814 0.02588814 0.1055779 0.0625 0.03661125 0.1154849 0.05177664 -0.0478354 0.1154849 0.04055237 -0.03661125 0.1154849 0.05177664 -0.02588814 0.1055779 0.0625 -0.06249952 0.1008208 0.02588814 -0.0625 0.02588814 0.1091277 -0.02588808 0.06249952 0.1091277 0.02588814 0.06249952 0.1091277 0.02588814 -0.06249946 0.1091277 -0.02588814 -0.06249946 -0.1091277 -0.0625 -0.02588808 -0.1091277 0.0625 0.02588814 -0.1091277 0.0625 -0.02588808 -0.1091277 0.02588808 -0.06249946 -0.1091277 0.02588808 0.06249952 -0.1091277 -0.02588814 0.06249952 -0.1091277 -0.0625 0.02588814 -0.1091277 0.0625 -0.02588808 0.1091277 0.0625 0.02588814 0.1091277 -0.0625 -0.02588808 0.1091277 -0.02588808 -0.06249946 0.1091277 0.0478354 -0.1154849 0.05177664 -0.0478354 0.1154849 0.05177664 0.1154849 -0.0478354 0.05177664 -0.1154849 0.0478354 0.0517767 0.1154849 0.0478354 0.05177664 -0.1154849 -0.0478354 0.0517767 0.0478354 0.1154849 0.05177664 -0.0478354 -0.1154849 0.0517767 -0.02588814 0.125 0.0625 -0.06249952 0.125 0.02588814 0.02588814 0.125 0.0625 0.06249946 0.125 0.02588814 -0.0625 0.02588814 0.125 -0.02588814 0.06249952 0.125 0.02588814 0.06249952 0.125 0.02588814 -0.06249946 0.125 -0.06249952 0.1008208 -0.02588814 -0.02588814 0.1055779 -0.06249994 -0.03661125 0.1154849 -0.05177664 -0.0478354 0.1154849 -0.04055237 0.03661125 0.1154849 -0.05177664 0.02588808 0.1055779 -0.06249994 0.06249952 0.1008208 -0.02588814 0.0478354 0.1154849 -0.04055243 0.0625 -0.02588808 0.125 0.0625 0.02588814 0.125 -0.0625 -0.02588808 0.125 -0.02588808 -0.06249946 0.125</float_array>
          <technique_common>
            <accessor source="#Cube-mesh-positions-array" count="72" stride="3">
              <param name="X" type="float"/>
              <param name="Y" type="float"/>
              <param name="Z" type="float"/>
            </accessor>
          </technique_common>
        </source>
        <source id="Cube-mesh-normals">
          <float_array id="Cube-mesh-normals-array" count="366">0.7071021 -0.7071115 8.49942e-7 0.519377 0.5193772 -0.6785978 0.7345129 0 -0.6785947 -0.7071114 -7.70776e-7 0.7071022 0.5193756 -0.5193824 -0.6785948 7.1044e-7 0.7345107 0.6785971 0.7071067 0.707107 0 1 1.5407e-7 0 -0.7071068 -0.7071068 1.88012e-7 -0.7071068 0.7071068 0 0.5193768 -0.5193768 0.6785981 1 0 0 0 0.7345102 0.6785978 3.96896e-7 0.7345101 0.6785978 -0.5193755 -0.5193824 0.678595 0.7071114 0 0.7071021 -0.7345129 0 0.6785948 0.7071068 -0.7071068 0 0.7071112 0 0.7071024 -0.7071021 -0.7071115 4.24971e-7 -0.7071021 0.7071115 -3.31923e-7 0.707102 0.7071115 4.9788e-7 1 0 4.69409e-7 -1 0 0 0 -1 -2.34705e-7 0.7071021 0.7071115 5.66628e-7 -0.7071021 0.7071115 0 -0.7071021 -0.7071114 -4.24971e-7 0.7071022 -0.7071114 -1.41657e-7 1 0 2.34705e-7 0 1 2.34705e-7 0 -0.7345097 -0.6785982 -0.5193756 -0.5193824 -0.6785948 -0.734513 0 -0.6785946 -0.5193771 0.5193769 -0.6785978 0 -1 0 -0.7071115 -2.71258e-7 0.707102 0.519377 0.5193771 0.6785978 -0.7071115 2.1789e-7 0.7071021 -6.63802e-7 1 0 0.734513 0 0.6785946 -1 0 -2.34705e-7 7.54841e-7 0.7345093 -0.6785985 1.3276e-6 1 -1.32759e-6 0.7071068 0.7071068 0 0 1 -2.34705e-7 0 1 6.63792e-7 0.7071112 3.54451e-7 -0.7071022 0 -1 2.34705e-7 -1.25335e-7 0.73451 -0.6785978 0.7071115 0 -0.707102 0 0.7345103 -0.6785976 0.7071114 0 -0.7071022 0 0 -1 -0.7071114 -2.71258e-7 -0.7071022 -0.7071115 2.03144e-7 -0.7071022 6.63801e-7 1 -6.63792e-7 -0.7071115 0 -0.7071021 -0.7071064 0.7071071 5.00129e-7 -1 0 0 0 -0.7345097 0.6785982 0 0 1 0.7071067 0.7071069 -3.76022e-7 0.7071118 8.67123e-7 0.7071018 -0.5193758 0.5193827 0.6785945 -0.7071069 0.7071067 0 -1 3.08141e-7 0 0.7071022 -0.7071113 3.31923e-7 0.5193758 0.5193827 -0.6785945 0.734513 0 -0.6785947 -0.7071115 0 0.7071021 0.5193768 -0.5193768 -0.6785982 1.67114e-7 0.7345101 0.6785977 0.7071068 0.7071068 0 1 1.5407e-7 0 -0.7071067 -0.7071069 0 -0.7071064 0.7071072 -4.69372e-7 0.5193756 -0.5193825 0.6785948 1 0 0 0 0.7345101 0.6785978 -2.62343e-7 0.7345107 0.6785971 -0.5193767 -0.5193769 0.6785982 -0.7345129 0 0.6785948 0.7071068 -0.7071068 0 -0.707102 -0.7071116 0 -0.7071021 0.7071115 -3.31923e-7 0.7071021 0.7071114 0 1 1.43899e-7 9.38819e-7 -1 1.43899e-7 -4.69409e-7 0 -1 0 0.707102 0.7071116 1.65965e-7 -0.7071022 0.7071114 3.31925e-7 -0.7071021 -0.7071114 -6.63845e-7 0.7071021 -0.7071115 0 1 0 2.34705e-7 0 1 4.6941e-7 0 -0.7345097 -0.6785983 -0.5193768 -0.5193768 -0.6785982 -0.7345131 0 -0.6785946 -0.5193759 0.5193827 -0.6785944 0 -1 0 0.5193758 0.5193827 0.6785944 0.734513 0 0.6785947 -1 0 -2.34705e-7 -1.67114e-7 0.7345103 -0.6785976 0.7071067 0.7071068 0 0 1 0 0.7071108 -1.54156e-6 -0.7071027 0 -1 4.6941e-7 -2.25227e-7 0.73451 -0.6785979 2.11391e-7 0.7345101 -0.6785978 0 0 -1 -0.7071115 0 -0.7071021 -0.7071069 0.7071067 0 -1 0 -1.43898e-7 0 -0.7345097 0.6785983 0 0 1 0.7071072 0.7071064 -9.38744e-7 0.7071114 -7.08901e-7 0.7071021 -0.519377 0.519377 0.6785979 -0.707107 0.7071067 0 -1 3.08141e-7 0</float_array>
          <technique_common>
            <accessor source="#Cube-mesh-normals-array" count="122" stride="3">
              <param name="X" type="float"/>
              <param name="Y" type="float"/>
              <param name="Z" type="float"/>
            </accessor>
          </technique_common>
        </source>
        <source id="Cube-mesh-map-0">
          <float_array id="Cube-mesh-map-0-array" count="732">0 0 0 0 0 0 0 0 0 0 0 0 0 0 0 0 0 0 0 0 0 0 0 0 0 0 0 0 0 0 0 0 0 0 0 0 0 0 0 0 0 0 0 0 0 0 0 0 0 0 0 0 0 0 0 0 0 0 0 0 0 0 0 0 0 0 0 0 0 0 0 0 0 0 0 0 0 0 0 0 0 0 0 0 0 0 0 0 0 0 0 0 0 0 0 0 0 0 0 0 0 0 0 0 0 0 0 0 0 0 0 0 0 0 0 0 0 0 0 0 0 0 0 0 0 0 0 0 0 0 0 0 0 0 0 0 0 0 0 0 0 0 0 0 0 0 0 0 0 0 0 0 0 0 0 0 0 0 0 0 0 0 0 0 0 0 0 0 0 0 0 0 0 0 0 0 0 0 0 0 0 0 0 0 0 0 0 0 0 0 0 0 0 0 0 0 0 0 0 0 0 0 0 0 0 0 0 0 0 0 0 0 0 0 0 0 0 0 0 0 0 0 0 0 0 0 0 0 0 0 0 0 0 0 0 0 0 0 0 0 0 0 0 0 0 0 0 0 0 0 0 0 0 0 0 0 0 0 0 0 0 0 0 0 0 0 0 0 0 0 0 0 0 0 0 0 0 0 0 0 0 0 0 0 0 0 0 0 0 0 0 0 0 0 0 0 0 0 0 0 0 0 0 0 0 0 0 0 0 0 0 0 0 0 0 0 0 0 0 0 0 0 0 0 0 0 0 0 0 0 0 0 0 0 0 0 0 0 0 0 0 0 0 0 0 0 0 0 0 0 0 0 0 0 0 0 0 0 0 0 0 0 0 0 0 0 0 0 0 0 0 0 0 0 0 0 0 0 0 0 0 0 0 0 0 0 0 0 0 0 0 0 0 0 0 0 0 0 0 0 0 0 0 0 0 0 0 0 0 0 0 0 0 0 0 0 0 0 0 0 0 0 0 0 0 0 0 0 0 0 0 0 0 0 0 0 0 0 0 0 0 0 0 0 0 0 0 0 0 0 0 0 0 0 0 0 0 0 0 0 0 0 0 0 0 0 0 0 0 0 0 0 0 0 0 0 0 0 0 0 0 0 0 0 0 0 0 0 0 0 0 0 0 0 0 0 0 0 0 0 0 0 0 0 0 0 0 0 0 0 0 0 0 0 0 0 0 0 0 0 0 0 0 0 0 0 0 0 0 0 0 0 0 0 0 0 0 0 0 0 0 0 0 0 0 0 0 0 0 0 0 0 0 0 0 0 0 0 0 0 0 0 0 0 0 0 0 0 0 0 0 0 0 0 0 0 0 0 0 0 0 0 0 0 0 0 0 0 0 0 0 0 0 0 0 0 0 0 0 0 0 0 0 0 0 0 0 0 0 0 0 0 0 0 0 0 0 0 0 0 0 0 0 0 0 0 0 0 0 0 0 0 0 0 0 0 0 0 0 0 0 0 0 0 0 0 0 0 0 0 0 0 0 0 0 0 0 0 0 0 0 0 0 0 0 0 0 0 0 0 0 0 0 0 0 0 0 0 0 0 0 0 0 0 0 0 0 0 0 0 0 0 0 0 0 0 0 0 0 0 0 0 0 0 0 0 0 0 0 0 0 0 0 0 0 0 0 0 0 0 0 0 0 0 0 0 0 0 0 0 0 0</float_array>
          <technique_common>
            <accessor source="#Cube-mesh-map-0-array" count="366" stride="2">
              <param name="S" type="float"/>
              <param name="T" type="float"/>
            </accessor>
          </technique_common>
        </source>
        <vertices id="Cube-mesh-vertices">
          <input semantic="POSITION" source="#Cube-mesh-positions"/>
        </vertices>
        <triangles material="paintable-0-material" count="122">
          <input semantic="VERTEX" source="#Cube-mesh-vertices" offset="0"/>
          <input semantic="NORMAL" source="#Cube-mesh-normals" offset="1"/>
          <input semantic="TEXCOORD" source="#Cube-mesh-map-0" offset="2" set="0"/>
          <p>68 0 0 31 0 1 40 0 2 15 1 3 37 1 4 13 1 5 15 2 6 35 2 7 34 2 8 52 3 9 24 3 10 25 3 11 17 4 12 36 4 13 35 4 14 45 5 15 26 5 16 25 5 17 50 6 18 21 6 19 20 6 20 66 7 21 55 7 22 21 7 23 51 8 24 14 8 25 12 8 26 45 9 27 27 9 28 47 9 29 46 10 30 31 10 31 44 10 32 17 11 33 48 11 34 46 11 35 29 12 36 22 12 37 26 12 38 50 13 39 22 13 40 30 13 41 49 14 42 43 14 43 42 14 44 54 15 45 22 15 46 23 15 47 47 16 48 42 16 49 28 16 50 44 17 51 17 17 52 46 17 53 20 18 54 21 18 55 55 18 56 71 19 57 42 19 58 43 19 59 57 20 60 28 20 61 56 20 62 69 21 63 30 21 64 58 21 65 68 22 66 41 22 67 69 22 68 1 23 69 39 23 70 7 23 71 36 24 72 0 24 73 4 24 74 2 25 75 37 25 76 34 25 77 7 26 78 38 26 79 6 26 80 32 27 81 1 27 82 0 27 83 35 28 84 4 28 85 3 28 86 3 29 87 34 29 88 35 29 89 38 30 90 5 30 91 6 30 92 36 31 93 12 31 94 32 31 95 32 32 96 14 32 97 33 32 98 33 33 99 16 33 100 39 33 101 38 34 102 16 34 103 18 34 104 44 35 105 12 35 106 19 35 107 25 36 108 26 36 109 52 36 110 30 37 111 48 37 112 50 37 113 53 38 114 27 38 115 24 38 116 50 39 117 20 39 118 23 39 119 48 40 120 40 40 121 46 40 122 70 41 123 28 41 124 42 41 125 13 42 126 65 42 127 64 42 128 13 43 129 64 43 130 67 43 131 66 44 132 48 44 133 15 44 134 58 45 135 29 45 136 57 45 137 62 46 138 18 46 139 63 46 140 67 47 141 9 47 142 8 47 143 71 48 144 31 48 145 59 48 146 18 49 147 61 49 148 38 49 149 9 50 150 64 50 151 65 50 152 38 51 153 65 51 154 37 51 155 67 52 156 8 52 157 66 52 158 61 53 159 9 53 160 65 53 161 62 54 162 11 54 163 61 54 164 10 55 165 63 55 166 60 55 167 25 56 168 24 56 169 45 56 170 11 57 171 63 57 172 10 57 173 18 58 174 60 58 175 63 58 176 49 59 177 16 59 178 14 59 179 51 60 180 31 60 181 43 60 182 54 61 183 26 61 184 22 61 185 13 62 186 66 62 187 15 62 188 20 63 189 54 63 190 23 63 191 29 64 192 47 64 193 28 64 194 27 65 195 16 65 196 47 65 197 27 66 198 10 66 199 60 66 200 68 67 201 59 67 202 31 67 203 15 68 204 34 68 205 37 68 206 15 69 207 17 69 208 35 69 209 52 70 210 53 70 211 24 70 212 17 71 213 19 71 214 36 71 215 45 72 216 29 72 217 26 72 218 50 73 219 48 73 220 21 73 221 66 74 222 8 74 223 55 74 224 51 75 225 49 75 226 14 75 227 45 76 228 24 76 229 27 76 230 46 77 231 40 77 232 31 77 233 17 78 234 15 78 235 48 78 236 29 79 237 30 79 238 22 79 239 50 80 240 23 80 241 22 80 242 49 81 243 51 81 244 43 81 245 47 82 246 49 82 247 42 82 248 44 83 249 19 83 250 17 83 251 71 84 252 70 84 253 42 84 254 57 85 255 29 85 256 28 85 257 69 86 258 41 86 259 30 86 260 68 87 261 40 87 262 41 87 263 1 88 264 33 88 265 39 88 266 36 89 267 32 89 268 0 89 269 2 90 270 5 90 271 37 90 272 7 91 273 39 91 274 38 91 275 32 92 276 33 92 277 1 92 278 35 93 279 36 93 280 4 93 281 3 94 282 2 94 283 34 94 284 38 95 285 37 95 286 5 95 287 36 96 288 19 96 289 12 96 290 32 97 291 12 97 292 14 97 293 33 98 294 14 98 295 16 98 296 38 99 297 39 99 298 16 99 299 44 100 300 51 100 301 12 100 302 30 101 303 41 101 304 48 101 305 48 102 306 41 102 307 40 102 308 70 103 309 56 103 310 28 103 311 13 104 312 37 104 313 65 104 314 66 105 315 21 105 316 48 105 317 58 106 318 30 106 319 29 106 320 67 107 321 64 107 322 9 107 323 71 108 324 43 108 325 31 108 326 18 109 327 62 109 328 61 109 329 38 110 330 61 110 331 65 110 332 61 111 333 11 111 334 9 111 335 11 112 336 62 112 337 63 112 338 18 113 339 16 113 340 60 113 341 49 114 342 47 114 343 16 114 344 51 115 345 44 115 346 31 115 347 54 116 348 52 116 349 26 116 350 13 117 351 67 117 352 66 117 353 20 118 354 55 118 355 54 118 356 29 119 357 45 119 358 47 119 359 27 120 360 60 120 361 16 120 362 27 121 363 53 121 364 10 121 365</p>
        </triangles>
      </mesh>
    </geometry>
  </library_geometries>
  <library_visual_scenes>
    <visual_scene id="Scene" name="Scene">
      <node id="Cube" name="Cube" type="NODE">
        <matrix sid="transform">1 0 0 0 0 1 0 0 0 0 1 0 0 0 0 1</matrix>
        <instance_geometry url="#Cube-mesh" name="Cube">
          <bind_material>
            <technique_common>
              <instance_material symbol="paintable-0-material" target="#paintable-0-material">
                <bind_vertex_input semantic="UVMap" input_semantic="TEXCOORD" input_set="0"/>
              </instance_material>
              <instance_material symbol="paintable-1-material" target="#paintable-1-material">
                <bind_vertex_input semantic="UVMap" input_semantic="TEXCOORD" input_set="0"/>
              </instance_material>
              <instance_material symbol="lightgray-material" target="#lightgray-material">
                <bind_vertex_input semantic="UVMap" input_semantic="TEXCOORD" input_set="0"/>
              </instance_material>
              <instance_material symbol="Material-material" target="#Material-material">
                <bind_vertex_input semantic="UVMap" input_semantic="TEXCOORD" input_set="0"/>
              </instance_material>
              <instance_material symbol="Material_001-material" target="#Material_001-material">
                <bind_vertex_input semantic="UVMap" input_semantic="TEXCOORD" input_set="0"/>
              </instance_material>
            </technique_common>
          </bind_material>
        </instance_geometry>
      </node>
    </visual_scene>
  </library_visual_scenes>
  <scene>
    <instance_visual_scene url="#Scene"/>
  </scene>
</COLLADA>