<?xml version="1.0" encoding="utf-8"?>
<COLLADA xmlns="http://www.collada.org/2005/11/COLLADASchema" version="1.4.1" xmlns:xsi="http://www.w3.org/2001/XMLSchema-instance">
  <asset>
    <contributor>
      <author>Blender User</author>
      <authoring_tool>Blender 4.2.23 LTS commit date:2026-07-20, commit time:13:44, hash:d0cbe84903e8</authoring_tool>
    </contributor>
    <created>2026-08-02T16:48:54</created>
    <modified>2026-08-02T16:48:54</modified>
    <unit name="meter" meter="1"/>
    <up_axis>Z_UP</up_axis>
  </asset>
  <library_effects>
    <effect id="paintable-0-effect">
      <profile_COMMON>
        <technique sid="common">
          <lambert>
            <emission>
              <color sid="emission">0 0 0 1</color>
            </emission>
            <diffuse>
              <color sid="diffuse">1 0.4969335 0 1</color>
            </diffuse>
            <index_of_refraction>
              <float sid="ior">1.45</float>
            </index_of_refraction>
          </lambert>
        </technique>
      </profile_COMMON>
    </effect>
    <effect id="paintable-1-effect">
      <profile_COMMON>
        <technique sid="common">
          <lambert>
            <emission>
              <color sid="emission">0 0 0 1</color>
            </emission>
            <diffuse>
              <color sid="diffuse">0.6104922 0.4910214 0 1</color>
            </diffuse>
            <index_of_refraction>
              <float sid="ior">1.5</float>
            </index_of_refraction>
          </lambert>
        </technique>
      </profile_COMMON>
    </effect>
    <effect id="lightgrey-effect">
      <profile_COMMON>
        <technique sid="common">
          <lambert>
            <emission>
              <color sid="emission">0 0 0 1</color>
            </emission>
            <diffuse>
              <color sid="diffuse">0.7835327 0.7835385 0.7835382 1</color>
            </diffuse>
            <index_of_refraction>
              <float sid="ior">1.5</float>
            </index_of_refraction>
          </lambert>
        </technique>
      </profile_COMMON>
    </effect>
    <effect id="darkgrey-effect">
      <profile_COMMON>
        <technique sid="common">
          <lambert>
            <emission>
              <color sid="emission">0 0 0 1</color>
            </emission>
            <diffuse>
              <color sid="diffuse">0.3371614 0.3371639 0.3371637 1</color>
            </diffuse>
            <index_of_refraction>
              <float sid="ior">1.5</float>
            </index_of_refraction>
          </lambert>
        </technique>
      </profile_COMMON>
    </effect>
    <effect id="MATERIALadditive-effect">
      <profile_COMMON>
        <technique sid="common">
          <lambert>
            <emission>
              <color sid="emission">0 0 0 1</color>
            </emission>
            <diffuse>
              <color sid="diffuse">0.8 0.8 0.8 1</color>
            </diffuse>
            <index_of_refraction>
              <float sid="ior">1.5</float>
            </index_of_refraction>
          </lambert>
        </technique>
      </profile_COMMON>
    </effect>
    <effect id="MATERIALglass-effect">
      <profile_COMMON>
        <technique sid="common">
          <lambert>
            <emission>
              <color sid="emission">0 0 0 1</color>
            </emission>
            <diffuse>
              <color sid="diffuse">0.8 0.8 0.8 1</color>
            </diffuse>
            <index_of_refraction>
              <float sid="ior">1.5</float>
            </index_of_refraction>
          </lambert>
        </technique>
      </profile_COMMON>
    </effect>
  </library_effects>
  <library_images/>
  <library_materials>
    <material id="paintable-0-material" name="paintable-0">
      <instance_effect url="#paintable-0-effect"/>
    </material>
    <material id="paintable-1-material" name="paintable-1">
      <instance_effect url="#paintable-1-effect"/>
    </material>
    <material id="lightgrey-material" name="lightgrey">
      <instance_effect url="#lightgrey-effect"/>
    </material>
    <material id="darkgrey-material" name="darkgrey">
      <instance_effect url="#darkgrey-effect"/>
    </material>
    <material id="MATERIALadditive-material" name="MATERIALadditive">
      <instance_effect url="#MATERIALadditive-effect"/>
    </material>
    <material id="MATERIALglass-material" name="MATERIALglass">
      <instance_effect url="#MATERIALglass-effect"/>
    </material>
  </library_materials>
  <library_geometries>
    <geometry id="Cube-mesh" name="Cube">
      <mesh>
        <source id="Cube-mesh-positions">
          <float_array id="Cube-mesh-positions-array" count="360">0.125 0.03499996 -0.125 -0.125 0.03499996 -0.125 -0.125 -0.03499996 -0.125 0.125 -0.03499996 -0.125 0.125 0.02499997 -0.125 -0.125 0.02499997 -0.125 0.125 -0.02499997 -0.125 -0.125 -0.02499997 -0.125 -0.125 0.03499996 -0.07499998 0.125 0.03499996 -0.07499998 0.125 -0.03499996 -0.07499998 -0.125 -0.03499996 -0.07499998 -0.125 -0.02499997 -0.055 -0.125 0.02499997 -0.055 -0.125 0.03499996 -0.055 0.125 0.03499996 -0.055 0.125 -0.03499996 -0.055 -0.125 -0.03499996 -0.055 -0.125 -0.02499997 -0.07499998 -0.125 0.02499997 -0.07499998 0.125 0.02499997 -0.07499998 0.125 -0.02499997 -0.07499998 0.125 0.02499997 -0.055 0.125 -0.02499997 -0.055 0 0.03499996 -0.125 0 -0.03499996 -0.125 0 0.02499997 -0.125 0 -0.02499997 -0.125 0 0.03499996 -0.07499998 0 -0.03499996 -0.07499998 0 -0.03499996 -0.055 0 0.03499996 -0.055 0 0.02499997 -0.055 0 0.02499997 -0.07499998 0 -0.02499997 -0.07499998 0 -0.02499997 -0.055 -0.125 0.01499998 -0.125 -0.125 -0.01499998 -0.125 0.125 0.01499998 -0.125 0.125 -0.01499998 -0.125 0.125 0.01499998 -0.07499998 0.125 -0.01499998 -0.07499998 -0.125 0.01499998 -0.07499998 -0.125 -0.01499998 -0.07499998 0 0.01499998 -0.07499998 0 -0.01499998 -0.07499998 0 0.01499998 -0.125 0 -0.01499998 -0.125 -0.00999999 0.03499996 -0.125 -0.115 0.03499996 -0.125 -0.00999999 0.02499997 -0.125 -0.115 0.02499997 -0.125 -0.00999999 -0.02499997 -0.125 -0.115 -0.02499997 -0.125 -0.00999999 -0.03499996 -0.07499998 -0.115 -0.03499996 -0.07499998 -0.00999999 -0.03499996 -0.055 -0.115 -0.03499996 -0.055 -0.115 -0.03499996 -0.125 -0.00999999 -0.03499996 -0.125 -0.00999999 0.02499997 -0.055 -0.115 0.02499997 -0.055 -0.00999999 -0.02499997 -0.07499998 -0.115 -0.02499997 -0.07499998 -0.115 0.03499996 -0.07499998 -0.00999999 0.03499996 -0.07499998 -0.115 0.03499996 -0.055 -0.00999999 0.03499996 -0.055 -0.115 0.02499997 -0.07499998 -0.00999999 0.02499997 -0.07499998 -0.115 -0.02499997 -0.055 -0.00999999 -0.02499997 -0.055 -0.00999999 0.01499998 -0.125 -0.115 0.01499998 -0.125 -0.00999999 -0.01499998 -0.125 -0.115 -0.01499998 -0.125 -0.01999998 -0.004999995 -0.08499997 -0.105 -0.004999995 -0.08499997 -0.01999998 0.004999995 -0.08499997 -0.105 0.004999995 -0.08499997 0.00999999 -0.03499996 -0.125 0.115 -0.03499996 -0.125 0.00999999 0.03499996 -0.07499998 0.115 0.03499996 -0.07499998 0.00999999 0.03499996 -0.055 0.115 0.03499996 -0.055 0.115 0.03499996 -0.125 0.00999999 0.03499996 -0.125 0.00999999 0.02499997 -0.07499998 0.115 0.02499997 -0.07499998 0.00999999 -0.02499997 -0.055 0.115 -0.02499997 -0.055 0.115 0.02499997 -0.125 0.00999999 0.02499997 -0.125 0.115 -0.02499997 -0.125 0.00999999 -0.02499997 -0.125 0.115 -0.03499996 -0.07499998 0.00999999 -0.03499996 -0.07499998 0.115 -0.03499996 -0.055 0.00999999 -0.03499996 -0.055 0.115 0.02499997 -0.055 0.00999999 0.02499997 -0.055 0.115 -0.02499997 -0.07499998 0.00999999 -0.02499997 -0.07499998 0.105 -0.004999995 -0.08499997 0.01999998 -0.004999995 -0.08499997 0.105 0.004999995 -0.08499997 0.01999998 0.004999995 -0.08499997 0.115 0.01499998 -0.125 0.00999999 0.01499998 -0.125 0.115 -0.01499998 -0.125 0.00999999 -0.01499998 -0.125 -0.00999999 -0.01499998 -0.07499998 -0.115 -0.01499998 -0.07499998 -0.00999999 0.01499998 -0.07499998 -0.115 0.01499998 -0.07499998 0.115 -0.01499998 -0.07499998 0.00999999 -0.01499998 -0.07499998 0.115 0.01499998 -0.07499998 0.00999999 0.01499998 -0.07499998</float_array>
          <technique_common>
            <accessor source="#Cube-mesh-positions-array" count="120" stride="3">
              <param name="X" type="float"/>
              <param name="Y" type="float"/>
              <param name="Z" type="float"/>
            </accessor>
          </technique_common>
        </source>
        <source id="Cube-mesh-normals">
          <float_array id="Cube-mesh-normals-array" count="708">1 0 0 1 0 0 -1 0 0 -1 0 0 -1 0 0 1 0 0 0 -1 0 0 1 0 0 0 -1 0 0 -1 0 0 1 0 0 1 0 0 -1 0 -1 0 0 1 0 1 0 0 -1 0 0 -1 0 0 1 0 0 0 0 1 0 -1 0 0 1 0 0 0 1 0 -1 0 0 1 0 0 1 0 0 -1 0 0 0 -1 0 0 1 0 0 1 0 0 -1 0 0 -1 0 1 0 0 -1 0 0 0 -1 0 0 -1 0 0 1 0 0 1 0 0 1 0 0 1 0 0 -1 0 0 -1 -1 0 0 -1 0 0 1 0 0 1 0 0 0 0 1 0 0 1 0 0 1 0 0 1 0 0 -1 0 0 -1 0 0 -1 0 0 -1 0 1 0 0 1 0 0 0 -1 0 0 -1 0 0 -1 0 0 -1 0 0 -1 0 0 -1 0 1 0 0 1 0 0 1 0 0 1 0 0 -1 0 0 -1 0 0 0 1 0 0 1 0 -1 0 0 -1 0 0 0 1 0 0 1 0 0 1 0 0 1 0 -1 0 0 -1 0 0 0 -1 0 0 -1 0 0 -1 0 0 -1 0 0 1 0 0 1 0 0 1 0 0 1 0 -1 0 0 -1 0 0 0 1 0 0 1 0 0 1 0 0 1 0 -1 0 0 -1 0 0 1 0 0 1 0 0 -1 0 0 -1 0 0 0 1 0 0 1 0 1 0 0 1 0 0 0 -1 0 0 -1 0 0 -1 0 0 -1 0 0 -1 0 0 -1 0 1 0 0 1 0 0 0.7071068 0.7071068 0 -0.7071068 0.7071068 -0.7071068 0 0.7071068 0.7071068 0 0.7071068 0 0.7071068 0.7071068 0 -0.7071068 0.7071068 -0.7071068 0 0.7071068 0.7071068 0 0.7071068 1 0 0 1 0 0 -1 0 0 -1 0 0 -1 0 0 1 0 0 0 -1 0 0 1 0 0 0 -1 0 0 -1 0 0 1 0 0 1 0 0 -1 0 -1 0 0 1 0 1 0 0 -1 0 0 -1 0 0 1 0 0 0 0 1 0 -1 0 0 1 0 0 0 1 0 -1 0 0 1 0 0 1 0 0 -1 0 0 0 -1 0 0 1 0 0 1 0 0 -1 0 0 -1 0 1 0 0 -1 0 0 0 -1 0 0 -1 0 0 1 0 0 1 0 0 1 0 0 1 0 0 -1 0 0 -1 -1 0 0 -1 0 0 1 0 0 1 0 0 0 0 1 0 0 1 0 0 1 0 0 1 0 0 -1 0 0 -1 0 0 -1 0 0 -1 0 1 0 0 1 0 0 0 -1 0 0 -1 0 0 -1 0 0 -1 0 0 -1 0 0 -1 0 1 0 0 1 0 0 1 0 0 1 0 0 -1 0 0 -1 0 0 0 1 0 0 1 0 -1 0 0 -1 0 0 0 1 0 0 1 0 0 1 0 0 1 0 -1 0 0 -1 0 0 0 -1 0 0 -1 0 0 -1 0 0 -1 0 0 1 0 0 1 0 0 1 0 0 1 0 -1 0 0 -1 0 0 0 1 0 0 1 0 0 1 0 0 1 0 -1 0 0 -1 0 0 1 0 0 1 0 0 -1 0 0 -1 0 0 0 1 0 0 1 0 1 0 0 1 0 0 0 -1 0 0 -1 0 0 -1 0 0 -1 0 0 -1 0 0 -1 0 1 0 0 1 0 0 0.7071068 0.7071068 0 -0.7071068 0.7071068 -0.7071068 0 0.7071068 0.7071068 0 0.7071068 0 0.7071067 0.7071068 0 -0.7071067 0.7071068 -0.7071068 0 0.7071068 0.7071068 0 0.7071068</float_array>
          <technique_common>
            <accessor source="#Cube-mesh-normals-array" count="236" stride="3">
              <param name="X" type="float"/>
              <param name="Y" type="float"/>
              <param name="Z" type="float"/>
            </accessor>
          </technique_common>
        </source>
        <source id="Cube-mesh-map-0">
          <float_array id="Cube-mesh-map-0-array" count="1416">0.4375 0.6388888 0.375 0.6666666 0.375 0.6388888 0.4375 0.5 0.375 0.5833333 0.375 0.5 0.4375 0.1388888 0.375 0.1666666 0.375 0.1388888 0.4375 0 0.375 0.08333331 0.375 0 0.4375 0.1666666 0.375 0.25 0.375 0.1666666 0.4375 0.6666666 0.375 0.75 0.375 0.6666666 0.4375 0.9027777 0.375 0.9166666 0.375 0.9027777 0.4375 0.4027778 0.375 0.4166666 0.375 0.4027777 0.2916666 0.6388888 0.2777777 0.6666666 0.2777777 0.6388888 0.2916666 0.5 0.2777777 0.5833333 0.2777777 0.5 0.5 0.3101851 0.5 0.25 0.5 0.2916666 0.5 0.3472222 0.5 0.3055555 0.5 0.3287037 0.2916666 0.6666666 0.2777778 0.75 0.2777777 0.6666666 0.46875 0.9027777 0.4375 0.9166666 0.4375 0.9027777 0.46875 0.4027778 0.4375 0.4166666 0.4375 0.4027778 0.46875 0.5 0.4375 0.5833334 0.4375 0.5 0.46875 0 0.4375 0.08333331 0.4375 0 0.46875 0.1666666 0.4375 0.25 0.4375 0.1666666 0.46875 0.6666666 0.4375 0.75 0.4375 0.6666666 0.4375 0.5833334 0.4375 0.6111111 0.4375 0.6111111 0.46875 0.5833334 0.4375 0.5833334 0.4375 0.5833334 0.4375 0.6666666 0.46875 0.6666666 0.46875 0.6666666 0.4375 0.6111111 0.4375 0.5833334 0.4375 0.6111111 0.46875 0.5833334 0.4375 0.5833334 0.4375 0.5833334 0.4375 0.6666666 0.46875 0.6666666 0.46875 0.6666666 0.46875 0.3611111 0.4375 0.375 0.4375 0.3611111 0.46875 0.8611111 0.4375 0.875 0.4375 0.8611112 0.25 0.6666666 0.2361111 0.75 0.2361111 0.6666667 0.5 0.3981481 0.5 0.375 0.5 0.375 0.5 0.4166666 0.5 0.375 0.5 0.375 0.25 0.5 0.2361111 0.5833333 0.2361111 0.5 0.25 0.6388888 0.2361111 0.6666667 0.2361111 0.6388888 0.4375 0.3611111 0.375 0.375 0.375 0.3611111 0.4375 0.8611112 0.375 0.875 0.375 0.8611112 0.25 0.5833333 0.2361111 0.6111111 0.2361111 0.5833333 0.25 0.6111111 0.2361111 0.6388888 0.2361111 0.6111111 0.4375 0.6388888 0.4375 0.6666666 0.4375 0.6666666 0.4375 0.6111111 0.4375 0.6388888 0.4375 0.6388888 0.4375 0.6388888 0.4375 0.6666666 0.4375 0.6666666 0.4375 0.6111111 0.4375 0.6388888 0.4375 0.6388888 0.2916666 0.5833333 0.2777777 0.6111111 0.2777777 0.5833333 0.2916666 0.6111111 0.2777777 0.6388888 0.2777777 0.6111111 0.4375 0.08333331 0.375 0.1111111 0.375 0.08333331 0.4375 0.1111111 0.375 0.1388888 0.375 0.1111111 0.4375 0.5833334 0.375 0.6111111 0.375 0.5833333 0.4375 0.6111111 0.375 0.6388888 0.375 0.6111111 0.4375 0.6111111 0.4375 0.6388888 0.4375 0.6388888 0.4375 0.6203703 0.4375 0.6296296 0.4375 0.6296296 0.4375 0.6388888 0.4375 0.6666666 0.4375 0.6666666 0.4375 0.6388888 0.4375 0.6666666 0.4375 0.6666666 0.2222222 0.6111111 0.2083333 0.6388888 0.2083333 0.6111111 0.2361111 0.6111111 0.2222222 0.6388888 0.2222222 0.6111111 0.2222222 0.5833333 0.2083333 0.6111111 0.2083333 0.5833333 0.2361111 0.5833333 0.2222222 0.6111111 0.2222222 0.5833333 0.4375 0.3333333 0.375 0.3472222 0.375 0.3333333 0.4375 0.3472222 0.375 0.3611111 0.375 0.3472222 0.2222222 0.6388888 0.2083333 0.6666666 0.2083333 0.6388888 0.2361111 0.6388888 0.2222222 0.6666666 0.2222222 0.6388888 0.2222222 0.5 0.2083333 0.5833333 0.2083333 0.5 0.2361111 0.5 0.2222222 0.5833333 0.2222222 0.5 0.2222222 0.6666666 0.2083333 0.75 0.2083333 0.6666666 0.2361111 0.6666667 0.2222222 0.75 0.2222222 0.6666666 0.46875 0.3333333 0.4375 0.3472222 0.4375 0.3333333 0.46875 0.3472222 0.4375 0.3611111 0.4375 0.3472222 0.4375 0.6666666 0.46875 0.6666666 0.46875 0.6666666 0.4375 0.6666666 0.46875 0.6666666 0.46875 0.6666666 0.46875 0.5833334 0.4375 0.5833334 0.4375 0.5833334 0.46875 0.5833334 0.4375 0.5833334 0.4375 0.5833334 0.4375 0.6111111 0.4375 0.5833334 0.4375 0.611111 0.4375 0.5833334 0.4375 0.6111111 0.4375 0.611111 0.46875 0.875 0.4375 0.8888888 0.4375 0.875 0.46875 0.8888888 0.4375 0.9027777 0.4375 0.8888888 0.5 0.375 0.5 0.3611111 0.5 0.3518518 0.5 0.3611111 0.5 0.3287037 0.5 0.3518518 0.5 0.375 0.5 0.3425925 0.5 0.3333333 0.5 0.3425925 0.5 0.2916666 0.5 0.3333333 0.4375 0.875 0.375 0.8888888 0.375 0.875 0.4375 0.8888888 0.375 0.9027777 0.375 0.8888888 0.2638889 0.6111111 0.25 0.6388888 0.25 0.6111111 0.2777777 0.6111111 0.2638889 0.6388888 0.2638889 0.6111111 0.2638889 0.5833333 0.25 0.6111111 0.25 0.5833333 0.2777777 0.5833333 0.2638889 0.6111111 0.2638889 0.5833333 0.4375 0.6111111 0.4375 0.6388888 0.4375 0.6388888 0.4375 0.6203703 0.4375001 0.6296296 0.4375001 0.6296296 0.4375 0.6388888 0.4375 0.6666666 0.4375 0.6666666 0.4375 0.6388888 0.4375 0.6666666 0.4375 0.6666666 0.4375 0.8333333 0.375 0.8472222 0.375 0.8333333 0.4375 0.8472222 0.375 0.8611112 0.375 0.8472222 0.5 0.4722222 0.5 0.4583333 0.5 0.5 0.5 0.4398148 0.5 0.4166666 0.5 0.4583333 0.5 0.4166666 0.5 0.4212962 0.5 0.4444444 0.5 0.4027778 0.5 0.3981481 0.5 0.4212962 0.46875 0.8333333 0.4375 0.8472222 0.4375 0.8333333 0.46875 0.8472221 0.4375 0.8611112 0.4375 0.8472222 0.4375 0.6666666 0.46875 0.6666666 0.46875 0.6666666 0.4375 0.6666666 0.46875 0.6666666 0.46875 0.6666666 0.46875 0.5833334 0.4375 0.5833334 0.4375 0.5833334 0.46875 0.5833334 0.4375 0.5833334 0.4375 0.5833334 0.4375 0.5833334 0.4375 0.6111111 0.4375 0.6111111 0.4375 0.5833334 0.4375 0.6111111 0.4375 0.6111111 0.46875 0.375 0.4375 0.3888889 0.4375 0.375 0.46875 0.3888889 0.4375 0.4027778 0.4375 0.3888889 0.2638889 0.6666666 0.25 0.75 0.25 0.6666666 0.2777777 0.6666666 0.2638889 0.75 0.2638889 0.6666666 0.2638889 0.5 0.25 0.5833333 0.25 0.5 0.2777777 0.5 0.2638889 0.5833333 0.2638889 0.5 0.2638889 0.6388888 0.25 0.6666666 0.25 0.6388888 0.2777777 0.6388888 0.2638889 0.6666666 0.2638889 0.6388888 0.4375 0.375 0.375 0.3888889 0.375 0.375 0.4375 0.3888889 0.375 0.4027777 0.375 0.3888889 0.4375 0.6296296 0.4375 0.6388888 0.4375 0.6296296 0.4375 0.6203703 0.4375 0.6111111 0.4375 0.6203703 0.4375 0.6296296 0.4375 0.611111 0.4375 0.6203703 0.4375 0.6203703 0.4375 0.6388888 0.4375 0.6296296 0.4375001 0.6296296 0.4375 0.6388888 0.4375001 0.6296296 0.4375 0.6203703 0.4375 0.6111111 0.4375 0.6203703 0.4375001 0.6296296 0.4375 0.6111111 0.4375 0.6203703 0.4375 0.6203703 0.4375 0.6388888 0.4375001 0.6296296 0.4375 0.6388888 0.4375 0.6666666 0.375 0.6666666 0.4375 0.5 0.4375 0.5833334 0.375 0.5833333 0.4375 0.1388888 0.4375 0.1666666 0.375 0.1666666 0.4375 0 0.4375 0.08333331 0.375 0.08333331 0.4375 0.1666666 0.4375 0.25 0.375 0.25 0.4375 0.6666666 0.4375 0.75 0.375 0.75 0.4375 0.9027777 0.4375 0.9166666 0.375 0.9166666 0.4375 0.4027778 0.4375 0.4166666 0.375 0.4166666 0.2916666 0.6388888 0.2916666 0.6666666 0.2777777 0.6666666 0.2916666 0.5 0.2916666 0.5833333 0.2777777 0.5833333 0.5 0.3101851 0.5 0.2777777 0.5 0.25 0.5 0.3472222 0.5 0.3333333 0.5 0.3055555 0.2916666 0.6666666 0.2916666 0.75 0.2777778 0.75 0.46875 0.9027777 0.46875 0.9166666 0.4375 0.9166666 0.46875 0.4027778 0.46875 0.4166666 0.4375 0.4166666 0.46875 0.5 0.46875 0.5833334 0.4375 0.5833334 0.46875 0 0.46875 0.08333331 0.4375 0.08333331 0.46875 0.1666666 0.46875 0.25 0.4375 0.25 0.46875 0.6666666 0.46875 0.75 0.4375 0.75 0.4375 0.5833334 0.4375 0.5833334 0.4375 0.6111111 0.46875 0.5833334 0.46875 0.5833334 0.4375 0.5833334 0.4375 0.6666666 0.4375 0.6666666 0.46875 0.6666666 0.4375 0.6111111 0.4375 0.5833334 0.4375 0.5833334 0.46875 0.5833334 0.46875 0.5833334 0.4375 0.5833334 0.4375 0.6666666 0.4375 0.6666666 0.46875 0.6666666 0.46875 0.3611111 0.46875 0.375 0.4375 0.375 0.46875 0.8611111 0.46875 0.875 0.4375 0.875 0.25 0.6666666 0.25 0.75 0.2361111 0.75 0.5 0.3981481 0.5 0.3888889 0.5 0.375 0.5 0.4166666 0.5 0.4074074 0.5 0.375 0.25 0.5 0.25 0.5833333 0.2361111 0.5833333 0.25 0.6388888 0.25 0.6666666 0.2361111 0.6666667 0.4375 0.3611111 0.4375 0.375 0.375 0.375 0.4375 0.8611112 0.4375 0.875 0.375 0.875 0.25 0.5833333 0.25 0.6111111 0.2361111 0.6111111 0.25 0.6111111 0.25 0.6388888 0.2361111 0.6388888 0.4375 0.6388888 0.4375 0.6388888 0.4375 0.6666666 0.4375 0.6111111 0.4375 0.6111111 0.4375 0.6388888 0.4375 0.6388888 0.4375 0.6388888 0.4375 0.6666666 0.4375 0.6111111 0.4375 0.6111111 0.4375 0.6388888 0.2916666 0.5833333 0.2916666 0.6111111 0.2777777 0.6111111 0.2916666 0.6111111 0.2916666 0.6388888 0.2777777 0.6388888 0.4375 0.08333331 0.4375 0.1111111 0.375 0.1111111 0.4375 0.1111111 0.4375 0.1388888 0.375 0.1388888 0.4375 0.5833334 0.4375 0.6111111 0.375 0.6111111 0.4375 0.6111111 0.4375 0.6388888 0.375 0.6388888 0.4375 0.6111111 0.4375 0.611111 0.4375 0.6388888 0.4375 0.6203703 0.4375 0.6203703 0.4375 0.6296296 0.4375 0.6388888 0.4375 0.6388888 0.4375 0.6666666 0.4375 0.6388888 0.4375 0.6388888 0.4375 0.6666666 0.2222222 0.6111111 0.2222222 0.6388888 0.2083333 0.6388888 0.2361111 0.6111111 0.2361111 0.6388888 0.2222222 0.6388888 0.2222222 0.5833333 0.2222222 0.6111111 0.2083333 0.6111111 0.2361111 0.5833333 0.2361111 0.6111111 0.2222222 0.6111111 0.4375 0.3333333 0.4375 0.3472222 0.375 0.3472222 0.4375 0.3472222 0.4375 0.3611111 0.375 0.3611111 0.2222222 0.6388888 0.2222222 0.6666666 0.2083333 0.6666666 0.2361111 0.6388888 0.2361111 0.6666667 0.2222222 0.6666666 0.2222222 0.5 0.2222222 0.5833333 0.2083333 0.5833333 0.2361111 0.5 0.2361111 0.5833333 0.2222222 0.5833333 0.2222222 0.6666666 0.2222222 0.75 0.2083333 0.75 0.2361111 0.6666667 0.2361111 0.75 0.2222222 0.75 0.46875 0.3333333 0.46875 0.3472222 0.4375 0.3472222 0.46875 0.3472222 0.46875 0.3611111 0.4375 0.3611111 0.4375 0.6666666 0.4375 0.6666666 0.46875 0.6666666 0.4375 0.6666666 0.4375 0.6666666 0.46875 0.6666666 0.46875 0.5833334 0.46875 0.5833334 0.4375 0.5833334 0.46875 0.5833334 0.46875 0.5833334 0.4375 0.5833334 0.4375 0.6111111 0.4375 0.5833334 0.4375 0.5833334 0.4375 0.5833334 0.4375 0.5833334 0.4375 0.6111111 0.46875 0.875 0.46875 0.8888888 0.4375 0.8888888 0.46875 0.8888888 0.46875 0.9027777 0.4375 0.9027777 0.5 0.375 0.5 0.375 0.5 0.3611111 0.5 0.3611111 0.5 0.3472222 0.5 0.3287037 0.5 0.375 0.5 0.375 0.5 0.3425925 0.5 0.3425925 0.5 0.3101851 0.5 0.2916666 0.4375 0.875 0.4375 0.8888888 0.375 0.8888888 0.4375 0.8888888 0.4375 0.9027777 0.375 0.9027777 0.2638889 0.6111111 0.2638889 0.6388888 0.25 0.6388888 0.2777777 0.6111111 0.2777777 0.6388888 0.2638889 0.6388888 0.2638889 0.5833333 0.2638889 0.6111111 0.25 0.6111111 0.2777777 0.5833333 0.2777777 0.6111111 0.2638889 0.6111111 0.4375 0.6111111 0.4375 0.6111111 0.4375 0.6388888 0.4375 0.6203703 0.4375 0.6203703 0.4375001 0.6296296 0.4375 0.6388888 0.4375 0.6388888 0.4375 0.6666666 0.4375 0.6388888 0.4375 0.6388888 0.4375 0.6666666 0.4375 0.8333333 0.4375 0.8472222 0.375 0.8472222 0.4375 0.8472222 0.4375 0.8611112 0.375 0.8611112 0.5 0.4722222 0.5 0.4398148 0.5 0.4583333 0.5 0.4398148 0.5 0.4074074 0.5 0.4166666 0.5 0.4166666 0.5 0.4027778 0.5 0.4212962 0.5 0.4027778 0.5 0.3888889 0.5 0.3981481 0.46875 0.8333333 0.46875 0.8472221 0.4375 0.8472222 0.46875 0.8472221 0.46875 0.8611111 0.4375 0.8611112 0.4375 0.6666666 0.4375 0.6666666 0.46875 0.6666666 0.4375 0.6666666 0.4375 0.6666666 0.46875 0.6666666 0.46875 0.5833334 0.46875 0.5833334 0.4375 0.5833334 0.46875 0.5833334 0.46875 0.5833334 0.4375 0.5833334 0.4375 0.5833334 0.4375 0.5833334 0.4375 0.6111111 0.4375 0.5833334 0.4375 0.5833334 0.4375 0.6111111 0.46875 0.375 0.46875 0.3888889 0.4375 0.3888889 0.46875 0.3888889 0.46875 0.4027778 0.4375 0.4027778 0.2638889 0.6666666 0.2638889 0.75 0.25 0.75 0.2777777 0.6666666 0.2777778 0.75 0.2638889 0.75 0.2638889 0.5 0.2638889 0.5833333 0.25 0.5833333 0.2777777 0.5 0.2777777 0.5833333 0.2638889 0.5833333 0.2638889 0.6388888 0.2638889 0.6666666 0.25 0.6666666 0.2777777 0.6388888 0.2777777 0.6666666 0.2638889 0.6666666 0.4375 0.375 0.4375 0.3888889 0.375 0.3888889 0.4375 0.3888889 0.4375 0.4027778 0.375 0.4027777 0.4375 0.6296296 0.4375 0.6388888 0.4375 0.6388888 0.4375 0.6203703 0.4375 0.611111 0.4375 0.6111111 0.4375 0.6296296 0.4375 0.6388888 0.4375 0.611111 0.4375 0.6203703 0.4375 0.6111111 0.4375 0.6388888 0.4375001 0.6296296 0.4375 0.6388888 0.4375 0.6388888 0.4375 0.6203703 0.4375 0.6111111 0.4375 0.6111111 0.4375001 0.6296296 0.4375 0.6388888 0.4375 0.6111111 0.4375 0.6203703 0.4375 0.6111111 0.4375 0.6388888</float_array>
          <technique_common>
            <accessor source="#Cube-mesh-map-0-array" count="708" stride="2">
              <param name="S" type="float"/>
              <param name="T" type="float"/>
            </accessor>
          </technique_common>
        </source>
        <vertices id="Cube-mesh-vertices">
          <input semantic="POSITION" source="#Cube-mesh-positions"/>
        </vertices>
        <triangles material="paintable-0-material" count="160">
          <input semantic="VERTEX" source="#Cube-mesh-vertices" offset="0"/>
          <input semantic="NORMAL" source="#Cube-mesh-normals" offset="1"/>
          <input semantic="TEXCOORD" source="#Cube-mesh-map-0" offset="2" set="0"/>
          <p>41 0 0 6 0 1 39 0 2 9 1 3 4 1 4 0 1 5 42 2 6 5 2 7 36 2 8 11 3 9 7 3 10 2 3 11 19 4 12 1 4 13 5 4 14 21 5 15 3 5 16 6 5 17 55 6 18 2 6 19 58 6 20 83 7 21 0 7 22 86 7 23 39 8 24 94 8 25 110 8 26 0 9 27 92 9 28 86 9 29 70 10 30 17 10 31 57 10 32 66 11 33 13 11 34 61 11 35 6 12 36 81 12 37 94 12 38 57 13 39 11 13 40 55 13 41 85 14 42 9 14 43 83 14 44 15 15 45 20 15 46 9 15 47 17 16 48 18 16 49 11 16 50 13 17 51 8 17 52 19 17 53 23 18 54 10 18 55 21 18 56 67 25 75 28 25 76 65 25 77 99 26 78 29 26 79 97 26 80 27 27 81 59 27 82 52 27 83 101 28 84 31 28 85 32 28 86 99 29 87 35 29 88 30 29 89 24 30 90 50 30 91 48 30 92 47 31 93 52 31 94 74 31 95 65 32 96 24 32 97 48 32 98 97 33 99 25 33 100 80 33 101 26 34 102 72 34 103 50 34 104 46 35 105 74 35 106 72 35 107 4 40 120 108 40 121 92 40 122 38 41 123 110 41 124 108 41 125 18 42 126 37 42 127 7 42 128 43 43 129 36 43 130 37 43 131 20 44 132 38 44 133 4 44 134 40 45 135 39 45 136 38 45 137 73 50 150 37 50 151 36 50 152 72 51 153 75 51 154 73 51 155 51 52 156 36 52 157 5 52 158 50 53 159 73 53 160 51 53 161 8 54 162 49 54 163 1 54 164 64 55 165 48 55 166 49 55 167 75 56 168 7 56 169 37 56 170 74 57 171 53 57 172 75 57 173 49 58 174 5 58 175 1 58 176 48 59 177 51 59 178 49 59 179 53 60 180 2 60 181 7 60 182 52 61 183 58 61 184 53 61 185 14 62 186 64 62 187 8 62 188 66 63 189 65 63 190 64 63 191 30 70 210 54 70 211 29 70 212 56 71 213 55 71 214 54 71 215 32 72 216 67 72 217 60 72 218 67 73 219 61 73 220 60 73 221 30 74 222 71 74 223 56 74 224 71 75 225 57 75 226 56 75 227 29 76 228 59 76 229 25 76 230 54 77 231 58 77 232 59 77 233 109 78 234 47 78 235 46 78 236 108 79 237 111 79 238 109 79 239 93 80 240 46 80 241 26 80 242 92 81 243 109 81 244 93 81 245 10 86 258 81 86 259 3 86 260 96 87 261 80 87 262 81 87 263 23 88 264 98 88 265 16 88 266 91 89 267 99 89 268 98 89 269 15 90 270 100 90 271 22 90 272 85 91 273 101 91 274 100 91 275 16 92 276 96 92 277 10 92 278 98 93 279 97 93 280 96 93 281 31 100 300 82 100 301 28 100 302 84 101 303 83 101 304 82 101 305 95 102 306 25 102 307 27 102 308 94 103 309 80 103 310 95 103 311 87 104 312 26 104 313 24 104 314 86 105 315 93 105 316 87 105 317 111 106 318 27 106 319 47 106 320 110 107 321 95 107 322 111 107 323 28 108 324 87 108 325 24 108 326 82 109 327 86 109 328 87 109 329 41 118 354 21 118 355 6 118 356 9 119 357 20 119 358 4 119 359 42 120 360 19 120 361 5 120 362 11 121 363 18 121 364 7 121 365 19 122 366 8 122 367 1 122 368 21 123 369 10 123 370 3 123 371 55 124 372 11 124 373 2 124 374 83 125 375 9 125 376 0 125 377 39 126 378 6 126 379 94 126 380 0 127 381 4 127 382 92 127 383 70 128 384 12 128 385 17 128 386 66 129 387 14 129 388 13 129 389 6 130 390 3 130 391 81 130 392 57 131 393 17 131 394 11 131 395 85 132 396 15 132 397 9 132 398 15 133 399 22 133 400 20 133 401 17 134 402 12 134 403 18 134 404 13 135 405 14 135 406 8 135 407 23 136 408 16 136 409 10 136 410 67 143 429 31 143 430 28 143 431 99 144 432 30 144 433 29 144 434 27 145 435 25 145 436 59 145 437 101 146 438 84 146 439 31 146 440 99 147 441 90 147 442 35 147 443 24 148 444 26 148 445 50 148 446 47 149 447 27 149 448 52 149 449 65 150 450 28 150 451 24 150 452 97 151 453 29 151 454 25 151 455 26 152 456 46 152 457 72 152 458 46 153 459 47 153 460 74 153 461 4 158 474 38 158 475 108 158 476 38 159 477 39 159 478 110 159 479 18 160 480 43 160 481 37 160 482 43 161 483 42 161 484 36 161 485 20 162 486 40 162 487 38 162 488 40 163 489 41 163 490 39 163 491 73 168 504 75 168 505 37 168 506 72 169 507 74 169 508 75 169 509 51 170 510 73 170 511 36 170 512 50 171 513 72 171 514 73 171 515 8 172 516 64 172 517 49 172 518 64 173 519 65 173 520 48 173 521 75 174 522 53 174 523 7 174 524 74 175 525 52 175 526 53 175 527 49 176 528 51 176 529 5 176 530 48 177 531 50 177 532 51 177 533 53 178 534 58 178 535 2 178 536 52 179 537 59 179 538 58 179 539 14 180 540 66 180 541 64 180 542 66 181 543 67 181 544 65 181 545 30 188 564 56 188 565 54 188 566 56 189 567 57 189 568 55 189 569 32 190 570 31 190 571 67 190 572 67 191 573 66 191 574 61 191 575 30 192 576 35 192 577 71 192 578 71 193 579 70 193 580 57 193 581 29 194 582 54 194 583 59 194 584 54 195 585 55 195 586 58 195 587 109 196 588 111 196 589 47 196 590 108 197 591 110 197 592 111 197 593 93 198 594 109 198 595 46 198 596 92 199 597 108 199 598 109 199 599 10 204 612 96 204 613 81 204 614 96 205 615 97 205 616 80 205 617 23 206 618 91 206 619 98 206 620 91 207 621 90 207 622 99 207 623 15 208 624 85 208 625 100 208 626 85 209 627 84 209 628 101 209 629 16 210 630 98 210 631 96 210 632 98 211 633 99 211 634 97 211 635 31 218 654 84 218 655 82 218 656 84 219 657 85 219 658 83 219 659 95 220 660 80 220 661 25 220 662 94 221 663 81 221 664 80 221 665 87 222 666 93 222 667 26 222 668 86 223 669 92 223 670 93 223 671 111 224 672 95 224 673 27 224 674 110 225 675 94 225 676 95 225 677 28 226 678 82 226 679 87 226 680 82 227 681 83 227 682 86 227 683</p>
        </triangles>
        <triangles material="lightgrey-material" count="20">
          <input semantic="VERTEX" source="#Cube-mesh-vertices" offset="0"/>
          <input semantic="NORMAL" source="#Cube-mesh-normals" offset="1"/>
          <input semantic="TEXCOORD" source="#Cube-mesh-map-0" offset="2" set="0"/>
          <p>78 47 141 77 47 142 76 47 143 106 83 249 105 83 250 104 83 251 77 110 330 112 110 331 76 110 332 78 111 333 115 111 334 79 111 335 76 112 336 114 112 337 78 112 338 79 113 339 113 113 340 77 113 341 105 114 342 116 114 343 104 114 344 106 115 345 119 115 346 107 115 347 104 116 348 118 116 349 106 116 350 107 117 351 117 117 352 105 117 353 78 165 495 79 165 496 77 165 497 106 201 603 107 201 604 105 201 605 77 228 684 113 228 685 112 228 686 78 229 687 114 229 688 115 229 689 76 230 690 112 230 691 114 230 692 79 231 693 115 231 694 113 231 695 105 232 696 117 232 697 116 232 698 106 233 699 118 233 700 119 233 701 104 234 702 116 234 703 118 234 704 107 235 705 119 235 706 117 235 707</p>
        </triangles>
        <triangles material="darkgrey-material" count="56">
          <input semantic="VERTEX" source="#Cube-mesh-vertices" offset="0"/>
          <input semantic="NORMAL" source="#Cube-mesh-normals" offset="1"/>
          <input semantic="TEXCOORD" source="#Cube-mesh-map-0" offset="2" set="0"/>
          <p>68 19 57 42 19 58 115 19 59 61 20 60 19 20 61 68 20 62 63 21 63 12 21 64 70 21 65 119 22 66 33 22 67 44 22 68 101 23 69 33 23 70 88 23 71 103 24 72 35 24 73 90 24 74 117 36 108 34 36 109 103 36 110 119 37 111 45 37 112 117 37 113 113 38 114 18 38 115 63 38 116 115 39 117 43 39 118 113 39 119 44 46 138 112 46 139 45 46 140 45 48 144 62 48 145 34 48 146 112 49 147 63 49 148 62 49 149 34 64 192 71 64 193 35 64 194 62 65 195 70 65 196 71 65 197 32 66 198 69 66 199 33 66 200 60 67 201 68 67 202 69 67 203 44 68 204 69 68 205 114 68 206 69 69 207 115 69 208 114 69 209 40 82 246 116 82 247 41 82 248 41 84 252 102 84 253 21 84 254 116 85 255 103 85 256 102 85 257 21 94 282 91 94 283 23 94 284 102 95 285 90 95 286 91 95 287 22 96 288 89 96 289 20 96 290 100 97 291 88 97 292 89 97 293 20 98 294 118 98 295 40 98 296 89 99 297 119 99 298 118 99 299 68 137 411 19 137 412 42 137 413 61 138 414 13 138 415 19 138 416 63 139 417 18 139 418 12 139 419 119 140 420 88 140 421 33 140 422 101 141 423 32 141 424 33 141 425 103 142 426 34 142 427 35 142 428 117 154 462 45 154 463 34 154 464 119 155 465 44 155 466 45 155 467 113 156 468 43 156 469 18 156 470 115 157 471 42 157 472 43 157 473 44 164 492 114 164 493 112 164 494 45 166 498 112 166 499 62 166 500 112 167 501 113 167 502 63 167 503 34 182 546 62 182 547 71 182 548 62 183 549 63 183 550 70 183 551 32 184 552 60 184 553 69 184 554 60 185 555 61 185 556 68 185 557 44 186 558 33 186 559 69 186 560 69 187 561 68 187 562 115 187 563 40 200 600 118 200 601 116 200 602 41 202 606 116 202 607 102 202 608 116 203 609 117 203 610 103 203 611 21 212 636 102 212 637 91 212 638 102 213 639 103 213 640 90 213 641 22 214 642 100 214 643 89 214 644 100 215 645 101 215 646 88 215 647 20 216 648 89 216 649 118 216 650 89 217 651 88 217 652 119 217 653</p>
        </triangles>
      </mesh>
    </geometry>
  </library_geometries>
  <library_visual_scenes>
    <visual_scene id="Scene" name="Scene">
      <node id="Cube" name="Cube" type="NODE">
        <matrix sid="transform">1 0 0 0 0 1 0 0 0 0 1 0 0 0 0 1</matrix>
        <instance_geometry url="#Cube-mesh" name="Cube">
          <bind_material>
            <technique_common>
              <instance_material symbol="paintable-0-material" target="#paintable-0-material">
                <bind_vertex_input semantic="UVMap" input_semantic="TEXCOORD" input_set="0"/>
              </instance_material>
              <instance_material symbol="paintable-1-material" target="#paintable-1-material">
                <bind_vertex_input semantic="UVMap" input_semantic="TEXCOORD" input_set="0"/>
              </instance_material>
              <instance_material symbol="lightgrey-material" target="#lightgrey-material">
                <bind_vertex_input semantic="UVMap" input_semantic="TEXCOORD" input_set="0"/>
              </instance_material>
              <instance_material symbol="darkgrey-material" target="#darkgrey-material">
                <bind_vertex_input semantic="UVMap" input_semantic="TEXCOORD" input_set="0"/>
              </instance_material>
              <instance_material symbol="MATERIALadditive-material" target="#MATERIALadditive-material">
                <bind_vertex_input semantic="UVMap" input_semantic="TEXCOORD" input_set="0"/>
              </instance_material>
              <instance_material symbol="MATERIALglass-material" target="#MATERIALglass-material">
                <bind_vertex_input semantic="UVMap" input_semantic="TEXCOORD" input_set="0"/>
              </instance_material>
            </technique_common>
          </bind_material>
        </instance_geometry>
      </node>
    </visual_scene>
  </library_visual_scenes>
  <scene>
    <instance_visual_scene url="#Scene"/>
  </scene>
</COLLADA>