<?xml version="1.0" encoding="utf-8"?>
<COLLADA xmlns="http://www.collada.org/2005/11/COLLADASchema" version="1.4.1" xmlns:xsi="http://www.w3.org/2001/XMLSchema-instance">
  <asset>
    <contributor>
      <author>Blender User</author>
      <authoring_tool>Blender 4.2.23 LTS commit date:2026-07-20, commit time:13:44, hash:d0cbe84903e8</authoring_tool>
    </contributor>
    <created>2026-08-03T22:13:14</created>
    <modified>2026-08-03T22:13:14</modified>
    <unit name="meter" meter="1"/>
    <up_axis>Z_UP</up_axis>
  </asset>
  <library_effects>
    <effect id="paintable-0-effect">
      <profile_COMMON>
        <technique sid="common">
          <lambert>
            <emission>
              <color sid="emission">0 0 0 1</color>
            </emission>
            <diffuse>
              <color sid="diffuse">1 0.4969335 0 1</color>
            </diffuse>
            <index_of_refraction>
              <float sid="ior">1.45</float>
            </index_of_refraction>
          </lambert>
        </technique>
      </profile_COMMON>
    </effect>
    <effect id="paintable-1-effect">
      <profile_COMMON>
        <technique sid="common">
          <lambert>
            <emission>
              <color sid="emission">0 0 0 1</color>
            </emission>
            <diffuse>
              <color sid="diffuse">0.6104922 0.4910214 0 1</color>
            </diffuse>
            <index_of_refraction>
              <float sid="ior">1.5</float>
            </index_of_refraction>
          </lambert>
        </technique>
      </profile_COMMON>
    </effect>
    <effect id="lightgrey-effect">
      <profile_COMMON>
        <technique sid="common">
          <lambert>
            <emission>
              <color sid="emission">0 0 0 1</color>
            </emission>
            <diffuse>
              <color sid="diffuse">0.7835327 0.7835385 0.7835382 1</color>
            </diffuse>
            <index_of_refraction>
              <float sid="ior">1.5</float>
            </index_of_refraction>
          </lambert>
        </technique>
      </profile_COMMON>
    </effect>
    <effect id="darkgrey-effect">
      <profile_COMMON>
        <technique sid="common">
          <lambert>
            <emission>
              <color sid="emission">0 0 0 1</color>
            </emission>
            <diffuse>
              <color sid="diffuse">0.3371614 0.3371639 0.3371637 1</color>
            </diffuse>
            <index_of_refraction>
              <float sid="ior">1.5</float>
            </index_of_refraction>
          </lambert>
        </technique>
      </profile_COMMON>
    </effect>
    <effect id="MATERIALadditive-effect">
      <profile_COMMON>
        <technique sid="common">
          <lambert>
            <emission>
              <color sid="emission">0 0 0 1</color>
            </emission>
            <diffuse>
              <color sid="diffuse">0.8 0.8 0.8 1</color>
            </diffuse>
            <index_of_refraction>
              <float sid="ior">1.5</float>
            </index_of_refraction>
          </lambert>
        </technique>
      </profile_COMMON>
    </effect>
    <effect id="MATERIALglass-effect">
      <profile_COMMON>
        <technique sid="common">
          <lambert>
            <emission>
              <color sid="emission">0 0 0 1</color>
            </emission>
            <diffuse>
              <color sid="diffuse">0.8 0.8 0.8 1</color>
            </diffuse>
            <index_of_refraction>
              <float sid="ior">1.5</float>
            </index_of_refraction>
          </lambert>
        </technique>
      </profile_COMMON>
    </effect>
  </library_effects>
  <library_images/>
  <library_materials>
    <material id="paintable-0-material" name="paintable-0">
      <instance_effect url="#paintable-0-effect"/>
    </material>
    <material id="paintable-1-material" name="paintable-1">
      <instance_effect url="#paintable-1-effect"/>
    </material>
    <material id="lightgrey-material" name="lightgrey">
      <instance_effect url="#lightgrey-effect"/>
    </material>
    <material id="darkgrey-material" name="darkgrey">
      <instance_effect url="#darkgrey-effect"/>
    </material>
    <material id="MATERIALadditive-material" name="MATERIALadditive">
      <instance_effect url="#MATERIALadditive-effect"/>
    </material>
    <material id="MATERIALglass-material" name="MATERIALglass">
      <instance_effect url="#MATERIALglass-effect"/>
    </material>
  </library_materials>
  <library_geometries>
    <geometry id="Cube-mesh" name="Cube">
      <mesh>
        <source id="Cube-mesh-positions">
          <float_array id="Cube-mesh-positions-array" count="1008">0.25 -0.02499997 -0.125 0.25 0.02499997 -0.125 0.25 -0.03499996 -0.125 0.25 0.03499996 -0.125 0.375 -0.02499997 -0.055 0.375 0.02499997 -0.055 0.375 -0.02499997 -0.07499998 0.375 0.02499997 -0.07499998 0.375 -0.03499996 -0.055 0.375 0.03499996 -0.055 0.375 -0.03499996 -0.07499998 0.375 0.03499996 -0.07499998 0 0.03499996 -0.125 0 -0.03499996 -0.125 0 0.02499997 -0.125 0 -0.02499997 -0.125 0 0.03499996 -0.07499998 0 -0.03499996 -0.07499998 0 -0.03499996 -0.055 0 0.03499996 -0.055 0 0.02499997 -0.055 0 0.02499997 -0.07499998 0 -0.02499997 -0.07499998 0 -0.02499997 -0.055 0.375 -0.02499997 -0.125 0.375 0.02499997 -0.125 0.375 -0.03499996 -0.125 0.375 0.03499996 -0.125 0 0.01499998 -0.07499998 0 -0.01499998 -0.07499998 0 0.01499998 -0.125 0 -0.01499998 -0.125 -0.00999999 0.03499996 -0.125 -0.115 0.03499996 -0.125 -0.00999999 0.02499997 -0.125 -0.115 0.02499997 -0.125 -0.00999999 -0.02499997 -0.125 -0.115 -0.02499997 -0.125 -0.00999999 -0.03499996 -0.07499998 -0.115 -0.03499996 -0.07499998 -0.00999999 -0.03499996 -0.055 -0.115 -0.03499996 -0.055 -0.115 -0.03499996 -0.125 -0.00999999 -0.03499996 -0.125 -0.00999999 0.02499997 -0.055 -0.115 0.02499997 -0.055 -0.00999999 -0.02499997 -0.07499998 -0.115 -0.02499997 -0.07499998 -0.115 0.03499996 -0.07499998 -0.00999999 0.03499996 -0.07499998 -0.115 0.03499996 -0.055 -0.00999999 0.03499996 -0.055 -0.115 0.02499997 -0.07499998 -0.00999999 0.02499997 -0.07499998 -0.115 -0.02499997 -0.055 -0.00999999 -0.02499997 -0.055 -0.00999999 0.01499998 -0.125 -0.115 0.01499998 -0.125 -0.00999999 -0.01499998 -0.125 -0.115 -0.01499998 -0.125 -0.01999998 -0.004999995 -0.08499997 -0.105 -0.004999995 -0.08499997 -0.01999998 0.004999995 -0.08499997 -0.105 0.004999995 -0.08499997 0.00999999 -0.03499996 -0.125 0.115 -0.03499996 -0.125 0.00999999 0.03499996 -0.07499998 0.115 0.03499996 -0.07499998 0.00999999 0.03499996 -0.055 0.115 0.03499996 -0.055 0.115 0.03499996 -0.125 0.00999999 0.03499996 -0.125 0.00999999 0.02499997 -0.07499998 0.115 0.02499997 -0.07499998 0.00999999 -0.02499997 -0.055 0.115 -0.02499997 -0.055 0.115 0.02499997 -0.125 0.00999999 0.02499997 -0.125 0.115 -0.02499997 -0.125 0.00999999 -0.02499997 -0.125 0.115 -0.03499996 -0.07499998 0.00999999 -0.03499996 -0.07499998 0.115 -0.03499996 -0.055 0.00999999 -0.03499996 -0.055 0.115 0.02499997 -0.055 0.00999999 0.02499997 -0.055 0.115 -0.02499997 -0.07499998 0.00999999 -0.02499997 -0.07499998 0.105 -0.004999995 -0.08499997 0.01999998 -0.004999995 -0.08499997 0.105 0.004999995 -0.08499997 0.01999998 0.004999995 -0.08499997 0.115 0.01499998 -0.125 0.00999999 0.01499998 -0.125 0.115 -0.01499998 -0.125 0.00999999 -0.01499998 -0.125 -0.00999999 -0.01499998 -0.07499998 -0.115 -0.01499998 -0.07499998 -0.00999999 0.01499998 -0.07499998 -0.115 0.01499998 -0.07499998 0.115 -0.01499998 -0.07499998 0.00999999 -0.01499998 -0.07499998 0.115 0.01499998 -0.07499998 0.00999999 0.01499998 -0.07499998 -0.125 0.03499996 -0.125 -0.375 0.03499996 -0.125 -0.375 -0.03499996 -0.125 -0.125 -0.03499996 -0.125 -0.125 0.02499997 -0.125 -0.375 0.02499997 -0.125 -0.125 -0.02499997 -0.125 -0.375 -0.02499997 -0.125 -0.375 0.03499996 -0.07499998 -0.125 0.03499996 -0.07499998 -0.125 -0.03499996 -0.07499998 -0.375 -0.03499996 -0.07499998 -0.375 -0.02499997 -0.055 -0.375 0.02499997 -0.055 -0.375 0.03499996 -0.055 -0.125 0.03499996 -0.055 -0.125 -0.03499996 -0.055 -0.375 -0.03499996 -0.055 -0.375 -0.02499997 -0.07499998 -0.375 0.02499997 -0.07499998 -0.125 0.02499997 -0.07499998 -0.125 -0.02499997 -0.07499998 -0.125 0.02499997 -0.055 -0.125 -0.02499997 -0.055 -0.25 0.03499996 -0.125 -0.25 -0.03499996 -0.125 -0.25 0.02499997 -0.125 -0.25 -0.02499997 -0.125 -0.25 0.03499996 -0.07499998 -0.25 -0.03499996 -0.07499998 -0.25 -0.03499996 -0.055 -0.25 0.03499996 -0.055 -0.25 0.02499997 -0.055 -0.25 0.02499997 -0.07499998 -0.25 -0.02499997 -0.07499998 -0.25 -0.02499997 -0.055 -0.375 0.01499998 -0.125 -0.375 -0.01499998 -0.125 -0.125 0.01499998 -0.125 -0.125 -0.01499998 -0.125 -0.125 0.01499998 -0.07499998 -0.125 -0.01499998 -0.07499998 -0.375 0.01499998 -0.07499998 -0.375 -0.01499998 -0.07499998 -0.25 0.01499998 -0.07499998 -0.25 -0.01499998 -0.07499998 -0.25 0.01499998 -0.125 -0.25 -0.01499998 -0.125 -0.26 0.03499996 -0.125 -0.365 0.03499996 -0.125 -0.26 0.02499997 -0.125 -0.365 0.02499997 -0.125 -0.26 -0.02499997 -0.125 -0.365 -0.02499997 -0.125 -0.26 -0.03499996 -0.07499998 -0.365 -0.03499996 -0.07499998 -0.26 -0.03499996 -0.055 -0.365 -0.03499996 -0.055 -0.365 -0.03499996 -0.125 -0.26 -0.03499996 -0.125 -0.26 0.02499997 -0.055 -0.365 0.02499997 -0.055 -0.26 -0.02499997 -0.07499998 -0.365 -0.02499997 -0.07499998 -0.365 0.03499996 -0.07499998 -0.26 0.03499996 -0.07499998 -0.365 0.03499996 -0.055 -0.26 0.03499996 -0.055 -0.365 0.02499997 -0.07499998 -0.26 0.02499997 -0.07499998 -0.365 -0.02499997 -0.055 -0.26 -0.02499997 -0.055 -0.26 0.01499998 -0.125 -0.365 0.01499998 -0.125 -0.26 -0.01499998 -0.125 -0.365 -0.01499998 -0.125 -0.27 -0.004999995 -0.08499997 -0.355 -0.004999995 -0.08499997 -0.27 0.004999995 -0.08499997 -0.355 0.004999995 -0.08499997 -0.24 -0.03499996 -0.125 -0.1349999 -0.03499996 -0.125 -0.24 0.03499996 -0.07499998 -0.1349999 0.03499996 -0.07499998 -0.24 0.03499996 -0.055 -0.1349999 0.03499996 -0.055 -0.1349999 0.03499996 -0.125 -0.24 0.03499996 -0.125 -0.24 0.02499997 -0.07499998 -0.1349999 0.02499997 -0.07499998 -0.24 -0.02499997 -0.055 -0.1349999 -0.02499997 -0.055 -0.1349999 0.02499997 -0.125 -0.24 0.02499997 -0.125 -0.1349999 -0.02499997 -0.125 -0.24 -0.02499997 -0.125 -0.1349999 -0.03499996 -0.07499998 -0.24 -0.03499996 -0.07499998 -0.1349999 -0.03499996 -0.055 -0.24 -0.03499996 -0.055 -0.1349999 0.02499997 -0.055 -0.24 0.02499997 -0.055 -0.1349999 -0.02499997 -0.07499998 -0.24 -0.02499997 -0.07499998 -0.145 -0.004999995 -0.08499997 -0.23 -0.004999995 -0.08499997 -0.145 0.004999995 -0.08499997 -0.23 0.004999995 -0.08499997 -0.1349999 0.01499998 -0.125 -0.24 0.01499998 -0.125 -0.1349999 -0.01499998 -0.125 -0.24 -0.01499998 -0.125 -0.26 -0.01499998 -0.07499998 -0.365 -0.01499998 -0.07499998 -0.26 0.01499998 -0.07499998 -0.365 0.01499998 -0.07499998 -0.1349999 -0.01499998 -0.07499998 -0.24 -0.01499998 -0.07499998 -0.1349999 0.01499998 -0.07499998 -0.24 0.01499998 -0.07499998 0.25 0.03499996 -0.07499998 0.25 -0.03499996 -0.07499998 0.25 -0.03499996 -0.055 0.25 0.03499996 -0.055 0.25 0.02499997 -0.055 0.25 0.02499997 -0.07499998 0.25 -0.02499997 -0.07499998 0.25 -0.02499997 -0.055 0.375 0.01499998 -0.125 0.375 -0.01499998 -0.125 0.375 0.01499998 -0.07499998 0.375 -0.01499998 -0.07499998 0.25 0.01499998 -0.07499998 0.25 -0.01499998 -0.07499998 0.25 0.01499998 -0.125 0.25 -0.01499998 -0.125 0.24 0.03499996 -0.125 0.1349999 0.03499996 -0.125 0.24 0.02499997 -0.125 0.1349999 0.02499997 -0.125 0.24 -0.02499997 -0.125 0.1349999 -0.02499997 -0.125 0.24 -0.03499996 -0.07499998 0.1349999 -0.03499996 -0.07499998 0.24 -0.03499996 -0.055 0.1349999 -0.03499996 -0.055 0.1349999 -0.03499996 -0.125 0.24 -0.03499996 -0.125 0.24 0.02499997 -0.055 0.1349999 0.02499997 -0.055 0.24 -0.02499997 -0.07499998 0.1349999 -0.02499997 -0.07499998 0.1349999 0.03499996 -0.07499998 0.24 0.03499996 -0.07499998 0.1349999 0.03499996 -0.055 0.24 0.03499996 -0.055 0.1349999 0.02499997 -0.07499998 0.24 0.02499997 -0.07499998 0.1349999 -0.02499997 -0.055 0.24 -0.02499997 -0.055 0.24 0.01499998 -0.125 0.1349999 0.01499998 -0.125 0.24 -0.01499998 -0.125 0.1349999 -0.01499998 -0.125 0.23 -0.004999995 -0.08499997 0.1449999 -0.004999995 -0.08499997 0.23 0.004999995 -0.08499997 0.1449999 0.004999995 -0.08499997 0.26 -0.03499996 -0.125 0.365 -0.03499996 -0.125 0.26 0.03499996 -0.07499998 0.365 0.03499996 -0.07499998 0.26 0.03499996 -0.055 0.365 0.03499996 -0.055 0.365 0.03499996 -0.125 0.26 0.03499996 -0.125 0.26 0.02499997 -0.07499998 0.365 0.02499997 -0.07499998 0.26 -0.02499997 -0.055 0.365 -0.02499997 -0.055 0.365 0.02499997 -0.125 0.26 0.02499997 -0.125 0.365 -0.02499997 -0.125 0.26 -0.02499997 -0.125 0.365 -0.03499996 -0.07499998 0.26 -0.03499996 -0.07499998 0.365 -0.03499996 -0.055 0.26 -0.03499996 -0.055 0.365 0.02499997 -0.055 0.26 0.02499997 -0.055 0.365 -0.02499997 -0.07499998 0.26 -0.02499997 -0.07499998 0.355 -0.004999995 -0.08499997 0.27 -0.004999995 -0.08499997 0.355 0.004999995 -0.08499997 0.27 0.004999995 -0.08499997 0.365 0.01499998 -0.125 0.26 0.01499998 -0.125 0.365 -0.01499998 -0.125 0.26 -0.01499998 -0.125 0.24 -0.01499998 -0.07499998 0.1349999 -0.01499998 -0.07499998 0.24 0.01499998 -0.07499998 0.1349999 0.01499998 -0.07499998 0.365 -0.01499998 -0.07499998 0.26 -0.01499998 -0.07499998 0.365 0.01499998 -0.07499998 0.26 0.01499998 -0.07499998 0.125 0.03499996 -0.125 0.125 -0.03499996 -0.125 0.125 0.02499997 -0.125 0.125 -0.02499997 -0.125 0.125 0.03499996 -0.07499998 0.125 -0.03499996 -0.07499998 0.125 0.03499996 -0.055 0.125 -0.03499996 -0.055 0.125 0.02499997 -0.07499998 0.125 -0.02499997 -0.07499998 0.125 0.02499997 -0.055 0.125 -0.02499997 -0.055 0.125 0.01499998 -0.125 0.125 -0.01499998 -0.125 0.125 0.01499998 -0.07499998 0.125 -0.01499998 -0.07499998 0.375 0.125 -0.07499998 0.375 0.125 -0.125 0.365 0.125 -0.07499998 -0.365 0.125 -0.125 -0.375 0.125 -0.125 -0.375 0.125 -0.07499998 -0.365 0.125 -0.07499998 0.365 0.125 -0.125</float_array>
          <technique_common>
            <accessor source="#Cube-mesh-positions-array" count="336" stride="3">
              <param name="X" type="float"/>
              <param name="Y" type="float"/>
              <param name="Z" type="float"/>
            </accessor>
          </technique_common>
        </source>
        <source id="Cube-mesh-normals">
          <float_array id="Cube-mesh-normals-array" count="2088">0 0 -1 0 0 -1 0 0 -1 0 -1 0 0 1 0 0 0 -1 0 0 -1 0 0 1 0 0 1 0 0 -1 0 -1 0 0 1 0 0 -1 0 1 0 0 0 0 1 0 -1 0 0 1 0 0 0 1 0 -1 0 0 1 0 0 1 0 0 -1 0 0 0 -1 0 0 1 0 0 1 0 0 -1 0 0 -1 0 1 0 0 -1 0 0 0 -1 0 0 -1 0 0 1 0 0 1 0 0 1 0 0 1 0 0 -1 0 0 -1 1 0 0 1 0 0 0 0 1 0 0 1 0 0 1 0 0 1 0 0 -1 0 0 -1 0 0 -1 0 0 -1 0 1 0 0 1 0 0 0 -1 0 0 -1 0 0 -1 0 0 -1 0 0 -1 0 0 -1 0 1 0 0 1 0 0 1 0 0 1 0 0 -1 0 0 -1 0 0 0 1 0 0 1 0 -1 0 0 -1 0 0 0 1 0 0 1 0 0 1 0 0 1 0 -1 0 0 -1 0 0 0 -1 0 0 -1 0 0 -1 0 0 -1 0 0 1 0 0 1 0 0 1 0 0 1 0 -1 0 0 -1 0 0 0 1 0 0 1 0 0 1 0 0 1 0 -1 0 0 -1 0 0 1 0 0 1 0 0 -1 0 0 -1 0 0 0 1 0 0 1 0 1 0 0 1 0 0 0 -1 0 0 -1 0 0 -1 0 0 -1 0 0 -1 0 0 -1 0 1 0 0 1 0 0 0.7071068 0.7071068 0 -0.7071068 0.7071068 -0.7071068 0 0.7071068 0.7071068 0 0.7071068 0 0.7071068 0.7071068 0 -0.7071068 0.7071068 -0.7071068 0 0.7071068 0.7071068 0 0.7071068 1 0 0 1 0 0 -1 0 0 -1 0 0 -1 0 0 1 0 0 0 -1 0 0 1 0 0 0 -1 0 0 -1 0 0 1 0 0 1 0 0 -1 0 -1 0 0 1 0 1 0 0 -1 0 0 -1 0 0 1 0 0 0 0 1 0 -1 0 0 1 0 0 0 1 0 -1 0 0 1 0 0 1 0 0 -1 0 0 0 -1 0 0 1 0 0 1 0 0 -1 0 0 -1 0 1 0 0 -1 0 0 0 -1 0 0 -1 0 0 1 0 0 1 0 0 1 0 0 1 0 0 -1 0 0 -1 -1 0 0 -1 0 0 1 0 0 1 0 0 0 0 1 0 0 1 0 0 1 0 0 1 0 0 -1 0 0 -1 0 0 -1 0 0 -1 -1 0 0 0 1 0 0 0 -1 0 0 -1 0 0 -1 0 0 -1 0 0 -1 0 0 -1 0 1 0 0 1 0 0 1 0 0 1 0 0 -1 0 0 -1 0 0 0 1 0 0 1 0 -1 0 0 -1 0 0 0 1 0 0 1 0 0 1 0 0 1 0 -1 0 0 -1 0 0 0 -1 0 0 -1 0 0 -1 0 0 -1 0 0 1 0 0 1 0 0 1 0 0 1 0 -1 0 0 -1 0 0 0 1 0 0 1 0 0 1 0 0 1 0 -1 0 0 -1 0 0 1 0 0 1 0 0 -1 0 0 -1 0 0 0 1 0 0 1 0 1 0 0 1 0 0 0 -1 0 0 -1 0 0 -1 0 0 -1 0 0 -1 0 0 -1 0 1 0 0 1 0 0 0.7071068 0.7071068 0 -0.7071068 0.7071068 -0.707106 0 0.7071076 0.7071071 0 0.7071065 0 0.7071067 0.7071068 0 -0.7071068 0.7071068 -0.7071065 0 0.7071071 0.707106 0 0.7071076 0 0 1 0 0 1 0 0 -1 0 -1 0 0 1 0 1 0 0 1 0 0 0 0 1 0 -1 0 0 1 0 0 0 1 0 -1 0 0 1 0 0 1 0 0 -1 0 0 0 -1 0 0 1 0 0 1 0 0 -1 0 0 -1 0 1 0 0 -1 0 0 0 -1 0 0 -1 0 0 1 0 0 1 0 0 1 0 0 1 0 0 -1 0 0 -1 1 0 0 1 0 0 0 0 1 0 0 1 0 0 1 0 0 1 0 0 -1 0 0 -1 0 0 -1 0 0 -1 0 1 0 0 1 0 0 0 -1 0 0 -1 0 0 -1 0 0 -1 0 0 -1 0 0 -1 0 1 0 0 1 0 0 1 0 0 1 0 0 -1 0 0 -1 0 0 0 1 0 0 1 0 -1 0 0 -1 0 0 0 1 0 0 1 0 0 1 0 0 1 0 -1 0 0 -1 0 0 0 -1 0 0 -1 0 0 -1 0 0 -1 0 0 1 0 0 1 0 0 1 0 0 1 0 -1 0 0 -1 0 0 0 1 0 0 1 0 0 1 0 0 1 0 -1 0 0 -1 0 0 1 0 0 1 0 0 -1 0 0 -1 0 0 0 1 0 0 1 0 1 0 0 1 0 0 0 -1 0 0 -1 0 0 -1 0 0 -1 0 0 -1 0 0 -1 0 1 0 0 1 0 0 0.7071068 0.7071068 0 -0.7071068 0.7071068 -0.707106 0 0.7071076 0.7071071 0 0.7071065 0 0.7071067 0.7071068 0 -0.7071067 0.7071068 -0.7071071 0 0.7071065 0.7071071 0 0.7071065 1 0 0 1 0 0 1 0 0 1 0 0 1 0 0 1 0 0 1 0 0 0 1 0 0 1 0 0 0 1 -1 0 0 1 0 0 1 0 0 0 0 -1 0 0 1 0 0 -1 0 0 -1 0 0 -1 0 -1 0 0 1 0 0 0 -1 0 0 -1 0 0 1 0 0 1 0 0 -1 0 -1 0 0 1 0 0 -1 0 1 0 0 0 0 1 0 -1 0 0 1 0 0 0 1 0 -1 0 0 1 0 0 1 0 0 -1 0 0 0 -1 0 0 1 0 0 1 0 0 -1 0 0 -1 0 1 0 0 -1 0 0 0 -1 0 0 -1 0 0 1 0 0 1 0 0 1 0 0 1 0 0 -1 0 0 -1 1 0 0 1 0 0 0 0 1 0 0 1 0 0 1 0 0 1 0 0 -1 0 0 -1 0 0 -1 0 0 -1 0 1 0 0 1 0 0 0 -1 0 0 -1 0 0 -1 0 0 -1 0 0 -1 0 0 -1 0 1 0 0 1 0 0 1 0 0 1 0 0 -1 0 0 -1 0 0 0 1 0 0 1 0 -1 0 0 -1 0 0 0 1 0 0 1 0 0 1 0 0 1 0 -1 0 0 -1 0 0 0 -1 0 0 -1 0 0 -1 0 0 -1 0 0 1 0 0 1 0 0 1 0 0 1 0 -1 0 0 -1 0 0 0 1 0 0 1 0 0 1 0 0 1 0 -1 0 0 -1 0 0 1 0 0 1 0 0 -1 0 0 -1 0 0 0 1 0 0 1 0 1 0 0 1 0 0 0 -1 0 0 -1 0 0 -1 0 0 -1 0 0 -1 0 0 -1 0 1 0 0 1 0 0 0.7071068 0.7071068 0 -0.7071068 0.7071068 -0.7071068 0 0.7071068 0.7071068 0 0.7071068 0 0.7071067 0.7071068 0 -0.7071067 0.7071068 -0.7071068 0 0.7071068 0.7071068 0 0.7071068 1 0 0 1 0 0 -1 0 0 -1 0 0 -1 0 0 1 0 0 0 -1 0 0 1 0 0 0 -1 0 0 -1 0 0 1 0 0 1 0 0 -1 0 -1 0 0 1 0 1 0 0 -1 0 0 -1 0 0 1 0 0 0 0 1 0 -1 0 0 1 0 0 0 1 0 -1 0 0 1 0 0 1 0 0 -1 0 0 0 -1 0 0 1 0 0 1 0 0 -1 0 0 -1 0 1 0 0 -1 0 0 0 -1 0 0 -1 0 0 1 0 0 1 0 0 1 0 0 1 0 0 -1 0 0 -1 -1 0 0 -1 0 0 1 0 0 1 0 0 0 0 1 0 0 1 0 0 1 0 0 1 0 0 -1 0 0 -1 0 0 -1 0 0 -1 -1 0 0 0 1 0 0 0 -1 0 0 -1 0 0 -1 0 0 -1 0 0 -1 0 0 -1 0 1 0 0 1 0 0 1 0 0 1 0 0 -1 0 0 -1 0 0 0 1 0 0 1 0 -1 0 0 -1 0 0 0 1 0 0 1 0 0 1 0 0 1 0 -1 0 0 -1 0 0 0 -1 0 0 -1 0 0 -1 0 0 -1 0 0 1 0 0 1 0 0 1 0 0 1 0 -1 0 0 -1 0 0 0 1 0 0 1 0 0 1 0 0 1 0 -1 0 0 -1 0 0 1 0 0 1 0 0 -1 0 0 -1 0 0 0 1 0 0 1 0 1 0 0 1 0 0 0 -1 0 0 -1 0 0 -1 0 0 -1 0 0 -1 0 0 -1 0 1 0 0 1 0 0 0.7071068 0.7071068 0 -0.7071068 0.7071068 -0.707106 0 0.7071076 0.7071071 0 0.7071065 0 0.7071068 0.7071068 0 -0.7071068 0.7071068 -0.7071065 0 0.707107 0.707106 0 0.7071076 0 0 1 0 0 1 0 0 -1 0 -1 0 0 1 0 1 0 0 1 0 0 0 0 1 0 -1 0 0 1 0 0 0 1 0 -1 0 0 1 0 0 1 0 0 -1 0 0 0 -1 0 0 1 0 0 1 0 0 -1 0 0 -1 0 1 0 0 -1 0 0 0 -1 0 0 -1 0 0 1 0 0 1 0 0 1 0 0 1 0 0 -1 0 0 -1 1 0 0 1 0 0 0 0 1 0 0 1 0 0 1 0 0 1 0 0 -1 0 0 -1 0 0 -1 0 0 -1 0 1 0 0 1 0 0 0 -1 0 0 -1 0 0 -1 0 0 -1 0 0 -1 0 0 -1 0 1 0 0 1 0 0 1 0 0 1 0 0 -1 0 0 -1 0 0 0 1 0 0 1 0 -1 0 0 -1 0 0 0 1 0 0 1 0 0 1 0 0 1 0 -1 0 0 -1 0 0 0 -1 0 0 -1 0 0 -1 0 0 -1 0 0 1 0 0 1 0 0 1 0 0 1 0 -1 0 0 -1 0 0 0 1 0 0 1 0 0 1 0 0 1 0 -1 0 0 -1 0 0 1 0 0 1 0 0 -1 0 0 -1 0 0 0 1 0 0 1 0 1 0 0 1 0 0 0 -1 0 0 -1 0 0 -1 0 0 -1 0 0 -1 0 0 -1 0 1 0 0 1 0 0 0.7071068 0.7071068 0 -0.7071068 0.7071068 -0.707106 0 0.7071076 0.7071071 0 0.7071065 0 0.7071068 0.7071068 0 -0.7071068 0.7071068 -0.7071071 0 0.7071065 0.7071071 0 0.7071065 1 0 0 1 0 0 1 0 0 1 0 0 1 0 0 1 0 0 1 0 0 0 1 0 0 1 0 0 0 1 -1 0 0 1 0 0 1 0 0 0 0 -1 0 0 1</float_array>
          <technique_common>
            <accessor source="#Cube-mesh-normals-array" count="696" stride="3">
              <param name="X" type="float"/>
              <param name="Y" type="float"/>
              <param name="Z" type="float"/>
            </accessor>
          </technique_common>
        </source>
        <source id="Cube-mesh-map-0">
          <float_array id="Cube-mesh-map-0-array" count="4176">0.2916666 0.5 0.2777777 0.5833333 0.2777777 0.5 0.2916666 0.6388888 0.2777777 0.6666666 0.2777777 0.6388888 0.2777777 0.5 0.2916666 0.5 0.2916666 0.5 0.4375 0.9027777 0.375 0.9166666 0.375 0.9027777 0.4375 0.4027778 0.375 0.4166666 0.375 0.4027777 0.2916666 0.6388888 0.2777777 0.6666666 0.2777777 0.6388888 0.2916666 0.5 0.2777777 0.5833333 0.2777777 0.5 0.5 0.3101851 0.5 0.25 0.5 0.2916666 0.5 0.3472222 0.5 0.3055555 0.5 0.3287037 0.2916666 0.6666666 0.2777778 0.75 0.2777777 0.6666666 0.46875 0.9027777 0.4375 0.9166666 0.4375 0.9027777 0.46875 0.4027778 0.4375 0.4166666 0.4375 0.4027778 0.4375 0.9027777 0.375 0.9166666 0.375 0.9027777 0.4375 0.6666666 0.375 0.75 0.375 0.6666666 0.4375 0.5833334 0.4375 0.6111111 0.4375 0.6111111 0.46875 0.5833334 0.4375 0.5833334 0.4375 0.5833334 0.4375 0.6666666 0.46875 0.6666666 0.46875 0.6666666 0.4375 0.6111111 0.4375 0.5833334 0.4375 0.6111111 0.46875 0.5833334 0.4375 0.5833334 0.4375 0.5833334 0.4375 0.6666666 0.46875 0.6666666 0.46875 0.6666666 0.46875 0.3611111 0.4375 0.375 0.4375 0.3611111 0.46875 0.8611111 0.4375 0.875 0.4375 0.8611112 0.25 0.6666666 0.2361111 0.75 0.2361111 0.6666667 0.5 0.3981481 0.5 0.375 0.5 0.375 0.5 0.4166666 0.5 0.375 0.5 0.375 0.25 0.5 0.2361111 0.5833333 0.2361111 0.5 0.25 0.6388888 0.2361111 0.6666667 0.2361111 0.6388888 0.4375 0.3611111 0.375 0.375 0.375 0.3611111 0.4375 0.8611112 0.375 0.875 0.375 0.8611112 0.25 0.5833333 0.2361111 0.6111111 0.2361111 0.5833333 0.25 0.6111111 0.2361111 0.6388888 0.2361111 0.6111111 0.4375 0.6388888 0.4375 0.6666666 0.4375 0.6666666 0.4375 0.6111111 0.4375 0.6388888 0.4375 0.6388888 0.4375 0.6388888 0.4375 0.6666666 0.4375 0.6666666 0.4375 0.6111111 0.4375 0.6388888 0.4375 0.6388888 0.2916666 0.5833333 0.2777777 0.6111111 0.2777777 0.5833333 0.2916666 0.6111111 0.2777777 0.6388888 0.2777777 0.6111111 0.4375 0.5 0.375 0.5833333 0.375 0.5 0.4375 0.6388888 0.375 0.6666666 0.375 0.6388888 0.4375 0.6111111 0.4375 0.6388888 0.4375 0.6388888 0.4375 0.6203703 0.4375 0.6296296 0.4375 0.6296296 0.4375 0.6388888 0.4375 0.6666666 0.4375 0.6666666 0.4375 0.6388888 0.4375 0.6666666 0.4375 0.6666666 0.2222222 0.6111111 0.2083333 0.6388888 0.2083333 0.6111111 0.2361111 0.6111111 0.2222222 0.6388888 0.2222222 0.6111111 0.2222222 0.5833333 0.2083333 0.6111111 0.2083333 0.5833333 0.2361111 0.5833333 0.2222222 0.6111111 0.2222222 0.5833333 0.4375 0.3333333 0.375 0.3472222 0.375 0.3333333 0.4375 0.3472222 0.375 0.3611111 0.375 0.3472222 0.2222222 0.6388888 0.2083333 0.6666666 0.2083333 0.6388888 0.2361111 0.6388888 0.2222222 0.6666666 0.2222222 0.6388888 0.2222222 0.5 0.2083333 0.5833333 0.2083333 0.5 0.2361111 0.5 0.2222222 0.5833333 0.2222222 0.5 0.2222222 0.6666666 0.2083333 0.75 0.2083333 0.6666666 0.2361111 0.6666667 0.2222222 0.75 0.2222222 0.6666666 0.46875 0.3333333 0.4375 0.3472222 0.4375 0.3333333 0.46875 0.3472222 0.4375 0.3611111 0.4375 0.3472222 0.4375 0.6666666 0.46875 0.6666666 0.46875 0.6666666 0.4375 0.6666666 0.46875 0.6666666 0.46875 0.6666666 0.46875 0.5833334 0.4375 0.5833334 0.4375 0.5833334 0.46875 0.5833334 0.4375 0.5833334 0.4375 0.5833334 0.4375 0.6111111 0.4375 0.5833334 0.4375 0.611111 0.4375 0.5833334 0.4375 0.6111111 0.4375 0.611111 0.46875 0.875 0.4375 0.8888888 0.4375 0.875 0.46875 0.8888888 0.4375 0.9027777 0.4375 0.8888888 0.5 0.375 0.5 0.3611111 0.5 0.3518518 0.5 0.3611111 0.5 0.3287037 0.5 0.3518518 0.5 0.375 0.5 0.3425925 0.5 0.3333333 0.5 0.3425925 0.5 0.2916666 0.5 0.3333333 0.4375 0.875 0.375 0.8888888 0.375 0.875 0.4375 0.8888888 0.375 0.9027777 0.375 0.8888888 0.2638889 0.6111111 0.25 0.6388888 0.25 0.6111111 0.2777777 0.6111111 0.2638889 0.6388888 0.2638889 0.6111111 0.2638889 0.5833333 0.25 0.6111111 0.25 0.5833333 0.2777777 0.5833333 0.2638889 0.6111111 0.2638889 0.5833333 0.4375 0.6111111 0.4375 0.6388888 0.4375 0.6388888 0.4375 0.6203703 0.4375001 0.6296296 0.4375001 0.6296296 0.4375 0.6388888 0.4375 0.6666666 0.4375 0.6666666 0.4375 0.6388888 0.4375 0.6666666 0.4375 0.6666666 0.4375 0.8333333 0.375 0.8472222 0.375 0.8333333 0.4375 0.8472222 0.375 0.8611112 0.375 0.8472222 0.5 0.4722222 0.5 0.4583333 0.5 0.5 0.5 0.4398148 0.5 0.4166666 0.5 0.4583333 0.5 0.4166666 0.5 0.4212962 0.5 0.4444444 0.5 0.4027778 0.5 0.3981481 0.5 0.4212962 0.46875 0.8333333 0.4375 0.8472222 0.4375 0.8333333 0.46875 0.8472221 0.4375 0.8611112 0.4375 0.8472222 0.4375 0.6666666 0.46875 0.6666666 0.46875 0.6666666 0.4375 0.6666666 0.46875 0.6666666 0.46875 0.6666666 0.46875 0.5833334 0.4375 0.5833334 0.4375 0.5833334 0.46875 0.5833334 0.4375 0.5833334 0.4375 0.5833334 0.4375 0.5833334 0.4375 0.6111111 0.4375 0.6111111 0.4375 0.5833334 0.4375 0.6111111 0.4375 0.6111111 0.46875 0.375 0.4375 0.3888889 0.4375 0.375 0.46875 0.3888889 0.4375 0.4027778 0.4375 0.3888889 0.2638889 0.6666666 0.25 0.75 0.25 0.6666666 0.2777777 0.6666666 0.2638889 0.75 0.2638889 0.6666666 0.2638889 0.5 0.25 0.5833333 0.25 0.5 0.2777777 0.5 0.2638889 0.5833333 0.2638889 0.5 0.2638889 0.6388888 0.25 0.6666666 0.25 0.6388888 0.2777777 0.6388888 0.2638889 0.6666666 0.2638889 0.6388888 0.4375 0.375 0.375 0.3888889 0.375 0.375 0.4375 0.3888889 0.375 0.4027777 0.375 0.3888889 0.4375 0.6296296 0.4375 0.6388888 0.4375 0.6296296 0.4375 0.6203703 0.4375 0.6111111 0.4375 0.6203703 0.4375 0.6296296 0.4375 0.611111 0.4375 0.6203703 0.4375 0.6203703 0.4375 0.6388888 0.4375 0.6296296 0.4375001 0.6296296 0.4375 0.6388888 0.4375001 0.6296296 0.4375 0.6203703 0.4375 0.6111111 0.4375 0.6203703 0.4375001 0.6296296 0.4375 0.6111111 0.4375 0.6203703 0.4375 0.6203703 0.4375 0.6388888 0.4375001 0.6296296 0.4375 0.6388888 0.375 0.6666666 0.375 0.6388888 0.4375 0.5 0.375 0.5833333 0.375 0.5 0.4375 0.1388888 0.375 0.1666666 0.375 0.1388888 0.4375 0 0.375 0.08333331 0.375 0 0.4375 0.1666666 0.375 0.25 0.375 0.1666666 0.4375 0.6666666 0.375 0.75 0.375 0.6666666 0.4375 0.9027777 0.375 0.9166666 0.375 0.9027777 0.4375 0.4027778 0.375 0.4166666 0.375 0.4027777 0.2916666 0.6388888 0.2777777 0.6666666 0.2777777 0.6388888 0.2916666 0.5 0.2777777 0.5833333 0.2777777 0.5 0.5 0.3101851 0.5 0.25 0.5 0.2916666 0.5 0.3472222 0.5 0.3055555 0.5 0.3287037 0.2916666 0.6666666 0.2777778 0.75 0.2777777 0.6666666 0.46875 0.9027777 0.4375 0.9166666 0.4375 0.9027777 0.46875 0.4027778 0.4375 0.4166666 0.4375 0.4027778 0.46875 0.5 0.4375 0.5833334 0.4375 0.5 0.46875 0 0.4375 0.08333331 0.4375 0 0.46875 0.1666666 0.4375 0.25 0.4375 0.1666666 0.46875 0.6666666 0.4375 0.75 0.4375 0.6666666 0.4375 0.5833334 0.4375 0.6111111 0.4375 0.6111111 0.46875 0.5833334 0.4375 0.5833334 0.4375 0.5833334 0.4375 0.6666666 0.46875 0.6666666 0.46875 0.6666666 0.4375 0.5833334 0.4375 0.6111111 0.4375 0.6111111 0.46875 0.5833334 0.4375 0.5833334 0.4375 0.5833334 0.4375 0.6666666 0.46875 0.6666666 0.46875 0.6666666 0.46875 0.3611111 0.4375 0.375 0.4375 0.3611111 0.46875 0.8611111 0.4375 0.875 0.4375 0.8611112 0.25 0.6666666 0.2361111 0.75 0.2361111 0.6666667 0.5 0.3888889 0.5 0.375 0.5 0.3981481 0.5 0.4074074 0.5 0.375 0.5 0.4166666 0.25 0.5 0.2361111 0.5833333 0.2361111 0.5 0.25 0.6388888 0.2361111 0.6666667 0.2361111 0.6388888 0.4375 0.3611111 0.375 0.375 0.375 0.3611111 0.4375 0.8611112 0.375 0.875 0.375 0.8611112 0.25 0.5833333 0.2361111 0.6111111 0.2361111 0.5833333 0.25 0.6111111 0.2361111 0.6388888 0.2361111 0.6111111 0.4375 0.6388888 0.4375 0.6666666 0.4375 0.6666666 0.4375 0.6111111 0.4375 0.6388888 0.4375 0.6388888 0.4375 0.6388888 0.4375 0.6666666 0.4375 0.6666666 0.4375 0.6111111 0.4375 0.6388888 0.4375 0.6388888 0.2916666 0.5833333 0.2777777 0.6111111 0.2777777 0.5833333 0.2916666 0.6111111 0.2777777 0.6388888 0.2777777 0.6111111 0.4375 0.08333331 0.375 0.1111111 0.375 0.08333331 0.4375 0.1111111 0.375 0.1388888 0.375 0.1111111 0.4375 0.5833334 0.375 0.6111111 0.375 0.5833333 0.4375 0.6111111 0.375 0.6388888 0.375 0.6111111 0.4375 0.6111111 0.4375 0.6388888 0.4375 0.6388888 0.4375 0.6203703 0.4375 0.6296296 0.4375 0.6296296 0.4375 0.6388888 0.4375 0.6666666 0.4375 0.6666666 0.4375 0.6388888 0.4375 0.6666666 0.4375 0.6666666 0.2222222 0.6111111 0.2083333 0.6388888 0.2083333 0.6111111 0.2361111 0.6111111 0.2222222 0.6388888 0.2222222 0.6111111 0.2222222 0.5833333 0.2083333 0.6111111 0.2083333 0.5833333 0.2361111 0.5833333 0.2222222 0.6111111 0.2222222 0.5833333 0.4375 0.4027778 0.375 0.4027777 0.375 0.4027777 0.4375 0.3472222 0.375 0.3611111 0.375 0.3472222 0.2222222 0.6388888 0.2083333 0.6666666 0.2083333 0.6388888 0.2361111 0.6388888 0.2222222 0.6666666 0.2222222 0.6388888 0.2222222 0.5 0.2083333 0.5833333 0.2083333 0.5 0.2361111 0.5 0.2222222 0.5833333 0.2222222 0.5 0.2222222 0.6666666 0.2083333 0.75 0.2083333 0.6666666 0.2361111 0.6666667 0.2222222 0.75 0.2222222 0.6666666 0.46875 0.3333333 0.4375 0.3472222 0.4375 0.3333333 0.46875 0.3472222 0.4375 0.3611111 0.4375 0.3472222 0.4375 0.6666666 0.46875 0.6666666 0.46875 0.6666666 0.4375 0.6666666 0.46875 0.6666666 0.46875 0.6666666 0.46875 0.5833334 0.4375 0.5833334 0.4375 0.5833334 0.46875 0.5833334 0.4375 0.5833334 0.4375 0.5833334 0.4375 0.5833334 0.4375 0.611111 0.4375 0.6111111 0.4375 0.5833334 0.4375 0.6111111 0.4375 0.611111 0.46875 0.875 0.4375 0.8888888 0.4375 0.875 0.46875 0.8888888 0.4375 0.9027777 0.4375 0.8888888 0.5 0.375 0.5 0.3518518 0.5 0.375 0.5 0.3611111 0.5 0.3287037 0.5 0.3518518 0.5 0.375 0.5 0.3333333 0.5 0.375 0.5 0.3425925 0.5 0.2916666 0.5 0.3333333 0.4375 0.875 0.375 0.8888888 0.375 0.875 0.4375 0.8888888 0.375 0.9027777 0.375 0.8888888 0.2638889 0.6111111 0.25 0.6388888 0.25 0.6111111 0.2777777 0.6111111 0.2638889 0.6388888 0.2638889 0.6111111 0.2638889 0.5833333 0.25 0.6111111 0.25 0.5833333 0.2777777 0.5833333 0.2638889 0.6111111 0.2638889 0.5833333 0.4375 0.6111111 0.4375 0.6388888 0.4375 0.6388888 0.4375 0.6203703 0.4375001 0.6296296 0.4375001 0.6296296 0.4375 0.6388888 0.4375 0.6666666 0.4375 0.6666666 0.4375 0.6388888 0.4375 0.6666666 0.4375 0.6666666 0.4375 0.8333333 0.375 0.8472222 0.375 0.8333333 0.4375 0.8472222 0.375 0.8611112 0.375 0.8472222 0.5 0.4722222 0.5 0.4583333 0.5 0.5 0.5 0.4398148 0.5 0.4166666 0.5 0.4583333 0.5 0.4166666 0.5 0.4212962 0.5 0.4444444 0.5 0.4027778 0.5 0.3981481 0.5 0.4212962 0.46875 0.8333333 0.4375 0.8472222 0.4375 0.8333333 0.46875 0.8472221 0.4375 0.8611112 0.4375 0.8472222 0.4375 0.6666666 0.46875 0.6666666 0.46875 0.6666666 0.4375 0.6666666 0.46875 0.6666666 0.46875 0.6666666 0.46875 0.5833334 0.4375 0.5833334 0.4375 0.5833334 0.46875 0.5833334 0.4375 0.5833334 0.4375 0.5833334 0.4375 0.5833334 0.4375 0.6111111 0.4375 0.6111111 0.4375 0.5833334 0.4375 0.6111111 0.4375 0.6111111 0.46875 0.375 0.4375 0.3888889 0.4375 0.375 0.46875 0.3888889 0.4375 0.4027778 0.4375 0.3888889 0.2638889 0.6666666 0.25 0.75 0.25 0.6666666 0.2777777 0.6666666 0.2638889 0.75 0.2638889 0.6666666 0.2638889 0.5 0.25 0.5833333 0.25 0.5 0.2777777 0.5 0.2638889 0.5833333 0.2638889 0.5 0.2638889 0.6388888 0.25 0.6666666 0.25 0.6388888 0.2777777 0.6388888 0.2638889 0.6666666 0.2638889 0.6388888 0.4375 0.375 0.375 0.3888889 0.375 0.375 0.4375 0.3888889 0.375 0.4027777 0.375 0.3888889 0.4375 0.6296296 0.4375 0.6388888 0.4375 0.6388888 0.4375 0.6203703 0.4375 0.6111111 0.4375 0.6203703 0.4375 0.6296296 0.4375 0.611111 0.4375 0.6203703 0.4375 0.6203703 0.4375 0.6388888 0.4375 0.6296296 0.4375001 0.6296296 0.4375 0.6388888 0.4375001 0.6296296 0.4375 0.6203703 0.4375 0.6111111 0.4375 0.6111111 0.4375001 0.6296296 0.4375 0.6111111 0.4375 0.6203703 0.4375 0.6203703 0.4375 0.6388888 0.4375001 0.6296296 0.5 0.3101851 0.5 0.25 0.5 0.2916666 0.5 0.3472222 0.5 0.3055555 0.5 0.3287037 0.2916666 0.6666666 0.2777778 0.75 0.2777777 0.6666666 0.46875 0.9027777 0.4375 0.9166666 0.4375 0.9027777 0.46875 0.4027778 0.4375 0.4166666 0.4375 0.4027778 0.46875 0.5 0.4375 0.5833334 0.4375 0.5 0.46875 0.6666666 0.4375 0.75 0.4375 0.6666666 0.4375 0.5833334 0.4375 0.6111111 0.4375 0.6111111 0.46875 0.5833334 0.4375 0.5833334 0.4375 0.5833334 0.4375 0.6666666 0.46875 0.6666666 0.46875 0.6666666 0.4375 0.5833334 0.4375 0.6111111 0.4375 0.6111111 0.46875 0.5833334 0.4375 0.5833334 0.4375 0.5833334 0.4375 0.6666666 0.46875 0.6666666 0.46875 0.6666666 0.46875 0.3611111 0.4375 0.375 0.4375 0.3611111 0.46875 0.8611111 0.4375 0.875 0.4375 0.8611112 0.25 0.6666666 0.2361111 0.75 0.2361111 0.6666667 0.5 0.3888889 0.5 0.375 0.5 0.3981481 0.5 0.4074074 0.5 0.375 0.5 0.4166666 0.25 0.5 0.2361111 0.5833333 0.2361111 0.5 0.25 0.6388888 0.2361111 0.6666667 0.2361111 0.6388888 0.4375 0.3611111 0.375 0.375 0.375 0.3611111 0.4375 0.8611112 0.375 0.875 0.375 0.8611112 0.25 0.5833333 0.2361111 0.6111111 0.2361111 0.5833333 0.25 0.6111111 0.2361111 0.6388888 0.2361111 0.6111111 0.4375 0.6388888 0.4375 0.6666666 0.4375 0.6666666 0.4375 0.6111111 0.4375 0.6388888 0.4375 0.6388888 0.4375 0.6388888 0.4375 0.6666666 0.4375 0.6666666 0.4375 0.6111111 0.4375 0.6388888 0.4375 0.6388888 0.2916666 0.5833333 0.2777777 0.6111111 0.2777777 0.5833333 0.2916666 0.6111111 0.2777777 0.6388888 0.2777777 0.6111111 0.4375 0.5833334 0.375 0.6111111 0.375 0.5833333 0.4375 0.6111111 0.375 0.6388888 0.375 0.6111111 0.4375 0.6111111 0.4375 0.6388888 0.4375 0.6388888 0.4375 0.6203703 0.4375 0.6296296 0.4375 0.6296296 0.4375 0.6388888 0.4375 0.6666666 0.4375 0.6666666 0.4375 0.6388888 0.4375 0.6666666 0.4375 0.6666666 0.2222222 0.6111111 0.2083333 0.6388888 0.2083333 0.6111111 0.2361111 0.6111111 0.2222222 0.6388888 0.2222222 0.6111111 0.2222222 0.5833333 0.2083333 0.6111111 0.2083333 0.5833333 0.2361111 0.5833333 0.2222222 0.6111111 0.2222222 0.5833333 0.4375 0.3333333 0.375 0.3472222 0.375 0.3333333 0.4375 0.3472222 0.375 0.3611111 0.375 0.3472222 0.2222222 0.6388888 0.2083333 0.6666666 0.2083333 0.6388888 0.2361111 0.6388888 0.2222222 0.6666666 0.2222222 0.6388888 0.2222222 0.5 0.2083333 0.5833333 0.2083333 0.5 0.2361111 0.5 0.2222222 0.5833333 0.2222222 0.5 0.2222222 0.6666666 0.2083333 0.75 0.2083333 0.6666666 0.2361111 0.6666667 0.2222222 0.75 0.2222222 0.6666666 0.46875 0.3333333 0.4375 0.3472222 0.4375 0.3333333 0.46875 0.3472222 0.4375 0.3611111 0.4375 0.3472222 0.4375 0.6666666 0.46875 0.6666666 0.46875 0.6666666 0.4375 0.6666666 0.46875 0.6666666 0.46875 0.6666666 0.46875 0.5833334 0.4375 0.5833334 0.4375 0.5833334 0.46875 0.5833334 0.4375 0.5833334 0.4375 0.5833334 0.4375 0.5833334 0.4375 0.611111 0.4375 0.6111111 0.4375 0.5833334 0.4375 0.6111111 0.4375 0.611111 0.46875 0.875 0.4375 0.8888888 0.4375 0.875 0.46875 0.8888888 0.4375 0.9027777 0.4375 0.8888888 0.5 0.375 0.5 0.3518518 0.5 0.375 0.5 0.3611111 0.5 0.3287037 0.5 0.3518518 0.5 0.375 0.5 0.3333333 0.5 0.375 0.5 0.3425925 0.5 0.2916666 0.5 0.3333333 0.4375 0.875 0.375 0.8888888 0.375 0.875 0.4375 0.8888888 0.375 0.9027777 0.375 0.8888888 0.2638889 0.6111111 0.25 0.6388888 0.25 0.6111111 0.2777777 0.6111111 0.2638889 0.6388888 0.2638889 0.6111111 0.2638889 0.5833333 0.25 0.6111111 0.25 0.5833333 0.2777777 0.5833333 0.2638889 0.6111111 0.2638889 0.5833333 0.4375 0.6111111 0.4375 0.6388888 0.4375 0.6388888 0.4375 0.6203703 0.4375001 0.6296296 0.4375001 0.6296296 0.4375 0.6388888 0.4375 0.6666666 0.4375 0.6666666 0.4375 0.6388888 0.4375 0.6666666 0.4375 0.6666666 0.4375 0.8333333 0.375 0.8472222 0.375 0.8333333 0.4375 0.8472222 0.375 0.8611112 0.375 0.8472222 0.5 0.4722222 0.5 0.4583333 0.5 0.5 0.5 0.4398148 0.5 0.4166666 0.5 0.4583333 0.5 0.4166666 0.5 0.4212962 0.5 0.4444444 0.5 0.4027778 0.5 0.3981481 0.5 0.4212962 0.46875 0.8333333 0.4375 0.8472222 0.4375 0.8333333 0.46875 0.8472221 0.4375 0.8611112 0.4375 0.8472222 0.4375 0.6666666 0.46875 0.6666666 0.46875 0.6666666 0.4375 0.6666666 0.46875 0.6666666 0.46875 0.6666666 0.46875 0.5833334 0.4375 0.5833334 0.4375 0.5833334 0.46875 0.5833334 0.4375 0.5833334 0.4375 0.5833334 0.4375 0.5833334 0.4375 0.6111111 0.4375 0.6111111 0.4375 0.5833334 0.4375 0.6111111 0.4375 0.6111111 0.46875 0.375 0.4375 0.3888889 0.4375 0.375 0.46875 0.3888889 0.4375 0.4027778 0.4375 0.3888889 0.2638889 0.6666666 0.25 0.75 0.25 0.6666666 0.2777777 0.6666666 0.2638889 0.75 0.2638889 0.6666666 0.2638889 0.5 0.25 0.5833333 0.25 0.5 0.2777777 0.5 0.2638889 0.5833333 0.2638889 0.5 0.2638889 0.6388888 0.25 0.6666666 0.25 0.6388888 0.2777777 0.6388888 0.2638889 0.6666666 0.2638889 0.6388888 0.4375 0.375 0.375 0.3888889 0.375 0.375 0.4375 0.3888889 0.375 0.4027777 0.375 0.3888889 0.4375 0.6296296 0.4375 0.6388888 0.4375 0.6388888 0.4375 0.6203703 0.4375 0.6111111 0.4375 0.6203703 0.4375 0.6296296 0.4375 0.611111 0.4375 0.6203703 0.4375 0.6203703 0.4375 0.6388888 0.4375 0.6296296 0.4375001 0.6296296 0.4375 0.6388888 0.4375001 0.6296296 0.4375 0.6203703 0.4375 0.6111111 0.4375 0.6203703 0.4375001 0.6296296 0.4375 0.6111111 0.4375 0.6203703 0.4375 0.6203703 0.4375 0.6388888 0.4375001 0.6296296 0.4375 0.6388888 0.375 0.6666666 0.375 0.6388888 0.4375 0.5 0.375 0.5833333 0.375 0.5 0.4375 0.6666666 0.375 0.75 0.375 0.6666666 0.46875 0.5 0.4375 0.5833334 0.4375 0.5 0.46875 0.6666666 0.4375 0.75 0.4375 0.6666666 0.4375 0.5833334 0.375 0.6111111 0.375 0.5833333 0.4375 0.6111111 0.375 0.6388888 0.375 0.6111111 0.4375 0.4027778 0.375 0.4166666 0.375 0.4027777 0.4375 0.3333333 0.375 0.3472222 0.375 0.3333333 0.4375 0.4166666 0.4375 0.4027778 0.4375 0.4027778 0.4375 0.25 0.375 0.25 0.375 0.25 0.375 0.5 0.4375 0.5 0.4375 0.5 0.375 0.3472222 0.4375 0.3472222 0.4375 0.3472222 0.2083333 0.5 0.2222222 0.5 0.2222222 0.5 0.4375 0.3472222 0.4375 0.3333333 0.4375 0.3333333 0.2916666 0.5 0.2916666 0.5833333 0.2777777 0.5833333 0.2916666 0.6388888 0.2916666 0.6666666 0.2777777 0.6666666 0.2777777 0.5 0.2777777 0.5 0.2916666 0.5 0.4375 0.9027777 0.4375 0.9166666 0.375 0.9166666 0.4375 0.4027778 0.4375 0.4166666 0.375 0.4166666 0.2916666 0.6388888 0.2916666 0.6666666 0.2777777 0.6666666 0.2916666 0.5 0.2916666 0.5833333 0.2777777 0.5833333 0.5 0.3101851 0.5 0.2777777 0.5 0.25 0.5 0.3472222 0.5 0.3333333 0.5 0.3055555 0.2916666 0.6666666 0.2916666 0.75 0.2777778 0.75 0.46875 0.9027777 0.46875 0.9166666 0.4375 0.9166666 0.46875 0.4027778 0.46875 0.4166666 0.4375 0.4166666 0.4375 0.9027777 0.4375 0.9166666 0.375 0.9166666 0.4375 0.6666666 0.4375 0.75 0.375 0.75 0.4375 0.5833334 0.4375 0.5833334 0.4375 0.6111111 0.46875 0.5833334 0.46875 0.5833334 0.4375 0.5833334 0.4375 0.6666666 0.4375 0.6666666 0.46875 0.6666666 0.4375 0.6111111 0.4375 0.5833334 0.4375 0.5833334 0.46875 0.5833334 0.46875 0.5833334 0.4375 0.5833334 0.4375 0.6666666 0.4375 0.6666666 0.46875 0.6666666 0.46875 0.3611111 0.46875 0.375 0.4375 0.375 0.46875 0.8611111 0.46875 0.875 0.4375 0.875 0.25 0.6666666 0.25 0.75 0.2361111 0.75 0.5 0.3981481 0.5 0.3888889 0.5 0.375 0.5 0.4166666 0.5 0.4074074 0.5 0.375 0.25 0.5 0.25 0.5833333 0.2361111 0.5833333 0.25 0.6388888 0.25 0.6666666 0.2361111 0.6666667 0.4375 0.3611111 0.4375 0.375 0.375 0.375 0.4375 0.8611112 0.4375 0.875 0.375 0.875 0.25 0.5833333 0.25 0.6111111 0.2361111 0.6111111 0.25 0.6111111 0.25 0.6388888 0.2361111 0.6388888 0.4375 0.6388888 0.4375 0.6388888 0.4375 0.6666666 0.4375 0.6111111 0.4375 0.6111111 0.4375 0.6388888 0.4375 0.6388888 0.4375 0.6388888 0.4375 0.6666666 0.4375 0.6111111 0.4375 0.6111111 0.4375 0.6388888 0.2916666 0.5833333 0.2916666 0.6111111 0.2777777 0.6111111 0.2916666 0.6111111 0.2916666 0.6388888 0.2777777 0.6388888 0.4375 0.5 0.4375 0.5833334 0.375 0.5833333 0.4375 0.6388888 0.4375 0.6666666 0.375 0.6666666 0.4375 0.6111111 0.4375 0.611111 0.4375 0.6388888 0.4375 0.6203703 0.4375 0.6203703 0.4375 0.6296296 0.4375 0.6388888 0.4375 0.6388888 0.4375 0.6666666 0.4375 0.6388888 0.4375 0.6388888 0.4375 0.6666666 0.2222222 0.6111111 0.2222222 0.6388888 0.2083333 0.6388888 0.2361111 0.6111111 0.2361111 0.6388888 0.2222222 0.6388888 0.2222222 0.5833333 0.2222222 0.6111111 0.2083333 0.6111111 0.2361111 0.5833333 0.2361111 0.6111111 0.2222222 0.6111111 0.4375 0.3333333 0.4375 0.3472222 0.375 0.3472222 0.4375 0.3472222 0.4375 0.3611111 0.375 0.3611111 0.2222222 0.6388888 0.2222222 0.6666666 0.2083333 0.6666666 0.2361111 0.6388888 0.2361111 0.6666667 0.2222222 0.6666666 0.2222222 0.5 0.2222222 0.5833333 0.2083333 0.5833333 0.2361111 0.5 0.2361111 0.5833333 0.2222222 0.5833333 0.2222222 0.6666666 0.2222222 0.75 0.2083333 0.75 0.2361111 0.6666667 0.2361111 0.75 0.2222222 0.75 0.46875 0.3333333 0.46875 0.3472222 0.4375 0.3472222 0.46875 0.3472222 0.46875 0.3611111 0.4375 0.3611111 0.4375 0.6666666 0.4375 0.6666666 0.46875 0.6666666 0.4375 0.6666666 0.4375 0.6666666 0.46875 0.6666666 0.46875 0.5833334 0.46875 0.5833334 0.4375 0.5833334 0.46875 0.5833334 0.46875 0.5833334 0.4375 0.5833334 0.4375 0.6111111 0.4375 0.5833334 0.4375 0.5833334 0.4375 0.5833334 0.4375 0.5833334 0.4375 0.6111111 0.46875 0.875 0.46875 0.8888888 0.4375 0.8888888 0.46875 0.8888888 0.46875 0.9027777 0.4375 0.9027777 0.5 0.375 0.5 0.375 0.5 0.3611111 0.5 0.3611111 0.5 0.3472222 0.5 0.3287037 0.5 0.375 0.5 0.375 0.5 0.3425925 0.5 0.3425925 0.5 0.3101851 0.5 0.2916666 0.4375 0.875 0.4375 0.8888888 0.375 0.8888888 0.4375 0.8888888 0.4375 0.9027777 0.375 0.9027777 0.2638889 0.6111111 0.2638889 0.6388888 0.25 0.6388888 0.2777777 0.6111111 0.2777777 0.6388888 0.2638889 0.6388888 0.2638889 0.5833333 0.2638889 0.6111111 0.25 0.6111111 0.2777777 0.5833333 0.2777777 0.6111111 0.2638889 0.6111111 0.4375 0.6111111 0.4375 0.6111111 0.4375 0.6388888 0.4375 0.6203703 0.4375 0.6203703 0.4375001 0.6296296 0.4375 0.6388888 0.4375 0.6388888 0.4375 0.6666666 0.4375 0.6388888 0.4375 0.6388888 0.4375 0.6666666 0.4375 0.8333333 0.4375 0.8472222 0.375 0.8472222 0.4375 0.8472222 0.4375 0.8611112 0.375 0.8611112 0.5 0.4722222 0.5 0.4398148 0.5 0.4583333 0.5 0.4398148 0.5 0.4074074 0.5 0.4166666 0.5 0.4166666 0.5 0.4027778 0.5 0.4212962 0.5 0.4027778 0.5 0.3888889 0.5 0.3981481 0.46875 0.8333333 0.46875 0.8472221 0.4375 0.8472222 0.46875 0.8472221 0.46875 0.8611111 0.4375 0.8611112 0.4375 0.6666666 0.4375 0.6666666 0.46875 0.6666666 0.4375 0.6666666 0.4375 0.6666666 0.46875 0.6666666 0.46875 0.5833334 0.46875 0.5833334 0.4375 0.5833334 0.46875 0.5833334 0.46875 0.5833334 0.4375 0.5833334 0.4375 0.5833334 0.4375 0.5833334 0.4375 0.6111111 0.4375 0.5833334 0.4375 0.5833334 0.4375 0.6111111 0.46875 0.375 0.46875 0.3888889 0.4375 0.3888889 0.46875 0.3888889 0.46875 0.4027778 0.4375 0.4027778 0.2638889 0.6666666 0.2638889 0.75 0.25 0.75 0.2777777 0.6666666 0.2777778 0.75 0.2638889 0.75 0.2638889 0.5 0.2638889 0.5833333 0.25 0.5833333 0.2777777 0.5 0.2777777 0.5833333 0.2638889 0.5833333 0.2638889 0.6388888 0.2638889 0.6666666 0.25 0.6666666 0.2777777 0.6388888 0.2777777 0.6666666 0.2638889 0.6666666 0.4375 0.375 0.4375 0.3888889 0.375 0.3888889 0.4375 0.3888889 0.4375 0.4027778 0.375 0.4027777 0.4375 0.6296296 0.4375 0.6388888 0.4375 0.6388888 0.4375 0.6203703 0.4375 0.611111 0.4375 0.6111111 0.4375 0.6296296 0.4375 0.6388888 0.4375 0.611111 0.4375 0.6203703 0.4375 0.6111111 0.4375 0.6388888 0.4375001 0.6296296 0.4375 0.6388888 0.4375 0.6388888 0.4375 0.6203703 0.4375 0.6111111 0.4375 0.6111111 0.4375001 0.6296296 0.4375 0.6388888 0.4375 0.6111111 0.4375 0.6203703 0.4375 0.6111111 0.4375 0.6388888 0.4375 0.6388888 0.4375 0.6666666 0.375 0.6666666 0.4375 0.5 0.4375 0.5833334 0.375 0.5833333 0.4375 0.1388888 0.4375 0.1666666 0.375 0.1666666 0.4375 0 0.4375 0.08333331 0.375 0.08333331 0.4375 0.1666666 0.4375 0.25 0.375 0.25 0.4375 0.6666666 0.4375 0.75 0.375 0.75 0.4375 0.9027777 0.4375 0.9166666 0.375 0.9166666 0.4375 0.4027778 0.4375 0.4166666 0.375 0.4166666 0.2916666 0.6388888 0.2916666 0.6666666 0.2777777 0.6666666 0.2916666 0.5 0.2916666 0.5833333 0.2777777 0.5833333 0.5 0.3101851 0.5 0.2777777 0.5 0.25 0.5 0.3472222 0.5 0.3333333 0.5 0.3055555 0.2916666 0.6666666 0.2916666 0.75 0.2777778 0.75 0.46875 0.9027777 0.46875 0.9166666 0.4375 0.9166666 0.46875 0.4027778 0.46875 0.4166666 0.4375 0.4166666 0.46875 0.5 0.46875 0.5833334 0.4375 0.5833334 0.46875 0 0.46875 0.08333331 0.4375 0.08333331 0.46875 0.1666666 0.46875 0.25 0.4375 0.25 0.46875 0.6666666 0.46875 0.75 0.4375 0.75 0.4375 0.5833334 0.4375 0.5833334 0.4375 0.6111111 0.46875 0.5833334 0.46875 0.5833334 0.4375 0.5833334 0.4375 0.6666666 0.4375 0.6666666 0.46875 0.6666666 0.4375 0.5833334 0.4375 0.5833334 0.4375 0.6111111 0.46875 0.5833334 0.46875 0.5833334 0.4375 0.5833334 0.4375 0.6666666 0.4375 0.6666666 0.46875 0.6666666 0.46875 0.3611111 0.46875 0.375 0.4375 0.375 0.46875 0.8611111 0.46875 0.875 0.4375 0.875 0.25 0.6666666 0.25 0.75 0.2361111 0.75 0.5 0.3888889 0.5 0.375 0.5 0.375 0.5 0.4074074 0.5 0.375 0.5 0.375 0.25 0.5 0.25 0.5833333 0.2361111 0.5833333 0.25 0.6388888 0.25 0.6666666 0.2361111 0.6666667 0.4375 0.3611111 0.4375 0.375 0.375 0.375 0.4375 0.8611112 0.4375 0.875 0.375 0.875 0.25 0.5833333 0.25 0.6111111 0.2361111 0.6111111 0.25 0.6111111 0.25 0.6388888 0.2361111 0.6388888 0.4375 0.6388888 0.4375 0.6388888 0.4375 0.6666666 0.4375 0.6111111 0.4375 0.6111111 0.4375 0.6388888 0.4375 0.6388888 0.4375 0.6388888 0.4375 0.6666666 0.4375 0.6111111 0.4375 0.6111111 0.4375 0.6388888 0.2916666 0.5833333 0.2916666 0.6111111 0.2777777 0.6111111 0.2916666 0.6111111 0.2916666 0.6388888 0.2777777 0.6388888 0.4375 0.08333331 0.4375 0.1111111 0.375 0.1111111 0.4375 0.1111111 0.4375 0.1388888 0.375 0.1388888 0.4375 0.5833334 0.4375 0.6111111 0.375 0.6111111 0.4375 0.6111111 0.4375 0.6388888 0.375 0.6388888 0.4375 0.6111111 0.4375 0.611111 0.4375 0.6388888 0.4375 0.6203703 0.4375 0.6203703 0.4375 0.6296296 0.4375 0.6388888 0.4375 0.6388888 0.4375 0.6666666 0.4375 0.6388888 0.4375 0.6388888 0.4375 0.6666666 0.2222222 0.6111111 0.2222222 0.6388888 0.2083333 0.6388888 0.2361111 0.6111111 0.2361111 0.6388888 0.2222222 0.6388888 0.2222222 0.5833333 0.2222222 0.6111111 0.2083333 0.6111111 0.2361111 0.5833333 0.2361111 0.6111111 0.2222222 0.6111111 0.4375 0.4027778 0.4375 0.4027778 0.375 0.4027777 0.4375 0.3472222 0.4375 0.3611111 0.375 0.3611111 0.2222222 0.6388888 0.2222222 0.6666666 0.2083333 0.6666666 0.2361111 0.6388888 0.2361111 0.6666667 0.2222222 0.6666666 0.2222222 0.5 0.2222222 0.5833333 0.2083333 0.5833333 0.2361111 0.5 0.2361111 0.5833333 0.2222222 0.5833333 0.2222222 0.6666666 0.2222222 0.75 0.2083333 0.75 0.2361111 0.6666667 0.2361111 0.75 0.2222222 0.75 0.46875 0.3333333 0.46875 0.3472222 0.4375 0.3472222 0.46875 0.3472222 0.46875 0.3611111 0.4375 0.3611111 0.4375 0.6666666 0.4375 0.6666666 0.46875 0.6666666 0.4375 0.6666666 0.4375 0.6666666 0.46875 0.6666666 0.46875 0.5833334 0.46875 0.5833334 0.4375 0.5833334 0.46875 0.5833334 0.46875 0.5833334 0.4375 0.5833334 0.4375 0.5833334 0.4375 0.5833334 0.4375 0.611111 0.4375 0.5833334 0.4375 0.5833334 0.4375 0.6111111 0.46875 0.875 0.46875 0.8888888 0.4375 0.8888888 0.46875 0.8888888 0.46875 0.9027777 0.4375 0.9027777 0.5 0.375 0.5 0.3611111 0.5 0.3518518 0.5 0.3611111 0.5 0.3472222 0.5 0.3287037 0.5 0.375 0.5 0.3425925 0.5 0.3333333 0.5 0.3425925 0.5 0.3101851 0.5 0.2916666 0.4375 0.875 0.4375 0.8888888 0.375 0.8888888 0.4375 0.8888888 0.4375 0.9027777 0.375 0.9027777 0.2638889 0.6111111 0.2638889 0.6388888 0.25 0.6388888 0.2777777 0.6111111 0.2777777 0.6388888 0.2638889 0.6388888 0.2638889 0.5833333 0.2638889 0.6111111 0.25 0.6111111 0.2777777 0.5833333 0.2777777 0.6111111 0.2638889 0.6111111 0.4375 0.6111111 0.4375 0.6111111 0.4375 0.6388888 0.4375 0.6203703 0.4375 0.6203703 0.4375001 0.6296296 0.4375 0.6388888 0.4375 0.6388888 0.4375 0.6666666 0.4375 0.6388888 0.4375 0.6388888 0.4375 0.6666666 0.4375 0.8333333 0.4375 0.8472222 0.375 0.8472222 0.4375 0.8472222 0.4375 0.8611112 0.375 0.8611112 0.5 0.4722222 0.5 0.4398148 0.5 0.4583333 0.5 0.4398148 0.5 0.4074074 0.5 0.4166666 0.5 0.4166666 0.5 0.4027778 0.5 0.4212962 0.5 0.4027778 0.5 0.3888889 0.5 0.3981481 0.46875 0.8333333 0.46875 0.8472221 0.4375 0.8472222 0.46875 0.8472221 0.46875 0.8611111 0.4375 0.8611112 0.4375 0.6666666 0.4375 0.6666666 0.46875 0.6666666 0.4375 0.6666666 0.4375 0.6666666 0.46875 0.6666666 0.46875 0.5833334 0.46875 0.5833334 0.4375 0.5833334 0.46875 0.5833334 0.46875 0.5833334 0.4375 0.5833334 0.4375 0.5833334 0.4375 0.5833334 0.4375 0.6111111 0.4375 0.5833334 0.4375 0.5833334 0.4375 0.6111111 0.46875 0.375 0.46875 0.3888889 0.4375 0.3888889 0.46875 0.3888889 0.46875 0.4027778 0.4375 0.4027778 0.2638889 0.6666666 0.2638889 0.75 0.25 0.75 0.2777777 0.6666666 0.2777778 0.75 0.2638889 0.75 0.2638889 0.5 0.2638889 0.5833333 0.25 0.5833333 0.2777777 0.5 0.2777777 0.5833333 0.2638889 0.5833333 0.2638889 0.6388888 0.2638889 0.6666666 0.25 0.6666666 0.2777777 0.6388888 0.2777777 0.6666666 0.2638889 0.6666666 0.4375 0.375 0.4375 0.3888889 0.375 0.3888889 0.4375 0.3888889 0.4375 0.4027778 0.375 0.4027777 0.4375 0.6296296 0.4375 0.6296296 0.4375 0.6388888 0.4375 0.6203703 0.4375 0.611111 0.4375 0.6111111 0.4375 0.6296296 0.4375 0.6388888 0.4375 0.611111 0.4375 0.6203703 0.4375 0.6111111 0.4375 0.6388888 0.4375001 0.6296296 0.4375 0.6388888 0.4375 0.6388888 0.4375 0.6203703 0.4375 0.6203703 0.4375 0.6111111 0.4375001 0.6296296 0.4375 0.6388888 0.4375 0.6111111 0.4375 0.6203703 0.4375 0.6111111 0.4375 0.6388888 0.5 0.3101851 0.5 0.2777777 0.5 0.25 0.5 0.3472222 0.5 0.3333333 0.5 0.3055555 0.2916666 0.6666666 0.2916666 0.75 0.2777778 0.75 0.46875 0.9027777 0.46875 0.9166666 0.4375 0.9166666 0.46875 0.4027778 0.46875 0.4166666 0.4375 0.4166666 0.46875 0.5 0.46875 0.5833334 0.4375 0.5833334 0.46875 0.6666666 0.46875 0.75 0.4375 0.75 0.4375 0.5833334 0.4375 0.5833334 0.4375 0.6111111 0.46875 0.5833334 0.46875 0.5833334 0.4375 0.5833334 0.4375 0.6666666 0.4375 0.6666666 0.46875 0.6666666 0.4375 0.5833334 0.4375 0.5833334 0.4375 0.6111111 0.46875 0.5833334 0.46875 0.5833334 0.4375 0.5833334 0.4375 0.6666666 0.4375 0.6666666 0.46875 0.6666666 0.46875 0.3611111 0.46875 0.375 0.4375 0.375 0.46875 0.8611111 0.46875 0.875 0.4375 0.875 0.25 0.6666666 0.25 0.75 0.2361111 0.75 0.5 0.3888889 0.5 0.375 0.5 0.375 0.5 0.4074074 0.5 0.375 0.5 0.375 0.25 0.5 0.25 0.5833333 0.2361111 0.5833333 0.25 0.6388888 0.25 0.6666666 0.2361111 0.6666667 0.4375 0.3611111 0.4375 0.375 0.375 0.375 0.4375 0.8611112 0.4375 0.875 0.375 0.875 0.25 0.5833333 0.25 0.6111111 0.2361111 0.6111111 0.25 0.6111111 0.25 0.6388888 0.2361111 0.6388888 0.4375 0.6388888 0.4375 0.6388888 0.4375 0.6666666 0.4375 0.6111111 0.4375 0.6111111 0.4375 0.6388888 0.4375 0.6388888 0.4375 0.6388888 0.4375 0.6666666 0.4375 0.6111111 0.4375 0.6111111 0.4375 0.6388888 0.2916666 0.5833333 0.2916666 0.6111111 0.2777777 0.6111111 0.2916666 0.6111111 0.2916666 0.6388888 0.2777777 0.6388888 0.4375 0.5833334 0.4375 0.6111111 0.375 0.6111111 0.4375 0.6111111 0.4375 0.6388888 0.375 0.6388888 0.4375 0.6111111 0.4375 0.611111 0.4375 0.6388888 0.4375 0.6203703 0.4375 0.6203703 0.4375 0.6296296 0.4375 0.6388888 0.4375 0.6388888 0.4375 0.6666666 0.4375 0.6388888 0.4375 0.6388888 0.4375 0.6666666 0.2222222 0.6111111 0.2222222 0.6388888 0.2083333 0.6388888 0.2361111 0.6111111 0.2361111 0.6388888 0.2222222 0.6388888 0.2222222 0.5833333 0.2222222 0.6111111 0.2083333 0.6111111 0.2361111 0.5833333 0.2361111 0.6111111 0.2222222 0.6111111 0.4375 0.3333333 0.4375 0.3472222 0.375 0.3472222 0.4375 0.3472222 0.4375 0.3611111 0.375 0.3611111 0.2222222 0.6388888 0.2222222 0.6666666 0.2083333 0.6666666 0.2361111 0.6388888 0.2361111 0.6666667 0.2222222 0.6666666 0.2222222 0.5 0.2222222 0.5833333 0.2083333 0.5833333 0.2361111 0.5 0.2361111 0.5833333 0.2222222 0.5833333 0.2222222 0.6666666 0.2222222 0.75 0.2083333 0.75 0.2361111 0.6666667 0.2361111 0.75 0.2222222 0.75 0.46875 0.3333333 0.46875 0.3472222 0.4375 0.3472222 0.46875 0.3472222 0.46875 0.3611111 0.4375 0.3611111 0.4375 0.6666666 0.4375 0.6666666 0.46875 0.6666666 0.4375 0.6666666 0.4375 0.6666666 0.46875 0.6666666 0.46875 0.5833334 0.46875 0.5833334 0.4375 0.5833334 0.46875 0.5833334 0.46875 0.5833334 0.4375 0.5833334 0.4375 0.5833334 0.4375 0.5833334 0.4375 0.611111 0.4375 0.5833334 0.4375 0.5833334 0.4375 0.6111111 0.46875 0.875 0.46875 0.8888888 0.4375 0.8888888 0.46875 0.8888888 0.46875 0.9027777 0.4375 0.9027777 0.5 0.375 0.5 0.3611111 0.5 0.3518518 0.5 0.3611111 0.5 0.3472222 0.5 0.3287037 0.5 0.375 0.5 0.3425925 0.5 0.3333333 0.5 0.3425925 0.5 0.3101851 0.5 0.2916666 0.4375 0.875 0.4375 0.8888888 0.375 0.8888888 0.4375 0.8888888 0.4375 0.9027777 0.375 0.9027777 0.2638889 0.6111111 0.2638889 0.6388888 0.25 0.6388888 0.2777777 0.6111111 0.2777777 0.6388888 0.2638889 0.6388888 0.2638889 0.5833333 0.2638889 0.6111111 0.25 0.6111111 0.2777777 0.5833333 0.2777777 0.6111111 0.2638889 0.6111111 0.4375 0.6111111 0.4375 0.6111111 0.4375 0.6388888 0.4375 0.6203703 0.4375 0.6203703 0.4375001 0.6296296 0.4375 0.6388888 0.4375 0.6388888 0.4375 0.6666666 0.4375 0.6388888 0.4375 0.6388888 0.4375 0.6666666 0.4375 0.8333333 0.4375 0.8472222 0.375 0.8472222 0.4375 0.8472222 0.4375 0.8611112 0.375 0.8611112 0.5 0.4722222 0.5 0.4398148 0.5 0.4583333 0.5 0.4398148 0.5 0.4074074 0.5 0.4166666 0.5 0.4166666 0.5 0.4027778 0.5 0.4212962 0.5 0.4027778 0.5 0.3888889 0.5 0.3981481 0.46875 0.8333333 0.46875 0.8472221 0.4375 0.8472222 0.46875 0.8472221 0.46875 0.8611111 0.4375 0.8611112 0.4375 0.6666666 0.4375 0.6666666 0.46875 0.6666666 0.4375 0.6666666 0.4375 0.6666666 0.46875 0.6666666 0.46875 0.5833334 0.46875 0.5833334 0.4375 0.5833334 0.46875 0.5833334 0.46875 0.5833334 0.4375 0.5833334 0.4375 0.5833334 0.4375 0.5833334 0.4375 0.6111111 0.4375 0.5833334 0.4375 0.5833334 0.4375 0.6111111 0.46875 0.375 0.46875 0.3888889 0.4375 0.3888889 0.46875 0.3888889 0.46875 0.4027778 0.4375 0.4027778 0.2638889 0.6666666 0.2638889 0.75 0.25 0.75 0.2777777 0.6666666 0.2777778 0.75 0.2638889 0.75 0.2638889 0.5 0.2638889 0.5833333 0.25 0.5833333 0.2777777 0.5 0.2777777 0.5833333 0.2638889 0.5833333 0.2638889 0.6388888 0.2638889 0.6666666 0.25 0.6666666 0.2777777 0.6388888 0.2777777 0.6666666 0.2638889 0.6666666 0.4375 0.375 0.4375 0.3888889 0.375 0.3888889 0.4375 0.3888889 0.4375 0.4027778 0.375 0.4027777 0.4375 0.6296296 0.4375 0.6296296 0.4375 0.6388888 0.4375 0.6203703 0.4375 0.611111 0.4375 0.6111111 0.4375 0.6296296 0.4375 0.6388888 0.4375 0.611111 0.4375 0.6203703 0.4375 0.6111111 0.4375 0.6388888 0.4375001 0.6296296 0.4375 0.6388888 0.4375 0.6388888 0.4375 0.6203703 0.4375 0.6111111 0.4375 0.6111111 0.4375001 0.6296296 0.4375 0.6388888 0.4375 0.6111111 0.4375 0.6203703 0.4375 0.6111111 0.4375 0.6388888 0.4375 0.6388888 0.4375 0.6666666 0.375 0.6666666 0.4375 0.5 0.4375 0.5833334 0.375 0.5833333 0.4375 0.6666666 0.4375 0.75 0.375 0.75 0.46875 0.5 0.46875 0.5833334 0.4375 0.5833334 0.46875 0.6666666 0.46875 0.75 0.4375 0.75 0.4375 0.5833334 0.4375 0.6111111 0.375 0.6111111 0.4375 0.6111111 0.4375 0.6388888 0.375 0.6388888 0.4375 0.4027778 0.4375 0.4166666 0.375 0.4166666 0.4375 0.3333333 0.4375 0.3472222 0.375 0.3472222 0.4375 0.4166666 0.4375 0.4166666 0.4375 0.4027778 0.4375 0.25 0.4375 0.25 0.375 0.25 0.375 0.5 0.375 0.5 0.4375 0.5 0.375 0.3472222 0.375 0.3472222 0.4375 0.3472222 0.2083333 0.5 0.2083333 0.5 0.2222222 0.5 0.4375 0.3472222 0.4375 0.3472222 0.4375 0.3333333</float_array>
          <technique_common>
            <accessor source="#Cube-mesh-map-0-array" count="2088" stride="2">
              <param name="S" type="float"/>
              <param name="T" type="float"/>
            </accessor>
          </technique_common>
        </source>
        <vertices id="Cube-mesh-vertices">
          <input semantic="POSITION" source="#Cube-mesh-positions"/>
        </vertices>
        <triangles material="paintable-0-material" count="468">
          <input semantic="VERTEX" source="#Cube-mesh-vertices" offset="0"/>
          <input semantic="NORMAL" source="#Cube-mesh-normals" offset="1"/>
          <input semantic="TEXCOORD" source="#Cube-mesh-map-0" offset="2" set="0"/>
          <p>27 0 0 284 0 1 278 0 2 233 1 3 286 1 4 302 1 5 278 2 6 329 2 7 27 2 8 39 3 9 107 3 10 42 3 11 67 4 12 312 4 13 70 4 14 325 5 15 78 5 16 94 5 17 312 6 18 76 6 19 70 6 20 54 7 21 120 7 22 41 7 23 50 8 24 126 8 25 45 8 26 315 9 27 65 9 28 78 9 29 41 10 30 114 10 31 39 10 32 69 11 33 316 11 34 67 11 35 247 12 36 313 12 37 250 12 38 6 13 39 26 13 40 24 13 41 51 20 60 16 20 61 49 20 62 83 21 63 17 21 64 81 21 65 15 22 66 43 22 67 36 22 68 85 23 69 19 23 70 20 23 71 83 24 72 23 24 73 18 24 74 12 25 75 34 25 76 32 25 77 31 26 78 36 26 79 58 26 80 49 27 81 12 27 82 32 27 83 81 28 84 13 28 85 64 28 86 14 29 87 56 29 88 34 29 89 30 30 90 58 30 91 56 30 92 314 35 105 92 35 106 76 35 107 324 36 108 94 36 109 92 36 110 11 37 111 25 37 112 27 37 113 235 38 114 24 38 115 233 38 116 57 43 129 143 43 130 142 43 131 56 44 132 59 44 133 57 44 134 35 45 135 142 45 136 108 45 137 34 46 138 57 46 139 35 46 140 113 47 141 33 47 142 104 47 143 48 48 144 32 48 145 33 48 146 59 49 147 110 49 148 143 49 149 58 50 150 37 50 151 59 50 152 33 51 153 108 51 154 104 51 155 32 52 156 35 52 157 33 52 158 37 53 159 107 53 160 110 53 161 36 54 162 42 54 163 37 54 164 119 55 165 48 55 166 113 55 167 50 56 168 49 56 169 48 56 170 18 63 189 38 63 190 17 63 191 40 64 192 39 64 193 38 64 194 20 65 195 51 65 196 44 65 197 51 66 198 45 66 199 44 66 200 18 67 201 55 67 202 40 67 203 55 68 204 41 68 205 40 68 206 17 69 207 43 69 208 13 69 209 38 70 210 42 70 211 43 70 212 93 71 213 31 71 214 30 71 215 92 72 216 95 72 217 93 72 218 77 73 219 30 73 220 14 73 221 76 74 222 93 74 223 77 74 224 317 79 237 65 79 238 313 79 239 80 80 240 64 80 241 65 80 242 323 81 243 82 81 244 319 81 245 75 82 246 83 82 247 82 82 248 318 83 249 84 83 250 322 83 251 69 84 252 85 84 253 84 84 254 319 85 255 80 85 256 317 85 257 82 86 258 81 86 259 80 86 260 19 93 279 66 93 280 16 93 281 68 94 282 67 94 283 66 94 284 79 95 285 13 95 286 15 95 287 78 96 288 64 96 289 79 96 290 71 97 291 14 97 292 12 97 293 70 98 294 77 98 295 71 98 296 95 99 297 15 99 298 31 99 299 94 100 300 79 100 301 95 100 302 16 101 303 71 101 304 12 101 305 66 102 306 70 102 307 71 102 308 145 111 333 110 111 334 143 111 335 113 112 336 108 112 337 104 112 338 146 113 339 109 113 340 140 113 341 115 114 342 111 114 343 106 114 344 123 115 345 105 115 346 109 115 347 125 116 348 107 116 349 110 116 350 159 117 351 106 117 352 162 117 353 187 118 354 104 118 355 190 118 356 143 119 357 198 119 358 214 119 359 104 120 360 196 120 361 190 120 362 174 121 363 121 121 364 161 121 365 170 122 366 117 122 367 165 122 368 110 123 369 185 123 370 198 123 371 161 124 372 115 124 373 159 124 374 189 125 375 113 125 376 187 125 377 119 126 378 124 126 379 113 126 380 121 127 381 122 127 382 115 127 383 117 128 384 112 128 385 123 128 386 127 129 387 114 129 388 125 129 389 171 136 408 132 136 409 169 136 410 203 137 411 133 137 412 201 137 413 131 138 414 163 138 415 156 138 416 188 139 417 136 139 418 205 139 419 194 140 420 134 140 421 203 140 422 128 141 423 154 141 424 152 141 425 151 142 426 156 142 427 178 142 428 169 143 429 128 143 430 152 143 431 201 144 432 129 144 433 184 144 434 130 145 435 176 145 436 154 145 437 150 146 438 178 146 439 176 146 440 108 151 453 212 151 454 196 151 455 142 152 456 214 152 457 212 152 458 122 153 459 141 153 460 111 153 461 147 154 462 140 154 463 141 154 464 124 155 465 142 155 466 108 155 467 144 156 468 143 156 469 142 156 470 177 161 483 141 161 484 140 161 485 176 162 486 179 162 487 177 162 488 155 163 489 140 163 490 109 163 491 154 164 492 177 164 493 155 164 494 275 165 495 335 165 496 278 165 497 168 166 498 152 166 499 153 166 500 179 167 501 111 167 502 141 167 503 178 168 504 157 168 505 179 168 506 153 169 507 109 169 508 105 169 509 152 170 510 155 170 511 153 170 512 157 171 513 106 171 514 111 171 515 156 172 516 162 172 517 157 172 518 118 173 519 168 173 520 112 173 521 170 174 522 169 174 523 168 174 524 134 181 543 158 181 544 133 181 545 160 182 546 159 182 547 158 182 548 135 183 549 164 183 550 136 183 551 171 184 552 165 184 553 164 184 554 139 185 555 160 185 556 134 185 557 175 186 558 161 186 559 160 186 560 133 187 561 163 187 562 129 187 563 158 188 564 162 188 565 163 188 566 213 189 567 151 189 568 150 189 569 212 190 570 215 190 571 213 190 572 197 191 573 150 191 574 130 191 575 196 192 576 213 192 577 197 192 578 114 197 591 185 197 592 107 197 593 200 198 594 184 198 595 185 198 596 127 199 597 202 199 598 120 199 599 195 200 600 203 200 601 202 200 602 119 201 603 204 201 604 126 201 605 189 202 606 205 202 607 204 202 608 120 203 609 200 203 610 114 203 611 202 204 612 201 204 613 200 204 614 135 211 633 186 211 634 132 211 635 188 212 636 187 212 637 186 212 638 199 213 639 129 213 640 131 213 641 198 214 642 184 214 643 199 214 644 191 215 645 130 215 646 128 215 647 190 216 648 197 216 649 191 216 650 215 217 651 131 217 652 151 217 653 214 218 654 199 218 655 215 218 656 132 219 657 191 219 658 128 219 659 186 220 660 190 220 661 191 220 662 262 229 687 319 229 688 249 229 689 258 230 690 322 230 691 253 230 692 24 231 693 273 231 694 286 231 695 249 232 696 317 232 697 247 232 698 277 233 699 11 233 700 275 233 701 9 234 702 7 234 703 11 234 704 4 235 705 10 235 706 6 235 707 259 242 726 224 242 727 257 242 728 291 243 729 225 243 730 289 243 731 0 244 732 251 244 733 244 244 734 276 245 735 228 245 736 293 245 737 282 246 738 226 246 739 291 246 740 3 247 741 242 247 742 240 247 743 239 248 744 244 248 745 266 248 746 257 249 747 3 249 748 240 249 749 289 250 750 2 250 751 272 250 752 1 251 753 264 251 754 242 251 755 238 252 756 266 252 757 264 252 758 25 257 771 300 257 772 284 257 773 232 258 774 302 258 775 300 258 776 7 259 777 232 259 778 25 259 779 234 260 780 233 260 781 232 260 782 265 265 795 325 265 796 324 265 797 264 266 798 267 266 799 265 266 800 243 267 801 324 267 802 314 267 803 242 268 804 265 268 805 243 268 806 316 269 807 241 269 808 312 269 809 256 270 810 240 270 811 241 270 812 267 271 813 315 271 814 325 271 815 266 272 816 245 272 817 267 272 818 241 273 819 314 273 820 312 273 821 240 274 822 243 274 823 241 274 824 245 275 825 313 275 826 315 275 827 244 276 828 250 276 829 245 276 830 318 277 831 256 277 832 316 277 833 258 278 834 257 278 835 256 278 836 226 285 855 246 285 856 225 285 857 248 286 858 247 286 859 246 286 860 227 287 861 252 287 862 228 287 863 259 288 864 253 288 865 252 288 866 231 289 867 248 289 868 226 289 869 263 290 870 249 290 871 248 290 872 225 291 873 251 291 874 2 291 875 246 292 876 250 292 877 251 292 878 301 293 879 239 293 880 238 293 881 300 294 882 303 294 883 301 294 884 285 295 885 238 295 886 1 295 887 284 296 888 301 296 889 285 296 890 10 301 903 273 301 904 26 301 905 288 302 906 272 302 907 273 302 908 4 303 909 290 303 910 8 303 911 283 304 912 291 304 913 290 304 914 9 305 915 292 305 916 5 305 917 277 306 918 293 306 919 292 306 920 8 307 921 288 307 922 10 307 923 290 308 924 289 308 925 288 308 926 227 315 945 274 315 946 224 315 947 276 316 948 275 316 949 274 316 950 287 317 951 2 317 952 0 317 953 286 318 954 272 318 955 287 318 956 279 319 957 1 319 958 3 319 959 278 320 960 285 320 961 279 320 962 303 321 963 0 321 964 239 321 965 302 322 966 287 322 967 303 322 968 224 323 969 279 323 970 3 323 971 274 324 972 278 324 973 279 324 974 327 333 999 315 333 1000 325 333 1001 316 334 1002 314 334 1003 312 334 1004 321 335 1005 313 335 1006 315 335 1007 318 336 1008 320 336 1009 316 336 1010 323 337 1011 317 337 1012 321 337 1013 320 338 1014 324 338 1015 314 338 1016 326 339 1017 325 339 1018 324 339 1019 330 340 1020 329 340 1021 335 340 1022 333 341 1023 331 341 1024 332 341 1025 11 342 1026 330 342 1027 275 342 1028 112 343 1029 332 343 1030 105 343 1031 27 344 1032 328 344 1033 11 344 1034 153 345 1035 334 345 1036 168 345 1037 105 346 1038 331 346 1039 153 346 1040 168 347 1041 333 347 1042 112 347 1043 27 348 1044 25 348 1045 284 348 1046 233 349 1047 24 349 1048 286 349 1049 278 350 1050 335 350 1051 329 350 1052 39 351 1053 114 351 1054 107 351 1055 67 352 1056 316 352 1057 312 352 1058 325 353 1059 315 353 1060 78 353 1061 312 354 1062 314 354 1063 76 354 1064 54 355 1065 127 355 1066 120 355 1067 50 356 1068 119 356 1069 126 356 1070 315 357 1071 313 357 1072 65 357 1073 41 358 1074 120 358 1075 114 358 1076 69 359 1077 318 359 1078 316 359 1079 247 360 1080 317 360 1081 313 360 1082 6 361 1083 10 361 1084 26 361 1085 51 368 1104 19 368 1105 16 368 1106 83 369 1107 18 369 1108 17 369 1109 15 370 1110 13 370 1111 43 370 1112 85 371 1113 68 371 1114 19 371 1115 83 372 1116 74 372 1117 23 372 1118 12 373 1119 14 373 1120 34 373 1121 31 374 1122 15 374 1123 36 374 1124 49 375 1125 16 375 1126 12 375 1127 81 376 1128 17 376 1129 13 376 1130 14 377 1131 30 377 1132 56 377 1133 30 378 1134 31 378 1135 58 378 1136 314 383 1149 324 383 1150 92 383 1151 324 384 1152 325 384 1153 94 384 1154 11 385 1155 7 385 1156 25 385 1157 235 386 1158 6 386 1159 24 386 1160 57 391 1173 59 391 1174 143 391 1175 56 392 1176 58 392 1177 59 392 1178 35 393 1179 57 393 1180 142 393 1181 34 394 1182 56 394 1183 57 394 1184 113 395 1185 48 395 1186 33 395 1187 48 396 1188 49 396 1189 32 396 1190 59 397 1191 37 397 1192 110 397 1193 58 398 1194 36 398 1195 37 398 1196 33 399 1197 35 399 1198 108 399 1199 32 400 1200 34 400 1201 35 400 1202 37 401 1203 42 401 1204 107 401 1205 36 402 1206 43 402 1207 42 402 1208 119 403 1209 50 403 1210 48 403 1211 50 404 1212 51 404 1213 49 404 1214 18 411 1233 40 411 1234 38 411 1235 40 412 1236 41 412 1237 39 412 1238 20 413 1239 19 413 1240 51 413 1241 51 414 1242 50 414 1243 45 414 1244 18 415 1245 23 415 1246 55 415 1247 55 416 1248 54 416 1249 41 416 1250 17 417 1251 38 417 1252 43 417 1253 38 418 1254 39 418 1255 42 418 1256 93 419 1257 95 419 1258 31 419 1259 92 420 1260 94 420 1261 95 420 1262 77 421 1263 93 421 1264 30 421 1265 76 422 1266 92 422 1267 93 422 1268 317 427 1281 80 427 1282 65 427 1283 80 428 1284 81 428 1285 64 428 1286 323 429 1287 75 429 1288 82 429 1289 75 430 1290 74 430 1291 83 430 1292 318 431 1293 69 431 1294 84 431 1295 69 432 1296 68 432 1297 85 432 1298 319 433 1299 82 433 1300 80 433 1301 82 434 1302 83 434 1303 81 434 1304 19 441 1323 68 441 1324 66 441 1325 68 442 1326 69 442 1327 67 442 1328 79 443 1329 64 443 1330 13 443 1331 78 444 1332 65 444 1333 64 444 1334 71 445 1335 77 445 1336 14 445 1337 70 446 1338 76 446 1339 77 446 1340 95 447 1341 79 447 1342 15 447 1343 94 448 1344 78 448 1345 79 448 1346 16 449 1347 66 449 1348 71 449 1349 66 450 1350 67 450 1351 70 450 1352 145 459 1377 125 459 1378 110 459 1379 113 460 1380 124 460 1381 108 460 1382 146 461 1383 123 461 1384 109 461 1385 115 462 1386 122 462 1387 111 462 1388 123 463 1389 112 463 1390 105 463 1391 125 464 1392 114 464 1393 107 464 1394 159 465 1395 115 465 1396 106 465 1397 187 466 1398 113 466 1399 104 466 1400 143 467 1401 110 467 1402 198 467 1403 104 468 1404 108 468 1405 196 468 1406 174 469 1407 116 469 1408 121 469 1409 170 470 1410 118 470 1411 117 470 1412 110 471 1413 107 471 1414 185 471 1415 161 472 1416 121 472 1417 115 472 1418 189 473 1419 119 473 1420 113 473 1421 119 474 1422 126 474 1423 124 474 1424 121 475 1425 116 475 1426 122 475 1427 117 476 1428 118 476 1429 112 476 1430 127 477 1431 120 477 1432 114 477 1433 171 484 1452 135 484 1453 132 484 1454 203 485 1455 134 485 1456 133 485 1457 131 486 1458 129 486 1459 163 486 1460 188 487 1461 135 487 1462 136 487 1463 194 488 1464 139 488 1465 134 488 1466 128 489 1467 130 489 1468 154 489 1469 151 490 1470 131 490 1471 156 490 1472 169 491 1473 132 491 1474 128 491 1475 201 492 1476 133 492 1477 129 492 1478 130 493 1479 150 493 1480 176 493 1481 150 494 1482 151 494 1483 178 494 1484 108 499 1497 142 499 1498 212 499 1499 142 500 1500 143 500 1501 214 500 1502 122 501 1503 147 501 1504 141 501 1505 147 502 1506 146 502 1507 140 502 1508 124 503 1509 144 503 1510 142 503 1511 144 504 1512 145 504 1513 143 504 1514 177 509 1527 179 509 1528 141 509 1529 176 510 1530 178 510 1531 179 510 1532 155 511 1533 177 511 1534 140 511 1535 154 512 1536 176 512 1537 177 512 1538 275 513 1539 330 513 1540 335 513 1541 168 514 1542 169 514 1543 152 514 1544 179 515 1545 157 515 1546 111 515 1547 178 516 1548 156 516 1549 157 516 1550 153 517 1551 155 517 1552 109 517 1553 152 518 1554 154 518 1555 155 518 1556 157 519 1557 162 519 1558 106 519 1559 156 520 1560 163 520 1561 162 520 1562 118 521 1563 170 521 1564 168 521 1565 170 522 1566 171 522 1567 169 522 1568 134 529 1587 160 529 1588 158 529 1589 160 530 1590 161 530 1591 159 530 1592 135 531 1593 171 531 1594 164 531 1595 171 532 1596 170 532 1597 165 532 1598 139 533 1599 175 533 1600 160 533 1601 175 534 1602 174 534 1603 161 534 1604 133 535 1605 158 535 1606 163 535 1607 158 536 1608 159 536 1609 162 536 1610 213 537 1611 215 537 1612 151 537 1613 212 538 1614 214 538 1615 215 538 1616 197 539 1617 213 539 1618 150 539 1619 196 540 1620 212 540 1621 213 540 1622 114 545 1635 200 545 1636 185 545 1637 200 546 1638 201 546 1639 184 546 1640 127 547 1641 195 547 1642 202 547 1643 195 548 1644 194 548 1645 203 548 1646 119 549 1647 189 549 1648 204 549 1649 189 550 1650 188 550 1651 205 550 1652 120 551 1653 202 551 1654 200 551 1655 202 552 1656 203 552 1657 201 552 1658 135 559 1677 188 559 1678 186 559 1679 188 560 1680 189 560 1681 187 560 1682 199 561 1683 184 561 1684 129 561 1685 198 562 1686 185 562 1687 184 562 1688 191 563 1689 197 563 1690 130 563 1691 190 564 1692 196 564 1693 197 564 1694 215 565 1695 199 565 1696 131 565 1697 214 566 1698 198 566 1699 199 566 1700 132 567 1701 186 567 1702 191 567 1703 186 568 1704 187 568 1705 190 568 1706 262 577 1731 323 577 1732 319 577 1733 258 578 1734 318 578 1735 322 578 1736 24 579 1737 26 579 1738 273 579 1739 249 580 1740 319 580 1741 317 580 1742 277 581 1743 9 581 1744 11 581 1745 9 582 1746 5 582 1747 7 582 1748 4 583 1749 8 583 1750 10 583 1751 259 590 1770 227 590 1771 224 590 1772 291 591 1773 226 591 1774 225 591 1775 0 592 1776 2 592 1777 251 592 1778 276 593 1779 227 593 1780 228 593 1781 282 594 1782 231 594 1783 226 594 1784 3 595 1785 1 595 1786 242 595 1787 239 596 1788 0 596 1789 244 596 1790 257 597 1791 224 597 1792 3 597 1793 289 598 1794 225 598 1795 2 598 1796 1 599 1797 238 599 1798 264 599 1799 238 600 1800 239 600 1801 266 600 1802 25 605 1815 232 605 1816 300 605 1817 232 606 1818 233 606 1819 302 606 1820 7 607 1821 234 607 1822 232 607 1823 234 608 1824 235 608 1825 233 608 1826 265 613 1839 267 613 1840 325 613 1841 264 614 1842 266 614 1843 267 614 1844 243 615 1845 265 615 1846 324 615 1847 242 616 1848 264 616 1849 265 616 1850 316 617 1851 256 617 1852 241 617 1853 256 618 1854 257 618 1855 240 618 1856 267 619 1857 245 619 1858 315 619 1859 266 620 1860 244 620 1861 245 620 1862 241 621 1863 243 621 1864 314 621 1865 240 622 1866 242 622 1867 243 622 1868 245 623 1869 250 623 1870 313 623 1871 244 624 1872 251 624 1873 250 624 1874 318 625 1875 258 625 1876 256 625 1877 258 626 1878 259 626 1879 257 626 1880 226 633 1899 248 633 1900 246 633 1901 248 634 1902 249 634 1903 247 634 1904 227 635 1905 259 635 1906 252 635 1907 259 636 1908 258 636 1909 253 636 1910 231 637 1911 263 637 1912 248 637 1913 263 638 1914 262 638 1915 249 638 1916 225 639 1917 246 639 1918 251 639 1919 246 640 1920 247 640 1921 250 640 1922 301 641 1923 303 641 1924 239 641 1925 300 642 1926 302 642 1927 303 642 1928 285 643 1929 301 643 1930 238 643 1931 284 644 1932 300 644 1933 301 644 1934 10 649 1947 288 649 1948 273 649 1949 288 650 1950 289 650 1951 272 650 1952 4 651 1953 283 651 1954 290 651 1955 283 652 1956 282 652 1957 291 652 1958 9 653 1959 277 653 1960 292 653 1961 277 654 1962 276 654 1963 293 654 1964 8 655 1965 290 655 1966 288 655 1967 290 656 1968 291 656 1969 289 656 1970 227 663 1989 276 663 1990 274 663 1991 276 664 1992 277 664 1993 275 664 1994 287 665 1995 272 665 1996 2 665 1997 286 666 1998 273 666 1999 272 666 2000 279 667 2001 285 667 2002 1 667 2003 278 668 2004 284 668 2005 285 668 2006 303 669 2007 287 669 2008 0 669 2009 302 670 2010 286 670 2011 287 670 2012 224 671 2013 274 671 2014 279 671 2015 274 672 2016 275 672 2017 278 672 2018 327 681 2043 321 681 2044 315 681 2045 316 682 2046 320 682 2047 314 682 2048 321 683 2049 317 683 2050 313 683 2051 318 684 2052 322 684 2053 320 684 2054 323 685 2055 319 685 2056 317 685 2057 320 686 2058 326 686 2059 324 686 2060 326 687 2061 327 687 2062 325 687 2063 330 688 2064 328 688 2065 329 688 2066 333 689 2067 334 689 2068 331 689 2069 11 690 2070 328 690 2071 330 690 2072 112 691 2073 333 691 2074 332 691 2075 27 692 2076 329 692 2077 328 692 2078 153 693 2079 331 693 2080 334 693 2081 105 694 2082 332 694 2083 331 694 2084 168 695 2085 334 695 2086 333 695 2087</p>
        </triangles>
        <triangles material="lightgrey-material" count="60">
          <input semantic="VERTEX" source="#Cube-mesh-vertices" offset="0"/>
          <input semantic="NORMAL" source="#Cube-mesh-normals" offset="1"/>
          <input semantic="TEXCOORD" source="#Cube-mesh-map-0" offset="2" set="0"/>
          <p>62 40 120 61 40 121 60 40 122 90 76 228 89 76 229 88 76 230 61 103 309 96 103 310 60 103 311 62 104 312 99 104 313 63 104 314 60 105 315 98 105 316 62 105 317 63 106 318 97 106 319 61 106 320 89 107 321 100 107 322 88 107 323 90 108 324 103 108 325 91 108 326 88 109 327 102 109 328 90 109 329 91 110 330 101 110 331 89 110 332 182 158 474 181 158 475 180 158 476 210 194 582 209 194 583 208 194 584 180 221 663 217 221 664 216 221 665 182 222 666 219 222 667 183 222 668 180 223 669 218 223 670 182 223 671 183 224 672 217 224 673 181 224 674 209 225 675 220 225 676 208 225 677 211 226 678 222 226 679 223 226 680 208 227 681 222 227 682 210 227 683 211 228 684 221 228 685 209 228 686 270 262 786 269 262 787 268 262 788 298 298 894 297 298 895 296 298 896 268 325 975 305 325 976 304 325 977 270 326 978 307 326 979 271 326 980 268 327 981 306 327 982 270 327 983 271 328 984 305 328 985 269 328 986 297 329 987 308 329 988 296 329 989 298 330 990 311 330 991 299 330 992 296 331 993 310 331 994 298 331 995 299 332 996 309 332 997 297 332 998 62 388 1164 63 388 1165 61 388 1166 90 424 1272 91 424 1273 89 424 1274 61 451 1353 97 451 1354 96 451 1355 62 452 1356 98 452 1357 99 452 1358 60 453 1359 96 453 1360 98 453 1361 63 454 1362 99 454 1363 97 454 1364 89 455 1365 101 455 1366 100 455 1367 90 456 1368 102 456 1369 103 456 1370 88 457 1371 100 457 1372 102 457 1373 91 458 1374 103 458 1375 101 458 1376 182 506 1518 183 506 1519 181 506 1520 210 542 1626 211 542 1627 209 542 1628 180 569 1707 181 569 1708 217 569 1709 182 570 1710 218 570 1711 219 570 1712 180 571 1713 216 571 1714 218 571 1715 183 572 1716 219 572 1717 217 572 1718 209 573 1719 221 573 1720 220 573 1721 211 574 1722 210 574 1723 222 574 1724 208 575 1725 220 575 1726 222 575 1727 211 576 1728 223 576 1729 221 576 1730 270 610 1830 271 610 1831 269 610 1832 298 646 1938 299 646 1939 297 646 1940 268 673 2019 269 673 2020 305 673 2021 270 674 2022 306 674 2023 307 674 2024 268 675 2025 304 675 2026 306 675 2027 271 676 2028 307 676 2029 305 676 2030 297 677 2031 309 677 2032 308 677 2033 298 678 2034 310 678 2035 311 678 2036 296 679 2037 308 679 2038 310 679 2039 299 680 2040 311 680 2041 309 680 2042</p>
        </triangles>
        <triangles material="darkgrey-material" count="168">
          <input semantic="VERTEX" source="#Cube-mesh-vertices" offset="0"/>
          <input semantic="NORMAL" source="#Cube-mesh-normals" offset="1"/>
          <input semantic="TEXCOORD" source="#Cube-mesh-map-0" offset="2" set="0"/>
          <p>52 14 42 144 14 43 99 14 44 45 15 45 124 15 46 52 15 47 47 16 48 127 16 49 54 16 50 103 17 51 21 17 52 28 17 53 85 18 54 21 18 55 72 18 56 87 19 57 23 19 58 74 19 59 101 31 93 22 31 94 87 31 95 103 32 96 29 32 97 101 32 98 97 33 99 125 33 100 47 33 101 99 34 102 145 34 103 97 34 104 28 39 117 96 39 118 29 39 119 29 41 123 46 41 124 22 41 125 96 42 126 47 42 127 46 42 128 22 57 171 55 57 172 23 57 173 46 58 174 54 58 175 55 58 176 20 59 177 53 59 178 21 59 179 44 60 180 52 60 181 53 60 182 28 61 183 53 61 184 98 61 185 53 62 186 99 62 187 98 62 188 326 75 225 100 75 226 327 75 227 327 77 231 86 77 232 321 77 233 100 78 234 87 78 235 86 78 236 321 87 261 75 87 262 323 87 263 86 88 264 74 88 265 75 88 266 322 89 267 73 89 268 320 89 269 84 90 270 72 90 271 73 90 272 320 91 273 102 91 274 326 91 275 73 92 276 103 92 277 102 92 278 172 130 390 146 130 391 219 130 392 165 131 393 123 131 394 172 131 395 167 132 396 116 132 397 174 132 398 192 133 399 148 133 400 223 133 401 205 134 402 137 134 403 192 134 404 207 135 405 139 135 406 194 135 407 221 147 441 138 147 442 207 147 443 223 148 444 149 148 445 221 148 446 217 149 447 122 149 448 167 149 449 219 150 450 147 150 451 217 150 452 148 157 471 216 157 472 149 157 473 149 159 477 166 159 478 138 159 479 216 160 480 167 160 481 166 160 482 138 175 525 175 175 526 139 175 527 166 176 528 174 176 529 175 176 530 136 177 531 173 177 532 137 177 533 164 178 534 172 178 535 173 178 536 137 179 537 218 179 538 148 179 539 173 180 540 219 180 541 218 180 542 144 193 579 220 193 580 145 193 581 145 195 585 206 195 586 125 195 587 220 196 588 207 196 589 206 196 590 125 205 615 195 205 616 127 205 617 206 206 618 194 206 619 195 206 620 126 207 621 193 207 622 124 207 623 204 208 624 192 208 625 193 208 626 124 209 627 222 209 628 144 209 629 193 210 630 223 210 631 222 210 632 260 236 708 326 236 709 307 236 710 253 237 711 320 237 712 260 237 713 255 238 714 323 238 715 262 238 716 280 239 717 236 239 718 311 239 719 293 240 720 229 240 721 280 240 722 295 241 723 231 241 724 282 241 725 309 253 759 230 253 760 295 253 761 311 254 762 237 254 763 309 254 764 305 255 765 321 255 766 255 255 767 307 256 768 327 256 769 305 256 770 236 261 783 304 261 784 237 261 785 237 263 789 254 263 790 230 263 791 304 264 792 255 264 793 254 264 794 230 279 837 263 279 838 231 279 839 254 280 840 262 280 841 263 280 842 228 281 843 261 281 844 229 281 845 252 282 846 260 282 847 261 282 848 229 283 849 306 283 850 236 283 851 261 284 852 307 284 853 306 284 854 234 297 891 308 297 892 235 297 893 235 299 897 294 299 898 6 299 899 308 300 900 295 300 901 294 300 902 6 309 927 283 309 928 4 309 929 294 310 930 282 310 931 283 310 932 5 311 933 281 311 934 7 311 935 292 312 936 280 312 937 281 312 938 7 313 939 310 313 940 234 313 941 281 314 942 311 314 943 310 314 944 52 362 1086 124 362 1087 144 362 1088 45 363 1089 126 363 1090 124 363 1091 47 364 1092 125 364 1093 127 364 1094 103 365 1095 72 365 1096 21 365 1097 85 366 1098 20 366 1099 21 366 1100 87 367 1101 22 367 1102 23 367 1103 101 379 1137 29 379 1138 22 379 1139 103 380 1140 28 380 1141 29 380 1142 97 381 1143 145 381 1144 125 381 1145 99 382 1146 144 382 1147 145 382 1148 28 387 1161 98 387 1162 96 387 1163 29 389 1167 96 389 1168 46 389 1169 96 390 1170 97 390 1171 47 390 1172 22 405 1215 46 405 1216 55 405 1217 46 406 1218 47 406 1219 54 406 1220 20 407 1221 44 407 1222 53 407 1223 44 408 1224 45 408 1225 52 408 1226 28 409 1227 21 409 1228 53 409 1229 53 410 1230 52 410 1231 99 410 1232 326 423 1269 102 423 1270 100 423 1271 327 425 1275 100 425 1276 86 425 1277 100 426 1278 101 426 1279 87 426 1280 321 435 1305 86 435 1306 75 435 1307 86 436 1308 87 436 1309 74 436 1310 322 437 1311 84 437 1312 73 437 1313 84 438 1314 85 438 1315 72 438 1316 320 439 1317 73 439 1318 102 439 1319 73 440 1320 72 440 1321 103 440 1322 172 478 1434 123 478 1435 146 478 1436 165 479 1437 117 479 1438 123 479 1439 167 480 1440 122 480 1441 116 480 1442 192 481 1443 137 481 1444 148 481 1445 205 482 1446 136 482 1447 137 482 1448 207 483 1449 138 483 1450 139 483 1451 221 495 1485 149 495 1486 138 495 1487 223 496 1488 148 496 1489 149 496 1490 217 497 1491 147 497 1492 122 497 1493 219 498 1494 146 498 1495 147 498 1496 148 505 1515 218 505 1516 216 505 1517 149 507 1521 216 507 1522 166 507 1523 216 508 1524 217 508 1525 167 508 1526 138 523 1569 166 523 1570 175 523 1571 166 524 1572 167 524 1573 174 524 1574 136 525 1575 164 525 1576 173 525 1577 164 526 1578 165 526 1579 172 526 1580 137 527 1581 173 527 1582 218 527 1583 173 528 1584 172 528 1585 219 528 1586 144 541 1623 222 541 1624 220 541 1625 145 543 1629 220 543 1630 206 543 1631 220 544 1632 221 544 1633 207 544 1634 125 553 1659 206 553 1660 195 553 1661 206 554 1662 207 554 1663 194 554 1664 126 555 1665 204 555 1666 193 555 1667 204 556 1668 205 556 1669 192 556 1670 124 557 1671 193 557 1672 222 557 1673 193 558 1674 192 558 1675 223 558 1676 260 584 1752 320 584 1753 326 584 1754 253 585 1755 322 585 1756 320 585 1757 255 586 1758 321 586 1759 323 586 1760 280 587 1761 229 587 1762 236 587 1763 293 588 1764 228 588 1765 229 588 1766 295 589 1767 230 589 1768 231 589 1769 309 601 1803 237 601 1804 230 601 1805 311 602 1806 236 602 1807 237 602 1808 305 603 1809 327 603 1810 321 603 1811 307 604 1812 326 604 1813 327 604 1814 236 609 1827 306 609 1828 304 609 1829 237 611 1833 304 611 1834 254 611 1835 304 612 1836 305 612 1837 255 612 1838 230 627 1881 254 627 1882 263 627 1883 254 628 1884 255 628 1885 262 628 1886 228 629 1887 252 629 1888 261 629 1889 252 630 1890 253 630 1891 260 630 1892 229 631 1893 261 631 1894 306 631 1895 261 632 1896 260 632 1897 307 632 1898 234 645 1935 310 645 1936 308 645 1937 235 647 1941 308 647 1942 294 647 1943 308 648 1944 309 648 1945 295 648 1946 6 657 1971 294 657 1972 283 657 1973 294 658 1974 295 658 1975 282 658 1976 5 659 1977 292 659 1978 281 659 1979 292 660 1980 293 660 1981 280 660 1982 7 661 1983 281 661 1984 310 661 1985 281 662 1986 280 662 1987 311 662 1988</p>
        </triangles>
      </mesh>
    </geometry>
  </library_geometries>
  <library_visual_scenes>
    <visual_scene id="Scene" name="Scene">
      <node id="Cube" name="Cube" type="NODE">
        <matrix sid="transform">1 0 0 0 0 1 0 0 0 0 1 0 0 0 0 1</matrix>
        <instance_geometry url="#Cube-mesh" name="Cube">
          <bind_material>
            <technique_common>
              <instance_material symbol="paintable-0-material" target="#paintable-0-material">
                <bind_vertex_input semantic="UVMap" input_semantic="TEXCOORD" input_set="0"/>
              </instance_material>
              <instance_material symbol="paintable-1-material" target="#paintable-1-material">
                <bind_vertex_input semantic="UVMap" input_semantic="TEXCOORD" input_set="0"/>
              </instance_material>
              <instance_material symbol="lightgrey-material" target="#lightgrey-material">
                <bind_vertex_input semantic="UVMap" input_semantic="TEXCOORD" input_set="0"/>
              </instance_material>
              <instance_material symbol="darkgrey-material" target="#darkgrey-material">
                <bind_vertex_input semantic="UVMap" input_semantic="TEXCOORD" input_set="0"/>
              </instance_material>
              <instance_material symbol="MATERIALadditive-material" target="#MATERIALadditive-material">
                <bind_vertex_input semantic="UVMap" input_semantic="TEXCOORD" input_set="0"/>
              </instance_material>
              <instance_material symbol="MATERIALglass-material" target="#MATERIALglass-material">
                <bind_vertex_input semantic="UVMap" input_semantic="TEXCOORD" input_set="0"/>
              </instance_material>
            </technique_common>
          </bind_material>
        </instance_geometry>
      </node>
    </visual_scene>
  </library_visual_scenes>
  <scene>
    <instance_visual_scene url="#Scene"/>
  </scene>
</COLLADA>