<?xml version="1.0" encoding="utf-8"?>
<COLLADA xmlns="http://www.collada.org/2005/11/COLLADASchema" version="1.4.1" xmlns:xsi="http://www.w3.org/2001/XMLSchema-instance">
  <asset>
    <contributor>
      <author>Blender User</author>
      <authoring_tool>Blender 4.2.23 LTS commit date:2026-07-20, commit time:13:44, hash:d0cbe84903e8</authoring_tool>
    </contributor>
    <created>2026-08-02T16:55:27</created>
    <modified>2026-08-02T16:55:27</modified>
    <unit name="meter" meter="1"/>
    <up_axis>Z_UP</up_axis>
  </asset>
  <library_effects>
    <effect id="paintable-0-effect">
      <profile_COMMON>
        <technique sid="common">
          <lambert>
            <emission>
              <color sid="emission">0 0 0 1</color>
            </emission>
            <diffuse>
              <color sid="diffuse">1 0.4969335 0 1</color>
            </diffuse>
            <index_of_refraction>
              <float sid="ior">1.45</float>
            </index_of_refraction>
          </lambert>
        </technique>
      </profile_COMMON>
    </effect>
    <effect id="paintable-1-effect">
      <profile_COMMON>
        <technique sid="common">
          <lambert>
            <emission>
              <color sid="emission">0 0 0 1</color>
            </emission>
            <diffuse>
              <color sid="diffuse">0.6104922 0.4910214 0 1</color>
            </diffuse>
            <index_of_refraction>
              <float sid="ior">1.5</float>
            </index_of_refraction>
          </lambert>
        </technique>
      </profile_COMMON>
    </effect>
    <effect id="lightgrey-effect">
      <profile_COMMON>
        <technique sid="common">
          <lambert>
            <emission>
              <color sid="emission">0 0 0 1</color>
            </emission>
            <diffuse>
              <color sid="diffuse">0.7835327 0.7835385 0.7835382 1</color>
            </diffuse>
            <index_of_refraction>
              <float sid="ior">1.5</float>
            </index_of_refraction>
          </lambert>
        </technique>
      </profile_COMMON>
    </effect>
    <effect id="darkgrey-effect">
      <profile_COMMON>
        <technique sid="common">
          <lambert>
            <emission>
              <color sid="emission">0 0 0 1</color>
            </emission>
            <diffuse>
              <color sid="diffuse">0.3371614 0.3371639 0.3371637 1</color>
            </diffuse>
            <index_of_refraction>
              <float sid="ior">1.5</float>
            </index_of_refraction>
          </lambert>
        </technique>
      </profile_COMMON>
    </effect>
    <effect id="MATERIALadditive-effect">
      <profile_COMMON>
        <technique sid="common">
          <lambert>
            <emission>
              <color sid="emission">0 0 0 1</color>
            </emission>
            <diffuse>
              <color sid="diffuse">0.8 0.8 0.8 1</color>
            </diffuse>
            <index_of_refraction>
              <float sid="ior">1.5</float>
            </index_of_refraction>
          </lambert>
        </technique>
      </profile_COMMON>
    </effect>
    <effect id="MATERIALglass-effect">
      <profile_COMMON>
        <technique sid="common">
          <lambert>
            <emission>
              <color sid="emission">0 0 0 1</color>
            </emission>
            <diffuse>
              <color sid="diffuse">0.8 0.8 0.8 1</color>
            </diffuse>
            <index_of_refraction>
              <float sid="ior">1.5</float>
            </index_of_refraction>
          </lambert>
        </technique>
      </profile_COMMON>
    </effect>
  </library_effects>
  <library_images/>
  <library_materials>
    <material id="paintable-0-material" name="paintable-0">
      <instance_effect url="#paintable-0-effect"/>
    </material>
    <material id="paintable-1-material" name="paintable-1">
      <instance_effect url="#paintable-1-effect"/>
    </material>
    <material id="lightgrey-material" name="lightgrey">
      <instance_effect url="#lightgrey-effect"/>
    </material>
    <material id="darkgrey-material" name="darkgrey">
      <instance_effect url="#darkgrey-effect"/>
    </material>
    <material id="MATERIALadditive-material" name="MATERIALadditive">
      <instance_effect url="#MATERIALadditive-effect"/>
    </material>
    <material id="MATERIALglass-material" name="MATERIALglass">
      <instance_effect url="#MATERIALglass-effect"/>
    </material>
  </library_materials>
  <library_geometries>
    <geometry id="Cube-mesh" name="Cube">
      <mesh>
        <source id="Cube-mesh-positions">
          <float_array id="Cube-mesh-positions-array" count="204">0.0625 0.03499996 -0.125 -0.0625 0.03499996 -0.125 -0.0625 -0.03499996 -0.125 0.0625 -0.03499996 -0.125 0.0625 0.02499997 -0.125 -0.0625 0.02499997 -0.125 0.0625 -0.02499997 -0.125 -0.0625 -0.02499997 -0.125 -0.0625 0.03499996 -0.1149996 0.0625 0.03499996 -0.1149996 0.0625 -0.03499996 -0.1149996 -0.0625 -0.03499996 -0.1149996 -0.0625 -0.02499997 -0.09499961 -0.0625 0.02499997 -0.09499961 -0.0625 0.03499996 -0.09499961 0.0625 0.03499996 -0.09499961 0.0625 -0.03499996 -0.09499961 -0.0625 -0.03499996 -0.09499961 -0.0625 -0.02499997 -0.1149996 -0.0625 0.02499997 -0.1149996 0.0625 0.02499997 -0.1149996 0.0625 -0.02499997 -0.1149996 0.0625 0.02499997 -0.09499961 0.0625 -0.02499997 -0.09499961 -0.0625 0.01499998 -0.125 -0.0625 -0.01499998 -0.125 0.0625 0.01499998 -0.125 0.0625 -0.01499998 -0.125 0.0625 0.01499998 -0.1149996 0.0625 -0.01499998 -0.1149996 -0.0625 0.01499998 -0.1149996 -0.0625 -0.01499998 -0.1149996 0.05249994 0.03499996 -0.125 -0.0525 0.03499996 -0.125 0.05249994 0.02499997 -0.125 -0.0525 0.02499997 -0.125 0.05249994 -0.02499997 -0.125 -0.0525 -0.02499997 -0.125 0.05249994 -0.03499996 -0.1149996 -0.0525 -0.03499996 -0.1149996 0.05249994 -0.03499996 -0.09499961 -0.0525 -0.03499996 -0.09499961 -0.0525 -0.03499996 -0.125 0.05249994 -0.03499996 -0.125 0.05249994 0.02499997 -0.09499961 -0.0525 0.02499997 -0.09499961 0.05249994 -0.02499997 -0.1149996 -0.0525 -0.02499997 -0.1149996 -0.0525 0.03499996 -0.1149996 0.05249994 0.03499996 -0.1149996 -0.0525 0.03499996 -0.09499961 0.05249994 0.03499996 -0.09499961 -0.0525 0.02499997 -0.1149996 0.05249994 0.02499997 -0.1149996 -0.0525 -0.02499997 -0.09499961 0.05249994 -0.02499997 -0.09499961 0.05249994 0.01499998 -0.125 -0.0525 0.01499998 -0.125 0.05249994 -0.01499998 -0.125 -0.0525 -0.01499998 -0.125 0.04249995 -0.004999995 -0.1249997 -0.04250001 -0.004999995 -0.1249997 0.04249995 0.004999995 -0.1249997 -0.04250001 0.004999995 -0.1249997 0.05249994 -0.01499998 -0.1149996 -0.0525 -0.01499998 -0.1149996 0.05249994 0.01499998 -0.1149996 -0.0525 0.01499998 -0.1149996</float_array>
          <technique_common>
            <accessor source="#Cube-mesh-positions-array" count="68" stride="3">
              <param name="X" type="float"/>
              <param name="Y" type="float"/>
              <param name="Z" type="float"/>
            </accessor>
          </technique_common>
        </source>
        <source id="Cube-mesh-normals">
          <float_array id="Cube-mesh-normals-array" count="396">1 0 0 1 0 0 -1 0 0 -1 0 0 -1 0 0 1 0 0 0 -1 0 0 0 1 0 0 1 0 -1 0 1 0 0 -1 0 0 -1 0 0 1 0 0 0 0 1 0 -1 0 0 1 0 0 1 0 0 0 -1 0 0 -1 0 0 -1 0 1 0 0 0 -1 0 0 -1 0 0 1 0 0 1 -1 0 0 -1 0 0 1 0 0 1 0 0 0 0 1 0 0 1 0 0 1 0 0 1 0 0 -1 0 0 -1 0 0 -1 0 0 -1 0 1 0 0 1 0 0 0 -1 0 0 -1 0 0 -1 0 0 -1 0 0 -1 0 0 -1 0 1 0 0 1 0 0 1 0 0 1 0 0 -1 0 0 -1 0 0 0 1 0 0 1 0 -1 0 0 -1 0 0 0 1 0 0 1 0 0 1 0 0 1 0 -1 0 0 -1 0 0 0.707107 0.7071065 0 -0.707107 0.7071065 -0.7071071 0 0.7071065 0.7071071 0 0.7071065 1 0 0 1 0 0 -1 0 0 -1 0 0 -1 0 0 1 0 0 0 -1 0 0 0 1 0 0 1 0 -1 0 1 0 0 -1 0 0 -1 0 0 1 0 0 0 0 1 0 -1 0 0 1 0 0 1 0 0 0 -1 0 0 -1 0 0 -1 0 1 0 0 0 -1 0 0 -1 0 0 1 0 0 1 -1 0 0 -1 0 0 1 0 0 1 0 0 0 0 1 0 0 1 0 0 1 0 0 1 0 0 -1 0 0 -1 0 0 -1 0 0 -1 0 1 0 0 1 0 0 0 -1 0 0 -1 0 0 -1 0 0 -1 0 0 -1 0 0 -1 0 1 0 0 1 0 0 1 0 0 1 0 0 -1 0 0 -1 0 0 0 1 0 0 1 0 -1 0 0 -1 0 0 0 1 0 0 1 0 0 1 0 0 1 0 -1 0 0 -1 0 0 0.707107 0.7071066 0 -0.707107 0.7071066 -0.707107 0 0.7071065 0.707107 0 0.7071065</float_array>
          <technique_common>
            <accessor source="#Cube-mesh-normals-array" count="132" stride="3">
              <param name="X" type="float"/>
              <param name="Y" type="float"/>
              <param name="Z" type="float"/>
            </accessor>
          </technique_common>
        </source>
        <source id="Cube-mesh-map-0">
          <float_array id="Cube-mesh-map-0-array" count="792">0.4375 0.6388888 0.375 0.6666666 0.375 0.6388888 0.4375 0.5 0.375 0.5833333 0.375 0.5 0.4375 0.1388888 0.375 0.1666666 0.375 0.1388888 0.4375 0 0.375 0.08333331 0.375 0 0.4375 0.1666666 0.375 0.25 0.375 0.1666666 0.4375 0.6666666 0.375 0.75 0.375 0.6666666 0.4375 0.9027777 0.375 0.9166666 0.375 0.9027777 0.5 0.3101851 0.5 0.25 0.5 0.2916666 0.5 0.3472222 0.5 0.3055555 0.5 0.3287037 0.46875 0.9027777 0.4375 0.9166666 0.4375 0.9027777 0.46875 0.5 0.4375 0.5833334 0.4375 0.5 0.46875 0 0.4375 0.08333331 0.4375 0 0.46875 0.1666666 0.4375 0.25 0.4375 0.1666666 0.46875 0.6666666 0.4375 0.75 0.4375 0.6666666 0.4375 0.5833334 0.4375 0.6111111 0.4375 0.6111111 0.46875 0.5833334 0.4375 0.5833334 0.4375 0.5833334 0.4375 0.6666666 0.46875 0.6666666 0.46875 0.6666666 0.46875 0.3611111 0.4375 0.375 0.4375 0.3611111 0.25 0.6666666 0.2361111 0.75 0.2361111 0.6666667 0.25 0.5 0.2361111 0.5833333 0.2361111 0.5 0.25 0.6388888 0.2361111 0.6666667 0.2361111 0.6388888 0.4375 0.3611111 0.375 0.375 0.375 0.3611111 0.25 0.5833333 0.2361111 0.6111111 0.2361111 0.5833333 0.25 0.6111111 0.2361111 0.6388888 0.2361111 0.6111111 0.4375 0.6388888 0.4375 0.6666666 0.4375 0.6666666 0.4375 0.6111111 0.4375 0.6388888 0.4375 0.6388888 0.4375 0.08333331 0.375 0.1111111 0.375 0.08333331 0.4375 0.1111111 0.375 0.1388888 0.375 0.1111111 0.4375 0.5833334 0.375 0.6111111 0.375 0.5833333 0.4375 0.6111111 0.375 0.6388888 0.375 0.6111111 0.4375 0.6111111 0.4375 0.6388888 0.4375 0.6388888 0.4375 0.6203703 0.4375 0.6296296 0.4375 0.6296296 0.4375 0.6388888 0.4375 0.6666666 0.4375 0.6666666 0.4375 0.6388888 0.4375 0.6666666 0.4375 0.6666666 0.2222222 0.6111111 0.2083333 0.6388888 0.2083333 0.6111111 0.2361111 0.6111111 0.2222222 0.6388888 0.2222222 0.6111111 0.2222222 0.5833333 0.2083333 0.6111111 0.2083333 0.5833333 0.2361111 0.5833333 0.2222222 0.6111111 0.2222222 0.5833333 0.4375 0.3333333 0.375 0.3472222 0.375 0.3333333 0.4375 0.3472222 0.375 0.3611111 0.375 0.3472222 0.2222222 0.6388888 0.2083333 0.6666666 0.2083333 0.6388888 0.2361111 0.6388888 0.2222222 0.6666666 0.2222222 0.6388888 0.2222222 0.5 0.2083333 0.5833333 0.2083333 0.5 0.2361111 0.5 0.2222222 0.5833333 0.2222222 0.5 0.2222222 0.6666666 0.2083333 0.75 0.2083333 0.6666666 0.2361111 0.6666667 0.2222222 0.75 0.2222222 0.6666666 0.46875 0.3333333 0.4375 0.3472222 0.4375 0.3333333 0.46875 0.3472222 0.4375 0.3611111 0.4375 0.3472222 0.4375 0.6666666 0.46875 0.6666666 0.46875 0.6666666 0.4375 0.6666666 0.46875 0.6666666 0.46875 0.6666666 0.46875 0.5833334 0.4375 0.5833334 0.4375 0.5833334 0.46875 0.5833334 0.4375 0.5833334 0.4375 0.5833334 0.4375 0.6111111 0.4375 0.5833334 0.4375 0.611111 0.4375 0.5833334 0.4375 0.6111111 0.4375 0.611111 0.46875 0.875 0.4375 0.8888888 0.4375 0.875 0.46875 0.8888888 0.4375 0.9027777 0.4375 0.8888888 0.5 0.375 0.5 0.3611111 0.5 0.3518518 0.5 0.3611111 0.5 0.3287037 0.5 0.3518518 0.5 0.375 0.5 0.3425925 0.5 0.3333333 0.5 0.3425925 0.5 0.2916666 0.5 0.3333333 0.4375 0.875 0.375 0.8888888 0.375 0.875 0.4375 0.8888888 0.375 0.9027777 0.375 0.8888888 0.4375 0.6296296 0.4375 0.6388888 0.4375 0.6296296 0.4375 0.6203703 0.4375 0.6111111 0.4375 0.6203703 0.4375 0.6296296 0.4375 0.611111 0.4375 0.6203703 0.4375 0.6203703 0.4375 0.6388888 0.4375 0.6296296 0.4375 0.6388888 0.4375 0.6666666 0.375 0.6666666 0.4375 0.5 0.4375 0.5833334 0.375 0.5833333 0.4375 0.1388888 0.4375 0.1666666 0.375 0.1666666 0.4375 0 0.4375 0.08333331 0.375 0.08333331 0.4375 0.1666666 0.4375 0.25 0.375 0.25 0.4375 0.6666666 0.4375 0.75 0.375 0.75 0.4375 0.9027777 0.4375 0.9166666 0.375 0.9166666 0.5 0.3101851 0.5 0.2777777 0.5 0.25 0.5 0.3472222 0.5 0.3333333 0.5 0.3055555 0.46875 0.9027777 0.46875 0.9166666 0.4375 0.9166666 0.46875 0.5 0.46875 0.5833334 0.4375 0.5833334 0.46875 0 0.46875 0.08333331 0.4375 0.08333331 0.46875 0.1666666 0.46875 0.25 0.4375 0.25 0.46875 0.6666666 0.46875 0.75 0.4375 0.75 0.4375 0.5833334 0.4375 0.5833334 0.4375 0.6111111 0.46875 0.5833334 0.46875 0.5833334 0.4375 0.5833334 0.4375 0.6666666 0.4375 0.6666666 0.46875 0.6666666 0.46875 0.3611111 0.46875 0.375 0.4375 0.375 0.25 0.6666666 0.25 0.75 0.2361111 0.75 0.25 0.5 0.25 0.5833333 0.2361111 0.5833333 0.25 0.6388888 0.25 0.6666666 0.2361111 0.6666667 0.4375 0.3611111 0.4375 0.375 0.375 0.375 0.25 0.5833333 0.25 0.6111111 0.2361111 0.6111111 0.25 0.6111111 0.25 0.6388888 0.2361111 0.6388888 0.4375 0.6388888 0.4375 0.6388888 0.4375 0.6666666 0.4375 0.6111111 0.4375 0.6111111 0.4375 0.6388888 0.4375 0.08333331 0.4375 0.1111111 0.375 0.1111111 0.4375 0.1111111 0.4375 0.1388888 0.375 0.1388888 0.4375 0.5833334 0.4375 0.6111111 0.375 0.6111111 0.4375 0.6111111 0.4375 0.6388888 0.375 0.6388888 0.4375 0.6111111 0.4375 0.611111 0.4375 0.6388888 0.4375 0.6203703 0.4375 0.6203703 0.4375 0.6296296 0.4375 0.6388888 0.4375 0.6388888 0.4375 0.6666666 0.4375 0.6388888 0.4375 0.6388888 0.4375 0.6666666 0.2222222 0.6111111 0.2222222 0.6388888 0.2083333 0.6388888 0.2361111 0.6111111 0.2361111 0.6388888 0.2222222 0.6388888 0.2222222 0.5833333 0.2222222 0.6111111 0.2083333 0.6111111 0.2361111 0.5833333 0.2361111 0.6111111 0.2222222 0.6111111 0.4375 0.3333333 0.4375 0.3472222 0.375 0.3472222 0.4375 0.3472222 0.4375 0.3611111 0.375 0.3611111 0.2222222 0.6388888 0.2222222 0.6666666 0.2083333 0.6666666 0.2361111 0.6388888 0.2361111 0.6666667 0.2222222 0.6666666 0.2222222 0.5 0.2222222 0.5833333 0.2083333 0.5833333 0.2361111 0.5 0.2361111 0.5833333 0.2222222 0.5833333 0.2222222 0.6666666 0.2222222 0.75 0.2083333 0.75 0.2361111 0.6666667 0.2361111 0.75 0.2222222 0.75 0.46875 0.3333333 0.46875 0.3472222 0.4375 0.3472222 0.46875 0.3472222 0.46875 0.3611111 0.4375 0.3611111 0.4375 0.6666666 0.4375 0.6666666 0.46875 0.6666666 0.4375 0.6666666 0.4375 0.6666666 0.46875 0.6666666 0.46875 0.5833334 0.46875 0.5833334 0.4375 0.5833334 0.46875 0.5833334 0.46875 0.5833334 0.4375 0.5833334 0.4375 0.6111111 0.4375 0.5833334 0.4375 0.5833334 0.4375 0.5833334 0.4375 0.5833334 0.4375 0.6111111 0.46875 0.875 0.46875 0.8888888 0.4375 0.8888888 0.46875 0.8888888 0.46875 0.9027777 0.4375 0.9027777 0.5 0.375 0.5 0.375 0.5 0.3611111 0.5 0.3611111 0.5 0.3472222 0.5 0.3287037 0.5 0.375 0.5 0.375 0.5 0.3425925 0.5 0.3425925 0.5 0.3101851 0.5 0.2916666 0.4375 0.875 0.4375 0.8888888 0.375 0.8888888 0.4375 0.8888888 0.4375 0.9027777 0.375 0.9027777 0.4375 0.6296296 0.4375 0.6388888 0.4375 0.6388888 0.4375 0.6203703 0.4375 0.611111 0.4375 0.6111111 0.4375 0.6296296 0.4375 0.6388888 0.4375 0.611111 0.4375 0.6203703 0.4375 0.6111111 0.4375 0.6388888</float_array>
          <technique_common>
            <accessor source="#Cube-mesh-map-0-array" count="396" stride="2">
              <param name="S" type="float"/>
              <param name="T" type="float"/>
            </accessor>
          </technique_common>
        </source>
        <vertices id="Cube-mesh-vertices">
          <input semantic="POSITION" source="#Cube-mesh-positions"/>
        </vertices>
        <triangles material="paintable-0-material" count="94">
          <input semantic="VERTEX" source="#Cube-mesh-vertices" offset="0"/>
          <input semantic="NORMAL" source="#Cube-mesh-normals" offset="1"/>
          <input semantic="TEXCOORD" source="#Cube-mesh-map-0" offset="2" set="0"/>
          <p>29 0 0 6 0 1 27 0 2 9 1 3 4 1 4 0 1 5 30 2 6 5 2 7 24 2 8 11 3 9 7 3 10 2 3 11 19 4 12 1 4 13 5 4 14 21 5 15 3 5 16 6 5 17 39 6 18 2 6 19 42 6 20 54 7 21 17 7 22 41 7 23 50 8 24 13 8 25 45 8 26 41 9 27 11 9 28 39 9 29 15 10 30 20 10 31 9 10 32 17 11 33 18 11 34 11 11 35 13 12 36 8 12 37 19 12 38 23 13 39 10 13 40 21 13 41 51 17 51 9 17 52 49 17 53 6 18 54 43 18 55 36 18 56 0 19 57 34 19 58 32 19 59 27 20 60 36 20 61 58 20 62 49 21 63 0 21 64 32 21 65 4 22 66 56 22 67 34 22 68 26 23 69 58 23 70 56 23 71 18 26 78 25 26 79 7 26 80 31 27 81 24 27 82 25 27 83 20 28 84 26 28 85 4 28 86 28 29 87 27 29 88 26 29 89 57 34 102 25 34 103 24 34 104 56 35 105 59 35 106 57 35 107 35 36 108 24 36 109 5 36 110 34 37 111 57 37 112 35 37 113 8 38 114 33 38 115 1 38 116 48 39 117 32 39 118 33 39 119 59 40 120 7 40 121 25 40 122 58 41 123 37 41 124 59 41 125 33 42 126 5 42 127 1 42 128 32 43 129 35 43 130 33 43 131 37 44 132 2 44 133 7 44 134 36 45 135 42 45 136 37 45 137 14 46 138 48 46 139 8 46 140 50 47 141 49 47 142 48 47 143 16 54 162 38 54 163 10 54 164 40 55 165 39 55 166 38 55 167 22 56 168 51 56 169 44 56 170 51 57 171 45 57 172 44 57 173 16 58 174 55 58 175 40 58 176 55 59 177 41 59 178 40 59 179 10 60 180 43 60 181 3 60 182 38 61 183 42 61 184 43 61 185 29 66 198 21 66 199 6 66 200 9 67 201 20 67 202 4 67 203 30 68 204 19 68 205 5 68 206 11 69 207 18 69 208 7 69 209 19 70 210 8 70 211 1 70 212 21 71 213 10 71 214 3 71 215 39 72 216 11 72 217 2 72 218 54 73 219 12 73 220 17 73 221 50 74 222 14 74 223 13 74 224 41 75 225 17 75 226 11 75 227 15 76 228 22 76 229 20 76 230 17 77 231 12 77 232 18 77 233 13 78 234 14 78 235 8 78 236 23 79 237 16 79 238 10 79 239 51 83 249 15 83 250 9 83 251 6 84 252 3 84 253 43 84 254 0 85 255 4 85 256 34 85 257 27 86 258 6 86 259 36 86 260 49 87 261 9 87 262 0 87 263 4 88 264 26 88 265 56 88 266 26 89 267 27 89 268 58 89 269 18 92 276 31 92 277 25 92 278 31 93 279 30 93 280 24 93 281 20 94 282 28 94 283 26 94 284 28 95 285 29 95 286 27 95 287 57 100 300 59 100 301 25 100 302 56 101 303 58 101 304 59 101 305 35 102 306 57 102 307 24 102 308 34 103 309 56 103 310 57 103 311 8 104 312 48 104 313 33 104 314 48 105 315 49 105 316 32 105 317 59 106 318 37 106 319 7 106 320 58 107 321 36 107 322 37 107 323 33 108 324 35 108 325 5 108 326 32 109 327 34 109 328 35 109 329 37 110 330 42 110 331 2 110 332 36 111 333 43 111 334 42 111 335 14 112 336 50 112 337 48 112 338 50 113 339 51 113 340 49 113 341 16 120 360 40 120 361 38 120 362 40 121 363 41 121 364 39 121 365 22 122 366 15 122 367 51 122 368 51 123 369 50 123 370 45 123 371 16 124 372 23 124 373 55 124 374 55 125 375 54 125 376 41 125 377 10 126 378 38 126 379 43 126 380 38 127 381 39 127 382 42 127 383</p>
        </triangles>
        <triangles material="lightgrey-material" count="10">
          <input semantic="VERTEX" source="#Cube-mesh-vertices" offset="0"/>
          <input semantic="NORMAL" source="#Cube-mesh-normals" offset="1"/>
          <input semantic="TEXCOORD" source="#Cube-mesh-map-0" offset="2" set="0"/>
          <p>62 31 93 61 31 94 60 31 95 61 62 186 64 62 187 60 62 188 62 63 189 67 63 190 63 63 191 60 64 192 66 64 193 62 64 194 63 65 195 65 65 196 61 65 197 62 97 291 63 97 292 61 97 293 61 128 384 65 128 385 64 128 386 62 129 387 66 129 388 67 129 389 60 130 390 64 130 391 66 130 392 63 131 393 67 131 394 65 131 395</p>
        </triangles>
        <triangles material="darkgrey-material" count="28">
          <input semantic="VERTEX" source="#Cube-mesh-vertices" offset="0"/>
          <input semantic="NORMAL" source="#Cube-mesh-normals" offset="1"/>
          <input semantic="TEXCOORD" source="#Cube-mesh-map-0" offset="2" set="0"/>
          <p>52 14 42 30 14 43 67 14 44 45 15 45 19 15 46 52 15 47 47 16 48 12 16 49 54 16 50 65 24 72 18 24 73 47 24 74 67 25 75 31 25 76 65 25 77 28 30 90 64 30 91 29 30 92 29 32 96 46 32 97 21 32 98 64 33 99 47 33 100 46 33 101 21 48 144 55 48 145 23 48 146 46 49 147 54 49 148 55 49 149 22 50 150 53 50 151 20 50 152 44 51 153 52 51 154 53 51 155 28 52 156 53 52 157 66 52 158 53 53 159 67 53 160 66 53 161 52 80 240 19 80 241 30 80 242 45 81 243 13 81 244 19 81 245 47 82 246 18 82 247 12 82 248 65 90 270 31 90 271 18 90 272 67 91 273 30 91 274 31 91 275 28 96 288 66 96 289 64 96 290 29 98 294 64 98 295 46 98 296 64 99 297 65 99 298 47 99 299 21 114 342 46 114 343 55 114 344 46 115 345 47 115 346 54 115 347 22 116 348 44 116 349 53 116 350 44 117 351 45 117 352 52 117 353 28 118 354 20 118 355 53 118 356 53 119 357 52 119 358 67 119 359</p>
        </triangles>
      </mesh>
    </geometry>
  </library_geometries>
  <library_visual_scenes>
    <visual_scene id="Scene" name="Scene">
      <node id="Cube" name="Cube" type="NODE">
        <matrix sid="transform">1 0 0 0 0 1 0 0 0 0 1 0 0 0 0 1</matrix>
        <instance_geometry url="#Cube-mesh" name="Cube">
          <bind_material>
            <technique_common>
              <instance_material symbol="paintable-0-material" target="#paintable-0-material">
                <bind_vertex_input semantic="UVMap" input_semantic="TEXCOORD" input_set="0"/>
              </instance_material>
              <instance_material symbol="paintable-1-material" target="#paintable-1-material">
                <bind_vertex_input semantic="UVMap" input_semantic="TEXCOORD" input_set="0"/>
              </instance_material>
              <instance_material symbol="lightgrey-material" target="#lightgrey-material">
                <bind_vertex_input semantic="UVMap" input_semantic="TEXCOORD" input_set="0"/>
              </instance_material>
              <instance_material symbol="darkgrey-material" target="#darkgrey-material">
                <bind_vertex_input semantic="UVMap" input_semantic="TEXCOORD" input_set="0"/>
              </instance_material>
              <instance_material symbol="MATERIALadditive-material" target="#MATERIALadditive-material">
                <bind_vertex_input semantic="UVMap" input_semantic="TEXCOORD" input_set="0"/>
              </instance_material>
              <instance_material symbol="MATERIALglass-material" target="#MATERIALglass-material">
                <bind_vertex_input semantic="UVMap" input_semantic="TEXCOORD" input_set="0"/>
              </instance_material>
            </technique_common>
          </bind_material>
        </instance_geometry>
      </node>
    </visual_scene>
  </library_visual_scenes>
  <scene>
    <instance_visual_scene url="#Scene"/>
  </scene>
</COLLADA>