<?xml version="1.0" encoding="utf-8"?>
<COLLADA xmlns="http://www.collada.org/2005/11/COLLADASchema" version="1.4.1" xmlns:xsi="http://www.w3.org/2001/XMLSchema-instance">
  <asset>
    <contributor>
      <author>Blender User</author>
      <authoring_tool>Blender 4.2.23 LTS commit date:2026-07-20, commit time:13:44, hash:d0cbe84903e8</authoring_tool>
    </contributor>
    <created>2026-08-03T17:12:20</created>
    <modified>2026-08-03T17:12:20</modified>
    <unit name="meter" meter="1"/>
    <up_axis>Z_UP</up_axis>
  </asset>
  <library_effects>
    <effect id="paintable-0-effect">
      <profile_COMMON>
        <technique sid="common">
          <lambert>
            <emission>
              <color sid="emission">0 0 0 1</color>
            </emission>
            <diffuse>
              <color sid="diffuse">1 0.4969335 0 1</color>
            </diffuse>
            <index_of_refraction>
              <float sid="ior">1.45</float>
            </index_of_refraction>
          </lambert>
        </technique>
      </profile_COMMON>
    </effect>
    <effect id="paintable-1-effect">
      <profile_COMMON>
        <technique sid="common">
          <lambert>
            <emission>
              <color sid="emission">0 0 0 1</color>
            </emission>
            <diffuse>
              <color sid="diffuse">0.6104922 0.4910214 0 1</color>
            </diffuse>
            <index_of_refraction>
              <float sid="ior">1.5</float>
            </index_of_refraction>
          </lambert>
        </technique>
      </profile_COMMON>
    </effect>
    <effect id="lightgrey-effect">
      <profile_COMMON>
        <technique sid="common">
          <lambert>
            <emission>
              <color sid="emission">0 0 0 1</color>
            </emission>
            <diffuse>
              <color sid="diffuse">0.7835327 0.7835385 0.7835382 1</color>
            </diffuse>
            <index_of_refraction>
              <float sid="ior">1.5</float>
            </index_of_refraction>
          </lambert>
        </technique>
      </profile_COMMON>
    </effect>
    <effect id="darkgrey-effect">
      <profile_COMMON>
        <technique sid="common">
          <lambert>
            <emission>
              <color sid="emission">0 0 0 1</color>
            </emission>
            <diffuse>
              <color sid="diffuse">0.3371614 0.3371639 0.3371637 1</color>
            </diffuse>
            <index_of_refraction>
              <float sid="ior">1.5</float>
            </index_of_refraction>
          </lambert>
        </technique>
      </profile_COMMON>
    </effect>
    <effect id="MATERIALadditive-effect">
      <profile_COMMON>
        <technique sid="common">
          <lambert>
            <emission>
              <color sid="emission">0 0 0 1</color>
            </emission>
            <diffuse>
              <color sid="diffuse">0.8 0.8 0.8 1</color>
            </diffuse>
            <index_of_refraction>
              <float sid="ior">1.5</float>
            </index_of_refraction>
          </lambert>
        </technique>
      </profile_COMMON>
    </effect>
    <effect id="MATERIALglass-effect">
      <profile_COMMON>
        <technique sid="common">
          <lambert>
            <emission>
              <color sid="emission">0 0 0 1</color>
            </emission>
            <diffuse>
              <color sid="diffuse">0.8 0.8 0.8 1</color>
            </diffuse>
            <index_of_refraction>
              <float sid="ior">1.5</float>
            </index_of_refraction>
          </lambert>
        </technique>
      </profile_COMMON>
    </effect>
  </library_effects>
  <library_images/>
  <library_materials>
    <material id="paintable-0-material" name="paintable-0">
      <instance_effect url="#paintable-0-effect"/>
    </material>
    <material id="paintable-1-material" name="paintable-1">
      <instance_effect url="#paintable-1-effect"/>
    </material>
    <material id="lightgrey-material" name="lightgrey">
      <instance_effect url="#lightgrey-effect"/>
    </material>
    <material id="darkgrey-material" name="darkgrey">
      <instance_effect url="#darkgrey-effect"/>
    </material>
    <material id="MATERIALadditive-material" name="MATERIALadditive">
      <instance_effect url="#MATERIALadditive-effect"/>
    </material>
    <material id="MATERIALglass-material" name="MATERIALglass">
      <instance_effect url="#MATERIALglass-effect"/>
    </material>
  </library_materials>
  <library_geometries>
    <geometry id="Cube-mesh" name="Cube">
      <mesh>
        <source id="Cube-mesh-positions">
          <float_array id="Cube-mesh-positions-array" count="168">-0.375 0.02499997 -0.07499998 -0.375 -0.02499997 -0.07499998 -0.375 0.02499997 -0.055 -0.375 -0.02499997 -0.055 0.115 -0.01499998 -0.07499998 -0.00999999 -0.01499998 -0.07499998 -0.115 -0.01499998 -0.07499998 -0.00999999 0.01499998 -0.07499998 -0.115 0.01499998 -0.07499998 0.00999999 -0.01499998 -0.07499998 0.115 0.01499998 -0.07499998 0.00999999 0.01499998 -0.07499998 -0.00999999 -0.01499998 -0.06499999 -0.115 -0.01499998 -0.06499999 -0.00999999 0.01499998 -0.06499999 -0.115 0.01499998 -0.06499999 0.00999999 -0.01499998 -0.06499999 0.00999999 0.01499998 -0.06499999 0.115 0.01499998 -0.06499999 0.115 -0.01499998 -0.06499999 0.375 0.02499997 -0.07499998 0.375 -0.02499997 -0.07499998 0.375 0.02499997 -0.055 0.375 -0.02499997 -0.055 0.365 -0.01499998 -0.07499998 0.24 -0.01499998 -0.07499998 0.1349999 -0.01499998 -0.07499998 0.24 0.01499998 -0.07499998 0.1349999 0.01499998 -0.07499998 0.26 -0.01499998 -0.07499998 0.365 0.01499998 -0.07499998 0.26 0.01499998 -0.07499998 0.24 -0.01499998 -0.06499999 0.1349999 -0.01499998 -0.06499999 0.24 0.01499998 -0.06499999 0.1349999 0.01499998 -0.06499999 0.26 -0.01499998 -0.06499999 0.26 0.01499998 -0.06499999 0.365 0.01499998 -0.06499999 0.365 -0.01499998 -0.06499999 -0.1349999 -0.01499998 -0.07499998 -0.26 -0.01499998 -0.07499998 -0.365 -0.01499998 -0.07499998 -0.26 0.01499998 -0.07499998 -0.365 0.01499998 -0.07499998 -0.24 -0.01499998 -0.07499998 -0.1349999 0.01499998 -0.07499998 -0.24 0.01499998 -0.07499998 -0.26 -0.01499998 -0.06499999 -0.365 -0.01499998 -0.06499999 -0.26 0.01499998 -0.06499999 -0.365 0.01499998 -0.06499999 -0.24 -0.01499998 -0.06499999 -0.24 0.01499998 -0.06499999 -0.1349999 0.01499998 -0.06499999 -0.1349999 -0.01499998 -0.06499999</float_array>
          <technique_common>
            <accessor source="#Cube-mesh-positions-array" count="56" stride="3">
              <param name="X" type="float"/>
              <param name="Y" type="float"/>
              <param name="Z" type="float"/>
            </accessor>
          </technique_common>
        </source>
        <source id="Cube-mesh-normals">
          <float_array id="Cube-mesh-normals-array" count="210">0 0 1 0 0 1 -1 0 0 1 0 0 0 1 0 -1 0 0 1 0 0 0 -1 0 0 -1 0 0 1 0 0 -1 0 1 0 0 0 0 1 0 0 1 0 0 1 -1 0 0 1 0 0 0 1 0 -1 0 0 1 0 0 0 -1 0 0 -1 0 0 1 0 0 1 0 -1 0 0 0 0 1 0 0 1 -1 0 0 1 0 0 0 1 0 -1 0 0 1 0 0 0 -1 0 0 -1 0 0 1 0 0 0 1 0 0 1 -1 0 0 1 0 0 0 1 0 -1 0 0 1 0 0 0 -1 0 0 -1 0 0 1 0 0 -1 0 1 0 0 0 0 1 0 0 1 0 0 1 -1 0 0 1 0 0 0 1 0 -1 0 0 1 0 0 0 -1 0 0 -1 0 0 1 0 0 1 0 -1 0 0 0 0 1 0 0 1 -1 0 0 1 0 0 0 1 0 -1 0 0 1 0 0 0 -1 0 0 -1 0 0 1 0</float_array>
          <technique_common>
            <accessor source="#Cube-mesh-normals-array" count="70" stride="3">
              <param name="X" type="float"/>
              <param name="Y" type="float"/>
              <param name="Z" type="float"/>
            </accessor>
          </technique_common>
        </source>
        <source id="Cube-mesh-map-0">
          <float_array id="Cube-mesh-map-0-array" count="420">0 0 0 0 0 0 0 0 0 0 0 0 0 0 0 0 0 0 0 0 0 0 0 0 0 0 0 0 0 0 0 0 0 0 0 0 0 0 0 0 0 0 0 0 0 0 0 0 0 0 0 0 0 0 0 0 0 0 0 0 0 0 0 0 0 0 0 0 0 0 0 0 0 0 0 0 0 0 0 0 0 0 0 0 0 0 0 0 0 0 0 0 0 0 0 0 0 0 0 0 0 0 0 0 0 0 0 0 0 0 0 0 0 0 0 0 0 0 0 0 0 0 0 0 0 0 0 0 0 0 0 0 0 0 0 0 0 0 0 0 0 0 0 0 0 0 0 0 0 0 0 0 0 0 0 0 0 0 0 0 0 0 0 0 0 0 0 0 0 0 0 0 0 0 0 0 0 0 0 0 0 0 0 0 0 0 0 0 0 0 0 0 0 0 0 0 0 0 0 0 0 0 0 0 0 0 0 0 0 0 0 0 0 0 0 0 0 0 0 0 0 0 0 0 0 0 0 0 0 0 0 0 0 0 0 0 0 0 0 0 0 0 0 0 0 0 0 0 0 0 0 0 0 0 0 0 0 0 0 0 0 0 0 0 0 0 0 0 0 0 0 0 0 0 0 0 0 0 0 0 0 0 0 0 0 0 0 0 0 0 0 0 0 0 0 0 0 0 0 0 0 0 0 0 0 0 0 0 0 0 0 0 0 0 0 0 0 0 0 0 0 0 0 0 0 0 0 0 0 0 0 0 0 0 0 0 0 0 0 0 0 0 0 0 0 0 0 0 0 0 0 0 0 0 0 0 0 0 0 0 0 0 0 0 0 0 0 0 0 0 0 0 0 0 0 0 0 0 0 0 0 0 0 0 0 0 0 0 0 0 0 0 0 0 0 0 0 0 0 0 0 0 0 0 0 0 0 0 0 0 0 0 0 0 0 0 0 0 0 0</float_array>
          <technique_common>
            <accessor source="#Cube-mesh-map-0-array" count="210" stride="2">
              <param name="S" type="float"/>
              <param name="T" type="float"/>
            </accessor>
          </technique_common>
        </source>
        <vertices id="Cube-mesh-vertices">
          <input semantic="POSITION" source="#Cube-mesh-positions"/>
        </vertices>
        <triangles material="MATERIALadditive-material" count="60">
          <input semantic="VERTEX" source="#Cube-mesh-vertices" offset="0"/>
          <input semantic="NORMAL" source="#Cube-mesh-normals" offset="1"/>
          <input semantic="TEXCOORD" source="#Cube-mesh-map-0" offset="2" set="0"/>
          <p>16 0 0 18 0 1 17 0 2 14 1 3 13 1 4 12 1 5 6 2 6 15 2 7 8 2 8 10 3 9 19 3 10 4 3 11 8 4 12 14 4 13 7 4 14 9 5 15 17 5 16 11 5 17 7 6 18 12 6 19 5 6 20 4 7 21 16 7 22 9 7 23 5 8 24 13 8 25 6 8 26 11 9 27 18 9 28 10 9 29 36 13 39 38 13 40 37 13 41 34 14 42 33 14 43 32 14 44 26 15 45 35 15 46 28 15 47 30 16 48 39 16 49 24 16 50 28 17 51 34 17 52 27 17 53 29 18 54 37 18 55 31 18 56 27 19 57 32 19 58 25 19 59 24 20 60 36 20 61 29 20 62 25 21 63 33 21 64 26 21 65 31 22 66 38 22 67 30 22 68 52 25 75 54 25 76 53 25 77 50 26 78 49 26 79 48 26 80 42 27 81 51 27 82 44 27 83 46 28 84 55 28 85 40 28 86 44 29 87 50 29 88 43 29 89 45 30 90 53 30 91 47 30 92 43 31 93 48 31 94 41 31 95 40 32 96 52 32 97 45 32 98 41 33 99 49 33 100 42 33 101 47 34 102 54 34 103 46 34 104 16 35 105 19 35 106 18 35 107 14 36 108 15 36 109 13 36 110 6 37 111 13 37 112 15 37 113 10 38 114 18 38 115 19 38 116 8 39 117 15 39 118 14 39 119 9 40 120 16 40 121 17 40 122 7 41 123 14 41 124 12 41 125 4 42 126 19 42 127 16 42 128 5 43 129 12 43 130 13 43 131 11 44 132 17 44 133 18 44 134 36 48 144 39 48 145 38 48 146 34 49 147 35 49 148 33 49 149 26 50 150 33 50 151 35 50 152 30 51 153 38 51 154 39 51 155 28 52 156 35 52 157 34 52 158 29 53 159 36 53 160 37 53 161 27 54 162 34 54 163 32 54 164 24 55 165 39 55 166 36 55 167 25 56 168 32 56 169 33 56 170 31 57 171 37 57 172 38 57 173 52 60 180 55 60 181 54 60 182 50 61 183 51 61 184 49 61 185 42 62 186 49 62 187 51 62 188 46 63 189 54 63 190 55 63 191 44 64 192 51 64 193 50 64 194 45 65 195 52 65 196 53 65 197 43 66 198 50 66 199 48 66 200 40 67 201 55 67 202 52 67 203 41 68 204 48 68 205 49 68 206 47 69 207 53 69 208 54 69 209</p>
        </triangles>
        <triangles material="MATERIALglass-material" count="10">
          <input semantic="VERTEX" source="#Cube-mesh-vertices" offset="0"/>
          <input semantic="NORMAL" source="#Cube-mesh-normals" offset="1"/>
          <input semantic="TEXCOORD" source="#Cube-mesh-map-0" offset="2" set="0"/>
          <p>3 10 30 21 10 31 23 10 32 23 11 33 20 11 34 22 11 35 23 12 36 2 12 37 3 12 38 22 23 69 0 23 70 2 23 71 1 24 72 2 24 73 0 24 74 3 45 135 1 45 136 21 45 137 23 46 138 21 46 139 20 46 140 23 47 141 22 47 142 2 47 143 22 58 174 20 58 175 0 58 176 1 59 177 3 59 178 2 59 179</p>
        </triangles>
      </mesh>
    </geometry>
  </library_geometries>
  <library_visual_scenes>
    <visual_scene id="Scene" name="Scene">
      <node id="Cube" name="Cube" type="NODE">
        <matrix sid="transform">1 0 0 0 0 1 0 0 0 0 1 0 0 0 0 1</matrix>
        <instance_geometry url="#Cube-mesh" name="Cube">
          <bind_material>
            <technique_common>
              <instance_material symbol="paintable-0-material" target="#paintable-0-material">
                <bind_vertex_input semantic="UVMap" input_semantic="TEXCOORD" input_set="0"/>
              </instance_material>
              <instance_material symbol="paintable-1-material" target="#paintable-1-material">
                <bind_vertex_input semantic="UVMap" input_semantic="TEXCOORD" input_set="0"/>
              </instance_material>
              <instance_material symbol="lightgrey-material" target="#lightgrey-material">
                <bind_vertex_input semantic="UVMap" input_semantic="TEXCOORD" input_set="0"/>
              </instance_material>
              <instance_material symbol="darkgrey-material" target="#darkgrey-material">
                <bind_vertex_input semantic="UVMap" input_semantic="TEXCOORD" input_set="0"/>
              </instance_material>
              <instance_material symbol="MATERIALadditive-material" target="#MATERIALadditive-material">
                <bind_vertex_input semantic="UVMap" input_semantic="TEXCOORD" input_set="0"/>
              </instance_material>
              <instance_material symbol="MATERIALglass-material" target="#MATERIALglass-material">
                <bind_vertex_input semantic="UVMap" input_semantic="TEXCOORD" input_set="0"/>
              </instance_material>
            </technique_common>
          </bind_material>
        </instance_geometry>
      </node>
    </visual_scene>
  </library_visual_scenes>
  <scene>
    <instance_visual_scene url="#Scene"/>
  </scene>
</COLLADA>