<?xml version="1.0" encoding="utf-8"?>
<COLLADA xmlns="http://www.collada.org/2005/11/COLLADASchema" version="1.4.1" xmlns:xsi="http://www.w3.org/2001/XMLSchema-instance">
  <asset>
    <contributor>
      <author>Blender User</author>
      <authoring_tool>Blender 4.2.23 LTS commit date:2026-07-20, commit time:13:44, hash:d0cbe84903e8</authoring_tool>
    </contributor>
    <created>2026-08-03T22:14:50</created>
    <modified>2026-08-03T22:14:50</modified>
    <unit name="meter" meter="1"/>
    <up_axis>Z_UP</up_axis>
  </asset>
  <library_effects>
    <effect id="paintable-0-effect">
      <profile_COMMON>
        <technique sid="common">
          <lambert>
            <emission>
              <color sid="emission">0 0 0 1</color>
            </emission>
            <diffuse>
              <color sid="diffuse">1 0.4969335 0 1</color>
            </diffuse>
            <index_of_refraction>
              <float sid="ior">1.45</float>
            </index_of_refraction>
          </lambert>
        </technique>
      </profile_COMMON>
    </effect>
    <effect id="paintable-1-effect">
      <profile_COMMON>
        <technique sid="common">
          <lambert>
            <emission>
              <color sid="emission">0 0 0 1</color>
            </emission>
            <diffuse>
              <color sid="diffuse">0.6104922 0.4910214 0 1</color>
            </diffuse>
            <index_of_refraction>
              <float sid="ior">1.5</float>
            </index_of_refraction>
          </lambert>
        </technique>
      </profile_COMMON>
    </effect>
    <effect id="lightgrey-effect">
      <profile_COMMON>
        <technique sid="common">
          <lambert>
            <emission>
              <color sid="emission">0 0 0 1</color>
            </emission>
            <diffuse>
              <color sid="diffuse">0.7835327 0.7835385 0.7835382 1</color>
            </diffuse>
            <index_of_refraction>
              <float sid="ior">1.5</float>
            </index_of_refraction>
          </lambert>
        </technique>
      </profile_COMMON>
    </effect>
    <effect id="darkgrey-effect">
      <profile_COMMON>
        <technique sid="common">
          <lambert>
            <emission>
              <color sid="emission">0 0 0 1</color>
            </emission>
            <diffuse>
              <color sid="diffuse">0.3371614 0.3371639 0.3371637 1</color>
            </diffuse>
            <index_of_refraction>
              <float sid="ior">1.5</float>
            </index_of_refraction>
          </lambert>
        </technique>
      </profile_COMMON>
    </effect>
    <effect id="MATERIALadditive-effect">
      <profile_COMMON>
        <technique sid="common">
          <lambert>
            <emission>
              <color sid="emission">0 0 0 1</color>
            </emission>
            <diffuse>
              <color sid="diffuse">0.8 0.8 0.8 1</color>
            </diffuse>
            <index_of_refraction>
              <float sid="ior">1.5</float>
            </index_of_refraction>
          </lambert>
        </technique>
      </profile_COMMON>
    </effect>
    <effect id="MATERIALglass-effect">
      <profile_COMMON>
        <technique sid="common">
          <lambert>
            <emission>
              <color sid="emission">0 0 0 1</color>
            </emission>
            <diffuse>
              <color sid="diffuse">0.8 0.8 0.8 1</color>
            </diffuse>
            <index_of_refraction>
              <float sid="ior">1.5</float>
            </index_of_refraction>
          </lambert>
        </technique>
      </profile_COMMON>
    </effect>
  </library_effects>
  <library_images/>
  <library_materials>
    <material id="paintable-0-material" name="paintable-0">
      <instance_effect url="#paintable-0-effect"/>
    </material>
    <material id="paintable-1-material" name="paintable-1">
      <instance_effect url="#paintable-1-effect"/>
    </material>
    <material id="lightgrey-material" name="lightgrey">
      <instance_effect url="#lightgrey-effect"/>
    </material>
    <material id="darkgrey-material" name="darkgrey">
      <instance_effect url="#darkgrey-effect"/>
    </material>
    <material id="MATERIALadditive-material" name="MATERIALadditive">
      <instance_effect url="#MATERIALadditive-effect"/>
    </material>
    <material id="MATERIALglass-material" name="MATERIALglass">
      <instance_effect url="#MATERIALglass-effect"/>
    </material>
  </library_materials>
  <library_geometries>
    <geometry id="Cube-mesh" name="Cube">
      <mesh>
        <source id="Cube-mesh-positions">
          <float_array id="Cube-mesh-positions-array" count="984">0.25 -0.02499997 -0.125 0.25 0.02499997 -0.125 0.25 -0.03499996 -0.125 0.25 0.03499996 -0.125 0.375 -0.02499997 -0.055 0.375 0.02499997 -0.055 0.375 -0.02499997 -0.07499998 0.375 0.02499997 -0.07499998 0.375 -0.03499996 -0.055 0.375 0.03499996 -0.055 0.375 -0.03499996 -0.07499998 0.375 0.03499996 -0.07499998 0 0.03499996 -0.125 0 -0.03499996 -0.125 0 0.02499997 -0.125 0 -0.02499997 -0.125 0 0.03499996 -0.07499998 0 -0.03499996 -0.07499998 0 -0.03499996 -0.055 0 0.03499996 -0.055 0 0.02499997 -0.055 0 0.02499997 -0.07499998 0 -0.02499997 -0.07499998 0 -0.02499997 -0.055 0.375 -0.02499997 -0.125 0.375 0.02499997 -0.125 0.375 -0.03499996 -0.125 0.375 0.03499996 -0.125 0 0.01499998 -0.07499998 0 -0.01499998 -0.07499998 0 0.01499998 -0.125 0 -0.01499998 -0.125 -0.00999999 0.03499996 -0.125 -0.115 0.03499996 -0.125 -0.00999999 0.02499997 -0.125 -0.115 0.02499997 -0.125 -0.00999999 -0.02499997 -0.125 -0.115 -0.02499997 -0.125 -0.00999999 -0.03499996 -0.07499998 -0.115 -0.03499996 -0.07499998 -0.00999999 -0.03499996 -0.055 -0.115 -0.03499996 -0.055 -0.115 -0.03499996 -0.125 -0.00999999 -0.03499996 -0.125 -0.00999999 0.02499997 -0.055 -0.115 0.02499997 -0.055 -0.00999999 -0.02499997 -0.07499998 -0.115 -0.02499997 -0.07499998 -0.115 0.03499996 -0.07499998 -0.00999999 0.03499996 -0.07499998 -0.115 0.03499996 -0.055 -0.00999999 0.03499996 -0.055 -0.115 0.02499997 -0.07499998 -0.00999999 0.02499997 -0.07499998 -0.115 -0.02499997 -0.055 -0.00999999 -0.02499997 -0.055 -0.00999999 0.01499998 -0.125 -0.115 0.01499998 -0.125 -0.00999999 -0.01499998 -0.125 -0.115 -0.01499998 -0.125 -0.01999998 -0.004999995 -0.08499997 -0.105 -0.004999995 -0.08499997 -0.01999998 0.004999995 -0.08499997 -0.105 0.004999995 -0.08499997 0.00999999 -0.03499996 -0.125 0.115 -0.03499996 -0.125 0.00999999 0.03499996 -0.07499998 0.115 0.03499996 -0.07499998 0.00999999 0.03499996 -0.055 0.115 0.03499996 -0.055 0.115 0.03499996 -0.125 0.00999999 0.03499996 -0.125 0.00999999 0.02499997 -0.07499998 0.115 0.02499997 -0.07499998 0.00999999 -0.02499997 -0.055 0.115 -0.02499997 -0.055 0.115 0.02499997 -0.125 0.00999999 0.02499997 -0.125 0.115 -0.02499997 -0.125 0.00999999 -0.02499997 -0.125 0.115 -0.03499996 -0.07499998 0.00999999 -0.03499996 -0.07499998 0.115 -0.03499996 -0.055 0.00999999 -0.03499996 -0.055 0.115 0.02499997 -0.055 0.00999999 0.02499997 -0.055 0.115 -0.02499997 -0.07499998 0.00999999 -0.02499997 -0.07499998 0.105 -0.004999995 -0.08499997 0.01999998 -0.004999995 -0.08499997 0.105 0.004999995 -0.08499997 0.01999998 0.004999995 -0.08499997 0.115 0.01499998 -0.125 0.00999999 0.01499998 -0.125 0.115 -0.01499998 -0.125 0.00999999 -0.01499998 -0.125 -0.00999999 -0.01499998 -0.07499998 -0.115 -0.01499998 -0.07499998 -0.00999999 0.01499998 -0.07499998 -0.115 0.01499998 -0.07499998 0.115 -0.01499998 -0.07499998 0.00999999 -0.01499998 -0.07499998 0.115 0.01499998 -0.07499998 0.00999999 0.01499998 -0.07499998 -0.125 0.03499996 -0.125 -0.375 0.03499996 -0.125 -0.375 -0.03499996 -0.125 -0.125 -0.03499996 -0.125 -0.125 0.02499997 -0.125 -0.375 0.02499997 -0.125 -0.125 -0.02499997 -0.125 -0.375 -0.02499997 -0.125 -0.375 0.03499996 -0.07499998 -0.125 0.03499996 -0.07499998 -0.125 -0.03499996 -0.07499998 -0.375 -0.03499996 -0.07499998 -0.375 -0.02499997 -0.055 -0.375 0.02499997 -0.055 -0.375 0.03499996 -0.055 -0.125 0.03499996 -0.055 -0.125 -0.03499996 -0.055 -0.375 -0.03499996 -0.055 -0.375 -0.02499997 -0.07499998 -0.375 0.02499997 -0.07499998 -0.125 0.02499997 -0.07499998 -0.125 -0.02499997 -0.07499998 -0.125 0.02499997 -0.055 -0.125 -0.02499997 -0.055 -0.25 0.03499996 -0.125 -0.25 -0.03499996 -0.125 -0.25 0.02499997 -0.125 -0.25 -0.02499997 -0.125 -0.25 0.03499996 -0.07499998 -0.25 -0.03499996 -0.07499998 -0.25 -0.03499996 -0.055 -0.25 0.03499996 -0.055 -0.25 0.02499997 -0.055 -0.25 0.02499997 -0.07499998 -0.25 -0.02499997 -0.07499998 -0.25 -0.02499997 -0.055 -0.375 0.01499998 -0.125 -0.375 -0.01499998 -0.125 -0.125 0.01499998 -0.125 -0.125 -0.01499998 -0.125 -0.125 0.01499998 -0.07499998 -0.125 -0.01499998 -0.07499998 -0.375 0.01499998 -0.07499998 -0.375 -0.01499998 -0.07499998 -0.25 0.01499998 -0.07499998 -0.25 -0.01499998 -0.07499998 -0.25 0.01499998 -0.125 -0.25 -0.01499998 -0.125 -0.26 0.03499996 -0.125 -0.365 0.03499996 -0.125 -0.26 0.02499997 -0.125 -0.365 0.02499997 -0.125 -0.26 -0.02499997 -0.125 -0.365 -0.02499997 -0.125 -0.26 -0.03499996 -0.07499998 -0.365 -0.03499996 -0.07499998 -0.26 -0.03499996 -0.055 -0.365 -0.03499996 -0.055 -0.365 -0.03499996 -0.125 -0.26 -0.03499996 -0.125 -0.26 0.02499997 -0.055 -0.365 0.02499997 -0.055 -0.26 -0.02499997 -0.07499998 -0.365 -0.02499997 -0.07499998 -0.365 0.03499996 -0.07499998 -0.26 0.03499996 -0.07499998 -0.365 0.03499996 -0.055 -0.26 0.03499996 -0.055 -0.365 0.02499997 -0.07499998 -0.26 0.02499997 -0.07499998 -0.365 -0.02499997 -0.055 -0.26 -0.02499997 -0.055 -0.26 0.01499998 -0.125 -0.365 0.01499998 -0.125 -0.26 -0.01499998 -0.125 -0.365 -0.01499998 -0.125 -0.27 -0.004999995 -0.08499997 -0.355 -0.004999995 -0.08499997 -0.27 0.004999995 -0.08499997 -0.355 0.004999995 -0.08499997 -0.24 -0.03499996 -0.125 -0.1349999 -0.03499996 -0.125 -0.24 0.03499996 -0.07499998 -0.1349999 0.03499996 -0.07499998 -0.24 0.03499996 -0.055 -0.1349999 0.03499996 -0.055 -0.1349999 0.03499996 -0.125 -0.24 0.03499996 -0.125 -0.24 0.02499997 -0.07499998 -0.1349999 0.02499997 -0.07499998 -0.24 -0.02499997 -0.055 -0.1349999 -0.02499997 -0.055 -0.1349999 0.02499997 -0.125 -0.24 0.02499997 -0.125 -0.1349999 -0.02499997 -0.125 -0.24 -0.02499997 -0.125 -0.1349999 -0.03499996 -0.07499998 -0.24 -0.03499996 -0.07499998 -0.1349999 -0.03499996 -0.055 -0.24 -0.03499996 -0.055 -0.1349999 0.02499997 -0.055 -0.24 0.02499997 -0.055 -0.1349999 -0.02499997 -0.07499998 -0.24 -0.02499997 -0.07499998 -0.145 -0.004999995 -0.08499997 -0.23 -0.004999995 -0.08499997 -0.145 0.004999995 -0.08499997 -0.23 0.004999995 -0.08499997 -0.1349999 0.01499998 -0.125 -0.24 0.01499998 -0.125 -0.1349999 -0.01499998 -0.125 -0.24 -0.01499998 -0.125 -0.26 -0.01499998 -0.07499998 -0.365 -0.01499998 -0.07499998 -0.26 0.01499998 -0.07499998 -0.365 0.01499998 -0.07499998 -0.1349999 -0.01499998 -0.07499998 -0.24 -0.01499998 -0.07499998 -0.1349999 0.01499998 -0.07499998 -0.24 0.01499998 -0.07499998 0.25 0.03499996 -0.07499998 0.25 -0.03499996 -0.07499998 0.25 -0.03499996 -0.055 0.25 0.03499996 -0.055 0.25 0.02499997 -0.055 0.25 0.02499997 -0.07499998 0.25 -0.02499997 -0.07499998 0.25 -0.02499997 -0.055 0.375 0.01499998 -0.125 0.375 -0.01499998 -0.125 0.375 0.01499998 -0.07499998 0.375 -0.01499998 -0.07499998 0.25 0.01499998 -0.07499998 0.25 -0.01499998 -0.07499998 0.25 0.01499998 -0.125 0.25 -0.01499998 -0.125 0.24 0.03499996 -0.125 0.1349999 0.03499996 -0.125 0.24 0.02499997 -0.125 0.1349999 0.02499997 -0.125 0.24 -0.02499997 -0.125 0.1349999 -0.02499997 -0.125 0.24 -0.03499996 -0.07499998 0.1349999 -0.03499996 -0.07499998 0.24 -0.03499996 -0.055 0.1349999 -0.03499996 -0.055 0.1349999 -0.03499996 -0.125 0.24 -0.03499996 -0.125 0.24 0.02499997 -0.055 0.1349999 0.02499997 -0.055 0.24 -0.02499997 -0.07499998 0.1349999 -0.02499997 -0.07499998 0.1349999 0.03499996 -0.07499998 0.24 0.03499996 -0.07499998 0.1349999 0.03499996 -0.055 0.24 0.03499996 -0.055 0.1349999 0.02499997 -0.07499998 0.24 0.02499997 -0.07499998 0.1349999 -0.02499997 -0.055 0.24 -0.02499997 -0.055 0.24 0.01499998 -0.125 0.1349999 0.01499998 -0.125 0.24 -0.01499998 -0.125 0.1349999 -0.01499998 -0.125 0.23 -0.004999995 -0.08499997 0.1449999 -0.004999995 -0.08499997 0.23 0.004999995 -0.08499997 0.1449999 0.004999995 -0.08499997 0.26 -0.03499996 -0.125 0.365 -0.03499996 -0.125 0.26 0.03499996 -0.07499998 0.365 0.03499996 -0.07499998 0.26 0.03499996 -0.055 0.365 0.03499996 -0.055 0.365 0.03499996 -0.125 0.26 0.03499996 -0.125 0.26 0.02499997 -0.07499998 0.365 0.02499997 -0.07499998 0.26 -0.02499997 -0.055 0.365 -0.02499997 -0.055 0.365 0.02499997 -0.125 0.26 0.02499997 -0.125 0.365 -0.02499997 -0.125 0.26 -0.02499997 -0.125 0.365 -0.03499996 -0.07499998 0.26 -0.03499996 -0.07499998 0.365 -0.03499996 -0.055 0.26 -0.03499996 -0.055 0.365 0.02499997 -0.055 0.26 0.02499997 -0.055 0.365 -0.02499997 -0.07499998 0.26 -0.02499997 -0.07499998 0.355 -0.004999995 -0.08499997 0.27 -0.004999995 -0.08499997 0.355 0.004999995 -0.08499997 0.27 0.004999995 -0.08499997 0.365 0.01499998 -0.125 0.26 0.01499998 -0.125 0.365 -0.01499998 -0.125 0.26 -0.01499998 -0.125 0.24 -0.01499998 -0.07499998 0.1349999 -0.01499998 -0.07499998 0.24 0.01499998 -0.07499998 0.1349999 0.01499998 -0.07499998 0.365 -0.01499998 -0.07499998 0.26 -0.01499998 -0.07499998 0.365 0.01499998 -0.07499998 0.26 0.01499998 -0.07499998 0.125 0.03499996 -0.125 0.125 -0.03499996 -0.125 0.125 0.02499997 -0.125 0.125 -0.02499997 -0.125 0.125 0.03499996 -0.07499998 0.125 -0.03499996 -0.07499998 0.125 0.03499996 -0.055 0.125 -0.03499996 -0.055 0.125 0.02499997 -0.07499998 0.125 -0.02499997 -0.07499998 0.125 0.02499997 -0.055 0.125 -0.02499997 -0.055 0.125 0.01499998 -0.125 0.125 -0.01499998 -0.125 0.125 0.01499998 -0.07499998 0.125 -0.01499998 -0.07499998</float_array>
          <technique_common>
            <accessor source="#Cube-mesh-positions-array" count="328" stride="3">
              <param name="X" type="float"/>
              <param name="Y" type="float"/>
              <param name="Z" type="float"/>
            </accessor>
          </technique_common>
        </source>
        <source id="Cube-mesh-normals">
          <float_array id="Cube-mesh-normals-array" count="2040">0 0 -1 0 0 -1 0 1 0 0 -1 0 0 1 0 0 0 -1 0 0 -1 0 0 1 0 0 1 0 0 -1 0 -1 0 0 1 0 0 -1 0 1 0 0 0 0 1 0 -1 0 0 1 0 0 0 1 0 -1 0 0 1 0 0 1 0 0 -1 0 0 0 -1 0 0 1 0 0 1 0 0 -1 0 0 -1 0 1 0 0 -1 0 0 0 -1 0 0 -1 0 0 1 0 0 1 0 0 1 0 0 1 0 0 -1 0 0 -1 1 0 0 1 0 0 0 0 1 0 0 1 0 0 1 0 0 1 0 0 -1 0 0 -1 0 0 -1 0 0 -1 0 1 0 0 1 0 0 0 -1 0 0 -1 0 0 -1 0 0 -1 0 0 -1 0 0 -1 0 1 0 0 1 0 0 1 0 0 1 0 0 -1 0 0 -1 0 0 0 1 0 0 1 0 -1 0 0 -1 0 0 0 1 0 0 1 0 0 1 0 0 1 0 -1 0 0 -1 0 0 0 -1 0 0 -1 0 0 -1 0 0 -1 0 0 1 0 0 1 0 0 1 0 0 1 0 -1 0 0 -1 0 0 0 1 0 0 1 0 0 1 0 0 1 0 -1 0 0 -1 0 0 1 0 0 1 0 0 -1 0 0 -1 0 0 0 1 0 0 1 0 1 0 0 1 0 0 0 -1 0 0 -1 0 0 -1 0 0 -1 0 0 -1 0 0 -1 0 1 0 0 1 0 0 0.7071068 0.7071068 0 -0.7071068 0.7071068 -0.7071068 0 0.7071068 0.7071068 0 0.7071068 0 0.7071068 0.7071068 0 -0.7071068 0.7071068 -0.7071068 0 0.7071068 0.7071068 0 0.7071068 1 0 0 1 0 0 -1 0 0 -1 0 0 -1 0 0 1 0 0 0 -1 0 0 1 0 0 0 -1 0 0 -1 0 0 1 0 0 1 0 0 -1 0 -1 0 0 1 0 1 0 0 -1 0 0 -1 0 0 1 0 0 0 0 1 0 -1 0 0 1 0 0 0 1 0 -1 0 0 1 0 0 1 0 0 -1 0 0 0 -1 0 0 1 0 0 1 0 0 -1 0 0 -1 0 1 0 0 -1 0 0 0 -1 0 0 -1 0 0 1 0 0 1 0 0 1 0 0 1 0 0 -1 0 0 -1 -1 0 0 -1 0 0 1 0 0 1 0 0 0 0 1 0 0 1 0 0 1 0 0 1 0 0 -1 0 0 -1 0 0 -1 0 0 -1 0 1 0 0 1 0 0 0 -1 0 0 -1 0 0 -1 0 0 -1 0 0 -1 0 0 -1 0 1 0 0 1 0 0 1 0 0 1 0 0 -1 0 0 -1 0 0 0 1 0 0 1 0 -1 0 0 -1 0 0 0 1 0 0 1 0 0 1 0 0 1 0 -1 0 0 -1 0 0 0 -1 0 0 -1 0 0 -1 0 0 -1 0 0 1 0 0 1 0 0 1 0 0 1 0 -1 0 0 -1 0 0 0 1 0 0 1 0 0 1 0 0 1 0 -1 0 0 -1 0 0 1 0 0 1 0 0 -1 0 0 -1 0 0 0 1 0 0 1 0 1 0 0 1 0 0 0 -1 0 0 -1 0 0 -1 0 0 -1 0 0 -1 0 0 -1 0 1 0 0 1 0 0 0.7071068 0.7071068 0 -0.7071068 0.7071068 -0.707106 0 0.7071076 0.7071071 0 0.7071065 0 0.7071067 0.7071068 0 -0.7071068 0.7071068 -0.7071065 0 0.7071071 0.707106 0 0.7071076 0 0 1 0 0 1 0 0 -1 0 -1 0 0 1 0 1 0 0 1 0 0 0 0 1 0 -1 0 0 1 0 0 0 1 0 -1 0 0 1 0 0 1 0 0 -1 0 0 0 -1 0 0 1 0 0 1 0 0 -1 0 0 -1 0 1 0 0 -1 0 0 0 -1 0 0 -1 0 0 1 0 0 1 0 0 1 0 0 1 0 0 -1 0 0 -1 1 0 0 1 0 0 0 0 1 0 0 1 0 0 1 0 0 1 0 0 -1 0 0 -1 0 0 -1 0 0 -1 0 1 0 0 1 0 0 0 -1 0 0 -1 0 0 -1 0 0 -1 0 0 -1 0 0 -1 0 1 0 0 1 0 0 1 0 0 1 0 0 -1 0 0 -1 0 0 0 1 0 0 1 0 -1 0 0 -1 0 0 0 1 0 0 1 0 0 1 0 0 1 0 -1 0 0 -1 0 0 0 -1 0 0 -1 0 0 -1 0 0 -1 0 0 1 0 0 1 0 0 1 0 0 1 0 -1 0 0 -1 0 0 0 1 0 0 1 0 0 1 0 0 1 0 -1 0 0 -1 0 0 1 0 0 1 0 0 -1 0 0 -1 0 0 0 1 0 0 1 0 1 0 0 1 0 0 0 -1 0 0 -1 0 0 -1 0 0 -1 0 0 -1 0 0 -1 0 1 0 0 1 0 0 0.7071068 0.7071068 0 -0.7071068 0.7071068 -0.707106 0 0.7071076 0.7071071 0 0.7071065 0 0.7071067 0.7071068 0 -0.7071067 0.7071068 -0.7071071 0 0.7071065 0.7071071 0 0.7071065 1 0 0 1 0 0 1 0 0 1 0 0 1 0 0 1 0 0 1 0 0 0 0 -1 0 0 -1 0 1 0 0 -1 0 0 1 0 0 0 -1 0 0 -1 0 0 1 0 0 1 0 0 -1 0 -1 0 0 1 0 0 -1 0 1 0 0 0 0 1 0 -1 0 0 1 0 0 0 1 0 -1 0 0 1 0 0 1 0 0 -1 0 0 0 -1 0 0 1 0 0 1 0 0 -1 0 0 -1 0 1 0 0 -1 0 0 0 -1 0 0 -1 0 0 1 0 0 1 0 0 1 0 0 1 0 0 -1 0 0 -1 1 0 0 1 0 0 0 0 1 0 0 1 0 0 1 0 0 1 0 0 -1 0 0 -1 0 0 -1 0 0 -1 0 1 0 0 1 0 0 0 -1 0 0 -1 0 0 -1 0 0 -1 0 0 -1 0 0 -1 0 1 0 0 1 0 0 1 0 0 1 0 0 -1 0 0 -1 0 0 0 1 0 0 1 0 -1 0 0 -1 0 0 0 1 0 0 1 0 0 1 0 0 1 0 -1 0 0 -1 0 0 0 -1 0 0 -1 0 0 -1 0 0 -1 0 0 1 0 0 1 0 0 1 0 0 1 0 -1 0 0 -1 0 0 0 1 0 0 1 0 0 1 0 0 1 0 -1 0 0 -1 0 0 1 0 0 1 0 0 -1 0 0 -1 0 0 0 1 0 0 1 0 1 0 0 1 0 0 0 -1 0 0 -1 0 0 -1 0 0 -1 0 0 -1 0 0 -1 0 1 0 0 1 0 0 0.7071068 0.7071068 0 -0.7071068 0.7071068 -0.7071068 0 0.7071068 0.7071068 0 0.7071068 0 0.7071067 0.7071068 0 -0.7071067 0.7071068 -0.7071068 0 0.7071068 0.7071068 0 0.7071068 1 0 0 1 0 0 -1 0 0 -1 0 0 -1 0 0 1 0 0 0 -1 0 0 1 0 0 0 -1 0 0 -1 0 0 1 0 0 1 0 0 -1 0 -1 0 0 1 0 1 0 0 -1 0 0 -1 0 0 1 0 0 0 0 1 0 -1 0 0 1 0 0 0 1 0 -1 0 0 1 0 0 1 0 0 -1 0 0 0 -1 0 0 1 0 0 1 0 0 -1 0 0 -1 0 1 0 0 -1 0 0 0 -1 0 0 -1 0 0 1 0 0 1 0 0 1 0 0 1 0 0 -1 0 0 -1 -1 0 0 -1 0 0 1 0 0 1 0 0 0 0 1 0 0 1 0 0 1 0 0 1 0 0 -1 0 0 -1 0 0 -1 0 0 -1 0 1 0 0 1 0 0 0 -1 0 0 -1 0 0 -1 0 0 -1 0 0 -1 0 0 -1 0 1 0 0 1 0 0 1 0 0 1 0 0 -1 0 0 -1 0 0 0 1 0 0 1 0 -1 0 0 -1 0 0 0 1 0 0 1 0 0 1 0 0 1 0 -1 0 0 -1 0 0 0 -1 0 0 -1 0 0 -1 0 0 -1 0 0 1 0 0 1 0 0 1 0 0 1 0 -1 0 0 -1 0 0 0 1 0 0 1 0 0 1 0 0 1 0 -1 0 0 -1 0 0 1 0 0 1 0 0 -1 0 0 -1 0 0 0 1 0 0 1 0 1 0 0 1 0 0 0 -1 0 0 -1 0 0 -1 0 0 -1 0 0 -1 0 0 -1 0 1 0 0 1 0 0 0.7071068 0.7071068 0 -0.7071068 0.7071068 -0.707106 0 0.7071076 0.7071071 0 0.7071065 0 0.7071068 0.7071068 0 -0.7071068 0.7071068 -0.7071065 0 0.707107 0.707106 0 0.7071076 0 0 1 0 0 1 0 0 -1 0 -1 0 0 1 0 1 0 0 1 0 0 0 0 1 0 -1 0 0 1 0 0 0 1 0 -1 0 0 1 0 0 1 0 0 -1 0 0 0 -1 0 0 1 0 0 1 0 0 -1 0 0 -1 0 1 0 0 -1 0 0 0 -1 0 0 -1 0 0 1 0 0 1 0 0 1 0 0 1 0 0 -1 0 0 -1 1 0 0 1 0 0 0 0 1 0 0 1 0 0 1 0 0 1 0 0 -1 0 0 -1 0 0 -1 0 0 -1 0 1 0 0 1 0 0 0 -1 0 0 -1 0 0 -1 0 0 -1 0 0 -1 0 0 -1 0 1 0 0 1 0 0 1 0 0 1 0 0 -1 0 0 -1 0 0 0 1 0 0 1 0 -1 0 0 -1 0 0 0 1 0 0 1 0 0 1 0 0 1 0 -1 0 0 -1 0 0 0 -1 0 0 -1 0 0 -1 0 0 -1 0 0 1 0 0 1 0 0 1 0 0 1 0 -1 0 0 -1 0 0 0 1 0 0 1 0 0 1 0 0 1 0 -1 0 0 -1 0 0 1 0 0 1 0 0 -1 0 0 -1 0 0 0 1 0 0 1 0 1 0 0 1 0 0 0 -1 0 0 -1 0 0 -1 0 0 -1 0 0 -1 0 0 -1 0 1 0 0 1 0 0 0.7071068 0.7071068 0 -0.7071068 0.7071068 -0.707106 0 0.7071076 0.7071071 0 0.7071065 0 0.7071068 0.7071068 0 -0.7071068 0.7071068 -0.7071071 0 0.7071065 0.7071071 0 0.7071065 1 0 0 1 0 0 1 0 0 1 0 0 1 0 0 1 0 0 1 0 0</float_array>
          <technique_common>
            <accessor source="#Cube-mesh-normals-array" count="680" stride="3">
              <param name="X" type="float"/>
              <param name="Y" type="float"/>
              <param name="Z" type="float"/>
            </accessor>
          </technique_common>
        </source>
        <source id="Cube-mesh-map-0">
          <float_array id="Cube-mesh-map-0-array" count="4080">0.2916666 0.5 0.2777777 0.5833333 0.2777777 0.5 0.2916666 0.6388888 0.2777777 0.6666666 0.2777777 0.6388888 0.4375 0.4027778 0.375 0.4166666 0.375 0.4027777 0.4375 0.9027777 0.375 0.9166666 0.375 0.9027777 0.4375 0.4027778 0.375 0.4166666 0.375 0.4027777 0.2916666 0.6388888 0.2777777 0.6666666 0.2777777 0.6388888 0.2916666 0.5 0.2777777 0.5833333 0.2777777 0.5 0.5 0.3101851 0.5 0.25 0.5 0.2916666 0.5 0.3472222 0.5 0.3055555 0.5 0.3287037 0.2916666 0.6666666 0.2777778 0.75 0.2777777 0.6666666 0.46875 0.9027777 0.4375 0.9166666 0.4375 0.9027777 0.46875 0.4027778 0.4375 0.4166666 0.4375 0.4027778 0.4375 0.9027777 0.375 0.9166666 0.375 0.9027777 0.4375 0.6666666 0.375 0.75 0.375 0.6666666 0.4375 0.5833334 0.4375 0.6111111 0.4375 0.6111111 0.46875 0.5833334 0.4375 0.5833334 0.4375 0.5833334 0.4375 0.6666666 0.46875 0.6666666 0.46875 0.6666666 0.4375 0.6111111 0.4375 0.5833334 0.4375 0.6111111 0.46875 0.5833334 0.4375 0.5833334 0.4375 0.5833334 0.4375 0.6666666 0.46875 0.6666666 0.46875 0.6666666 0.46875 0.3611111 0.4375 0.375 0.4375 0.3611111 0.46875 0.8611111 0.4375 0.875 0.4375 0.8611112 0.25 0.6666666 0.2361111 0.75 0.2361111 0.6666667 0.5 0.3981481 0.5 0.375 0.5 0.375 0.5 0.4166666 0.5 0.375 0.5 0.375 0.25 0.5 0.2361111 0.5833333 0.2361111 0.5 0.25 0.6388888 0.2361111 0.6666667 0.2361111 0.6388888 0.4375 0.3611111 0.375 0.375 0.375 0.3611111 0.4375 0.8611112 0.375 0.875 0.375 0.8611112 0.25 0.5833333 0.2361111 0.6111111 0.2361111 0.5833333 0.25 0.6111111 0.2361111 0.6388888 0.2361111 0.6111111 0.4375 0.6388888 0.4375 0.6666666 0.4375 0.6666666 0.4375 0.6111111 0.4375 0.6388888 0.4375 0.6388888 0.4375 0.6388888 0.4375 0.6666666 0.4375 0.6666666 0.4375 0.6111111 0.4375 0.6388888 0.4375 0.6388888 0.2916666 0.5833333 0.2777777 0.6111111 0.2777777 0.5833333 0.2916666 0.6111111 0.2777777 0.6388888 0.2777777 0.6111111 0.4375 0.5 0.375 0.5833333 0.375 0.5 0.4375 0.6388888 0.375 0.6666666 0.375 0.6388888 0.4375 0.6111111 0.4375 0.6388888 0.4375 0.6388888 0.4375 0.6203703 0.4375 0.6296296 0.4375 0.6296296 0.4375 0.6388888 0.4375 0.6666666 0.4375 0.6666666 0.4375 0.6388888 0.4375 0.6666666 0.4375 0.6666666 0.2222222 0.6111111 0.2083333 0.6388888 0.2083333 0.6111111 0.2361111 0.6111111 0.2222222 0.6388888 0.2222222 0.6111111 0.2222222 0.5833333 0.2083333 0.6111111 0.2083333 0.5833333 0.2361111 0.5833333 0.2222222 0.6111111 0.2222222 0.5833333 0.4375 0.3333333 0.375 0.3472222 0.375 0.3333333 0.4375 0.3472222 0.375 0.3611111 0.375 0.3472222 0.2222222 0.6388888 0.2083333 0.6666666 0.2083333 0.6388888 0.2361111 0.6388888 0.2222222 0.6666666 0.2222222 0.6388888 0.2222222 0.5 0.2083333 0.5833333 0.2083333 0.5 0.2361111 0.5 0.2222222 0.5833333 0.2222222 0.5 0.2222222 0.6666666 0.2083333 0.75 0.2083333 0.6666666 0.2361111 0.6666667 0.2222222 0.75 0.2222222 0.6666666 0.46875 0.3333333 0.4375 0.3472222 0.4375 0.3333333 0.46875 0.3472222 0.4375 0.3611111 0.4375 0.3472222 0.4375 0.6666666 0.46875 0.6666666 0.46875 0.6666666 0.4375 0.6666666 0.46875 0.6666666 0.46875 0.6666666 0.46875 0.5833334 0.4375 0.5833334 0.4375 0.5833334 0.46875 0.5833334 0.4375 0.5833334 0.4375 0.5833334 0.4375 0.6111111 0.4375 0.5833334 0.4375 0.611111 0.4375 0.5833334 0.4375 0.6111111 0.4375 0.611111 0.46875 0.875 0.4375 0.8888888 0.4375 0.875 0.46875 0.8888888 0.4375 0.9027777 0.4375 0.8888888 0.5 0.375 0.5 0.3611111 0.5 0.3518518 0.5 0.3611111 0.5 0.3287037 0.5 0.3518518 0.5 0.375 0.5 0.3425925 0.5 0.3333333 0.5 0.3425925 0.5 0.2916666 0.5 0.3333333 0.4375 0.875 0.375 0.8888888 0.375 0.875 0.4375 0.8888888 0.375 0.9027777 0.375 0.8888888 0.2638889 0.6111111 0.25 0.6388888 0.25 0.6111111 0.2777777 0.6111111 0.2638889 0.6388888 0.2638889 0.6111111 0.2638889 0.5833333 0.25 0.6111111 0.25 0.5833333 0.2777777 0.5833333 0.2638889 0.6111111 0.2638889 0.5833333 0.4375 0.6111111 0.4375 0.6388888 0.4375 0.6388888 0.4375 0.6203703 0.4375001 0.6296296 0.4375001 0.6296296 0.4375 0.6388888 0.4375 0.6666666 0.4375 0.6666666 0.4375 0.6388888 0.4375 0.6666666 0.4375 0.6666666 0.4375 0.8333333 0.375 0.8472222 0.375 0.8333333 0.4375 0.8472222 0.375 0.8611112 0.375 0.8472222 0.5 0.4722222 0.5 0.4583333 0.5 0.5 0.5 0.4398148 0.5 0.4166666 0.5 0.4583333 0.5 0.4166666 0.5 0.4212962 0.5 0.4444444 0.5 0.4027778 0.5 0.3981481 0.5 0.4212962 0.46875 0.8333333 0.4375 0.8472222 0.4375 0.8333333 0.46875 0.8472221 0.4375 0.8611112 0.4375 0.8472222 0.4375 0.6666666 0.46875 0.6666666 0.46875 0.6666666 0.4375 0.6666666 0.46875 0.6666666 0.46875 0.6666666 0.46875 0.5833334 0.4375 0.5833334 0.4375 0.5833334 0.46875 0.5833334 0.4375 0.5833334 0.4375 0.5833334 0.4375 0.5833334 0.4375 0.6111111 0.4375 0.6111111 0.4375 0.5833334 0.4375 0.6111111 0.4375 0.6111111 0.46875 0.375 0.4375 0.3888889 0.4375 0.375 0.46875 0.3888889 0.4375 0.4027778 0.4375 0.3888889 0.2638889 0.6666666 0.25 0.75 0.25 0.6666666 0.2777777 0.6666666 0.2638889 0.75 0.2638889 0.6666666 0.2638889 0.5 0.25 0.5833333 0.25 0.5 0.2777777 0.5 0.2638889 0.5833333 0.2638889 0.5 0.2638889 0.6388888 0.25 0.6666666 0.25 0.6388888 0.2777777 0.6388888 0.2638889 0.6666666 0.2638889 0.6388888 0.4375 0.375 0.375 0.3888889 0.375 0.375 0.4375 0.3888889 0.375 0.4027777 0.375 0.3888889 0.4375 0.6296296 0.4375 0.6388888 0.4375 0.6296296 0.4375 0.6203703 0.4375 0.6111111 0.4375 0.6203703 0.4375 0.6296296 0.4375 0.611111 0.4375 0.6203703 0.4375 0.6203703 0.4375 0.6388888 0.4375 0.6296296 0.4375001 0.6296296 0.4375 0.6388888 0.4375001 0.6296296 0.4375 0.6203703 0.4375 0.6111111 0.4375 0.6203703 0.4375001 0.6296296 0.4375 0.6111111 0.4375 0.6203703 0.4375 0.6203703 0.4375 0.6388888 0.4375001 0.6296296 0.4375 0.6388888 0.375 0.6666666 0.375 0.6388888 0.4375 0.5 0.375 0.5833333 0.375 0.5 0.4375 0.1388888 0.375 0.1666666 0.375 0.1388888 0.4375 0 0.375 0.08333331 0.375 0 0.4375 0.1666666 0.375 0.25 0.375 0.1666666 0.4375 0.6666666 0.375 0.75 0.375 0.6666666 0.4375 0.9027777 0.375 0.9166666 0.375 0.9027777 0.4375 0.4027778 0.375 0.4166666 0.375 0.4027777 0.2916666 0.6388888 0.2777777 0.6666666 0.2777777 0.6388888 0.2916666 0.5 0.2777777 0.5833333 0.2777777 0.5 0.5 0.3101851 0.5 0.25 0.5 0.2916666 0.5 0.3472222 0.5 0.3055555 0.5 0.3287037 0.2916666 0.6666666 0.2777778 0.75 0.2777777 0.6666666 0.46875 0.9027777 0.4375 0.9166666 0.4375 0.9027777 0.46875 0.4027778 0.4375 0.4166666 0.4375 0.4027778 0.46875 0.5 0.4375 0.5833334 0.4375 0.5 0.46875 0 0.4375 0.08333331 0.4375 0 0.46875 0.1666666 0.4375 0.25 0.4375 0.1666666 0.46875 0.6666666 0.4375 0.75 0.4375 0.6666666 0.4375 0.5833334 0.4375 0.6111111 0.4375 0.6111111 0.46875 0.5833334 0.4375 0.5833334 0.4375 0.5833334 0.4375 0.6666666 0.46875 0.6666666 0.46875 0.6666666 0.4375 0.5833334 0.4375 0.6111111 0.4375 0.6111111 0.46875 0.5833334 0.4375 0.5833334 0.4375 0.5833334 0.4375 0.6666666 0.46875 0.6666666 0.46875 0.6666666 0.46875 0.3611111 0.4375 0.375 0.4375 0.3611111 0.46875 0.8611111 0.4375 0.875 0.4375 0.8611112 0.25 0.6666666 0.2361111 0.75 0.2361111 0.6666667 0.5 0.3888889 0.5 0.375 0.5 0.3981481 0.5 0.4074074 0.5 0.375 0.5 0.4166666 0.25 0.5 0.2361111 0.5833333 0.2361111 0.5 0.25 0.6388888 0.2361111 0.6666667 0.2361111 0.6388888 0.4375 0.3611111 0.375 0.375 0.375 0.3611111 0.4375 0.8611112 0.375 0.875 0.375 0.8611112 0.25 0.5833333 0.2361111 0.6111111 0.2361111 0.5833333 0.25 0.6111111 0.2361111 0.6388888 0.2361111 0.6111111 0.4375 0.6388888 0.4375 0.6666666 0.4375 0.6666666 0.4375 0.6111111 0.4375 0.6388888 0.4375 0.6388888 0.4375 0.6388888 0.4375 0.6666666 0.4375 0.6666666 0.4375 0.6111111 0.4375 0.6388888 0.4375 0.6388888 0.2916666 0.5833333 0.2777777 0.6111111 0.2777777 0.5833333 0.2916666 0.6111111 0.2777777 0.6388888 0.2777777 0.6111111 0.4375 0.08333331 0.375 0.1111111 0.375 0.08333331 0.4375 0.1111111 0.375 0.1388888 0.375 0.1111111 0.4375 0.5833334 0.375 0.6111111 0.375 0.5833333 0.4375 0.6111111 0.375 0.6388888 0.375 0.6111111 0.4375 0.6111111 0.4375 0.6388888 0.4375 0.6388888 0.4375 0.6203703 0.4375 0.6296296 0.4375 0.6296296 0.4375 0.6388888 0.4375 0.6666666 0.4375 0.6666666 0.4375 0.6388888 0.4375 0.6666666 0.4375 0.6666666 0.2222222 0.6111111 0.2083333 0.6388888 0.2083333 0.6111111 0.2361111 0.6111111 0.2222222 0.6388888 0.2222222 0.6111111 0.2222222 0.5833333 0.2083333 0.6111111 0.2083333 0.5833333 0.2361111 0.5833333 0.2222222 0.6111111 0.2222222 0.5833333 0.4375 0.3333333 0.375 0.3472222 0.375 0.3333333 0.4375 0.3472222 0.375 0.3611111 0.375 0.3472222 0.2222222 0.6388888 0.2083333 0.6666666 0.2083333 0.6388888 0.2361111 0.6388888 0.2222222 0.6666666 0.2222222 0.6388888 0.2222222 0.5 0.2083333 0.5833333 0.2083333 0.5 0.2361111 0.5 0.2222222 0.5833333 0.2222222 0.5 0.2222222 0.6666666 0.2083333 0.75 0.2083333 0.6666666 0.2361111 0.6666667 0.2222222 0.75 0.2222222 0.6666666 0.46875 0.3333333 0.4375 0.3472222 0.4375 0.3333333 0.46875 0.3472222 0.4375 0.3611111 0.4375 0.3472222 0.4375 0.6666666 0.46875 0.6666666 0.46875 0.6666666 0.4375 0.6666666 0.46875 0.6666666 0.46875 0.6666666 0.46875 0.5833334 0.4375 0.5833334 0.4375 0.5833334 0.46875 0.5833334 0.4375 0.5833334 0.4375 0.5833334 0.4375 0.5833334 0.4375 0.611111 0.4375 0.6111111 0.4375 0.5833334 0.4375 0.6111111 0.4375 0.611111 0.46875 0.875 0.4375 0.8888888 0.4375 0.875 0.46875 0.8888888 0.4375 0.9027777 0.4375 0.8888888 0.5 0.375 0.5 0.3518518 0.5 0.375 0.5 0.3611111 0.5 0.3287037 0.5 0.3518518 0.5 0.375 0.5 0.3333333 0.5 0.375 0.5 0.3425925 0.5 0.2916666 0.5 0.3333333 0.4375 0.875 0.375 0.8888888 0.375 0.875 0.4375 0.8888888 0.375 0.9027777 0.375 0.8888888 0.2638889 0.6111111 0.25 0.6388888 0.25 0.6111111 0.2777777 0.6111111 0.2638889 0.6388888 0.2638889 0.6111111 0.2638889 0.5833333 0.25 0.6111111 0.25 0.5833333 0.2777777 0.5833333 0.2638889 0.6111111 0.2638889 0.5833333 0.4375 0.6111111 0.4375 0.6388888 0.4375 0.6388888 0.4375 0.6203703 0.4375001 0.6296296 0.4375001 0.6296296 0.4375 0.6388888 0.4375 0.6666666 0.4375 0.6666666 0.4375 0.6388888 0.4375 0.6666666 0.4375 0.6666666 0.4375 0.8333333 0.375 0.8472222 0.375 0.8333333 0.4375 0.8472222 0.375 0.8611112 0.375 0.8472222 0.5 0.4722222 0.5 0.4583333 0.5 0.5 0.5 0.4398148 0.5 0.4166666 0.5 0.4583333 0.5 0.4166666 0.5 0.4212962 0.5 0.4444444 0.5 0.4027778 0.5 0.3981481 0.5 0.4212962 0.46875 0.8333333 0.4375 0.8472222 0.4375 0.8333333 0.46875 0.8472221 0.4375 0.8611112 0.4375 0.8472222 0.4375 0.6666666 0.46875 0.6666666 0.46875 0.6666666 0.4375 0.6666666 0.46875 0.6666666 0.46875 0.6666666 0.46875 0.5833334 0.4375 0.5833334 0.4375 0.5833334 0.46875 0.5833334 0.4375 0.5833334 0.4375 0.5833334 0.4375 0.5833334 0.4375 0.6111111 0.4375 0.6111111 0.4375 0.5833334 0.4375 0.6111111 0.4375 0.6111111 0.46875 0.375 0.4375 0.3888889 0.4375 0.375 0.46875 0.3888889 0.4375 0.4027778 0.4375 0.3888889 0.2638889 0.6666666 0.25 0.75 0.25 0.6666666 0.2777777 0.6666666 0.2638889 0.75 0.2638889 0.6666666 0.2638889 0.5 0.25 0.5833333 0.25 0.5 0.2777777 0.5 0.2638889 0.5833333 0.2638889 0.5 0.2638889 0.6388888 0.25 0.6666666 0.25 0.6388888 0.2777777 0.6388888 0.2638889 0.6666666 0.2638889 0.6388888 0.4375 0.375 0.375 0.3888889 0.375 0.375 0.4375 0.3888889 0.375 0.4027777 0.375 0.3888889 0.4375 0.6296296 0.4375 0.6388888 0.4375 0.6388888 0.4375 0.6203703 0.4375 0.6111111 0.4375 0.6203703 0.4375 0.6296296 0.4375 0.611111 0.4375 0.6203703 0.4375 0.6203703 0.4375 0.6388888 0.4375 0.6296296 0.4375001 0.6296296 0.4375 0.6388888 0.4375001 0.6296296 0.4375 0.6203703 0.4375 0.6111111 0.4375 0.6111111 0.4375001 0.6296296 0.4375 0.6111111 0.4375 0.6203703 0.4375 0.6203703 0.4375 0.6388888 0.4375001 0.6296296 0.5 0.3101851 0.5 0.25 0.5 0.2916666 0.5 0.3472222 0.5 0.3055555 0.5 0.3287037 0.2916666 0.6666666 0.2777778 0.75 0.2777777 0.6666666 0.46875 0.9027777 0.4375 0.9166666 0.4375 0.9027777 0.46875 0.4027778 0.4375 0.4166666 0.4375 0.4027778 0.46875 0.5 0.4375 0.5833334 0.4375 0.5 0.46875 0.6666666 0.4375 0.75 0.4375 0.6666666 0.4375 0.5833334 0.4375 0.6111111 0.4375 0.6111111 0.46875 0.5833334 0.4375 0.5833334 0.4375 0.5833334 0.4375 0.6666666 0.46875 0.6666666 0.46875 0.6666666 0.4375 0.5833334 0.4375 0.6111111 0.4375 0.6111111 0.46875 0.5833334 0.4375 0.5833334 0.4375 0.5833334 0.4375 0.6666666 0.46875 0.6666666 0.46875 0.6666666 0.46875 0.3611111 0.4375 0.375 0.4375 0.3611111 0.46875 0.8611111 0.4375 0.875 0.4375 0.8611112 0.25 0.6666666 0.2361111 0.75 0.2361111 0.6666667 0.5 0.3888889 0.5 0.375 0.5 0.3981481 0.5 0.4074074 0.5 0.375 0.5 0.4166666 0.25 0.5 0.2361111 0.5833333 0.2361111 0.5 0.25 0.6388888 0.2361111 0.6666667 0.2361111 0.6388888 0.4375 0.3611111 0.375 0.375 0.375 0.3611111 0.4375 0.8611112 0.375 0.875 0.375 0.8611112 0.25 0.5833333 0.2361111 0.6111111 0.2361111 0.5833333 0.25 0.6111111 0.2361111 0.6388888 0.2361111 0.6111111 0.4375 0.6388888 0.4375 0.6666666 0.4375 0.6666666 0.4375 0.6111111 0.4375 0.6388888 0.4375 0.6388888 0.4375 0.6388888 0.4375 0.6666666 0.4375 0.6666666 0.4375 0.6111111 0.4375 0.6388888 0.4375 0.6388888 0.2916666 0.5833333 0.2777777 0.6111111 0.2777777 0.5833333 0.2916666 0.6111111 0.2777777 0.6388888 0.2777777 0.6111111 0.4375 0.5833334 0.375 0.6111111 0.375 0.5833333 0.4375 0.6111111 0.375 0.6388888 0.375 0.6111111 0.4375 0.6111111 0.4375 0.6388888 0.4375 0.6388888 0.4375 0.6203703 0.4375 0.6296296 0.4375 0.6296296 0.4375 0.6388888 0.4375 0.6666666 0.4375 0.6666666 0.4375 0.6388888 0.4375 0.6666666 0.4375 0.6666666 0.2222222 0.6111111 0.2083333 0.6388888 0.2083333 0.6111111 0.2361111 0.6111111 0.2222222 0.6388888 0.2222222 0.6111111 0.2222222 0.5833333 0.2083333 0.6111111 0.2083333 0.5833333 0.2361111 0.5833333 0.2222222 0.6111111 0.2222222 0.5833333 0.4375 0.3333333 0.375 0.3472222 0.375 0.3333333 0.4375 0.3472222 0.375 0.3611111 0.375 0.3472222 0.2222222 0.6388888 0.2083333 0.6666666 0.2083333 0.6388888 0.2361111 0.6388888 0.2222222 0.6666666 0.2222222 0.6388888 0.2222222 0.5 0.2083333 0.5833333 0.2083333 0.5 0.2361111 0.5 0.2222222 0.5833333 0.2222222 0.5 0.2222222 0.6666666 0.2083333 0.75 0.2083333 0.6666666 0.2361111 0.6666667 0.2222222 0.75 0.2222222 0.6666666 0.46875 0.3333333 0.4375 0.3472222 0.4375 0.3333333 0.46875 0.3472222 0.4375 0.3611111 0.4375 0.3472222 0.4375 0.6666666 0.46875 0.6666666 0.46875 0.6666666 0.4375 0.6666666 0.46875 0.6666666 0.46875 0.6666666 0.46875 0.5833334 0.4375 0.5833334 0.4375 0.5833334 0.46875 0.5833334 0.4375 0.5833334 0.4375 0.5833334 0.4375 0.5833334 0.4375 0.611111 0.4375 0.6111111 0.4375 0.5833334 0.4375 0.6111111 0.4375 0.611111 0.46875 0.875 0.4375 0.8888888 0.4375 0.875 0.46875 0.8888888 0.4375 0.9027777 0.4375 0.8888888 0.5 0.375 0.5 0.3518518 0.5 0.375 0.5 0.3611111 0.5 0.3287037 0.5 0.3518518 0.5 0.375 0.5 0.3333333 0.5 0.375 0.5 0.3425925 0.5 0.2916666 0.5 0.3333333 0.4375 0.875 0.375 0.8888888 0.375 0.875 0.4375 0.8888888 0.375 0.9027777 0.375 0.8888888 0.2638889 0.6111111 0.25 0.6388888 0.25 0.6111111 0.2777777 0.6111111 0.2638889 0.6388888 0.2638889 0.6111111 0.2638889 0.5833333 0.25 0.6111111 0.25 0.5833333 0.2777777 0.5833333 0.2638889 0.6111111 0.2638889 0.5833333 0.4375 0.6111111 0.4375 0.6388888 0.4375 0.6388888 0.4375 0.6203703 0.4375001 0.6296296 0.4375001 0.6296296 0.4375 0.6388888 0.4375 0.6666666 0.4375 0.6666666 0.4375 0.6388888 0.4375 0.6666666 0.4375 0.6666666 0.4375 0.8333333 0.375 0.8472222 0.375 0.8333333 0.4375 0.8472222 0.375 0.8611112 0.375 0.8472222 0.5 0.4722222 0.5 0.4583333 0.5 0.5 0.5 0.4398148 0.5 0.4166666 0.5 0.4583333 0.5 0.4166666 0.5 0.4212962 0.5 0.4444444 0.5 0.4027778 0.5 0.3981481 0.5 0.4212962 0.46875 0.8333333 0.4375 0.8472222 0.4375 0.8333333 0.46875 0.8472221 0.4375 0.8611112 0.4375 0.8472222 0.4375 0.6666666 0.46875 0.6666666 0.46875 0.6666666 0.4375 0.6666666 0.46875 0.6666666 0.46875 0.6666666 0.46875 0.5833334 0.4375 0.5833334 0.4375 0.5833334 0.46875 0.5833334 0.4375 0.5833334 0.4375 0.5833334 0.4375 0.5833334 0.4375 0.6111111 0.4375 0.6111111 0.4375 0.5833334 0.4375 0.6111111 0.4375 0.6111111 0.46875 0.375 0.4375 0.3888889 0.4375 0.375 0.46875 0.3888889 0.4375 0.4027778 0.4375 0.3888889 0.2638889 0.6666666 0.25 0.75 0.25 0.6666666 0.2777777 0.6666666 0.2638889 0.75 0.2638889 0.6666666 0.2638889 0.5 0.25 0.5833333 0.25 0.5 0.2777777 0.5 0.2638889 0.5833333 0.2638889 0.5 0.2638889 0.6388888 0.25 0.6666666 0.25 0.6388888 0.2777777 0.6388888 0.2638889 0.6666666 0.2638889 0.6388888 0.4375 0.375 0.375 0.3888889 0.375 0.375 0.4375 0.3888889 0.375 0.4027777 0.375 0.3888889 0.4375 0.6296296 0.4375 0.6388888 0.4375 0.6388888 0.4375 0.6203703 0.4375 0.6111111 0.4375 0.6203703 0.4375 0.6296296 0.4375 0.611111 0.4375 0.6203703 0.4375 0.6203703 0.4375 0.6388888 0.4375 0.6296296 0.4375001 0.6296296 0.4375 0.6388888 0.4375001 0.6296296 0.4375 0.6203703 0.4375 0.6111111 0.4375 0.6203703 0.4375001 0.6296296 0.4375 0.6111111 0.4375 0.6203703 0.4375 0.6203703 0.4375 0.6388888 0.4375001 0.6296296 0.4375 0.6388888 0.375 0.6666666 0.375 0.6388888 0.4375 0.5 0.375 0.5833333 0.375 0.5 0.4375 0.6666666 0.375 0.75 0.375 0.6666666 0.46875 0.5 0.4375 0.5833334 0.4375 0.5 0.46875 0.6666666 0.4375 0.75 0.4375 0.6666666 0.4375 0.5833334 0.375 0.6111111 0.375 0.5833333 0.4375 0.6111111 0.375 0.6388888 0.375 0.6111111 0.2916666 0.5 0.2916666 0.5833333 0.2777777 0.5833333 0.2916666 0.6388888 0.2916666 0.6666666 0.2777777 0.6666666 0.4375 0.4027778 0.4375 0.4166666 0.375 0.4166666 0.4375 0.9027777 0.4375 0.9166666 0.375 0.9166666 0.4375 0.4027778 0.4375 0.4166666 0.375 0.4166666 0.2916666 0.6388888 0.2916666 0.6666666 0.2777777 0.6666666 0.2916666 0.5 0.2916666 0.5833333 0.2777777 0.5833333 0.5 0.3101851 0.5 0.2777777 0.5 0.25 0.5 0.3472222 0.5 0.3333333 0.5 0.3055555 0.2916666 0.6666666 0.2916666 0.75 0.2777778 0.75 0.46875 0.9027777 0.46875 0.9166666 0.4375 0.9166666 0.46875 0.4027778 0.46875 0.4166666 0.4375 0.4166666 0.4375 0.9027777 0.4375 0.9166666 0.375 0.9166666 0.4375 0.6666666 0.4375 0.75 0.375 0.75 0.4375 0.5833334 0.4375 0.5833334 0.4375 0.6111111 0.46875 0.5833334 0.46875 0.5833334 0.4375 0.5833334 0.4375 0.6666666 0.4375 0.6666666 0.46875 0.6666666 0.4375 0.6111111 0.4375 0.5833334 0.4375 0.5833334 0.46875 0.5833334 0.46875 0.5833334 0.4375 0.5833334 0.4375 0.6666666 0.4375 0.6666666 0.46875 0.6666666 0.46875 0.3611111 0.46875 0.375 0.4375 0.375 0.46875 0.8611111 0.46875 0.875 0.4375 0.875 0.25 0.6666666 0.25 0.75 0.2361111 0.75 0.5 0.3981481 0.5 0.3888889 0.5 0.375 0.5 0.4166666 0.5 0.4074074 0.5 0.375 0.25 0.5 0.25 0.5833333 0.2361111 0.5833333 0.25 0.6388888 0.25 0.6666666 0.2361111 0.6666667 0.4375 0.3611111 0.4375 0.375 0.375 0.375 0.4375 0.8611112 0.4375 0.875 0.375 0.875 0.25 0.5833333 0.25 0.6111111 0.2361111 0.6111111 0.25 0.6111111 0.25 0.6388888 0.2361111 0.6388888 0.4375 0.6388888 0.4375 0.6388888 0.4375 0.6666666 0.4375 0.6111111 0.4375 0.6111111 0.4375 0.6388888 0.4375 0.6388888 0.4375 0.6388888 0.4375 0.6666666 0.4375 0.6111111 0.4375 0.6111111 0.4375 0.6388888 0.2916666 0.5833333 0.2916666 0.6111111 0.2777777 0.6111111 0.2916666 0.6111111 0.2916666 0.6388888 0.2777777 0.6388888 0.4375 0.5 0.4375 0.5833334 0.375 0.5833333 0.4375 0.6388888 0.4375 0.6666666 0.375 0.6666666 0.4375 0.6111111 0.4375 0.611111 0.4375 0.6388888 0.4375 0.6203703 0.4375 0.6203703 0.4375 0.6296296 0.4375 0.6388888 0.4375 0.6388888 0.4375 0.6666666 0.4375 0.6388888 0.4375 0.6388888 0.4375 0.6666666 0.2222222 0.6111111 0.2222222 0.6388888 0.2083333 0.6388888 0.2361111 0.6111111 0.2361111 0.6388888 0.2222222 0.6388888 0.2222222 0.5833333 0.2222222 0.6111111 0.2083333 0.6111111 0.2361111 0.5833333 0.2361111 0.6111111 0.2222222 0.6111111 0.4375 0.3333333 0.4375 0.3472222 0.375 0.3472222 0.4375 0.3472222 0.4375 0.3611111 0.375 0.3611111 0.2222222 0.6388888 0.2222222 0.6666666 0.2083333 0.6666666 0.2361111 0.6388888 0.2361111 0.6666667 0.2222222 0.6666666 0.2222222 0.5 0.2222222 0.5833333 0.2083333 0.5833333 0.2361111 0.5 0.2361111 0.5833333 0.2222222 0.5833333 0.2222222 0.6666666 0.2222222 0.75 0.2083333 0.75 0.2361111 0.6666667 0.2361111 0.75 0.2222222 0.75 0.46875 0.3333333 0.46875 0.3472222 0.4375 0.3472222 0.46875 0.3472222 0.46875 0.3611111 0.4375 0.3611111 0.4375 0.6666666 0.4375 0.6666666 0.46875 0.6666666 0.4375 0.6666666 0.4375 0.6666666 0.46875 0.6666666 0.46875 0.5833334 0.46875 0.5833334 0.4375 0.5833334 0.46875 0.5833334 0.46875 0.5833334 0.4375 0.5833334 0.4375 0.6111111 0.4375 0.5833334 0.4375 0.5833334 0.4375 0.5833334 0.4375 0.5833334 0.4375 0.6111111 0.46875 0.875 0.46875 0.8888888 0.4375 0.8888888 0.46875 0.8888888 0.46875 0.9027777 0.4375 0.9027777 0.5 0.375 0.5 0.375 0.5 0.3611111 0.5 0.3611111 0.5 0.3472222 0.5 0.3287037 0.5 0.375 0.5 0.375 0.5 0.3425925 0.5 0.3425925 0.5 0.3101851 0.5 0.2916666 0.4375 0.875 0.4375 0.8888888 0.375 0.8888888 0.4375 0.8888888 0.4375 0.9027777 0.375 0.9027777 0.2638889 0.6111111 0.2638889 0.6388888 0.25 0.6388888 0.2777777 0.6111111 0.2777777 0.6388888 0.2638889 0.6388888 0.2638889 0.5833333 0.2638889 0.6111111 0.25 0.6111111 0.2777777 0.5833333 0.2777777 0.6111111 0.2638889 0.6111111 0.4375 0.6111111 0.4375 0.6111111 0.4375 0.6388888 0.4375 0.6203703 0.4375 0.6203703 0.4375001 0.6296296 0.4375 0.6388888 0.4375 0.6388888 0.4375 0.6666666 0.4375 0.6388888 0.4375 0.6388888 0.4375 0.6666666 0.4375 0.8333333 0.4375 0.8472222 0.375 0.8472222 0.4375 0.8472222 0.4375 0.8611112 0.375 0.8611112 0.5 0.4722222 0.5 0.4398148 0.5 0.4583333 0.5 0.4398148 0.5 0.4074074 0.5 0.4166666 0.5 0.4166666 0.5 0.4027778 0.5 0.4212962 0.5 0.4027778 0.5 0.3888889 0.5 0.3981481 0.46875 0.8333333 0.46875 0.8472221 0.4375 0.8472222 0.46875 0.8472221 0.46875 0.8611111 0.4375 0.8611112 0.4375 0.6666666 0.4375 0.6666666 0.46875 0.6666666 0.4375 0.6666666 0.4375 0.6666666 0.46875 0.6666666 0.46875 0.5833334 0.46875 0.5833334 0.4375 0.5833334 0.46875 0.5833334 0.46875 0.5833334 0.4375 0.5833334 0.4375 0.5833334 0.4375 0.5833334 0.4375 0.6111111 0.4375 0.5833334 0.4375 0.5833334 0.4375 0.6111111 0.46875 0.375 0.46875 0.3888889 0.4375 0.3888889 0.46875 0.3888889 0.46875 0.4027778 0.4375 0.4027778 0.2638889 0.6666666 0.2638889 0.75 0.25 0.75 0.2777777 0.6666666 0.2777778 0.75 0.2638889 0.75 0.2638889 0.5 0.2638889 0.5833333 0.25 0.5833333 0.2777777 0.5 0.2777777 0.5833333 0.2638889 0.5833333 0.2638889 0.6388888 0.2638889 0.6666666 0.25 0.6666666 0.2777777 0.6388888 0.2777777 0.6666666 0.2638889 0.6666666 0.4375 0.375 0.4375 0.3888889 0.375 0.3888889 0.4375 0.3888889 0.4375 0.4027778 0.375 0.4027777 0.4375 0.6296296 0.4375 0.6388888 0.4375 0.6388888 0.4375 0.6203703 0.4375 0.611111 0.4375 0.6111111 0.4375 0.6296296 0.4375 0.6388888 0.4375 0.611111 0.4375 0.6203703 0.4375 0.6111111 0.4375 0.6388888 0.4375001 0.6296296 0.4375 0.6388888 0.4375 0.6388888 0.4375 0.6203703 0.4375 0.6111111 0.4375 0.6111111 0.4375001 0.6296296 0.4375 0.6388888 0.4375 0.6111111 0.4375 0.6203703 0.4375 0.6111111 0.4375 0.6388888 0.4375 0.6388888 0.4375 0.6666666 0.375 0.6666666 0.4375 0.5 0.4375 0.5833334 0.375 0.5833333 0.4375 0.1388888 0.4375 0.1666666 0.375 0.1666666 0.4375 0 0.4375 0.08333331 0.375 0.08333331 0.4375 0.1666666 0.4375 0.25 0.375 0.25 0.4375 0.6666666 0.4375 0.75 0.375 0.75 0.4375 0.9027777 0.4375 0.9166666 0.375 0.9166666 0.4375 0.4027778 0.4375 0.4166666 0.375 0.4166666 0.2916666 0.6388888 0.2916666 0.6666666 0.2777777 0.6666666 0.2916666 0.5 0.2916666 0.5833333 0.2777777 0.5833333 0.5 0.3101851 0.5 0.2777777 0.5 0.25 0.5 0.3472222 0.5 0.3333333 0.5 0.3055555 0.2916666 0.6666666 0.2916666 0.75 0.2777778 0.75 0.46875 0.9027777 0.46875 0.9166666 0.4375 0.9166666 0.46875 0.4027778 0.46875 0.4166666 0.4375 0.4166666 0.46875 0.5 0.46875 0.5833334 0.4375 0.5833334 0.46875 0 0.46875 0.08333331 0.4375 0.08333331 0.46875 0.1666666 0.46875 0.25 0.4375 0.25 0.46875 0.6666666 0.46875 0.75 0.4375 0.75 0.4375 0.5833334 0.4375 0.5833334 0.4375 0.6111111 0.46875 0.5833334 0.46875 0.5833334 0.4375 0.5833334 0.4375 0.6666666 0.4375 0.6666666 0.46875 0.6666666 0.4375 0.5833334 0.4375 0.5833334 0.4375 0.6111111 0.46875 0.5833334 0.46875 0.5833334 0.4375 0.5833334 0.4375 0.6666666 0.4375 0.6666666 0.46875 0.6666666 0.46875 0.3611111 0.46875 0.375 0.4375 0.375 0.46875 0.8611111 0.46875 0.875 0.4375 0.875 0.25 0.6666666 0.25 0.75 0.2361111 0.75 0.5 0.3888889 0.5 0.375 0.5 0.375 0.5 0.4074074 0.5 0.375 0.5 0.375 0.25 0.5 0.25 0.5833333 0.2361111 0.5833333 0.25 0.6388888 0.25 0.6666666 0.2361111 0.6666667 0.4375 0.3611111 0.4375 0.375 0.375 0.375 0.4375 0.8611112 0.4375 0.875 0.375 0.875 0.25 0.5833333 0.25 0.6111111 0.2361111 0.6111111 0.25 0.6111111 0.25 0.6388888 0.2361111 0.6388888 0.4375 0.6388888 0.4375 0.6388888 0.4375 0.6666666 0.4375 0.6111111 0.4375 0.6111111 0.4375 0.6388888 0.4375 0.6388888 0.4375 0.6388888 0.4375 0.6666666 0.4375 0.6111111 0.4375 0.6111111 0.4375 0.6388888 0.2916666 0.5833333 0.2916666 0.6111111 0.2777777 0.6111111 0.2916666 0.6111111 0.2916666 0.6388888 0.2777777 0.6388888 0.4375 0.08333331 0.4375 0.1111111 0.375 0.1111111 0.4375 0.1111111 0.4375 0.1388888 0.375 0.1388888 0.4375 0.5833334 0.4375 0.6111111 0.375 0.6111111 0.4375 0.6111111 0.4375 0.6388888 0.375 0.6388888 0.4375 0.6111111 0.4375 0.611111 0.4375 0.6388888 0.4375 0.6203703 0.4375 0.6203703 0.4375 0.6296296 0.4375 0.6388888 0.4375 0.6388888 0.4375 0.6666666 0.4375 0.6388888 0.4375 0.6388888 0.4375 0.6666666 0.2222222 0.6111111 0.2222222 0.6388888 0.2083333 0.6388888 0.2361111 0.6111111 0.2361111 0.6388888 0.2222222 0.6388888 0.2222222 0.5833333 0.2222222 0.6111111 0.2083333 0.6111111 0.2361111 0.5833333 0.2361111 0.6111111 0.2222222 0.6111111 0.4375 0.3333333 0.4375 0.3472222 0.375 0.3472222 0.4375 0.3472222 0.4375 0.3611111 0.375 0.3611111 0.2222222 0.6388888 0.2222222 0.6666666 0.2083333 0.6666666 0.2361111 0.6388888 0.2361111 0.6666667 0.2222222 0.6666666 0.2222222 0.5 0.2222222 0.5833333 0.2083333 0.5833333 0.2361111 0.5 0.2361111 0.5833333 0.2222222 0.5833333 0.2222222 0.6666666 0.2222222 0.75 0.2083333 0.75 0.2361111 0.6666667 0.2361111 0.75 0.2222222 0.75 0.46875 0.3333333 0.46875 0.3472222 0.4375 0.3472222 0.46875 0.3472222 0.46875 0.3611111 0.4375 0.3611111 0.4375 0.6666666 0.4375 0.6666666 0.46875 0.6666666 0.4375 0.6666666 0.4375 0.6666666 0.46875 0.6666666 0.46875 0.5833334 0.46875 0.5833334 0.4375 0.5833334 0.46875 0.5833334 0.46875 0.5833334 0.4375 0.5833334 0.4375 0.5833334 0.4375 0.5833334 0.4375 0.611111 0.4375 0.5833334 0.4375 0.5833334 0.4375 0.6111111 0.46875 0.875 0.46875 0.8888888 0.4375 0.8888888 0.46875 0.8888888 0.46875 0.9027777 0.4375 0.9027777 0.5 0.375 0.5 0.3611111 0.5 0.3518518 0.5 0.3611111 0.5 0.3472222 0.5 0.3287037 0.5 0.375 0.5 0.3425925 0.5 0.3333333 0.5 0.3425925 0.5 0.3101851 0.5 0.2916666 0.4375 0.875 0.4375 0.8888888 0.375 0.8888888 0.4375 0.8888888 0.4375 0.9027777 0.375 0.9027777 0.2638889 0.6111111 0.2638889 0.6388888 0.25 0.6388888 0.2777777 0.6111111 0.2777777 0.6388888 0.2638889 0.6388888 0.2638889 0.5833333 0.2638889 0.6111111 0.25 0.6111111 0.2777777 0.5833333 0.2777777 0.6111111 0.2638889 0.6111111 0.4375 0.6111111 0.4375 0.6111111 0.4375 0.6388888 0.4375 0.6203703 0.4375 0.6203703 0.4375001 0.6296296 0.4375 0.6388888 0.4375 0.6388888 0.4375 0.6666666 0.4375 0.6388888 0.4375 0.6388888 0.4375 0.6666666 0.4375 0.8333333 0.4375 0.8472222 0.375 0.8472222 0.4375 0.8472222 0.4375 0.8611112 0.375 0.8611112 0.5 0.4722222 0.5 0.4398148 0.5 0.4583333 0.5 0.4398148 0.5 0.4074074 0.5 0.4166666 0.5 0.4166666 0.5 0.4027778 0.5 0.4212962 0.5 0.4027778 0.5 0.3888889 0.5 0.3981481 0.46875 0.8333333 0.46875 0.8472221 0.4375 0.8472222 0.46875 0.8472221 0.46875 0.8611111 0.4375 0.8611112 0.4375 0.6666666 0.4375 0.6666666 0.46875 0.6666666 0.4375 0.6666666 0.4375 0.6666666 0.46875 0.6666666 0.46875 0.5833334 0.46875 0.5833334 0.4375 0.5833334 0.46875 0.5833334 0.46875 0.5833334 0.4375 0.5833334 0.4375 0.5833334 0.4375 0.5833334 0.4375 0.6111111 0.4375 0.5833334 0.4375 0.5833334 0.4375 0.6111111 0.46875 0.375 0.46875 0.3888889 0.4375 0.3888889 0.46875 0.3888889 0.46875 0.4027778 0.4375 0.4027778 0.2638889 0.6666666 0.2638889 0.75 0.25 0.75 0.2777777 0.6666666 0.2777778 0.75 0.2638889 0.75 0.2638889 0.5 0.2638889 0.5833333 0.25 0.5833333 0.2777777 0.5 0.2777777 0.5833333 0.2638889 0.5833333 0.2638889 0.6388888 0.2638889 0.6666666 0.25 0.6666666 0.2777777 0.6388888 0.2777777 0.6666666 0.2638889 0.6666666 0.4375 0.375 0.4375 0.3888889 0.375 0.3888889 0.4375 0.3888889 0.4375 0.4027778 0.375 0.4027777 0.4375 0.6296296 0.4375 0.6296296 0.4375 0.6388888 0.4375 0.6203703 0.4375 0.611111 0.4375 0.6111111 0.4375 0.6296296 0.4375 0.6388888 0.4375 0.611111 0.4375 0.6203703 0.4375 0.6111111 0.4375 0.6388888 0.4375001 0.6296296 0.4375 0.6388888 0.4375 0.6388888 0.4375 0.6203703 0.4375 0.6203703 0.4375 0.6111111 0.4375001 0.6296296 0.4375 0.6388888 0.4375 0.6111111 0.4375 0.6203703 0.4375 0.6111111 0.4375 0.6388888 0.5 0.3101851 0.5 0.2777777 0.5 0.25 0.5 0.3472222 0.5 0.3333333 0.5 0.3055555 0.2916666 0.6666666 0.2916666 0.75 0.2777778 0.75 0.46875 0.9027777 0.46875 0.9166666 0.4375 0.9166666 0.46875 0.4027778 0.46875 0.4166666 0.4375 0.4166666 0.46875 0.5 0.46875 0.5833334 0.4375 0.5833334 0.46875 0.6666666 0.46875 0.75 0.4375 0.75 0.4375 0.5833334 0.4375 0.5833334 0.4375 0.6111111 0.46875 0.5833334 0.46875 0.5833334 0.4375 0.5833334 0.4375 0.6666666 0.4375 0.6666666 0.46875 0.6666666 0.4375 0.5833334 0.4375 0.5833334 0.4375 0.6111111 0.46875 0.5833334 0.46875 0.5833334 0.4375 0.5833334 0.4375 0.6666666 0.4375 0.6666666 0.46875 0.6666666 0.46875 0.3611111 0.46875 0.375 0.4375 0.375 0.46875 0.8611111 0.46875 0.875 0.4375 0.875 0.25 0.6666666 0.25 0.75 0.2361111 0.75 0.5 0.3888889 0.5 0.375 0.5 0.375 0.5 0.4074074 0.5 0.375 0.5 0.375 0.25 0.5 0.25 0.5833333 0.2361111 0.5833333 0.25 0.6388888 0.25 0.6666666 0.2361111 0.6666667 0.4375 0.3611111 0.4375 0.375 0.375 0.375 0.4375 0.8611112 0.4375 0.875 0.375 0.875 0.25 0.5833333 0.25 0.6111111 0.2361111 0.6111111 0.25 0.6111111 0.25 0.6388888 0.2361111 0.6388888 0.4375 0.6388888 0.4375 0.6388888 0.4375 0.6666666 0.4375 0.6111111 0.4375 0.6111111 0.4375 0.6388888 0.4375 0.6388888 0.4375 0.6388888 0.4375 0.6666666 0.4375 0.6111111 0.4375 0.6111111 0.4375 0.6388888 0.2916666 0.5833333 0.2916666 0.6111111 0.2777777 0.6111111 0.2916666 0.6111111 0.2916666 0.6388888 0.2777777 0.6388888 0.4375 0.5833334 0.4375 0.6111111 0.375 0.6111111 0.4375 0.6111111 0.4375 0.6388888 0.375 0.6388888 0.4375 0.6111111 0.4375 0.611111 0.4375 0.6388888 0.4375 0.6203703 0.4375 0.6203703 0.4375 0.6296296 0.4375 0.6388888 0.4375 0.6388888 0.4375 0.6666666 0.4375 0.6388888 0.4375 0.6388888 0.4375 0.6666666 0.2222222 0.6111111 0.2222222 0.6388888 0.2083333 0.6388888 0.2361111 0.6111111 0.2361111 0.6388888 0.2222222 0.6388888 0.2222222 0.5833333 0.2222222 0.6111111 0.2083333 0.6111111 0.2361111 0.5833333 0.2361111 0.6111111 0.2222222 0.6111111 0.4375 0.3333333 0.4375 0.3472222 0.375 0.3472222 0.4375 0.3472222 0.4375 0.3611111 0.375 0.3611111 0.2222222 0.6388888 0.2222222 0.6666666 0.2083333 0.6666666 0.2361111 0.6388888 0.2361111 0.6666667 0.2222222 0.6666666 0.2222222 0.5 0.2222222 0.5833333 0.2083333 0.5833333 0.2361111 0.5 0.2361111 0.5833333 0.2222222 0.5833333 0.2222222 0.6666666 0.2222222 0.75 0.2083333 0.75 0.2361111 0.6666667 0.2361111 0.75 0.2222222 0.75 0.46875 0.3333333 0.46875 0.3472222 0.4375 0.3472222 0.46875 0.3472222 0.46875 0.3611111 0.4375 0.3611111 0.4375 0.6666666 0.4375 0.6666666 0.46875 0.6666666 0.4375 0.6666666 0.4375 0.6666666 0.46875 0.6666666 0.46875 0.5833334 0.46875 0.5833334 0.4375 0.5833334 0.46875 0.5833334 0.46875 0.5833334 0.4375 0.5833334 0.4375 0.5833334 0.4375 0.5833334 0.4375 0.611111 0.4375 0.5833334 0.4375 0.5833334 0.4375 0.6111111 0.46875 0.875 0.46875 0.8888888 0.4375 0.8888888 0.46875 0.8888888 0.46875 0.9027777 0.4375 0.9027777 0.5 0.375 0.5 0.3611111 0.5 0.3518518 0.5 0.3611111 0.5 0.3472222 0.5 0.3287037 0.5 0.375 0.5 0.3425925 0.5 0.3333333 0.5 0.3425925 0.5 0.3101851 0.5 0.2916666 0.4375 0.875 0.4375 0.8888888 0.375 0.8888888 0.4375 0.8888888 0.4375 0.9027777 0.375 0.9027777 0.2638889 0.6111111 0.2638889 0.6388888 0.25 0.6388888 0.2777777 0.6111111 0.2777777 0.6388888 0.2638889 0.6388888 0.2638889 0.5833333 0.2638889 0.6111111 0.25 0.6111111 0.2777777 0.5833333 0.2777777 0.6111111 0.2638889 0.6111111 0.4375 0.6111111 0.4375 0.6111111 0.4375 0.6388888 0.4375 0.6203703 0.4375 0.6203703 0.4375001 0.6296296 0.4375 0.6388888 0.4375 0.6388888 0.4375 0.6666666 0.4375 0.6388888 0.4375 0.6388888 0.4375 0.6666666 0.4375 0.8333333 0.4375 0.8472222 0.375 0.8472222 0.4375 0.8472222 0.4375 0.8611112 0.375 0.8611112 0.5 0.4722222 0.5 0.4398148 0.5 0.4583333 0.5 0.4398148 0.5 0.4074074 0.5 0.4166666 0.5 0.4166666 0.5 0.4027778 0.5 0.4212962 0.5 0.4027778 0.5 0.3888889 0.5 0.3981481 0.46875 0.8333333 0.46875 0.8472221 0.4375 0.8472222 0.46875 0.8472221 0.46875 0.8611111 0.4375 0.8611112 0.4375 0.6666666 0.4375 0.6666666 0.46875 0.6666666 0.4375 0.6666666 0.4375 0.6666666 0.46875 0.6666666 0.46875 0.5833334 0.46875 0.5833334 0.4375 0.5833334 0.46875 0.5833334 0.46875 0.5833334 0.4375 0.5833334 0.4375 0.5833334 0.4375 0.5833334 0.4375 0.6111111 0.4375 0.5833334 0.4375 0.5833334 0.4375 0.6111111 0.46875 0.375 0.46875 0.3888889 0.4375 0.3888889 0.46875 0.3888889 0.46875 0.4027778 0.4375 0.4027778 0.2638889 0.6666666 0.2638889 0.75 0.25 0.75 0.2777777 0.6666666 0.2777778 0.75 0.2638889 0.75 0.2638889 0.5 0.2638889 0.5833333 0.25 0.5833333 0.2777777 0.5 0.2777777 0.5833333 0.2638889 0.5833333 0.2638889 0.6388888 0.2638889 0.6666666 0.25 0.6666666 0.2777777 0.6388888 0.2777777 0.6666666 0.2638889 0.6666666 0.4375 0.375 0.4375 0.3888889 0.375 0.3888889 0.4375 0.3888889 0.4375 0.4027778 0.375 0.4027777 0.4375 0.6296296 0.4375 0.6296296 0.4375 0.6388888 0.4375 0.6203703 0.4375 0.611111 0.4375 0.6111111 0.4375 0.6296296 0.4375 0.6388888 0.4375 0.611111 0.4375 0.6203703 0.4375 0.6111111 0.4375 0.6388888 0.4375001 0.6296296 0.4375 0.6388888 0.4375 0.6388888 0.4375 0.6203703 0.4375 0.6111111 0.4375 0.6111111 0.4375001 0.6296296 0.4375 0.6388888 0.4375 0.6111111 0.4375 0.6203703 0.4375 0.6111111 0.4375 0.6388888 0.4375 0.6388888 0.4375 0.6666666 0.375 0.6666666 0.4375 0.5 0.4375 0.5833334 0.375 0.5833333 0.4375 0.6666666 0.4375 0.75 0.375 0.75 0.46875 0.5 0.46875 0.5833334 0.4375 0.5833334 0.46875 0.6666666 0.46875 0.75 0.4375 0.75 0.4375 0.5833334 0.4375 0.6111111 0.375 0.6111111 0.4375 0.6111111 0.4375 0.6388888 0.375 0.6388888</float_array>
          <technique_common>
            <accessor source="#Cube-mesh-map-0-array" count="2040" stride="2">
              <param name="S" type="float"/>
              <param name="T" type="float"/>
            </accessor>
          </technique_common>
        </source>
        <vertices id="Cube-mesh-vertices">
          <input semantic="POSITION" source="#Cube-mesh-positions"/>
        </vertices>
        <triangles material="paintable-0-material" count="452">
          <input semantic="VERTEX" source="#Cube-mesh-vertices" offset="0"/>
          <input semantic="NORMAL" source="#Cube-mesh-normals" offset="1"/>
          <input semantic="TEXCOORD" source="#Cube-mesh-map-0" offset="2" set="0"/>
          <p>27 0 0 284 0 1 278 0 2 233 1 3 286 1 4 302 1 5 275 2 6 27 2 7 278 2 8 39 3 9 107 3 10 42 3 11 67 4 12 312 4 13 70 4 14 325 5 15 78 5 16 94 5 17 312 6 18 76 6 19 70 6 20 54 7 21 120 7 22 41 7 23 50 8 24 126 8 25 45 8 26 315 9 27 65 9 28 78 9 29 41 10 30 114 10 31 39 10 32 69 11 33 316 11 34 67 11 35 247 12 36 313 12 37 250 12 38 6 13 39 26 13 40 24 13 41 51 20 60 16 20 61 49 20 62 83 21 63 17 21 64 81 21 65 15 22 66 43 22 67 36 22 68 85 23 69 19 23 70 20 23 71 83 24 72 23 24 73 18 24 74 12 25 75 34 25 76 32 25 77 31 26 78 36 26 79 58 26 80 49 27 81 12 27 82 32 27 83 81 28 84 13 28 85 64 28 86 14 29 87 56 29 88 34 29 89 30 30 90 58 30 91 56 30 92 314 35 105 92 35 106 76 35 107 324 36 108 94 36 109 92 36 110 11 37 111 25 37 112 27 37 113 235 38 114 24 38 115 233 38 116 57 43 129 143 43 130 142 43 131 56 44 132 59 44 133 57 44 134 35 45 135 142 45 136 108 45 137 34 46 138 57 46 139 35 46 140 113 47 141 33 47 142 104 47 143 48 48 144 32 48 145 33 48 146 59 49 147 110 49 148 143 49 149 58 50 150 37 50 151 59 50 152 33 51 153 108 51 154 104 51 155 32 52 156 35 52 157 33 52 158 37 53 159 107 53 160 110 53 161 36 54 162 42 54 163 37 54 164 119 55 165 48 55 166 113 55 167 50 56 168 49 56 169 48 56 170 18 63 189 38 63 190 17 63 191 40 64 192 39 64 193 38 64 194 20 65 195 51 65 196 44 65 197 51 66 198 45 66 199 44 66 200 18 67 201 55 67 202 40 67 203 55 68 204 41 68 205 40 68 206 17 69 207 43 69 208 13 69 209 38 70 210 42 70 211 43 70 212 93 71 213 31 71 214 30 71 215 92 72 216 95 72 217 93 72 218 77 73 219 30 73 220 14 73 221 76 74 222 93 74 223 77 74 224 317 79 237 65 79 238 313 79 239 80 80 240 64 80 241 65 80 242 323 81 243 82 81 244 319 81 245 75 82 246 83 82 247 82 82 248 318 83 249 84 83 250 322 83 251 69 84 252 85 84 253 84 84 254 319 85 255 80 85 256 317 85 257 82 86 258 81 86 259 80 86 260 19 93 279 66 93 280 16 93 281 68 94 282 67 94 283 66 94 284 79 95 285 13 95 286 15 95 287 78 96 288 64 96 289 79 96 290 71 97 291 14 97 292 12 97 293 70 98 294 77 98 295 71 98 296 95 99 297 15 99 298 31 99 299 94 100 300 79 100 301 95 100 302 16 101 303 71 101 304 12 101 305 66 102 306 70 102 307 71 102 308 145 111 333 110 111 334 143 111 335 113 112 336 108 112 337 104 112 338 146 113 339 109 113 340 140 113 341 115 114 342 111 114 343 106 114 344 123 115 345 105 115 346 109 115 347 125 116 348 107 116 349 110 116 350 159 117 351 106 117 352 162 117 353 187 118 354 104 118 355 190 118 356 143 119 357 198 119 358 214 119 359 104 120 360 196 120 361 190 120 362 174 121 363 121 121 364 161 121 365 170 122 366 117 122 367 165 122 368 110 123 369 185 123 370 198 123 371 161 124 372 115 124 373 159 124 374 189 125 375 113 125 376 187 125 377 119 126 378 124 126 379 113 126 380 121 127 381 122 127 382 115 127 383 117 128 384 112 128 385 123 128 386 127 129 387 114 129 388 125 129 389 171 136 408 132 136 409 169 136 410 203 137 411 133 137 412 201 137 413 131 138 414 163 138 415 156 138 416 188 139 417 136 139 418 205 139 419 194 140 420 134 140 421 203 140 422 128 141 423 154 141 424 152 141 425 151 142 426 156 142 427 178 142 428 169 143 429 128 143 430 152 143 431 201 144 432 129 144 433 184 144 434 130 145 435 176 145 436 154 145 437 150 146 438 178 146 439 176 146 440 108 151 453 212 151 454 196 151 455 142 152 456 214 152 457 212 152 458 122 153 459 141 153 460 111 153 461 147 154 462 140 154 463 141 154 464 124 155 465 142 155 466 108 155 467 144 156 468 143 156 469 142 156 470 177 161 483 141 161 484 140 161 485 176 162 486 179 162 487 177 162 488 155 163 489 140 163 490 109 163 491 154 164 492 177 164 493 155 164 494 112 165 495 153 165 496 105 165 497 168 166 498 152 166 499 153 166 500 179 167 501 111 167 502 141 167 503 178 168 504 157 168 505 179 168 506 153 169 507 109 169 508 105 169 509 152 170 510 155 170 511 153 170 512 157 171 513 106 171 514 111 171 515 156 172 516 162 172 517 157 172 518 118 173 519 168 173 520 112 173 521 170 174 522 169 174 523 168 174 524 134 181 543 158 181 544 133 181 545 160 182 546 159 182 547 158 182 548 135 183 549 164 183 550 136 183 551 171 184 552 165 184 553 164 184 554 139 185 555 160 185 556 134 185 557 175 186 558 161 186 559 160 186 560 133 187 561 163 187 562 129 187 563 158 188 564 162 188 565 163 188 566 213 189 567 151 189 568 150 189 569 212 190 570 215 190 571 213 190 572 197 191 573 150 191 574 130 191 575 196 192 576 213 192 577 197 192 578 114 197 591 185 197 592 107 197 593 200 198 594 184 198 595 185 198 596 127 199 597 202 199 598 120 199 599 195 200 600 203 200 601 202 200 602 119 201 603 204 201 604 126 201 605 189 202 606 205 202 607 204 202 608 120 203 609 200 203 610 114 203 611 202 204 612 201 204 613 200 204 614 135 211 633 186 211 634 132 211 635 188 212 636 187 212 637 186 212 638 199 213 639 129 213 640 131 213 641 198 214 642 184 214 643 199 214 644 191 215 645 130 215 646 128 215 647 190 216 648 197 216 649 191 216 650 215 217 651 131 217 652 151 217 653 214 218 654 199 218 655 215 218 656 132 219 657 191 219 658 128 219 659 186 220 660 190 220 661 191 220 662 262 229 687 319 229 688 249 229 689 258 230 690 322 230 691 253 230 692 24 231 693 273 231 694 286 231 695 249 232 696 317 232 697 247 232 698 277 233 699 11 233 700 275 233 701 9 234 702 7 234 703 11 234 704 4 235 705 10 235 706 6 235 707 259 242 726 224 242 727 257 242 728 291 243 729 225 243 730 289 243 731 0 244 732 251 244 733 244 244 734 276 245 735 228 245 736 293 245 737 282 246 738 226 246 739 291 246 740 3 247 741 242 247 742 240 247 743 239 248 744 244 248 745 266 248 746 257 249 747 3 249 748 240 249 749 289 250 750 2 250 751 272 250 752 1 251 753 264 251 754 242 251 755 238 252 756 266 252 757 264 252 758 25 257 771 300 257 772 284 257 773 232 258 774 302 258 775 300 258 776 7 259 777 232 259 778 25 259 779 234 260 780 233 260 781 232 260 782 265 265 795 325 265 796 324 265 797 264 266 798 267 266 799 265 266 800 243 267 801 324 267 802 314 267 803 242 268 804 265 268 805 243 268 806 316 269 807 241 269 808 312 269 809 256 270 810 240 270 811 241 270 812 267 271 813 315 271 814 325 271 815 266 272 816 245 272 817 267 272 818 241 273 819 314 273 820 312 273 821 240 274 822 243 274 823 241 274 824 245 275 825 313 275 826 315 275 827 244 276 828 250 276 829 245 276 830 318 277 831 256 277 832 316 277 833 258 278 834 257 278 835 256 278 836 226 285 855 246 285 856 225 285 857 248 286 858 247 286 859 246 286 860 227 287 861 252 287 862 228 287 863 259 288 864 253 288 865 252 288 866 231 289 867 248 289 868 226 289 869 263 290 870 249 290 871 248 290 872 225 291 873 251 291 874 2 291 875 246 292 876 250 292 877 251 292 878 301 293 879 239 293 880 238 293 881 300 294 882 303 294 883 301 294 884 285 295 885 238 295 886 1 295 887 284 296 888 301 296 889 285 296 890 10 301 903 273 301 904 26 301 905 288 302 906 272 302 907 273 302 908 4 303 909 290 303 910 8 303 911 283 304 912 291 304 913 290 304 914 9 305 915 292 305 916 5 305 917 277 306 918 293 306 919 292 306 920 8 307 921 288 307 922 10 307 923 290 308 924 289 308 925 288 308 926 227 315 945 274 315 946 224 315 947 276 316 948 275 316 949 274 316 950 287 317 951 2 317 952 0 317 953 286 318 954 272 318 955 287 318 956 279 319 957 1 319 958 3 319 959 278 320 960 285 320 961 279 320 962 303 321 963 0 321 964 239 321 965 302 322 966 287 322 967 303 322 968 224 323 969 279 323 970 3 323 971 274 324 972 278 324 973 279 324 974 327 333 999 315 333 1000 325 333 1001 316 334 1002 314 334 1003 312 334 1004 321 335 1005 313 335 1006 315 335 1007 318 336 1008 320 336 1009 316 336 1010 323 337 1011 317 337 1012 321 337 1013 320 338 1014 324 338 1015 314 338 1016 326 339 1017 325 339 1018 324 339 1019 27 340 1020 25 340 1021 284 340 1022 233 341 1023 24 341 1024 286 341 1025 275 342 1026 11 342 1027 27 342 1028 39 343 1029 114 343 1030 107 343 1031 67 344 1032 316 344 1033 312 344 1034 325 345 1035 315 345 1036 78 345 1037 312 346 1038 314 346 1039 76 346 1040 54 347 1041 127 347 1042 120 347 1043 50 348 1044 119 348 1045 126 348 1046 315 349 1047 313 349 1048 65 349 1049 41 350 1050 120 350 1051 114 350 1052 69 351 1053 318 351 1054 316 351 1055 247 352 1056 317 352 1057 313 352 1058 6 353 1059 10 353 1060 26 353 1061 51 360 1080 19 360 1081 16 360 1082 83 361 1083 18 361 1084 17 361 1085 15 362 1086 13 362 1087 43 362 1088 85 363 1089 68 363 1090 19 363 1091 83 364 1092 74 364 1093 23 364 1094 12 365 1095 14 365 1096 34 365 1097 31 366 1098 15 366 1099 36 366 1100 49 367 1101 16 367 1102 12 367 1103 81 368 1104 17 368 1105 13 368 1106 14 369 1107 30 369 1108 56 369 1109 30 370 1110 31 370 1111 58 370 1112 314 375 1125 324 375 1126 92 375 1127 324 376 1128 325 376 1129 94 376 1130 11 377 1131 7 377 1132 25 377 1133 235 378 1134 6 378 1135 24 378 1136 57 383 1149 59 383 1150 143 383 1151 56 384 1152 58 384 1153 59 384 1154 35 385 1155 57 385 1156 142 385 1157 34 386 1158 56 386 1159 57 386 1160 113 387 1161 48 387 1162 33 387 1163 48 388 1164 49 388 1165 32 388 1166 59 389 1167 37 389 1168 110 389 1169 58 390 1170 36 390 1171 37 390 1172 33 391 1173 35 391 1174 108 391 1175 32 392 1176 34 392 1177 35 392 1178 37 393 1179 42 393 1180 107 393 1181 36 394 1182 43 394 1183 42 394 1184 119 395 1185 50 395 1186 48 395 1187 50 396 1188 51 396 1189 49 396 1190 18 403 1209 40 403 1210 38 403 1211 40 404 1212 41 404 1213 39 404 1214 20 405 1215 19 405 1216 51 405 1217 51 406 1218 50 406 1219 45 406 1220 18 407 1221 23 407 1222 55 407 1223 55 408 1224 54 408 1225 41 408 1226 17 409 1227 38 409 1228 43 409 1229 38 410 1230 39 410 1231 42 410 1232 93 411 1233 95 411 1234 31 411 1235 92 412 1236 94 412 1237 95 412 1238 77 413 1239 93 413 1240 30 413 1241 76 414 1242 92 414 1243 93 414 1244 317 419 1257 80 419 1258 65 419 1259 80 420 1260 81 420 1261 64 420 1262 323 421 1263 75 421 1264 82 421 1265 75 422 1266 74 422 1267 83 422 1268 318 423 1269 69 423 1270 84 423 1271 69 424 1272 68 424 1273 85 424 1274 319 425 1275 82 425 1276 80 425 1277 82 426 1278 83 426 1279 81 426 1280 19 433 1299 68 433 1300 66 433 1301 68 434 1302 69 434 1303 67 434 1304 79 435 1305 64 435 1306 13 435 1307 78 436 1308 65 436 1309 64 436 1310 71 437 1311 77 437 1312 14 437 1313 70 438 1314 76 438 1315 77 438 1316 95 439 1317 79 439 1318 15 439 1319 94 440 1320 78 440 1321 79 440 1322 16 441 1323 66 441 1324 71 441 1325 66 442 1326 67 442 1327 70 442 1328 145 451 1353 125 451 1354 110 451 1355 113 452 1356 124 452 1357 108 452 1358 146 453 1359 123 453 1360 109 453 1361 115 454 1362 122 454 1363 111 454 1364 123 455 1365 112 455 1366 105 455 1367 125 456 1368 114 456 1369 107 456 1370 159 457 1371 115 457 1372 106 457 1373 187 458 1374 113 458 1375 104 458 1376 143 459 1377 110 459 1378 198 459 1379 104 460 1380 108 460 1381 196 460 1382 174 461 1383 116 461 1384 121 461 1385 170 462 1386 118 462 1387 117 462 1388 110 463 1389 107 463 1390 185 463 1391 161 464 1392 121 464 1393 115 464 1394 189 465 1395 119 465 1396 113 465 1397 119 466 1398 126 466 1399 124 466 1400 121 467 1401 116 467 1402 122 467 1403 117 468 1404 118 468 1405 112 468 1406 127 469 1407 120 469 1408 114 469 1409 171 476 1428 135 476 1429 132 476 1430 203 477 1431 134 477 1432 133 477 1433 131 478 1434 129 478 1435 163 478 1436 188 479 1437 135 479 1438 136 479 1439 194 480 1440 139 480 1441 134 480 1442 128 481 1443 130 481 1444 154 481 1445 151 482 1446 131 482 1447 156 482 1448 169 483 1449 132 483 1450 128 483 1451 201 484 1452 133 484 1453 129 484 1454 130 485 1455 150 485 1456 176 485 1457 150 486 1458 151 486 1459 178 486 1460 108 491 1473 142 491 1474 212 491 1475 142 492 1476 143 492 1477 214 492 1478 122 493 1479 147 493 1480 141 493 1481 147 494 1482 146 494 1483 140 494 1484 124 495 1485 144 495 1486 142 495 1487 144 496 1488 145 496 1489 143 496 1490 177 501 1503 179 501 1504 141 501 1505 176 502 1506 178 502 1507 179 502 1508 155 503 1509 177 503 1510 140 503 1511 154 504 1512 176 504 1513 177 504 1514 112 505 1515 168 505 1516 153 505 1517 168 506 1518 169 506 1519 152 506 1520 179 507 1521 157 507 1522 111 507 1523 178 508 1524 156 508 1525 157 508 1526 153 509 1527 155 509 1528 109 509 1529 152 510 1530 154 510 1531 155 510 1532 157 511 1533 162 511 1534 106 511 1535 156 512 1536 163 512 1537 162 512 1538 118 513 1539 170 513 1540 168 513 1541 170 514 1542 171 514 1543 169 514 1544 134 521 1563 160 521 1564 158 521 1565 160 522 1566 161 522 1567 159 522 1568 135 523 1569 171 523 1570 164 523 1571 171 524 1572 170 524 1573 165 524 1574 139 525 1575 175 525 1576 160 525 1577 175 526 1578 174 526 1579 161 526 1580 133 527 1581 158 527 1582 163 527 1583 158 528 1584 159 528 1585 162 528 1586 213 529 1587 215 529 1588 151 529 1589 212 530 1590 214 530 1591 215 530 1592 197 531 1593 213 531 1594 150 531 1595 196 532 1596 212 532 1597 213 532 1598 114 537 1611 200 537 1612 185 537 1613 200 538 1614 201 538 1615 184 538 1616 127 539 1617 195 539 1618 202 539 1619 195 540 1620 194 540 1621 203 540 1622 119 541 1623 189 541 1624 204 541 1625 189 542 1626 188 542 1627 205 542 1628 120 543 1629 202 543 1630 200 543 1631 202 544 1632 203 544 1633 201 544 1634 135 551 1653 188 551 1654 186 551 1655 188 552 1656 189 552 1657 187 552 1658 199 553 1659 184 553 1660 129 553 1661 198 554 1662 185 554 1663 184 554 1664 191 555 1665 197 555 1666 130 555 1667 190 556 1668 196 556 1669 197 556 1670 215 557 1671 199 557 1672 131 557 1673 214 558 1674 198 558 1675 199 558 1676 132 559 1677 186 559 1678 191 559 1679 186 560 1680 187 560 1681 190 560 1682 262 569 1707 323 569 1708 319 569 1709 258 570 1710 318 570 1711 322 570 1712 24 571 1713 26 571 1714 273 571 1715 249 572 1716 319 572 1717 317 572 1718 277 573 1719 9 573 1720 11 573 1721 9 574 1722 5 574 1723 7 574 1724 4 575 1725 8 575 1726 10 575 1727 259 582 1746 227 582 1747 224 582 1748 291 583 1749 226 583 1750 225 583 1751 0 584 1752 2 584 1753 251 584 1754 276 585 1755 227 585 1756 228 585 1757 282 586 1758 231 586 1759 226 586 1760 3 587 1761 1 587 1762 242 587 1763 239 588 1764 0 588 1765 244 588 1766 257 589 1767 224 589 1768 3 589 1769 289 590 1770 225 590 1771 2 590 1772 1 591 1773 238 591 1774 264 591 1775 238 592 1776 239 592 1777 266 592 1778 25 597 1791 232 597 1792 300 597 1793 232 598 1794 233 598 1795 302 598 1796 7 599 1797 234 599 1798 232 599 1799 234 600 1800 235 600 1801 233 600 1802 265 605 1815 267 605 1816 325 605 1817 264 606 1818 266 606 1819 267 606 1820 243 607 1821 265 607 1822 324 607 1823 242 608 1824 264 608 1825 265 608 1826 316 609 1827 256 609 1828 241 609 1829 256 610 1830 257 610 1831 240 610 1832 267 611 1833 245 611 1834 315 611 1835 266 612 1836 244 612 1837 245 612 1838 241 613 1839 243 613 1840 314 613 1841 240 614 1842 242 614 1843 243 614 1844 245 615 1845 250 615 1846 313 615 1847 244 616 1848 251 616 1849 250 616 1850 318 617 1851 258 617 1852 256 617 1853 258 618 1854 259 618 1855 257 618 1856 226 625 1875 248 625 1876 246 625 1877 248 626 1878 249 626 1879 247 626 1880 227 627 1881 259 627 1882 252 627 1883 259 628 1884 258 628 1885 253 628 1886 231 629 1887 263 629 1888 248 629 1889 263 630 1890 262 630 1891 249 630 1892 225 631 1893 246 631 1894 251 631 1895 246 632 1896 247 632 1897 250 632 1898 301 633 1899 303 633 1900 239 633 1901 300 634 1902 302 634 1903 303 634 1904 285 635 1905 301 635 1906 238 635 1907 284 636 1908 300 636 1909 301 636 1910 10 641 1923 288 641 1924 273 641 1925 288 642 1926 289 642 1927 272 642 1928 4 643 1929 283 643 1930 290 643 1931 283 644 1932 282 644 1933 291 644 1934 9 645 1935 277 645 1936 292 645 1937 277 646 1938 276 646 1939 293 646 1940 8 647 1941 290 647 1942 288 647 1943 290 648 1944 291 648 1945 289 648 1946 227 655 1965 276 655 1966 274 655 1967 276 656 1968 277 656 1969 275 656 1970 287 657 1971 272 657 1972 2 657 1973 286 658 1974 273 658 1975 272 658 1976 279 659 1977 285 659 1978 1 659 1979 278 660 1980 284 660 1981 285 660 1982 303 661 1983 287 661 1984 0 661 1985 302 662 1986 286 662 1987 287 662 1988 224 663 1989 274 663 1990 279 663 1991 274 664 1992 275 664 1993 278 664 1994 327 673 2019 321 673 2020 315 673 2021 316 674 2022 320 674 2023 314 674 2024 321 675 2025 317 675 2026 313 675 2027 318 676 2028 322 676 2029 320 676 2030 323 677 2031 319 677 2032 317 677 2033 320 678 2034 326 678 2035 324 678 2036 326 679 2037 327 679 2038 325 679 2039</p>
        </triangles>
        <triangles material="lightgrey-material" count="60">
          <input semantic="VERTEX" source="#Cube-mesh-vertices" offset="0"/>
          <input semantic="NORMAL" source="#Cube-mesh-normals" offset="1"/>
          <input semantic="TEXCOORD" source="#Cube-mesh-map-0" offset="2" set="0"/>
          <p>62 40 120 61 40 121 60 40 122 90 76 228 89 76 229 88 76 230 61 103 309 96 103 310 60 103 311 62 104 312 99 104 313 63 104 314 60 105 315 98 105 316 62 105 317 63 106 318 97 106 319 61 106 320 89 107 321 100 107 322 88 107 323 90 108 324 103 108 325 91 108 326 88 109 327 102 109 328 90 109 329 91 110 330 101 110 331 89 110 332 182 158 474 181 158 475 180 158 476 210 194 582 209 194 583 208 194 584 180 221 663 217 221 664 216 221 665 182 222 666 219 222 667 183 222 668 180 223 669 218 223 670 182 223 671 183 224 672 217 224 673 181 224 674 209 225 675 220 225 676 208 225 677 211 226 678 222 226 679 223 226 680 208 227 681 222 227 682 210 227 683 211 228 684 221 228 685 209 228 686 270 262 786 269 262 787 268 262 788 298 298 894 297 298 895 296 298 896 268 325 975 305 325 976 304 325 977 270 326 978 307 326 979 271 326 980 268 327 981 306 327 982 270 327 983 271 328 984 305 328 985 269 328 986 297 329 987 308 329 988 296 329 989 298 330 990 311 330 991 299 330 992 296 331 993 310 331 994 298 331 995 299 332 996 309 332 997 297 332 998 62 380 1140 63 380 1141 61 380 1142 90 416 1248 91 416 1249 89 416 1250 61 443 1329 97 443 1330 96 443 1331 62 444 1332 98 444 1333 99 444 1334 60 445 1335 96 445 1336 98 445 1337 63 446 1338 99 446 1339 97 446 1340 89 447 1341 101 447 1342 100 447 1343 90 448 1344 102 448 1345 103 448 1346 88 449 1347 100 449 1348 102 449 1349 91 450 1350 103 450 1351 101 450 1352 182 498 1494 183 498 1495 181 498 1496 210 534 1602 211 534 1603 209 534 1604 180 561 1683 181 561 1684 217 561 1685 182 562 1686 218 562 1687 219 562 1688 180 563 1689 216 563 1690 218 563 1691 183 564 1692 219 564 1693 217 564 1694 209 565 1695 221 565 1696 220 565 1697 211 566 1698 210 566 1699 222 566 1700 208 567 1701 220 567 1702 222 567 1703 211 568 1704 223 568 1705 221 568 1706 270 602 1806 271 602 1807 269 602 1808 298 638 1914 299 638 1915 297 638 1916 268 665 1995 269 665 1996 305 665 1997 270 666 1998 306 666 1999 307 666 2000 268 667 2001 304 667 2002 306 667 2003 271 668 2004 307 668 2005 305 668 2006 297 669 2007 309 669 2008 308 669 2009 298 670 2010 310 670 2011 311 670 2012 296 671 2013 308 671 2014 310 671 2015 299 672 2016 311 672 2017 309 672 2018</p>
        </triangles>
        <triangles material="darkgrey-material" count="168">
          <input semantic="VERTEX" source="#Cube-mesh-vertices" offset="0"/>
          <input semantic="NORMAL" source="#Cube-mesh-normals" offset="1"/>
          <input semantic="TEXCOORD" source="#Cube-mesh-map-0" offset="2" set="0"/>
          <p>52 14 42 144 14 43 99 14 44 45 15 45 124 15 46 52 15 47 47 16 48 127 16 49 54 16 50 103 17 51 21 17 52 28 17 53 85 18 54 21 18 55 72 18 56 87 19 57 23 19 58 74 19 59 101 31 93 22 31 94 87 31 95 103 32 96 29 32 97 101 32 98 97 33 99 125 33 100 47 33 101 99 34 102 145 34 103 97 34 104 28 39 117 96 39 118 29 39 119 29 41 123 46 41 124 22 41 125 96 42 126 47 42 127 46 42 128 22 57 171 55 57 172 23 57 173 46 58 174 54 58 175 55 58 176 20 59 177 53 59 178 21 59 179 44 60 180 52 60 181 53 60 182 28 61 183 53 61 184 98 61 185 53 62 186 99 62 187 98 62 188 326 75 225 100 75 226 327 75 227 327 77 231 86 77 232 321 77 233 100 78 234 87 78 235 86 78 236 321 87 261 75 87 262 323 87 263 86 88 264 74 88 265 75 88 266 322 89 267 73 89 268 320 89 269 84 90 270 72 90 271 73 90 272 320 91 273 102 91 274 326 91 275 73 92 276 103 92 277 102 92 278 172 130 390 146 130 391 219 130 392 165 131 393 123 131 394 172 131 395 167 132 396 116 132 397 174 132 398 192 133 399 148 133 400 223 133 401 205 134 402 137 134 403 192 134 404 207 135 405 139 135 406 194 135 407 221 147 441 138 147 442 207 147 443 223 148 444 149 148 445 221 148 446 217 149 447 122 149 448 167 149 449 219 150 450 147 150 451 217 150 452 148 157 471 216 157 472 149 157 473 149 159 477 166 159 478 138 159 479 216 160 480 167 160 481 166 160 482 138 175 525 175 175 526 139 175 527 166 176 528 174 176 529 175 176 530 136 177 531 173 177 532 137 177 533 164 178 534 172 178 535 173 178 536 137 179 537 218 179 538 148 179 539 173 180 540 219 180 541 218 180 542 144 193 579 220 193 580 145 193 581 145 195 585 206 195 586 125 195 587 220 196 588 207 196 589 206 196 590 125 205 615 195 205 616 127 205 617 206 206 618 194 206 619 195 206 620 126 207 621 193 207 622 124 207 623 204 208 624 192 208 625 193 208 626 124 209 627 222 209 628 144 209 629 193 210 630 223 210 631 222 210 632 260 236 708 326 236 709 307 236 710 253 237 711 320 237 712 260 237 713 255 238 714 323 238 715 262 238 716 280 239 717 236 239 718 311 239 719 293 240 720 229 240 721 280 240 722 295 241 723 231 241 724 282 241 725 309 253 759 230 253 760 295 253 761 311 254 762 237 254 763 309 254 764 305 255 765 321 255 766 255 255 767 307 256 768 327 256 769 305 256 770 236 261 783 304 261 784 237 261 785 237 263 789 254 263 790 230 263 791 304 264 792 255 264 793 254 264 794 230 279 837 263 279 838 231 279 839 254 280 840 262 280 841 263 280 842 228 281 843 261 281 844 229 281 845 252 282 846 260 282 847 261 282 848 229 283 849 306 283 850 236 283 851 261 284 852 307 284 853 306 284 854 234 297 891 308 297 892 235 297 893 235 299 897 294 299 898 6 299 899 308 300 900 295 300 901 294 300 902 6 309 927 283 309 928 4 309 929 294 310 930 282 310 931 283 310 932 5 311 933 281 311 934 7 311 935 292 312 936 280 312 937 281 312 938 7 313 939 310 313 940 234 313 941 281 314 942 311 314 943 310 314 944 52 354 1062 124 354 1063 144 354 1064 45 355 1065 126 355 1066 124 355 1067 47 356 1068 125 356 1069 127 356 1070 103 357 1071 72 357 1072 21 357 1073 85 358 1074 20 358 1075 21 358 1076 87 359 1077 22 359 1078 23 359 1079 101 371 1113 29 371 1114 22 371 1115 103 372 1116 28 372 1117 29 372 1118 97 373 1119 145 373 1120 125 373 1121 99 374 1122 144 374 1123 145 374 1124 28 379 1137 98 379 1138 96 379 1139 29 381 1143 96 381 1144 46 381 1145 96 382 1146 97 382 1147 47 382 1148 22 397 1191 46 397 1192 55 397 1193 46 398 1194 47 398 1195 54 398 1196 20 399 1197 44 399 1198 53 399 1199 44 400 1200 45 400 1201 52 400 1202 28 401 1203 21 401 1204 53 401 1205 53 402 1206 52 402 1207 99 402 1208 326 415 1245 102 415 1246 100 415 1247 327 417 1251 100 417 1252 86 417 1253 100 418 1254 101 418 1255 87 418 1256 321 427 1281 86 427 1282 75 427 1283 86 428 1284 87 428 1285 74 428 1286 322 429 1287 84 429 1288 73 429 1289 84 430 1290 85 430 1291 72 430 1292 320 431 1293 73 431 1294 102 431 1295 73 432 1296 72 432 1297 103 432 1298 172 470 1410 123 470 1411 146 470 1412 165 471 1413 117 471 1414 123 471 1415 167 472 1416 122 472 1417 116 472 1418 192 473 1419 137 473 1420 148 473 1421 205 474 1422 136 474 1423 137 474 1424 207 475 1425 138 475 1426 139 475 1427 221 487 1461 149 487 1462 138 487 1463 223 488 1464 148 488 1465 149 488 1466 217 489 1467 147 489 1468 122 489 1469 219 490 1470 146 490 1471 147 490 1472 148 497 1491 218 497 1492 216 497 1493 149 499 1497 216 499 1498 166 499 1499 216 500 1500 217 500 1501 167 500 1502 138 515 1545 166 515 1546 175 515 1547 166 516 1548 167 516 1549 174 516 1550 136 517 1551 164 517 1552 173 517 1553 164 518 1554 165 518 1555 172 518 1556 137 519 1557 173 519 1558 218 519 1559 173 520 1560 172 520 1561 219 520 1562 144 533 1599 222 533 1600 220 533 1601 145 535 1605 220 535 1606 206 535 1607 220 536 1608 221 536 1609 207 536 1610 125 545 1635 206 545 1636 195 545 1637 206 546 1638 207 546 1639 194 546 1640 126 547 1641 204 547 1642 193 547 1643 204 548 1644 205 548 1645 192 548 1646 124 549 1647 193 549 1648 222 549 1649 193 550 1650 192 550 1651 223 550 1652 260 576 1728 320 576 1729 326 576 1730 253 577 1731 322 577 1732 320 577 1733 255 578 1734 321 578 1735 323 578 1736 280 579 1737 229 579 1738 236 579 1739 293 580 1740 228 580 1741 229 580 1742 295 581 1743 230 581 1744 231 581 1745 309 593 1779 237 593 1780 230 593 1781 311 594 1782 236 594 1783 237 594 1784 305 595 1785 327 595 1786 321 595 1787 307 596 1788 326 596 1789 327 596 1790 236 601 1803 306 601 1804 304 601 1805 237 603 1809 304 603 1810 254 603 1811 304 604 1812 305 604 1813 255 604 1814 230 619 1857 254 619 1858 263 619 1859 254 620 1860 255 620 1861 262 620 1862 228 621 1863 252 621 1864 261 621 1865 252 622 1866 253 622 1867 260 622 1868 229 623 1869 261 623 1870 306 623 1871 261 624 1872 260 624 1873 307 624 1874 234 637 1911 310 637 1912 308 637 1913 235 639 1917 308 639 1918 294 639 1919 308 640 1920 309 640 1921 295 640 1922 6 649 1947 294 649 1948 283 649 1949 294 650 1950 295 650 1951 282 650 1952 5 651 1953 292 651 1954 281 651 1955 292 652 1956 293 652 1957 280 652 1958 7 653 1959 281 653 1960 310 653 1961 281 654 1962 280 654 1963 311 654 1964</p>
        </triangles>
      </mesh>
    </geometry>
  </library_geometries>
  <library_visual_scenes>
    <visual_scene id="Scene" name="Scene">
      <node id="Cube" name="Cube" type="NODE">
        <matrix sid="transform">1 0 0 0 0 1 0 0 0 0 1 0 0 0 0 1</matrix>
        <instance_geometry url="#Cube-mesh" name="Cube">
          <bind_material>
            <technique_common>
              <instance_material symbol="paintable-0-material" target="#paintable-0-material">
                <bind_vertex_input semantic="UVMap" input_semantic="TEXCOORD" input_set="0"/>
              </instance_material>
              <instance_material symbol="paintable-1-material" target="#paintable-1-material">
                <bind_vertex_input semantic="UVMap" input_semantic="TEXCOORD" input_set="0"/>
              </instance_material>
              <instance_material symbol="lightgrey-material" target="#lightgrey-material">
                <bind_vertex_input semantic="UVMap" input_semantic="TEXCOORD" input_set="0"/>
              </instance_material>
              <instance_material symbol="darkgrey-material" target="#darkgrey-material">
                <bind_vertex_input semantic="UVMap" input_semantic="TEXCOORD" input_set="0"/>
              </instance_material>
              <instance_material symbol="MATERIALadditive-material" target="#MATERIALadditive-material">
                <bind_vertex_input semantic="UVMap" input_semantic="TEXCOORD" input_set="0"/>
              </instance_material>
              <instance_material symbol="MATERIALglass-material" target="#MATERIALglass-material">
                <bind_vertex_input semantic="UVMap" input_semantic="TEXCOORD" input_set="0"/>
              </instance_material>
            </technique_common>
          </bind_material>
        </instance_geometry>
      </node>
    </visual_scene>
  </library_visual_scenes>
  <scene>
    <instance_visual_scene url="#Scene"/>
  </scene>
</COLLADA>