<?xml version="1.0" encoding="utf-8"?>
<COLLADA xmlns="http://www.collada.org/2005/11/COLLADASchema" version="1.4.1" xmlns:xsi="http://www.w3.org/2001/XMLSchema-instance">
  <asset>
    <contributor>
      <author>Blender User</author>
      <authoring_tool>Blender 4.2.23 LTS commit date:2026-07-20, commit time:13:44, hash:d0cbe84903e8</authoring_tool>
    </contributor>
    <created>2026-08-13T21:08:06</created>
    <modified>2026-08-13T21:08:06</modified>
    <unit name="meter" meter="1"/>
    <up_axis>Z_UP</up_axis>
  </asset>
  <library_effects>
    <effect id="paintable-0-effect">
      <profile_COMMON>
        <technique sid="common">
          <lambert>
            <emission>
              <color sid="emission">0 0 0 1</color>
            </emission>
            <diffuse>
              <color sid="diffuse">1 0.4969335 0 1</color>
            </diffuse>
            <index_of_refraction>
              <float sid="ior">1.45</float>
            </index_of_refraction>
          </lambert>
        </technique>
      </profile_COMMON>
    </effect>
    <effect id="paintable-1-effect">
      <profile_COMMON>
        <technique sid="common">
          <lambert>
            <emission>
              <color sid="emission">0 0 0 1</color>
            </emission>
            <diffuse>
              <color sid="diffuse">0.6104922 0.4910214 0 1</color>
            </diffuse>
            <index_of_refraction>
              <float sid="ior">1.5</float>
            </index_of_refraction>
          </lambert>
        </technique>
      </profile_COMMON>
    </effect>
    <effect id="lightgrey-effect">
      <profile_COMMON>
        <technique sid="common">
          <lambert>
            <emission>
              <color sid="emission">0 0 0 1</color>
            </emission>
            <diffuse>
              <color sid="diffuse">0.7835327 0.7835385 0.7835382 1</color>
            </diffuse>
            <index_of_refraction>
              <float sid="ior">1.5</float>
            </index_of_refraction>
          </lambert>
        </technique>
      </profile_COMMON>
    </effect>
    <effect id="darkgrey-effect">
      <profile_COMMON>
        <technique sid="common">
          <lambert>
            <emission>
              <color sid="emission">0 0 0 1</color>
            </emission>
            <diffuse>
              <color sid="diffuse">0.3371614 0.3371639 0.3371637 1</color>
            </diffuse>
            <index_of_refraction>
              <float sid="ior">1.5</float>
            </index_of_refraction>
          </lambert>
        </technique>
      </profile_COMMON>
    </effect>
    <effect id="MATERIALadditive-effect">
      <profile_COMMON>
        <technique sid="common">
          <lambert>
            <emission>
              <color sid="emission">0 0 0 1</color>
            </emission>
            <diffuse>
              <color sid="diffuse">0.8 0.8 0.8 1</color>
            </diffuse>
            <index_of_refraction>
              <float sid="ior">1.5</float>
            </index_of_refraction>
          </lambert>
        </technique>
      </profile_COMMON>
    </effect>
    <effect id="MATERIALglass-effect">
      <profile_COMMON>
        <technique sid="common">
          <lambert>
            <emission>
              <color sid="emission">0 0 0 1</color>
            </emission>
            <diffuse>
              <color sid="diffuse">0.8 0.8 0.8 1</color>
            </diffuse>
            <index_of_refraction>
              <float sid="ior">1.5</float>
            </index_of_refraction>
          </lambert>
        </technique>
      </profile_COMMON>
    </effect>
  </library_effects>
  <library_images/>
  <library_materials>
    <material id="paintable-0-material" name="paintable-0">
      <instance_effect url="#paintable-0-effect"/>
    </material>
    <material id="paintable-1-material" name="paintable-1">
      <instance_effect url="#paintable-1-effect"/>
    </material>
    <material id="lightgrey-material" name="lightgrey">
      <instance_effect url="#lightgrey-effect"/>
    </material>
    <material id="darkgrey-material" name="darkgrey">
      <instance_effect url="#darkgrey-effect"/>
    </material>
    <material id="MATERIALadditive-material" name="MATERIALadditive">
      <instance_effect url="#MATERIALadditive-effect"/>
    </material>
    <material id="MATERIALglass-material" name="MATERIALglass">
      <instance_effect url="#MATERIALglass-effect"/>
    </material>
  </library_materials>
  <library_geometries>
    <geometry id="Cube-mesh" name="Cube">
      <mesh>
        <source id="Cube-mesh-positions">
          <float_array id="Cube-mesh-positions-array" count="96">-0.125 -0.125 0.07499992 -0.125 0.125 0.07499992 0.125 0.125 0.07499992 0.125 -0.125 0.07499992 -0.125 -0.125 -0.125 -0.125 0.125 -0.125 0.125 0.125 -0.125 0.125 -0.125 -0.125 0.07499998 -0.125 0.07499992 -0.07499998 -0.125 0.07499992 -0.07499998 0.125 0.07499992 0.07499998 0.125 0.07499992 0.07499998 -0.125 -0.125 -0.07499998 -0.125 -0.125 -0.07499998 0.125 -0.125 0.07499998 0.125 -0.125 0.125 0.07499998 0.07499992 0.125 -0.07499998 0.07499992 -0.125 -0.07499998 0.07499992 -0.125 0.07499998 0.07499992 0.125 0.07499998 -0.125 0.125 -0.07499998 -0.125 -0.125 -0.07499998 -0.125 -0.125 0.07499998 -0.125 0.02499997 0.02499997 0.02499997 0.02499997 -0.02499997 0.02499997 -0.02499997 0.02499997 0.02499997 -0.02499997 -0.02499997 0.02499997 0.07499998 0.07499998 0.07499992 0.07499998 -0.07499998 0.07499992 -0.07499998 0.07499998 0.07499992 -0.07499998 -0.07499998 0.07499992</float_array>
          <technique_common>
            <accessor source="#Cube-mesh-positions-array" count="32" stride="3">
              <param name="X" type="float"/>
              <param name="Y" type="float"/>
              <param name="Z" type="float"/>
            </accessor>
          </technique_common>
        </source>
        <source id="Cube-mesh-normals">
          <float_array id="Cube-mesh-normals-array" count="150">0 0 1 0 1 0 0 -1 0 -1 0 0 1 0 0 0 -1 0 0 -1 0 0 1 0 0 1 0 0 0 1 0 0 1 0 0 1 0 0 1 0 0 1 0 0 1 1 0 0 1 0 0 -1 0 0 -1 0 0 0 0 1 0 0 1 -0.7071067 0 0.7071068 0.7071067 0 0.7071068 0 0.7071067 0.7071068 0 -0.7071067 0.7071068 0 0 1 0 1 0 0 -1 0 -1 0 0 1 0 0 0 -1 0 0 -1 0 0 1 0 0 1 0 0 0 1 0 0 1 0 0 1 0 0 1 0 0 1 0 0 1 1 0 0 1 0 0 -1 0 0 -1 0 0 0 0 1 0 0 1 -0.7071068 0 0.7071068 0.7071068 0 0.7071068 0 0.7071068 0.7071068 0 -0.7071068 0.7071068</float_array>
          <technique_common>
            <accessor source="#Cube-mesh-normals-array" count="50" stride="3">
              <param name="X" type="float"/>
              <param name="Y" type="float"/>
              <param name="Z" type="float"/>
            </accessor>
          </technique_common>
        </source>
        <source id="Cube-mesh-map-0">
          <float_array id="Cube-mesh-map-0-array" count="300">0 0 0 0 0 0 0 0 0 0 0 0 0 0 0 0 0 0 0 0 0 0 0 0 0 0 0 0 0 0 0 0 0 0 0 0 0 0 0 0 0 0 0 0 0 0 0 0 0 0 0 0 0 0 0 0 0 0 0 0 0 0 0 0 0 0 0 0 0 0 0 0 0 0 0 0 0 0 0 0 0 0 0 0 0 0 0 0 0 0 0 0 0 0 0 0 0 0 0 0 0 0 0 0 0 0 0 0 0 0 0 0 0 0 0 0 0 0 0 0 0 0 0 0 0 0 0 0 0 0 0 0 0 0 0 0 0 0 0 0 0 0 0 0 0 0 0 0 0 0 0 0 0 0 0 0 0 0 0 0 0 0 0 0 0 0 0 0 0 0 0 0 0 0 0 0 0 0 0 0 0 0 0 0 0 0 0 0 0 0 0 0 0 0 0 0 0 0 0 0 0 0 0 0 0 0 0 0 0 0 0 0 0 0 0 0 0 0 0 0 0 0 0 0 0 0 0 0 0 0 0 0 0 0 0 0 0 0 0 0 0 0 0 0 0 0 0 0 0 0 0 0 0 0 0 0 0 0 0 0 0 0 0 0 0 0 0 0 0 0 0 0 0 0 0 0 0 0 0 0 0 0 0 0 0 0 0 0 0 0 0 0 0 0 0 0 0 0 0 0</float_array>
          <technique_common>
            <accessor source="#Cube-mesh-map-0-array" count="150" stride="2">
              <param name="S" type="float"/>
              <param name="T" type="float"/>
            </accessor>
          </technique_common>
        </source>
        <vertices id="Cube-mesh-vertices">
          <input semantic="POSITION" source="#Cube-mesh-positions"/>
        </vertices>
        <triangles material="paintable-0-material" count="24">
          <input semantic="VERTEX" source="#Cube-mesh-vertices" offset="0"/>
          <input semantic="NORMAL" source="#Cube-mesh-normals" offset="1"/>
          <input semantic="TEXCOORD" source="#Cube-mesh-map-0" offset="2" set="0"/>
          <p>2 1 3 15 1 4 11 1 5 0 2 6 13 2 7 9 2 8 1 3 9 23 3 10 19 3 11 3 4 12 21 4 13 17 4 14 8 5 15 7 5 16 3 5 17 9 6 18 12 6 19 8 6 20 10 7 21 5 7 22 1 7 23 11 8 24 14 8 25 10 8 26 16 15 45 6 15 46 2 15 47 17 16 48 20 16 49 16 16 50 18 17 51 4 17 52 0 17 53 19 18 54 22 18 55 18 18 56 2 26 78 6 26 79 15 26 80 0 27 81 4 27 82 13 27 83 1 28 84 5 28 85 23 28 86 3 29 87 7 29 88 21 29 89 8 30 90 12 30 91 7 30 92 9 31 93 13 31 94 12 31 95 10 32 96 14 32 97 5 32 98 11 33 99 15 33 100 14 33 101 16 40 120 20 40 121 6 40 122 17 41 123 21 41 124 20 41 125 18 42 126 22 42 127 4 42 128 19 43 129 23 43 130 22 43 131</p>
        </triangles>
        <triangles material="paintable-1-material" count="16">
          <input semantic="VERTEX" source="#Cube-mesh-vertices" offset="0"/>
          <input semantic="NORMAL" source="#Cube-mesh-normals" offset="1"/>
          <input semantic="TEXCOORD" source="#Cube-mesh-map-0" offset="2" set="0"/>
          <p>10 0 0 19 0 1 30 0 2 2 9 27 28 9 28 16 9 29 11 10 30 30 10 31 28 10 32 29 11 33 9 11 34 8 11 35 17 13 39 8 13 40 3 13 41 16 14 42 29 14 43 17 14 44 31 19 57 0 19 58 9 19 59 30 20 60 18 20 61 31 20 62 10 25 75 1 25 76 19 25 77 2 34 102 11 34 103 28 34 104 11 35 105 10 35 106 30 35 107 29 36 108 31 36 109 9 36 110 17 38 114 29 38 115 8 38 116 16 39 117 28 39 118 29 39 119 31 44 132 18 44 133 0 44 134 30 45 135 19 45 136 18 45 137</p>
        </triangles>
        <triangles material="lightgrey-material" count="10">
          <input semantic="VERTEX" source="#Cube-mesh-vertices" offset="0"/>
          <input semantic="NORMAL" source="#Cube-mesh-normals" offset="1"/>
          <input semantic="TEXCOORD" source="#Cube-mesh-map-0" offset="2" set="0"/>
          <p>24 12 36 27 12 37 25 12 38 25 21 63 28 21 64 24 21 65 26 22 66 31 22 67 27 22 68 27 23 69 29 23 70 25 23 71 24 24 72 30 24 73 26 24 74 24 37 111 26 37 112 27 37 113 25 46 138 29 46 139 28 46 140 26 47 141 30 47 142 31 47 143 27 48 144 31 48 145 29 48 146 24 49 147 28 49 148 30 49 149</p>
        </triangles>
      </mesh>
    </geometry>
  </library_geometries>
  <library_visual_scenes>
    <visual_scene id="Scene" name="Scene">
      <node id="Cube" name="Cube" type="NODE">
        <matrix sid="transform">1 0 0 0 0 1 0 0 0 0 1 0 0 0 0 1</matrix>
        <instance_geometry url="#Cube-mesh" name="Cube">
          <bind_material>
            <technique_common>
              <instance_material symbol="paintable-0-material" target="#paintable-0-material">
                <bind_vertex_input semantic="UVMap" input_semantic="TEXCOORD" input_set="0"/>
              </instance_material>
              <instance_material symbol="paintable-1-material" target="#paintable-1-material">
                <bind_vertex_input semantic="UVMap" input_semantic="TEXCOORD" input_set="0"/>
              </instance_material>
              <instance_material symbol="lightgrey-material" target="#lightgrey-material">
                <bind_vertex_input semantic="UVMap" input_semantic="TEXCOORD" input_set="0"/>
              </instance_material>
              <instance_material symbol="darkgrey-material" target="#darkgrey-material">
                <bind_vertex_input semantic="UVMap" input_semantic="TEXCOORD" input_set="0"/>
              </instance_material>
              <instance_material symbol="MATERIALadditive-material" target="#MATERIALadditive-material">
                <bind_vertex_input semantic="UVMap" input_semantic="TEXCOORD" input_set="0"/>
              </instance_material>
              <instance_material symbol="MATERIALglass-material" target="#MATERIALglass-material">
                <bind_vertex_input semantic="UVMap" input_semantic="TEXCOORD" input_set="0"/>
              </instance_material>
            </technique_common>
          </bind_material>
        </instance_geometry>
      </node>
    </visual_scene>
  </library_visual_scenes>
  <scene>
    <instance_visual_scene url="#Scene"/>
  </scene>
</COLLADA>