<?xml version="1.0" encoding="utf-8"?>
<COLLADA xmlns="http://www.collada.org/2005/11/COLLADASchema" version="1.4.1" xmlns:xsi="http://www.w3.org/2001/XMLSchema-instance">
  <asset>
    <contributor>
      <author>Blender User</author>
      <authoring_tool>Blender 4.2.23 LTS commit date:2026-07-20, commit time:13:44, hash:d0cbe84903e8</authoring_tool>
    </contributor>
    <created>2026-07-28T23:43:08</created>
    <modified>2026-07-28T23:43:08</modified>
    <unit name="meter" meter="1"/>
    <up_axis>Z_UP</up_axis>
  </asset>
  <library_effects>
    <effect id="paintable-0-effect">
      <profile_COMMON>
        <technique sid="common">
          <lambert>
            <emission>
              <color sid="emission">0 0 0 1</color>
            </emission>
            <diffuse>
              <color sid="diffuse">1 0.4969335 0 1</color>
            </diffuse>
            <index_of_refraction>
              <float sid="ior">1.45</float>
            </index_of_refraction>
          </lambert>
        </technique>
      </profile_COMMON>
    </effect>
    <effect id="paintable-1-effect">
      <profile_COMMON>
        <technique sid="common">
          <lambert>
            <emission>
              <color sid="emission">0 0 0 1</color>
            </emission>
            <diffuse>
              <color sid="diffuse">0.6104922 0.4910214 0 1</color>
            </diffuse>
            <index_of_refraction>
              <float sid="ior">1.5</float>
            </index_of_refraction>
          </lambert>
        </technique>
      </profile_COMMON>
    </effect>
    <effect id="lightgrey-effect">
      <profile_COMMON>
        <technique sid="common">
          <lambert>
            <emission>
              <color sid="emission">0 0 0 1</color>
            </emission>
            <diffuse>
              <color sid="diffuse">0.7835327 0.7835385 0.7835382 1</color>
            </diffuse>
            <index_of_refraction>
              <float sid="ior">1.5</float>
            </index_of_refraction>
          </lambert>
        </technique>
      </profile_COMMON>
    </effect>
    <effect id="darkgrey-effect">
      <profile_COMMON>
        <technique sid="common">
          <lambert>
            <emission>
              <color sid="emission">0 0 0 1</color>
            </emission>
            <diffuse>
              <color sid="diffuse">0.3371614 0.3371639 0.3371637 1</color>
            </diffuse>
            <index_of_refraction>
              <float sid="ior">1.5</float>
            </index_of_refraction>
          </lambert>
        </technique>
      </profile_COMMON>
    </effect>
    <effect id="MATERIALadditive-effect">
      <profile_COMMON>
        <technique sid="common">
          <lambert>
            <emission>
              <color sid="emission">0 0 0 1</color>
            </emission>
            <diffuse>
              <color sid="diffuse">0.8 0.8 0.8 1</color>
            </diffuse>
            <index_of_refraction>
              <float sid="ior">1.5</float>
            </index_of_refraction>
          </lambert>
        </technique>
      </profile_COMMON>
    </effect>
    <effect id="MATERIALglass-effect">
      <profile_COMMON>
        <technique sid="common">
          <lambert>
            <emission>
              <color sid="emission">0 0 0 1</color>
            </emission>
            <diffuse>
              <color sid="diffuse">0.8 0.8 0.8 1</color>
            </diffuse>
            <index_of_refraction>
              <float sid="ior">1.5</float>
            </index_of_refraction>
          </lambert>
        </technique>
      </profile_COMMON>
    </effect>
  </library_effects>
  <library_images/>
  <library_materials>
    <material id="paintable-0-material" name="paintable-0">
      <instance_effect url="#paintable-0-effect"/>
    </material>
    <material id="paintable-1-material" name="paintable-1">
      <instance_effect url="#paintable-1-effect"/>
    </material>
    <material id="lightgrey-material" name="lightgrey">
      <instance_effect url="#lightgrey-effect"/>
    </material>
    <material id="darkgrey-material" name="darkgrey">
      <instance_effect url="#darkgrey-effect"/>
    </material>
    <material id="MATERIALadditive-material" name="MATERIALadditive">
      <instance_effect url="#MATERIALadditive-effect"/>
    </material>
    <material id="MATERIALglass-material" name="MATERIALglass">
      <instance_effect url="#MATERIALglass-effect"/>
    </material>
  </library_materials>
  <library_geometries>
    <geometry id="Cube-mesh" name="Cube">
      <mesh>
        <source id="Cube-mesh-positions">
          <float_array id="Cube-mesh-positions-array" count="54">-0.125 -0.125 -0.125 -0.125 0.125 -0.125 0.125 -0.125 -0.125 0.125 0.125 -0.125 0.125 0.125 0.125 0.125 -0.125 0.125 -0.01843142 0.04499995 -0.1108579 -0.01843142 -0.04499995 -0.1108579 0.1108579 0.04499995 0.01843142 0.1108579 -0.04499995 0.01843142 0.125 -0.125 0.07499998 -0.07499998 -0.125 -0.125 -0.07499998 0.125 -0.125 0.125 0.125 0.07499998 0.1108579 -0.07499998 0.06085783 -0.06085783 -0.07499998 -0.1108579 -0.06085783 0.07499998 -0.1108579 0.1108579 0.07499998 0.06085783</float_array>
          <technique_common>
            <accessor source="#Cube-mesh-positions-array" count="18" stride="3">
              <param name="X" type="float"/>
              <param name="Y" type="float"/>
              <param name="Z" type="float"/>
            </accessor>
          </technique_common>
        </source>
        <source id="Cube-mesh-normals">
          <float_array id="Cube-mesh-normals-array" count="102">0 1 0 0 0 -1 0 1 0 1 0 0 0 -1 0 0 -1 0 0 0 -1 -0.7071068 0 0.7071068 1 0 0 -0.7071068 0 0.7071068 -0.7071068 0 0.7071068 -0.7071068 0 0.7071068 -0.7071068 0 0.7071068 -0.5000001 0.7071067 0.5000001 -0.5000001 -0.7071067 0.5000001 -1 0 -1.75612e-7 1.75612e-7 0 1 -0.7071068 0 0.7071068 0 0 -1 0 1 0 1 0 0 0 -1 0 0 0 -1 -0.7071068 0 0.7071068 1 0 0 -0.7071068 0 0.7071068 -0.7071068 0 0.7071068 -0.7071068 0 0.7071068 -0.7071068 0 0.7071068 -0.5 0.7071068 0.5 -0.5 -0.7071068 0.5 -1 0 -1.75612e-7 1.75612e-7 0 1 -0.7071068 0 0.7071068</float_array>
          <technique_common>
            <accessor source="#Cube-mesh-normals-array" count="34" stride="3">
              <param name="X" type="float"/>
              <param name="Y" type="float"/>
              <param name="Z" type="float"/>
            </accessor>
          </technique_common>
        </source>
        <source id="Cube-mesh-map-0">
          <float_array id="Cube-mesh-map-0-array" count="204">0.5 0.375 0.5 0.5 0.375 0.5 0.375 0.5833333 0.25 0.6666666 0.25 0.5833333 0.25 0.5833333 0.625 0.5833333 0.5 0.5833333 0.5 0.5833333 0.375 0.6666666 0.375 0.5833333 0.625 0.6666666 0.25 0.6666666 0.5 0.6666666 0.375 0.75 0.5 0.75 0.375 0.875 0 0 0 0 0 0 0 0 0 0 0 0 0 0 0 0 0 0 0.2676777 0.66 0.5 0.6666666 0.4823223 0.6599999 0.4823223 0.5899999 0.25 0.5833333 0.2676777 0.59 0.4823223 0.6599999 0.5 0.5833333 0.4823223 0.5899999 0.2676777 0.59 0.25 0.6666666 0.2676777 0.66 0 0 0 0 0 0 0 0 0 0 0 0 0 0 0 0 0 0 0 0 0 0 0 0 0 0 0 0 0 0 0.375 0.5833333 0.375 0.6666666 0.25 0.6666666 0.25 0.5833333 0.875 0.5833333 0.625 0.5833333 0.5 0.5833333 0.5 0.6666666 0.375 0.6666666 0.625 0.6666666 0.875 0.6666666 0.25 0.6666666 0 0 0 0 0 0 0 0 0 0 0 0 0 0 0 0 0 0 0.2676777 0.66 0.25 0.6666666 0.5 0.6666666 0.4823223 0.5899999 0.5 0.5833333 0.25 0.5833333 0.4823223 0.6599999 0.5 0.6666666 0.5 0.5833333 0.2676777 0.59 0.25 0.5833333 0.25 0.6666666 0 0 0 0 0 0 0 0 0 0 0 0 0 0 0 0 0 0 0 0 0 0 0 0 0 0 0 0 0 0</float_array>
          <technique_common>
            <accessor source="#Cube-mesh-map-0-array" count="102" stride="2">
              <param name="S" type="float"/>
              <param name="T" type="float"/>
            </accessor>
          </technique_common>
        </source>
        <vertices id="Cube-mesh-vertices">
          <input semantic="POSITION" source="#Cube-mesh-positions"/>
        </vertices>
        <triangles material="paintable-0-material" count="14">
          <input semantic="VERTEX" source="#Cube-mesh-vertices" offset="0"/>
          <input semantic="NORMAL" source="#Cube-mesh-normals" offset="1"/>
          <input semantic="TEXCOORD" source="#Cube-mesh-map-0" offset="2" set="0"/>
          <p>12 0 0 13 0 1 3 0 2 3 1 3 11 1 4 12 1 5 13 3 9 2 3 10 3 3 11 2 5 15 10 5 16 11 5 17 15 9 27 10 9 28 14 9 29 17 10 30 12 10 31 16 10 32 14 11 33 13 11 34 17 11 35 16 12 36 11 12 37 15 12 38 3 18 54 2 18 55 11 18 56 13 20 60 10 20 61 2 20 62 15 25 75 11 25 76 10 25 77 17 26 78 13 26 79 12 26 80 14 27 81 10 27 82 13 27 83 16 28 84 12 28 85 11 28 86</p>
        </triangles>
        <triangles material="lightgrey-material" count="10">
          <input semantic="VERTEX" source="#Cube-mesh-vertices" offset="0"/>
          <input semantic="NORMAL" source="#Cube-mesh-normals" offset="1"/>
          <input semantic="TEXCOORD" source="#Cube-mesh-map-0" offset="2" set="0"/>
          <p>15 13 39 9 13 40 7 13 41 17 14 42 6 14 43 8 14 44 14 15 45 8 15 46 9 15 47 16 16 48 7 16 49 6 16 50 6 17 51 9 17 52 8 17 53 15 29 87 14 29 88 9 29 89 17 30 90 16 30 91 6 30 92 14 31 93 17 31 94 8 31 95 16 32 96 15 32 97 7 32 98 6 33 99 7 33 100 9 33 101</p>
        </triangles>
        <triangles material="MATERIALglass-material" count="10">
          <input semantic="VERTEX" source="#Cube-mesh-vertices" offset="0"/>
          <input semantic="NORMAL" source="#Cube-mesh-normals" offset="1"/>
          <input semantic="TEXCOORD" source="#Cube-mesh-map-0" offset="2" set="0"/>
          <p>12 2 6 4 2 7 13 2 8 5 4 12 11 4 13 10 4 14 0 6 18 12 6 19 11 6 20 5 7 21 1 7 22 0 7 23 10 8 24 4 8 25 5 8 26 12 19 57 1 19 58 4 19 59 5 21 63 0 21 64 11 21 65 0 22 66 1 22 67 12 22 68 5 23 69 4 23 70 1 23 71 10 24 72 13 24 73 4 24 74</p>
        </triangles>
      </mesh>
    </geometry>
  </library_geometries>
  <library_visual_scenes>
    <visual_scene id="Scene" name="Scene">
      <node id="Cube" name="Cube" type="NODE">
        <matrix sid="transform">1 0 0 0 0 1 0 0 0 0 1 0 0 0 0 1</matrix>
        <instance_geometry url="#Cube-mesh" name="Cube">
          <bind_material>
            <technique_common>
              <instance_material symbol="paintable-0-material" target="#paintable-0-material">
                <bind_vertex_input semantic="UVMap" input_semantic="TEXCOORD" input_set="0"/>
              </instance_material>
              <instance_material symbol="paintable-1-material" target="#paintable-1-material">
                <bind_vertex_input semantic="UVMap" input_semantic="TEXCOORD" input_set="0"/>
              </instance_material>
              <instance_material symbol="lightgrey-material" target="#lightgrey-material">
                <bind_vertex_input semantic="UVMap" input_semantic="TEXCOORD" input_set="0"/>
              </instance_material>
              <instance_material symbol="darkgrey-material" target="#darkgrey-material">
                <bind_vertex_input semantic="UVMap" input_semantic="TEXCOORD" input_set="0"/>
              </instance_material>
              <instance_material symbol="MATERIALadditive-material" target="#MATERIALadditive-material">
                <bind_vertex_input semantic="UVMap" input_semantic="TEXCOORD" input_set="0"/>
              </instance_material>
              <instance_material symbol="MATERIALglass-material" target="#MATERIALglass-material">
                <bind_vertex_input semantic="UVMap" input_semantic="TEXCOORD" input_set="0"/>
              </instance_material>
            </technique_common>
          </bind_material>
        </instance_geometry>
      </node>
    </visual_scene>
  </library_visual_scenes>
  <scene>
    <instance_visual_scene url="#Scene"/>
  </scene>
</COLLADA>