<?xml version="1.0" encoding="utf-8"?>
<COLLADA xmlns="http://www.collada.org/2005/11/COLLADASchema" version="1.4.1" xmlns:xsi="http://www.w3.org/2001/XMLSchema-instance">
  <asset>
    <contributor>
      <author>Blender User</author>
      <authoring_tool>Blender 4.2.23 LTS commit date:2026-07-20, commit time:13:44, hash:d0cbe84903e8</authoring_tool>
    </contributor>
    <created>2026-07-28T22:45:36</created>
    <modified>2026-07-28T22:45:36</modified>
    <unit name="meter" meter="1"/>
    <up_axis>Z_UP</up_axis>
  </asset>
  <library_effects>
    <effect id="paintable-0-effect">
      <profile_COMMON>
        <technique sid="common">
          <lambert>
            <emission>
              <color sid="emission">0 0 0 1</color>
            </emission>
            <diffuse>
              <color sid="diffuse">1 0.4969335 0 1</color>
            </diffuse>
            <index_of_refraction>
              <float sid="ior">1.45</float>
            </index_of_refraction>
          </lambert>
        </technique>
      </profile_COMMON>
    </effect>
    <effect id="paintable-1-effect">
      <profile_COMMON>
        <technique sid="common">
          <lambert>
            <emission>
              <color sid="emission">0 0 0 1</color>
            </emission>
            <diffuse>
              <color sid="diffuse">0.6104922 0.4910214 0 1</color>
            </diffuse>
            <index_of_refraction>
              <float sid="ior">1.5</float>
            </index_of_refraction>
          </lambert>
        </technique>
      </profile_COMMON>
    </effect>
    <effect id="lightgrey-effect">
      <profile_COMMON>
        <technique sid="common">
          <lambert>
            <emission>
              <color sid="emission">0 0 0 1</color>
            </emission>
            <diffuse>
              <color sid="diffuse">0.7835327 0.7835385 0.7835382 1</color>
            </diffuse>
            <index_of_refraction>
              <float sid="ior">1.5</float>
            </index_of_refraction>
          </lambert>
        </technique>
      </profile_COMMON>
    </effect>
    <effect id="darkgrey-effect">
      <profile_COMMON>
        <technique sid="common">
          <lambert>
            <emission>
              <color sid="emission">0 0 0 1</color>
            </emission>
            <diffuse>
              <color sid="diffuse">0.3371614 0.3371639 0.3371637 1</color>
            </diffuse>
            <index_of_refraction>
              <float sid="ior">1.5</float>
            </index_of_refraction>
          </lambert>
        </technique>
      </profile_COMMON>
    </effect>
    <effect id="MATERIALadditive-effect">
      <profile_COMMON>
        <technique sid="common">
          <lambert>
            <emission>
              <color sid="emission">0 0 0 1</color>
            </emission>
            <diffuse>
              <color sid="diffuse">0.8 0.8 0.8 1</color>
            </diffuse>
            <index_of_refraction>
              <float sid="ior">1.5</float>
            </index_of_refraction>
          </lambert>
        </technique>
      </profile_COMMON>
    </effect>
    <effect id="MATERIALglass-effect">
      <profile_COMMON>
        <technique sid="common">
          <lambert>
            <emission>
              <color sid="emission">0 0 0 1</color>
            </emission>
            <diffuse>
              <color sid="diffuse">0.8 0.8 0.8 1</color>
            </diffuse>
            <index_of_refraction>
              <float sid="ior">1.5</float>
            </index_of_refraction>
          </lambert>
        </technique>
      </profile_COMMON>
    </effect>
  </library_effects>
  <library_images/>
  <library_materials>
    <material id="paintable-0-material" name="paintable-0">
      <instance_effect url="#paintable-0-effect"/>
    </material>
    <material id="paintable-1-material" name="paintable-1">
      <instance_effect url="#paintable-1-effect"/>
    </material>
    <material id="lightgrey-material" name="lightgrey">
      <instance_effect url="#lightgrey-effect"/>
    </material>
    <material id="darkgrey-material" name="darkgrey">
      <instance_effect url="#darkgrey-effect"/>
    </material>
    <material id="MATERIALadditive-material" name="MATERIALadditive">
      <instance_effect url="#MATERIALadditive-effect"/>
    </material>
    <material id="MATERIALglass-material" name="MATERIALglass">
      <instance_effect url="#MATERIALglass-effect"/>
    </material>
  </library_materials>
  <library_geometries>
    <geometry id="Cube-mesh" name="Cube">
      <mesh>
        <source id="Cube-mesh-positions">
          <float_array id="Cube-mesh-positions-array" count="72">0.125 0.03499996 -0.125 -0.125 0.03499996 -0.125 -0.125 -0.03499996 -0.125 0.125 -0.03499996 -0.125 0.125 0.02499997 -0.125 -0.125 0.02499997 -0.125 0.125 -0.02499997 -0.125 -0.125 -0.02499997 -0.125 -0.125 0.03499996 -0.07499998 0.125 0.03499996 -0.07499998 0.125 -0.03499996 -0.07499998 -0.125 -0.03499996 -0.07499998 -0.125 -0.02499997 -0.055 -0.125 0.02499997 -0.055 -0.125 0.03499996 -0.055 0.125 0.03499996 -0.055 0.125 -0.03499996 -0.055 -0.125 -0.03499996 -0.055 -0.125 -0.02499997 -0.07499998 -0.125 0.02499997 -0.07499998 0.125 0.02499997 -0.07499998 0.125 -0.02499997 -0.07499998 0.125 0.02499997 -0.055 0.125 -0.02499997 -0.055</float_array>
          <technique_common>
            <accessor source="#Cube-mesh-positions-array" count="24" stride="3">
              <param name="X" type="float"/>
              <param name="Y" type="float"/>
              <param name="Z" type="float"/>
            </accessor>
          </technique_common>
        </source>
        <source id="Cube-mesh-normals">
          <float_array id="Cube-mesh-normals-array" count="150">1 0 0 1 0 0 -1 0 0 -1 0 0 -1 0 0 1 0 0 0 -1 0 0 1 0 0 0 -1 0 0 -1 0 0 1 0 0 1 0 0 -1 0 -1 0 0 1 0 1 0 0 -1 0 0 -1 0 0 1 0 0 0 0 1 0 -1 0 0 1 0 -1 0 0 0 0 1 1 0 0 1 0 0 1 0 0 -1 0 0 -1 0 0 -1 0 0 1 0 0 0 -1 0 0 1 0 0 0 -1 0 0 -1 0 0 1 0 0 1 0 0 -1 0 -1 0 0 1 0 1 0 0 -1 0 0 -1 0 0 1 0 0 0 0 1 0 -1 0 0 1 0 -1 0 0 0 0 1 1 0 0</float_array>
          <technique_common>
            <accessor source="#Cube-mesh-normals-array" count="50" stride="3">
              <param name="X" type="float"/>
              <param name="Y" type="float"/>
              <param name="Z" type="float"/>
            </accessor>
          </technique_common>
        </source>
        <source id="Cube-mesh-map-0">
          <float_array id="Cube-mesh-map-0-array" count="300">0.4375 0.5833334 0.375 0.6666666 0.375 0.5833333 0.4375 0.5 0.375 0.5833333 0.375 0.5 0.4375 0.08333331 0.375 0.1666666 0.375 0.08333331 0.4375 0 0.375 0.08333331 0.375 0 0.4375 0.1666666 0.375 0.25 0.375 0.1666666 0.4375 0.6666666 0.375 0.75 0.375 0.6666666 0.4375 0.8333333 0.375 0.9166666 0.375 0.8333333 0.4375 0.3333333 0.375 0.4166666 0.375 0.3333333 0.2916666 0.5833333 0.2083333 0.6666666 0.2083333 0.5833333 0.2916666 0.5 0.2083333 0.5833333 0.2083333 0.5 0.5 0.4722222 0.5 0.25 0.5 0.5 0.5 0.4166666 0.5 0.3055555 0.5 0.4444444 0.2916666 0.6666666 0.2083333 0.75 0.2083333 0.6666666 0.46875 0.8333333 0.4375 0.9166666 0.4375 0.8333333 0.46875 0.3333333 0.4375 0.4166666 0.4375 0.3333333 0.46875 0.5 0.4375 0.5833334 0.4375 0.5 0.46875 0 0.4375 0.08333331 0.4375 0 0.46875 0.1666666 0.4375 0.25 0.4375 0.1666666 0.46875 0.6666666 0.4375 0.75 0.4375 0.6666666 0.4375 0.5833334 0.4375 0.6666666 0.4375 0.6666666 0.46875 0.5833334 0.4375 0.5833334 0.4375 0.5833334 0.4375 0.6666666 0.46875 0.6666666 0.46875 0.6666666 0.46875 0.08333331 0.4375 0.08333331 0.46875 0.08333331 0.5 0.4722222 0.5 0.2777777 0.5 0.4722222 0.4375 0.6666666 0.46875 0.6666666 0.4375 0.6666666 0.4375 0.5833334 0.4375 0.6666666 0.375 0.6666666 0.4375 0.5 0.4375 0.5833334 0.375 0.5833333 0.4375 0.08333331 0.4375 0.1666666 0.375 0.1666666 0.4375 0 0.4375 0.08333331 0.375 0.08333331 0.4375 0.1666666 0.4375 0.25 0.375 0.25 0.4375 0.6666666 0.4375 0.75 0.375 0.75 0.4375 0.8333333 0.4375 0.9166666 0.375 0.9166666 0.4375 0.3333333 0.4375 0.4166666 0.375 0.4166666 0.2916666 0.5833333 0.2916666 0.6666666 0.2083333 0.6666666 0.2916666 0.5 0.2916666 0.5833333 0.2083333 0.5833333 0.5 0.4722222 0.5 0.2777777 0.5 0.25 0.5 0.4166666 0.5 0.3333333 0.5 0.3055555 0.2916666 0.6666666 0.2916666 0.75 0.2083333 0.75 0.46875 0.8333333 0.46875 0.9166666 0.4375 0.9166666 0.46875 0.3333333 0.46875 0.4166666 0.4375 0.4166666 0.46875 0.5 0.46875 0.5833334 0.4375 0.5833334 0.46875 0 0.46875 0.08333331 0.4375 0.08333331 0.46875 0.1666666 0.46875 0.25 0.4375 0.25 0.46875 0.6666666 0.46875 0.75 0.4375 0.75 0.4375 0.5833334 0.4375 0.5833334 0.4375 0.6666666 0.46875 0.5833334 0.46875 0.5833334 0.4375 0.5833334 0.4375 0.6666666 0.4375 0.6666666 0.46875 0.6666666 0.46875 0.08333331 0.4375 0.08333331 0.4375 0.08333331 0.5 0.4722222 0.5 0.2777777 0.5 0.2777777 0.4375 0.6666666 0.46875 0.6666666 0.46875 0.6666666</float_array>
          <technique_common>
            <accessor source="#Cube-mesh-map-0-array" count="150" stride="2">
              <param name="S" type="float"/>
              <param name="T" type="float"/>
            </accessor>
          </technique_common>
        </source>
        <vertices id="Cube-mesh-vertices">
          <input semantic="POSITION" source="#Cube-mesh-positions"/>
        </vertices>
        <triangles material="paintable-0-material" count="42">
          <input semantic="VERTEX" source="#Cube-mesh-vertices" offset="0"/>
          <input semantic="NORMAL" source="#Cube-mesh-normals" offset="1"/>
          <input semantic="TEXCOORD" source="#Cube-mesh-map-0" offset="2" set="0"/>
          <p>20 0 0 6 0 1 4 0 2 9 1 3 4 1 4 0 1 5 18 2 6 5 2 7 7 2 8 11 3 9 7 3 10 2 3 11 19 4 12 1 4 13 5 4 14 21 5 15 3 5 16 6 5 17 10 6 18 2 6 19 3 6 20 8 7 21 0 7 22 1 7 23 4 8 24 7 8 25 5 8 26 0 9 27 5 9 28 1 9 29 23 10 30 17 10 31 16 10 32 15 11 33 13 11 34 22 11 35 6 12 36 2 12 37 7 12 38 16 13 39 11 13 40 10 13 41 14 14 42 9 14 43 8 14 44 15 15 45 20 15 46 9 15 47 17 16 48 18 16 49 11 16 50 13 17 51 8 17 52 19 17 53 23 18 54 10 18 55 21 18 56 22 20 60 19 20 61 20 20 62 21 21 63 12 21 64 23 21 65 20 25 75 21 25 76 6 25 77 9 26 78 20 26 79 4 26 80 18 27 81 19 27 82 5 27 83 11 28 84 18 28 85 7 28 86 19 29 87 8 29 88 1 29 89 21 30 90 10 30 91 3 30 92 10 31 93 11 31 94 2 31 95 8 32 96 9 32 97 0 32 98 4 33 99 6 33 100 7 33 101 0 34 102 4 34 103 5 34 104 23 35 105 12 35 106 17 35 107 15 36 108 14 36 109 13 36 110 6 37 111 3 37 112 2 37 113 16 38 114 17 38 115 11 38 116 14 39 117 15 39 118 9 39 119 15 40 120 22 40 121 20 40 122 17 41 123 12 41 124 18 41 125 13 42 126 14 42 127 8 42 128 23 43 129 16 43 130 10 43 131 22 45 135 13 45 136 19 45 137 21 46 138 18 46 139 12 46 140</p>
        </triangles>
        <triangles material="paintable-1-material" count="2">
          <input semantic="VERTEX" source="#Cube-mesh-vertices" offset="0"/>
          <input semantic="NORMAL" source="#Cube-mesh-normals" offset="1"/>
          <input semantic="TEXCOORD" source="#Cube-mesh-map-0" offset="2" set="0"/>
          <p>20 19 57 18 19 58 21 19 59 20 44 132 19 44 133 18 44 134</p>
        </triangles>
        <triangles material="MATERIALglass-material" count="6">
          <input semantic="VERTEX" source="#Cube-mesh-vertices" offset="0"/>
          <input semantic="NORMAL" source="#Cube-mesh-normals" offset="1"/>
          <input semantic="TEXCOORD" source="#Cube-mesh-map-0" offset="2" set="0"/>
          <p>13 22 66 18 22 67 12 22 68 22 23 69 12 23 70 23 23 71 20 24 72 23 24 73 21 24 74 13 47 141 19 47 142 18 47 143 22 48 144 13 48 145 12 48 146 20 49 147 22 49 148 23 49 149</p>
        </triangles>
      </mesh>
    </geometry>
  </library_geometries>
  <library_visual_scenes>
    <visual_scene id="Scene" name="Scene">
      <node id="Cube" name="Cube" type="NODE">
        <matrix sid="transform">1 0 0 0 0 1 0 0 0 0 1 0 0 0 0 1</matrix>
        <instance_geometry url="#Cube-mesh" name="Cube">
          <bind_material>
            <technique_common>
              <instance_material symbol="paintable-0-material" target="#paintable-0-material">
                <bind_vertex_input semantic="UVMap" input_semantic="TEXCOORD" input_set="0"/>
              </instance_material>
              <instance_material symbol="paintable-1-material" target="#paintable-1-material">
                <bind_vertex_input semantic="UVMap" input_semantic="TEXCOORD" input_set="0"/>
              </instance_material>
              <instance_material symbol="lightgrey-material" target="#lightgrey-material">
                <bind_vertex_input semantic="UVMap" input_semantic="TEXCOORD" input_set="0"/>
              </instance_material>
              <instance_material symbol="darkgrey-material" target="#darkgrey-material">
                <bind_vertex_input semantic="UVMap" input_semantic="TEXCOORD" input_set="0"/>
              </instance_material>
              <instance_material symbol="MATERIALadditive-material" target="#MATERIALadditive-material">
                <bind_vertex_input semantic="UVMap" input_semantic="TEXCOORD" input_set="0"/>
              </instance_material>
              <instance_material symbol="MATERIALglass-material" target="#MATERIALglass-material">
                <bind_vertex_input semantic="UVMap" input_semantic="TEXCOORD" input_set="0"/>
              </instance_material>
            </technique_common>
          </bind_material>
        </instance_geometry>
      </node>
    </visual_scene>
  </library_visual_scenes>
  <scene>
    <instance_visual_scene url="#Scene"/>
  </scene>
</COLLADA>