<?xml version="1.0" encoding="utf-8"?>
<COLLADA xmlns="http://www.collada.org/2005/11/COLLADASchema" version="1.4.1" xmlns:xsi="http://www.w3.org/2001/XMLSchema-instance">
  <asset>
    <contributor>
      <author>Blender User</author>
      <authoring_tool>Blender 4.2.23 LTS commit date:2026-07-20, commit time:13:44, hash:d0cbe84903e8</authoring_tool>
    </contributor>
    <created>2026-07-31T16:41:16</created>
    <modified>2026-07-31T16:41:16</modified>
    <unit name="meter" meter="1"/>
    <up_axis>Z_UP</up_axis>
  </asset>
  <library_effects>
    <effect id="paintable-0-effect">
      <profile_COMMON>
        <technique sid="common">
          <lambert>
            <emission>
              <color sid="emission">0 0 0 1</color>
            </emission>
            <diffuse>
              <color sid="diffuse">1 0.4969335 0 1</color>
            </diffuse>
            <index_of_refraction>
              <float sid="ior">1.45</float>
            </index_of_refraction>
          </lambert>
        </technique>
      </profile_COMMON>
    </effect>
    <effect id="paintable-1-effect">
      <profile_COMMON>
        <technique sid="common">
          <lambert>
            <emission>
              <color sid="emission">0 0 0 1</color>
            </emission>
            <diffuse>
              <color sid="diffuse">0.6104922 0.4910214 0 1</color>
            </diffuse>
            <index_of_refraction>
              <float sid="ior">1.5</float>
            </index_of_refraction>
          </lambert>
        </technique>
      </profile_COMMON>
    </effect>
    <effect id="lightgrey-effect">
      <profile_COMMON>
        <technique sid="common">
          <lambert>
            <emission>
              <color sid="emission">0 0 0 1</color>
            </emission>
            <diffuse>
              <color sid="diffuse">0.7835327 0.7835385 0.7835382 1</color>
            </diffuse>
            <index_of_refraction>
              <float sid="ior">1.5</float>
            </index_of_refraction>
          </lambert>
        </technique>
      </profile_COMMON>
    </effect>
    <effect id="darkgrey-effect">
      <profile_COMMON>
        <technique sid="common">
          <lambert>
            <emission>
              <color sid="emission">0 0 0 1</color>
            </emission>
            <diffuse>
              <color sid="diffuse">0.3371614 0.3371639 0.3371637 1</color>
            </diffuse>
            <index_of_refraction>
              <float sid="ior">1.5</float>
            </index_of_refraction>
          </lambert>
        </technique>
      </profile_COMMON>
    </effect>
    <effect id="MATERIALadditive-effect">
      <profile_COMMON>
        <technique sid="common">
          <lambert>
            <emission>
              <color sid="emission">0 0 0 1</color>
            </emission>
            <diffuse>
              <color sid="diffuse">0.8 0.8 0.8 1</color>
            </diffuse>
            <index_of_refraction>
              <float sid="ior">1.5</float>
            </index_of_refraction>
          </lambert>
        </technique>
      </profile_COMMON>
    </effect>
    <effect id="MATERIALglass-effect">
      <profile_COMMON>
        <technique sid="common">
          <lambert>
            <emission>
              <color sid="emission">0 0 0 1</color>
            </emission>
            <diffuse>
              <color sid="diffuse">0.8 0.8 0.8 1</color>
            </diffuse>
            <index_of_refraction>
              <float sid="ior">1.5</float>
            </index_of_refraction>
          </lambert>
        </technique>
      </profile_COMMON>
    </effect>
  </library_effects>
  <library_images/>
  <library_materials>
    <material id="paintable-0-material" name="paintable-0">
      <instance_effect url="#paintable-0-effect"/>
    </material>
    <material id="paintable-1-material" name="paintable-1">
      <instance_effect url="#paintable-1-effect"/>
    </material>
    <material id="lightgrey-material" name="lightgrey">
      <instance_effect url="#lightgrey-effect"/>
    </material>
    <material id="darkgrey-material" name="darkgrey">
      <instance_effect url="#darkgrey-effect"/>
    </material>
    <material id="MATERIALadditive-material" name="MATERIALadditive">
      <instance_effect url="#MATERIALadditive-effect"/>
    </material>
    <material id="MATERIALglass-material" name="MATERIALglass">
      <instance_effect url="#MATERIALglass-effect"/>
    </material>
  </library_materials>
  <library_geometries>
    <geometry id="Cube-mesh" name="Cube">
      <mesh>
        <source id="Cube-mesh-positions">
          <float_array id="Cube-mesh-positions-array" count="72">-0.125 -0.125 0.07499992 -0.125 0.125 0.07499992 0.125 0.125 0.07499992 0.125 -0.125 0.07499992 -0.01035529 0.02499997 0.02499997 0.01035529 0.02499997 0.02499997 0.02499997 0.01035529 0.02499997 0.02499997 -0.01035529 0.02499997 0.01035529 -0.02499997 0.02499997 -0.01035529 -0.02499997 0.02499997 -0.02499997 -0.01035529 0.02499997 -0.02499997 0.01035529 0.02499997 0.031066 0.07499998 0.07499992 -0.031066 0.07499998 0.07499992 0.07499998 0.031066 0.07499992 0.07499998 -0.031066 0.07499992 0.031066 -0.07499998 0.07499992 -0.031066 -0.07499998 0.07499992 -0.07499998 -0.031066 0.07499992 -0.07499998 0.031066 0.07499992 -0.125 -0.125 -0.125 -0.125 0.125 -0.125 0.125 0.125 -0.125 0.125 -0.125 -0.125</float_array>
          <technique_common>
            <accessor source="#Cube-mesh-positions-array" count="24" stride="3">
              <param name="X" type="float"/>
              <param name="Y" type="float"/>
              <param name="Z" type="float"/>
            </accessor>
          </technique_common>
        </source>
        <source id="Cube-mesh-normals">
          <float_array id="Cube-mesh-normals-array" count="126">0 0 1 0 0 1 0 0 1 0 0 1 0 0 1 0 0 1 0 0 1 0 0 1 0 0 1 0 -0.7071068 0.7071067 -0.5000001 -0.5 0.7071068 -0.7071067 0 0.7071068 -0.5 0.5000001 0.7071068 0 0.7071067 0.7071068 0.5000001 0.5 0.7071068 0.7071067 0 0.7071068 0.5000001 -0.5 0.7071068 0 1 0 0 -1 0 -1 0 0 1 0 0 0 0 1 0 0 1 0 0 1 0 0 1 0 0 1 0 0 1 0 0 1 0 0 1 0 0 1 -1.27189e-7 -0.7071068 0.7071068 -0.4999999 -0.5000001 0.7071068 -0.7071068 -1.27189e-7 0.7071067 -0.5000001 0.4999999 0.7071068 -1.27189e-7 0.7071068 0.7071067 0.4999999 0.5000001 0.7071068 0.7071068 1.27189e-7 0.7071067 0.5000001 -0.4999999 0.7071067 0 1 0 0 -1 0 -1 0 0 1 0 0</float_array>
          <technique_common>
            <accessor source="#Cube-mesh-normals-array" count="42" stride="3">
              <param name="X" type="float"/>
              <param name="Y" type="float"/>
              <param name="Z" type="float"/>
            </accessor>
          </technique_common>
        </source>
        <source id="Cube-mesh-map-0">
          <float_array id="Cube-mesh-map-0-array" count="252">0.00999999 0.25 0 0 0 0 0.25 0.49 0 0 0 0 0.49 0.25 0 0 0.4197056 0.4197056 0.49 0.25 0 0 0 0 0.25 0.00999999 0 0 0.4197056 0.08029437 0.25 0.00999999 0 0 0 0 0.17 0.25 0.25 0.17 0.33 0.25 0 0 0.08029437 0.08029437 0.00999999 0.25 0.08029437 0.4197056 0.25 0.49 0 0 0.2500001 0.3300001 0.4197056 0.4197056 0.25 0.49 0.33 0.25 0.4197056 0.4197056 0.3065686 0.3065686 0.33 0.25 0.4197056 0.08029437 0.49 0.25 0.25 0.17 0.4197056 0.08029437 0.3065685 0.1934314 0.25 0.17 0.08029437 0.08029437 0.25 0.00999999 0.17 0.25 0.08029437 0.08029437 0.1934314 0.1934314 0.17 0.25 0.08029437 0.4197056 0.00999999 0.25 0.2500001 0.3300001 0.08029437 0.4197056 0.1934314 0.3065685 0 0 0 0 0 0 0 0 0 0 0 0 0 0 0 0 0 0 0 0 0 0 0 0 0.00999999 0.25 0.08029437 0.4197056 0 0 0.25 0.49 0.4197056 0.4197056 0 0 0.49 0.25 0.4197056 0.08029437 0 0 0.25 0.00999999 0.08029437 0.08029437 0 0 0.33 0.25 0.3065686 0.3065686 0.2500001 0.3300001 0.2500001 0.3300001 0.1934314 0.3065685 0.33 0.25 0.1934314 0.3065685 0.17 0.25 0.33 0.25 0.17 0.25 0.1934314 0.1934314 0.25 0.17 0.25 0.17 0.3065685 0.1934314 0.33 0.25 0.2500001 0.3300001 0.3065686 0.3065686 0.4197056 0.4197056 0.33 0.25 0.49 0.25 0.4197056 0.4197056 0.33 0.25 0.3065685 0.1934314 0.4197056 0.08029437 0.25 0.17 0.25 0.00999999 0.4197056 0.08029437 0.25 0.17 0.1934314 0.1934314 0.08029437 0.08029437 0.17 0.25 0.00999999 0.25 0.08029437 0.08029437 0.17 0.25 0.1934314 0.3065685 0.08029437 0.4197056 0.2500001 0.3300001 0.25 0.49 0.08029437 0.4197056 0 0 0 0 0 0 0 0 0 0 0 0 0 0 0 0 0 0 0 0 0 0 0 0</float_array>
          <technique_common>
            <accessor source="#Cube-mesh-map-0-array" count="126" stride="2">
              <param name="S" type="float"/>
              <param name="T" type="float"/>
            </accessor>
          </technique_common>
        </source>
        <vertices id="Cube-mesh-vertices">
          <input semantic="POSITION" source="#Cube-mesh-positions"/>
        </vertices>
        <triangles material="paintable-0-material" count="8">
          <input semantic="VERTEX" source="#Cube-mesh-vertices" offset="0"/>
          <input semantic="NORMAL" source="#Cube-mesh-normals" offset="1"/>
          <input semantic="TEXCOORD" source="#Cube-mesh-map-0" offset="2" set="0"/>
          <p>2 17 51 21 17 52 1 17 53 0 18 54 23 18 55 3 18 56 1 19 57 20 19 58 0 19 59 3 20 60 22 20 61 2 20 62 2 38 114 22 38 115 21 38 116 0 39 117 20 39 118 23 39 119 1 40 120 21 40 121 20 40 122 3 41 123 23 41 124 22 41 125</p>
        </triangles>
        <triangles material="paintable-1-material" count="12">
          <input semantic="VERTEX" source="#Cube-mesh-vertices" offset="0"/>
          <input semantic="NORMAL" source="#Cube-mesh-normals" offset="1"/>
          <input semantic="TEXCOORD" source="#Cube-mesh-map-0" offset="2" set="0"/>
          <p>18 0 0 1 0 1 0 0 2 13 1 3 2 1 4 1 1 5 14 2 6 2 2 7 12 2 8 14 3 9 3 3 10 2 3 11 16 4 12 3 4 13 15 4 14 16 5 15 0 5 16 3 5 17 0 7 21 17 7 22 18 7 23 19 8 24 13 8 25 1 8 26 18 21 63 19 21 64 1 21 65 13 22 66 12 22 67 2 22 68 14 23 69 15 23 70 3 23 71 16 24 72 17 24 73 0 24 74</p>
        </triangles>
        <triangles material="lightgrey-material" count="22">
          <input semantic="VERTEX" source="#Cube-mesh-vertices" offset="0"/>
          <input semantic="NORMAL" source="#Cube-mesh-normals" offset="1"/>
          <input semantic="TEXCOORD" source="#Cube-mesh-map-0" offset="2" set="0"/>
          <p>10 6 18 8 6 19 6 6 20 4 9 27 12 9 28 13 9 29 6 10 30 12 10 31 5 10 32 6 11 33 15 11 34 14 11 35 8 12 36 15 12 37 7 12 38 8 13 39 17 13 40 16 13 41 10 14 42 17 14 43 9 14 44 10 15 45 19 15 46 18 15 47 4 16 48 19 16 49 11 16 50 6 25 75 5 25 76 4 25 77 4 26 78 11 26 79 6 26 80 11 27 81 10 27 82 6 27 83 10 28 84 9 28 85 8 28 86 8 29 87 7 29 88 6 29 89 4 30 90 5 30 91 12 30 92 6 31 93 14 31 94 12 31 95 6 32 96 7 32 97 15 32 98 8 33 99 16 33 100 15 33 101 8 34 102 9 34 103 17 34 104 10 35 105 18 35 106 17 35 107 10 36 108 11 36 109 19 36 110 4 37 111 13 37 112 19 37 113</p>
        </triangles>
      </mesh>
    </geometry>
  </library_geometries>
  <library_visual_scenes>
    <visual_scene id="Scene" name="Scene">
      <node id="Cube" name="Cube" type="NODE">
        <matrix sid="transform">1 0 0 0 0 1 0 0 0 0 1 0 0 0 0 1</matrix>
        <instance_geometry url="#Cube-mesh" name="Cube">
          <bind_material>
            <technique_common>
              <instance_material symbol="paintable-0-material" target="#paintable-0-material">
                <bind_vertex_input semantic="UVMap" input_semantic="TEXCOORD" input_set="0"/>
              </instance_material>
              <instance_material symbol="paintable-1-material" target="#paintable-1-material">
                <bind_vertex_input semantic="UVMap" input_semantic="TEXCOORD" input_set="0"/>
              </instance_material>
              <instance_material symbol="lightgrey-material" target="#lightgrey-material">
                <bind_vertex_input semantic="UVMap" input_semantic="TEXCOORD" input_set="0"/>
              </instance_material>
              <instance_material symbol="darkgrey-material" target="#darkgrey-material">
                <bind_vertex_input semantic="UVMap" input_semantic="TEXCOORD" input_set="0"/>
              </instance_material>
              <instance_material symbol="MATERIALadditive-material" target="#MATERIALadditive-material">
                <bind_vertex_input semantic="UVMap" input_semantic="TEXCOORD" input_set="0"/>
              </instance_material>
              <instance_material symbol="MATERIALglass-material" target="#MATERIALglass-material">
                <bind_vertex_input semantic="UVMap" input_semantic="TEXCOORD" input_set="0"/>
              </instance_material>
            </technique_common>
          </bind_material>
        </instance_geometry>
      </node>
    </visual_scene>
  </library_visual_scenes>
  <scene>
    <instance_visual_scene url="#Scene"/>
  </scene>
</COLLADA>