<?xml version="1.0" encoding="utf-8"?>
<COLLADA xmlns="http://www.collada.org/2005/11/COLLADASchema" version="1.4.1" xmlns:xsi="http://www.w3.org/2001/XMLSchema-instance">
  <asset>
    <contributor>
      <author>Blender User</author>
      <authoring_tool>Blender 4.2.23 LTS commit date:2026-07-20, commit time:13:44, hash:d0cbe84903e8</authoring_tool>
    </contributor>
    <created>2026-08-06T14:59:32</created>
    <modified>2026-08-06T14:59:32</modified>
    <unit name="meter" meter="1"/>
    <up_axis>Z_UP</up_axis>
  </asset>
  <library_effects>
    <effect id="Paintable-0-effect">
      <profile_COMMON>
        <technique sid="common">
          <lambert>
            <emission>
              <color sid="emission">0 0 0 1</color>
            </emission>
            <diffuse>
              <color sid="diffuse">1 0.4969335 0 1</color>
            </diffuse>
            <index_of_refraction>
              <float sid="ior">1.45</float>
            </index_of_refraction>
          </lambert>
        </technique>
      </profile_COMMON>
    </effect>
    <effect id="Paintable-1-effect">
      <profile_COMMON>
        <technique sid="common">
          <lambert>
            <emission>
              <color sid="emission">0 0 0 1</color>
            </emission>
            <diffuse>
              <color sid="diffuse">0.6104922 0.4910214 0 1</color>
            </diffuse>
            <index_of_refraction>
              <float sid="ior">1.5</float>
            </index_of_refraction>
          </lambert>
        </technique>
      </profile_COMMON>
    </effect>
  </library_effects>
  <library_images/>
  <library_materials>
    <material id="Paintable-0-material" name="Paintable-0">
      <instance_effect url="#Paintable-0-effect"/>
    </material>
    <material id="Paintable-1-material" name="Paintable-1">
      <instance_effect url="#Paintable-1-effect"/>
    </material>
  </library_materials>
  <library_geometries>
    <geometry id="Cube-mesh" name="Cube">
      <mesh>
        <source id="Cube-mesh-positions">
          <float_array id="Cube-mesh-positions-array" count="1242">0.1999999 0.2291877 0.1534743 0.05000001 0.3094727 0.4005659 0.1107735 0.2389025 0.3128158 0.06 0.2850992 0.3902735 0.055 0.2782648 0.4016 0.2324999 0.2920776 0.3470294 0.2424999 0.2867252 0.3305566 -0.01499998 0.2407984 0.2862906 0.2649999 0.2598196 0.2801102 0.1949999 0.2972859 0.3954197 0.1349999 0.2491149 0.2471647 0.115 0.2491149 0.2471647 0.09999996 0.2678481 0.3048195 0.08999997 0.2624958 0.2883467 0.1499999 0.2678481 0.3048195 0.16 0.2624958 0.2883467 0.1449999 0.2491149 0.2471647 0.165 0.2598195 0.2801103 0.08499997 0.2598195 0.2801103 0.105 0.2491149 0.2471647 0.1449999 0.2705242 0.3130559 0.105 0.2705242 0.3130559 0.007499992 0.2486829 0.3429173 0.1999999 0.3094726 0.4005659 0.01749998 0.2540353 0.3593901 0.055 0.2972859 0.3954197 0.2749999 0.2693302 0.27702 0.1949999 0.2223533 0.1648008 0.01749998 0.2920776 0.3470294 0.007499992 0.2867252 0.3305566 0.05499994 0.2223533 0.1648008 -0.01499998 0.2598196 0.2801102 0.1899999 0.2850992 0.3902735 0.2349999 0.2758766 0.3295286 0.2099999 0.2958039 0.4232192 0.1999999 0.2714304 0.4129266 0.01500004 0.2758766 0.3295286 0.02500003 0.2812289 0.3460014 0.06 0.2155189 0.1761274 0.03999996 0.2048142 0.1431818 0.2249999 0.2812289 0.3460014 0.115 0.2291877 0.1534743 0.1349999 0.2291877 0.1534743 0.05000001 0.1911454 0.165835 0.04999995 0.2291877 0.1534742 0.115 0.2223533 0.1648008 0.1349999 0.2223533 0.1648008 -0.02499997 0.2693302 0.2770201 0.09654694 0.231288 0.2893807 0.1107735 0.2236735 0.2659457 0.1392264 0.2236735 0.2659457 0.1534529 0.231288 0.2893807 0.1392264 0.2389025 0.3128158 0.1086602 0.2377713 0.3093347 0.09866023 0.232419 0.2928619 0.115 0.2236734 0.2659457 0.1349999 0.2236734 0.2659457 0.1513397 0.232419 0.2928619 0.1413397 0.2377713 0.3093347 0.1449999 0.2515032 0.3192362 0.105 0.2515032 0.3192362 0.1449999 0.2300938 0.253345 0.165 0.2407985 0.2862906 0.08499997 0.2407985 0.2862906 0.105 0.2300938 0.253345 0.03999996 0.2958039 0.4232191 0.05000001 0.2714304 0.4129266 -0.004999935 0.2503091 0.2832004 -0.04500001 0.2503091 0.2832005 0.1949999 0.2782648 0.4016001 -0.02499997 0.2312878 0.2893807 0.055 0.2033321 0.1709812 0.2324999 0.2540353 0.3593901 0.2424999 0.248683 0.3429173 0.2574999 0.2703803 0.3449734 0.2475 0.2757326 0.3614462 0.195 0.2033321 0.1709811 0.03249996 0.2703803 0.3449733 0.2649999 0.2407985 0.2862906 0.01499998 0.2568554 0.3357089 0.02249997 0.2650279 0.3285006 0.08999991 0.2434746 0.294527 0.09999996 0.248827 0.3109998 0.15 0.2583376 0.3079096 0.16 0.2529852 0.2914369 0.2349999 0.2568555 0.3357089 0.16 0.2434746 0.294527 0.15 0.248827 0.3109998 0.2174999 0.2703803 0.3449734 0.2249999 0.2622078 0.3521817 0.105 0.2396044 0.2502549 0.02499997 0.2622078 0.3521817 0.09999996 0.2583376 0.3079096 0.1349999 0.1911454 0.165835 0.08499997 0.2503091 0.2832004 0.165 0.2503091 0.2832004 0.08999991 0.2529852 0.2914369 -0.007499992 0.2703803 0.3449734 0.115 0.1911454 0.165835 0.1449999 0.2396044 0.2502549 0.105 0.2610138 0.316146 0.002499938 0.2757326 0.3614462 0.2274999 0.265028 0.3285006 0.1449999 0.2610138 0.316146 0.1899999 0.2155189 0.1761274 0.21 0.2048142 0.1431818 0.2 0.1911454 0.1658349 0.115 0.2155189 0.1761274 0.135 0.2033321 0.1709811 0.135 0.2155189 0.1761273 0.1349999 0.2300938 0.253345 0.115 0.2300938 0.253345 0.2549999 0.2503091 0.2832005 0.295 0.2503091 0.2832005 0.115 0.2033321 0.1709811 0.115 0.2396044 0.2502549 0.1349999 0.2396044 0.2502549 0.135 0.2048142 0.1431818 0.115 0.2048142 0.1431818 0.2749999 0.2312879 0.2893808 0.06249994 0.2524451 0.225053 0.06249994 0.2831249 0.3194758 0.1875 0.2524451 0.225053 0.1875 0.2831249 0.3194758 0.06249994 0.375 0.125 0.1875 0.375 0.125 0.1349999 0.2586255 0.2440745 0.115 0.2586255 0.2440745 0.09999996 0.2773587 0.3017293 0.08999997 0.2720063 0.2852565 0.1499999 0.2773587 0.3017293 0.16 0.2720063 0.2852565 0.1449999 0.2586255 0.2440745 0.165 0.2693302 0.2770201 0.08499997 0.2693302 0.2770201 0.105 0.2586255 0.2440745 0.1449999 0.2800348 0.3099657 0.105 0.2800348 0.3099657 0.1875 0.5 0.125 0.1875 0.5 0.2490088 0.06249994 0.5 0.2490088 0.06249994 0.5 0.125 0.06249994 0.375 0.2896237 0.1875 0.375 0.2896237 -0.125 -0.375 -0.125 -0.125 -0.375 -0.07499998 -0.125 0.125 -0.125 -0.125 0.125 -0.115 -0.125 -0.375 -0.115 -0.115 0.125 -0.125 -0.115 -0.375 -0.125 -0.115 -0.375 -0.07499998 -0.115 0.125 -0.115 -0.115 -0.375 -0.115 -0.125 0.115 -0.125 -0.125 0.115 -0.07499998 -0.115 0.115 -0.07499998 -0.115 0.115 -0.125 -0.125 0.115 -0.115 -0.115 0.115 -0.115 -0.115 -0.125 -0.07499998 -0.125 -0.125 -0.125 -0.125 -0.375 -0.08499997 -0.115 -0.375 -0.08499997 -0.115 0.115 -0.08499997 -0.125 0.115 -0.08499997 -0.125 0.125 -0.08499997 -0.115 0.125 -0.08499997 -0.115 -0.125 -0.125 -0.115 -0.125 -0.115 -0.125 -0.125 -0.07499998 -0.125 -0.125 -0.115 -0.125 -0.125 -0.08499997 -0.115 -0.125 -0.08499997 -0.1149999 -0.3249999 0.02499997 -0.1249999 -0.3249999 0.02499997 -0.125 -0.275 -0.125 0.375 0.1250004 -0.125 -0.115 -0.275 -0.125 -0.115 -0.275 -0.115 -0.125 -0.275 -0.07499998 -0.125 -0.275 -0.115 -0.125 -0.275 -0.08499997 -0.115 -0.275 -0.08499997 -0.1149999 -0.275 0.02499997 -0.1249999 -0.275 0.02499997 -0.125 -0.365 -0.125 0.375 -0.3749996 -0.125 -0.115 -0.365 -0.125 -0.115 -0.365 -0.115 -0.1149999 -0.3149999 0.02499997 -0.125 -0.365 -0.07499998 -0.125 -0.365 -0.115 -0.125 -0.365 -0.08499997 -0.115 -0.365 -0.08499997 -0.1249999 -0.3149999 0.02499997 -0.1149997 -0.375 0.375 -0.1249997 -0.375 0.375 -0.1149997 -0.365 0.375 -0.1249997 -0.365 0.375 -0.1249997 -0.325 0.375 -0.1149997 -0.325 0.375 -0.08671569 0.125 -0.125 -0.105 -0.375 -0.125 -0.105 -0.375 -0.115 -0.105 0.115 -0.125 -0.105 -0.125 -0.115 -0.105 -0.125 -0.125 -0.105 -0.275 -0.115 -0.105 -0.275 -0.125 -0.105 -0.365 -0.115 -0.105 -0.365 -0.125 -0.1249998 -0.3164285 0.03499996 -0.1249998 -0.3635714 0.365 -0.1249998 -0.3235715 0.365 -0.1249998 -0.2764286 0.03499996 -0.1149998 -0.2764286 0.03499996 -0.1149998 -0.3235715 0.365 -0.1149998 -0.3635714 0.365 -0.1149998 -0.3164285 0.03499996 -0.1149998 -0.3264285 0.03499996 -0.1149998 -0.3735713 0.365 -0.1249998 -0.3735713 0.365 -0.1249998 -0.3264285 0.03499996 -0.1049997 -0.3649999 0.375 -0.1049999 -0.3149999 0.02499991 -0.1049997 -0.3749999 0.375 -0.1049999 -0.3249999 0.02499991 -0.1049998 -0.3735713 0.365 -0.1049998 -0.3264285 0.0349999 -0.1049998 -0.3164285 0.0349999 -0.1049998 -0.3635714 0.365 -0.1149999 -0.275 -0.07499998 -0.1149999 -0.365 -0.07499998 0.375 -0.375 -0.07499998 0.375 0.125 -0.115 0.375 -0.375 -0.115 -0.04499995 0.125 -0.125 0.365 0.125 -0.125 0.365 -0.375 -0.125 -0.04499995 -0.375 -0.125 0.365 -0.375 -0.07499998 0.365 0.125 -0.115 -0.04499995 -0.375 -0.115 0.365 -0.375 -0.115 0.375 0.1150004 -0.125 0.375 0.115 -0.07499998 0.365 0.115 -0.07499998 0.365 0.115 -0.125 -0.04499995 0.115 -0.125 0.375 0.115 -0.115 0.365 0.115 -0.115 0.365 -0.125 -0.07499998 0.375 -0.1249996 -0.125 0.375 -0.375 -0.08499997 0.365 -0.375 -0.08499997 0.365 0.115 -0.08499997 0.375 0.115 -0.08499997 0.375 0.125 -0.08499997 0.365 0.125 -0.08499997 0.365 -0.125 -0.125 -0.04499995 -0.125 -0.125 0.365 -0.125 -0.115 0.375 -0.1250001 -0.07499998 0.375 -0.125 -0.115 0.375 -0.125 -0.08499997 0.365 -0.125 -0.08499997 0.3649999 -0.3249999 0.02499997 0.375 -0.3249999 0.02499997 0.375 -0.2749996 -0.125 0.365 -0.275 -0.125 -0.04499995 -0.275 -0.125 -0.04499995 -0.275 -0.115 0.365 -0.275 -0.115 0.375 -0.275 -0.07499998 0.375 -0.275 -0.115 0.375 -0.275 -0.08499997 0.365 -0.275 -0.08499997 0.3649999 -0.275 0.02499997 0.375 -0.275 0.02499997 0.375 -0.3649996 -0.125 0.365 -0.365 -0.125 -0.04499995 -0.365 -0.125 -0.04499995 -0.365 -0.115 0.365 -0.365 -0.115 0.3649999 -0.3149999 0.02499997 0.375 -0.365 -0.07499998 0.375 -0.365 -0.115 0.375 -0.365 -0.08499997 0.365 -0.365 -0.08499997 0.375 -0.3149999 0.02499997 0.3649998 -0.375 0.375 0.3749998 -0.375 0.375 0.3649998 -0.365 0.375 0.3749998 -0.365 0.375 0.3749998 -0.325 0.375 0.3649998 -0.325 0.375 0.3367157 0.125 -0.125 0.355 -0.375 -0.125 0.355 -0.375 -0.115 0.355 0.115 -0.125 0.355 -0.125 -0.115 0.355 -0.125 -0.125 0.355 -0.275 -0.115 0.355 -0.275 -0.125 0.355 -0.365 -0.115 0.355 -0.365 -0.125 0.3749999 -0.3164285 0.03499996 0.3749998 -0.3635714 0.365 0.3749998 -0.3235715 0.365 0.3749999 -0.2764286 0.03499996 0.3649999 -0.2764286 0.03499996 0.3649998 -0.3235715 0.365 0.3649998 -0.3635714 0.365 0.3649999 -0.3164285 0.03499996 0.3649999 -0.3264285 0.03499996 0.3649998 -0.3735713 0.365 0.3749998 -0.3735713 0.365 0.3749999 -0.3264285 0.03499996 0.3549998 -0.3649999 0.375 0.3549999 -0.3149999 0.02499991 0.3549998 -0.3749999 0.375 0.3549999 -0.3249999 0.02499991 0.3549998 -0.3735713 0.365 0.3549999 -0.3264285 0.0349999 0.3549998 -0.3164285 0.0349999 0.3549998 -0.3635714 0.365 0.3649999 -0.275 -0.07499998 0.3649999 -0.365 -0.07499998 0.3249998 -0.2711288 0.3479014 0.3549998 -0.3050699 0.3733573 0.3249999 -0.2324712 0.07729834 0.3549998 -0.2579271 0.04335725 -0.07499986 -0.2324712 0.07729834 -0.1049998 -0.2579271 0.04335725 -0.0749998 -0.2711288 0.3479014 -0.1049998 -0.3050699 0.3733573 -0.105 0.135 -0.05690169 -0.04499995 -0.1500034 -0.03499996 -0.04499995 0.145 -0.09499996 -0.08671569 0.125 -0.115 0.3367157 0.125 -0.115 -0.09499996 -0.1500034 -0.03499996 -0.105 -0.1500034 -0.04500001 -0.105 0.115 -0.03499996 -0.04499995 0.145 -0.04672878 -0.04499995 0.125 -0.115 0.355 -0.1500034 -0.04500001 0.345 -0.1500034 -0.03499996 -0.04499995 0.115 -0.115 -0.04499995 0.1232712 -0.02499997 -0.04499995 -0.275 -0.03499996 -0.04499995 -0.2650001 -0.02499997 -0.105 -0.275 -0.03499996 -0.09499996 -0.2650001 -0.02499997 0.345 -0.2650001 -0.02499997 0.355 -0.275 -0.03499996 -0.09499996 0.123202 -0.02499997 -0.09499996 0.145 -0.04679793 -0.105 0.135 -0.09499996 -0.105 0.115 -0.115 -0.09499996 0.145 -0.09499996 0.355 0.135 -0.05690169 0.355 0.115 -0.03499996 0.345 0.145 -0.04679793 0.345 0.123202 -0.02499997 0.345 0.145 -0.09499996 0.355 0.115 -0.115 0.355 0.135 -0.09499996 0.295 -0.375 -0.125 0.295 -0.275 -0.115 0.295 -0.365 -0.115 0.295 0.125 -0.125 0.295 -0.375 -0.115 0.295 0.115 -0.125 0.295 -0.125 -0.125 0.295 -0.275 -0.125 0.295 -0.365 -0.125 0.295 -0.1500034 -0.03499996 0.295 -0.275 -0.03499996 0.295 -0.2650001 -0.02499997 0.295 0.145 -0.04676336 0.295 0.1232366 -0.02499997 0.295 0.145 -0.09499996 0.295 0.115 -0.115 0.295 0.125 -0.115 -0.125 -0.1000018 -0.07499998 -0.125 -0.1000018 -0.115 -0.115 -0.1000019 -0.125 -0.115 -0.1000019 -0.07499998 -0.125 -0.1000019 -0.125 -0.125 -0.1000018 -0.08499997 -0.115 -0.1000018 -0.08499997 -0.115 -0.1000019 -0.115 -0.105 -0.1000019 -0.125 0.375 -0.1000019 -0.07499998 -0.04499995 -0.1000018 -0.125 0.375 -0.1000018 -0.115 0.365 -0.1000019 -0.125 0.365 -0.1000019 -0.07499998 0.375 -0.1000014 -0.125 0.375 -0.1000018 -0.08499997 0.365 -0.1000018 -0.08499997 0.365 -0.1000019 -0.115 0.355 -0.1000019 -0.125 0.355 -0.1000019 -0.115 -0.105 -0.1000019 -0.115 -0.105 -0.07500529 -0.04499995 0.345 -0.07500529 -0.03499996 0.355 -0.07500529 -0.04499995 -0.04499995 -0.07497072 -0.03499996 -0.09499996 -0.07500529 -0.03499996 0.295 -0.07498764 -0.03499996 0.295 -0.1000018 -0.125</float_array>
          <technique_common>
            <accessor source="#Cube-mesh-positions-array" count="414" stride="3">
              <param name="X" type="float"/>
              <param name="Y" type="float"/>
              <param name="Z" type="float"/>
            </accessor>
          </technique_common>
        </source>
        <source id="Cube-mesh-normals">
          <float_array id="Cube-mesh-normals-array" count="2508">-1.81138e-7 0.8562092 0.5166293 -1.96432e-7 0.3890203 -0.9212292 -0.6546535 0.7394104 0.1571662 -0.5000001 0.2676165 0.823639 -0.654654 0.5058143 -0.5617651 0.6546533 0.7394108 0.1571651 -0.6546549 0.5058133 -0.561765 0.6546536 0.5058156 -0.5617646 9.82255e-7 -0.3090174 -0.9510564 -0.4999998 -0.2676158 -0.8236395 0.6546518 0.505817 -0.5617653 -0.6546552 0.7394083 0.1571683 0 0.3090186 0.951056 0.6546528 0.7394109 0.1571659 -0.6546547 0.5058147 -0.5617641 0.6546523 0.7394117 0.1571649 0.8660255 0.15451 0.4755275 0.6546548 0.5058131 -0.5617653 0.654655 0.5058137 -0.5617645 -0.6546533 0.7394106 0.157166 -0.6546521 0.7394116 0.1571655 -0.654654 0.7394096 0.1571672 0.6546547 0.5058136 -0.5617651 0.8660262 0.1545075 0.4755271 -0.6546536 0.5058153 -0.5617648 -0.6546545 -0.5058131 0.5617657 -0.8660254 -0.1545079 -0.4755285 0.4999995 0.2676181 0.8236389 0.6546534 0.5058159 -0.5617645 0.6546555 -0.5058149 0.5617629 -2.86005e-7 0.3890157 -0.9212312 0.8660255 -0.154509 -0.4755279 -1.84189e-6 -0.3090182 -0.9510562 0 0.9510564 -0.3090173 0.5 -0.2676173 -0.8236389 -0.866026 0.1545094 0.4755269 -0.8660257 0.1545091 0.4755275 0 0.9510564 -0.3090172 -0.6546525 0.5058159 -0.5617654 1 0 3.6365e-7 -2.56615e-7 0.8562065 0.5166336 -7.15011e-7 0.38902 -0.9212293 0 0.8562077 0.5166319 -0.6546545 0.5058139 -0.561765 0.6546527 0.7394112 0.1571654 -2.88773e-7 0.3890177 -0.9212304 0 0.8562065 0.5166337 0 0.38902 -0.9212293 0.6546544 0.7394093 0.1571668 -4.67511e-7 0.8562064 0.5166339 0 0.8562074 0.5166322 -1 0 -3.6365e-7 0 0.9510565 -0.3090172 0 0.8562074 0.5166322 -3.22997e-7 -0.3890192 0.9212297 4.02219e-7 -0.8562072 -0.5166326 0.6546531 -0.505816 0.5617647 0.4999995 0.2676147 0.82364 0.654654 -0.7394096 -0.1571674 -0.6546524 -0.5058151 0.5617664 0.6546543 -0.7394095 -0.157167 0 -0.9510564 0.3090171 -0.6546537 -0.7394099 -0.1571667 -2.29193e-6 -0.3090174 -0.9510564 0.5 -0.2676149 -0.8236396 -0.6546536 -0.7394099 -0.1571671 0.6546533 -0.5058153 0.5617649 0 0.3090151 0.9510571 0 -0.4539893 0.8910071 0.6123724 -0.7817525 -0.1177417 -0.6123715 -0.7817533 -0.1177412 -0.6123716 -0.5632451 0.5547577 0 -0.8910065 -0.4539906 0.612373 -0.5632445 0.5547567 -0.6123681 -0.5632411 0.5547656 6.63853e-6 -0.8910077 -0.4539881 -0.6123738 -0.5632473 0.554753 0.6123691 -0.5632441 0.5547614 0.6123762 -0.5632469 0.5547507 -1.57031e-5 -0.8910065 -0.4539906 -0.6546533 -0.5058159 0.5617644 0.6546547 -0.7394092 -0.1571662 -0.6546528 -0.5058166 0.5617644 -0.8660258 0.1545071 0.4755279 -0.6546537 -0.7394099 -0.1571671 -0.6546544 -0.7394093 -0.157167 0.654653 -0.5058166 0.5617641 0.6546527 -0.5058158 0.5617653 0.6546546 -0.5058137 0.5617651 -0.6546547 -0.7394092 -0.1571665 -0.8660268 0.1545079 0.4755257 0.6546535 -0.7394102 -0.1571666 0.6546546 0.7394087 0.1571687 0.8660253 -0.1545087 -0.4755284 -0.5000001 0.2676146 0.8236397 -0.6546536 -0.7394101 -0.1571664 -0.6546531 0.7394104 0.1571677 3.74007e-7 -0.8562073 -0.5166326 -0.8660253 -0.1545089 -0.4755282 1.84189e-6 -0.3090178 -0.9510563 -3.78071e-7 -0.9510562 0.3090181 -0.4999998 -0.267615 -0.8236397 0.8660256 0.1545074 0.4755282 0.866025 0.1545077 0.475529 5.71306e-7 -0.9510564 0.3090174 0.654656 -0.7394077 -0.1571682 -1 0 -3.6365e-7 4.57581e-7 -0.3890147 0.9212316 -3.84918e-7 -0.856209 -0.5166295 2.11543e-7 -0.3890166 0.9212307 0.6546537 -0.73941 -0.1571664 -0.6546522 -0.5058175 0.5617642 0 -0.856208 -0.5166313 -1.37503e-6 -0.3890147 0.9212316 -3.66673e-7 -0.8562085 -0.5166305 -0.654655 -0.5058133 0.5617647 9.16686e-7 -0.3890164 0.9212309 6.87513e-7 -0.3890171 0.9212306 1 0 3.6365e-7 -4.03274e-7 -0.9510565 0.3090168 -2.49589e-7 -0.389017 0.9212306 0 -0.9510564 0.3090171 0 -0.6324073 -0.7746361 0.8660255 -0.1545079 -0.4755283 -0.8660259 0.1545077 0.4755275 -0.8660256 -0.1545089 -0.4755278 1.00044e-6 -0.3090178 -0.9510563 0.8660264 0.1545079 0.4755267 0 0.3090161 0.9510568 0 -0.3090165 -0.9510567 0.866025 0.1545087 0.475529 -0.8660256 0.1545084 0.4755279 -0.8660251 0.1545086 0.4755288 4.24697e-7 -0.3090165 -0.9510567 0.8660255 0.1545079 0.4755282 -1 0 0 1 0 0 0 0.3090169 0.9510565 0 -1.19209e-7 -1 0 1 0 1 0 0 0 0.309017 0.9510565 -1 0 0 1 0 0 0 1 0 0 -1 0 0 -1 0 -1 0 0 5.16605e-7 0.5547003 0.8320503 0 1 0 0 0 -1 0 0 -1 0 -1 0 1 0 0 -7.45057e-7 0 1 1 0 0 -2.63418e-7 4.81641e-7 1 0 0 -1 0 0 -1 -1 0 0 -1 0 0 -1 0 0 5.14488e-7 0.7071071 0.7071065 -1 0 0 -1 0 0 1 -7.45059e-6 -7.45058e-6 1 0 0 0 -1 0 0 1 0 -1 0 0 -1 0 0 -1 0 0 1 0 0 -7.45057e-7 0 1 0 0 -1 0 0 -1 7.45058e-7 0 1 1 0 -5.21541e-6 1 4.96705e-7 0 4.165e-7 -0.894427 0.4472141 -1 0 7.45058e-7 -1 0 7.45058e-7 1 0 0 -1 0 0 -1 0 0 -1 0 0 1 4.96705e-7 0 1 0 0 -7.45057e-7 0 1 0 0 -1 0 0 -1 -1 0 0 -1 0 0 -1 0 0 1 -7.45059e-6 2.98024e-6 -1 0 7.45058e-7 -1 1.86265e-7 5.24202e-6 1 0 -7.45058e-6 1 0 0 -7.45057e-7 0 1 0 0 -1 0 0 -1 0 0 1 0 0 1 0 -0.9899486 -0.1414275 0 0.9899495 0.1414217 -1 -7.45059e-7 5.85403e-6 0 -0.9899495 -0.1414216 0 0 -1 0 0.9899494 0.1414217 0 -0.9899495 -0.1414213 0 0 1 0 0 1 0 0 -1 0 0 -1 0 0 -1 -1 0 0 0 0 1 0 -1 0 0 0 -1 0 1 0 0 0.9899495 0.1414217 0 0.6000003 0.7999997 0 -0.9899494 -0.1414217 0 0.9899495 0.1414213 -1 0 5.21541e-6 -1 -7.45059e-7 0 0 0.9899495 0.1414215 0 0.9899495 0.1414213 0 -0.9899495 -0.1414216 0 -0.9899495 -0.1414213 -1 0 5.96047e-6 -1 1.86265e-7 1.84652e-7 1 0 -5.21541e-6 1 0 -1.8062e-7 2.79383e-7 0.9899496 0.1414213 7.92312e-7 0.9899495 0.1414217 2.10735e-6 -0.9899495 -0.1414213 2.10734e-6 -0.9899495 -0.1414217 -5.58794e-6 0 -1 -8.42939e-7 -0.9899495 -0.1414215 5.96047e-6 0 1 -2.10683e-6 0.9899495 0.1414217 -1 0 0 0 1 0 4.17233e-5 -1 0 0 -1 0 1 0 0 2.68635e-6 0.5547003 0.8320503 -4.32134e-5 1 4.32134e-5 0 0 -1 0 0 -1 0 -1 0 -1 0 0 7.45057e-7 0 1 -1 0 0 2.63417e-7 4.81641e-7 1 0 0 -1 0 0 -1 1 0 0 1 0 0 1 0 0 -5.26836e-7 0.7071071 0.7071066 1 0 0 1 0 0 -1 -8.94071e-6 -8.9407e-6 -1 0 0 0 -1 0 0 1 0 1 0 0 1 0 0 1 0 0 -1 0 0 7.45057e-7 0 1 0 0 -1 0 0 -1 -7.45059e-7 0 1 -1 0 -5.96047e-6 -1 5.96046e-7 0 -3.33201e-7 -0.894427 0.4472141 1 0 5.96046e-7 1 0 5.96046e-7 -1 0 0 1 0 0 1 0 0 1 0 0 -1 5.96046e-7 0 -1 0 0 7.45057e-7 0 1 0 0 -1 0 0 -1 1 0 0 1 0 0 1 0 0 -1 -8.94071e-6 3.57629e-6 1 0 5.96046e-7 1 0 5.96047e-6 -1 0 -8.9407e-6 -1 0 0 7.45057e-7 0 1 0 0 -1 0 0 -1 0 0 1 0 0 1 0 -0.9899486 -0.1414275 0 0.9899495 0.1414217 1 0 5.96047e-6 0 0 -1 0 0 1 0 0 -1 0 0 -1 0 0 -1 0 0 1 0 -1 0 0 0 -1 0 1 0 1 0 5.96046e-6 1 0 1.8062e-7 0 0.9899495 0.1414216 0 0.9899495 0.1414213 0 -0.9899495 -0.1414216 0 -0.9899495 -0.1414213 1 0 5.96046e-6 1 0 1.8062e-7 -1 0 -2.98023e-6 -1 0 -1.8062e-7 2.10734e-6 0.9899495 0.1414213 -8.42938e-7 0.9899495 0.1414217 -2.23506e-6 -0.9899495 -0.1414213 -2.10683e-6 -0.9899495 -0.1414217 5.96047e-6 0 -1 8.37329e-7 -0.9899495 -0.1414215 -5.96047e-6 0 1 2.10734e-6 0.9899495 0.1414217 0 0.1414213 -0.9899495 1 0 0 -1 0 1.54882e-7 0 0.8 -0.6000002 0 -0.1414213 0.9899495 0.7071067 0.7000002 0.1 -0.7071067 0.7000001 0.1 0 1 0 1 0 0 1 0 0 -9.77806e-4 0.7071063 0.7071065 0 0.08663213 0.9962404 0 0.08663213 0.9962404 0 0 -1 -1 0 0 -0.707107 0.7071065 0 -0.7896678 0.4338345 0.4338344 0 0 -1 0.7326802 0.0542739 0.6784055 3.48438e-5 -0.05038809 0.9987297 -2.46664e-7 0.7071068 -0.7071068 0 -1 0 -0.5 0.4999997 -0.707107 0.7071073 0.7071062 0 -2.50848e-6 -0.0503838 0.99873 -0.7057739 0.06137341 0.7057737 -0.7066175 -0.0371893 0.7066177 0.7071071 0 0.7071065 0 -0.7071072 0.7071064 0 -0.7071072 0.7071064 0 -1 0 0.3606956 0.6595069 -0.6595069 0.789668 0.4338343 0.4338343 7.19047e-5 0.7071067 0.7071068 0 0.7071065 -0.7071071 0 1 0 1 0 0 -1 0 0 0 1 0 0 0.7071065 -0.707107 4.89008e-4 0.7071068 0.7071067 0 -1 0 0 -0.7071072 0.7071064 -1.7795e-5 -0.05038809 0.9987297 0 0 -1 0 0.08663213 0.9962404 0 -1 0 0 0 1 0 0 1 0 0 -1 0 0 -1 0 0 -1 0 0 -1 0 0 -1 0 1 0 0 0 -1 0 0 1 1 0 0 0.6915547 -0.03639656 0.7214066 -0.7071069 0 0.7071067 0 0 1 0 0 1 -1 0 0 0 0 -1 -7.45059e-7 0 1 0 0 -1 0 0 -1 7.45057e-7 0 1 -1 0 0 1 0 0 1 0 0 1 0 0 -1 0 0 0 0 -1 7.45058e-7 0 1 0 0 -1 0 0 -1 -7.45057e-7 0 1 1 0 0 -1 0 0 -1 0 0 -1 0 0 1 0 0 0 0 -1 3.75405e-7 0.8562074 0.5166321 1.22009e-7 0.3890174 -0.9212304 -0.6546519 0.7394118 0.1571658 -0.5 0.2676182 0.8236386 -0.6546542 0.5058141 -0.5617651 0.6546534 0.7394106 0.1571649 -0.6546549 0.5058133 -0.561765 0.6546519 0.5058174 -0.5617647 1.84189e-6 -0.3090182 -0.9510562 -0.4999997 -0.2676167 -0.8236392 0.654655 0.5058135 -0.5617647 -0.6546531 0.7394106 0.1571659 0 0.3090186 0.951056 0.6546527 0.7394111 0.1571658 -0.654655 0.5058134 -0.5617648 0.6546527 0.7394111 0.1571661 0.8660251 0.1545094 0.4755285 0.6546534 0.5058147 -0.5617655 0.654655 0.5058137 -0.5617645 -0.654653 0.7394109 0.1571654 -0.6546532 0.7394108 0.1571651 -0.6546542 0.7394095 0.1571674 0.6546542 0.5058152 -0.561764 0.8660266 0.1545066 0.4755267 -0.6546542 0.5058141 -0.5617651 -0.6546537 -0.5058159 0.561764 -0.8660255 -0.154509 -0.4755279 0.5000001 0.2676129 0.8236403 0.654653 0.5058167 -0.5617642 0.6546534 -0.5058164 0.5617639 -1.96106e-7 0.3890148 -0.9212316 0.8660253 -0.1545079 -0.4755285 -9.92483e-7 -0.3090174 -0.9510564 2.35244e-7 0.9510567 -0.3090164 0.4999998 -0.2676196 -0.8236383 -0.8660268 0.1545072 0.475526 -0.8660249 0.1545079 0.4755294 -2.35244e-7 0.9510567 -0.3090164 -0.6546542 0.505814 -0.5617651 1 5.27897e-6 -2.07708e-6 -5.51596e-7 0.8562073 0.5166326 0 0.3890196 -0.9212296 -4.69256e-7 0.8562065 0.5166337 -0.6546534 0.5058156 -0.5617645 0.6546512 0.7394127 0.1571643 5.4439e-7 0.3890196 -0.9212296 0 0.8562065 0.5166338 0 0.38902 -0.9212293 0.6546552 0.7394084 0.1571679 -1.39972e-7 0.8562071 0.5166327 3.84921e-7 0.8562071 0.5166327 -1 -3.44552e-6 1.20998e-6 0 0.9510565 -0.3090171 -2.56613e-7 0.856208 0.5166313 -2.88773e-7 -0.3890194 0.9212296 3.14722e-7 -0.8562077 -0.5166318 0.6546523 -0.5058167 0.561765 0.4999999 0.267618 0.8236387 0.6546546 -0.7394089 -0.1571679 -0.6546525 -0.5058172 0.5617642 0.6546546 -0.739409 -0.1571677 0 -0.951052 0.3090312 -1.22611e-5 -0.9510589 0.3090098 0 -0.9510519 0.3090312 0 -0.9510564 0.3090173 0 -0.9510564 0.3090173 1.22611e-5 -0.9510589 0.3090097 0 -0.9510565 0.3090171 1.67655e-5 -0.9510595 0.309008 -1.67656e-5 -0.9510595 0.309008 -0.6546527 -0.7394111 -0.1571661 -1.84189e-6 -0.3090178 -0.9510563 0.5000003 -0.2676174 -0.8236387 -0.6546552 -0.7394085 -0.1571678 0.6546542 -0.5058143 0.561765 0 0.3090151 0.9510571 0 -0.4539893 0.8910071 0.6123722 -0.7817527 -0.1177413 -0.6123725 -0.7817525 -0.1177415 -0.6123734 -0.563244 0.5547567 0 -0.8910065 -0.4539906 0.6123725 -0.5632449 0.5547569 -0.6123698 -0.563244 0.5547606 1.57069e-5 -0.8910065 -0.4539905 -0.6123759 -0.5632475 0.5547507 0.6123676 -0.5632417 0.5547655 0.6123737 -0.5632467 0.5547537 -6.63853e-6 -0.8910077 -0.4539881 -0.6546521 -0.505817 0.5617648 0.6546549 -0.7394088 -0.1571671 -0.6546533 -0.5058155 0.561765 -0.8660257 0.1545073 0.475528 -0.6546539 -0.7394099 -0.1571672 -0.654654 -0.7394098 -0.1571664 0.6546533 -0.5058161 0.5617644 0.6546528 -0.5058169 0.5617642 0.654654 -0.5058143 0.5617651 -0.6546543 -0.7394096 -0.1571665 -0.8660263 0.1545071 0.4755272 0.6546537 -0.7394101 -0.1571668 0.6546541 0.7394099 0.1571658 0.8660253 -0.1545089 -0.4755282 -0.5000001 0.2676145 0.8236397 -0.6546536 -0.7394102 -0.1571663 -0.6546562 0.7394076 0.1571677 4.02219e-7 -0.8562074 -0.5166323 -0.8660253 -0.1545087 -0.4755284 2.30236e-6 -0.3090174 -0.9510564 0 -0.9510565 0.309017 -0.5 -0.2676162 -0.8236393 0.8660263 0.1545082 0.4755268 0.8660252 0.1545074 0.475529 0 -0.9510565 0.309017 0.6546533 -0.7394104 -0.1571668 -1 1.77097e-7 -4.19379e-7 6.66401e-7 -0.3890156 0.9212312 3.84919e-7 -0.8562088 -0.51663 9.15162e-7 -0.3890137 0.921232 0.6546531 -0.7394109 -0.1571654 -0.654654 -0.5058149 0.5617647 -8.66316e-7 -0.8562091 -0.5166295 -6.86371e-7 -0.3890138 0.921232 0 -0.8562088 -0.5166299 -0.654654 -0.505815 0.5617645 0 -0.3890199 0.9212294 -1.37274e-6 -0.3890199 0.9212294 1 -1.50573e-6 6.70161e-7 0 -0.9510565 0.3090169 4.5758e-7 -0.3890197 0.9212294 0 -0.9510564 0.3090171 0 -0.6324073 -0.7746361 0.8660256 -0.1545088 -0.4755278 -0.8660258 0.1545082 0.4755278 -0.8660255 -0.1545079 -0.4755283 -4.24697e-7 -0.3090165 -0.9510567 0.8660266 0.1545073 0.4755265 0 0.3090161 0.9510568 0 -0.3090165 -0.9510567 0.866025 0.1545087 0.475529 -0.8660256 0.1545083 0.4755279 -0.8660249 0.1545083 0.4755293 -9.9248e-7 -0.3090178 -0.9510563 0.8660258 0.1545082 0.4755277 -1 0 0 1 0 0 0 0.3090169 0.9510565 0 -1.19209e-7 -1 0 1 0 1 0 0 0 0.309017 0.9510565 -1 0 0 1 0 0 -3.57207e-7 1 -1.49012e-6 0 -1 0 0 -1 0 -1 0 0 6.19926e-7 0.5547003 0.8320503 0 1 0 0 0 -1 0 0 -1 0 -1 0 1 0 0 -7.45058e-7 0 1 1 0 0 -7.45057e-7 0 1 0 0 -1 0 0 -1 -1 0 0 -1 0 0 5.26835e-7 0.7071071 0.7071065 -1 0 0 -1 0 0 1 0 0 0 -1 0 0 1 0 -1 0 0 -1 0 0 -1 0 0 1 0 0 -7.45057e-7 0 1 0 0 -1 0 0 -1 7.45058e-7 0 1 1 0 -5.21541e-6 3.33201e-7 -0.894427 0.4472141 -1 0 7.45058e-7 1 0 0 -1 0 0 -1 0 0 -1 0 0 1 0 -7.45058e-6 1 0 0 -7.45057e-7 0 1 0 0 -1 0 0 -1 -1 0 0 -1 0 0 -1 0 0 1 0 0 -1 0 7.45058e-7 -1 0 5.96047e-6 1 0 -7.45058e-6 1 0 0 -7.45057e-7 0 1 0 0 -1 0 0 -1 0 0 1 0 0 1 5.90056e-6 -0.9899495 -0.1414217 0 0.9899495 0.1414217 -1 0 5.21541e-6 0 -0.9899494 -0.1414216 0 0 -1 0 0.9899495 0.1414217 0 -0.9899495 -0.1414213 0 0 1 0 0 1 0 0 -1 0 0 -1 0 0 -1 -1 0 0 0 0 1 0 -1 0 0 0 -1 0 1 0 0 0.9899494 0.1414217 0 0.6000003 0.7999997 0 -0.9899495 -0.1414217 0 0.9899495 0.1414213 -1 -7.45061e-7 5.85403e-6 -1 -7.45059e-7 0 0 0.9899495 0.1414216 0 0.9899495 0.1414213 0 -0.9899495 -0.1414215 0 -0.9899495 -0.1414213 -1 1.86265e-7 5.24201e-6 -1 1.86265e-7 1.84652e-7 1 0 -5.2154e-6 1 0 -1.8062e-7 -2.10734e-6 0.9899495 0.1414213 7.37572e-7 0.9899495 0.1414217 -8.42937e-7 -0.9899495 -0.1414213 2.10734e-6 -0.9899494 -0.1414217 -5.58794e-6 0 -1 -7.90256e-7 -0.9899495 -0.1414216 5.96047e-6 0 1 -2.10734e-6 0.9899495 0.1414217 -1 0 0 0 1 -1.49012e-6 0 -1 -4.17233e-5 0 -1 0 1 0 0 0 0.5547004 0.8320502 0 1 0 0 0 -1 0 0 -1 0 -1 0 -1 0 0 7.45057e-7 0 1 -1 0 0 7.45057e-7 0 1 0 0 -1 0 0 -1 1 0 0 1 0 0 -5.26836e-7 0.7071071 0.7071066 1 0 0 1 0 0 -1 0 0 0 -1 0 0 1 0 1 0 0 1 0 0 1 0 0 -1 0 0 7.45057e-7 0 1 0 0 -1 0 0 -1 -7.45059e-7 0 1 -1 0 -5.96047e-6 0 -0.894427 0.4472141 1 0 5.96046e-7 -1 0 0 1 0 0 1 0 0 1 0 0 -1 0 -8.9407e-6 -1 0 0 7.45057e-7 0 1 0 0 -1 0 0 -1 1 0 0 1 0 0 1 0 0 -1 0 0 1 0 5.96046e-7 1 0 5.96047e-6 -1 0 -8.9407e-6 -1 0 0 7.45057e-7 0 1 0 0 -1 0 0 -1 0 0 1 0 0 1 -5.90056e-6 -0.9899495 -0.1414217 0 0.9899495 0.1414217 1 0 5.96047e-6 0 0 -1 0 0 1 0 0 -1 0 0 -1 0 0 -1 0 0 1 0 -1 0 0 0 -1 0 1 0 1 0 5.96046e-6 1 0 1.8062e-7 0 0.9899495 0.1414215 0 0.9899495 0.1414213 0 -0.9899495 -0.1414215 0 -0.9899495 -0.1414213 1 0 5.96046e-6 1 0 1.8062e-7 -1 0 -2.98023e-6 -1 0 -1.8062e-7 -8.42935e-7 0.9899495 0.1414212 -8.4294e-7 0.9899495 0.1414217 8.42937e-7 -0.9899495 -0.1414213 -2.10734e-6 -0.9899495 -0.1414217 5.96047e-6 0 -1 8.42939e-7 -0.9899495 -0.1414215 -5.96047e-6 0 1 2.10734e-6 0.9899495 0.1414217 0 0.1414213 -0.9899495 1 0 0 -1 0 1.54882e-7 0 0.7999998 -0.6000001 0 -0.1414213 0.9899495 0.7071068 0.6999999 0.1 -0.7071069 0.6999999 0.1 0 1 0 1 0 0 1 0 0 -9.77965e-4 0.7071065 0.7071064 0 0.08663213 0.9962404 0 0.08663213 0.9962404 0 0 -1 -1 0 0 -0.707107 0.7071065 0 -0.817559 0.4252261 0.3883042 0 0 -1 0.7057742 0.06137335 0.7057734 6.9666e-5 -0.05037933 0.9987302 0 0.7071065 -0.7071071 0 -1 0 -0.3606958 0.6595069 -0.6595069 0.7071073 0.7071062 0 -5.1225e-6 -0.05037933 0.9987301 -0.73268 0.0542739 0.6784058 -0.6915544 -0.03639656 0.7214068 0.7071072 0 0.7071064 0 -0.7071072 0.7071064 0 -0.7071071 0.7071064 0 -1 0 0.5000001 0.4999993 -0.7071073 0.817559 0.4252259 0.3883042 7.18975e-5 0.7071067 0.7071069 0 0.7071068 -0.7071068 0 1 0 1 0 0 -1 0 0 0 1 0 0 0.7071065 -0.707107 4.88904e-4 0.7071067 0.7071068 0 -1 0 0 -0.7071072 0.7071064 -3.48361e-5 -0.0503838 0.9987299 0 0 -1 0 0.08663213 0.9962404 0 -1 0 0 0 1 0 0 1 0 0 -1 0 0 -1 0 0 -1 0 0 -1 0 0 -1 0 1 0 0 0 -1 0 0 1 1 0 0 0.706618 -0.0371893 0.7066174 -0.7071068 0 0.7071068 0 0 1 0 0 1 -1 0 0 0 0 -1 -7.45059e-7 0 1 0 0 -1 0 0 -1 7.45057e-7 0 1 -1 0 0 1 0 0 1 0 0 1 0 0 -1 0 0 0 0 -1 7.45058e-7 0 1 0 0 -1 0 0 -1 -7.45057e-7 0 1 1 0 0 -1 0 0 -1 0 0 -1 0 0 1 0 0 0 0 -1</float_array>
          <technique_common>
            <accessor source="#Cube-mesh-normals-array" count="836" stride="3">
              <param name="X" type="float"/>
              <param name="Y" type="float"/>
              <param name="Z" type="float"/>
            </accessor>
          </technique_common>
        </source>
        <source id="Cube-mesh-map-0">
          <float_array id="Cube-mesh-map-0-array" count="5016">0 0 0 0 0 0 0 0 0 0 0 0 0 0 0 0 0 0 0.5795453 0.25 0.375 0.25 0.375 0.25 0 0 0 0 0 0 0 0 0 0 0 0 0 0 0 0 0 0 0 0 0 0 0 0 0.9578461 0.1300001 0.9058845 0.1 0.9058845 0.1 0.5795453 0.25 0.375 0.25 0.375 0.25 0 0 0 0 0 0 0 0 0 0 0 0 0.5421539 0.3700001 0.75 0.4900001 0.75 0.4900001 0 0 0 0 0 0 0 0 0 0 0 0 0 0 0 0 0 0 0.75 0.4900001 0.8019616 0.4600001 0.8019616 0.4600001 0 0 0 0 0 0 0 0 0 0 0 0 0 0 0 0 0 0 0 0 0 0 0 0 0 0 0 0 0 0 0 0 0 0 0 0 0.9578461 0.3700001 0.9058845 0.4000001 0.9578461 0.3700001 0 0 0 0 0 0 0 0 0 0 0 0 0.542154 0.1300001 0.75 0.01000005 0.542154 0.1300001 0.375 0.5 0.5795454 0.5 0.375 0.5 0 0 0 0 0 0 0 0 0 0 0 0 0 0 0 0 0 0 0.9578461 0.3700001 0.9578461 0.1300001 0.9578461 0.1300001 0.75 0.01000005 0.8019616 0.04000002 0.75 0.01000005 0.375 0.5 0.6022725 0.25 0.6022726 0.5 0.375 0.5 0.5795454 0.5 0.375 0.5 0.542154 0.1300001 0.542154 0.1900001 0.542154 0.1900001 0.5421539 0.3700001 0.542154 0.3100001 0.5421539 0.3700001 0.6022726 0.5 0.375 0.25 0.6022725 0.25 0 0 0 0 0 0 0.5795453 0.25 0.375 0.25 0.375 0.25 0 0 0 0 0 0 0 0 0 0 0 0 0 0 0 0 0 0 0 0 0 0 0 0 0 0 0 0 0 0 0 0 0 0 0 0 0 0 0 0 0 0 0 0 0 0 0 0 0 0 0 0 0 0 0 0 0 0 0 0 0 0 0 0 0 0 0.375 0.5 0.5795454 0.5 0.375 0.5 0.375 0.5 0.6022725 0.25 0.6022726 0.5 0 0 0 0 0 0 0 0 0 0 0 0 0 0 0 0 0 0 0 0 0 0 0 0 0.5795453 0.25 0.375 0.25 0.375 0.25 0 0 0 0 0 0 0 0 0 0 0 0 0 0 0 0 0 0 0.8758846 0.3480386 0.8758845 0.1519615 0.602154 0.1900001 0 0 0 0 0 0 0.9578461 0.1300001 0.9058845 0.1 0.9058845 0.1 0.5795453 0.25 0.375 0.25 0.375 0.25 0 0 0 0 0 0 0 0 0 0 0 0 0.5421539 0.3700001 0.75 0.4900001 0.75 0.4900001 0.6021538 0.3353591 0.75 0.4900001 0.7500001 0.4207181 0.7499998 0.0792821 0.542154 0.1300001 0.6021539 0.164641 0.8978461 0.3353591 0.9578461 0.1300001 0.8978461 0.1646411 0.8758846 0.3480386 0.8019616 0.4600001 0.9058845 0.4000001 0.8758845 0.1519615 0.8019616 0.04000002 0.7719617 0.0919615 0.602154 0.1900001 0.542154 0.3100001 0.6021538 0.3100001 0.7500001 0.4207181 0.8019616 0.4600001 0.7719616 0.4080386 0.7499998 0.0792821 0.8019616 0.04000002 0.75 0.01000005 0.8978461 0.3353591 0.9058845 0.4000001 0.9578461 0.3700001 0.6021538 0.3353591 0.542154 0.3100001 0.5421539 0.3700001 0.6021539 0.164641 0.542154 0.1900001 0.602154 0.1900001 0.8978461 0.1646411 0.9058845 0.1 0.8758845 0.1519615 0 0 0 0 0 0 0 0 0 0 0 0 0 0 0 0 0 0 0.75 0.4900001 0.8019616 0.4600001 0.8019616 0.4600001 0 0 0 0 0 0 0 0 0 0 0 0 0 0 0 0 0 0 0 0 0 0 0 0 0 0 0 0 0 0 0 0 0 0 0 0 0.9578461 0.3700001 0.9058845 0.4000001 0.9578461 0.3700001 0 0 0 0 0 0 0 0 0 0 0 0 0.75 0.01000005 0.542154 0.1300001 0.542154 0.1300001 0.375 0.5 0.5795454 0.5 0.375 0.5 0 0 0 0 0 0 0 0 0 0 0 0 0 0 0 0 0 0 0.9578461 0.1300001 0.9578461 0.3700001 0.9578461 0.1300001 0.75 0.01000005 0.8019616 0.04000002 0.75 0.01000005 0.375 0.5 0.6022725 0.25 0.6022726 0.5 0.375 0.5 0.5795454 0.5 0.375 0.5 0.542154 0.1300001 0.542154 0.1900001 0.542154 0.1900001 0.5421539 0.3700001 0.542154 0.3100001 0.5421539 0.3700001 0.375 0.5 0.6022725 0.25 0.6022726 0.5 0 0 0 0 0 0 0.5795453 0.25 0.375 0.25 0.375 0.25 0 0 0 0 0 0 0 0 0 0 0 0 0 0 0 0 0 0 0 0 0 0 0 0 0 0 0 0 0 0 0 0 0 0 0 0 0 0 0 0 0 0 0 0 0 0 0 0 0 0 0 0 0 0 0 0 0 0 0 0 0 0 0 0 0 0 0.375 0.5 0.5795454 0.5 0.375 0.5 0.6022726 0.5 0.375 0.25 0.6022725 0.25 0 0 0 0 0 0 0.625 0.75 0.375 1 0.375 0.75 0.375 0.5 0.125 0.75 0.125 0.5 0.9578461 0.1300001 0.9578461 0.3700001 0.9578461 0.3700001 0.542154 0.1900001 0.542154 0.1300001 0.542154 0.1300001 0.75 0.01000005 0.542154 0.1300001 0.75 0.01000005 0.9058845 0.1 0.9578461 0.1300001 0.9578461 0.1300001 0.9058845 0.4000001 0.9578461 0.3700001 0.9058845 0.4000001 0.75 0.4900001 0.5421539 0.3700001 0.5421539 0.3700001 0.375 0.5 0.375 0.25 0.375 0.25 0.375 0.5 0.375 0.25 0.375 0.25 0.375 0.25 0.375 0.5 0.375 0.25 0.542154 0.3100001 0.5421539 0.3700001 0.542154 0.3100001 0.8019616 0.04000002 0.75 0.01000005 0.8019616 0.04000002 0.8019616 0.4600001 0.75 0.4900001 0.75 0.4900001 0.1875 0.625 0.375 0.25 0.4396612 0.2647696 0.375 0.5 0.625 0.5914077 0.625 0.6828153 0.875 0.6819103 0.625 0.5914077 0.875 0.5892714 0 0 1 0.5 1 0 0.25 0.4535953 0.75 0.6928569 0.75 0.4535953 0.375 0.75 0.625 0.6828153 0.625 0.75 0.875 0.6819103 0.625 0.75 0.625 0.6828153 0.4396612 0.2647696 0.375 0 0.625 0 0.7916666 0.6562499 0.7916666 0.6875 0.7916666 0.65625 0.5 0.3783124 0.375 0.4166666 0.375 0.375 0.5 0.9166666 0.375 1 0.375 0.9166666 0.625 0.9166666 0.5625 1 0.5625 0.9166666 0.5 0.125 0.375 0.25 0.375 0.125 0.875 0.6875 0.7916666 0.6875 0.7916666 0.6875 0.5 0.25 0.375 0.3333333 0.375 0.25 0.2083333 0.734375 0.125 0.75 0.125 0.734375 0.2916666 0.734375 0.25 0.75 0.25 0.7343751 0.5 0.8750001 0.375 0.9166666 0.375 0.875 0.7916666 0.625 0.7916666 0.5 0.7916666 0.5 0.7916666 0.734375 0.75 0.75 0.7500001 0.7343751 0.7916666 0.75 0.7916666 0.734375 0.7916666 0.734375 0.7916666 0.5 0.75 0.625 0.75 0.5 0.25 0.5 0.2916666 0.625 0.25 0.625 0.2083333 0.5 0.125 0.625 0.125 0.5 0.5625 0.185 0.625 0.245 0.546875 0.25 0.5 0.09375 0.375 0.125 0.375 0.09375 0.625 0.09375 0.5625 0.125 0.5625 0.09375 0.625 0.3333333 0.59375 0.25 0.625 0.25 0.5625 0.09375 0.5 0.125 0.5 0.09375 0.5625 0.185 0.5 0.25 0.5 0.125 0.7916666 0.75 0.7916666 0.734375 0.7916666 0.734375 0.7916666 0.5 0.7916666 0.625 0.7916666 0.625 0.5625 0.9166666 0.5 1 0.5 0.9166666 0.5 0.25 0.546875 0.3333333 0.5 0.3333333 0.5625 0.03125 0.5 0.0625 0.5 0.03125 0.6250001 0.03125 0.5625 0.0625 0.5625 0.03125 0.5 0.03125 0.375 0.0625 0.375 0.03125 0.7916666 0.6875 0.7916666 0.65625 0.7916666 0.65625 0.7916666 0.65625 0.75 0.6875 0.75 0.65625 0.25 0.65625 0.2916666 0.6875 0.25 0.6875 0.2083333 0.65625 0.125 0.6875 0.125 0.65625 0.7916666 0.6562499 0.875 0.6875 0.7916666 0.6875 0.7916667 0.734375 0.7916667 0.71875 0.7916666 0.734375 0.7916666 0.71875 0.7916666 0.6875 0.7916667 0.71875 0.625 0.9166666 0.625 1 0.625 1 0.625 0.015625 0.625 0 0.625 0.015625 0.625 0.0625 0.6250001 0.03125 0.625 0.0625 0.7916666 0.71875 0.7916666 0.734375 0.7916666 0.7287946 0.5 0.015625 0.375 0.03125 0.375 0.015625 0.625 0.015625 0.5625 0.03125 0.5625 0.015625 0.5625 0.015625 0.5 0.03125 0.5 0.015625 0.7916666 0.71875 0.7916666 0.6875 0.7916666 0.6875 0.7916666 0.71875 0.7916666 0.6875 0.7916666 0.6875 0.7916666 0.6875 0.75 0.71875 0.75 0.6875 0.2916666 0.6875 0.25 0.71875 0.25 0.6875 0.2083333 0.6875 0.125 0.71875 0.125 0.6875 0.5625 0 0.5 0.015625 0.5 0 0.625 0 0.5625 0.015625 0.5625 0 0.5 0 0.375 0.015625 0.375 0 0.7916666 0.734375 0.7916666 0.75 0.7916666 0.75 0.6250001 0.03125 0.625 0.015625 0.625 0.03125 0.625 0.015625 0.625 0.03125 0.625 0.03125 0.7916666 0.734375 0.7916666 0.71875 0.7916666 0.71875 0.7916666 0.734375 0.7916666 0.71875 0.7916666 0.71875 0.7916666 0.71875 0.7500001 0.7343751 0.75 0.71875 0.2916666 0.71875 0.25 0.7343751 0.25 0.71875 0.2083333 0.71875 0.125 0.734375 0.125 0.71875 0.875 0.734375 0.7916666 0.75 0.7916666 0.734375 0.875 0.71875 0.7916666 0.734375 0.7916667 0.71875 0.6249999 0.9166665 0.625 1 0.625 1 0.7916666 0.71875 0.875 0.71875 0.7916667 0.71875 0.625 0 0.625 0.015625 0.625 0.015625 0.625 0.9166665 0.625 0.9166666 0.625 0.9166665 0.25 0.71875 0.2083333 0.734375 0.2083333 0.71875 0.7916666 0.734375 0.7916666 0.734375 0.7916666 0.734375 0.625 0.9166666 0.625 0.9166665 0.625 0.9166666 0.7916666 0.734375 0.7916666 0.75 0.7916666 0.734375 0.75 0.71875 0.7083333 0.734375 0.7083333 0.71875 0.25 0.6875 0.2083333 0.71875 0.2083333 0.6875 0.25 0.65625 0.2083333 0.6875 0.2083333 0.65625 0.2083333 0.5 0.25 0.625 0.2083333 0.625 0.75 0.71875 0.75 0.6875 0.75 0.6875 0.7500001 0.7343751 0.7083333 0.75 0.7083333 0.734375 0.5 0.8333334 0.375 0.875 0.375 0.8333333 0.25 0.7343751 0.2083333 0.75 0.2083333 0.734375 0.5 0.3333333 0.375 0.375 0.375 0.3333333 0.7916666 0.734375 0.7916666 0.734375 0.7916666 0.734375 0.7916666 0.734375 0.7916666 0.734375 0.7916666 0.734375 0.625 0.9166666 0.625 0.9166666 0.625 0.9166666 0.7916666 0.734375 0.7916666 0.734375 0.7916666 0.7343751 0.625 0 0.625 0.015625 0.625 0.015625 0.625 0 0.625 0.015625 0.625 0.015625 0.7916667 0.71875 0.875 0.71875 0.7916665 0.7187499 0.875 0.71875 0.7916666 0.71875 0.7916665 0.7187499 0.625 0.9166666 0.625 1 0.625 1 0.625 0.9166666 0.625 1 0.625 1 0.625 0.015625 0.625 0.03125 0.625 0.03125 0.625 0.015625 0.625 0.03125 0.625 0.03125 0.7916666 0.734375 0.7916665 0.7187499 0.7916666 0.734375 0.7916666 0.734375 0.7916666 0.71875 0.7916667 0.734375 0.7916666 0.734375 0.7916666 0.734375 0.7916666 0.734375 0.7916666 0.734375 0.7916666 0.734375 0.7916666 0.734375 0.625 0.9166666 0.625 0.9166666 0.6249999 0.9166665 0.6249999 0.9166665 0.625 0.9166666 0.625 0.9166666 0.7916666 0.734375 0.7916666 0.75 0.7916666 0.75 0.625 0.9166666 0.625 0.9166665 0.625 0.9166666 0.7916666 0.734375 0.7916666 0.75 0.7916666 0.734375 0.7916667 0.734375 0.7916666 0.734375 0.7916666 0.734375 0.7916666 0.65625 0.7916666 0.6875 0.7916666 0.6875 0.375 0.4166666 0.5 0.3958333 0.375 0.3958333 0.375 1 0.5 0.9166666 0.375 0.9166666 0.5625 1 0.625 0.9166666 0.5625 0.9166666 0.375 0.125 0.5 0.25 0.5 0.125 0.7916666 0.6875 0.875 0.6875 0.7916666 0.6875 0.375 0.3333333 0.5 0.25 0.375 0.25 0.125 0.75 0.2083333 0.734375 0.125 0.734375 0.2708333 0.75 0.2916666 0.734375 0.2708333 0.734375 0.375 0.875 0.5 0.9166666 0.5 0.8750001 0.7916666 0.5 0.7916666 0.625 0.7916666 0.5 0.75 0.75 0.7916666 0.734375 0.7500001 0.7343751 0.7916666 0.734375 0.7916666 0.75 0.7916666 0.734375 0.75 0.625 0.7916666 0.5 0.75 0.5 0.2708333 0.625 0.2916666 0.5 0.2708333 0.5 0.125 0.625 0.2083333 0.5 0.125 0.5 0.5625 0.185 0.546875 0.25 0.625 0.245 0.375 0.09375 0.5 0.125 0.5 0.09375 0.5625 0.09375 0.625 0.125 0.625 0.09375 0.59375 0.25 0.625 0.3333333 0.625 0.25 0.5 0.125 0.5625 0.09375 0.5 0.09375 0.5 0.25 0.5625 0.185 0.5 0.125 0.7916666 0.734375 0.7916666 0.75 0.7916666 0.734375 0.7916666 0.5 0.7916666 0.625 0.7916666 0.625 0.5 1 0.5625 0.9166666 0.5 0.9166666 0.5 0.25 0.546875 0.3333333 0.546875 0.25 0.5 0.0625 0.5625 0.03125 0.5 0.03125 0.5625 0.03125 0.625 0.0625 0.6250001 0.03125 0.375 0.03125 0.5 0.0625 0.5 0.03125 0.7916666 0.65625 0.7916666 0.6875 0.7916666 0.65625 0.75 0.6875 0.7916666 0.65625 0.7500001 0.6562501 0.2708333 0.6875 0.2916666 0.65625 0.2708333 0.6562501 0.125 0.6875 0.2083333 0.65625 0.125 0.65625 0.7916666 0.6875 0.875 0.65625 0.7916666 0.65625 0.7916667 0.734375 0.7916667 0.71875 0.7916666 0.71875 0.7916666 0.71875 0.7916667 0.71875 0.7916666 0.6875 0.625 1 0.625 0.9166666 0.625 1 0.625 0.015625 0.625 0 0.625 0 0.625 0.0625 0.625 0.0625 0.6250001 0.03125 0.7916666 0.734375 0.7916666 0.71875 0.7916666 0.7287946 0.375 0.015625 0.5 0.03125 0.5 0.015625 0.5625 0.03125 0.625 0.015625 0.5625 0.015625 0.5 0.03125 0.5625 0.015625 0.5 0.015625 0.7916666 0.6875 0.7916666 0.71875 0.7916666 0.6875 0.7916666 0.6875 0.7916666 0.71875 0.7916666 0.6875 0.75 0.71875 0.7916666 0.6875 0.75 0.6875 0.2708333 0.71875 0.2916666 0.6875 0.2708333 0.6875 0.125 0.71875 0.2083333 0.6875 0.125 0.6875 0.5 0.015625 0.5625 0 0.5 0 0.5625 0.015625 0.625 0 0.5625 0 0.375 0 0.5 0.015625 0.5 0 0.7916666 0.75 0.7916666 0.734375 0.7916666 0.75 0.6250001 0.03125 0.625 0.015625 0.625 0.015625 0.625 0.03125 0.625 0.015625 0.625 0.03125 0.7916666 0.71875 0.7916666 0.734375 0.7916666 0.71875 0.7916666 0.71875 0.7916666 0.734375 0.7916666 0.71875 0.7500001 0.7343751 0.7916666 0.71875 0.75 0.71875 0.2708333 0.734375 0.2916666 0.71875 0.2708333 0.71875 0.125 0.734375 0.2083333 0.71875 0.125 0.71875 0.7916666 0.75 0.875 0.734375 0.7916666 0.734375 0.7916666 0.734375 0.875 0.71875 0.7916667 0.71875 0.625 1 0.6249999 0.9166665 0.625 1 0.7916666 0.71875 0.875 0.71875 0.875 0.71875 0.625 0.015625 0.625 0 0.625 0.015625 0.2083333 0.734375 0.25 0.71875 0.2083333 0.71875 0.7291667 0.734375 0.75 0.71875 0.7291666 0.71875 0.2083333 0.71875 0.25 0.6875 0.2083333 0.6875 0.2083333 0.6875 0.25 0.6562501 0.2083333 0.65625 0.2083333 0.5 0.25 0.625 0.25 0.5 0.7291666 0.75 0.7500001 0.7343751 0.7291667 0.734375 0.375 0.875 0.5 0.8541668 0.375 0.8541666 0.2083333 0.75 0.25 0.7343751 0.2083333 0.734375 0.375 0.375 0.5 0.3333333 0.375 0.3333333 0.625 0.015625 0.625 0 0.625 0.015625 0.625 0.015625 0.625 0 0.625 0.015625 0.7916667 0.71875 0.875 0.71875 0.875 0.71875 0.7916666 0.71875 0.875 0.71875 0.7916665 0.7187499 0.625 1 0.625 0.9166666 0.625 1 0.625 1 0.625 0.9166666 0.625 1 0.625 0.03125 0.625 0.015625 0.625 0.03125 0.625 0.03125 0.625 0.015625 0.625 0.03125 0.7916666 0.734375 0.7916665 0.7187499 0.7916667 0.71875 0.7916666 0.734375 0.7916666 0.71875 0.7916665 0.7187499 0.7916666 0.734375 0.7916666 0.734375 0.7916667 0.734375 0.7916666 0.734375 0.7916666 0.734375 0.7916666 0.734375 0.625 0.9166666 0.625 0.9166666 0.6249999 0.9166665 0.625 0.9166666 0.6249999 0.9166665 0.625 0.9166666 0.7916666 0.75 0.7916666 0.734375 0.7916666 0.75 0.625 0.9166665 0.625 0.9166666 0.625 0.9166666 0.7916666 0.734375 0.7916666 0.75 0.7916666 0.75 0.7916667 0.734375 0.7916666 0.734375 0.7916666 0.734375 0.7916666 0.734375 0.7916666 0.734375 0.7916666 0.734375 0.7916666 0.734375 0.7916666 0.734375 0.7916666 0.734375 0.7916666 0.734375 0.7916666 0.734375 0.7916666 0.734375 0.7916666 0.734375 0.7916666 0.7343751 0.7916666 0.734375 0.7916666 0.734375 0.7916666 0.734375 0.7916666 0.734375 0.7916666 0.734375 0.7916666 0.734375 0.7916666 0.734375 0.7916666 0.734375 0.7916666 0.734375 0.7916666 0.734375 0 0 0 0 0 0 0.75 0.71875 0.75 0.6875 0.75 0.71875 0.75 0.625 0.75 0.625 0.75 0.625 0 0 0 0 0 0 0.7481884 0.71875 0.7282608 0.71875 0.7282608 0.71875 0.7083333 0.71875 0.7481884 0.71875 0.7481884 0.71875 0.5 0.3958333 0.5 0.3783124 0.5 0.375 0.75 0.65625 0.75 0.625 0.75 0.65625 0.75 0.625 0.75 0.625 0.75 0.625 0.75 0.625 0.75 0.625 0.75 0.625 0.5000001 0.3783124 0.5 0.4166667 0.5 0.375 0.75 0.6875 0.75 0.7156251 0.75 0.71875 0 0 0 0 0 0 0.5000001 0.3783124 0.5 0.4166667 0.5 0.4166667 0.7083333 0.71875 0.75 0.71875 0.75 0.71875 0.75 0.625 0.75 0.625 0.75 0.625 0.75 0.625 0.75 0.625 0.75 0.625 0 0 0 0 0 0 0.75 0.6875 0.75 0.715625 0.75 0.6875 0 0 0.75 0.625 0.75 0.65625 0 0 0.7500001 0.6572917 0 0 0.7083333 0.71875 0.7481884 0.71875 0.75 0.71875 0.7291666 0.71875 0.7481884 0.71875 0.7282608 0.71875 0.75 0.71875 0.7291666 0.71875 0.7291666 0.71875 0.75 0.625 0.75 0.625 0.75 0.625 0.75 0.625 0.75 0.625 0.75 0.625 0 0 0 0 0 0 0.5 0.4166667 0.5 0.3967391 0.5 0.3974896 0 0 0 0 0 0 0.7500001 0.6572917 0.75 0.625 0.75 0.6270834 0.75 0.625 0.75 0.625 0.75 0.625 0 0 0 0 0 0 0.5 0.3783124 0.5 0.3967391 0.5 0.3768116 0 0 0 0 0 0 0.7291666 0.71875 0.7083332 0.71875 0.7083333 0.71875 0.7291666 0.71875 0.7083333 0.71875 0.7083332 0.71875 0 0 0 0 0 0 0.5 0.4166667 0.5 0.3958333 0.5 0.4166667 0.7282608 0.71875 0.7083333 0.71875 0.7083333 0.71875 0.375 0.8541666 0.5 0.8333334 0.375 0.8333333 0.7083333 0.75 0.7291667 0.734375 0.7083333 0.734375 0.7083333 0.734375 0.7291666 0.71875 0.7083333 0.71875 0.25 0.7343751 0.2708333 0.71875 0.25 0.71875 0.25 0.71875 0.2708333 0.6875 0.25 0.6875 0.25 0.6562501 0.2708333 0.6875 0.2708333 0.6562501 0.25 0.5 0.2708333 0.625 0.2708333 0.5 0.25 0.75 0.2708333 0.734375 0.25 0.7343751 0.375 0.3958333 0.5 0.375 0.375 0.375 0.25 0.6562501 0.2708333 0.625 0.25 0.625 0 0 0 0 0 0 0.75 0.6875 0.7500001 0.6572917 0.75 0.6875 0 0 0.75 0.6270834 0 0 0 0 0.75 0.65625 0.75 0.6875 0 0 0 0 0 0 0 0 0 0 0 0 0.75 0.6875 0.75 0.65625 0.75 0.65625 0.2083333 0.65625 0.25 0.625 0.2083333 0.625 0.7916666 0.65625 0.875 0.625 0.7916666 0.625 0.125 0.65625 0.2083333 0.625 0.125 0.625 0.2708333 0.6562501 0.2916666 0.625 0.2708333 0.625 0.7500001 0.6562501 0.7916666 0.625 0.75 0.625 0.7916666 0.625 0.7916666 0.65625 0.7916666 0.625 0.5 0.09375 0.5625 0.0625 0.5 0.0625 0.5625 0.0625 0.625 0.09375 0.625 0.0625 0.375 0.0625 0.5 0.09375 0.5 0.0625 0.7916666 0.625 0.7916666 0.65625 0.7916666 0.625 0.25 0.625 0.2083333 0.65625 0.2083333 0.625 0.875 0.625 0.7916666 0.6562499 0.7916666 0.625 0.2083333 0.625 0.125 0.65625 0.125 0.625 0.2916666 0.625 0.25 0.65625 0.25 0.625 0.7916666 0.625 0.75 0.65625 0.75 0.625 0.7916666 0.65625 0.7916666 0.625 0.7916666 0.625 0.5625 0.0625 0.5 0.09375 0.5 0.0625 0.625 0.0625 0.5625 0.09375 0.5625 0.0625 0.5 0.0625 0.375 0.09375 0.375 0.0625 0.7916666 0.6562499 0.7916666 0.625 0.7916666 0.625 0.7916666 0.75 0.7916666 0.734375 0.7916666 0.75 0 0 0 0 0 0 0 0 0 0 0 0 0 0 0 0 0 0 0.5795453 0.25 0.6022725 0.25 0.375 0.25 0 0 0 0 0 0 0 0 0 0 0 0 0 0 0 0 0 0 0 0 0 0 0 0 0.9578461 0.1300001 0.9578461 0.1300001 0.9058845 0.1 0.5795453 0.25 0.6022725 0.25 0.375 0.25 0 0 0 0 0 0 0 0 0 0 0 0 0.5421539 0.3700001 0.5421539 0.3700001 0.75 0.4900001 0 0 0 0 0 0 0 0 0 0 0 0 0 0 0 0 0 0 0.75 0.4900001 0.75 0.4900001 0.8019616 0.4600001 0 0 0 0 0 0 0 0 0 0 0 0 0 0 0 0 0 0 0 0 0 0 0 0 0 0 0 0 0 0 0 0 0 0 0 0 0.9578461 0.3700001 0.9058845 0.4000001 0.9058845 0.4000001 0 0 0 0 0 0 0 0 0 0 0 0 0.542154 0.1300001 0.75 0.01000005 0.75 0.01000005 0.375 0.5 0.6022726 0.5 0.5795454 0.5 0 0 0 0 0 0 0 0 0 0 0 0 0 0 0 0 0 0 0.9578461 0.3700001 0.9578461 0.3700001 0.9578461 0.1300001 0.75 0.01000005 0.8019616 0.04000002 0.8019616 0.04000002 0.375 0.5 0.375 0.25 0.6022725 0.25 0.375 0.5 0.6022726 0.5 0.5795454 0.5 0.542154 0.1300001 0.542154 0.1300001 0.542154 0.1900001 0.5421539 0.3700001 0.542154 0.3100001 0.542154 0.3100001 0.6022726 0.5 0.375 0.5 0.375 0.25 0 0 0 0 0 0 0.5795453 0.25 0.6022725 0.25 0.375 0.25 0 0 0 0 0 0 0 0 0 0 0 0 0 0 0 0 0 0 0 0 0 0 0 0 0 0 0 0 0 0 0 0 0 0 0 0 0 0 0 0 0 0 0 0 0 0 0 0 0 0 0 0 0 0 0 0 0 0 0 0 0 0 0 0 0 0 0.375 0.5 0.6022726 0.5 0.5795454 0.5 0.375 0.5 0.375 0.25 0.6022725 0.25 0 0 0 0 0 0 0 0 0 0 0 0 0 0 0 0 0 0 0 0 0 0 0 0 0.5795453 0.25 0.6022725 0.25 0.375 0.25 0 0 0 0 0 0 0 0 0 0 0 0 0 0 0 0 0 0 0.6021538 0.3353591 0.7500001 0.4207181 0.7719616 0.4080386 0.8758846 0.3480386 0.8978461 0.3353591 0.8978461 0.1646411 0.6021538 0.3353591 0.7719616 0.4080386 0.6021538 0.3100001 0.7719616 0.4080386 0.8758846 0.3480386 0.6021538 0.3100001 0.602154 0.1900001 0.6021538 0.3100001 0.8758846 0.3480386 0.7499998 0.0792821 0.6021539 0.164641 0.602154 0.1900001 0.8758845 0.1519615 0.7719617 0.0919615 0.602154 0.1900001 0.7719617 0.0919615 0.7499998 0.0792821 0.602154 0.1900001 0.8758846 0.3480386 0.8978461 0.1646411 0.8758845 0.1519615 0 0 0 0 0 0 0.9578461 0.1300001 0.9578461 0.1300001 0.9058845 0.1 0.5795453 0.25 0.6022725 0.25 0.375 0.25 0 0 0 0 0 0 0 0 0 0 0 0 0.5421539 0.3700001 0.5421539 0.3700001 0.75 0.4900001 0.6021538 0.3353591 0.5421539 0.3700001 0.75 0.4900001 0.7499998 0.0792821 0.75 0.01000005 0.542154 0.1300001 0.8978461 0.3353591 0.9578461 0.3700001 0.9578461 0.1300001 0.8758846 0.3480386 0.7719616 0.4080386 0.8019616 0.4600001 0.8758845 0.1519615 0.9058845 0.1 0.8019616 0.04000002 0.602154 0.1900001 0.542154 0.1900001 0.542154 0.3100001 0.7500001 0.4207181 0.75 0.4900001 0.8019616 0.4600001 0.7499998 0.0792821 0.7719617 0.0919615 0.8019616 0.04000002 0.8978461 0.3353591 0.8758846 0.3480386 0.9058845 0.4000001 0.6021538 0.3353591 0.6021538 0.3100001 0.542154 0.3100001 0.6021539 0.164641 0.542154 0.1300001 0.542154 0.1900001 0.8978461 0.1646411 0.9578461 0.1300001 0.9058845 0.1 0 0 0 0 0 0 0 0 0 0 0 0 0 0 0 0 0 0 0.75 0.4900001 0.75 0.4900001 0.8019616 0.4600001 0 0 0 0 0 0 0 0 0 0 0 0 0 0 0 0 0 0 0 0 0 0 0 0 0 0 0 0 0 0 0 0 0 0 0 0 0.9578461 0.3700001 0.9058845 0.4000001 0.9058845 0.4000001 0 0 0 0 0 0 0 0 0 0 0 0 0.75 0.01000005 0.75 0.01000005 0.542154 0.1300001 0.375 0.5 0.6022726 0.5 0.5795454 0.5 0 0 0 0 0 0 0 0 0 0 0 0 0 0 0 0 0 0 0.9578461 0.1300001 0.9578461 0.3700001 0.9578461 0.3700001 0.75 0.01000005 0.8019616 0.04000002 0.8019616 0.04000002 0.375 0.5 0.375 0.25 0.6022725 0.25 0.375 0.5 0.6022726 0.5 0.5795454 0.5 0.542154 0.1300001 0.542154 0.1300001 0.542154 0.1900001 0.5421539 0.3700001 0.542154 0.3100001 0.542154 0.3100001 0.375 0.5 0.375 0.25 0.6022725 0.25 0 0 0 0 0 0 0.5795453 0.25 0.6022725 0.25 0.375 0.25 0 0 0 0 0 0 0 0 0 0 0 0 0 0 0 0 0 0 0 0 0 0 0 0 0 0 0 0 0 0 0 0 0 0 0 0 0 0 0 0 0 0 0 0 0 0 0 0 0 0 0 0 0 0 0 0 0 0 0 0 0 0 0 0 0 0 0.375 0.5 0.6022726 0.5 0.5795454 0.5 0.6022726 0.5 0.375 0.5 0.375 0.25 0 0 0 0 0 0 0.625 0.75 0.625 1 0.375 1 0.375 0.5 0.375 0.75 0.125 0.75 0.9578461 0.1300001 0.9578461 0.1300001 0.9578461 0.3700001 0.542154 0.1900001 0.542154 0.1900001 0.542154 0.1300001 0.75 0.01000005 0.542154 0.1300001 0.542154 0.1300001 0.9058845 0.1 0.9058845 0.1 0.9578461 0.1300001 0.9058845 0.4000001 0.9578461 0.3700001 0.9578461 0.3700001 0.75 0.4900001 0.75 0.4900001 0.5421539 0.3700001 0.375 0.5 0.375 0.5 0.375 0.25 0.375 0.5 0.375 0.5 0.375 0.25 0.375 0.25 0.375 0.5 0.375 0.5 0.542154 0.3100001 0.5421539 0.3700001 0.5421539 0.3700001 0.8019616 0.04000002 0.75 0.01000005 0.75 0.01000005 0.8019616 0.4600001 0.8019616 0.4600001 0.75 0.4900001 0.1875 0.625 0.1875 0.625 0.375 0.25 0.375 0.5 0.6875 0.75 0.625 0.5914077 0.875 0.6819103 0.625 0.6828153 0.625 0.5914077 0 0 0 0.5 1 0.5 0.25 0.4535953 0.25 0.5340451 0.75 0.6928569 0.375 0.75 0.375 0.5 0.625 0.6828153 0.875 0.6819103 0.875 0.75 0.625 0.75 0.4396612 0.2647696 0.375 0.25 0.375 0 0.7916666 0.6562499 0.7916666 0.6875 0.7916666 0.6875 0.5 0.3783124 0.5 0.4166667 0.375 0.4166666 0.5 0.9166666 0.5 1 0.375 1 0.625 0.9166666 0.625 1 0.5625 1 0.5 0.125 0.5 0.25 0.375 0.25 0.875 0.6875 0.875 0.6875 0.7916666 0.6875 0.5 0.25 0.5 0.3333333 0.375 0.3333333 0.2083333 0.734375 0.2083333 0.75 0.125 0.75 0.2916666 0.734375 0.2916666 0.75 0.25 0.75 0.5 0.8750001 0.5 0.9166666 0.375 0.9166666 0.7916666 0.625 0.7916666 0.625 0.7916666 0.5 0.7916666 0.734375 0.7916666 0.75 0.75 0.75 0.7916666 0.75 0.7916666 0.75 0.7916666 0.734375 0.7916666 0.5 0.7916666 0.625 0.75 0.625 0.25 0.5 0.2916666 0.5 0.2916666 0.625 0.2083333 0.5 0.2083333 0.625 0.125 0.625 0.5 0.09375 0.5 0.125 0.375 0.125 0.625 0.09375 0.625 0.125 0.5625 0.125 0.625 0.3333333 0.59375 0.3333333 0.59375 0.25 0.5625 0.09375 0.5625 0.125 0.5 0.125 0.5625 0.185 0.546875 0.25 0.5 0.25 0.7916666 0.75 0.7916666 0.75 0.7916666 0.734375 0.5625 0.9166666 0.5625 1 0.5 1 0.5 0.25 0.546875 0.25 0.546875 0.3333333 0.5625 0.03125 0.5625 0.0625 0.5 0.0625 0.6250001 0.03125 0.625 0.0625 0.5625 0.0625 0.5 0.03125 0.5 0.0625 0.375 0.0625 0.7916666 0.6875 0.7916666 0.6875 0.7916666 0.65625 0.7916666 0.65625 0.7916666 0.6875 0.75 0.6875 0.25 0.65625 0.2916666 0.65625 0.2916666 0.6875 0.2083333 0.65625 0.2083333 0.6875 0.125 0.6875 0.7916666 0.6562499 0.875 0.65625 0.875 0.6875 0.7916667 0.734375 0.7916666 0.71875 0.7916667 0.71875 0.625 0.9166666 0.625 0.9166666 0.625 1 0.625 0.015625 0.625 0 0.625 0 0.7916666 0.71875 0.7916667 0.71875 0.7916666 0.734375 0.5 0.015625 0.5 0.03125 0.375 0.03125 0.625 0.015625 0.6250001 0.03125 0.5625 0.03125 0.5625 0.015625 0.5625 0.03125 0.5 0.03125 0.7916666 0.71875 0.7916666 0.71875 0.7916666 0.6875 0.7916666 0.71875 0.7916666 0.71875 0.7916666 0.6875 0.7916666 0.6875 0.7916666 0.71875 0.75 0.71875 0.2916666 0.6875 0.2916666 0.71875 0.25 0.71875 0.2083333 0.6875 0.2083333 0.71875 0.125 0.71875 0.5625 0 0.5625 0.015625 0.5 0.015625 0.625 0 0.625 0.015625 0.5625 0.015625 0.5 0 0.5 0.015625 0.375 0.015625 0.7916666 0.734375 0.7916666 0.734375 0.7916666 0.75 0.6250001 0.03125 0.625 0.015625 0.625 0.015625 0.625 0.015625 0.625 0.015625 0.625 0.03125 0.7916666 0.734375 0.7916666 0.734375 0.7916666 0.71875 0.7916666 0.734375 0.7916666 0.734375 0.7916666 0.71875 0.7916666 0.71875 0.7916666 0.734375 0.7500001 0.7343751 0.2916666 0.71875 0.2916666 0.734375 0.25 0.7343751 0.2083333 0.71875 0.2083333 0.734375 0.125 0.734375 0.875 0.734375 0.875 0.75 0.7916666 0.75 0.875 0.71875 0.875 0.734375 0.7916666 0.734375 0.6249999 0.9166665 0.625 0.9166666 0.625 1 0.7916666 0.71875 0.875 0.71875 0.875 0.71875 0.625 0 0.625 0 0.625 0.015625 0.625 0.9166665 0.625 0.9166666 0.625 0.9166666 0.25 0.71875 0.25 0.7343751 0.2083333 0.734375 0.7916666 0.734375 0.7916666 0.734375 0.7916666 0.734375 0.625 0.9166666 0.625 0.9166665 0.625 0.9166665 0.7916666 0.734375 0.7916666 0.75 0.7916666 0.75 0.75 0.71875 0.7500001 0.7343751 0.7083333 0.734375 0.25 0.6875 0.25 0.71875 0.2083333 0.71875 0.25 0.65625 0.25 0.6875 0.2083333 0.6875 0.2083333 0.5 0.25 0.5 0.25 0.625 0.75 0.71875 0.75 0.71875 0.75 0.6875 0.7500001 0.7343751 0.75 0.75 0.7083333 0.75 0.5 0.8333334 0.5 0.8750001 0.375 0.875 0.25 0.7343751 0.25 0.75 0.2083333 0.75 0.5 0.3333333 0.5 0.375 0.375 0.375 0.7916666 0.734375 0.7916666 0.734375 0.7916666 0.734375 0.7916666 0.734375 0.7916666 0.734375 0.7916666 0.734375 0.625 0.9166666 0.625 0.9166666 0.625 0.9166666 0.7916666 0.734375 0.7916666 0.734375 0.7916666 0.734375 0.625 0 0.625 0 0.625 0.015625 0.625 0 0.625 0 0.625 0.015625 0.7916667 0.71875 0.875 0.71875 0.875 0.71875 0.875 0.71875 0.875 0.71875 0.7916666 0.71875 0.625 0.9166666 0.625 0.9166666 0.625 1 0.625 0.9166666 0.6249999 0.9166665 0.625 1 0.625 0.015625 0.625 0.015625 0.625 0.03125 0.625 0.015625 0.625 0.015625 0.625 0.03125 0.7916666 0.734375 0.7916667 0.71875 0.7916665 0.7187499 0.7916666 0.734375 0.7916665 0.7187499 0.7916666 0.71875 0.7916666 0.734375 0.7916667 0.734375 0.7916666 0.734375 0.7916666 0.734375 0.7916666 0.734375 0.7916666 0.734375 0.625 0.9166666 0.625 0.9166665 0.625 0.9166666 0.6249999 0.9166665 0.625 0.9166666 0.625 0.9166666 0.7916666 0.734375 0.7916666 0.734375 0.7916666 0.75 0.625 0.9166666 0.625 0.9166666 0.625 0.9166665 0.7916666 0.734375 0.7916666 0.75 0.7916666 0.75 0.7916667 0.734375 0.7916666 0.734375 0.7916666 0.734375 0.7916666 0.65625 0.7916666 0.65625 0.7916666 0.6875 0.375 0.4166666 0.5 0.4166667 0.5 0.3958333 0.375 1 0.5 1 0.5 0.9166666 0.5625 1 0.625 1 0.625 0.9166666 0.375 0.125 0.375 0.25 0.5 0.25 0.7916666 0.6875 0.875 0.6875 0.875 0.6875 0.375 0.3333333 0.5 0.3333333 0.5 0.25 0.125 0.75 0.2083333 0.75 0.2083333 0.734375 0.2708333 0.75 0.2916666 0.75 0.2916666 0.734375 0.375 0.875 0.375 0.9166666 0.5 0.9166666 0.7916666 0.5 0.7916666 0.625 0.7916666 0.625 0.75 0.75 0.7916666 0.75 0.7916666 0.734375 0.7916666 0.734375 0.7916666 0.75 0.7916666 0.75 0.75 0.625 0.7916666 0.625 0.7916666 0.5 0.2708333 0.625 0.2916666 0.625 0.2916666 0.5 0.125 0.625 0.2083333 0.625 0.2083333 0.5 0.375 0.09375 0.375 0.125 0.5 0.125 0.5625 0.09375 0.5625 0.125 0.625 0.125 0.59375 0.25 0.59375 0.3333333 0.625 0.3333333 0.5 0.125 0.5625 0.125 0.5625 0.09375 0.5 0.25 0.546875 0.25 0.5625 0.185 0.7916666 0.734375 0.7916666 0.75 0.7916666 0.75 0.5 1 0.5625 1 0.5625 0.9166666 0.5 0.25 0.5 0.3333333 0.546875 0.3333333 0.5 0.0625 0.5625 0.0625 0.5625 0.03125 0.5625 0.03125 0.5625 0.0625 0.625 0.0625 0.375 0.03125 0.375 0.0625 0.5 0.0625 0.7916666 0.65625 0.7916666 0.6875 0.7916666 0.6875 0.75 0.6875 0.7916666 0.6875 0.7916666 0.65625 0.2708333 0.6875 0.2916666 0.6875 0.2916666 0.65625 0.125 0.6875 0.2083333 0.6875 0.2083333 0.65625 0.7916666 0.6875 0.875 0.6875 0.875 0.65625 0.7916667 0.734375 0.7916666 0.734375 0.7916667 0.71875 0.625 1 0.625 0.9166666 0.625 0.9166666 0.625 0.015625 0.625 0.015625 0.625 0 0.7916666 0.734375 0.7916667 0.71875 0.7916666 0.71875 0.375 0.015625 0.375 0.03125 0.5 0.03125 0.5625 0.03125 0.6250001 0.03125 0.625 0.015625 0.5 0.03125 0.5625 0.03125 0.5625 0.015625 0.7916666 0.6875 0.7916666 0.71875 0.7916666 0.71875 0.7916666 0.6875 0.7916666 0.71875 0.7916666 0.71875 0.75 0.71875 0.7916666 0.71875 0.7916666 0.6875 0.2708333 0.71875 0.2916666 0.71875 0.2916666 0.6875 0.125 0.71875 0.2083333 0.71875 0.2083333 0.6875 0.5 0.015625 0.5625 0.015625 0.5625 0 0.5625 0.015625 0.625 0.015625 0.625 0 0.375 0 0.375 0.015625 0.5 0.015625 0.7916666 0.75 0.7916666 0.734375 0.7916666 0.734375 0.6250001 0.03125 0.625 0.03125 0.625 0.015625 0.625 0.03125 0.625 0.015625 0.625 0.015625 0.7916666 0.71875 0.7916666 0.734375 0.7916666 0.734375 0.7916666 0.71875 0.7916666 0.734375 0.7916666 0.734375 0.7500001 0.7343751 0.7916666 0.734375 0.7916666 0.71875 0.2708333 0.734375 0.2916666 0.734375 0.2916666 0.71875 0.125 0.734375 0.2083333 0.734375 0.2083333 0.71875 0.7916666 0.75 0.875 0.75 0.875 0.734375 0.7916666 0.734375 0.875 0.734375 0.875 0.71875 0.625 1 0.625 0.9166666 0.6249999 0.9166665 0.7916666 0.71875 0.7916667 0.71875 0.875 0.71875 0.625 0.015625 0.625 0 0.625 0 0.2083333 0.734375 0.25 0.7343751 0.25 0.71875 0.7291667 0.734375 0.7500001 0.7343751 0.75 0.71875 0.2083333 0.71875 0.25 0.71875 0.25 0.6875 0.2083333 0.6875 0.25 0.6875 0.25 0.6562501 0.2083333 0.5 0.2083333 0.625 0.25 0.625 0.7291666 0.75 0.75 0.75 0.7500001 0.7343751 0.375 0.875 0.5 0.8750001 0.5 0.8541668 0.2083333 0.75 0.25 0.75 0.25 0.7343751 0.375 0.375 0.5 0.375 0.5 0.3333333 0.625 0.015625 0.625 0 0.625 0 0.625 0.015625 0.625 0 0.625 0 0.7916667 0.71875 0.7916665 0.7187499 0.875 0.71875 0.7916666 0.71875 0.875 0.71875 0.875 0.71875 0.625 1 0.625 0.9166666 0.625 0.9166666 0.625 1 0.6249999 0.9166665 0.625 0.9166666 0.625 0.03125 0.625 0.015625 0.625 0.015625 0.625 0.03125 0.625 0.015625 0.625 0.015625 0.7916666 0.734375 0.7916666 0.734375 0.7916665 0.7187499 0.7916666 0.734375 0.7916667 0.734375 0.7916666 0.71875 0.7916666 0.734375 0.7916666 0.734375 0.7916666 0.734375 0.7916666 0.734375 0.7916666 0.734375 0.7916666 0.734375 0.625 0.9166666 0.625 0.9166665 0.625 0.9166666 0.625 0.9166666 0.625 0.9166666 0.6249999 0.9166665 0.7916666 0.75 0.7916666 0.734375 0.7916666 0.734375 0.625 0.9166665 0.625 0.9166666 0.625 0.9166666 0.7916666 0.734375 0.7916666 0.734375 0.7916666 0.75 0.7916667 0.734375 0.7916666 0.734375 0.7916666 0.734375 0.7916666 0.734375 0.7916666 0.734375 0.7916666 0.734375 0.7916666 0.734375 0.7916666 0.734375 0.7916666 0.734375 0.7916666 0.734375 0.7916666 0.734375 0.7916666 0.734375 0.7916666 0.734375 0.7916666 0.734375 0.7916666 0.7343751 0.7916666 0.734375 0.7916666 0.734375 0.7916666 0.734375 0.7916666 0.734375 0.7916666 0.7343751 0.7916666 0.734375 0.7916666 0.734375 0.7916666 0.734375 0.7916666 0.734375 0 0 0 0 0 0 0.75 0.71875 0.75 0.6875 0.75 0.6875 0.75 0.625 0.75 0.625 0.75 0.625 0 0 0 0 0 0 0.7481884 0.71875 0.7481884 0.71875 0.7282608 0.71875 0.7083333 0.71875 0.7083333 0.71875 0.7481884 0.71875 0.5 0.3958333 0.5 0.3974896 0.5 0.3783124 0.75 0.65625 0.75 0.625 0.75 0.625 0.75 0.625 0.75 0.625 0.75 0.625 0.75 0.625 0.75 0.625 0.75 0.625 0.5000001 0.3783124 0.5 0.4166667 0.5 0.4166667 0.75 0.6875 0.75 0.6875 0.75 0.7156251 0 0 0 0 0 0 0.5000001 0.3783124 0.5 0.3768116 0.5 0.4166667 0.7083333 0.71875 0.7083333 0.71875 0.75 0.71875 0.75 0.625 0.75 0.625 0.75 0.625 0.75 0.625 0.75 0.625 0.75 0.625 0 0 0 0 0 0 0.75 0.6875 0.75 0.71875 0.75 0.715625 0 0 0 0 0.75 0.625 0 0 0.75 0.6875 0.7500001 0.6572917 0.7083333 0.71875 0.7083333 0.71875 0.7481884 0.71875 0.7291666 0.71875 0.75 0.71875 0.7481884 0.71875 0.75 0.71875 0.75 0.71875 0.7291666 0.71875 0.75 0.625 0.75 0.625 0.75 0.625 0.75 0.625 0.75 0.625 0.75 0.625 0 0 0 0 0 0 0.5 0.4166667 0.5 0.4166667 0.5 0.3967391 0 0 0 0 0 0 0.7500001 0.6572917 0.7500001 0.6562501 0.75 0.625 0.75 0.625 0.75 0.625 0.75 0.625 0 0 0 0 0 0 0.5 0.3783124 0.5 0.3974896 0.5 0.3967391 0 0 0 0 0 0 0.7291666 0.71875 0.7291666 0.71875 0.7083332 0.71875 0.7291666 0.71875 0.7282608 0.71875 0.7083333 0.71875 0 0 0 0 0 0 0.5 0.4166667 0.5 0.3974896 0.5 0.3958333 0.7282608 0.71875 0.7282608 0.71875 0.7083333 0.71875 0.375 0.8541666 0.5 0.8541668 0.5 0.8333334 0.7083333 0.75 0.7291666 0.75 0.7291667 0.734375 0.7083333 0.734375 0.7291667 0.734375 0.7291666 0.71875 0.25 0.7343751 0.2708333 0.734375 0.2708333 0.71875 0.25 0.71875 0.2708333 0.71875 0.2708333 0.6875 0.25 0.6562501 0.25 0.6875 0.2708333 0.6875 0.25 0.5 0.25 0.625 0.2708333 0.625 0.25 0.75 0.2708333 0.75 0.2708333 0.734375 0.375 0.3958333 0.5 0.3958333 0.5 0.375 0.25 0.6562501 0.2708333 0.6562501 0.2708333 0.625 0 0 0 0 0 0 0.75 0.6875 0.7500001 0.6562501 0.7500001 0.6572917 0 0 0.7500001 0.6572917 0.75 0.6270834 0 0 0 0 0.75 0.65625 0 0 0 0 0 0 0 0 0 0 0 0 0.75 0.6875 0.75 0.6875 0.75 0.65625 0.2083333 0.65625 0.25 0.6562501 0.25 0.625 0.7916666 0.65625 0.875 0.65625 0.875 0.625 0.125 0.65625 0.2083333 0.65625 0.2083333 0.625 0.2708333 0.6562501 0.2916666 0.65625 0.2916666 0.625 0.7500001 0.6562501 0.7916666 0.65625 0.7916666 0.625 0.7916666 0.625 0.7916666 0.65625 0.7916666 0.65625 0.5 0.09375 0.5625 0.09375 0.5625 0.0625 0.5625 0.0625 0.5625 0.09375 0.625 0.09375 0.375 0.0625 0.375 0.09375 0.5 0.09375 0.7916666 0.625 0.7916666 0.65625 0.7916666 0.65625 0.25 0.625 0.25 0.65625 0.2083333 0.65625 0.875 0.625 0.875 0.65625 0.7916666 0.6562499 0.2083333 0.625 0.2083333 0.65625 0.125 0.65625 0.2916666 0.625 0.2916666 0.65625 0.25 0.65625 0.7916666 0.625 0.7916666 0.65625 0.75 0.65625 0.7916666 0.65625 0.7916666 0.65625 0.7916666 0.625 0.5625 0.0625 0.5625 0.09375 0.5 0.09375 0.625 0.0625 0.625 0.09375 0.5625 0.09375 0.5 0.0625 0.5 0.09375 0.375 0.09375 0.7916666 0.6562499 0.7916666 0.65625 0.7916666 0.625 0.7916666 0.75 0.7916666 0.734375 0.7916666 0.734375</float_array>
          <technique_common>
            <accessor source="#Cube-mesh-map-0-array" count="2508" stride="2">
              <param name="S" type="float"/>
              <param name="T" type="float"/>
            </accessor>
          </technique_common>
        </source>
        <vertices id="Cube-mesh-vertices">
          <input semantic="POSITION" source="#Cube-mesh-positions"/>
        </vertices>
        <triangles material="Paintable-0-material" count="724">
          <input semantic="VERTEX" source="#Cube-mesh-vertices" offset="0"/>
          <input semantic="NORMAL" source="#Cube-mesh-normals" offset="1"/>
          <input semantic="TEXCOORD" source="#Cube-mesh-map-0" offset="2" set="0"/>
          <p>23 0 0 65 0 1 34 0 2 9 1 3 3 1 4 25 1 5 97 2 6 47 2 7 68 2 8 88 3 9 14 3 10 83 3 11 6 4 12 8 4 13 33 4 14 6 5 15 75 5 16 74 5 17 5 6 18 9 6 19 23 6 20 105 7 21 26 7 22 113 7 23 16 8 24 116 8 25 10 8 26 80 9 27 13 9 28 96 9 29 36 10 30 67 10 31 31 10 32 104 11 33 8 11 34 27 11 35 21 12 36 103 12 37 20 12 38 26 13 39 74 13 40 113 13 41 40 14 42 6 14 43 33 14 44 75 15 45 23 15 46 34 15 47 20 16 48 83 16 49 14 16 50 29 17 51 31 17 52 47 17 53 28 18 54 25 18 55 37 18 56 1 19 57 101 19 58 65 19 59 101 20 60 29 20 61 97 20 62 27 21 63 26 21 64 0 21 65 37 22 66 29 22 67 28 22 68 17 23 69 84 23 70 95 23 71 40 24 72 32 24 73 9 24 74 77 25 75 36 25 76 80 25 77 18 26 78 90 26 79 94 26 80 12 27 81 77 27 82 92 27 83 37 28 84 3 28 85 77 28 86 102 29 87 40 29 88 88 29 89 23 30 90 25 30 91 1 30 92 17 31 93 99 31 94 16 31 95 19 32 96 115 32 97 90 32 98 12 33 99 36 33 100 37 33 101 15 34 102 102 34 103 84 34 104 18 35 105 96 35 106 13 35 107 21 36 108 92 36 109 100 36 110 33 37 111 14 37 112 40 37 113 33 38 114 112 38 115 102 38 116 109 39 117 10 39 118 116 39 119 41 40 120 30 40 121 45 40 122 118 41 123 42 41 124 117 41 125 42 42 126 27 42 127 0 42 128 68 43 129 44 43 130 39 43 131 67 44 132 30 44 133 31 44 134 44 45 135 118 45 136 39 45 137 46 46 138 41 46 139 45 46 140 117 47 141 0 47 142 105 47 143 47 48 144 30 48 145 44 48 146 46 49 147 104 49 148 27 49 149 107 50 150 46 50 151 45 50 152 11 51 153 107 51 154 115 51 155 11 52 156 46 52 157 45 52 158 45 53 159 38 53 160 107 53 161 66 54 162 34 54 163 65 54 164 3 55 165 69 55 166 4 55 167 74 56 168 119 56 169 113 56 170 77 57 171 82 57 172 92 57 173 22 58 174 7 58 175 79 58 176 97 59 177 24 59 178 101 59 179 24 60 180 4 60 181 66 60 182 54 61 183 55 61 184 57 61 185 39 62 186 70 62 187 68 62 188 64 63 189 115 63 190 111 63 191 102 64 192 86 64 193 84 64 194 85 65 195 112 65 196 78 65 197 71 66 198 67 66 199 7 66 200 59 67 201 100 67 202 60 67 203 52 68 204 60 68 205 2 68 206 50 69 207 62 69 208 51 69 209 48 70 210 64 70 211 49 70 212 54 71 213 82 71 214 81 71 215 55 72 216 110 72 217 56 72 218 57 73 219 87 73 220 58 73 221 2 74 222 82 74 223 53 74 224 50 75 225 110 75 226 61 75 227 48 76 228 81 76 229 63 76 230 52 77 231 87 77 232 59 77 233 51 78 234 86 78 235 57 78 236 49 79 237 111 79 238 55 79 239 70 80 240 97 80 241 68 80 242 91 81 243 22 81 244 79 81 245 101 82 246 66 82 247 65 82 248 60 83 249 92 83 250 82 83 251 73 84 252 78 84 253 119 84 254 72 85 255 69 85 256 89 85 257 35 86 258 75 86 259 34 86 260 72 87 261 74 87 262 75 87 263 43 88 264 7 88 265 70 88 266 85 89 267 72 89 268 89 89 269 63 90 270 96 90 271 94 90 272 91 91 273 3 91 274 4 91 275 88 92 276 85 92 277 102 92 278 61 93 279 95 93 280 62 93 281 87 94 282 88 94 283 83 94 284 89 95 285 32 95 286 88 95 287 80 96 288 91 96 289 77 96 290 66 97 291 69 97 292 35 97 293 64 98 294 94 98 295 90 98 296 61 99 297 116 99 298 99 99 299 87 100 300 85 100 301 89 100 302 81 101 303 80 101 304 96 101 305 62 102 306 84 102 307 86 102 308 59 103 309 83 103 310 103 103 311 81 104 312 91 104 313 79 104 314 79 105 315 67 105 316 80 105 317 107 106 318 111 106 319 115 106 320 93 107 321 76 107 322 108 107 323 93 108 324 118 108 325 117 108 326 98 109 327 71 109 328 43 109 329 113 110 330 106 110 331 105 110 332 78 111 333 104 111 334 76 111 335 106 112 336 117 112 337 105 112 338 114 113 339 93 113 340 108 113 341 118 114 342 43 114 343 39 114 344 119 115 345 76 115 346 106 115 347 114 116 348 38 116 349 71 116 350 107 117 351 108 117 352 109 117 353 110 118 354 109 118 355 116 118 356 108 119 357 111 119 358 114 119 359 108 120 360 104 120 361 109 120 362 123 121 363 120 121 364 122 121 365 125 122 366 120 122 367 124 122 368 16 123 369 133 123 370 17 123 371 13 124 372 134 124 373 18 124 374 19 125 375 134 125 376 135 125 377 10 126 378 132 126 379 16 126 380 15 127 381 133 127 382 131 127 383 20 128 384 137 128 385 21 128 386 11 129 387 126 129 388 10 129 389 15 130 390 130 130 391 14 130 392 13 131 393 128 131 394 129 131 395 12 132 396 137 132 397 128 132 398 11 133 399 135 133 400 127 133 401 14 134 402 136 134 403 20 134 404 140 135 405 124 135 406 142 135 407 125 136 408 139 136 409 143 136 410 142 137 411 139 137 412 140 137 413 124 138 414 138 138 415 125 138 416 141 139 417 139 139 418 138 139 419 122 140 420 143 140 421 123 140 422 142 141 423 123 141 424 143 141 425 142 142 426 120 142 427 121 142 428 389 143 429 173 143 430 392 143 431 340 144 432 237 144 433 202 144 434 153 145 435 144 145 436 150 145 437 151 146 438 162 146 439 163 146 440 158 147 441 146 147 442 154 147 443 170 148 444 184 148 445 160 148 446 147 149 447 149 149 448 146 149 449 188 150 450 144 150 451 186 150 452 282 151 453 203 151 454 211 151 455 204 152 456 150 152 457 203 152 458 164 153 459 152 153 460 167 153 461 189 154 462 204 154 463 210 154 464 163 155 465 189 155 466 194 155 467 152 156 468 360 156 469 340 156 470 202 157 471 249 157 472 205 157 473 149 158 474 154 158 475 146 158 476 165 159 477 155 159 478 166 159 479 387 160 480 154 160 481 390 160 482 386 161 483 165 161 484 391 161 485 156 162 486 166 162 487 155 162 488 391 163 489 158 163 490 387 163 491 165 164 492 147 164 493 158 164 494 151 165 495 194 165 496 233 165 497 167 166 498 156 166 499 164 166 500 163 167 501 148 167 502 153 167 503 147 168 504 167 168 505 152 168 506 182 169 507 171 169 508 181 169 509 180 170 510 172 170 511 182 170 512 181 171 513 161 171 514 176 171 515 173 172 516 393 172 517 392 172 518 393 173 519 206 173 520 406 173 521 394 174 522 261 174 523 207 174 524 388 175 525 161 175 526 390 175 527 389 176 528 170 176 529 160 176 530 218 177 531 201 177 532 198 177 533 232 178 534 160 178 535 184 178 536 151 179 537 175 179 538 145 179 539 191 180 540 175 180 541 195 180 542 170 181 543 180 181 544 185 181 545 232 182 546 190 182 547 233 182 548 192 183 549 176 183 550 186 183 551 191 184 552 182 184 553 193 184 554 193 185 555 181 185 556 192 185 557 232 186 558 173 186 559 160 186 560 183 187 561 169 187 562 173 187 563 169 188 564 208 188 565 206 188 566 261 189 567 209 189 568 207 189 569 168 190 570 176 190 571 161 190 572 162 191 573 192 191 574 148 191 575 145 192 576 193 192 577 162 192 578 148 193 579 186 193 580 144 193 581 233 194 582 174 194 583 151 194 584 180 195 585 195 195 586 185 195 587 213 196 588 200 196 589 214 196 590 233 197 591 183 197 592 232 197 593 194 198 594 179 198 595 183 198 596 179 199 597 210 199 598 208 199 599 271 200 600 211 200 601 209 200 602 178 201 603 186 201 604 176 201 605 199 202 606 196 202 607 198 202 608 200 203 609 198 203 610 201 203 611 221 204 612 197 204 613 222 204 614 217 205 615 200 205 616 201 205 617 222 206 618 199 206 619 213 206 620 229 207 621 322 207 622 324 207 623 209 208 624 188 208 625 178 208 626 225 209 627 325 209 628 320 209 629 228 210 630 324 210 631 323 210 632 224 211 633 321 211 634 319 211 635 208 212 636 283 212 637 272 212 638 207 213 639 178 213 640 168 213 641 394 214 642 168 214 643 388 214 644 149 215 645 205 215 646 157 215 647 210 217 651 243 217 652 283 217 653 243 218 654 203 218 655 240 218 656 211 219 657 150 219 658 188 219 659 152 220 660 202 220 661 149 220 662 231 221 663 319 221 664 326 221 665 226 223 669 323 223 670 321 223 671 175 225 675 212 225 676 195 225 677 223 226 678 213 226 679 212 226 680 184 227 681 215 227 682 216 227 683 215 228 684 217 228 685 216 228 686 174 229 687 223 229 688 175 229 689 220 230 690 222 230 691 223 230 692 195 231 693 215 231 694 185 231 695 212 232 696 214 232 697 215 232 698 190 233 699 216 233 700 219 233 701 219 234 702 217 234 703 218 234 704 219 235 705 231 235 706 230 235 707 190 236 708 230 236 709 225 236 710 220 237 711 228 237 712 221 237 713 221 238 714 226 238 715 196 238 716 190 239 717 227 239 718 174 239 719 174 240 720 229 240 721 220 240 722 198 241 723 226 241 724 224 241 725 218 242 726 224 242 727 231 242 728 399 243 729 266 243 730 252 243 731 237 244 732 385 244 733 372 244 734 187 245 735 244 245 736 239 245 737 254 246 738 241 246 739 255 246 740 245 247 741 235 247 742 250 247 743 278 248 744 263 248 745 252 248 746 238 249 747 235 249 748 177 249 749 187 250 750 281 250 751 280 250 752 369 251 753 282 251 754 377 251 755 298 252 756 244 252 757 299 252 758 242 253 759 256 253 760 259 253 761 299 254 762 284 254 763 305 254 764 284 255 765 255 255 766 289 255 767 367 256 768 242 256 769 341 256 770 374 257 771 237 257 772 372 257 773 245 258 774 238 258 775 177 258 776 257 259 777 258 259 778 246 259 779 400 260 780 250 260 781 397 260 782 401 261 783 246 261 784 395 261 785 258 262 786 247 262 787 246 262 788 250 263 789 401 263 790 397 263 791 235 264 792 257 264 793 250 264 794 289 265 795 241 265 796 328 265 797 259 266 798 256 266 799 247 266 800 236 267 801 255 267 802 244 267 803 235 268 804 259 268 805 258 268 806 264 269 807 276 269 808 275 269 809 276 270 810 263 270 811 274 270 812 269 271 813 264 271 814 275 271 815 403 272 816 266 272 817 402 272 818 301 273 819 403 273 820 405 273 821 375 274 822 396 274 823 413 274 824 253 275 825 398 275 826 400 275 827 252 276 828 395 276 829 399 276 830 313 277 831 296 277 832 312 277 833 327 278 834 278 278 835 252 278 836 268 279 837 241 279 838 234 279 839 286 280 840 268 280 841 234 280 842 263 281 843 279 281 844 274 281 845 285 282 846 327 282 847 328 282 848 280 283 849 275 283 850 287 283 851 276 284 852 286 284 853 288 284 854 275 285 855 288 285 856 287 285 857 266 286 858 327 286 859 252 286 860 262 287 861 277 287 862 266 287 863 303 288 864 262 288 865 301 288 866 376 289 867 261 289 868 375 289 869 269 290 870 260 290 871 253 290 872 287 291 873 254 291 874 236 291 875 288 292 876 234 292 877 254 292 878 187 293 879 287 293 880 236 293 881 267 294 882 328 294 883 241 294 884 274 295 885 290 295 886 286 295 887 295 296 888 308 296 889 309 296 890 277 297 891 328 297 892 327 297 893 273 298 894 289 298 895 277 298 896 305 299 897 273 299 898 303 299 899 377 300 900 271 300 901 376 300 902 280 301 903 270 301 904 269 301 905 291 302 906 294 302 907 293 302 908 293 303 909 295 303 910 296 303 911 292 304 912 316 304 913 317 304 914 312 305 915 295 305 916 309 305 917 294 306 918 317 306 919 308 306 920 281 307 921 304 307 922 270 307 923 371 308 924 303 308 925 370 308 926 270 309 927 302 309 928 260 309 929 260 310 930 404 310 931 398 310 932 238 311 933 300 311 934 297 311 935 373 312 936 305 312 937 371 312 938 298 313 939 373 313 940 369 313 941 239 314 942 306 314 943 281 314 944 297 315 945 242 315 946 238 315 947 307 316 948 268 316 949 290 316 950 308 317 951 318 317 952 307 317 953 278 318 954 310 318 955 279 318 956 312 319 957 310 319 958 311 319 959 318 320 960 267 320 961 268 320 962 317 321 963 315 321 964 318 321 965 310 322 966 290 322 967 279 322 968 309 323 969 307 323 970 310 323 971 285 324 972 311 324 973 278 324 974 314 325 975 312 325 976 311 325 977 314 326 978 326 326 979 313 326 980 285 327 981 325 327 982 314 327 983 323 328 984 315 328 985 316 328 986 321 329 987 316 329 988 291 329 989 322 330 990 285 330 991 267 330 992 324 331 993 267 331 994 315 331 995 293 332 996 321 332 997 291 332 998 313 333 999 319 333 1000 293 333 1001 369 380 1140 243 380 1141 240 380 1142 243 381 1143 371 381 1144 283 381 1145 283 382 1146 370 382 1147 272 382 1148 306 383 1149 376 383 1150 304 383 1151 304 384 1152 375 384 1153 302 384 1154 404 385 1155 375 385 1156 413 385 1157 297 386 1158 374 386 1159 372 386 1160 298 387 1161 377 387 1162 306 387 1163 372 388 1164 341 388 1165 297 388 1166 404 389 1167 374 389 1168 300 389 1169 398 397 1191 300 397 1192 248 397 1193 399 398 1194 246 398 1195 247 398 1196 400 399 1197 248 399 1198 245 399 1199 413 400 1200 249 400 1201 374 400 1202 405 401 1203 251 401 1204 367 401 1205 251 402 1206 402 402 1207 256 402 1208 397 403 1209 265 403 1210 264 403 1211 265 404 1212 395 404 1213 263 404 1214 253 405 1215 397 405 1216 264 405 1217 256 406 1218 399 406 1219 247 406 1220 205 407 1221 388 407 1222 157 407 1223 155 408 1224 389 408 1225 156 408 1226 157 409 1227 390 409 1228 154 409 1229 249 410 1230 394 410 1231 205 410 1232 159 411 1233 406 411 1234 360 411 1235 392 412 1236 159 412 1237 164 412 1238 172 413 1239 387 413 1240 171 413 1241 170 414 1242 391 414 1243 172 414 1244 171 415 1245 390 415 1246 161 415 1247 389 416 1248 164 416 1249 156 416 1250 227 417 1251 320 417 1252 322 417 1253 23 418 1254 1 418 1255 65 418 1256 9 419 1257 32 419 1258 3 419 1259 97 420 1260 29 420 1261 47 420 1262 88 421 1263 40 421 1264 14 421 1265 6 422 1266 26 422 1267 8 422 1268 6 423 1269 5 423 1270 75 423 1271 5 424 1272 40 424 1273 9 424 1274 105 425 1275 0 425 1276 26 425 1277 16 426 1278 99 426 1279 116 426 1280 80 427 1281 36 427 1282 13 427 1283 36 428 1284 80 428 1285 67 428 1286 104 429 1287 112 429 1288 8 429 1289 21 430 1290 100 430 1291 103 430 1292 26 431 1293 6 431 1294 74 431 1295 40 432 1296 5 432 1297 6 432 1298 75 433 1299 5 433 1300 23 433 1301 20 434 1302 103 434 1303 83 434 1304 29 435 1305 36 435 1306 31 435 1307 28 436 1308 1 436 1309 25 436 1310 1 437 1311 28 437 1312 101 437 1313 101 438 1314 28 438 1315 29 438 1316 27 439 1317 8 439 1318 26 439 1319 37 440 1320 36 440 1321 29 440 1322 17 441 1323 15 441 1324 84 441 1325 40 442 1326 88 442 1327 32 442 1328 77 443 1329 37 443 1330 36 443 1331 18 444 1332 19 444 1333 90 444 1334 12 445 1335 37 445 1336 77 445 1337 37 446 1338 25 446 1339 3 446 1340 102 447 1341 33 447 1342 40 447 1343 23 448 1344 9 448 1345 25 448 1346 17 449 1347 95 449 1348 99 449 1349 19 450 1350 11 450 1351 115 450 1352 12 451 1353 13 451 1354 36 451 1355 15 452 1356 33 452 1357 102 452 1358 18 453 1359 94 453 1360 96 453 1361 21 454 1362 12 454 1363 92 454 1364 33 455 1365 15 455 1366 14 455 1367 33 456 1368 8 456 1369 112 456 1370 109 457 1371 46 457 1372 10 457 1373 41 458 1374 44 458 1375 30 458 1376 118 459 1377 41 459 1378 42 459 1379 42 460 1380 46 460 1381 27 460 1382 68 461 1383 47 461 1384 44 461 1385 67 462 1386 38 462 1387 30 462 1388 44 463 1389 41 463 1390 118 463 1391 46 464 1392 42 464 1393 41 464 1394 117 465 1395 42 465 1396 0 465 1397 47 466 1398 31 466 1399 30 466 1400 46 467 1401 109 467 1402 104 467 1403 107 468 1404 109 468 1405 46 468 1406 11 469 1407 45 469 1408 107 469 1409 11 470 1410 10 470 1411 46 470 1412 45 471 1413 30 471 1414 38 471 1415 66 472 1416 35 472 1417 34 472 1418 3 473 1419 32 473 1420 69 473 1421 74 474 1422 73 474 1423 119 474 1424 77 475 1425 91 475 1426 82 475 1427 22 476 1428 70 476 1429 7 476 1430 97 477 1431 22 477 1432 24 477 1433 24 478 1434 91 478 1435 4 478 1436 52 479 1437 2 479 1438 53 479 1439 54 480 1440 48 480 1441 49 480 1442 52 481 1443 53 481 1444 58 481 1445 53 482 1446 54 482 1447 58 482 1448 57 483 1449 58 483 1450 54 483 1451 50 484 1452 51 484 1453 57 484 1454 55 485 1455 56 485 1456 57 485 1457 56 486 1458 50 486 1459 57 486 1460 54 487 1461 49 487 1462 55 487 1463 39 488 1464 43 488 1465 70 488 1466 64 489 1467 90 489 1468 115 489 1469 102 490 1470 85 490 1471 86 490 1472 85 491 1473 102 491 1474 112 491 1475 71 492 1476 38 492 1477 67 492 1478 59 493 1479 103 493 1480 100 493 1481 52 494 1482 59 494 1483 60 494 1484 50 495 1485 61 495 1486 62 495 1487 48 496 1488 63 496 1489 64 496 1490 54 497 1491 53 497 1492 82 497 1493 55 498 1494 111 498 1495 110 498 1496 57 499 1497 86 499 1498 87 499 1499 2 500 1500 60 500 1501 82 500 1502 50 501 1503 56 501 1504 110 501 1505 48 502 1506 54 502 1507 81 502 1508 52 503 1509 58 503 1510 87 503 1511 51 504 1512 62 504 1513 86 504 1514 49 505 1515 64 505 1516 111 505 1517 70 506 1518 22 506 1519 97 506 1520 91 507 1521 24 507 1522 22 507 1523 101 508 1524 24 508 1525 66 508 1526 60 509 1527 100 509 1528 92 509 1529 73 510 1530 85 510 1531 78 510 1532 72 511 1533 35 511 1534 69 511 1535 35 512 1536 72 512 1537 75 512 1538 72 513 1539 73 513 1540 74 513 1541 43 514 1542 71 514 1543 7 514 1544 85 515 1545 73 515 1546 72 515 1547 63 516 1548 81 516 1549 96 516 1550 91 517 1551 77 517 1552 3 517 1553 88 518 1554 89 518 1555 85 518 1556 61 519 1557 99 519 1558 95 519 1559 87 520 1560 89 520 1561 88 520 1562 89 521 1563 69 521 1564 32 521 1565 80 522 1566 79 522 1567 91 522 1568 66 523 1569 4 523 1570 69 523 1571 64 524 1572 63 524 1573 94 524 1574 61 525 1575 110 525 1576 116 525 1577 87 526 1578 86 526 1579 85 526 1580 81 527 1581 79 527 1582 80 527 1583 62 528 1584 95 528 1585 84 528 1586 59 529 1587 87 529 1588 83 529 1589 81 530 1590 82 530 1591 91 530 1592 79 531 1593 7 531 1594 67 531 1595 107 532 1596 114 532 1597 111 532 1598 93 533 1599 106 533 1600 76 533 1601 93 534 1602 98 534 1603 118 534 1604 98 535 1605 114 535 1606 71 535 1607 113 536 1608 119 536 1609 106 536 1610 78 537 1611 112 537 1612 104 537 1613 106 538 1614 93 538 1615 117 538 1616 114 539 1617 98 539 1618 93 539 1619 118 540 1620 98 540 1621 43 540 1622 119 541 1623 78 541 1624 76 541 1625 114 542 1626 107 542 1627 38 542 1628 107 543 1629 114 543 1630 108 543 1631 110 544 1632 108 544 1633 109 544 1634 108 545 1635 110 545 1636 111 545 1637 108 546 1638 76 546 1639 104 546 1640 123 547 1641 121 547 1642 120 547 1643 125 548 1644 122 548 1645 120 548 1646 16 549 1647 132 549 1648 133 549 1649 13 550 1650 129 550 1651 134 550 1652 19 551 1653 18 551 1654 134 551 1655 10 552 1656 126 552 1657 132 552 1658 15 553 1659 17 553 1660 133 553 1661 20 554 1662 136 554 1663 137 554 1664 11 555 1665 127 555 1666 126 555 1667 15 556 1668 131 556 1669 130 556 1670 13 557 1671 12 557 1672 128 557 1673 12 558 1674 21 558 1675 137 558 1676 11 559 1677 19 559 1678 135 559 1679 14 560 1680 130 560 1681 136 560 1682 140 561 1683 141 561 1684 124 561 1685 125 562 1686 138 562 1687 139 562 1688 142 563 1689 143 563 1690 139 563 1691 124 564 1692 141 564 1693 138 564 1694 141 565 1695 140 565 1696 139 565 1697 122 566 1698 125 566 1699 143 566 1700 142 567 1701 121 567 1702 123 567 1703 142 568 1704 124 568 1705 120 568 1706 389 569 1707 160 569 1708 173 569 1709 340 570 1710 346 570 1711 237 570 1712 153 571 1713 148 571 1714 144 571 1715 151 572 1716 145 572 1717 162 572 1718 158 573 1719 147 573 1720 146 573 1721 170 574 1722 185 574 1723 184 574 1724 147 575 1725 152 575 1726 149 575 1727 188 576 1728 150 576 1729 144 576 1730 282 577 1731 240 577 1732 203 577 1733 204 578 1734 153 578 1735 150 578 1736 164 579 1737 159 579 1738 152 579 1739 189 580 1740 153 580 1741 204 580 1742 163 581 1743 153 581 1744 189 581 1745 152 582 1746 159 582 1747 360 582 1748 202 583 1749 237 583 1750 249 583 1751 149 584 1752 157 584 1753 154 584 1754 387 585 1755 158 585 1756 154 585 1757 386 586 1758 155 586 1759 165 586 1760 156 587 1761 167 587 1762 166 587 1763 391 588 1764 165 588 1765 158 588 1766 165 589 1767 166 589 1768 147 589 1769 151 590 1770 163 590 1771 194 590 1772 163 591 1773 162 591 1774 148 591 1775 147 592 1776 166 592 1777 167 592 1778 182 593 1779 172 593 1780 171 593 1781 180 594 1782 170 594 1783 172 594 1784 181 595 1785 171 595 1786 161 595 1787 173 596 1788 169 596 1789 393 596 1790 393 597 1791 169 597 1792 206 597 1793 394 598 1794 396 598 1795 261 598 1796 388 599 1797 168 599 1798 161 599 1799 389 600 1800 386 600 1801 170 600 1802 218 601 1803 217 601 1804 201 601 1805 151 602 1806 174 602 1807 175 602 1808 191 603 1809 145 603 1810 175 603 1811 232 604 1812 184 604 1813 190 604 1814 192 605 1815 181 605 1816 176 605 1817 191 606 1818 180 606 1819 182 606 1820 193 607 1821 182 607 1822 181 607 1823 232 608 1824 183 608 1825 173 608 1826 183 609 1827 179 609 1828 169 609 1829 169 610 1830 179 610 1831 208 610 1832 261 611 1833 271 611 1834 209 611 1835 168 612 1836 178 612 1837 176 612 1838 162 613 1839 193 613 1840 192 613 1841 145 614 1842 191 614 1843 193 614 1844 148 615 1845 192 615 1846 186 615 1847 233 616 1848 190 616 1849 174 616 1850 180 617 1851 191 617 1852 195 617 1853 213 618 1854 199 618 1855 200 618 1856 233 619 1857 194 619 1858 183 619 1859 194 620 1860 189 620 1861 179 620 1862 179 621 1863 189 621 1864 210 621 1865 271 622 1866 282 622 1867 211 622 1868 178 623 1869 188 623 1870 186 623 1871 199 624 1872 197 624 1873 196 624 1874 200 625 1875 199 625 1876 198 625 1877 221 626 1878 196 626 1879 197 626 1880 217 627 1881 214 627 1882 200 627 1883 222 628 1884 197 628 1885 199 628 1886 229 629 1887 227 629 1888 322 629 1889 209 630 1890 211 630 1891 188 630 1892 225 631 1893 230 631 1894 325 631 1895 228 632 1896 229 632 1897 324 632 1898 224 633 1899 226 633 1900 321 633 1901 208 634 1902 210 634 1903 283 634 1904 207 635 1905 209 635 1906 178 635 1907 394 636 1908 207 636 1909 168 636 1910 149 637 1911 202 637 1912 205 637 1913 210 639 1917 204 639 1918 243 639 1919 243 640 1920 204 640 1921 203 640 1922 211 641 1923 203 641 1924 150 641 1925 152 642 1926 340 642 1927 202 642 1928 231 643 1929 224 643 1930 319 643 1931 226 645 1935 228 645 1936 323 645 1937 175 647 1941 223 647 1942 212 647 1943 223 648 1944 222 648 1945 213 648 1946 184 649 1947 185 649 1948 215 649 1949 215 650 1950 214 650 1951 217 650 1952 174 651 1953 220 651 1954 223 651 1955 220 652 1956 221 652 1957 222 652 1958 195 653 1959 212 653 1960 215 653 1961 212 654 1962 213 654 1963 214 654 1964 190 655 1965 184 655 1966 216 655 1967 219 656 1968 216 656 1969 217 656 1970 219 657 1971 218 657 1972 231 657 1973 190 658 1974 219 658 1975 230 658 1976 220 659 1977 229 659 1978 228 659 1979 221 660 1980 228 660 1981 226 660 1982 190 661 1983 225 661 1984 227 661 1985 174 662 1986 227 662 1987 229 662 1988 198 663 1989 196 663 1990 226 663 1991 218 664 1992 198 664 1993 224 664 1994 399 665 1995 402 665 1996 266 665 1997 237 666 1998 346 666 1999 385 666 2000 187 667 2001 236 667 2002 244 667 2003 254 668 2004 234 668 2005 241 668 2006 245 669 2007 177 669 2008 235 669 2009 278 670 2010 279 670 2011 263 670 2012 238 671 2013 242 671 2014 235 671 2015 187 672 2016 239 672 2017 281 672 2018 369 673 2019 240 673 2020 282 673 2021 298 674 2022 239 674 2023 244 674 2024 242 675 2025 251 675 2026 256 675 2027 299 676 2028 244 676 2029 284 676 2030 284 677 2031 244 677 2032 255 677 2033 367 678 2034 251 678 2035 242 678 2036 374 679 2037 249 679 2038 237 679 2039 245 680 2040 248 680 2041 238 680 2042 400 681 2043 245 681 2044 250 681 2045 401 682 2046 257 682 2047 246 682 2048 258 683 2049 259 683 2050 247 683 2051 250 684 2052 257 684 2053 401 684 2054 235 685 2055 258 685 2056 257 685 2057 289 686 2058 255 686 2059 241 686 2060 236 687 2061 254 687 2062 255 687 2063 235 688 2064 242 688 2065 259 688 2066 264 689 2067 265 689 2068 276 689 2069 276 690 2070 265 690 2071 263 690 2072 269 691 2073 253 691 2074 264 691 2075 403 692 2076 262 692 2077 266 692 2078 301 693 2079 262 693 2080 403 693 2081 375 694 2082 261 694 2083 396 694 2084 253 695 2085 260 695 2086 398 695 2087 252 696 2088 263 696 2089 395 696 2090 313 697 2091 293 697 2092 296 697 2093 268 698 2094 267 698 2095 241 698 2096 286 699 2097 290 699 2098 268 699 2099 285 700 2100 278 700 2101 327 700 2102 280 701 2103 269 701 2104 275 701 2105 276 702 2106 274 702 2107 286 702 2108 275 703 2109 276 703 2110 288 703 2111 266 704 2112 277 704 2113 327 704 2114 262 705 2115 273 705 2116 277 705 2117 303 706 2118 273 706 2119 262 706 2120 376 707 2121 271 707 2122 261 707 2123 269 708 2124 270 708 2125 260 708 2126 287 709 2127 288 709 2128 254 709 2129 288 710 2130 286 710 2131 234 710 2132 187 711 2133 280 711 2134 287 711 2135 267 712 2136 285 712 2137 328 712 2138 274 713 2139 279 713 2140 290 713 2141 295 714 2142 294 714 2143 308 714 2144 277 715 2145 289 715 2146 328 715 2147 273 716 2148 284 716 2149 289 716 2150 305 717 2151 284 717 2152 273 717 2153 377 718 2154 282 718 2155 271 718 2156 280 719 2157 281 719 2158 270 719 2159 291 720 2160 292 720 2161 294 720 2162 293 721 2163 294 721 2164 295 721 2165 292 722 2166 291 722 2167 316 722 2168 312 723 2169 296 723 2170 295 723 2171 294 724 2172 292 724 2173 317 724 2174 281 725 2175 306 725 2176 304 725 2177 371 726 2178 305 726 2179 303 726 2180 270 727 2181 304 727 2182 302 727 2183 260 728 2184 302 728 2185 404 728 2186 238 729 2187 248 729 2188 300 729 2189 373 730 2190 299 730 2191 305 730 2192 298 731 2193 299 731 2194 373 731 2195 239 732 2196 298 732 2197 306 732 2198 297 733 2199 341 733 2200 242 733 2201 307 734 2202 318 734 2203 268 734 2204 308 735 2205 317 735 2206 318 735 2207 278 736 2208 311 736 2209 310 736 2210 312 737 2211 309 737 2212 310 737 2213 318 738 2214 315 738 2215 267 738 2216 317 739 2217 316 739 2218 315 739 2219 310 740 2220 307 740 2221 290 740 2222 309 741 2223 308 741 2224 307 741 2225 285 742 2226 314 742 2227 311 742 2228 314 743 2229 313 743 2230 312 743 2231 314 744 2232 325 744 2233 326 744 2234 285 745 2235 320 745 2236 325 745 2237 323 746 2238 324 746 2239 315 746 2240 321 747 2241 323 747 2242 316 747 2243 322 748 2244 320 748 2245 285 748 2246 324 749 2247 322 749 2248 267 749 2249 293 750 2250 319 750 2251 321 750 2252 313 751 2253 326 751 2254 319 751 2255 369 798 2394 373 798 2395 243 798 2396 243 799 2397 373 799 2398 371 799 2399 283 800 2400 371 800 2401 370 800 2402 306 801 2403 377 801 2404 376 801 2405 304 802 2406 376 802 2407 375 802 2408 404 803 2409 302 803 2410 375 803 2411 297 804 2412 300 804 2413 374 804 2414 298 805 2415 369 805 2416 377 805 2417 372 806 2418 385 806 2419 341 806 2420 404 807 2421 413 807 2422 374 807 2423 398 815 2445 404 815 2446 300 815 2447 399 816 2448 395 816 2449 246 816 2450 400 817 2451 398 817 2452 248 817 2453 413 818 2454 396 818 2455 249 818 2456 405 819 2457 403 819 2458 251 819 2459 251 820 2460 403 820 2461 402 820 2462 397 821 2463 401 821 2464 265 821 2465 265 822 2466 401 822 2467 395 822 2468 253 823 2469 400 823 2470 397 823 2471 256 824 2472 402 824 2473 399 824 2474 205 825 2475 394 825 2476 388 825 2477 155 826 2478 386 826 2479 389 826 2480 157 827 2481 388 827 2482 390 827 2483 249 828 2484 396 828 2485 394 828 2486 159 829 2487 393 829 2488 406 829 2489 392 830 2490 393 830 2491 159 830 2492 172 831 2493 391 831 2494 387 831 2495 170 832 2496 386 832 2497 391 832 2498 171 833 2499 387 833 2500 390 833 2501 389 834 2502 392 834 2503 164 834 2504 227 835 2505 225 835 2506 320 835 2507</p>
        </triangles>
        <triangles material="Paintable-1-material" count="112">
          <input semantic="VERTEX" source="#Cube-mesh-vertices" offset="0"/>
          <input semantic="NORMAL" source="#Cube-mesh-normals" offset="1"/>
          <input semantic="TEXCOORD" source="#Cube-mesh-map-0" offset="2" set="0"/>
          <p>208 216 648 343 216 649 206 216 650 329 222 666 336 222 667 330 222 668 333 224 672 329 224 673 331 224 674 230 334 1002 332 334 1003 325 334 1004 326 335 1005 332 335 1006 330 335 1007 231 336 1008 334 336 1009 230 336 1010 334 337 1011 331 337 1012 332 337 1013 330 338 1014 231 338 1015 326 338 1016 332 339 1017 329 339 1018 330 339 1019 335 340 1020 334 340 1021 336 340 1022 339 341 1023 358 341 1024 345 341 1025 303 342 1026 347 342 1027 356 342 1028 367 343 1029 362 343 1030 363 343 1031 345 344 1032 357 344 1033 350 344 1034 355 345 1035 378 345 1036 380 345 1037 352 346 1038 342 346 1039 354 346 1040 384 347 1041 341 347 1042 367 347 1043 407 348 1044 360 348 1045 406 348 1046 361 349 1047 337 349 1048 358 349 1049 358 350 1050 344 350 1051 357 350 1052 340 351 1053 349 351 1054 360 351 1055 347 352 1056 355 352 1057 356 352 1058 410 353 1059 357 353 1060 411 353 1061 340 354 1062 339 354 1063 346 354 1064 272 355 1065 353 355 1066 208 355 1067 340 356 1068 359 356 1069 361 356 1070 366 357 1071 362 357 1072 368 357 1073 382 358 1074 410 358 1075 412 358 1076 343 359 1077 354 359 1078 342 359 1079 411 360 1080 344 360 1081 407 360 1082 348 361 1083 409 361 1084 408 361 1085 351 362 1086 354 362 1087 353 362 1088 379 363 1089 355 363 1090 380 363 1091 303 364 1092 379 364 1093 370 364 1094 341 365 1095 368 365 1096 367 365 1097 363 366 1098 364 366 1099 365 366 1100 345 367 1101 382 367 1102 381 367 1103 346 368 1104 383 368 1105 385 368 1106 381 369 1107 339 369 1108 345 369 1109 409 370 1110 367 370 1111 363 370 1112 337 371 1113 360 371 1114 344 371 1115 364 372 1116 383 372 1117 381 372 1118 341 373 1119 383 373 1120 366 373 1121 381 374 1122 365 374 1123 364 374 1124 370 375 1125 351 375 1126 272 375 1127 379 376 1128 352 376 1129 351 376 1130 365 377 1131 412 377 1132 408 377 1133 346 378 1134 384 378 1135 349 378 1136 380 379 1137 338 379 1138 352 379 1139 408 390 1170 378 390 1171 348 390 1172 301 391 1173 409 391 1174 347 391 1175 408 392 1176 363 392 1177 365 392 1178 342 393 1179 407 393 1180 343 393 1181 412 394 1182 338 394 1183 378 394 1184 338 395 1185 411 395 1186 342 395 1187 206 396 1188 407 396 1189 406 396 1190 208 638 1914 353 638 1915 343 638 1916 329 644 1932 335 644 1933 336 644 1934 333 646 1938 335 646 1939 329 646 1940 230 752 2256 334 752 2257 332 752 2258 326 753 2259 325 753 2260 332 753 2261 231 754 2262 336 754 2263 334 754 2264 334 755 2265 333 755 2266 331 755 2267 330 756 2268 336 756 2269 231 756 2270 332 757 2271 331 757 2272 329 757 2273 335 758 2274 333 758 2275 334 758 2276 339 759 2277 361 759 2278 358 759 2279 303 760 2280 301 760 2281 347 760 2282 367 761 2283 368 761 2284 362 761 2285 345 762 2286 358 762 2287 357 762 2288 355 763 2289 348 763 2290 378 763 2291 352 764 2292 338 764 2293 342 764 2294 384 765 2295 385 765 2296 341 765 2297 407 766 2298 344 766 2299 360 766 2300 361 767 2301 359 767 2302 337 767 2303 358 768 2304 337 768 2305 344 768 2306 340 769 2307 346 769 2308 349 769 2309 347 770 2310 348 770 2311 355 770 2312 410 771 2313 350 771 2314 357 771 2315 340 772 2316 361 772 2317 339 772 2318 272 773 2319 351 773 2320 353 773 2321 340 774 2322 360 774 2323 359 774 2324 366 775 2325 364 775 2326 362 775 2327 382 776 2328 350 776 2329 410 776 2330 343 777 2331 353 777 2332 354 777 2333 411 778 2334 357 778 2335 344 778 2336 348 779 2337 347 779 2338 409 779 2339 351 780 2340 352 780 2341 354 780 2342 379 781 2343 356 781 2344 355 781 2345 303 782 2346 356 782 2347 379 782 2348 341 783 2349 366 783 2350 368 783 2351 363 784 2352 362 784 2353 364 784 2354 345 785 2355 350 785 2356 382 785 2357 346 786 2358 339 786 2359 383 786 2360 381 787 2361 383 787 2362 339 787 2363 409 788 2364 405 788 2365 367 788 2366 337 789 2367 359 789 2368 360 789 2369 364 790 2370 366 790 2371 383 790 2372 341 791 2373 385 791 2374 383 791 2375 381 792 2376 382 792 2377 365 792 2378 370 793 2379 379 793 2380 351 793 2381 379 794 2382 380 794 2383 352 794 2384 365 795 2385 382 795 2386 412 795 2387 346 796 2388 385 796 2389 384 796 2390 380 797 2391 378 797 2392 338 797 2393 408 808 2424 412 808 2425 378 808 2426 301 809 2427 405 809 2428 409 809 2429 408 810 2430 409 810 2431 363 810 2432 342 811 2433 411 811 2434 407 811 2435 412 812 2436 410 812 2437 338 812 2438 338 813 2439 410 813 2440 411 813 2441 206 814 2442 343 814 2443 407 814 2444</p>
        </triangles>
      </mesh>
    </geometry>
  </library_geometries>
  <library_visual_scenes>
    <visual_scene id="Scene" name="Scene">
      <node id="Cube" name="Cube" type="NODE">
        <matrix sid="transform">1 0 0 0 0 1 0 0 0 0 1 0 0 0 0 1</matrix>
        <instance_geometry url="#Cube-mesh" name="Cube">
          <bind_material>
            <technique_common>
              <instance_material symbol="Paintable-0-material" target="#Paintable-0-material">
                <bind_vertex_input semantic="UVMap" input_semantic="TEXCOORD" input_set="0"/>
              </instance_material>
              <instance_material symbol="Paintable-1-material" target="#Paintable-1-material">
                <bind_vertex_input semantic="UVMap" input_semantic="TEXCOORD" input_set="0"/>
              </instance_material>
            </technique_common>
          </bind_material>
        </instance_geometry>
      </node>
    </visual_scene>
  </library_visual_scenes>
  <scene>
    <instance_visual_scene url="#Scene"/>
  </scene>
</COLLADA>