<?xml version="1.0" encoding="utf-8"?>
<COLLADA xmlns="http://www.collada.org/2005/11/COLLADASchema" version="1.4.1" xmlns:xsi="http://www.w3.org/2001/XMLSchema-instance">
  <asset>
    <contributor>
      <author>Blender User</author>
      <authoring_tool>Blender 4.2.23 LTS commit date:2026-07-20, commit time:13:44, hash:d0cbe84903e8</authoring_tool>
    </contributor>
    <created>2026-08-08T20:40:19</created>
    <modified>2026-08-08T20:40:19</modified>
    <unit name="meter" meter="1"/>
    <up_axis>Z_UP</up_axis>
  </asset>
  <library_effects>
    <effect id="Paintable-0-effect">
      <profile_COMMON>
        <technique sid="common">
          <lambert>
            <emission>
              <color sid="emission">0 0 0 1</color>
            </emission>
            <diffuse>
              <color sid="diffuse">1 0.4969335 0 1</color>
            </diffuse>
            <index_of_refraction>
              <float sid="ior">1.45</float>
            </index_of_refraction>
          </lambert>
        </technique>
      </profile_COMMON>
    </effect>
    <effect id="Paintable-1-effect">
      <profile_COMMON>
        <technique sid="common">
          <lambert>
            <emission>
              <color sid="emission">0 0 0 1</color>
            </emission>
            <diffuse>
              <color sid="diffuse">0.6104922 0.4910214 0 1</color>
            </diffuse>
            <index_of_refraction>
              <float sid="ior">1.5</float>
            </index_of_refraction>
          </lambert>
        </technique>
      </profile_COMMON>
    </effect>
  </library_effects>
  <library_images/>
  <library_materials>
    <material id="Paintable-0-material" name="Paintable-0">
      <instance_effect url="#Paintable-0-effect"/>
    </material>
    <material id="Paintable-1-material" name="Paintable-1">
      <instance_effect url="#Paintable-1-effect"/>
    </material>
  </library_materials>
  <library_geometries>
    <geometry id="Cube-mesh" name="Cube">
      <mesh>
        <source id="Cube-mesh-positions">
          <float_array id="Cube-mesh-positions-array" count="810">-0.125 -0.375 -0.125 -0.125 -0.375 -0.07499998 -0.125 0.125 -0.125 -0.125 0.125 -0.115 -0.125 -0.375 -0.115 -0.115 0.125 -0.125 -0.115 -0.375 -0.125 -0.115 -0.375 -0.07499998 -0.115 0.125 -0.115 -0.115 -0.375 -0.115 -0.125 0.115 -0.125 -0.125 0.115 -0.07499998 -0.115 0.115 -0.07499998 -0.115 0.115 -0.125 -0.125 0.115 -0.115 -0.115 0.115 -0.115 -0.115 -0.125 -0.07499998 -0.125 -0.125 -0.125 -0.125 -0.375 -0.08499997 -0.115 -0.375 -0.08499997 -0.115 0.115 -0.08499997 -0.125 0.115 -0.08499997 -0.125 0.125 -0.08499997 -0.115 0.125 -0.08499997 -0.115 -0.125 -0.125 -0.115 -0.125 -0.115 -0.125 -0.125 -0.07499998 -0.125 -0.125 -0.115 -0.125 -0.125 -0.08499997 -0.115 -0.125 -0.08499997 -0.1149999 -0.3249999 0.02499997 -0.1249999 -0.3249999 0.02499997 -0.125 -0.275 -0.125 0.375 0.1250004 -0.125 -0.115 -0.275 -0.125 -0.115 -0.275 -0.115 -0.125 -0.275 -0.07499998 -0.125 -0.275 -0.115 -0.125 -0.275 -0.08499997 -0.115 -0.275 -0.08499997 -0.1149999 -0.275 0.02499997 -0.1249999 -0.275 0.02499997 -0.125 -0.365 -0.125 0.375 -0.3749996 -0.125 -0.115 -0.365 -0.125 -0.115 -0.365 -0.115 -0.1149999 -0.3149999 0.02499997 -0.125 -0.365 -0.07499998 -0.125 -0.365 -0.115 -0.125 -0.365 -0.08499997 -0.115 -0.365 -0.08499997 -0.1249999 -0.3149999 0.02499997 -0.1149997 -0.375 0.375 -0.1249997 -0.375 0.375 -0.1149997 -0.365 0.375 -0.1249997 -0.365 0.375 -0.1249997 -0.325 0.375 -0.1149997 -0.325 0.375 -0.08671569 0.125 -0.125 -0.105 -0.375 -0.125 -0.105 -0.375 -0.115 -0.105 0.115 -0.125 -0.105 -0.125 -0.115 -0.105 -0.125 -0.125 -0.105 -0.275 -0.115 -0.105 -0.275 -0.125 -0.105 -0.365 -0.115 -0.105 -0.365 -0.125 -0.1249998 -0.3164285 0.03499996 -0.1249998 -0.3635714 0.365 -0.1249998 -0.3235715 0.365 -0.1249998 -0.2764286 0.03499996 -0.1149998 -0.2764286 0.03499996 -0.1149998 -0.3235715 0.365 -0.1149998 -0.3635714 0.365 -0.1149998 -0.3164285 0.03499996 -0.1149998 -0.3264285 0.03499996 -0.1149998 -0.3735713 0.365 -0.1249998 -0.3735713 0.365 -0.1249998 -0.3264285 0.03499996 -0.1049997 -0.3649999 0.375 -0.1049999 -0.3149999 0.02499991 -0.1049997 -0.3749999 0.375 -0.1049999 -0.3249999 0.02499991 -0.1049998 -0.3735713 0.365 -0.1049998 -0.3264285 0.0349999 -0.1049998 -0.3164285 0.0349999 -0.1049998 -0.3635714 0.365 -0.1149999 -0.275 -0.07499998 -0.1149999 -0.365 -0.07499998 0.375 -0.375 -0.07499998 0.375 0.125 -0.115 0.375 -0.375 -0.115 -0.04499995 0.125 -0.125 0.365 0.125 -0.125 0.365 -0.375 -0.125 -0.04499995 -0.375 -0.125 0.365 -0.375 -0.07499998 0.365 0.125 -0.115 -0.04499995 -0.375 -0.115 0.365 -0.375 -0.115 0.375 0.1150004 -0.125 0.375 0.115 -0.07499998 0.365 0.115 -0.07499998 0.365 0.115 -0.125 -0.04499995 0.115 -0.125 0.375 0.115 -0.115 0.365 0.115 -0.115 0.365 -0.125 -0.07499998 0.375 -0.1249996 -0.125 0.375 -0.375 -0.08499997 0.365 -0.375 -0.08499997 0.365 0.115 -0.08499997 0.375 0.115 -0.08499997 0.375 0.125 -0.08499997 0.365 0.125 -0.08499997 0.365 -0.125 -0.125 -0.04499995 -0.125 -0.125 0.365 -0.125 -0.115 0.375 -0.1250001 -0.07499998 0.375 -0.125 -0.115 0.375 -0.125 -0.08499997 0.365 -0.125 -0.08499997 0.3649999 -0.3249999 0.02499997 0.375 -0.3249999 0.02499997 0.375 -0.2749996 -0.125 0.365 -0.275 -0.125 -0.04499995 -0.275 -0.125 -0.04499995 -0.275 -0.115 0.365 -0.275 -0.115 0.375 -0.275 -0.07499998 0.375 -0.275 -0.115 0.375 -0.275 -0.08499997 0.365 -0.275 -0.08499997 0.3649999 -0.275 0.02499997 0.375 -0.275 0.02499997 0.375 -0.3649996 -0.125 0.365 -0.365 -0.125 -0.04499995 -0.365 -0.125 -0.04499995 -0.365 -0.115 0.365 -0.365 -0.115 0.3649999 -0.3149999 0.02499997 0.375 -0.365 -0.07499998 0.375 -0.365 -0.115 0.375 -0.365 -0.08499997 0.365 -0.365 -0.08499997 0.375 -0.3149999 0.02499997 0.3649998 -0.375 0.375 0.3749998 -0.375 0.375 0.3649998 -0.365 0.375 0.3749998 -0.365 0.375 0.3749998 -0.325 0.375 0.3649998 -0.325 0.375 0.3367157 0.125 -0.125 0.355 -0.375 -0.125 0.355 -0.375 -0.115 0.355 0.115 -0.125 0.355 -0.125 -0.115 0.355 -0.125 -0.125 0.355 -0.275 -0.115 0.355 -0.275 -0.125 0.355 -0.365 -0.115 0.355 -0.365 -0.125 0.3749999 -0.3164285 0.03499996 0.3749998 -0.3635714 0.365 0.3749998 -0.3235715 0.365 0.3749999 -0.2764286 0.03499996 0.3649999 -0.2764286 0.03499996 0.3649998 -0.3235715 0.365 0.3649998 -0.3635714 0.365 0.3649999 -0.3164285 0.03499996 0.3649999 -0.3264285 0.03499996 0.3649998 -0.3735713 0.365 0.3749998 -0.3735713 0.365 0.3749999 -0.3264285 0.03499996 0.3549998 -0.3649999 0.375 0.3549999 -0.3149999 0.02499991 0.3549998 -0.3749999 0.375 0.3549999 -0.3249999 0.02499991 0.3549998 -0.3735713 0.365 0.3549999 -0.3264285 0.0349999 0.3549998 -0.3164285 0.0349999 0.3549998 -0.3635714 0.365 0.3649999 -0.275 -0.07499998 0.3649999 -0.365 -0.07499998 0.3249998 -0.2711288 0.3479014 0.3549998 -0.3050699 0.3733573 0.3249999 -0.2324712 0.07729834 0.3549998 -0.2579271 0.04335725 -0.07499986 -0.2324712 0.07729834 -0.1049998 -0.2579271 0.04335725 -0.0749998 -0.2711288 0.3479014 -0.1049998 -0.3050699 0.3733573 -0.105 0.135 -0.05690169 -0.04499995 -0.1500034 -0.03499996 -0.04499995 0.145 -0.09499996 -0.08671569 0.125 -0.115 0.3367157 0.125 -0.115 -0.09499996 -0.1500034 -0.03499996 -0.105 -0.1500034 -0.04500001 -0.105 0.115 -0.03499996 -0.04499995 0.145 -0.04672878 -0.04499995 0.125 -0.115 0.355 -0.1500034 -0.04500001 0.345 -0.1500034 -0.03499996 -0.04499995 0.115 -0.115 -0.04499995 0.1232712 -0.02499997 -0.04499995 -0.275 -0.03499996 -0.04499995 -0.2650001 -0.02499997 -0.105 -0.275 -0.03499996 -0.09499996 -0.2650001 -0.02499997 0.345 -0.2650001 -0.02499997 0.355 -0.275 -0.03499996 -0.09499996 0.123202 -0.02499997 -0.09499996 0.145 -0.04679793 -0.105 0.135 -0.09499996 -0.105 0.115 -0.115 -0.09499996 0.145 -0.09499996 0.355 0.135 -0.05690169 0.355 0.115 -0.03499996 0.345 0.145 -0.04679793 0.345 0.123202 -0.02499997 0.345 0.145 -0.09499996 0.355 0.115 -0.115 0.355 0.135 -0.09499996 0.295 -0.375 -0.125 0.295 -0.275 -0.115 0.295 -0.365 -0.115 0.295 0.125 -0.125 0.295 -0.375 -0.115 0.295 0.115 -0.125 0.295 -0.125 -0.125 0.295 -0.275 -0.125 0.295 -0.365 -0.125 0.295 -0.1500034 -0.03499996 0.295 -0.275 -0.03499996 0.295 -0.2650001 -0.02499997 0.295 0.145 -0.04676336 0.295 0.1232366 -0.02499997 0.295 0.145 -0.09499996 0.295 0.115 -0.115 0.295 0.125 -0.115 -0.125 -0.1000018 -0.07499998 -0.125 -0.1000018 -0.115 -0.115 -0.1000019 -0.125 -0.115 -0.1000019 -0.07499998 -0.125 -0.1000019 -0.125 -0.125 -0.1000018 -0.08499997 -0.115 -0.1000018 -0.08499997 -0.115 -0.1000019 -0.115 -0.105 -0.1000019 -0.125 0.375 -0.1000019 -0.07499998 -0.04499995 -0.1000018 -0.125 0.375 -0.1000018 -0.115 0.365 -0.1000019 -0.125 0.365 -0.1000019 -0.07499998 0.375 -0.1000014 -0.125 0.375 -0.1000018 -0.08499997 0.365 -0.1000018 -0.08499997 0.365 -0.1000019 -0.115 0.355 -0.1000019 -0.125 0.355 -0.1000019 -0.115 -0.105 -0.1000019 -0.115 -0.105 -0.07500529 -0.04499995 0.345 -0.07500529 -0.03499996 0.355 -0.07500529 -0.04499995 -0.04499995 -0.07497072 -0.03499996 -0.09499996 -0.07500529 -0.03499996 0.295 -0.07498764 -0.03499996 0.295 -0.1000018 -0.125</float_array>
          <technique_common>
            <accessor source="#Cube-mesh-positions-array" count="270" stride="3">
              <param name="X" type="float"/>
              <param name="Y" type="float"/>
              <param name="Z" type="float"/>
            </accessor>
          </technique_common>
        </source>
        <source id="Cube-mesh-normals">
          <float_array id="Cube-mesh-normals-array" count="1626">1 0 0 0 1 0 0 -1 0 0 -1 0 -1 0 0 5.16605e-7 0.5547003 0.8320503 0 1 0 0 0 -1 0 0 -1 0 -1 0 1 0 0 -7.45057e-7 0 1 1 0 0 -2.63418e-7 4.81641e-7 1 0 0 -1 0 0 -1 -1 0 0 -1 0 0 -1 0 0 5.14488e-7 0.7071071 0.7071065 -1 0 0 -1 0 0 1 -7.45059e-6 -7.45058e-6 1 0 0 0 -1 0 0 1 0 -1 0 0 -1 0 0 -1 0 0 1 0 0 -7.45057e-7 0 1 0 0 -1 0 0 -1 7.45058e-7 0 1 1 0 -5.21541e-6 1 4.96705e-7 0 4.165e-7 -0.894427 0.4472141 -1 0 7.45058e-7 -1 0 7.45058e-7 1 0 0 -1 0 0 -1 0 0 -1 0 0 1 4.96705e-7 0 1 0 0 -7.45057e-7 0 1 0 0 -1 0 0 -1 -1 0 0 -1 0 0 -1 0 0 1 -7.45059e-6 2.98024e-6 -1 0 7.45058e-7 -1 1.86265e-7 5.24202e-6 1 0 -7.45058e-6 1 0 0 -7.45057e-7 0 1 0 0 -1 0 0 -1 0 0 1 0 0 1 0 -0.9899486 -0.1414275 0 0.9899495 0.1414217 -1 -7.45059e-7 5.85403e-6 0 -0.9899495 -0.1414216 0 0 -1 0 0.9899494 0.1414217 0 -0.9899495 -0.1414213 0 0 1 0 0 1 0 0 -1 0 0 -1 0 0 -1 -1 0 0 0 0 1 0 -1 0 0 0 -1 0 1 0 0 0.9899495 0.1414217 0 0.6000003 0.7999997 0 -0.9899494 -0.1414217 0 0.9899495 0.1414213 -1 0 5.21541e-6 -1 -7.45059e-7 0 0 0.9899495 0.1414215 0 0.9899495 0.1414213 0 -0.9899495 -0.1414216 0 -0.9899495 -0.1414213 -1 0 5.96047e-6 -1 1.86265e-7 1.84652e-7 1 0 -5.21541e-6 1 0 -1.8062e-7 2.79383e-7 0.9899496 0.1414213 7.92312e-7 0.9899495 0.1414217 2.10735e-6 -0.9899495 -0.1414213 2.10734e-6 -0.9899495 -0.1414217 -5.58794e-6 0 -1 -8.42939e-7 -0.9899495 -0.1414215 5.96047e-6 0 1 -2.10683e-6 0.9899495 0.1414217 -1 0 0 0 1 0 4.17233e-5 -1 0 0 -1 0 1 0 0 2.68635e-6 0.5547003 0.8320503 -4.32134e-5 1 4.32134e-5 0 0 -1 0 0 -1 0 -1 0 -1 0 0 7.45057e-7 0 1 -1 0 0 2.63417e-7 4.81641e-7 1 0 0 -1 0 0 -1 1 0 0 1 0 0 1 0 0 -5.26836e-7 0.7071071 0.7071066 1 0 0 1 0 0 -1 -8.94071e-6 -8.9407e-6 -1 0 0 0 -1 0 0 1 0 1 0 0 1 0 0 1 0 0 -1 0 0 7.45057e-7 0 1 0 0 -1 0 0 -1 -7.45059e-7 0 1 -1 0 -5.96047e-6 -1 5.96046e-7 0 -3.33201e-7 -0.894427 0.4472141 1 0 5.96046e-7 1 0 5.96046e-7 -1 0 0 1 0 0 1 0 0 1 0 0 -1 5.96046e-7 0 -1 0 0 7.45057e-7 0 1 0 0 -1 0 0 -1 1 0 0 1 0 0 1 0 0 -1 -8.94071e-6 3.57629e-6 1 0 5.96046e-7 1 0 5.96047e-6 -1 0 -8.9407e-6 -1 0 0 7.45057e-7 0 1 0 0 -1 0 0 -1 0 0 1 0 0 1 0 -0.9899486 -0.1414275 0 0.9899495 0.1414217 1 0 5.96047e-6 0 0 -1 0 0 1 0 0 -1 0 0 -1 0 0 -1 0 0 1 0 -1 0 0 0 -1 0 1 0 1 0 5.96046e-6 1 0 1.8062e-7 0 0.9899495 0.1414216 0 0.9899495 0.1414213 0 -0.9899495 -0.1414216 0 -0.9899495 -0.1414213 1 0 5.96046e-6 1 0 1.8062e-7 -1 0 -2.98023e-6 -1 0 -1.8062e-7 2.10734e-6 0.9899495 0.1414213 -8.42938e-7 0.9899495 0.1414217 -2.23506e-6 -0.9899495 -0.1414213 -2.10683e-6 -0.9899495 -0.1414217 5.96047e-6 0 -1 8.37329e-7 -0.9899495 -0.1414215 -5.96047e-6 0 1 2.10734e-6 0.9899495 0.1414217 0 0.1414213 -0.9899495 1 0 0 -1 0 1.54882e-7 0 0.8 -0.6000002 0 -0.1414213 0.9899495 0.7071067 0.7000002 0.1 -0.7071067 0.7000001 0.1 0 1 0 1 0 0 1 0 0 -9.77806e-4 0.7071063 0.7071065 0 0.08663213 0.9962404 0 0.08663213 0.9962404 0 0 -1 -1 0 0 -0.707107 0.7071065 0 -0.7896678 0.4338345 0.4338344 0 0 -1 0.7326802 0.0542739 0.6784055 3.48438e-5 -0.05038809 0.9987297 -2.46664e-7 0.7071068 -0.7071068 0 -1 0 -0.5 0.4999997 -0.707107 0.7071073 0.7071062 0 -2.50848e-6 -0.0503838 0.99873 -0.7057739 0.06137341 0.7057737 -0.7066175 -0.0371893 0.7066177 0.7071071 0 0.7071065 0 -0.7071072 0.7071064 0 -0.7071072 0.7071064 0 -1 0 0.3606956 0.6595069 -0.6595069 0.789668 0.4338343 0.4338343 7.19047e-5 0.7071067 0.7071068 0 0.7071065 -0.7071071 0 1 0 1 0 0 -1 0 0 0 1 0 0 0.7071065 -0.707107 4.89008e-4 0.7071068 0.7071067 0 -1 0 0 -0.7071072 0.7071064 -1.7795e-5 -0.05038809 0.9987297 0 0 -1 0 0.08663213 0.9962404 0 -1 0 0 0 1 0 0 1 0 0 -1 0 0 -1 0 0 -1 0 0 -1 0 0 -1 0 1 0 0 0 -1 0 0 1 1 0 0 0.6915547 -0.03639656 0.7214066 -0.7071069 0 0.7071067 0 0 1 0 0 1 -1 0 0 0 0 -1 -7.45059e-7 0 1 0 0 -1 0 0 -1 7.45057e-7 0 1 -1 0 0 1 0 0 1 0 0 1 0 0 -1 0 0 0 0 -1 7.45058e-7 0 1 0 0 -1 0 0 -1 -7.45057e-7 0 1 1 0 0 -1 0 0 -1 0 0 -1 0 0 1 0 0 0 0 -1 1 0 0 -3.57207e-7 1 -1.49012e-6 0 -1 0 0 -1 0 -1 0 0 6.19926e-7 0.5547003 0.8320503 0 1 0 0 0 -1 0 0 -1 0 -1 0 1 0 0 -7.45058e-7 0 1 1 0 0 -7.45057e-7 0 1 0 0 -1 0 0 -1 -1 0 0 -1 0 0 5.26835e-7 0.7071071 0.7071065 -1 0 0 -1 0 0 1 0 0 0 -1 0 0 1 0 -1 0 0 -1 0 0 -1 0 0 1 0 0 -7.45057e-7 0 1 0 0 -1 0 0 -1 7.45058e-7 0 1 1 0 -5.21541e-6 3.33201e-7 -0.894427 0.4472141 -1 0 7.45058e-7 1 0 0 -1 0 0 -1 0 0 -1 0 0 1 0 -7.45058e-6 1 0 0 -7.45057e-7 0 1 0 0 -1 0 0 -1 -1 0 0 -1 0 0 -1 0 0 1 0 0 -1 0 7.45058e-7 -1 0 5.96047e-6 1 0 -7.45058e-6 1 0 0 -7.45057e-7 0 1 0 0 -1 0 0 -1 0 0 1 0 0 1 5.90056e-6 -0.9899495 -0.1414217 0 0.9899495 0.1414217 -1 0 5.21541e-6 0 -0.9899494 -0.1414216 0 0 -1 0 0.9899495 0.1414217 0 -0.9899495 -0.1414213 0 0 1 0 0 1 0 0 -1 0 0 -1 0 0 -1 -1 0 0 0 0 1 0 -1 0 0 0 -1 0 1 0 0 0.9899494 0.1414217 0 0.6000003 0.7999997 0 -0.9899495 -0.1414217 0 0.9899495 0.1414213 -1 -7.45061e-7 5.85403e-6 -1 -7.45059e-7 0 0 0.9899495 0.1414216 0 0.9899495 0.1414213 0 -0.9899495 -0.1414215 0 -0.9899495 -0.1414213 -1 1.86265e-7 5.24201e-6 -1 1.86265e-7 1.84652e-7 1 0 -5.2154e-6 1 0 -1.8062e-7 -2.10734e-6 0.9899495 0.1414213 7.37572e-7 0.9899495 0.1414217 -8.42937e-7 -0.9899495 -0.1414213 2.10734e-6 -0.9899494 -0.1414217 -5.58794e-6 0 -1 -7.90256e-7 -0.9899495 -0.1414216 5.96047e-6 0 1 -2.10734e-6 0.9899495 0.1414217 -1 0 0 0 1 -1.49012e-6 0 -1 -4.17233e-5 0 -1 0 1 0 0 0 0.5547004 0.8320502 0 1 0 0 0 -1 0 0 -1 0 -1 0 -1 0 0 7.45057e-7 0 1 -1 0 0 7.45057e-7 0 1 0 0 -1 0 0 -1 1 0 0 1 0 0 -5.26836e-7 0.7071071 0.7071066 1 0 0 1 0 0 -1 0 0 0 -1 0 0 1 0 1 0 0 1 0 0 1 0 0 -1 0 0 7.45057e-7 0 1 0 0 -1 0 0 -1 -7.45059e-7 0 1 -1 0 -5.96047e-6 0 -0.894427 0.4472141 1 0 5.96046e-7 -1 0 0 1 0 0 1 0 0 1 0 0 -1 0 -8.9407e-6 -1 0 0 7.45057e-7 0 1 0 0 -1 0 0 -1 1 0 0 1 0 0 1 0 0 -1 0 0 1 0 5.96046e-7 1 0 5.96047e-6 -1 0 -8.9407e-6 -1 0 0 7.45057e-7 0 1 0 0 -1 0 0 -1 0 0 1 0 0 1 -5.90056e-6 -0.9899495 -0.1414217 0 0.9899495 0.1414217 1 0 5.96047e-6 0 0 -1 0 0 1 0 0 -1 0 0 -1 0 0 -1 0 0 1 0 -1 0 0 0 -1 0 1 0 1 0 5.96046e-6 1 0 1.8062e-7 0 0.9899495 0.1414215 0 0.9899495 0.1414213 0 -0.9899495 -0.1414215 0 -0.9899495 -0.1414213 1 0 5.96046e-6 1 0 1.8062e-7 -1 0 -2.98023e-6 -1 0 -1.8062e-7 -8.42935e-7 0.9899495 0.1414212 -8.4294e-7 0.9899495 0.1414217 8.42937e-7 -0.9899495 -0.1414213 -2.10734e-6 -0.9899495 -0.1414217 5.96047e-6 0 -1 8.42939e-7 -0.9899495 -0.1414215 -5.96047e-6 0 1 2.10734e-6 0.9899495 0.1414217 0 0.1414213 -0.9899495 1 0 0 -1 0 1.54882e-7 0 0.7999998 -0.6000001 0 -0.1414213 0.9899495 0.7071068 0.6999999 0.1 -0.7071069 0.6999999 0.1 0 1 0 1 0 0 1 0 0 -9.77965e-4 0.7071065 0.7071064 0 0.08663213 0.9962404 0 0.08663213 0.9962404 0 0 -1 -1 0 0 -0.707107 0.7071065 0 -0.817559 0.4252261 0.3883042 0 0 -1 0.7057742 0.06137335 0.7057734 6.9666e-5 -0.05037933 0.9987302 0 0.7071065 -0.7071071 0 -1 0 -0.3606958 0.6595069 -0.6595069 0.7071073 0.7071062 0 -5.1225e-6 -0.05037933 0.9987301 -0.73268 0.0542739 0.6784058 -0.6915544 -0.03639656 0.7214068 0.7071072 0 0.7071064 0 -0.7071072 0.7071064 0 -0.7071071 0.7071064 0 -1 0 0.5000001 0.4999993 -0.7071073 0.817559 0.4252259 0.3883042 7.18975e-5 0.7071067 0.7071069 0 0.7071068 -0.7071068 0 1 0 1 0 0 -1 0 0 0 1 0 0 0.7071065 -0.707107 4.88904e-4 0.7071067 0.7071068 0 -1 0 0 -0.7071072 0.7071064 -3.48361e-5 -0.0503838 0.9987299 0 0 -1 0 0.08663213 0.9962404 0 -1 0 0 0 1 0 0 1 0 0 -1 0 0 -1 0 0 -1 0 0 -1 0 0 -1 0 1 0 0 0 -1 0 0 1 1 0 0 0.706618 -0.0371893 0.7066174 -0.7071068 0 0.7071068 0 0 1 0 0 1 -1 0 0 0 0 -1 -7.45059e-7 0 1 0 0 -1 0 0 -1 7.45057e-7 0 1 -1 0 0 1 0 0 1 0 0 1 0 0 -1 0 0 0 0 -1 7.45058e-7 0 1 0 0 -1 0 0 -1 -7.45057e-7 0 1 1 0 0 -1 0 0 -1 0 0 -1 0 0 1 0 0 0 0 -1</float_array>
          <technique_common>
            <accessor source="#Cube-mesh-normals-array" count="542" stride="3">
              <param name="X" type="float"/>
              <param name="Y" type="float"/>
              <param name="Z" type="float"/>
            </accessor>
          </technique_common>
        </source>
        <source id="Cube-mesh-map-0">
          <float_array id="Cube-mesh-map-0-array" count="3252">0.7916666 0.6562499 0.7916666 0.6875 0.7916666 0.65625 0.5 0.3783124 0.375 0.4166666 0.375 0.375 0.5 0.9166666 0.375 1 0.375 0.9166666 0.625 0.9166666 0.5625 1 0.5625 0.9166666 0.5 0.125 0.375 0.25 0.375 0.125 0.875 0.6875 0.7916666 0.6875 0.7916666 0.6875 0.5 0.25 0.375 0.3333333 0.375 0.25 0.2083333 0.734375 0.125 0.75 0.125 0.734375 0.2916666 0.734375 0.25 0.75 0.25 0.7343751 0.5 0.8750001 0.375 0.9166666 0.375 0.875 0.7916666 0.625 0.7916666 0.5 0.7916666 0.5 0.7916666 0.734375 0.75 0.75 0.7500001 0.7343751 0.7916666 0.75 0.7916666 0.734375 0.7916666 0.734375 0.7916666 0.5 0.75 0.625 0.75 0.5 0.25 0.5 0.2916666 0.625 0.25 0.625 0.2083333 0.5 0.125 0.625 0.125 0.5 0.5625 0.185 0.625 0.245 0.546875 0.25 0.5 0.09375 0.375 0.125 0.375 0.09375 0.625 0.09375 0.5625 0.125 0.5625 0.09375 0.625 0.3333333 0.59375 0.25 0.625 0.25 0.5625 0.09375 0.5 0.125 0.5 0.09375 0.5625 0.185 0.5 0.25 0.5 0.125 0.7916666 0.75 0.7916666 0.734375 0.7916666 0.734375 0.7916666 0.5 0.7916666 0.625 0.7916666 0.625 0.5625 0.9166666 0.5 1 0.5 0.9166666 0.5 0.25 0.546875 0.3333333 0.5 0.3333333 0.5625 0.03125 0.5 0.0625 0.5 0.03125 0.6250001 0.03125 0.5625 0.0625 0.5625 0.03125 0.5 0.03125 0.375 0.0625 0.375 0.03125 0.7916666 0.6875 0.7916666 0.65625 0.7916666 0.65625 0.7916666 0.65625 0.75 0.6875 0.75 0.65625 0.25 0.65625 0.2916666 0.6875 0.25 0.6875 0.2083333 0.65625 0.125 0.6875 0.125 0.65625 0.7916666 0.6562499 0.875 0.6875 0.7916666 0.6875 0.7916667 0.734375 0.7916667 0.71875 0.7916666 0.734375 0.7916666 0.71875 0.7916666 0.6875 0.7916667 0.71875 0.625 0.9166666 0.625 1 0.625 1 0.625 0.015625 0.625 0 0.625 0.015625 0.625 0.0625 0.6250001 0.03125 0.625 0.0625 0.7916666 0.71875 0.7916666 0.734375 0.7916666 0.7287946 0.5 0.015625 0.375 0.03125 0.375 0.015625 0.625 0.015625 0.5625 0.03125 0.5625 0.015625 0.5625 0.015625 0.5 0.03125 0.5 0.015625 0.7916666 0.71875 0.7916666 0.6875 0.7916666 0.6875 0.7916666 0.71875 0.7916666 0.6875 0.7916666 0.6875 0.7916666 0.6875 0.75 0.71875 0.75 0.6875 0.2916666 0.6875 0.25 0.71875 0.25 0.6875 0.2083333 0.6875 0.125 0.71875 0.125 0.6875 0.5625 0 0.5 0.015625 0.5 0 0.625 0 0.5625 0.015625 0.5625 0 0.5 0 0.375 0.015625 0.375 0 0.7916666 0.734375 0.7916666 0.75 0.7916666 0.75 0.6250001 0.03125 0.625 0.015625 0.625 0.03125 0.625 0.015625 0.625 0.03125 0.625 0.03125 0.7916666 0.734375 0.7916666 0.71875 0.7916666 0.71875 0.7916666 0.734375 0.7916666 0.71875 0.7916666 0.71875 0.7916666 0.71875 0.7500001 0.7343751 0.75 0.71875 0.2916666 0.71875 0.25 0.7343751 0.25 0.71875 0.2083333 0.71875 0.125 0.734375 0.125 0.71875 0.875 0.734375 0.7916666 0.75 0.7916666 0.734375 0.875 0.71875 0.7916666 0.734375 0.7916667 0.71875 0.6249999 0.9166665 0.625 1 0.625 1 0.7916666 0.71875 0.875 0.71875 0.7916667 0.71875 0.625 0 0.625 0.015625 0.625 0.015625 0.625 0.9166665 0.625 0.9166666 0.625 0.9166665 0.25 0.71875 0.2083333 0.734375 0.2083333 0.71875 0.7916666 0.734375 0.7916666 0.734375 0.7916666 0.734375 0.625 0.9166666 0.625 0.9166665 0.625 0.9166666 0.7916666 0.734375 0.7916666 0.75 0.7916666 0.734375 0.75 0.71875 0.7083333 0.734375 0.7083333 0.71875 0.25 0.6875 0.2083333 0.71875 0.2083333 0.6875 0.25 0.65625 0.2083333 0.6875 0.2083333 0.65625 0.2083333 0.5 0.25 0.625 0.2083333 0.625 0.75 0.71875 0.75 0.6875 0.75 0.6875 0.7500001 0.7343751 0.7083333 0.75 0.7083333 0.734375 0.5 0.8333334 0.375 0.875 0.375 0.8333333 0.25 0.7343751 0.2083333 0.75 0.2083333 0.734375 0.5 0.3333333 0.375 0.375 0.375 0.3333333 0.7916666 0.734375 0.7916666 0.734375 0.7916666 0.734375 0.7916666 0.734375 0.7916666 0.734375 0.7916666 0.734375 0.625 0.9166666 0.625 0.9166666 0.625 0.9166666 0.7916666 0.734375 0.7916666 0.734375 0.7916666 0.7343751 0.625 0 0.625 0.015625 0.625 0.015625 0.625 0 0.625 0.015625 0.625 0.015625 0.7916667 0.71875 0.875 0.71875 0.7916665 0.7187499 0.875 0.71875 0.7916666 0.71875 0.7916665 0.7187499 0.625 0.9166666 0.625 1 0.625 1 0.625 0.9166666 0.625 1 0.625 1 0.625 0.015625 0.625 0.03125 0.625 0.03125 0.625 0.015625 0.625 0.03125 0.625 0.03125 0.7916666 0.734375 0.7916665 0.7187499 0.7916666 0.734375 0.7916666 0.734375 0.7916666 0.71875 0.7916667 0.734375 0.7916666 0.734375 0.7916666 0.734375 0.7916666 0.734375 0.7916666 0.734375 0.7916666 0.734375 0.7916666 0.734375 0.625 0.9166666 0.625 0.9166666 0.6249999 0.9166665 0.6249999 0.9166665 0.625 0.9166666 0.625 0.9166666 0.7916666 0.734375 0.7916666 0.75 0.7916666 0.75 0.625 0.9166666 0.625 0.9166665 0.625 0.9166666 0.7916666 0.734375 0.7916666 0.75 0.7916666 0.734375 0.7916667 0.734375 0.7916666 0.734375 0.7916666 0.734375 0.7916666 0.65625 0.7916666 0.6875 0.7916666 0.6875 0.375 0.4166666 0.5 0.3958333 0.375 0.3958333 0.375 1 0.5 0.9166666 0.375 0.9166666 0.5625 1 0.625 0.9166666 0.5625 0.9166666 0.375 0.125 0.5 0.25 0.5 0.125 0.7916666 0.6875 0.875 0.6875 0.7916666 0.6875 0.375 0.3333333 0.5 0.25 0.375 0.25 0.125 0.75 0.2083333 0.734375 0.125 0.734375 0.2708333 0.75 0.2916666 0.734375 0.2708333 0.734375 0.375 0.875 0.5 0.9166666 0.5 0.8750001 0.7916666 0.5 0.7916666 0.625 0.7916666 0.5 0.75 0.75 0.7916666 0.734375 0.7500001 0.7343751 0.7916666 0.734375 0.7916666 0.75 0.7916666 0.734375 0.75 0.625 0.7916666 0.5 0.75 0.5 0.2708333 0.625 0.2916666 0.5 0.2708333 0.5 0.125 0.625 0.2083333 0.5 0.125 0.5 0.5625 0.185 0.546875 0.25 0.625 0.245 0.375 0.09375 0.5 0.125 0.5 0.09375 0.5625 0.09375 0.625 0.125 0.625 0.09375 0.59375 0.25 0.625 0.3333333 0.625 0.25 0.5 0.125 0.5625 0.09375 0.5 0.09375 0.5 0.25 0.5625 0.185 0.5 0.125 0.7916666 0.734375 0.7916666 0.75 0.7916666 0.734375 0.7916666 0.5 0.7916666 0.625 0.7916666 0.625 0.5 1 0.5625 0.9166666 0.5 0.9166666 0.5 0.25 0.546875 0.3333333 0.546875 0.25 0.5 0.0625 0.5625 0.03125 0.5 0.03125 0.5625 0.03125 0.625 0.0625 0.6250001 0.03125 0.375 0.03125 0.5 0.0625 0.5 0.03125 0.7916666 0.65625 0.7916666 0.6875 0.7916666 0.65625 0.75 0.6875 0.7916666 0.65625 0.7500001 0.6562501 0.2708333 0.6875 0.2916666 0.65625 0.2708333 0.6562501 0.125 0.6875 0.2083333 0.65625 0.125 0.65625 0.7916666 0.6875 0.875 0.65625 0.7916666 0.65625 0.7916667 0.734375 0.7916667 0.71875 0.7916666 0.71875 0.7916666 0.71875 0.7916667 0.71875 0.7916666 0.6875 0.625 1 0.625 0.9166666 0.625 1 0.625 0.015625 0.625 0 0.625 0 0.625 0.0625 0.625 0.0625 0.6250001 0.03125 0.7916666 0.734375 0.7916666 0.71875 0.7916666 0.7287946 0.375 0.015625 0.5 0.03125 0.5 0.015625 0.5625 0.03125 0.625 0.015625 0.5625 0.015625 0.5 0.03125 0.5625 0.015625 0.5 0.015625 0.7916666 0.6875 0.7916666 0.71875 0.7916666 0.6875 0.7916666 0.6875 0.7916666 0.71875 0.7916666 0.6875 0.75 0.71875 0.7916666 0.6875 0.75 0.6875 0.2708333 0.71875 0.2916666 0.6875 0.2708333 0.6875 0.125 0.71875 0.2083333 0.6875 0.125 0.6875 0.5 0.015625 0.5625 0 0.5 0 0.5625 0.015625 0.625 0 0.5625 0 0.375 0 0.5 0.015625 0.5 0 0.7916666 0.75 0.7916666 0.734375 0.7916666 0.75 0.6250001 0.03125 0.625 0.015625 0.625 0.015625 0.625 0.03125 0.625 0.015625 0.625 0.03125 0.7916666 0.71875 0.7916666 0.734375 0.7916666 0.71875 0.7916666 0.71875 0.7916666 0.734375 0.7916666 0.71875 0.7500001 0.7343751 0.7916666 0.71875 0.75 0.71875 0.2708333 0.734375 0.2916666 0.71875 0.2708333 0.71875 0.125 0.734375 0.2083333 0.71875 0.125 0.71875 0.7916666 0.75 0.875 0.734375 0.7916666 0.734375 0.7916666 0.734375 0.875 0.71875 0.7916667 0.71875 0.625 1 0.6249999 0.9166665 0.625 1 0.7916666 0.71875 0.875 0.71875 0.875 0.71875 0.625 0.015625 0.625 0 0.625 0.015625 0.2083333 0.734375 0.25 0.71875 0.2083333 0.71875 0.7291667 0.734375 0.75 0.71875 0.7291666 0.71875 0.2083333 0.71875 0.25 0.6875 0.2083333 0.6875 0.2083333 0.6875 0.25 0.6562501 0.2083333 0.65625 0.2083333 0.5 0.25 0.625 0.25 0.5 0.7291666 0.75 0.7500001 0.7343751 0.7291667 0.734375 0.375 0.875 0.5 0.8541668 0.375 0.8541666 0.2083333 0.75 0.25 0.7343751 0.2083333 0.734375 0.375 0.375 0.5 0.3333333 0.375 0.3333333 0.625 0.015625 0.625 0 0.625 0.015625 0.625 0.015625 0.625 0 0.625 0.015625 0.7916667 0.71875 0.875 0.71875 0.875 0.71875 0.7916666 0.71875 0.875 0.71875 0.7916665 0.7187499 0.625 1 0.625 0.9166666 0.625 1 0.625 1 0.625 0.9166666 0.625 1 0.625 0.03125 0.625 0.015625 0.625 0.03125 0.625 0.03125 0.625 0.015625 0.625 0.03125 0.7916666 0.734375 0.7916665 0.7187499 0.7916667 0.71875 0.7916666 0.734375 0.7916666 0.71875 0.7916665 0.7187499 0.7916666 0.734375 0.7916666 0.734375 0.7916667 0.734375 0.7916666 0.734375 0.7916666 0.734375 0.7916666 0.734375 0.625 0.9166666 0.625 0.9166666 0.6249999 0.9166665 0.625 0.9166666 0.6249999 0.9166665 0.625 0.9166666 0.7916666 0.75 0.7916666 0.734375 0.7916666 0.75 0.625 0.9166665 0.625 0.9166666 0.625 0.9166666 0.7916666 0.734375 0.7916666 0.75 0.7916666 0.75 0.7916667 0.734375 0.7916666 0.734375 0.7916666 0.734375 0.7916666 0.734375 0.7916666 0.734375 0.7916666 0.734375 0.7916666 0.734375 0.7916666 0.734375 0.7916666 0.734375 0.7916666 0.734375 0.7916666 0.734375 0.7916666 0.734375 0.7916666 0.734375 0.7916666 0.7343751 0.7916666 0.734375 0.7916666 0.734375 0.7916666 0.734375 0.7916666 0.734375 0.7916666 0.734375 0.7916666 0.734375 0.7916666 0.734375 0.7916666 0.734375 0.7916666 0.734375 0.7916666 0.734375 0 0 0 0 0 0 0.75 0.71875 0.75 0.6875 0.75 0.71875 0.75 0.625 0.75 0.625 0.75 0.625 0 0 0 0 0 0 0.7481884 0.71875 0.7282608 0.71875 0.7282608 0.71875 0.7083333 0.71875 0.7481884 0.71875 0.7481884 0.71875 0.5 0.3958333 0.5 0.3783124 0.5 0.375 0.75 0.65625 0.75 0.625 0.75 0.65625 0.75 0.625 0.75 0.625 0.75 0.625 0.75 0.625 0.75 0.625 0.75 0.625 0.5000001 0.3783124 0.5 0.4166667 0.5 0.375 0.75 0.6875 0.75 0.7156251 0.75 0.71875 0 0 0 0 0 0 0.5000001 0.3783124 0.5 0.4166667 0.5 0.4166667 0.7083333 0.71875 0.75 0.71875 0.75 0.71875 0.75 0.625 0.75 0.625 0.75 0.625 0.75 0.625 0.75 0.625 0.75 0.625 0 0 0 0 0 0 0.75 0.6875 0.75 0.715625 0.75 0.6875 0 0 0.75 0.625 0.75 0.65625 0 0 0.7500001 0.6572917 0 0 0.7083333 0.71875 0.7481884 0.71875 0.75 0.71875 0.7291666 0.71875 0.7481884 0.71875 0.7282608 0.71875 0.75 0.71875 0.7291666 0.71875 0.7291666 0.71875 0.75 0.625 0.75 0.625 0.75 0.625 0.75 0.625 0.75 0.625 0.75 0.625 0 0 0 0 0 0 0.5 0.4166667 0.5 0.3967391 0.5 0.3974896 0 0 0 0 0 0 0.7500001 0.6572917 0.75 0.625 0.75 0.6270834 0.75 0.625 0.75 0.625 0.75 0.625 0 0 0 0 0 0 0.5 0.3783124 0.5 0.3967391 0.5 0.3768116 0 0 0 0 0 0 0.7291666 0.71875 0.7083332 0.71875 0.7083333 0.71875 0.7291666 0.71875 0.7083333 0.71875 0.7083332 0.71875 0 0 0 0 0 0 0.5 0.4166667 0.5 0.3958333 0.5 0.4166667 0.7282608 0.71875 0.7083333 0.71875 0.7083333 0.71875 0.375 0.8541666 0.5 0.8333334 0.375 0.8333333 0.7083333 0.75 0.7291667 0.734375 0.7083333 0.734375 0.7083333 0.734375 0.7291666 0.71875 0.7083333 0.71875 0.25 0.7343751 0.2708333 0.71875 0.25 0.71875 0.25 0.71875 0.2708333 0.6875 0.25 0.6875 0.25 0.6562501 0.2708333 0.6875 0.2708333 0.6562501 0.25 0.5 0.2708333 0.625 0.2708333 0.5 0.25 0.75 0.2708333 0.734375 0.25 0.7343751 0.375 0.3958333 0.5 0.375 0.375 0.375 0.25 0.6562501 0.2708333 0.625 0.25 0.625 0 0 0 0 0 0 0.75 0.6875 0.7500001 0.6572917 0.75 0.6875 0 0 0.75 0.6270834 0 0 0 0 0.75 0.65625 0.75 0.6875 0 0 0 0 0 0 0 0 0 0 0 0 0.75 0.6875 0.75 0.65625 0.75 0.65625 0.2083333 0.65625 0.25 0.625 0.2083333 0.625 0.7916666 0.65625 0.875 0.625 0.7916666 0.625 0.125 0.65625 0.2083333 0.625 0.125 0.625 0.2708333 0.6562501 0.2916666 0.625 0.2708333 0.625 0.7500001 0.6562501 0.7916666 0.625 0.75 0.625 0.7916666 0.625 0.7916666 0.65625 0.7916666 0.625 0.5 0.09375 0.5625 0.0625 0.5 0.0625 0.5625 0.0625 0.625 0.09375 0.625 0.0625 0.375 0.0625 0.5 0.09375 0.5 0.0625 0.7916666 0.625 0.7916666 0.65625 0.7916666 0.625 0.25 0.625 0.2083333 0.65625 0.2083333 0.625 0.875 0.625 0.7916666 0.6562499 0.7916666 0.625 0.2083333 0.625 0.125 0.65625 0.125 0.625 0.2916666 0.625 0.25 0.65625 0.25 0.625 0.7916666 0.625 0.75 0.65625 0.75 0.625 0.7916666 0.65625 0.7916666 0.625 0.7916666 0.625 0.5625 0.0625 0.5 0.09375 0.5 0.0625 0.625 0.0625 0.5625 0.09375 0.5625 0.0625 0.5 0.0625 0.375 0.09375 0.375 0.0625 0.7916666 0.6562499 0.7916666 0.625 0.7916666 0.625 0.7916666 0.75 0.7916666 0.734375 0.7916666 0.75 0.7916666 0.6562499 0.7916666 0.6875 0.7916666 0.6875 0.5 0.3783124 0.5 0.4166667 0.375 0.4166666 0.5 0.9166666 0.5 1 0.375 1 0.625 0.9166666 0.625 1 0.5625 1 0.5 0.125 0.5 0.25 0.375 0.25 0.875 0.6875 0.875 0.6875 0.7916666 0.6875 0.5 0.25 0.5 0.3333333 0.375 0.3333333 0.2083333 0.734375 0.2083333 0.75 0.125 0.75 0.2916666 0.734375 0.2916666 0.75 0.25 0.75 0.5 0.8750001 0.5 0.9166666 0.375 0.9166666 0.7916666 0.625 0.7916666 0.625 0.7916666 0.5 0.7916666 0.734375 0.7916666 0.75 0.75 0.75 0.7916666 0.75 0.7916666 0.75 0.7916666 0.734375 0.7916666 0.5 0.7916666 0.625 0.75 0.625 0.25 0.5 0.2916666 0.5 0.2916666 0.625 0.2083333 0.5 0.2083333 0.625 0.125 0.625 0.5 0.09375 0.5 0.125 0.375 0.125 0.625 0.09375 0.625 0.125 0.5625 0.125 0.625 0.3333333 0.59375 0.3333333 0.59375 0.25 0.5625 0.09375 0.5625 0.125 0.5 0.125 0.5625 0.185 0.546875 0.25 0.5 0.25 0.7916666 0.75 0.7916666 0.75 0.7916666 0.734375 0.5625 0.9166666 0.5625 1 0.5 1 0.5 0.25 0.546875 0.25 0.546875 0.3333333 0.5625 0.03125 0.5625 0.0625 0.5 0.0625 0.6250001 0.03125 0.625 0.0625 0.5625 0.0625 0.5 0.03125 0.5 0.0625 0.375 0.0625 0.7916666 0.6875 0.7916666 0.6875 0.7916666 0.65625 0.7916666 0.65625 0.7916666 0.6875 0.75 0.6875 0.25 0.65625 0.2916666 0.65625 0.2916666 0.6875 0.2083333 0.65625 0.2083333 0.6875 0.125 0.6875 0.7916666 0.6562499 0.875 0.65625 0.875 0.6875 0.7916667 0.734375 0.7916666 0.71875 0.7916667 0.71875 0.625 0.9166666 0.625 0.9166666 0.625 1 0.625 0.015625 0.625 0 0.625 0 0.7916666 0.71875 0.7916667 0.71875 0.7916666 0.734375 0.5 0.015625 0.5 0.03125 0.375 0.03125 0.625 0.015625 0.6250001 0.03125 0.5625 0.03125 0.5625 0.015625 0.5625 0.03125 0.5 0.03125 0.7916666 0.71875 0.7916666 0.71875 0.7916666 0.6875 0.7916666 0.71875 0.7916666 0.71875 0.7916666 0.6875 0.7916666 0.6875 0.7916666 0.71875 0.75 0.71875 0.2916666 0.6875 0.2916666 0.71875 0.25 0.71875 0.2083333 0.6875 0.2083333 0.71875 0.125 0.71875 0.5625 0 0.5625 0.015625 0.5 0.015625 0.625 0 0.625 0.015625 0.5625 0.015625 0.5 0 0.5 0.015625 0.375 0.015625 0.7916666 0.734375 0.7916666 0.734375 0.7916666 0.75 0.6250001 0.03125 0.625 0.015625 0.625 0.015625 0.625 0.015625 0.625 0.015625 0.625 0.03125 0.7916666 0.734375 0.7916666 0.734375 0.7916666 0.71875 0.7916666 0.734375 0.7916666 0.734375 0.7916666 0.71875 0.7916666 0.71875 0.7916666 0.734375 0.7500001 0.7343751 0.2916666 0.71875 0.2916666 0.734375 0.25 0.7343751 0.2083333 0.71875 0.2083333 0.734375 0.125 0.734375 0.875 0.734375 0.875 0.75 0.7916666 0.75 0.875 0.71875 0.875 0.734375 0.7916666 0.734375 0.6249999 0.9166665 0.625 0.9166666 0.625 1 0.7916666 0.71875 0.875 0.71875 0.875 0.71875 0.625 0 0.625 0 0.625 0.015625 0.625 0.9166665 0.625 0.9166666 0.625 0.9166666 0.25 0.71875 0.25 0.7343751 0.2083333 0.734375 0.7916666 0.734375 0.7916666 0.734375 0.7916666 0.734375 0.625 0.9166666 0.625 0.9166665 0.625 0.9166665 0.7916666 0.734375 0.7916666 0.75 0.7916666 0.75 0.75 0.71875 0.7500001 0.7343751 0.7083333 0.734375 0.25 0.6875 0.25 0.71875 0.2083333 0.71875 0.25 0.65625 0.25 0.6875 0.2083333 0.6875 0.2083333 0.5 0.25 0.5 0.25 0.625 0.75 0.71875 0.75 0.71875 0.75 0.6875 0.7500001 0.7343751 0.75 0.75 0.7083333 0.75 0.5 0.8333334 0.5 0.8750001 0.375 0.875 0.25 0.7343751 0.25 0.75 0.2083333 0.75 0.5 0.3333333 0.5 0.375 0.375 0.375 0.7916666 0.734375 0.7916666 0.734375 0.7916666 0.734375 0.7916666 0.734375 0.7916666 0.734375 0.7916666 0.734375 0.625 0.9166666 0.625 0.9166666 0.625 0.9166666 0.7916666 0.734375 0.7916666 0.734375 0.7916666 0.734375 0.625 0 0.625 0 0.625 0.015625 0.625 0 0.625 0 0.625 0.015625 0.7916667 0.71875 0.875 0.71875 0.875 0.71875 0.875 0.71875 0.875 0.71875 0.7916666 0.71875 0.625 0.9166666 0.625 0.9166666 0.625 1 0.625 0.9166666 0.6249999 0.9166665 0.625 1 0.625 0.015625 0.625 0.015625 0.625 0.03125 0.625 0.015625 0.625 0.015625 0.625 0.03125 0.7916666 0.734375 0.7916667 0.71875 0.7916665 0.7187499 0.7916666 0.734375 0.7916665 0.7187499 0.7916666 0.71875 0.7916666 0.734375 0.7916667 0.734375 0.7916666 0.734375 0.7916666 0.734375 0.7916666 0.734375 0.7916666 0.734375 0.625 0.9166666 0.625 0.9166665 0.625 0.9166666 0.6249999 0.9166665 0.625 0.9166666 0.625 0.9166666 0.7916666 0.734375 0.7916666 0.734375 0.7916666 0.75 0.625 0.9166666 0.625 0.9166666 0.625 0.9166665 0.7916666 0.734375 0.7916666 0.75 0.7916666 0.75 0.7916667 0.734375 0.7916666 0.734375 0.7916666 0.734375 0.7916666 0.65625 0.7916666 0.65625 0.7916666 0.6875 0.375 0.4166666 0.5 0.4166667 0.5 0.3958333 0.375 1 0.5 1 0.5 0.9166666 0.5625 1 0.625 1 0.625 0.9166666 0.375 0.125 0.375 0.25 0.5 0.25 0.7916666 0.6875 0.875 0.6875 0.875 0.6875 0.375 0.3333333 0.5 0.3333333 0.5 0.25 0.125 0.75 0.2083333 0.75 0.2083333 0.734375 0.2708333 0.75 0.2916666 0.75 0.2916666 0.734375 0.375 0.875 0.375 0.9166666 0.5 0.9166666 0.7916666 0.5 0.7916666 0.625 0.7916666 0.625 0.75 0.75 0.7916666 0.75 0.7916666 0.734375 0.7916666 0.734375 0.7916666 0.75 0.7916666 0.75 0.75 0.625 0.7916666 0.625 0.7916666 0.5 0.2708333 0.625 0.2916666 0.625 0.2916666 0.5 0.125 0.625 0.2083333 0.625 0.2083333 0.5 0.375 0.09375 0.375 0.125 0.5 0.125 0.5625 0.09375 0.5625 0.125 0.625 0.125 0.59375 0.25 0.59375 0.3333333 0.625 0.3333333 0.5 0.125 0.5625 0.125 0.5625 0.09375 0.5 0.25 0.546875 0.25 0.5625 0.185 0.7916666 0.734375 0.7916666 0.75 0.7916666 0.75 0.5 1 0.5625 1 0.5625 0.9166666 0.5 0.25 0.5 0.3333333 0.546875 0.3333333 0.5 0.0625 0.5625 0.0625 0.5625 0.03125 0.5625 0.03125 0.5625 0.0625 0.625 0.0625 0.375 0.03125 0.375 0.0625 0.5 0.0625 0.7916666 0.65625 0.7916666 0.6875 0.7916666 0.6875 0.75 0.6875 0.7916666 0.6875 0.7916666 0.65625 0.2708333 0.6875 0.2916666 0.6875 0.2916666 0.65625 0.125 0.6875 0.2083333 0.6875 0.2083333 0.65625 0.7916666 0.6875 0.875 0.6875 0.875 0.65625 0.7916667 0.734375 0.7916666 0.734375 0.7916667 0.71875 0.625 1 0.625 0.9166666 0.625 0.9166666 0.625 0.015625 0.625 0.015625 0.625 0 0.7916666 0.734375 0.7916667 0.71875 0.7916666 0.71875 0.375 0.015625 0.375 0.03125 0.5 0.03125 0.5625 0.03125 0.6250001 0.03125 0.625 0.015625 0.5 0.03125 0.5625 0.03125 0.5625 0.015625 0.7916666 0.6875 0.7916666 0.71875 0.7916666 0.71875 0.7916666 0.6875 0.7916666 0.71875 0.7916666 0.71875 0.75 0.71875 0.7916666 0.71875 0.7916666 0.6875 0.2708333 0.71875 0.2916666 0.71875 0.2916666 0.6875 0.125 0.71875 0.2083333 0.71875 0.2083333 0.6875 0.5 0.015625 0.5625 0.015625 0.5625 0 0.5625 0.015625 0.625 0.015625 0.625 0 0.375 0 0.375 0.015625 0.5 0.015625 0.7916666 0.75 0.7916666 0.734375 0.7916666 0.734375 0.6250001 0.03125 0.625 0.03125 0.625 0.015625 0.625 0.03125 0.625 0.015625 0.625 0.015625 0.7916666 0.71875 0.7916666 0.734375 0.7916666 0.734375 0.7916666 0.71875 0.7916666 0.734375 0.7916666 0.734375 0.7500001 0.7343751 0.7916666 0.734375 0.7916666 0.71875 0.2708333 0.734375 0.2916666 0.734375 0.2916666 0.71875 0.125 0.734375 0.2083333 0.734375 0.2083333 0.71875 0.7916666 0.75 0.875 0.75 0.875 0.734375 0.7916666 0.734375 0.875 0.734375 0.875 0.71875 0.625 1 0.625 0.9166666 0.6249999 0.9166665 0.7916666 0.71875 0.7916667 0.71875 0.875 0.71875 0.625 0.015625 0.625 0 0.625 0 0.2083333 0.734375 0.25 0.7343751 0.25 0.71875 0.7291667 0.734375 0.7500001 0.7343751 0.75 0.71875 0.2083333 0.71875 0.25 0.71875 0.25 0.6875 0.2083333 0.6875 0.25 0.6875 0.25 0.6562501 0.2083333 0.5 0.2083333 0.625 0.25 0.625 0.7291666 0.75 0.75 0.75 0.7500001 0.7343751 0.375 0.875 0.5 0.8750001 0.5 0.8541668 0.2083333 0.75 0.25 0.75 0.25 0.7343751 0.375 0.375 0.5 0.375 0.5 0.3333333 0.625 0.015625 0.625 0 0.625 0 0.625 0.015625 0.625 0 0.625 0 0.7916667 0.71875 0.7916665 0.7187499 0.875 0.71875 0.7916666 0.71875 0.875 0.71875 0.875 0.71875 0.625 1 0.625 0.9166666 0.625 0.9166666 0.625 1 0.6249999 0.9166665 0.625 0.9166666 0.625 0.03125 0.625 0.015625 0.625 0.015625 0.625 0.03125 0.625 0.015625 0.625 0.015625 0.7916666 0.734375 0.7916666 0.734375 0.7916665 0.7187499 0.7916666 0.734375 0.7916667 0.734375 0.7916666 0.71875 0.7916666 0.734375 0.7916666 0.734375 0.7916666 0.734375 0.7916666 0.734375 0.7916666 0.734375 0.7916666 0.734375 0.625 0.9166666 0.625 0.9166665 0.625 0.9166666 0.625 0.9166666 0.625 0.9166666 0.6249999 0.9166665 0.7916666 0.75 0.7916666 0.734375 0.7916666 0.734375 0.625 0.9166665 0.625 0.9166666 0.625 0.9166666 0.7916666 0.734375 0.7916666 0.734375 0.7916666 0.75 0.7916667 0.734375 0.7916666 0.734375 0.7916666 0.734375 0.7916666 0.734375 0.7916666 0.734375 0.7916666 0.734375 0.7916666 0.734375 0.7916666 0.734375 0.7916666 0.734375 0.7916666 0.734375 0.7916666 0.734375 0.7916666 0.734375 0.7916666 0.734375 0.7916666 0.734375 0.7916666 0.7343751 0.7916666 0.734375 0.7916666 0.734375 0.7916666 0.734375 0.7916666 0.734375 0.7916666 0.7343751 0.7916666 0.734375 0.7916666 0.734375 0.7916666 0.734375 0.7916666 0.734375 0 0 0 0 0 0 0.75 0.71875 0.75 0.6875 0.75 0.6875 0.75 0.625 0.75 0.625 0.75 0.625 0 0 0 0 0 0 0.7481884 0.71875 0.7481884 0.71875 0.7282608 0.71875 0.7083333 0.71875 0.7083333 0.71875 0.7481884 0.71875 0.5 0.3958333 0.5 0.3974896 0.5 0.3783124 0.75 0.65625 0.75 0.625 0.75 0.625 0.75 0.625 0.75 0.625 0.75 0.625 0.75 0.625 0.75 0.625 0.75 0.625 0.5000001 0.3783124 0.5 0.4166667 0.5 0.4166667 0.75 0.6875 0.75 0.6875 0.75 0.7156251 0 0 0 0 0 0 0.5000001 0.3783124 0.5 0.3768116 0.5 0.4166667 0.7083333 0.71875 0.7083333 0.71875 0.75 0.71875 0.75 0.625 0.75 0.625 0.75 0.625 0.75 0.625 0.75 0.625 0.75 0.625 0 0 0 0 0 0 0.75 0.6875 0.75 0.71875 0.75 0.715625 0 0 0 0 0.75 0.625 0 0 0.75 0.6875 0.7500001 0.6572917 0.7083333 0.71875 0.7083333 0.71875 0.7481884 0.71875 0.7291666 0.71875 0.75 0.71875 0.7481884 0.71875 0.75 0.71875 0.75 0.71875 0.7291666 0.71875 0.75 0.625 0.75 0.625 0.75 0.625 0.75 0.625 0.75 0.625 0.75 0.625 0 0 0 0 0 0 0.5 0.4166667 0.5 0.4166667 0.5 0.3967391 0 0 0 0 0 0 0.7500001 0.6572917 0.7500001 0.6562501 0.75 0.625 0.75 0.625 0.75 0.625 0.75 0.625 0 0 0 0 0 0 0.5 0.3783124 0.5 0.3974896 0.5 0.3967391 0 0 0 0 0 0 0.7291666 0.71875 0.7291666 0.71875 0.7083332 0.71875 0.7291666 0.71875 0.7282608 0.71875 0.7083333 0.71875 0 0 0 0 0 0 0.5 0.4166667 0.5 0.3974896 0.5 0.3958333 0.7282608 0.71875 0.7282608 0.71875 0.7083333 0.71875 0.375 0.8541666 0.5 0.8541668 0.5 0.8333334 0.7083333 0.75 0.7291666 0.75 0.7291667 0.734375 0.7083333 0.734375 0.7291667 0.734375 0.7291666 0.71875 0.25 0.7343751 0.2708333 0.734375 0.2708333 0.71875 0.25 0.71875 0.2708333 0.71875 0.2708333 0.6875 0.25 0.6562501 0.25 0.6875 0.2708333 0.6875 0.25 0.5 0.25 0.625 0.2708333 0.625 0.25 0.75 0.2708333 0.75 0.2708333 0.734375 0.375 0.3958333 0.5 0.3958333 0.5 0.375 0.25 0.6562501 0.2708333 0.6562501 0.2708333 0.625 0 0 0 0 0 0 0.75 0.6875 0.7500001 0.6562501 0.7500001 0.6572917 0 0 0.7500001 0.6572917 0.75 0.6270834 0 0 0 0 0.75 0.65625 0 0 0 0 0 0 0 0 0 0 0 0 0.75 0.6875 0.75 0.6875 0.75 0.65625 0.2083333 0.65625 0.25 0.6562501 0.25 0.625 0.7916666 0.65625 0.875 0.65625 0.875 0.625 0.125 0.65625 0.2083333 0.65625 0.2083333 0.625 0.2708333 0.6562501 0.2916666 0.65625 0.2916666 0.625 0.7500001 0.6562501 0.7916666 0.65625 0.7916666 0.625 0.7916666 0.625 0.7916666 0.65625 0.7916666 0.65625 0.5 0.09375 0.5625 0.09375 0.5625 0.0625 0.5625 0.0625 0.5625 0.09375 0.625 0.09375 0.375 0.0625 0.375 0.09375 0.5 0.09375 0.7916666 0.625 0.7916666 0.65625 0.7916666 0.65625 0.25 0.625 0.25 0.65625 0.2083333 0.65625 0.875 0.625 0.875 0.65625 0.7916666 0.6562499 0.2083333 0.625 0.2083333 0.65625 0.125 0.65625 0.2916666 0.625 0.2916666 0.65625 0.25 0.65625 0.7916666 0.625 0.7916666 0.65625 0.75 0.65625 0.7916666 0.65625 0.7916666 0.65625 0.7916666 0.625 0.5625 0.0625 0.5625 0.09375 0.5 0.09375 0.625 0.0625 0.625 0.09375 0.5625 0.09375 0.5 0.0625 0.5 0.09375 0.375 0.09375 0.7916666 0.6562499 0.7916666 0.65625 0.7916666 0.625 0.7916666 0.75 0.7916666 0.734375 0.7916666 0.734375</float_array>
          <technique_common>
            <accessor source="#Cube-mesh-map-0-array" count="1626" stride="2">
              <param name="S" type="float"/>
              <param name="T" type="float"/>
            </accessor>
          </technique_common>
        </source>
        <vertices id="Cube-mesh-vertices">
          <input semantic="POSITION" source="#Cube-mesh-positions"/>
        </vertices>
        <triangles material="Paintable-0-material" count="430">
          <input semantic="VERTEX" source="#Cube-mesh-vertices" offset="0"/>
          <input semantic="NORMAL" source="#Cube-mesh-normals" offset="1"/>
          <input semantic="TEXCOORD" source="#Cube-mesh-map-0" offset="2" set="0"/>
          <p>245 0 0 29 0 1 248 0 2 196 1 3 93 1 4 58 1 5 9 2 6 0 2 7 6 2 8 7 3 9 18 3 10 19 3 11 14 4 12 2 4 13 10 4 14 26 5 15 40 5 16 16 5 17 3 6 18 5 6 19 2 6 20 44 7 21 0 7 22 42 7 23 138 8 24 59 8 25 67 8 26 60 9 27 6 9 28 59 9 29 20 10 30 8 10 31 23 10 32 45 11 33 60 11 34 66 11 35 19 12 36 45 12 37 50 12 38 8 13 39 216 13 40 196 13 41 58 14 42 105 14 43 61 14 44 5 15 45 10 15 46 2 15 47 21 16 48 11 16 49 22 16 50 243 17 51 10 17 52 246 17 53 242 18 54 21 18 55 247 18 56 12 19 57 22 19 58 11 19 59 247 20 60 14 20 61 243 20 62 21 21 63 3 21 64 14 21 65 7 22 66 50 22 67 89 22 68 23 23 69 12 23 70 20 23 71 19 24 72 4 24 73 9 24 74 3 25 75 23 25 76 8 25 77 38 26 78 27 26 79 37 26 80 36 27 81 28 27 82 38 27 83 37 28 84 17 28 85 32 28 86 29 29 87 249 29 88 248 29 89 249 30 90 62 30 91 262 30 92 250 31 93 117 31 94 63 31 95 244 32 96 17 32 97 246 32 98 245 33 99 26 33 100 16 33 101 74 34 102 57 34 103 54 34 104 88 35 105 16 35 106 40 35 107 7 36 108 31 36 109 1 36 110 47 37 111 31 37 112 51 37 113 26 38 114 36 38 115 41 38 116 88 39 117 46 39 118 89 39 119 48 40 120 32 40 121 42 40 122 47 41 123 38 41 124 49 41 125 49 42 126 37 42 127 48 42 128 88 43 129 29 43 130 16 43 131 39 44 132 25 44 133 29 44 134 25 45 135 64 45 136 62 45 137 117 46 138 65 46 139 63 46 140 24 47 141 32 47 142 17 47 143 18 48 144 48 48 145 4 48 146 1 49 147 49 49 148 18 49 149 4 50 150 42 50 151 0 50 152 89 51 153 30 51 154 7 51 155 36 52 156 51 52 157 41 52 158 69 53 159 56 53 160 70 53 161 89 54 162 39 54 163 88 54 164 50 55 165 35 55 166 39 55 167 35 56 168 66 56 169 64 56 170 127 57 171 67 57 172 65 57 173 34 58 174 42 58 175 32 58 176 55 59 177 52 59 178 54 59 179 56 60 180 54 60 181 57 60 182 77 61 183 53 61 184 78 61 185 73 62 186 56 62 187 57 62 188 78 63 189 55 63 190 69 63 191 85 64 192 178 64 193 180 64 194 65 65 195 44 65 196 34 65 197 81 66 198 181 66 199 176 66 200 84 67 201 180 67 202 179 67 203 80 68 204 177 68 205 175 68 206 64 69 207 139 69 208 128 69 209 63 70 210 34 70 211 24 70 212 250 71 213 24 71 214 244 71 215 5 72 216 61 72 217 13 72 218 66 74 222 99 74 223 139 74 224 99 75 225 59 75 226 96 75 227 67 76 228 6 76 229 44 76 230 8 77 231 58 77 232 5 77 233 87 78 234 175 78 235 182 78 236 82 80 240 179 80 241 177 80 242 31 82 246 68 82 247 51 82 248 79 83 249 69 83 250 68 83 251 40 84 252 71 84 253 72 84 254 71 85 255 73 85 256 72 85 257 30 86 258 79 86 259 31 86 260 76 87 261 78 87 262 79 87 263 51 88 264 71 88 265 41 88 266 68 89 267 70 89 268 71 89 269 46 90 270 72 90 271 75 90 272 75 91 273 73 91 274 74 91 275 75 92 276 87 92 277 86 92 278 46 93 279 86 93 280 81 93 281 76 94 282 84 94 283 77 94 284 77 95 285 82 95 286 52 95 287 46 96 288 83 96 289 30 96 290 30 97 291 85 97 292 76 97 293 54 98 294 82 98 295 80 98 296 74 99 297 80 99 298 87 99 299 255 100 300 122 100 301 108 100 302 93 101 303 241 101 304 228 101 305 43 102 306 100 102 307 95 102 308 110 103 309 97 103 310 111 103 311 101 104 312 91 104 313 106 104 314 134 105 315 119 105 316 108 105 317 94 106 318 91 106 319 33 106 320 43 107 321 137 107 322 136 107 323 225 108 324 138 108 325 233 108 326 154 109 327 100 109 328 155 109 329 98 110 330 112 110 331 115 110 332 155 111 333 140 111 334 161 111 335 140 112 336 111 112 337 145 112 338 223 113 339 98 113 340 197 113 341 230 114 342 93 114 343 228 114 344 101 115 345 94 115 346 33 115 347 113 116 348 114 116 349 102 116 350 256 117 351 106 117 352 253 117 353 257 118 354 102 118 355 251 118 356 114 119 357 103 119 358 102 119 359 106 120 360 257 120 361 253 120 362 91 121 363 113 121 364 106 121 365 145 122 366 97 122 367 184 122 368 115 123 369 112 123 370 103 123 371 92 124 372 111 124 373 100 124 374 91 125 375 115 125 376 114 125 377 120 126 378 132 126 379 131 126 380 132 127 381 119 127 382 130 127 383 125 128 384 120 128 385 131 128 386 259 129 387 122 129 388 258 129 389 157 130 390 259 130 391 261 130 392 231 131 393 252 131 394 269 131 395 109 132 396 254 132 397 256 132 398 108 133 399 251 133 400 255 133 401 169 134 402 152 134 403 168 134 404 183 135 405 134 135 406 108 135 407 124 136 408 97 136 409 90 136 410 142 137 411 124 137 412 90 137 413 119 138 414 135 138 415 130 138 416 141 139 417 183 139 418 184 139 419 136 140 420 131 140 421 143 140 422 132 141 423 142 141 424 144 141 425 131 142 426 144 142 427 143 142 428 122 143 429 183 143 430 108 143 431 118 144 432 133 144 433 122 144 434 159 145 435 118 145 436 157 145 437 232 146 438 117 146 439 231 146 440 125 147 441 116 147 442 109 147 443 143 148 444 110 148 445 92 148 446 144 149 447 90 149 448 110 149 449 43 150 450 143 150 451 92 150 452 123 151 453 184 151 454 97 151 455 130 152 456 146 152 457 142 152 458 151 153 459 164 153 460 165 153 461 133 154 462 184 154 463 183 154 464 129 155 465 145 155 466 133 155 467 161 156 468 129 156 469 159 156 470 233 157 471 127 157 472 232 157 473 136 158 474 126 158 475 125 158 476 147 159 477 150 159 478 149 159 479 149 160 480 151 160 481 152 160 482 148 161 483 172 161 484 173 161 485 168 162 486 151 162 487 165 162 488 150 163 489 173 163 490 164 163 491 137 164 492 160 164 493 126 164 494 227 165 495 159 165 496 226 165 497 126 166 498 158 166 499 116 166 500 116 167 501 260 167 502 254 167 503 94 168 504 156 168 505 153 168 506 229 169 507 161 169 508 227 169 509 154 170 510 229 170 511 225 170 512 95 171 513 162 171 514 137 171 515 153 172 516 98 172 517 94 172 518 163 173 519 124 173 520 146 173 521 164 174 522 174 174 523 163 174 524 134 175 525 166 175 526 135 175 527 168 176 528 166 176 529 167 176 530 174 177 531 123 177 532 124 177 533 173 178 534 171 178 535 174 178 536 166 179 537 146 179 538 135 179 539 165 180 540 163 180 541 166 180 542 141 181 543 167 181 544 134 181 545 170 182 546 168 182 547 167 182 548 170 183 549 182 183 550 169 183 551 141 184 552 181 184 553 170 184 554 179 185 555 171 185 556 172 185 557 177 186 558 172 186 559 147 186 560 178 187 561 141 187 562 123 187 563 180 188 564 123 188 565 171 188 566 149 189 567 177 189 568 147 189 569 169 190 570 175 190 571 149 190 572 225 237 711 99 237 712 96 237 713 99 238 714 227 238 715 139 238 716 139 239 717 226 239 718 128 239 719 162 240 720 232 240 721 160 240 722 160 241 723 231 241 724 158 241 725 260 242 726 231 242 727 269 242 728 153 243 729 230 243 730 228 243 731 154 244 732 233 244 733 162 244 734 228 245 735 197 245 736 153 245 737 260 246 738 230 246 739 156 246 740 254 254 762 156 254 763 104 254 764 255 255 765 102 255 766 103 255 767 256 256 768 104 256 769 101 256 770 269 257 771 105 257 772 230 257 773 261 258 774 107 258 775 223 258 776 107 259 777 258 259 778 112 259 779 253 260 780 121 260 781 120 260 782 121 261 783 251 261 784 119 261 785 109 262 786 253 262 787 120 262 788 112 263 789 255 263 790 103 263 791 61 264 792 244 264 793 13 264 794 11 265 795 245 265 796 12 265 797 13 266 798 246 266 799 10 266 800 105 267 801 250 267 802 61 267 803 15 268 804 262 268 805 216 268 806 248 269 807 15 269 808 20 269 809 28 270 810 243 270 811 27 270 812 26 271 813 247 271 814 28 271 815 27 272 816 246 272 817 17 272 818 245 273 819 20 273 820 12 273 821 83 274 822 176 274 823 178 274 824 245 275 825 16 275 826 29 275 827 196 276 828 202 276 829 93 276 830 9 277 831 4 277 832 0 277 833 7 278 834 1 278 835 18 278 836 14 279 837 3 279 838 2 279 839 26 280 840 41 280 841 40 280 842 3 281 843 8 281 844 5 281 845 44 282 846 6 282 847 0 282 848 138 283 849 96 283 850 59 283 851 60 284 852 9 284 853 6 284 854 20 285 855 15 285 856 8 285 857 45 286 858 9 286 859 60 286 860 19 287 861 9 287 862 45 287 863 8 288 864 15 288 865 216 288 866 58 289 867 93 289 868 105 289 869 5 290 870 13 290 871 10 290 872 243 291 873 14 291 874 10 291 875 242 292 876 11 292 877 21 292 878 12 293 879 23 293 880 22 293 881 247 294 882 21 294 883 14 294 884 21 295 885 22 295 886 3 295 887 7 296 888 19 296 889 50 296 890 19 297 891 18 297 892 4 297 893 3 298 894 22 298 895 23 298 896 38 299 897 28 299 898 27 299 899 36 300 900 26 300 901 28 300 902 37 301 903 27 301 904 17 301 905 29 302 906 25 302 907 249 302 908 249 303 909 25 303 910 62 303 911 250 304 912 252 304 913 117 304 914 244 305 915 24 305 916 17 305 917 245 306 918 242 306 919 26 306 920 74 307 921 73 307 922 57 307 923 7 308 924 30 308 925 31 308 926 47 309 927 1 309 928 31 309 929 88 310 930 40 310 931 46 310 932 48 311 933 37 311 934 32 311 935 47 312 936 36 312 937 38 312 938 49 313 939 38 313 940 37 313 941 88 314 942 39 314 943 29 314 944 39 315 945 35 315 946 25 315 947 25 316 948 35 316 949 64 316 950 117 317 951 127 317 952 65 317 953 24 318 954 34 318 955 32 318 956 18 319 957 49 319 958 48 319 959 1 320 960 47 320 961 49 320 962 4 321 963 48 321 964 42 321 965 89 322 966 46 322 967 30 322 968 36 323 969 47 323 970 51 323 971 69 324 972 55 324 973 56 324 974 89 325 975 50 325 976 39 325 977 50 326 978 45 326 979 35 326 980 35 327 981 45 327 982 66 327 983 127 328 984 138 328 985 67 328 986 34 329 987 44 329 988 42 329 989 55 330 990 53 330 991 52 330 992 56 331 993 55 331 994 54 331 995 77 332 996 52 332 997 53 332 998 73 333 999 70 333 1000 56 333 1001 78 334 1002 53 334 1003 55 334 1004 85 335 1005 83 335 1006 178 335 1007 65 336 1008 67 336 1009 44 336 1010 81 337 1011 86 337 1012 181 337 1013 84 338 1014 85 338 1015 180 338 1016 80 339 1017 82 339 1018 177 339 1019 64 340 1020 66 340 1021 139 340 1022 63 341 1023 65 341 1024 34 341 1025 250 342 1026 63 342 1027 24 342 1028 5 343 1029 58 343 1030 61 343 1031 66 345 1035 60 345 1036 99 345 1037 99 346 1038 60 346 1039 59 346 1040 67 347 1041 59 347 1042 6 347 1043 8 348 1044 196 348 1045 58 348 1046 87 349 1047 80 349 1048 175 349 1049 82 351 1053 84 351 1054 179 351 1055 31 353 1059 79 353 1060 68 353 1061 79 354 1062 78 354 1063 69 354 1064 40 355 1065 41 355 1066 71 355 1067 71 356 1068 70 356 1069 73 356 1070 30 357 1071 76 357 1072 79 357 1073 76 358 1074 77 358 1075 78 358 1076 51 359 1077 68 359 1078 71 359 1079 68 360 1080 69 360 1081 70 360 1082 46 361 1083 40 361 1084 72 361 1085 75 362 1086 72 362 1087 73 362 1088 75 363 1089 74 363 1090 87 363 1091 46 364 1092 75 364 1093 86 364 1094 76 365 1095 85 365 1096 84 365 1097 77 366 1098 84 366 1099 82 366 1100 46 367 1101 81 367 1102 83 367 1103 30 368 1104 83 368 1105 85 368 1106 54 369 1107 52 369 1108 82 369 1109 74 370 1110 54 370 1111 80 370 1112 255 371 1113 258 371 1114 122 371 1115 93 372 1116 202 372 1117 241 372 1118 43 373 1119 92 373 1120 100 373 1121 110 374 1122 90 374 1123 97 374 1124 101 375 1125 33 375 1126 91 375 1127 134 376 1128 135 376 1129 119 376 1130 94 377 1131 98 377 1132 91 377 1133 43 378 1134 95 378 1135 137 378 1136 225 379 1137 96 379 1138 138 379 1139 154 380 1140 95 380 1141 100 380 1142 98 381 1143 107 381 1144 112 381 1145 155 382 1146 100 382 1147 140 382 1148 140 383 1149 100 383 1150 111 383 1151 223 384 1152 107 384 1153 98 384 1154 230 385 1155 105 385 1156 93 385 1157 101 386 1158 104 386 1159 94 386 1160 256 387 1161 101 387 1162 106 387 1163 257 388 1164 113 388 1165 102 388 1166 114 389 1167 115 389 1168 103 389 1169 106 390 1170 113 390 1171 257 390 1172 91 391 1173 114 391 1174 113 391 1175 145 392 1176 111 392 1177 97 392 1178 92 393 1179 110 393 1180 111 393 1181 91 394 1182 98 394 1183 115 394 1184 120 395 1185 121 395 1186 132 395 1187 132 396 1188 121 396 1189 119 396 1190 125 397 1191 109 397 1192 120 397 1193 259 398 1194 118 398 1195 122 398 1196 157 399 1197 118 399 1198 259 399 1199 231 400 1200 117 400 1201 252 400 1202 109 401 1203 116 401 1204 254 401 1205 108 402 1206 119 402 1207 251 402 1208 169 403 1209 149 403 1210 152 403 1211 124 404 1212 123 404 1213 97 404 1214 142 405 1215 146 405 1216 124 405 1217 141 406 1218 134 406 1219 183 406 1220 136 407 1221 125 407 1222 131 407 1223 132 408 1224 130 408 1225 142 408 1226 131 409 1227 132 409 1228 144 409 1229 122 410 1230 133 410 1231 183 410 1232 118 411 1233 129 411 1234 133 411 1235 159 412 1236 129 412 1237 118 412 1238 232 413 1239 127 413 1240 117 413 1241 125 414 1242 126 414 1243 116 414 1244 143 415 1245 144 415 1246 110 415 1247 144 416 1248 142 416 1249 90 416 1250 43 417 1251 136 417 1252 143 417 1253 123 418 1254 141 418 1255 184 418 1256 130 419 1257 135 419 1258 146 419 1259 151 420 1260 150 420 1261 164 420 1262 133 421 1263 145 421 1264 184 421 1265 129 422 1266 140 422 1267 145 422 1268 161 423 1269 140 423 1270 129 423 1271 233 424 1272 138 424 1273 127 424 1274 136 425 1275 137 425 1276 126 425 1277 147 426 1278 148 426 1279 150 426 1280 149 427 1281 150 427 1282 151 427 1283 148 428 1284 147 428 1285 172 428 1286 168 429 1287 152 429 1288 151 429 1289 150 430 1290 148 430 1291 173 430 1292 137 431 1293 162 431 1294 160 431 1295 227 432 1296 161 432 1297 159 432 1298 126 433 1299 160 433 1300 158 433 1301 116 434 1302 158 434 1303 260 434 1304 94 435 1305 104 435 1306 156 435 1307 229 436 1308 155 436 1309 161 436 1310 154 437 1311 155 437 1312 229 437 1313 95 438 1314 154 438 1315 162 438 1316 153 439 1317 197 439 1318 98 439 1319 163 440 1320 174 440 1321 124 440 1322 164 441 1323 173 441 1324 174 441 1325 134 442 1326 167 442 1327 166 442 1328 168 443 1329 165 443 1330 166 443 1331 174 444 1332 171 444 1333 123 444 1334 173 445 1335 172 445 1336 171 445 1337 166 446 1338 163 446 1339 146 446 1340 165 447 1341 164 447 1342 163 447 1343 141 448 1344 170 448 1345 167 448 1346 170 449 1347 169 449 1348 168 449 1349 170 450 1350 181 450 1351 182 450 1352 141 451 1353 176 451 1354 181 451 1355 179 452 1356 180 452 1357 171 452 1358 177 453 1359 179 453 1360 172 453 1361 178 454 1362 176 454 1363 141 454 1364 180 455 1365 178 455 1366 123 455 1367 149 456 1368 175 456 1369 177 456 1370 169 457 1371 182 457 1372 175 457 1373 225 504 1512 229 504 1513 99 504 1514 99 505 1515 229 505 1516 227 505 1517 139 506 1518 227 506 1519 226 506 1520 162 507 1521 233 507 1522 232 507 1523 160 508 1524 232 508 1525 231 508 1526 260 509 1527 158 509 1528 231 509 1529 153 510 1530 156 510 1531 230 510 1532 154 511 1533 225 511 1534 233 511 1535 228 512 1536 241 512 1537 197 512 1538 260 513 1539 269 513 1540 230 513 1541 254 521 1563 260 521 1564 156 521 1565 255 522 1566 251 522 1567 102 522 1568 256 523 1569 254 523 1570 104 523 1571 269 524 1572 252 524 1573 105 524 1574 261 525 1575 259 525 1576 107 525 1577 107 526 1578 259 526 1579 258 526 1580 253 527 1581 257 527 1582 121 527 1583 121 528 1584 257 528 1585 251 528 1586 109 529 1587 256 529 1588 253 529 1589 112 530 1590 258 530 1591 255 530 1592 61 531 1593 250 531 1594 244 531 1595 11 532 1596 242 532 1597 245 532 1598 13 533 1599 244 533 1600 246 533 1601 105 534 1602 252 534 1603 250 534 1604 15 535 1605 249 535 1606 262 535 1607 248 536 1608 249 536 1609 15 536 1610 28 537 1611 247 537 1612 243 537 1613 26 538 1614 242 538 1615 247 538 1616 27 539 1617 243 539 1618 246 539 1619 245 540 1620 248 540 1621 20 540 1622 83 541 1623 81 541 1624 176 541 1625</p>
        </triangles>
        <triangles material="Paintable-1-material" count="112">
          <input semantic="VERTEX" source="#Cube-mesh-vertices" offset="0"/>
          <input semantic="NORMAL" source="#Cube-mesh-normals" offset="1"/>
          <input semantic="TEXCOORD" source="#Cube-mesh-map-0" offset="2" set="0"/>
          <p>64 73 219 199 73 220 62 73 221 185 79 237 192 79 238 186 79 239 189 81 243 185 81 244 187 81 245 86 191 573 188 191 574 181 191 575 182 192 576 188 192 577 186 192 578 87 193 579 190 193 580 86 193 581 190 194 582 187 194 583 188 194 584 186 195 585 87 195 586 182 195 587 188 196 588 185 196 589 186 196 590 191 197 591 190 197 592 192 197 593 195 198 594 214 198 595 201 198 596 159 199 597 203 199 598 212 199 599 223 200 600 218 200 601 219 200 602 201 201 603 213 201 604 206 201 605 211 202 606 234 202 607 236 202 608 208 203 609 198 203 610 210 203 611 240 204 612 197 204 613 223 204 614 263 205 615 216 205 616 262 205 617 217 206 618 193 206 619 214 206 620 214 207 621 200 207 622 213 207 623 196 208 624 205 208 625 216 208 626 203 209 627 211 209 628 212 209 629 266 210 630 213 210 631 267 210 632 196 211 633 195 211 634 202 211 635 128 212 636 209 212 637 64 212 638 196 213 639 215 213 640 217 213 641 222 214 642 218 214 643 224 214 644 238 215 645 266 215 646 268 215 647 199 216 648 210 216 649 198 216 650 267 217 651 200 217 652 263 217 653 204 218 654 265 218 655 264 218 656 207 219 657 210 219 658 209 219 659 235 220 660 211 220 661 236 220 662 159 221 663 235 221 664 226 221 665 197 222 666 224 222 667 223 222 668 219 223 669 220 223 670 221 223 671 201 224 672 238 224 673 237 224 674 202 225 675 239 225 676 241 225 677 237 226 678 195 226 679 201 226 680 265 227 681 223 227 682 219 227 683 193 228 684 216 228 685 200 228 686 220 229 687 239 229 688 237 229 689 197 230 690 239 230 691 222 230 692 237 231 693 221 231 694 220 231 695 226 232 696 207 232 697 128 232 698 235 233 699 208 233 700 207 233 701 221 234 702 268 234 703 264 234 704 202 235 705 240 235 706 205 235 707 236 236 708 194 236 709 208 236 710 264 247 741 234 247 742 204 247 743 157 248 744 265 248 745 203 248 746 264 249 747 219 249 748 221 249 749 198 250 750 263 250 751 199 250 752 268 251 753 194 251 754 234 251 755 194 252 756 267 252 757 198 252 758 62 253 759 263 253 760 262 253 761 64 344 1032 209 344 1033 199 344 1034 185 350 1050 191 350 1051 192 350 1052 189 352 1056 191 352 1057 185 352 1058 86 458 1374 190 458 1375 188 458 1376 182 459 1377 181 459 1378 188 459 1379 87 460 1380 192 460 1381 190 460 1382 190 461 1383 189 461 1384 187 461 1385 186 462 1386 192 462 1387 87 462 1388 188 463 1389 187 463 1390 185 463 1391 191 464 1392 189 464 1393 190 464 1394 195 465 1395 217 465 1396 214 465 1397 159 466 1398 157 466 1399 203 466 1400 223 467 1401 224 467 1402 218 467 1403 201 468 1404 214 468 1405 213 468 1406 211 469 1407 204 469 1408 234 469 1409 208 470 1410 194 470 1411 198 470 1412 240 471 1413 241 471 1414 197 471 1415 263 472 1416 200 472 1417 216 472 1418 217 473 1419 215 473 1420 193 473 1421 214 474 1422 193 474 1423 200 474 1424 196 475 1425 202 475 1426 205 475 1427 203 476 1428 204 476 1429 211 476 1430 266 477 1431 206 477 1432 213 477 1433 196 478 1434 217 478 1435 195 478 1436 128 479 1437 207 479 1438 209 479 1439 196 480 1440 216 480 1441 215 480 1442 222 481 1443 220 481 1444 218 481 1445 238 482 1446 206 482 1447 266 482 1448 199 483 1449 209 483 1450 210 483 1451 267 484 1452 213 484 1453 200 484 1454 204 485 1455 203 485 1456 265 485 1457 207 486 1458 208 486 1459 210 486 1460 235 487 1461 212 487 1462 211 487 1463 159 488 1464 212 488 1465 235 488 1466 197 489 1467 222 489 1468 224 489 1469 219 490 1470 218 490 1471 220 490 1472 201 491 1473 206 491 1474 238 491 1475 202 492 1476 195 492 1477 239 492 1478 237 493 1479 239 493 1480 195 493 1481 265 494 1482 261 494 1483 223 494 1484 193 495 1485 215 495 1486 216 495 1487 220 496 1488 222 496 1489 239 496 1490 197 497 1491 241 497 1492 239 497 1493 237 498 1494 238 498 1495 221 498 1496 226 499 1497 235 499 1498 207 499 1499 235 500 1500 236 500 1501 208 500 1502 221 501 1503 238 501 1504 268 501 1505 202 502 1506 241 502 1507 240 502 1508 236 503 1509 234 503 1510 194 503 1511 264 514 1542 268 514 1543 234 514 1544 157 515 1545 261 515 1546 265 515 1547 264 516 1548 265 516 1549 219 516 1550 198 517 1551 267 517 1552 263 517 1553 268 518 1554 266 518 1555 194 518 1556 194 519 1557 266 519 1558 267 519 1559 62 520 1560 199 520 1561 263 520 1562</p>
        </triangles>
      </mesh>
    </geometry>
  </library_geometries>
  <library_visual_scenes>
    <visual_scene id="Scene" name="Scene">
      <node id="Cube" name="Cube" type="NODE">
        <matrix sid="transform">1 0 0 0 0 1 0 0 0 0 1 0 0 0 0 1</matrix>
        <instance_geometry url="#Cube-mesh" name="Cube">
          <bind_material>
            <technique_common>
              <instance_material symbol="Paintable-0-material" target="#Paintable-0-material">
                <bind_vertex_input semantic="UVMap" input_semantic="TEXCOORD" input_set="0"/>
              </instance_material>
              <instance_material symbol="Paintable-1-material" target="#Paintable-1-material">
                <bind_vertex_input semantic="UVMap" input_semantic="TEXCOORD" input_set="0"/>
              </instance_material>
            </technique_common>
          </bind_material>
        </instance_geometry>
      </node>
    </visual_scene>
  </library_visual_scenes>
  <scene>
    <instance_visual_scene url="#Scene"/>
  </scene>
</COLLADA>